<?xml version="1.0" encoding="utf-8"?>
<!-- Generator: Adobe Illustrator 21.0.0, SVG Export Plug-In . SVG Version: 6.00 Build 0)  -->
<svg version="1.1" id="图层_1" xmlns="http://www.w3.org/2000/svg" xmlns:xlink="http://www.w3.org/1999/xlink" x="0px" y="0px"
	 viewBox="0 0 48 48" style="enable-background:new 0 0 48 48;" xml:space="preserve">
<style type="text/css">
	.st0{fill:#221714;}
</style>
<g>
	<g>
		<path class="st0" d="M35.2,41.2C32,43.6,28.2,45,24.1,45H24c-5.8,0-11-2.6-14.4-6.8c1.5-1.6,1.9-4,0.7-6c-0.9-1.6-2.6-2.5-4.3-2.5
			c-0.8,0-1.6,0.2-2.3,0.6H3.6l0,0H3.5c-2.4,1.4-3.2,4.5-1.8,6.8c0.9,1.6,2.6,2.5,4.3,2.5c0.7,0,1.3-0.1,1.9-0.4
			C11.7,44,17.5,47,24,47h0.1c4.6,0,8.9-1.6,12.4-4.3L35.2,41.2z M3.4,36.3C3,35.6,2.9,34.8,3.1,34c0.2-0.6,0.5-1.2,1-1.6
			c0.1-0.1,0.2-0.2,0.4-0.3c0.5-0.3,1-0.4,1.5-0.4l0,0c1.1,0,2,0.6,2.6,1.5c0.4,0.7,0.5,1.5,0.3,2.3c-0.1,0.4-0.3,0.8-0.5,1.1
			s-0.5,0.6-0.9,0.8c-0.3,0.2-0.5,0.3-0.8,0.3c-0.2,0.1-0.4,0.1-0.7,0.1C4.9,37.7,3.9,37.2,3.4,36.3z"/>
		<path class="st0" d="M24,1c-2.6,0-4.7,2-5,4.5C10,7.7,3.4,15.7,3.1,25.3h2c0.3-8.6,6.3-15.7,14.2-17.8c0.6,2,2.5,3.5,4.7,3.5
			c2.8,0,5-2.2,5-5S26.8,1,24,1z M27,6c0,0.4-0.1,0.8-0.2,1.1C26.3,8.3,25.3,9,24,9c-1.3,0-2.3-0.8-2.8-1.9C21.1,6.8,21,6.4,21,6
			c0-0.3,0.1-0.6,0.1-0.9C21.5,3.9,22.7,3,24,3c1.4,0,2.5,0.9,2.9,2.1C27,5.5,27,5.7,27,6z"/>
		<path class="st0" d="M44.5,30.2C44.5,30.2,44.4,30.2,44.5,30.2c0.2-1.5,0.4-2.9,0.4-4.4c-0.1-8-4.7-15-11.2-18.5l-0.8,1.8
			c6,3.2,10,9.4,10.1,16.6c0,1.3-0.1,2.6-0.4,3.8c-0.2,0-0.3,0-0.5,0c-1.7,0-3.4,0.9-4.4,2.5c-1.4,2.4-0.5,5.5,1.9,6.8
			c0.8,0.4,1.6,0.7,2.5,0.7c1.7,0,3.4-0.9,4.4-2.5C47.7,34.7,46.9,31.6,44.5,30.2z M42,37.6c-0.2,0-0.4,0-0.6-0.1
			c-0.3-0.1-0.6-0.2-0.9-0.3c-0.3-0.2-0.6-0.4-0.8-0.7c-0.8-0.9-0.9-2.3-0.3-3.4c0.5-0.9,1.5-1.5,2.6-1.5l0,0l0,0l0,0
			c0.5,0,1,0.1,1.5,0.4c0.1,0.1,0.3,0.2,0.4,0.3c0.5,0.4,0.8,0.9,1,1.5c0.2,0.8,0.1,1.6-0.3,2.3C44.1,37,43.1,37.6,42,37.6z"/>
	</g>
	<path class="st0" d="M32.3,28.4l3.4-2l-3.4-2l-0.9,0.5l4.3-2.5l-11.9-7l-11.9,7l3.4,2l-3.4,2l11.9,7l7.6-4.4l2.4,1.4l-10,5.8
		l-10-5.8l2.4-1.4l-1-0.6l-3.4,2l11.9,7l11.9-7L32.3,28.4z M23.8,16.6l10,5.8l-10,5.8l-10-5.8L23.8,16.6z M23.8,32.3l-10-5.8
		l2.4-1.4l-0.6-0.4l8.2,4.8l7.6-4.4l2.4,1.4L23.8,32.3z"/>
</g>
</svg>
