<?xml version="1.0" encoding="utf-8"?>
<!-- Generator: Adobe Illustrator 21.0.0, SVG Export Plug-In . SVG Version: 6.00 Build 0)  -->
<svg version="1.1" id="图层_1" xmlns="http://www.w3.org/2000/svg" xmlns:xlink="http://www.w3.org/1999/xlink" x="0px" y="0px"
	 viewBox="0 0 48 48" style="enable-background:new 0 0 48 48;" xml:space="preserve">
<style type="text/css">
	.st0{fill:#060001;}
	.st1{fill:#040000;}
	.st2{fill:none;stroke:#000000;stroke-miterlimit:10;}
	.st3{fill:#221815;}
	.st4{fill:#080102;}
	.st5{fill:none;stroke:#000000;stroke-width:2;stroke-linecap:round;stroke-linejoin:round;stroke-miterlimit:10;}
	.st6{fill:#070001;}
</style>
<path d="M45.8,23.6l-8-7c-0.2-0.2-0.5-0.2-0.7,0s-0.2,0.5,0,0.7l7.6,6.6l-7.6,6.6c-0.2,0.2-0.2,0.5,0,0.7c0.1,0.1,0.2,0.2,0.4,0.2
	c0.1,0,0.2,0,0.3-0.1l8-7c0.1-0.1,0.2-0.2,0.2-0.4S45.9,23.7,45.8,23.6z M44,33c-0.6,0-1,0.4-1,1v5H5v-5c0-0.6-0.4-1-1-1s-1,0.4-1,1
	v7c0,2.8,2.1,5,4.8,5h32.4c2.6,0,4.8-2.2,4.8-5v-7C45,33.4,44.6,33,44,33z M43,41c0,1.7-1.3,3-2.8,3H7.8C6.3,44,5,42.7,5,41v-1h38
	V41z M4,15c0.6,0,1-0.4,1-1V9h38v5c0,0.6,0.4,1,1,1s1-0.4,1-1V7c0-2.8-2.1-5-4.8-5H8.8C6.2,2,3,4.2,3,7v7C3,14.6,3.4,15,4,15z M5,7
	c0-1.5,2.1-3,3.8-3h31.4C41.7,4,43,5.3,43,7v1H5V7z M10.5,31.5c0.1,0,0.3-0.1,0.4-0.2c0.2-0.2,0.2-0.5,0-0.7L3.3,24l7.6-6.6
	c0.2-0.2,0.2-0.5,0-0.7s-0.5-0.2-0.7,0l-8,7C2.1,23.7,2,23.9,2,24s0.1,0.3,0.2,0.4l8,7C10.3,31.5,10.4,31.5,10.5,31.5z M27.5,14.8
	l-8,18c-0.1,0.3,0,0.5,0.3,0.7c0.1,0,0.1,0,0.2,0c0.2,0,0.4-0.1,0.5-0.3l8-18c0.1-0.3,0-0.5-0.3-0.7C28,14.4,27.7,14.5,27.5,14.8z"
	/>
</svg>
