<?xml version="1.0" encoding="utf-8"?>
<!-- Generator: Adobe Illustrator 21.0.0, SVG Export Plug-In . SVG Version: 6.00 Build 0)  -->
<svg version="1.1" id="图层_1" xmlns="http://www.w3.org/2000/svg" xmlns:xlink="http://www.w3.org/1999/xlink" x="0px" y="0px"
	 viewBox="0 0 48 48" style="enable-background:new 0 0 48 48;" xml:space="preserve">
<style type="text/css">
	.st0{fill:#060001;}
	.st1{fill:#040000;}
	.st2{fill:none;stroke:#000000;stroke-miterlimit:10;}
	.st3{fill:#221815;}
	.st4{fill:#080102;}
	.st5{fill:none;stroke:#000000;stroke-width:2;stroke-linecap:round;stroke-linejoin:round;stroke-miterlimit:10;}
	.st6{fill:#070001;}
</style>
<path d="M29,6H19c-0.3,0-0.5,0.2-0.5,0.5S18.7,7,19,7h10c0.3,0,0.5-0.2,0.5-0.5S29.3,6,29,6z M19,42h10c0.3,0,0.5-0.2,0.5-0.5
	S29.3,41,29,41H19c-0.3,0-0.5,0.2-0.5,0.5S18.7,42,19,42z M36,2H12C9.8,2,8,3.8,8,6v36c0,2.2,1.8,4,4,4h24c2.2,0,4-1.8,4-4V6
	C40,3.8,38.2,2,36,2z M38,42c0,1.1-0.9,2-2,2H12c-1.1,0-2-0.9-2-2v-3h28V42z M15.5,38c0.3-4.2,4-7.5,8.5-7.5s8.2,3.3,8.5,7.5H15.5z
	 M38,38h-4.5c-0.3-4.7-4.4-8.5-9.5-8.5s-9.2,3.8-9.5,8.5H10V10h28V38z M38,9H10V6c0-1.1,0.9-2,2-2h24c1.1,0,2,0.9,2,2V9z"/>
</svg>
