<?xml version="1.0" encoding="utf-8"?>
<!-- Generator: Adobe Illustrator 21.0.0, SVG Export Plug-In . SVG Version: 6.00 Build 0)  -->
<svg version="1.1" id="图层_1" xmlns="http://www.w3.org/2000/svg" xmlns:xlink="http://www.w3.org/1999/xlink" x="0px" y="0px"
	 viewBox="0 0 48 48" style="enable-background:new 0 0 48 48;" xml:space="preserve">
<style type="text/css">
	.st0{fill:#060001;}
	.st1{fill:#040000;}
	.st2{fill:none;stroke:#000000;stroke-miterlimit:10;}
	.st3{fill:#221815;}
	.st4{fill:#080102;}
	.st5{fill:none;stroke:#000000;stroke-width:2;stroke-linecap:round;stroke-linejoin:round;stroke-miterlimit:10;}
	.st6{fill:#070001;}
</style>
<path d="M16.8,13.6c-0.2-0.2-0.5-0.2-0.7,0c-0.2,0.2-0.2,0.5,0,0.7l7.6,6.6l-7.6,6.6c-0.2,0.2-0.2,0.5,0,0.7
	c0.1,0.1,0.2,0.2,0.4,0.2c0.1,0,0.2,0,0.3-0.1l8-7c0.1-0.1,0.2-0.2,0.2-0.4s-0.1-0.3-0.2-0.4L16.8,13.6z M39,44H6.5
	C4.7,44,4,42.4,4,41V18c0-0.6-0.4-1-1-1s-1,0.4-1,1v23c0,2.9,1.9,5,4.5,5H39c0.6,0,1-0.4,1-1S39.6,44,39,44z M42,2H11
	C8.8,2,7,3.8,7,6v31c0,2.2,1.8,4,4,4h31c2.2,0,4-1.8,4-4V6C46,3.8,44.2,2,42,2z M44,37c0,1.1-0.9,2-2,2H11c-1.1,0-2-0.9-2-2V6
	c0-1.1,0.9-2,2-2h31c1.1,0,2,0.9,2,2V37z"/>
</svg>
