<svg id="图层_1" data-name="图层 1" xmlns="http://www.w3.org/2000/svg" viewBox="0 0 40.99 44"><title>AppCube</title><path d="M7.38,14.2l-1.67-3a.42.42,0,0,0-.4-.23.43.43,0,0,0-.4.26L3,14.9a.54.54,0,0,0,0,.43l1.64,3a.45.45,0,0,0,.4.24.46.46,0,0,0,.4-.24l1.9-3.7A.54.54,0,0,0,7.38,14.2Zm-2.3,2.9-1.1-2L5.34,12.4l1.1,2ZM5.81,22l2.4,4.4a.46.46,0,0,0,.4.23A.56.56,0,0,0,9,26.4L11.81,21a.47.47,0,0,0,0-.43l-2.43-4.4a.44.44,0,0,0-.4-.24.43.43,0,0,0-.4.27L5.81,21.57A.47.47,0,0,0,5.81,22ZM9,17.37l1.86,3.4-2.26,4.4L6.71,21.73Zm8.76,9.13,2.67-5.17a3.19,3.19,0,0,0,0-3l-2.54-4.6a.46.46,0,0,0-.4-.23.43.43,0,0,0-.4.27l-3.3,6.46a.56.56,0,0,0,0,.44l3.2,5.83a.47.47,0,0,0,.4.23A.38.38,0,0,0,17.74,26.5Zm-3.06-6.07L17.48,15l2.1,3.83a2.23,2.23,0,0,1,0,2.1l-2.27,4.37Zm-1.7,2a.43.43,0,0,0-.4.27l-3.3,6.43a.49.49,0,0,0,0,.44l3.2,5.83a.46.46,0,0,0,.4.23.51.51,0,0,0,.43-.26l3.3-6.44a.47.47,0,0,0,0-.43l-3.23-5.83A.44.44,0,0,0,13,22.43Zm-.14,11.74-2.66-4.84L13,23.87l2.66,4.86ZM8.88,33a.48.48,0,0,0-.4-.23.42.42,0,0,0-.4.26l-2.5,4.9a.49.49,0,0,0,0,.44L8,42.73a.45.45,0,0,0,.4.24.45.45,0,0,0,.4-.3l2.5-4.87a.54.54,0,0,0,0-.43Zm-.54,8.5L6.48,38.13l2-3.86,1.86,3.36ZM43.21,19.43,34,2.53a1,1,0,0,0-.9-.53H16.81a1,1,0,0,0-.87,1.47l7.5,14.13a3.28,3.28,0,0,1,0,3l-12,24a1,1,0,0,0,0,1,1,1,0,0,0,.86.47h19.9a1,1,0,0,0,.9-.53l10.17-20.1A6.46,6.46,0,0,0,43.21,19.43Zm-1.73,5L31.61,44H13.94L25.28,21.5a5.28,5.28,0,0,0-.07-4.83L18.48,4h14l8.9,16.4A4.32,4.32,0,0,1,41.48,24.47Zm-28.8-6.9a.46.46,0,0,0,.4.23.45.45,0,0,0,.4-.27l2.76-5.4a.47.47,0,0,0,0-.43L13.81,7.3a.47.47,0,0,0-.4-.23.43.43,0,0,0-.4.26l-2.73,5.4a.49.49,0,0,0,0,.44Zm.76-9,1.87,3.4L13,16.33,11.18,12.9Z" transform="translate(-2.99 -2)"/></svg>