<?xml version="1.0" encoding="utf-8"?>
<!-- Generator: Adobe Illustrator 21.0.0, SVG Export Plug-In . SVG Version: 6.00 Build 0)  -->
<svg version="1.1" id="图层_1" xmlns="http://www.w3.org/2000/svg" xmlns:xlink="http://www.w3.org/1999/xlink" x="0px" y="0px"
	 viewBox="0 0 48 48" style="enable-background:new 0 0 48 48;" xml:space="preserve">
<style type="text/css">
	.st0{fill:#040000;}
	.st1{fill:#060001;}
	.st2{fill:#080103;}
</style>
<path class="st1" d="M41.4,40.6H6.6c-0.6,0-1.2,0.5-1.2,1.2C5.5,42.5,6,43,6.6,43h34.7c0.6,0,1.2-0.5,1.2-1.2
	C42.5,41.2,42,40.6,41.4,40.6z M26.3,15.1c-0.3-0.1-0.6,0-0.8,0.3l-4.1,9.4c-0.1,0.3,0,0.7,0.3,0.8c0.1,0,0.2,0.1,0.2,0.1
	c0.2,0,0.4-0.1,0.5-0.4l4.1-9.4C26.7,15.6,26.6,15.3,26.3,15.1z M12.2,20.4l5.5-4.3c0.3-0.2,0.3-0.6,0.1-0.8
	c-0.2-0.3-0.6-0.3-0.8-0.1l-6.1,4.7c-0.1,0.1-0.2,0.3-0.2,0.5c0,0.2,0.1,0.4,0.2,0.5l6.1,4.7c0.1,0.1,0.2,0.1,0.4,0.1
	c0.2,0,0.3-0.1,0.5-0.2c0.2-0.3,0.1-0.6-0.1-0.8L12.2,20.4z M31,15.2c-0.3-0.2-0.6-0.1-0.8,0.1c-0.2,0.3-0.1,0.6,0.1,0.8l5.5,4.3
	l-5.5,4.3c-0.3,0.2-0.3,0.6-0.1,0.8c0.1,0.2,0.3,0.2,0.5,0.2c0.1,0,0.2,0,0.4-0.1l6.1-4.7c0.1-0.1,0.2-0.3,0.2-0.5
	c0-0.2-0.1-0.4-0.2-0.5L31,15.2z M42.5,5H5.5C3.6,5,2,6.6,2,8.6v24.9c0,2,1.6,3.6,3.5,3.6h37.1c1.9,0,3.5-1.6,3.5-3.6V8.6
	C46,6.6,44.4,5,42.5,5z M43.7,33.5c0,0.7-0.5,1.2-1.2,1.2H5.5c-0.6,0-1.2-0.5-1.2-1.2V8.6c0-0.7,0.5-1.2,1.2-1.2h37.1
	c0.6,0,1.2,0.5,1.2,1.2V33.5z"/>
</svg>
