<?xml version="1.0" encoding="utf-8"?>
<!-- Generator: Adobe Illustrator 21.0.0, SVG Export Plug-In . SVG Version: 6.00 Build 0)  -->
<svg version="1.1" id="图层_1" xmlns="http://www.w3.org/2000/svg" xmlns:xlink="http://www.w3.org/1999/xlink" x="0px" y="0px"
	 viewBox="0 0 48 48" style="enable-background:new 0 0 48 48;" xml:space="preserve">
<style type="text/css">
	.st0{fill:#231816;}
</style>
<path class="st0" d="M5.5,13C5.2,13,5,13.2,5,13.5v15C5,28.8,5.2,29,5.5,29S6,28.8,6,28.5v-15C6,13.2,5.8,13,5.5,13z M2.5,17
	C2.2,17,2,17.2,2,17.5v7C2,24.8,2.2,25,2.5,25S3,24.8,3,24.5v-7C3,17.2,2.8,17,2.5,17z M33.9,3H14.1C11.3,3,9,5.3,9,8.1v26.8
	c0,2.8,2.3,5.1,5.1,5.1H23v4c0,0.6,0.4,1,1,1s1-0.4,1-1v-4h8.9c2.8,0,5.1-2.3,5.1-5.1V8.1C39,5.3,36.7,3,33.9,3z M37,13.5h-9
	c-0.3,0-0.5,0.2-0.5,0.5s0.2,0.5,0.5,0.5h9v6h-9c-0.3,0-0.5,0.2-0.5,0.5s0.2,0.5,0.5,0.5h9v6h-9c-0.3,0-0.5,0.2-0.5,0.5
	s0.2,0.5,0.5,0.5h9v6.4c0,1.7-1.4,3.1-3.1,3.1H14.1c-1.7,0-3.1-1.4-3.1-3.1v-6.4h9c0.3,0,0.5-0.2,0.5-0.5s-0.2-0.5-0.5-0.5h-9v-6h9
	c0.3,0,0.5-0.2,0.5-0.5s-0.2-0.5-0.5-0.5h-9v-6h9c0.3,0,0.5-0.2,0.5-0.5s-0.2-0.5-0.5-0.5h-9V8.1C11,6.4,12.4,5,14.1,5h19.8
	C35.6,5,37,6.4,37,8.1V13.5z M45.5,17c-0.3,0-0.5,0.2-0.5,0.5v7c0,0.3,0.2,0.5,0.5,0.5s0.5-0.2,0.5-0.5v-7C46,17.2,45.8,17,45.5,17z
	 M42.5,13c-0.3,0-0.5,0.2-0.5,0.5v15c0,0.3,0.2,0.5,0.5,0.5s0.5-0.2,0.5-0.5v-15C43,13.2,42.8,13,42.5,13z"/>
</svg>
