<svg id="图层_1" data-name="图层 1" xmlns="http://www.w3.org/2000/svg" viewBox="0 0 43.77 32"><title>atc</title><path d="M46.77,27.23a12,12,0,0,0-1-4.15V23a.14.14,0,0,0-.07-.14,12,12,0,0,0-8.62-6.65L36,16a11.74,11.74,0,0,0-11.2-8,11.89,11.89,0,0,0-11.3,8.1A12,12,0,0,0,14.77,40h20a12,12,0,0,0,12-12ZM44,31.92l-.25.54A10,10,0,0,1,35.86,38c-.36,0-.72.06-1.09.06a10,10,0,1,1,8.68-15h0a.08.08,0,0,0,0,.07c.1.18.18.35.26.53l.09.2c0,.1.1.1.1.2l.06.14A10,10,0,0,1,44.77,28a10.44,10.44,0,0,1-.31,2.43A12.67,12.67,0,0,1,44,31.92ZM14.77,38a10,10,0,0,1-10-10,9.89,9.89,0,0,1,8.9-9.9L15,18l.4-1.2A10,10,0,0,1,33.94,16a12,12,0,0,0-9.28,5.52v.06c-.17.28-.34.57-.5.87l-.1.21c-.13.26-.25.52-.36.79s-.09.24-.13.35-.18.46-.25.7-.08.34-.13.51l-.15.6a5,5,0,0,1-.1.69,2.48,2.48,0,0,1-.07.47c-.05.41-.09.82-.1,1.23a10.43,10.43,0,0,0,.09,1.38,3.68,3.68,0,0,0,.08.58,4.22,4.22,0,0,0,.14.71c.05.24.12.5.19.75l.12.37a11.73,11.73,0,0,0,2.87,4.66l.16.15c.22.21.44.43.68.62a13,13,0,0,0,1,.78Zm25-6.5a.5.5,0,0,0-.5.5,1.5,1.5,0,0,1-1.5,1.5H31.63A1.48,1.48,0,0,1,30.27,32V27.38A1.5,1.5,0,0,1,31.77,26h6.14a1.49,1.49,0,0,1,1.36,1.5.5.5,0,1,0,1,0,2.51,2.51,0,0,0-1.59-2.33v-.5A3.88,3.88,0,0,0,34.77,21h-.25a4,4,0,0,0-3.84,3.9v.33a2.53,2.53,0,0,0-1.41,2.27v4.66a2.49,2.49,0,0,0,2.5,2.34h6.16A2.48,2.48,0,0,0,40.27,32,.5.5,0,0,0,39.77,31.52ZM31.7,24.78A3,3,0,0,1,34.77,22H35a2.89,2.89,0,0,1,2.79,2.87V25h-6v-.24ZM41.27,29a.47.47,0,0,1-.46.5H38.3a.5.5,0,0,1-.5-.5.5.5,0,0,1,.5-.5h2.47a.49.49,0,0,1,.5.46h0Zm0,1.5a.47.47,0,0,1-.46.5H38.3a.5.5,0,0,1-.5-.5.5.5,0,0,1,.5-.5h2.47a.49.49,0,0,1,.5.46h0Z" transform="translate(-3 -8.02)"/></svg>