<svg id="图层_1" data-name="图层 1" xmlns="http://www.w3.org/2000/svg" viewBox="0 0 44 44">
  <defs>
    <style>
      .cls-1 {
        fill: #040000;
      }
    </style>
  </defs>
  <title>画板 1</title>
  <g>
    <path class="cls-1" d="M15.66,22.61A2.37,2.37,0,0,0,13.29,25v.77h-.5a2.11,2.11,0,0,0-2.11,2.11v2.25a2.11,2.11,0,0,0,2.11,2.11H15a2.11,2.11,0,0,0,2.11-2.11V27.86A2.11,2.11,0,0,0,15,25.75h-.75V25a1.37,1.37,0,0,1,1.37-1.37h9.42A1.37,1.37,0,0,1,26.46,25v.77h-.75a2.11,2.11,0,0,0-2.11,2.11v2.25a2.11,2.11,0,0,0,2.11,2.11H28a2.11,2.11,0,0,0,2.11-2.11V27.86A2.11,2.11,0,0,0,28,25.75h-.5V25a2.37,2.37,0,0,0-2.37-2.37H20.84V20.38h.66a2.11,2.11,0,0,0,2.11-2.11V16a2.11,2.11,0,0,0-2.11-2.11H19.25A2.11,2.11,0,0,0,17.14,16v2.25a2.11,2.11,0,0,0,2.11,2.11h.59v2.24ZM15,26.75a1.11,1.11,0,0,1,1.11,1.11v2.25A1.11,1.11,0,0,1,15,31.21H12.79a1.11,1.11,0,0,1-1.11-1.11V27.86a1.11,1.11,0,0,1,1.11-1.11Zm12.92,0a1.11,1.11,0,0,1,1.11,1.11v2.25A1.11,1.11,0,0,1,28,31.21H25.71a1.11,1.11,0,0,1-1.11-1.11V27.86a1.11,1.11,0,0,1,1.11-1.11Zm-8.7-7.38a1.11,1.11,0,0,1-1.11-1.11V16a1.11,1.11,0,0,1,1.11-1.11H21.5A1.11,1.11,0,0,1,22.6,16v2.25a1.11,1.11,0,0,1-1.11,1.11Z"/>
    <path class="cls-1" d="M38.58,1.1H15.93a2.45,2.45,0,0,0-2.44,2.44V5.28H8.83c-2.61,0-4.36,1.59-4.36,4v12.2a1,1,0,0,0,2,0V9.24c0-1.7,1.48-2,2.36-2H32.15c1.21,0,2.63.51,2.63,2v12.2a1,1,0,0,0,2,0V9.24c0-2.33-1.9-4-4.63-4H14.49V3.54A1.45,1.45,0,0,1,15.93,2.1H38.58A1.44,1.44,0,0,1,40,3.54v32A1.44,1.44,0,0,1,38.58,37h-1.8V26.85a1,1,0,1,0-2,0V39c0,1.7-1.48,2-2.36,2H9.1c-1.21,0-2.63-.51-2.63-2V26.85a1,1,0,1,0-2,0V39c0,2.33,1.9,4,4.63,4H32.42c2.61,0,4.36-1.59,4.36-4V38h1.8A2.45,2.45,0,0,0,41,35.51v-32A2.45,2.45,0,0,0,38.58,1.1Z"/>
  </g>
</svg>
