<?xml version="1.0" encoding="utf-8"?>
<!-- Generator: Adobe Illustrator 16.0.0, SVG Export Plug-In . SVG Version: 6.00 Build 0)  -->
<!DOCTYPE svg PUBLIC "-//W3C//DTD SVG 1.1//EN" "http://www.w3.org/Graphics/SVG/1.1/DTD/svg11.dtd">
<svg version="1.1" id="图层_1" xmlns="http://www.w3.org/2000/svg" xmlns:xlink="http://www.w3.org/1999/xlink" x="0px" y="0px"
	 width="48px" height="48px" viewBox="0 0 48 48" enable-background="new 0 0 48 48" xml:space="preserve">
<path d="M19.294,19.422c0.179,0.308,0.508,0.497,0.864,0.497h7.684c0.356,0,0.686-0.189,0.864-0.497l3.841-6.6
	c0.181-0.311,0.181-0.695,0-1.006l-3.841-6.6c-0.179-0.308-0.508-0.497-0.864-0.497h-7.684c-0.356,0-0.685,0.189-0.864,0.497
	l-3.841,6.6c-0.181,0.311-0.181,0.695,0,1.006L19.294,19.422z M20.733,6.72h6.533l3.259,5.6l-3.259,5.6h-6.533l-3.259-5.6
	L20.733,6.72z M40.29,23.533c0.056,0.229,0.261,0.383,0.486,0.383c0.038,0,0.078-0.004,0.117-0.014
	c0.269-0.064,0.434-0.335,0.369-0.603c-0.783-3.243-2.528-6.14-5.046-8.378c-0.205-0.184-0.522-0.165-0.706,0.042
	c-0.184,0.206-0.164,0.522,0.042,0.706C37.917,17.77,39.556,20.49,40.29,23.533z M32.309,18.237
	c-0.184,0.206-0.165,0.522,0.042,0.706c1.686,1.5,2.854,3.439,3.378,5.609c0.056,0.229,0.261,0.383,0.486,0.383
	c0.038,0,0.078-0.004,0.117-0.014c0.269-0.064,0.434-0.335,0.369-0.603c-0.572-2.37-1.848-4.486-3.687-6.122
	C32.81,18.011,32.494,18.03,32.309,18.237z M27.303,37.309c-2.152,0.708-4.444,0.76-6.627,0.146
	c-0.265-0.072-0.542,0.081-0.617,0.347c-0.075,0.266,0.081,0.542,0.346,0.616c1.099,0.309,2.222,0.462,3.345,0.462
	c1.304,0,2.606-0.207,3.865-0.622c0.263-0.086,0.405-0.369,0.318-0.631C27.847,37.364,27.564,37.219,27.303,37.309z M45.864,34.155
	l-3.842-6.6c-0.179-0.308-0.508-0.497-0.864-0.497h-7.683c-0.356,0-0.686,0.189-0.864,0.497l-3.842,6.6
	c-0.181,0.311-0.181,0.695,0,1.006l3.842,6.6c0.179,0.308,0.508,0.497,0.864,0.497h7.683c0.356,0,0.686-0.189,0.864-0.497l3.842-6.6
	C46.045,34.851,46.045,34.466,45.864,34.155z M40.583,40.258h-6.532l-3.26-5.6l3.26-5.6h6.532l3.26,5.6L40.583,40.258z
	 M28.61,41.421c-3.021,0.994-6.231,1.063-9.287,0.205c-0.263-0.072-0.542,0.08-0.617,0.346c-0.075,0.267,0.08,0.542,0.346,0.617
	c1.502,0.423,3.041,0.634,4.578,0.634c1.784,0,3.567-0.284,5.292-0.853c0.263-0.086,0.405-0.368,0.318-0.631
	S28.871,41.332,28.61,41.421z M19.23,34.155l-3.841-6.6c-0.179-0.308-0.508-0.497-0.864-0.497H6.841
	c-0.356,0-0.685,0.189-0.864,0.497l-3.841,6.6c-0.181,0.311-0.181,0.695,0,1.006l3.841,6.6c0.179,0.308,0.508,0.497,0.864,0.497
	h7.684c0.356,0,0.685-0.189,0.864-0.497l3.841-6.6C19.411,34.851,19.411,34.466,19.23,34.155z M13.95,40.258H7.416l-3.259-5.6
	l3.259-5.6h6.534l3.259,5.6L13.95,40.258z M11.517,24.791c0.043,0.011,0.086,0.017,0.129,0.017c0.221,0,0.423-0.147,0.483-0.372
	c0.574-2.16,1.787-4.074,3.506-5.535c0.21-0.179,0.236-0.494,0.057-0.705c-0.179-0.21-0.496-0.236-0.705-0.057
	c-1.875,1.594-3.198,3.682-3.825,6.04C11.091,24.446,11.25,24.72,11.517,24.791z M6.632,23.552c0.043,0.011,0.086,0.017,0.129,0.017
	c0.221,0,0.423-0.148,0.483-0.372c0.804-3.026,2.504-5.708,4.917-7.759c0.21-0.179,0.236-0.494,0.057-0.705
	c-0.179-0.211-0.495-0.237-0.705-0.057c-2.569,2.183-4.38,5.04-5.236,8.264C6.207,23.208,6.365,23.481,6.632,23.552z"/>
</svg>
