<svg id="图层_1" data-name="图层 1" xmlns="http://www.w3.org/2000/svg" viewBox="0 0 44 42.52"><defs><style>.cls-1{fill:#333;}</style></defs><title>bigdata-container-service</title><path id="形状结合" class="cls-1" d="M8.39,12.43l-1,4.35-1.86-.37,1.21-5.19L24.23,2.8l17.42,8.42L46,30.12,34,45.31H14.51L2.47,30,3.21,27l1.85.47L4.6,29.66l11,13.71h17.6l10.93-13.8L40.26,12.43l-16-7.69Zm14,6.11v4.63H17.75V18.54Zm-.92.93H18.68v2.78h2.78ZM32.57,26v4.63H27.94V26Zm-.92.93H28.87v2.78h2.78ZM27,27.81v7.41H19.6V27.81Zm-.92,6.48V28.73H20.53v5.56ZM37.2,14.84V24.1H27.94V14.84Zm-.92.92H28.87v7.41h7.41ZM18.68,25v4.63H14.05V25Zm-.93,3.7V26H15v2.78ZM15,19.47v2.78H12.19V19.47Zm-.92,1.85V20.4h-.93v.92ZM7.56,18.54V20.4H5.71V18.54Zm-3.7,2.78v1.85H2V21.32Zm4.63.93V24.1H6.63V22.25Zm4.63.92V26H10.34V23.17Zm-.93.93h-.92V25h.92Z" transform="translate(-2 -2.8)"/></svg>