<?xml version="1.0" encoding="utf-8"?>
<!-- Generator: Adobe Illustrator 21.0.0, SVG Export Plug-In . SVG Version: 6.00 Build 0)  -->
<svg version="1.1" id="图层_1" xmlns="http://www.w3.org/2000/svg" xmlns:xlink="http://www.w3.org/1999/xlink" x="0px" y="0px"
	 viewBox="0 0 48 48" style="enable-background:new 0 0 48 48;" xml:space="preserve">
<title>黑名单-03svg</title>
<g>
	<path d="M31.1,21.4c-6.7,0-12,5.4-12,12.1c0,6.7,5.4,12,12.1,12c6.6,0,12-5.4,12-12c0,0,0-0.1,0-0.1C43.1,26.7,37.7,21.3,31.1,21.4
		z M31,43.5c-5.6,0-10-4.5-10-10.1c0-2.7,1.1-5.2,2.9-7l13.7,14.7C35.8,42.6,33.5,43.5,31,43.5z M41.1,33.5c0,2.7-1.1,5.1-2.8,6.9
		L24.7,25.7c1.8-1.5,4-2.3,6.5-2.3C36.7,23.4,41.1,27.9,41.1,33.5C41.2,33.4,41.1,33.4,41.1,33.5z"/>
	<path d="M29.5,13.8c0-0.3-0.2-0.5-0.5-0.5H12.3c-0.3,0-0.5,0.2-0.5,0.5s0.2,0.5,0.5,0.5H29C29.3,14.3,29.5,14,29.5,13.8z"/>
	<path d="M12.3,20.7c-0.3,0-0.5,0.2-0.5,0.5s0.2,0.5,0.5,0.5h8.8c0.3,0,0.5-0.2,0.5-0.5s-0.2-0.5-0.5-0.5H12.3z"/>
	<path d="M16.9,39.6H8c-0.2,0-0.3,0-0.4-0.1C7.2,39,7.1,38.5,7.2,38V6.9c0-0.3,0-0.6,0.2-0.8c0,0,0.1-0.2,0.5-0.2h28.3
		c0.4,0,0.8,0.1,1.1,0.3c0.2,0.2,0.3,0.5,0.2,0.7v12.6c0,0.6,0.4,1,1,1s1-0.4,1-1V6.8c0-0.8-0.3-1.6-0.9-2.2
		c-0.7-0.6-1.6-0.9-2.5-0.8H7.9c-0.8,0-1.5,0.3-2,0.8C5.3,5.3,5.1,6.2,5.2,7v31c-0.1,1.1,0.3,2.2,1.1,3c0.5,0.4,1.1,0.6,1.7,0.6v0
		h8.9c0.6,0,1-0.4,1-1C17.9,40,17.4,39.6,16.9,39.6z"/>
</g>
</svg>
