<svg id="图层_1" data-name="图层 1" xmlns="http://www.w3.org/2000/svg" viewBox="0 0 40 40"><title>cardocr</title><path id="服务图标-文字识别_证件类cardocr" data-name="服务图标-文字识别 证件类cardocr" d="M4,15V8A4,4,0,0,1,8,4h7a.94.94,0,0,1,1,1,.94.94,0,0,1-1,1H8A2,2,0,0,0,6,8v7a.94.94,0,0,1-1,1A.94.94,0,0,1,4,15ZM6,33v7a2,2,0,0,0,2,2h7a1,1,0,0,1,0,2H8a4,4,0,0,1-4-4V33a.94.94,0,0,1,1-1A.94.94,0,0,1,6,33Zm27,9h7a2,2,0,0,0,2-2V33a1,1,0,0,1,2,0v7a4,4,0,0,1-4,4H33a1,1,0,0,1,0-2ZM42,8a2,2,0,0,0-2-2H33a.94.94,0,0,1-1-1,.94.94,0,0,1,1-1h7a4,4,0,0,1,4,4v7a1,1,0,0,1-2,0ZM12,15a.94.94,0,0,0-1,1V32a.94.94,0,0,0,1,1H36a.94.94,0,0,0,1-1V16a.94.94,0,0,0-1-1Zm0-1H36a2,2,0,0,1,2,2V32a2,2,0,0,1-2,2H12a2,2,0,0,1-2-2V16A2,2,0,0,1,12,14ZM23,29.5a4.5,4.5,0,0,0-9,0,.5.5,0,0,1-1,0,5.57,5.57,0,0,1,3.5-5.1A3.5,3.5,0,0,1,15,21.5a3.5,3.5,0,0,1,7,0,3.65,3.65,0,0,1-1.5,2.9A5.57,5.57,0,0,1,24,29.5a.5.5,0,0,1-1,0ZM18.5,24A2.5,2.5,0,1,0,16,21.5,2.48,2.48,0,0,0,18.5,24Zm8-4h8a.5.5,0,0,1,0,1h-8a.5.5,0,0,1,0-1Zm0,4h8a.5.5,0,0,1,0,1h-8a.5.5,0,0,1,0-1Zm0,4h5a.5.5,0,0,1,0,1h-5a.5.5,0,0,1,0-1Z" transform="translate(-4 -4)"/></svg>