<?xml version="1.0" encoding="utf-8"?>
<!-- Generator: Adobe Illustrator 21.0.0, SVG Export Plug-In . SVG Version: 6.00 Build 0)  -->
<svg version="1.1" id="图层_1" xmlns="http://www.w3.org/2000/svg" xmlns:xlink="http://www.w3.org/1999/xlink" x="0px" y="0px"
	 viewBox="0 0 48 48" style="enable-background:new 0 0 48 48;" xml:space="preserve">
<style type="text/css">
	.st0{fill:#333333;}
</style>
<path class="st0" d="M30.6,18.2h1.2c-1-1.2-2.4-2-4-2.2c-0.8-2.4-3-4.1-5.6-4.1c-2.7,0-4.9,1.7-5.7,4.1c-3,0.3-5.3,2.9-5.3,6
	c0,3.3,2.7,6,6,6h8.7v-0.9h-8.7c-2.8,0-5.1-2.3-5.1-5.1c0-2.6,2-4.8,4.5-5.1l0.6-0.1l0.2-0.5c0.7-2.1,2.6-3.5,4.8-3.5
	c2.2,0,4.1,1.4,4.8,3.5l0.2,0.5l0.6,0.1C28.8,17,29.8,17.5,30.6,18.2z M43.2,20H30.4c-1.5,0-2.8,1.2-2.8,2.7v19.7
	c0,1.5,1.2,2.7,2.8,2.7h12.8c1.5,0,2.8-1.2,2.8-2.7V22.7C46,21.2,44.8,20,43.2,20z M44.2,42.3c0,0.5-0.4,0.9-0.9,0.9H30.4
	c-0.5,0-0.9-0.4-0.9-0.9v-2.7h14.7V42.3z M44.2,38.7H29.5V22.7c0-0.5,0.4-0.9,0.9-0.9h12.8c0.5,0,0.9,0.4,0.9,0.9V38.7z M3.8,33.4
	V6.6c0-1,0.8-1.8,1.8-1.8h33c1,0,1.8,0.8,1.8,1.8v11.6h1.8V6.6c0-2-1.6-3.6-3.7-3.6h-33C3.6,3,2,4.6,2,6.6v26.8c0,2,1.6,3.6,3.7,3.6
	h20.2v-1.8H5.7C4.7,35.2,3.8,34.4,3.8,33.4z M11.2,40.5c0,0.5,0.4,0.9,0.9,0.9h13.8v-1.8H12.1C11.6,39.6,11.2,40,11.2,40.5z
	 M41,24.4h-8.2c-0.3,0-0.5,0.2-0.5,0.4s0.2,0.4,0.5,0.4H41c0.3,0,0.5-0.2,0.5-0.4S41.2,24.4,41,24.4z M36.8,42.3
	c0.5,0,0.9-0.4,0.9-0.9s-0.4-0.9-0.9-0.9c-0.5,0-0.9,0.4-0.9,0.9S36.3,42.3,36.8,42.3z M41,27.1h-8.2c-0.3,0-0.5,0.2-0.5,0.4
	s0.2,0.4,0.5,0.4H41c0.3,0,0.5-0.2,0.5-0.4S41.2,27.1,41,27.1z M36.4,29.8h-3.7c-0.3,0-0.5,0.2-0.5,0.4s0.2,0.4,0.5,0.4h3.7
	c0.3,0,0.5-0.2,0.5-0.4S36.6,29.8,36.4,29.8z"/>
</svg>
