<svg id="图层_1" data-name="图层 1" xmlns="http://www.w3.org/2000/svg" viewBox="0 0 40.02 44"><title>ccm</title><path id="形状结合" d="M24,2a3.36,3.36,0,0,1,2.1.63,36.91,36.91,0,0,0,7.37,4.71,86.31,86.31,0,0,0,8.39,3.14A3,3,0,0,1,44,13.65C43.63,18.11,42.53,27,39.79,32.5c-3.16,6.28-11.07,11.2-14.2,13.08a3,3,0,0,1-3.16,0c-3.13-1.88-11-6.8-14.2-13.08C5.48,27,4.38,18.11,4,13.65a3,3,0,0,1,2.14-3.14,86.31,86.31,0,0,0,8.39-3.14A36.91,36.91,0,0,0,21.9,2.66,3.17,3.17,0,0,1,23.75,2Zm.05,2H23.9a1.47,1.47,0,0,0-.79.22l-.62.48a37,37,0,0,1-7.07,4.43A75.79,75.79,0,0,1,8,12l-.42.15-.76.25A1.06,1.06,0,0,0,6,13.49C6.24,16.33,7.22,26,10,31.6c2,4,6.51,8.09,13.44,12.27A1.1,1.1,0,0,0,24,44a1.13,1.13,0,0,0,.54-.16C31.48,39.69,36,35.56,38,31.6c2.78-5.57,3.76-15.27,4-18.11a1,1,0,0,0-.74-1.07h0l-.76-.25a78.66,78.66,0,0,1-7.87-3,37.08,37.08,0,0,1-7.12-4.44l-.62-.48A1.41,1.41,0,0,0,24.07,4ZM24,11.53A7,7,0,0,1,30.65,16a1.83,1.83,0,0,0,1.54,1.15,7,7,0,0,1,6.31,6.68,7,7,0,0,1-7.17,6.64H16.51a6.85,6.85,0,0,1-7-6.66,6.69,6.69,0,0,1,6.28-6.66A1.89,1.89,0,0,0,17.35,16,7,7,0,0,1,24,11.53Zm0,1a6,6,0,0,0-5.72,3.9,2.88,2.88,0,0,1-2.37,1.77,5.71,5.71,0,0,0-5.41,5.67,5.85,5.85,0,0,0,6,5.66H31.33a6,6,0,0,0,6.17-5.66,5.94,5.94,0,0,0-5.36-5.66,2.81,2.81,0,0,1-2.42-1.79A6,6,0,0,0,24,12.53ZM26.5,16a4.48,4.48,0,0,1,3.6,7.18h0v4.95a.44.44,0,0,1-.43.45h-.24L26.5,26.9l-2.93,1.67a.44.44,0,0,1-.6-.16.47.47,0,0,1-.06-.15V23.21A4.45,4.45,0,0,1,22,20.53,4.51,4.51,0,0,1,26.5,16ZM29,24.17a4.13,4.13,0,0,1-4.81.14L24,24.17V27l2.29-1.31a.4.4,0,0,1,.34,0h.08L29,27ZM19.56,25a.46.46,0,0,1,.44.49h0a.49.49,0,0,1-.36.49h-6.2a.51.51,0,0,1-.08-1h6.2Zm6.94-8a3.5,3.5,0,1,0,3.5,3.5A3.5,3.5,0,0,0,26.5,17Zm0,1.5a2,2,0,1,1-2,2A2,2,0,0,1,26.5,18.53ZM19.56,21a.46.46,0,0,1,.44.49h0a.49.49,0,0,1-.36.49h-6.2a.51.51,0,0,1-.08-1h6.2Zm6.94-1.5a1,1,0,1,0,1,1A1,1,0,0,0,26.5,19.53Z" transform="translate(-3.99 -2.02)"/></svg>