<svg id="图层_1" data-name="图层 1" xmlns="http://www.w3.org/2000/svg" viewBox="0 0 40.02 44"><title>cfw</title><path id="形状结合" d="M24,2a3.49,3.49,0,0,1,2.1.63,36.47,36.47,0,0,0,7.37,4.71,86.31,86.31,0,0,0,8.39,3.14A3,3,0,0,1,44,13.62c-.37,4.47-1.47,13.39-4.21,18.85-3.16,6.28-11.07,11.2-14.2,13.08a3,3,0,0,1-3.16,0c-3.13-1.88-11-6.8-14.2-13.08C5.48,27,4.38,18.09,4,13.62a3,3,0,0,1,2.14-3.14,86.31,86.31,0,0,0,8.39-3.14A36.47,36.47,0,0,0,21.9,2.63,3.32,3.32,0,0,1,23.75,2Zm.05,2H23.9a1.47,1.47,0,0,0-.79.22l-.62.48a36.48,36.48,0,0,1-7.07,4.43A73.34,73.34,0,0,1,8,12l-.42.15-.76.25A1.07,1.07,0,0,0,6,13.46C6.24,16.3,7.22,26,10,31.57c2,4,6.51,8.09,13.44,12.27A1,1,0,0,0,24,44a1,1,0,0,0,.54-.16C31.48,39.66,36,35.54,38,31.57,40.78,26,41.76,16.3,42,13.46a1.07,1.07,0,0,0-.74-1.07h0l-.76-.25a78.66,78.66,0,0,1-7.87-3A36.12,36.12,0,0,1,25.51,4.7l-.62-.48A1.49,1.49,0,0,0,24.07,4Zm.24,10.5a6.09,6.09,0,0,1,5.77,4.07,1.49,1.49,0,0,0,1.26,1,6.16,6.16,0,0,1,5.47,6,6.17,6.17,0,0,1-6.22,5.95H17.89a6,6,0,0,1-6.08-5.92v-.08a5.93,5.93,0,0,1,5.44-6,1.54,1.54,0,0,0,1.29-1,6.09,6.09,0,0,1,5.77-4Zm11,13H18.5v3H30.59a5.12,5.12,0,0,0,4.74-3Zm-17.83,0H13.23a5.09,5.09,0,0,0,4.27,3Zm13-5.5H14.23a5,5,0,0,0-1.42,3.52,4.78,4.78,0,0,0,.1,1H30.5Zm3.79,0H31.5v4.5h4.17a4.88,4.88,0,0,0,.12-.75v-.23A5,5,0,0,0,34.29,22ZM21.5,16.33a5.21,5.21,0,0,0-2,2.6,2.52,2.52,0,0,1-2.09,1.61A5.36,5.36,0,0,0,15.7,21h5.8Zm2.81-.83a5.31,5.31,0,0,0-1.81.32V21H32.87a5.08,5.08,0,0,0-1.37-.43h-.22a2.47,2.47,0,0,1-2.14-1.63A5.09,5.09,0,0,0,24.31,15.5Z" transform="translate(-3.99 -2)"/></svg>