<svg id="图层_1" data-name="图层 1" xmlns="http://www.w3.org/2000/svg" width="40.02" height="44" viewBox="0 0 40.02 44"><title>cgs</title><path d="M33.7,17.42l-9.5-5.2a.45.45,0,0,0-.5,0l-9.5,5.2a.54.54,0,0,0-.3.4v10.5c0,.2.1.3.3.4l9.5,5.2a.35.35,0,0,1,.2.1s.2,0,.2-.1l9.5-5.2a.54.54,0,0,0,.3-.4V17.92A.37.37,0,0,0,33.7,17.42ZM33,28.13l-9,5-9-5v-10l9-5,9,5ZM16.8,18.52c-.2.11-.3.21-.3.4a.5.5,0,0,0,.2.4l6.8,4.1c.1,0,.2.1.3.1s.2,0,.2-.1l7.2-4a.52.52,0,0,0,.3-.4.73.73,0,0,0-.2-.39l-6.9-4a.42.42,0,0,0-.5,0Zm13.2.61-6.2,3.39L18,19l6.1-3.3Zm11.9-8.5c-2.1-.7-6.3-2.11-8.4-3.1a38.4,38.4,0,0,1-7.4-4.7,3.14,3.14,0,0,0-2.1-.7h0a3.77,3.77,0,0,0-2.1.59,38.4,38.4,0,0,1-7.4,4.7c-2.1,1-6.3,2.4-8.4,3.1A3,3,0,0,0,4,13.63c.4,4.6,1.5,13.5,4.2,19,3.2,6.29,11.1,11.2,14.2,13.09a2.94,2.94,0,0,0,1.6.41,2.86,2.86,0,0,0,1.6-.41c3.1-1.9,11-6.8,14.2-13.09,2.7-5.5,3.8-14.4,4.2-18.8A3.07,3.07,0,0,0,41.9,10.63ZM38,31.73c-2,4-6.5,8.1-13.4,12.3-.2,0-.4.1-.6.1a.72.72,0,0,1-.5-.21C16.5,39.83,12,35.63,10,31.73c-2.8-5.6-3.8-15.31-4-18.1-.1-.7.6-1,.8-1.11l.8-.3a81.14,81.14,0,0,0,7.9-3,41.87,41.87,0,0,0,7.1-4.4c.2-.2.4-.3.6-.5,0-.1.3-.19.7-.19H24a1.31,1.31,0,0,1,.8.19c.2.2.4.31.6.5a35.1,35.1,0,0,0,7.1,4.41,72.37,72.37,0,0,0,7.9,3l.8.3a1.13,1.13,0,0,1,.8,1.1C41.8,16.42,40.8,26.13,38,31.73Z" transform="translate(-3.99 -2.13)"/></svg>