<svg id="图层_1" data-name="图层 1" xmlns="http://www.w3.org/2000/svg" viewBox="0 0 44 44"><defs><style>.cls-1{fill:#040000;}</style></defs><title>classroom2</title><path class="cls-1" d="M36.7,14.3c-.2-.1-4.9-1.8-8.6.1a8.13,8.13,0,0,0-3.8,4A13.08,13.08,0,0,0,24,22v1.2a11.18,11.18,0,0,0-3.3-2.8c-4.6-2.4-10.5-.3-10.7-.3a.45.45,0,0,0-.3.6,13.31,13.31,0,0,0,6.2,7.1,10.63,10.63,0,0,0,4.8,1,.5.5,0,0,0,0-1,9.15,9.15,0,0,1-4.4-.9,12.18,12.18,0,0,1-5.5-6.1c1.5-.4,5.9-1.5,9.4.3A10.13,10.13,0,0,1,24,24.7V36a.5.5,0,0,0,1,0V22a10.23,10.23,0,0,1,.3-3.2,6.77,6.77,0,0,1,3.3-3.4c2.7-1.4,6.1-.6,7.3-.2-.4,1.2-1.6,4.5-4.3,5.9a7.75,7.75,0,0,1-4.2,1.2.5.5,0,0,0,0,1,9.63,9.63,0,0,0,4.8-1.4c3.7-2,4.9-6.8,4.9-7A.68.68,0,0,0,36.7,14.3ZM24,2A22,22,0,1,0,46,24,21.94,21.94,0,0,0,24,2Zm0,42A20,20,0,1,1,44,24,20.06,20.06,0,0,1,24,44Z" transform="translate(-2 -2)"/></svg>