<?xml version="1.0" encoding="utf-8"?>
<!-- Generator: Adobe Illustrator 21.0.0, SVG Export Plug-In . SVG Version: 6.00 Build 0)  -->
<svg version="1.1" id="图层_1" xmlns="http://www.w3.org/2000/svg" xmlns:xlink="http://www.w3.org/1999/xlink" x="0px" y="0px"
	 viewBox="0 0 48 48" style="enable-background:new 0 0 48 48;" xml:space="preserve">
<style type="text/css">
	.st0{fill:#060001;}
	.st1{fill:#040000;}
	.st2{fill:none;stroke:#000000;stroke-miterlimit:10;}
	.st3{fill:#221815;}
	.st4{fill:#080102;}
	.st5{fill:none;stroke:#000000;stroke-width:2;stroke-linecap:round;stroke-linejoin:round;stroke-miterlimit:10;}
	.st6{fill:#070001;}
</style>
<path class="st4" d="M28.9,39.9C28.7,40,28.5,40,28.3,40c-0.6-1.8-2.3-3-4.3-3c-2.5,0-4.6,2-4.6,4.5S21.5,46,24,46
	c2.4,0,4.3-1.8,4.5-4.1c0.3-0.1,0.6-0.1,0.9-0.2c8.8-2.4,15-10.4,15-19.5h-2C42.5,30.5,36.9,37.7,28.9,39.9z M24,44.1
	c-1.4,0-2.6-1.1-2.6-2.5s1.2-2.5,2.6-2.5s2.6,1.1,2.6,2.5S25.4,44.1,24,44.1z M5.5,22.2c0-1.2,0.1-2.5,0.4-3.7
	c0.1-0.3,0.2-0.6,0.2-0.9c0.1,0,0.3,0,0.4,0c2.5,0,4.6-2,4.6-4.5s-2-4.5-4.5-4.5S2,10.6,2,13.1c0,1.7,0.9,3.1,2.2,3.9
	C4.1,17.4,4,17.8,4,18.2c-0.3,1.3-0.4,2.7-0.4,4.1c0,7.7,4.3,14.6,11.3,18.1l0.9-1.8C9.4,35.5,5.5,29.3,5.5,22.2z M4,13.1
	c0-1.4,1.2-2.5,2.6-2.5s2.6,1.1,2.6,2.5S8,15.7,6.6,15.7c-0.2,0-0.4,0-0.6-0.1l-0.6-0.2C4.6,14.9,4,14.1,4,13.1z M31.2,22.2
	c0-3.9-3.2-7.1-7.2-7.1s-7.2,3.2-7.2,7.1s3.2,7.1,7.2,7.1S31.2,26.2,31.2,22.2z M17.8,22.2c0-3.4,2.8-6.1,6.2-6.1s6.2,2.7,6.2,6.1
	s-2.8,6.1-6.2,6.1S17.8,25.7,17.8,22.2z M41.4,8.6c-0.7,0-1.3,0.2-1.9,0.4C35.6,4.6,30,2,24,2c-4.4,0-8.6,1.4-12.2,4L13,7.6
	C16.2,5.2,20,4,24,4c5.3,0,10.4,2.3,13.9,6.2c-0.7,0.8-1.1,1.8-1.1,2.9c0,2.5,2.1,4.5,4.6,4.5s4.6-2,4.6-4.5S43.9,8.6,41.4,8.6z
	 M41.4,15.7c-1.4,0-2.6-1.1-2.6-2.5c0-0.7,0.3-1.2,0.7-1.7l0.9-0.6c0.3-0.1,0.7-0.2,1-0.2c1.4,0,2.6,1.1,2.6,2.5
	S42.8,15.7,41.4,15.7z"/>
</svg>
