<?xml version="1.0" encoding="utf-8"?>
<!-- Generator: Adobe Illustrator 21.0.0, SVG Export Plug-In . SVG Version: 6.00 Build 0)  -->
<svg version="1.1" id="图层_1" xmlns="http://www.w3.org/2000/svg" xmlns:xlink="http://www.w3.org/1999/xlink" x="0px" y="0px"
	 viewBox="0 0 48 48" style="enable-background:new 0 0 48 48;" xml:space="preserve">
<style type="text/css">
	.st0{fill:#060001;}
	.st1{fill:#040000;}
	.st2{fill:none;stroke:#000000;stroke-miterlimit:10;}
	.st3{fill:#221815;}
	.st4{fill:#080102;}
	.st5{fill:none;stroke:#000000;stroke-width:2;stroke-linecap:round;stroke-linejoin:round;stroke-miterlimit:10;}
	.st6{fill:#070001;}
</style>
<path class="st4" d="M29.8,18.2H4.6c-1.4,0-2.6,1.2-2.6,2.6V37c0,1.4,1.2,2.6,2.6,2.6h25.2c1.4,0,2.6-1.2,2.6-2.6V20.7
	C32.6,19.3,31.4,18.2,29.8,18.2z M30.4,37c0,0.2-0.2,0.4-0.4,0.4H4.6c-0.2,0-0.4-0.2-0.4-0.4V20.7c0-0.2,0.2-0.4,0.4-0.4h25.2
	c0.2,0,0.4,0.2,0.4,0.4V37H30.4z M41.3,19.2h3.2v-1.1h-3.2V19.2z M40.2,24V11.3c0-1-0.8-1.7-1.9-1.7H17.9c-1,0-1.9,0.8-1.9,1.7v5.4
	h1.1v-5.4c0-0.3,0.3-0.6,0.8-0.6h20.4c0.4,0,0.8,0.3,0.8,0.6V24c0,0.3-0.3,0.6-0.8,0.6h-3.6v1.1h3.6C39.3,25.7,40.2,24.9,40.2,24z
	 M28.2,4.6c0-0.2,0.2-0.4,0.4-0.4h15.5c0.2,0,0.4,0.2,0.4,0.4v9.9c0,0.2-0.2,0.4-0.4,0.4h-2.8V16h2.8c0.9,0,1.5-0.6,1.5-1.5V4.6
	c0-0.9-0.7-1.5-1.5-1.5H28.5c-0.9,0-1.5,0.6-1.5,1.5v3.6h1.1V4.6H28.2z M34.7,28.9h3.2v-1.1h-3.2V28.9z M4.9,15.2
	c0.5,0,1.9-0.4,5.6-2.3c0.2-0.1,0.3-0.4,0.2-0.8C10.6,12,10.3,11.9,10,12c-1.5,0.8-3.2,1.5-4.3,1.9C8.9,7.4,15.5,3.2,23.1,3.2
	c0.1,0,0.1,0,0.2,0c0.3-0.1,0.7-0.3,0.7-0.6S23.7,2,23.4,2c-0.1,0-0.1,0-0.2,0C14.9,2,7.6,6.8,4.4,14.4c-0.1,0.2,0,0.5,0.1,0.6
	C4.7,15.1,4.7,15.2,4.9,15.2z M45.5,23.4c-0.4-0.1-0.8-0.2-4.6,4.4c-0.2,0.2-0.1,0.5,0.1,0.8c0.2,0.2,0.5,0.1,0.8-0.1
	c1.1-1.3,2.3-2.7,3.1-3.4c-0.1,7.3-4.6,13.9-11.5,16.9c-0.3,0.1-0.4,0.4-0.3,0.8c0.1,0.2,0.3,0.3,0.5,0.3c0.1,0,0.1,0,0.2,0
	c7.6-3.2,12.4-10.8,12.1-19C45.9,23.8,45.8,23.4,45.5,23.4z M28.2,41.8H6.4c-0.7,0-1.1,0.4-1.1,1.1S5.7,44,6.4,44h21.8
	c0.7,0,1.1-0.4,1.1-1.1S28.7,41.8,28.2,41.8z"/>
</svg>
