<?xml version="1.0" encoding="utf-8"?>
<!-- Generator: Adobe Illustrator 21.0.0, SVG Export Plug-In . SVG Version: 6.00 Build 0)  -->
<svg version="1.1" id="图层_1" xmlns="http://www.w3.org/2000/svg" xmlns:xlink="http://www.w3.org/1999/xlink" x="0px" y="0px"
	 viewBox="0 0 48 48" style="enable-background:new 0 0 48 48;" xml:space="preserve">
<style type="text/css">
	.st0{fill:#060001;}
	.st1{fill:#040000;}
	.st2{fill:#221815;}
	.st3{fill:#080102;}
	.st4{fill:#070001;}
</style>
<path d="M24.1,24.5c-3.5,0-6.3,2.9-6.3,6.5s2.8,6.5,6.3,6.5s6.3-2.9,6.3-6.5S27.6,24.5,24.1,24.5z M24.1,36.4
	c-2.9,0-5.3-2.4-5.3-5.4c0-3,2.3-5.4,5.3-5.4s5.3,2.4,5.3,5.4C29.3,34.1,27,36.4,24.1,36.4z M45.8,14.5c-0.6-2.5-2.6-4.9-5.4-6.4
	C35.8,5.5,30.1,4,24.5,4C18.9,4,13.2,5.5,8.2,8.1c-3,1.6-5.3,4.1-6,6.7c-0.4,1.3-0.3,2.5,0.2,3.5C3,19.1,4.3,20,7.1,20
	c1.6,0,3.6-0.3,6.2-0.9c2.1-0.5,2.4-1.3,2.9-3.3c0.2-0.7,0.4-1.5,0.7-2.6c0.4-1.1,2.4-1.6,3.1-1.7c0,0,2.3-0.5,4.3-0.5h0
	c1.9,0,4.2,0.5,4.3,0.5c0.6,0.1,2.5,0.6,2.8,1.6c0.2,1.1,0.4,1.9,0.5,2.6c0.3,2,0.5,2.9,2.7,3.4c7.6,2,10.1,0.3,10.8-0.8
	C46,17.2,46.2,15.9,45.8,14.5z M43.7,17.1c-0.1,0.1-1.4,1.9-8.7,0c-1-0.3-1-0.3-1.2-1.8c-0.1-0.7-0.2-1.6-0.5-2.7
	c-0.6-2.6-4.1-3.1-4.4-3.2c-0.1,0-2.5-0.5-4.6-0.5h0c-2.2,0-4.6,0.5-4.6,0.5c-0.4,0.1-3.9,0.6-4.7,3.1c-0.4,1.2-0.6,2.1-0.8,2.8
	c-0.4,1.6-0.4,1.6-1.4,1.9c-6,1.5-8.2,0.7-8.6,0.1c-0.3-0.4-0.3-1.1,0-1.9c0.5-1.6,2-3.9,5-5.4l0,0C13.8,7.4,19.3,6,24.5,6
	c5.2,0,10.6,1.4,15,3.8c2.7,1.5,4,3.6,4.4,5.1C44.1,15.8,44,16.6,43.7,17.1z M33.4,20.6c-1.3-2.2-2.4-2.6-4.1-2.6H18.8
	c-1.3,0-3.8,0-5.2,2.6c-0.5,0.9-4.8,8.3-5.4,11.2c-0.4,1.9-1.1,8.5-1.1,8.9v0.1c0,1.7,1.4,3.1,3.2,3.1h27.3c1.8,0,3.2-1.4,3.2-3.2
	c0-0.3-0.6-7-1.1-9C39.1,28.9,34,21.4,33.4,20.6z M37.8,41.8H10.4c-0.5,0-1.1-0.4-1.1-1c0.1-0.6,0.7-6.8,1.1-8.5
	c0.4-2.2,3.9-8.3,5.2-10.6c0.7-1.4,1.9-1.5,3.3-1.5h10.5c0.8,0,1.4,0,2.3,1.6c1.5,2.2,5.6,8.4,6.1,10.6c0.4,1.5,0.8,6.7,1.1,8.4
	C38.8,41.4,38.4,41.8,37.8,41.8z"/>
</svg>
