<?xml version="1.0" encoding="utf-8"?>
<!-- Generator: Adobe Illustrator 21.0.0, SVG Export Plug-In . SVG Version: 6.00 Build 0)  -->
<svg version="1.1" id="图层_1" xmlns="http://www.w3.org/2000/svg" xmlns:xlink="http://www.w3.org/1999/xlink" x="0px" y="0px"
	 viewBox="0 0 48 48" style="enable-background:new 0 0 48 48;" xml:space="preserve">
<path d="M17.8,17.6c-0.3,0-0.6,0.3-0.6,0.6s0.3,0.6,0.6,0.6h2.6l2.2-2.4l2.9,4.7l2.5-2.7h1.7c0.3,0,0.6-0.3,0.6-0.6
	s-0.3-0.6-0.6-0.6h-2.2l-1.8,2l-2.9-4.7L20,17.6H17.8z M30.1,11.4c-0.2-0.8-0.9-1.4-1.7-1.4c-1,0-1.7,0.8-1.7,1.8s0.8,1.8,1.7,1.8
	c0.7,0,1.3-0.4,1.6-1c0.3,0.1,0.7,0.4,1,0.7c0.9,1.1,1.6,3.7-0.2,9.7c-0.9,3.2-6,4.1-6.7,4.2c-0.7-0.1-5.9-1.1-6.8-4.2
	c-1.7-6-1-8.6-0.2-9.7c0.2-0.3,0.5-0.5,0.7-0.6c0.3,0.5,0.8,0.9,1.5,0.9c1,0,1.7-0.8,1.7-1.8S20.2,10,19.2,10
	c-0.9,0-1.6,0.6-1.7,1.5c-0.5,0.2-0.9,0.5-1.4,1c-1.6,1.9-1.6,5.6-0.1,10.8c1,3.4,5.6,4.6,7.2,5v2.4l0,0v0.1c0,1,0.8,1.8,1.7,1.9
	l0,0H25l0,0l0,0h4l0,0c0.7-0.1,1.3,0.5,1.3,1.2s-0.5,1.2-1.1,1.2l0,0H22c-0.3-1-1.1-1.8-2.2-1.8c-1.2,0-2.3,1.1-2.3,2.4
	s1,2.4,2.3,2.4c1,0,1.9-0.7,2.2-1.7h7.3l0,0c1.2-0.1,2.1-1.1,2.1-2.4c0-1.3-1-2.3-2.2-2.4l0,0h-4c-0.3,0-0.6-0.3-0.6-0.8l0,0v-2.3
	c1.4-0.3,6.4-1.4,7.4-5c1.5-5.3,1.5-8.9-0.1-10.8C31.3,11.8,30.6,11.5,30.1,11.4z M19.8,36.8c-0.6,0-1.1-0.5-1.1-1.2
	s0.5-1.2,1.1-1.2s1.1,0.5,1.1,1.2S20.4,36.8,19.8,36.8z M40.8,10.6L27.3,2.8C26.3,2.3,25.2,2,24,2s-2.3,0.3-3.3,0.8L7.2,10.6
	c-1.8,1-3.2,3.5-3.2,5.6v15.6c0,2.1,1.4,4.5,3.2,5.6l13.5,7.8c0.9,0.5,2.1,0.8,3.3,0.8s2.3-0.3,3.3-0.8l13.5-7.8
	c1.8-1.1,3.2-3.5,3.2-5.6V16.2C44,14.1,42.6,11.6,40.8,10.6z M42,31.8c0,1.4-1.1,3.2-2.3,3.9l-13.5,7.8C25.7,43.8,24.9,44,24,44
	s-1.7-0.2-2.3-0.5L8.3,35.7C7.1,35,6,33.2,6,31.8V16.2c0-1.4,1.1-3.2,2.3-3.9l13.5-7.8C22.3,4.2,23.1,4,24,4s1.7,0.2,2.3,0.5
	l13.5,7.8c1.2,0.7,2.3,2.5,2.3,3.9L42,31.8L42,31.8z"/>
</svg>
