<?xml version="1.0" encoding="utf-8"?>
<!-- Generator: Adobe Illustrator 21.0.0, SVG Export Plug-In . SVG Version: 6.00 Build 0)  -->
<svg version="1.1" id="图层_1" xmlns="http://www.w3.org/2000/svg" xmlns:xlink="http://www.w3.org/1999/xlink" x="0px" y="0px"
	 viewBox="0 0 48 48" style="enable-background:new 0 0 48 48;" xml:space="preserve">
<path d="M21.5,16.5c-0.3,0-0.5,0.2-0.5,0.5v12.9l-3.7-3.3c-0.2-0.2-0.5-0.2-0.7,0c-0.2,0.2-0.2,0.5,0,0.7l4.5,4
	c0.1,0.1,0.2,0.1,0.3,0.1c0.1,0,0.1,0,0.2,0c0.2-0.1,0.3-0.3,0.3-0.5V17C22,16.7,21.8,16.5,21.5,16.5z M28.7,2.5
	c-0.5-0.1-1.1,0.2-1.2,0.8c-0.1,0.5,0.2,1.1,0.8,1.2c5.4,1.2,10,4.6,12.8,9.2l-5.2,3C33.3,12.5,28.8,10,24,10
	c-4.8,0-9.3,2.5-11.9,6.6l-5.2-3c2.8-4.6,7.3-8,12.8-9.2c0.5-0.1,0.9-0.7,0.8-1.2c-0.1-0.5-0.7-0.9-1.2-0.8C9.3,4.7,2,13.7,2,24
	c0,2.3,0.3,4.5,1,6.7c0.1,0.4,0.5,0.7,1,0.7c0.1,0,0.2,0,0.3,0c0.5-0.2,0.8-0.7,0.7-1.3c-0.6-2-0.9-4-0.9-6.1c0-3.4,0.9-6.6,2.4-9.5
	l5.2,3c-1.1,2-1.6,4.2-1.6,6.5c0,7.6,6,13.7,13.5,14v6c-5.4-0.1-10.6-2.5-14.3-6.5c-0.4-0.4-1-0.4-1.4-0.1c-0.4,0.4-0.4,1-0.1,1.4
	C11.9,43.4,17.8,46,24,46c6.2,0,12.1-2.6,16.3-7.2c0.4-0.4,0.3-1-0.1-1.4c-0.4-0.4-1-0.3-1.4,0.1c-3.7,4-8.8,6.4-14.3,6.5v-6
	C32,37.7,38,31.6,38,24c0-2.3-0.6-4.5-1.6-6.5l5.2-3c1.6,2.9,2.4,6.1,2.4,9.5c0,2.1-0.3,4.1-0.9,6.1c-0.2,0.5,0.1,1.1,0.7,1.3
	c0.1,0,0.2,0,0.3,0c0.4,0,0.8-0.3,1-0.7c0.7-2.1,1-4.4,1-6.7C46,13.7,38.7,4.7,28.7,2.5z M37,24c0,7.2-5.8,13-13,13
	c-7.2,0-13-5.8-13-13c0-2.3,0.6-4.5,1.7-6.5C15,13.5,19.4,11,24,11c4.6,0,9,2.5,11.3,6.5C36.4,19.5,37,21.7,37,24z M26.8,16.6
	c-0.1-0.1-0.4-0.2-0.5-0.1C26.1,16.6,26,16.8,26,17v14c0,0.3,0.2,0.5,0.5,0.5S27,31.3,27,31V18.1l3.7,3.3c0.2,0.2,0.5,0.2,0.7,0
	c0.2-0.2,0.2-0.5,0-0.7L26.8,16.6z"/>
</svg>
