<?xml version="1.0" encoding="utf-8"?>
<!-- Generator: Adobe Illustrator 21.0.0, SVG Export Plug-In . SVG Version: 6.00 Build 0)  -->
<svg version="1.1" id="图层_1" xmlns="http://www.w3.org/2000/svg" xmlns:xlink="http://www.w3.org/1999/xlink" x="0px" y="0px"
	 viewBox="0 0 48 48" enable-background="new 0 0 48 48" xml:space="preserve">
<path d="M15,35.5c-1.1,0-2,0.9-2,2s0.9,2,2,2s2-0.9,2-2S16.1,35.5,15,35.5z M15,38.5c-0.6,0-1-0.4-1-1c0-0.6,0.4-1,1-1s1,0.4,1,1
	C16,38,15.5,38.5,15,38.5z M21,21.9c-0.1-0.3-0.4-0.4-0.6-0.3c-4.1,1.5-6.8,5.5-6.8,9.8c0,0.9,0.1,1.7,0.3,2.6
	c0.1,0.2,0.3,0.4,0.5,0.4c0,0,0.1,0,0.1,0c0.3-0.1,0.4-0.3,0.4-0.6c-0.2-0.8-0.3-1.6-0.3-2.3c0-3.9,2.5-7.5,6.2-8.9
	C20.9,22.5,21.1,22.2,21,21.9z M20.5,28.5c0,1.2,0.6,2.3,1.6,2.9c-2.1,0.8-3.5,2.8-3.5,5.1c0,0.2,0.2,0.4,0.4,0.4
	c0.2,0,0.4-0.2,0.4-0.4c0-2.4,1.8-4.3,4.2-4.5c0.1,0,0.3,0,0.4,0s0.3,0,0.4,0c2.3,0.2,4.2,2.2,4.2,4.5c0,0.2,0.2,0.4,0.4,0.4
	s0.4-0.2,0.4-0.4c0-2.3-1.5-4.3-3.5-5.1c1-0.6,1.6-1.7,1.6-2.9c0-1.9-1.6-3.5-3.5-3.5S20.5,26.5,20.5,28.5z M24,26
	c1.4,0,2.5,1.1,2.5,2.5S25.4,31,24,31c-1.4,0-2.5-1.1-2.5-2.5S22.6,26,24,26z M26,21.5c0-1.1-0.9-2-2-2c-1.1,0-2,0.9-2,2
	c0,1.1,0.9,2,2,2C25.1,23.5,26,22.6,26,21.5z M23,21.5c0-0.6,0.4-1,1-1s1,0.4,1,1s-0.4,1-1,1S23,22,23,21.5z M35.5,13.7
	C33.6,9.1,29.1,6,24,6s-9.6,3.1-11.5,7.7c-6,0.9-10.5,6-10.5,12C2,30.6,5,35,9.6,37c0.5,0.2,1,0,1.2-0.5c0.2-0.5,0-1-0.5-1.2
	c-3.9-1.6-6.4-5.3-6.4-9.5c0-5.3,4-9.7,9.4-10.2l0.6-0.1l0.2-0.6c1.5-4.2,5.5-6.9,9.9-6.9c4.5,0,8.5,2.8,9.9,6.9l0.2,0.6l0.6,0.1
	c5.3,0.6,9.4,5,9.4,10.2c0,4.2-2.5,7.9-6.4,9.5c-0.5,0.2-0.7,0.8-0.5,1.2c0.2,0.4,0.5,0.6,0.9,0.6c0.1,0,0.2,0,0.4-0.1
	C43,35,46,30.6,46,25.7C46,19.7,41.5,14.6,35.5,13.7z M33,35.5c-1.1,0-2,0.9-2,2s0.9,2,2,2c1.1,0,2-0.9,2-2S34.1,35.5,33,35.5z
	 M33,38.5c-0.6,0-1-0.4-1-1c0-0.6,0.4-1,1-1s1,0.4,1,1C34,38,33.6,38.5,33,38.5z M33.2,33.8c-0.1,0.3,0.1,0.5,0.4,0.6
	c0,0,0.1,0,0.1,0c0.2,0,0.4-0.2,0.5-0.4c0.2-0.8,0.3-1.7,0.3-2.6c0-4.4-2.7-8.3-6.8-9.8c-0.3-0.1-0.5,0-0.6,0.3
	c-0.1,0.3,0,0.5,0.3,0.6c3.7,1.4,6.2,5,6.2,8.9C33.5,32.3,33.4,33.1,33.2,33.8z M29.8,39c-1.7,1.3-3.7,2-5.8,2s-4.2-0.7-5.8-2
	c-0.2-0.2-0.5-0.1-0.7,0.1c-0.2,0.2-0.1,0.5,0.1,0.7c1.9,1.4,4.1,2.2,6.5,2.2c2.4,0,4.6-0.8,6.5-2.2c0.2-0.2,0.3-0.5,0.1-0.7
	C30.4,38.9,30.1,38.8,29.8,39z"/>
<g>
</g>
<g>
</g>
<g>
</g>
<g>
</g>
<g>
</g>
<g>
</g>
<g>
</g>
<g>
</g>
<g>
</g>
<g>
</g>
<g>
</g>
<g>
</g>
<g>
</g>
<g>
</g>
<g>
</g>
</svg>
