<svg id="图层_1" data-name="图层 1" xmlns="http://www.w3.org/2000/svg" width="44" height="44" viewBox="0 0 44 44"><defs><style>.cls-1{fill:#040000;}</style></defs><title>CodeHub</title><path class="cls-1" d="M30.66,26.24a.58.58,0,0,1-.58.58H24.72v9.47a.58.58,0,0,1-.58.58.57.57,0,0,1-.57-.58V26.82H18.5a.58.58,0,0,1,0-1.16h5.07V20a.57.57,0,0,1,.57-.58.58.58,0,0,1,.58.58v5.62h5.36A.58.58,0,0,1,30.66,26.24ZM37.59,21c-.06.48-.12,1.06-.18,1.7C37,26.33,36.48,31.88,33.55,36c-1.8,2.51-4.62,4.8-8.61,7a1.26,1.26,0,0,1-.62.12,1.55,1.55,0,0,1-.73-.14A25.84,25.84,0,0,1,15,36c-3.2-4.37-3.69-9.71-4-13.24-.06-.66-.11-1.26-.18-1.76s.4-1.87,1-2A26.64,26.64,0,0,0,23.1,13.74a2,2,0,0,1,1.21-.37,1.75,1.75,0,0,1,1.12.34A26.46,26.46,0,0,0,36.72,19C37.44,19.11,37.66,20.44,37.59,21Zm-1.15-.15a1.68,1.68,0,0,0-.14-.74,27.29,27.29,0,0,1-11.64-5.49,1,1,0,0,0-.35-.05,1,1,0,0,0-.46.09,27.48,27.48,0,0,1-11.67,5.46,1.52,1.52,0,0,0-.25.73c.07.52.12,1.12.18,1.8.32,3.4.8,8.55,3.8,12.66,1.72,2.36,4.42,4.53,8.24,6.65,0,0,.05,0,.17,0h.14c3.76-2.09,6.46-4.26,8.15-6.62,2.75-3.82,3.29-9.19,3.64-12.74C36.32,21.89,36.38,21.3,36.44,20.81ZM46,5.36V31.17a5.63,5.63,0,0,1-2.6,4.48l-16.81,9.6a5.36,5.36,0,0,1-2.59.63,5.3,5.3,0,0,1-2.58-.63L4.6,35.65A5.63,5.63,0,0,1,2,31.17V5.36A3.48,3.48,0,0,1,5.47,1.88H42.53A3.48,3.48,0,0,1,46,5.36Zm-41.68,0V8.62a3.1,3.1,0,0,1,1.44-.36H42.82a3,3,0,0,1,.86.13v-3A1.15,1.15,0,0,0,42.53,4.2H5.47A1.15,1.15,0,0,0,4.32,5.36ZM43.68,31.17V9.62a1.88,1.88,0,0,0-.86-.2H5.76a1.84,1.84,0,0,0-1.44.65v21.1a3.3,3.3,0,0,0,1.42,2.46l16.82,9.6a3.53,3.53,0,0,0,2.88,0l16.82-9.6A3.3,3.3,0,0,0,43.68,31.17Z" transform="translate(-2 -1.88)"/></svg>