<?xml version="1.0" encoding="utf-8"?>
<!-- Generator: Adobe Illustrator 21.0.0, SVG Export Plug-In . SVG Version: 6.00 Build 0)  -->
<svg version="1.1" id="图层_1" xmlns="http://www.w3.org/2000/svg" xmlns:xlink="http://www.w3.org/1999/xlink" x="0px" y="0px"
	 viewBox="0 0 48 48" style="enable-background:new 0 0 48 48;" xml:space="preserve">
<style type="text/css">
	.st0{fill:#060001;}
	.st1{fill:#040000;}
	.st2{fill:none;stroke:#000000;stroke-miterlimit:10;}
	.st3{fill:#221815;}
	.st4{fill:#080102;}
	.st5{fill:none;stroke:#000000;stroke-width:2;stroke-linecap:round;stroke-linejoin:round;stroke-miterlimit:10;}
	.st6{fill:#070001;}
</style>
<path class="st0" d="M45.9,25.7c0-0.1,0-0.1,0.1-0.2c0-0.1,0-0.1,0-0.2c0,0,0-0.1,0-0.1c0,0,0,0,0-0.1c0,0,0,0,0,0
	c-1.1-4.9-5.2-8.7-10.2-9.5C33.8,11.1,29.2,8,24.1,8s-9.7,3.1-11.6,7.7C6.5,16.6,2,21.7,2,27.8C2,34.5,7.6,40,14.5,40H28
	c0.1,0,0.2,0,0.3-0.1c0.1,0,0.2,0.1,0.2,0.1c0.2,0,0.4-0.1,0.6-0.2l16.5-13.6c0,0,0.1-0.1,0.1-0.1c0-0.1,0.1-0.1,0.1-0.2
	C45.9,25.9,45.9,25.8,45.9,25.7z M4,27.8c0-5.2,4-9.6,9.4-10.2c0.4,0,0.7-0.3,0.8-0.7c1.5-4.1,5.5-6.9,9.9-6.9s8.5,2.8,9.9,6.9
	c0.1,0.4,0.5,0.6,0.8,0.7c4.2,0.5,7.7,3.3,8.9,7.2h-4.6c-6.7,0-11.8,5.4-11.8,12.5c0,0.2,0,0.5,0,0.8H14.5C8.7,38,4,33.4,4,27.8z
	 M28.4,37.7c0-0.2,0-0.3,0-0.5c0-6.6,4.7-11.5,10.8-11.5H43L28.4,37.7z"/>
</svg>
