<?xml version="1.0" encoding="utf-8"?>
<!-- Generator: Adobe Illustrator 21.0.0, SVG Export Plug-In . SVG Version: 6.00 Build 0)  -->
<svg version="1.1" id="图层_1" xmlns="http://www.w3.org/2000/svg" xmlns:xlink="http://www.w3.org/1999/xlink" x="0px" y="0px"
	 viewBox="0 0 48 48" style="enable-background:new 0 0 48 48;" xml:space="preserve">
<style type="text/css">
	.st0{fill:#333333;}
</style>
<g>
	<path class="st0" d="M42.5,35.5c-1.7,0-3,1.3-3,3c0,0.1,0,0.2,0,0.2c-3,1.5-7.3,3.7-12.9,6.5c-0.5,0.3-1.1,0.3-1.6,0L7.1,36.2
		c-0.4-0.2-0.6-0.5-0.6-0.8V17.2c0-0.3,0.2-0.6,0.6-0.8l14.8-7.5l1,1.9l2-3.4l0.1,0l0-0.1l0,0l0-0.1l-0.8-1.7L6.2,14.6
		c-1.1,0.5-1.7,1.5-1.7,2.6v18.2c0,1.1,0.7,2.1,1.7,2.6l17.9,9.1c1.1,0.5,2.4,0.5,3.4,0c5.5-2.8,9.8-5,12.8-6.5
		c0.5,0.6,1.3,0.9,2.2,0.9c1.7,0,3-1.3,3-3S44.2,35.5,42.5,35.5z M42.5,39.5c-0.6,0-1-0.4-1-1c0-0.6,0.4-1,1-1c0.6,0,1,0.4,1,1
		C43.5,39.1,43.1,39.5,42.5,39.5z"/>
	<path class="st0" d="M8.5,9.5c0-0.1,0-0.2,0-0.4c3-1.5,7.2-3.7,12.7-6.5c0.5-0.3,1.2-0.3,1.7,0l17.9,9.1c0.4,0.2,0.7,0.6,0.7,0.9
		v18.1c0,0.3-0.2,0.7-0.7,0.9L26,39.2l-1-1.9l-2,3.4l-0.1,0l0,0l0,0.1l0.4,0.6l0.5,1.1l17.9-9.1c1.1-0.6,1.8-1.6,1.8-2.7V12.7
		c0-1.1-0.7-2.1-1.8-2.7L23.8,0.9c-1.1-0.6-2.4-0.6-3.5,0c-5.5,2.8-9.7,4.9-12.7,6.4C7,6.8,6.3,6.5,5.5,6.5c-1.7,0-3,1.3-3,3
		s1.3,3,3,3S8.5,11.2,8.5,9.5z M4.5,9.5c0-0.6,0.4-1,1-1c0.6,0,1,0.4,1,1c0,0.6-0.4,1-1,1C4.9,10.5,4.5,10.1,4.5,9.5z"/>
	<path class="st0" d="M28.6,28.7l-7,0c-0.2-1.1-1.1-2-2.2-2c-1.3,0-2.3,1-2.3,2.3s1,2.3,2.3,2.3c1,0,1.9-0.7,2.2-1.7h7.1
		c2-0.2,3-1.3,3-3.1c0-1.9-1-3-3-3.1l-10.7,0c-1.4-0.1-2-0.7-2-2.2c0-1.4,0.6-2.1,2.1-2.2l10.7,0v-1H18c-2,0.1-3,1.2-3,3.2
		c0,2,1.1,3.1,3,3.2l10.7,0c1.4,0.1,2,0.8,2,2.1C30.7,27.9,30,28.5,28.6,28.7z M19.4,30.4c-0.7,0-1.3-0.6-1.3-1.3
		c0-0.7,0.6-1.3,1.3-1.3c0.7,0,1.3,0.6,1.3,1.3C20.7,29.8,20.1,30.4,19.4,30.4z"/>
</g>
</svg>
