<?xml version="1.0" encoding="utf-8"?>
<!-- Generator: Adobe Illustrator 21.0.0, SVG Export Plug-In . SVG Version: 6.00 Build 0)  -->
<svg version="1.1" id="图层_1" xmlns="http://www.w3.org/2000/svg" xmlns:xlink="http://www.w3.org/1999/xlink" x="0px" y="0px"
	 viewBox="0 0 48 48" style="enable-background:new 0 0 48 48;" xml:space="preserve">
<g id="图层_2">
	<path d="M33.7,17.3l-9.5-5.2c-0.2-0.1-0.3-0.1-0.5,0l-9.5,5.2c-0.2,0.1-0.3,0.3-0.3,0.4v10.5c0,0.2,0.1,0.3,0.3,0.4l9.5,5.2
		c0.1,0,0.2,0.1,0.2,0.1s0.2,0,0.2-0.1l9.5-5.2c0.2-0.1,0.3-0.3,0.3-0.4V17.8C34,17.6,33.9,17.4,33.7,17.3z M33,28l-9,5l-9-5V18l9-5
		l9,5V28z M16.8,18.4c-0.2,0.1-0.3,0.2-0.3,0.4c0,0.2,0.1,0.3,0.2,0.4l6.8,4.1c0.1,0,0.2,0.1,0.3,0.1c0.1,0,0.2,0,0.2-0.1l7.2-4
		c0.2-0.1,0.3-0.3,0.3-0.4s-0.1-0.3-0.2-0.4l-6.9-4c-0.2-0.1-0.3-0.1-0.5,0L16.8,18.4z M30,19l-6.2,3.4L18,18.9l6.1-3.3L30,19z
		 M41.9,10.5c-2.1-0.7-6.3-2.1-8.4-3.1c-4.2-2.1-5.8-3.5-7.4-4.7C25.5,2.2,24.8,2,24,2l0,0l0,0c-0.8,0-1.5,0.2-2.1,0.6
		c-1.6,1.2-3.2,2.6-7.4,4.7c-2.1,1-6.3,2.4-8.4,3.1c-1.4,0.5-2.2,1.7-2.1,3.1c0.4,4.6,1.5,13.5,4.2,19c3.2,6.3,11.1,11.2,14.2,13.1
		c0.5,0.3,1,0.4,1.6,0.4s1.1-0.1,1.6-0.4c3.1-1.9,11-6.8,14.2-13.1c2.7-5.5,3.8-14.4,4.2-18.8C44.1,12.2,43.2,10.9,41.9,10.5z
		 M38,31.6c-2,4-6.5,8.1-13.4,12.3c-0.2,0-0.4,0.1-0.6,0.1s-0.4-0.1-0.5-0.2c-7-4.1-11.5-8.3-13.5-12.2C7.2,26,6.2,16.3,6,13.5
		c-0.1-0.7,0.6-1,0.8-1.1l0.8-0.3c2.3-0.8,5.9-2,7.9-3c3.8-1.9,5.6-3.3,7.1-4.4c0.2-0.2,0.4-0.3,0.6-0.5c0-0.1,0.3-0.2,0.7-0.2H24
		l0,0l0,0l0,0c0.4,0,0.7,0.1,0.8,0.2c0.2,0.2,0.4,0.3,0.6,0.5c1.4,1.1,3.2,2.5,7.1,4.4c2,1,5.5,2.2,7.9,3l0.8,0.3
		c0.2,0.1,0.8,0.3,0.8,1.1C41.8,16.3,40.8,26,38,31.6z"/>
</g>
<g id="图层_3">
</g>
</svg>
