<svg id="图层_1" data-name="图层 1" xmlns="http://www.w3.org/2000/svg" width="38.5" height="44" viewBox="0 0 38.5 44"><title>CPH</title><path d="M21.58,33.13A6.93,6.93,0,0,0,15.64,29,6,6,0,0,0,10,33.13a6,6,0,0,0-5.28,6.16,6.13,6.13,0,0,0,6.05,6.16h10a6.13,6.13,0,0,0,6.05-6.16A6.28,6.28,0,0,0,21.58,33.13Zm-.77,11.22h-10a5,5,0,0,1-5-5.06,4.94,4.94,0,0,1,4.29-5.06h.66l.22-.66a4.89,4.89,0,0,1,4.51-3.41,5.75,5.75,0,0,1,5,3.52l.22.55.55.11a5,5,0,0,1,4.29,5.06A4.81,4.81,0,0,1,20.81,44.35Zm1.65-25.19a.4.4,0,0,0-.11.33q0,.17.33.33c.11.11.33.22.44.11s.22-.11.33-.22l.44-.55,1.21-1.43V29.5a.52.52,0,0,0,.55.55c.33,0,.55-.11.55-.44V16.3a.4.4,0,0,0-.44-.44.73.73,0,0,0-.66.11l-2.2,2.64Zm7.48,10.89h.22a.83.83,0,0,0,.44-.22l1.87-2.2.88-1a.73.73,0,0,0-.22-.77c-.22-.22-.44-.11-.66.11l-1.76,2V16.3a.55.55,0,0,0-1.1,0V29.5A.6.6,0,0,0,29.94,30.05ZM22.9,6.4V7.5H24V6.4Zm15-4.4H18a5.69,5.69,0,0,0-5.5,5.61V25.32a1.1,1.1,0,0,0,1.1,1.1,1,1,0,0,0,1.1-1.1V7.61A3.33,3.33,0,0,1,18,4.2H38a3.33,3.33,0,0,1,3.3,3.41V40.39A3.33,3.33,0,0,1,38,43.8H30.71a1.1,1.1,0,0,0,0,2.2H38a5.46,5.46,0,0,0,5.28-5.72V7.61A5.45,5.45,0,0,0,37.86,2ZM34.45,6.4h-8.8V7.5h8.8Z" transform="translate(-4.75 -2)"/></svg>