<?xml version="1.0" encoding="utf-8"?>
<!-- Generator: Adobe Illustrator 21.0.0, SVG Export Plug-In . SVG Version: 6.00 Build 0)  -->
<svg version="1.1" id="图层_1" xmlns="http://www.w3.org/2000/svg" xmlns:xlink="http://www.w3.org/1999/xlink" x="0px" y="0px"
	 viewBox="0 0 48 48" style="enable-background:new 0 0 48 48;" xml:space="preserve">
<style type="text/css">
	.st0{fill:#040000;}
</style>
<path class="st0" d="M9.5,22.8c0,0.3,0.2,0.5,0.5,0.5h27.9c0.3,0,0.5-0.2,0.5-0.5s-0.2-0.5-0.5-0.5H10C9.7,22.3,9.5,22.5,9.5,22.8z
	 M26.9,40.3H8.2c-1.1,0-2.2-1.1-2.2-2.4V10.4C6,9,7.4,8.3,8.2,8.3h3.2c0.5,1,1.5,1.8,2.6,1.8c1.7,0,3-1.2,3-2.9S15.7,4,14,4
	c-1.5,0-2.7,1.3-2.9,2.3H8.2C5.7,6.3,4,8.2,4,10.4v27.5c0,2.3,1.8,4.4,4.2,4.4h18.8c0.6,0,1-0.4,1-1S27.5,40.3,26.9,40.3z M14,5.3
	c1.1,0,2,0.9,2,2s-0.9,2-2,2s-2-0.9-2-2S12.9,5.3,14,5.3z M24.8,20.4c0.9-3.5,2-5.1,3.6-5.1c1.4,0,2.2,1.5,2.9,5.1
	c0,0.2,0.3,0.4,0.5,0.4h0.1c0.3,0,0.5-0.3,0.4-0.6c-0.6-3.1-1.4-5.9-3.9-5.9c-2.8,0-3.9,3.3-4.6,5.9c-0.1,0.3,0.1,0.5,0.4,0.6
	C24.5,20.8,24.7,20.7,24.8,20.4z M40.2,6.3H21c-0.6,0-1,0.4-1,1s0.4,1,1,1h19.3c1.3,0,1.7,0.9,1.7,2.1v27.5c0,1.1-0.6,2.4-1.7,2.4
	h-3.3c-0.3-1-1.5-2.2-2.9-2.2c-1.7,0-3,1.5-3,3.1s1.3,2.8,3,2.8c1.1,0,2.1-0.7,2.6-1.7h3.7c2.4,0,3.7-2,3.7-4.4V10.4
	C43.9,8.1,42.5,6.3,40.2,6.3z M33.9,43.3c-1.1,0-2-0.9-2-2s0.9-2,2-2c1.1,0,2,0.9,2,2S35,43.3,33.9,43.3z M22.5,25.2
	c-0.8,3.5-3,5.4-5.4,4.8c-3.1-0.7-3.9,0.5-4.6,1.7c-0.5,0.9-1.1,1.7-2.6,2.2c-0.3,0.1-0.4,0.3-0.4,0.6c0.1,0.2,0.3,0.4,0.5,0.4h0.1
	c1.9-0.5,2.6-1.7,3.2-2.6c0.7-1.1,1.1-1.8,3.5-1.3c3.1,0.7,5.7-1.5,6.6-5.5c0.1-0.3-0.1-0.5-0.4-0.6C22.8,24.8,22.6,24.9,22.5,25.2z
	 M37.7,28.8c-0.8,0.3-1.5,0.4-2.2,0c-0.9-0.5-1.7-1.7-2.2-3.7c-0.1-0.3-0.3-0.4-0.6-0.4c-0.3,0.1-0.4,0.3-0.4,0.6
	c0.6,2.3,1.5,3.7,2.7,4.3c0.4,0.2,0.9,0.3,1.4,0.3s1-0.1,1.6-0.3c0.3-0.1,0.4-0.4,0.3-0.6C38.3,28.9,38,28.7,37.7,28.8z"/>
</svg>
