<?xml version="1.0" encoding="utf-8"?>
<!-- Generator: Adobe Illustrator 21.0.0, SVG Export Plug-In . SVG Version: 6.00 Build 0)  -->
<svg version="1.1" id="图层_1" xmlns="http://www.w3.org/2000/svg" xmlns:xlink="http://www.w3.org/1999/xlink" x="0px" y="0px"
	 viewBox="0 0 48 48" style="enable-background:new 0 0 48 48;" xml:space="preserve">
<title>服务图标-云存储网关</title>
<g>
	<path d="M46,32.8c0-1.6-1.2-2.9-2.8-2.9s-2.9,1.2-2.9,2.8c0,1.3,0.8,2.4,2,2.8h-0.1v5c0,1-0.8,1.7-1.8,1.7c0,0-0.1,0-0.1,0H7.7
		c-1,0.1-1.8-0.6-1.9-1.6c0,0,0-0.1,0-0.1V24.1V24c-0.1-0.5-0.5-0.9-1-0.9c-0.5,0-1,0.3-1,0.9v0.1v16.3c0,2,1.7,3.7,3.7,3.6
		c0.1,0,0.1,0,0.2,0h32.5c2,0.1,3.7-1.5,3.8-3.5c0,0,0-0.1,0-0.1v-5H44C45.2,35,46,34,46,32.8z M43.1,34.7c-1.1,0-1.9-0.8-1.9-1.9
		s0.8-1.9,1.9-1.9s1.9,0.8,1.9,1.9c0,0,0,0,0,0C45,33.8,44.2,34.6,43.1,34.7z"/>
	<path d="M7.6,14.7C7.6,14.7,7.6,14.7,7.6,14.7c0-1.3-0.8-2.4-1.9-2.7V8c0.1-1.1,0.9-2,2-2.1h32.5c1.1,0.1,1.9,1,1.9,2.1v16v0.1
		c0.2,0.5,0.7,0.8,1.2,0.7c0.3-0.1,0.6-0.4,0.7-0.7V24V8c0-2.1-1.7-3.9-3.8-4H7.7C5.6,4.1,3.9,5.9,3.9,8v4C2.8,12.4,2,13.5,2,14.7
		c0,1.6,1.3,2.9,2.9,2.8C6.4,17.5,7.6,16.3,7.6,14.7z M3,14.7c0-1.1,0.8-1.9,1.9-1.9c1.1,0,1.9,0.8,1.9,1.9c0,1.1-0.8,1.9-1.9,1.9
		c0,0,0,0,0,0C3.9,16.5,3.1,15.7,3,14.7z"/>
	<path d="M35.3,23.9c0-3.2-2.3-5.9-5.5-6.4c-1.3-3.3-5.1-5-8.4-3.6c-1.7,0.7-3,2-3.6,3.6c-3.5,0.6-6,3.9-5.4,7.4
		c0.5,3.2,3.2,5.5,6.4,5.5c0.3,0,0.6-0.2,0.6-0.5c0-0.3-0.2-0.6-0.5-0.6c0,0-0.1,0-0.1,0c-3,0-5.5-2.4-5.5-5.4
		c0-2.8,2.1-5.2,4.9-5.5c0.2,0,0.4-0.2,0.4-0.4c1-2.9,4.1-4.4,7-3.4c1.6,0.6,2.8,1.8,3.4,3.4c0.1,0.2,0.2,0.3,0.4,0.4
		c3,0.3,5.2,3,4.8,6c-0.3,2.8-2.7,4.9-5.5,4.9c-0.3,0-0.5,0.3-0.5,0.6c0,0.2,0.2,0.4,0.5,0.5C32.4,30.4,35.3,27.5,35.3,23.9z"/>
	<path d="M22.1,35.1c0.3,0,0.5-0.2,0.5-0.5V24.4c0-0.3-0.2-0.5-0.5-0.5c-0.1,0-0.1,0-0.2,0c-0.1,0-0.2,0.1-0.2,0.2L18.8,27
		c-0.1,0.1-0.1,0.2-0.2,0.4c0,0.3,0.2,0.5,0.5,0.5c0.1,0,0.3-0.1,0.3-0.1l2.1-2.1v9C21.6,34.9,21.9,35.1,22.1,35.1z"/>
	<path d="M25.5,23.9c-0.3,0-0.5,0.2-0.5,0.5v10.3c0,0.3,0.2,0.5,0.5,0.5c0.1,0,0.1,0,0.2,0c0.1-0.1,0.2-0.1,0.2-0.2l2.9-2.8
		c0.1-0.1,0.2-0.2,0.2-0.4c0-0.1-0.1-0.3-0.2-0.3c-0.1-0.1-0.2-0.1-0.3-0.2c-0.1,0-0.3,0.1-0.4,0.2L26,33.4v-9
		C26,24.1,25.8,23.9,25.5,23.9z"/>
</g>
</svg>
