<svg id="图层_1" data-name="图层 1" xmlns="http://www.w3.org/2000/svg" viewBox="0 0 40 40"><title>customocr</title><path id="服务图标-文字识别_定制模板customocr" data-name="服务图标-文字识别 定制模板customocr" d="M11,18.5H37v-3a.94.94,0,0,0-1-1H12a.94.94,0,0,0-1,1Zm0,1v12a.94.94,0,0,0,1,1H36a.94.94,0,0,0,1-1v-12Zm-7-5v-7a4,4,0,0,1,4-4h7a.94.94,0,0,1,1,1,.94.94,0,0,1-1,1H8a2,2,0,0,0-2,2v7a.94.94,0,0,1-1,1A.94.94,0,0,1,4,14.5Zm2,18v7a2,2,0,0,0,2,2h7a1,1,0,0,1,0,2H8a4,4,0,0,1-4-4v-7a.94.94,0,0,1,1-1A.94.94,0,0,1,6,32.5Zm27,9h7a2,2,0,0,0,2-2v-7a1,1,0,0,1,2,0v7a4,4,0,0,1-4,4H33a1,1,0,0,1,0-2Zm9-34a2,2,0,0,0-2-2H33a.94.94,0,0,1-1-1,.94.94,0,0,1,1-1h7a4,4,0,0,1,4,4v7a1,1,0,0,1-2,0Zm-30,6H36a2,2,0,0,1,2,2v16a2,2,0,0,1-2,2H12a2,2,0,0,1-2-2v-16A2,2,0,0,1,12,13.5Zm7.5,7a.47.47,0,0,1,.5.5V31a.5.5,0,0,1-1,0V21A.47.47,0,0,1,19.5,20.5Zm9,0a.47.47,0,0,1,.5.5V31a.5.5,0,0,1-1,0V21A.47.47,0,0,1,28.5,20.5ZM35,22a.47.47,0,0,1-.5.5h-3a.5.5,0,0,1,0-1h3A.47.47,0,0,1,35,22ZM17,26a.47.47,0,0,1-.5.5h-3a.5.5,0,0,1,0-1h3A.47.47,0,0,1,17,26Zm9,0a.47.47,0,0,1-.5.5h-3a.5.5,0,0,1,0-1h3A.47.47,0,0,1,26,26Z" transform="translate(-4 -3.5)"/></svg>