<?xml version="1.0" encoding="utf-8"?>
<!-- Generator: Adobe Illustrator 21.0.0, SVG Export Plug-In . SVG Version: 6.00 Build 0)  -->
<svg version="1.1" id="图层_1" xmlns="http://www.w3.org/2000/svg" xmlns:xlink="http://www.w3.org/1999/xlink" x="0px" y="0px"
	 viewBox="0 0 48 48" style="enable-background:new 0 0 48 48;" xml:space="preserve">
<g>
	<path d="M31,43c-0.3,0-0.7-0.2-0.9-0.5c-0.3-0.5-0.1-1.1,0.4-1.4l9-5.2C41,35,42,33.3,42,31.6v-15c0-1.8-1-3.4-2.5-4.3l-13-7.5
		c-1.5-0.9-3.5-0.9-5,0l-13,7.5C7,13.1,6,14.7,6,16.5v15c0,1.8,1,3.4,2.5,4.3l9,5.2c0.5,0.3,0.6,0.9,0.4,1.4
		c-0.3,0.5-0.9,0.6-1.4,0.4l-9-5.2C5.3,36.4,4,34,4,31.6v-15c0-2.5,1.3-4.8,3.5-6.1l13-7.5c2.2-1.2,4.8-1.2,7,0l13,7.5
		c2.2,1.2,3.5,3.6,3.5,6.1v15c0,2.5-1.3,4.8-3.5,6.1l-9,5.2C31.3,42.9,31.2,43,31,43z"/>
	<path d="M24.5,46h-1c-1.4,0-2.5-1.1-2.5-2.5v-15c-3.6-1.2-6-4.4-6-8c0-3,1.7-5.8,4.5-7.4c0.3-0.2,0.7-0.2,1,0S21,13.6,21,14v5
		c0,0.8,0.7,1.4,1.5,1.4h3c0.8,0,1.5-0.6,1.5-1.4v-5c0-0.4,0.2-0.7,0.5-0.9s0.7-0.2,1,0c2.8,1.5,4.5,4.3,4.5,7.4c0,3.6-2.4,6.8-6,8
		v15C27,44.9,25.9,46,24.5,46z M20,14.1c-2.5,1.3-4,3.8-4,6.5c0,3.3,2.3,6.2,5.6,7.2c0.2,0.1,0.4,0.3,0.4,0.5v15.3
		c0,0.8,0.7,1.5,1.5,1.5h1c0.8,0,1.5-0.7,1.5-1.5V28.2c0-0.2,0.1-0.4,0.4-0.5c3.4-1,5.6-3.9,5.6-7.2c0-2.7-1.5-5.1-4-6.5v5.1
		c0,1.3-1.1,2.4-2.5,2.4h-3c-1.4,0-2.5-1.1-2.5-2.4V14.1z"/>
</g>
</svg>
