<?xml version="1.0" encoding="utf-8"?>
<!-- Generator: Adobe Illustrator 21.0.0, SVG Export Plug-In . SVG Version: 6.00 Build 0)  -->
<svg version="1.1" id="图层_1" xmlns="http://www.w3.org/2000/svg" xmlns:xlink="http://www.w3.org/1999/xlink" x="0px" y="0px"
	 viewBox="0 0 48 48" style="enable-background:new 0 0 48 48;" xml:space="preserve">
<style type="text/css">
	.st0{fill:#060001;}
	.st1{fill:#040000;}
	.st2{fill:none;stroke:#000000;stroke-miterlimit:10;}
	.st3{fill:#221815;}
	.st4{fill:#080102;}
	.st5{fill:none;stroke:#000000;stroke-width:2;stroke-linecap:round;stroke-linejoin:round;stroke-miterlimit:10;}
	.st6{fill:#070001;}
</style>
<path class="st0" d="M14.2,20.3c0.8,0,1.3-0.4,1.5-1.1H22l4.9-3.2h5.3c0.2,0.6,0.9,1.1,1.5,1.1c0.9,0,1.6-0.7,1.6-1.6
	S34.6,14,33.8,14c-0.8,0-1.3,0.4-1.5,1.1h-5.7l-4.9,3.2h-5.9c-0.2-0.6-0.9-1.1-1.5-1.1c-0.9,0-1.6,0.7-1.6,1.6S13.4,20.3,14.2,20.3z
	 M33.9,30.8c-0.8,0-1.3,0.4-1.5,1.1h-6.1l-4.1-3.2h-6.4c-0.2-0.6-0.9-1.1-1.5-1.1c-0.9,0-1.6,0.7-1.6,1.6s0.9,1.6,1.7,1.6
	c0.8,0,1.3-0.4,1.5-1.1h6l4.1,3.2h6.4c0.2,0.6,0.9,1.1,1.5,1.1c0.9,0,1.6-0.7,1.6-1.6S34.7,30.8,33.9,30.8z M33.9,22.4
	c-0.8,0-1.3,0.4-1.5,1.1H15.8c-0.2-0.6-0.9-1.1-1.5-1.1c-0.9,0-1.6,0.7-1.6,1.6s0.8,1.6,1.6,1.6c0.8,0,1.3-0.4,1.5-1.1h16.6
	c0.2,0.6,0.9,1.1,1.5,1.1c0.9,0,1.6-0.7,1.6-1.6S34.7,22.4,33.9,22.4z M41.6,11L26.3,2.5c-1.3-0.7-3.4-0.7-4.7,0L6.4,11
	C5,11.8,4,13.5,4,15v18c0,1.5,1,3.2,2.4,4l15.3,8.5c0.6,0.4,1.5,0.6,2.3,0.6s1.7-0.2,2.3-0.6l15.3-8.5c1.3-0.7,2.4-2.5,2.4-4V15
	C44,13.5,43,11.8,41.6,11z M41.9,33c0,0.8-0.6,1.8-1.3,2.2l-15.3,8.5c-0.7,0.4-2,0.4-2.6,0L7.4,35.2c-0.7-0.4-1.3-1.4-1.3-2.2V15
	c0-0.8,0.6-1.8,1.3-2.2l15.3-8.5C23,4.1,23.5,4,24,4s1,0.1,1.3,0.3l15.3,8.5c0.7,0.4,1.3,1.4,1.3,2.2V33z"/>
</svg>
