<?xml version="1.0" encoding="utf-8"?>
<!-- Generator: Adobe Illustrator 21.0.0, SVG Export Plug-In . SVG Version: 6.00 Build 0)  -->
<svg version="1.1" id="图层_1" xmlns="http://www.w3.org/2000/svg" xmlns:xlink="http://www.w3.org/1999/xlink" x="0px" y="0px"
	 viewBox="0 0 48 48" style="enable-background:new 0 0 48 48;" xml:space="preserve">
<style type="text/css">
	.st0{fill:#040000;}
	.st1{fill:#060001;}
	.st2{fill:#080103;}
</style>
<path class="st1" d="M32.6,16.5c-0.5,0.3-0.9,0.8-1.1,1.4c-0.2,0.6-0.1,1.2,0.2,1.7c0.4,0.7,1.2,1.1,2,1.1c0.4,0,0.8-0.1,1.2-0.3
	c0.5-0.3,0.9-0.8,1.1-1.4c0.2-0.6,0.1-1.2-0.2-1.7C35.2,16.3,33.7,15.9,32.6,16.5z M35,18.8c-0.1,0.3-0.3,0.6-0.6,0.7
	c-0.6,0.3-1.4,0.1-1.7-0.4c-0.2-0.3-0.2-0.6-0.1-0.9c0.1-0.3,0.3-0.6,0.6-0.7c0.2-0.1,0.4-0.2,0.6-0.2c0.4,0,0.9,0.2,1.1,0.6
	C35,18.2,35.1,18.5,35,18.8z M41.6,11L26.3,2.5c-1.3-0.7-3.4-0.7-4.7,0L6.4,11C5,11.8,4,13.5,4,15v18c0,1.5,1,3.2,2.4,4l15.3,8.5
	c0.6,0.4,1.5,0.6,2.3,0.6s1.7-0.2,2.3-0.6l15.3-8.5c1.3-0.7,2.4-2.5,2.4-4V15C44,13.5,43,11.8,41.6,11z M41.9,33
	c0,0.8-0.6,1.8-1.3,2.2l-15.3,8.5c-0.6,0.4-2,0.4-2.6,0L7.4,35.2c-0.7-0.4-1.3-1.4-1.3-2.2V15c0-0.8,0.6-1.8,1.3-2.2l15.3-8.5
	C23,4.1,23.5,4,24,4s1,0.1,1.3,0.3l15.3,8.5c0.7,0.4,1.3,1.4,1.3,2.2V33z M13,20.4c0.4,0.2,0.7,0.3,1.2,0.3c0.8,0,1.6-0.4,2-1.1
	c0.6-1.1,0.3-2.5-0.8-3.1c-1.1-0.6-2.5-0.2-3.2,0.8C11.6,18.4,11.9,19.8,13,20.4z M13.1,17.9c0.2-0.4,0.6-0.6,1.1-0.6
	c0.2,0,0.4,0.1,0.6,0.2c0.6,0.3,0.8,1.1,0.5,1.7c-0.3,0.6-1.1,0.8-1.7,0.4C13,19.2,12.8,18.5,13.1,17.9z M34.7,28
	c-0.7-0.4-1.5-0.3-2.1,0.2L26.8,25c0.1-0.3,0.2-0.6,0.2-1s-0.1-0.7-0.2-1l5.2-3l-0.5-0.9l-5.2,3c-0.4-0.5-1-0.9-1.7-1v-6.5
	c0.7-0.2,1.3-0.9,1.3-1.7c0-1-0.8-1.7-1.8-1.7c-1,0-1.8,0.8-1.8,1.7c0,0.8,0.5,1.4,1.3,1.7v6.5c-0.7,0.1-1.3,0.5-1.7,1l-5.2-3
	L16,20.1l5.2,3c-0.1,0.3-0.2,0.6-0.2,1s0.1,0.7,0.2,1l-5.8,3.3c-0.6-0.5-1.4-0.6-2.1-0.2c-0.9,0.5-1.1,1.5-0.7,2.4
	c0.5,0.8,1.6,1.1,2.4,0.6c0.7-0.4,1-1.2,0.8-1.9l5.8-3.3c0.4,0.5,1,0.9,1.7,1v5.9h1.1v-5.9c0.7-0.1,1.3-0.5,1.7-1l5.8,3.3
	c-0.2,0.7,0.1,1.5,0.8,1.9c0.9,0.5,1.9,0.2,2.4-0.6C35.8,29.6,35.5,28.5,34.7,28z M24,32.8c-1.3,0-2.3,1-2.3,2.3
	c0,1.2,1,2.3,2.3,2.3c1.3,0,2.3-1,2.3-2.3C26.3,33.8,25.3,32.8,24,32.8z M24,36.3c-0.7,0-1.3-0.6-1.3-1.2c0-0.7,0.6-1.2,1.3-1.2
	c0.7,0,1.3,0.6,1.3,1.2C25.2,35.7,24.7,36.3,24,36.3z"/>
</svg>
