<?xml version="1.0" encoding="utf-8"?>
<!-- Generator: Adobe Illustrator 21.0.0, SVG Export Plug-In . SVG Version: 6.00 Build 0)  -->
<svg version="1.1" id="图层_1" xmlns="http://www.w3.org/2000/svg" xmlns:xlink="http://www.w3.org/1999/xlink" x="0px" y="0px"
	 viewBox="0 0 48 48" style="enable-background:new 0 0 48 48;" xml:space="preserve">
<title>智能数据湖--DLC</title>
<desc>Created with Sketch.</desc>
<path d="M24,10c-4.2,0-9,0.8-9,3v22c0,2,4,3,9,3s9-1,9-3V13C33,10.8,28.2,10,24,10z M32,35c0,1-3.2,2-8,2s-8-1-8-2V24.9l1.5,0.9
	c0.9,0.6,2.1,0.4,2.9-0.4l0.4-0.5c0.2-0.2,0.4-0.2,0.6-0.1l1.6,1c0.4,0.2,0.9,0.4,1.3,0.4c0.6,0,1.2-0.2,1.6-0.6l0.7-0.6
	c0.2-0.2,0.5-0.2,0.7,0l0.7,0.6c0.9,0.8,2.1,0.8,3.1,0.1L32,25V35z M32,23.7l-1.5,1.1c-0.6,0.4-1.3,0.4-1.9-0.1L28,24.2
	c-0.6-0.5-1.4-0.5-2,0l-0.7,0.6c-0.5,0.4-1.2,0.5-1.8,0.1L22,24c-0.6-0.4-1.4-0.3-1.9,0.3l-0.4,0.5c-0.4,0.5-1.1,0.5-1.6,0.2l-2-1.2
	v-9.2c1.6,1.1,5,1.5,8,1.5s6.4-0.4,8-1.5L32,23.7L32,23.7z M24,15c-5.5,0-8-1.2-8-2s2.5-2,8-2s8,1.2,8,2S29.5,15,24,15z M45.1,15
	c-0.1-1.9-1.3-3.9-2.8-4.8L27,1.6c-1.6-0.9-4.1-0.9-5.7,0L6,10.2C4.5,11.1,3,13,3,15v18c0,2,1.5,3.9,3,4.9l15.3,8.5
	c0.7,0.5,1.8,0.8,3,0.8c1.1,0,2-0.2,2.9-0.7L42.4,38c1.6-0.8,2.7-2.9,2.7-4.9V15z M43.1,33c0,1.2-0.8,2.6-1.7,3.1l-15.2,8.5
	c-0.6,0.3-1.2,0.5-1.9,0.5c-0.7,0-1.4-0.2-1.9-0.5L7,36.2c-1.1-0.7-2-2.1-2-3.1V15c0-1,0.9-2.5,2-3.1l15.3-8.5
	C22.8,3.1,23.5,3,24.2,3s1.4,0.1,1.9,0.4l15.3,8.5c1,0.6,1.7,2,1.8,3.1v18H43.1z"/>
</svg>
