<?xml version="1.0" encoding="utf-8"?>
<!-- Generator: Adobe Illustrator 21.0.0, SVG Export Plug-In . SVG Version: 6.00 Build 0)  -->
<svg version="1.1" id="图层_1" xmlns="http://www.w3.org/2000/svg" xmlns:xlink="http://www.w3.org/1999/xlink" x="0px" y="0px"
	 viewBox="0 0 48 48" style="enable-background:new 0 0 48 48;" xml:space="preserve">
<style type="text/css">
	.st0{fill:#060001;}
	.st1{fill:#040000;}
	.st2{fill:none;stroke:#000000;stroke-miterlimit:10;}
	.st3{fill:#221815;}
	.st4{fill:#080102;}
	.st5{fill:none;stroke:#000000;stroke-width:2;stroke-linecap:round;stroke-linejoin:round;stroke-miterlimit:10;}
	.st6{fill:#070001;}
</style>
<g>
	<path class="st1" d="M34,19.1c0-4.9-2.5-7.8-7.2-8.4c-0.8-0.1-1.2-0.1-2-0.1l-0.6,0c-3,0-5.8,1.4-7.3,3.7c-1.1,1.3-1.8,2.9-2.1,4.6
		c0,0,0,0.1,0,0.1c0,0.3,0,0.6,0,0.8l-2.9,6.7c-0.1,0.2-0.1,0.3,0,0.5c0.1,0.1,0.3,0.2,0.4,0.2h2.3v4.8c0,0.3,0.2,0.5,0.5,0.5H19
		v4.3H20v-4.8c0-0.3-0.2-0.5-0.5-0.5h-3.7v-4.8c0-0.3-0.2-0.5-0.5-0.5h-2l2.7-6.1c0-0.1,0-0.2,0-0.3c0-0.2,0-0.6,0-0.8c0,0,0,0,0,0
		c0,0,0,0,0-0.1c0.2-1.5,0.8-2.9,1.9-4.1c1.4-2,3.8-3.2,6.5-3.3l0.6,0c0.7,0,1.1,0,1.8,0.1c4.2,0.5,6.3,3,6.3,7.4
		c0,2.4-0.3,4.8-1.8,9.9c0,0,0,0.1,0,0.1l0,3.4l0.2,4.3l1.1,0l-0.2-4.2l0-3.3C33.5,24.7,34,22.1,34,19.1z"/>
	<path class="st1" d="M31.5,19.8c0-0.6-0.5-1-1-1c-0.4,0-0.7,0.2-0.9,0.5l-5.8-2c0-0.1,0.1-0.3,0.1-0.4c0-0.1,0-0.2,0-0.2l2-0.5
		c0.3,0.5,0.8,0.8,1.4,0.8c0.9,0,1.6-0.7,1.6-1.5c0-0.9-0.7-1.5-1.6-1.5c-0.9,0-1.6,0.7-1.6,1.5c0,0.1,0,0.2,0,0.3l-2,0.5
		c-0.3-0.8-1.1-1.3-2-1.3c-1.2,0-2.1,0.9-2.1,2c0,1.1,0.9,2.1,2.1,2.1c0.8,0,1.5-0.5,1.9-1.1l5.8,2c0,0,0,0,0,0.1c0,0.6,0.5,1,1,1
		C31,20.8,31.5,20.4,31.5,19.8z"/>
	<path class="st1" d="M41.6,11L26.3,2.5c-1.3-0.7-3.4-0.7-4.7,0L6.4,11C5,11.8,4,13.5,4,15v18c0,1.5,1,3.2,2.4,4l15.3,8.5
		c0.6,0.4,1.5,0.6,2.3,0.6s1.7-0.2,2.3-0.6l15.3-8.5c1.3-0.7,2.4-2.5,2.4-4V15C44,13.5,43,11.8,41.6,11z M41.9,33
		c0,0.8-0.6,1.8-1.3,2.2l-15.3,8.5c-0.6,0.4-2,0.4-2.6,0L7.4,35.2c-0.7-0.4-1.3-1.4-1.3-2.2V15c0-0.8,0.6-1.8,1.3-2.2l15.3-8.5
		C23,4.1,23.5,4,24,4s1,0.1,1.3,0.3l15.3,8.5c0.7,0.4,1.3,1.4,1.3,2.2V33z"/>
</g>
</svg>
