<?xml version="1.0" encoding="utf-8"?>
<!-- Generator: Adobe Illustrator 21.0.0, SVG Export Plug-In . SVG Version: 6.00 Build 0)  -->
<svg version="1.1" id="图层_1" xmlns="http://www.w3.org/2000/svg" xmlns:xlink="http://www.w3.org/1999/xlink" x="0px" y="0px"
	 viewBox="0 0 48 48" style="enable-background:new 0 0 48 48;" xml:space="preserve">
<style type="text/css">
	.st0{fill:#040000;}
</style>
<path d="M40.8,10.6L27.3,2.8C26.3,2.3,25.2,2,24,2c-1.2,0-2.3,0.3-3.3,0.8L7.2,10.6C5.4,11.6,4,14.1,4,16.2v15.6
	c0,2.1,1.4,4.5,3.2,5.6l13.5,7.8c0.9,0.5,2.1,0.8,3.3,0.8c1.2,0,2.3-0.3,3.3-0.8l13.5-7.8c1.8-1.1,3.2-3.5,3.2-5.6V16.2
	C44,14.1,42.6,11.6,40.8,10.6z M42,31.8c0,1.4-1.1,3.2-2.3,3.9l-13.5,7.8C25.7,43.8,24.9,44,24,44c-0.9,0-1.7-0.2-2.3-0.5L8.3,35.7
	C7.1,35,6,33.2,6,31.8V16.2c0-1.4,1.1-3.2,2.3-3.9l13.5-7.8C22.3,4.2,23.1,4,24,4c0.9,0,1.7,0.2,2.3,0.5l13.5,7.8
	c1.2,0.7,2.3,2.5,2.3,3.9V31.8z M30.4,17.5C29.5,14.9,27,13,24,13s-5.5,1.9-6.4,4.5c-3.4,0.4-6.1,3.2-6.1,6.7c0,3.7,3.1,6.8,6.8,6.8
	h11.4c3.8,0,6.8-3,6.8-6.8C36.5,20.8,33.8,17.9,30.4,17.5z M29.7,30H18.3c-3.2,0-5.8-2.6-5.8-5.8c0-2.9,2.2-5.4,5.2-5.7l0.6-0.1
	l0.2-0.6c0.8-2.3,3-3.9,5.5-3.9s4.7,1.6,5.5,3.9l0.2,0.6l0.6,0.1c2.9,0.3,5.2,2.8,5.2,5.7C35.5,27.4,32.9,30,29.7,30z"/>
</svg>
