<svg id="图层_1" data-name="图层 1" xmlns="http://www.w3.org/2000/svg" viewBox="0 0 44 41.49"><title>dayu1</title><path d="M45.92,21.11a2.74,2.74,0,0,0-1.69-2l-.09-.47h0a20.64,20.64,0,0,0-39.71-.94.84.84,0,0,0,.66,1.13.85.85,0,0,0,1.13-.66A18.82,18.82,0,0,1,42.35,19a2.75,2.75,0,0,0-1.87,3.29,2.79,2.79,0,0,0,3.38,2.06A2.61,2.61,0,0,0,45.92,21.11Zm-2.25,2.53a1.88,1.88,0,1,1,1.41-2.25A2.05,2.05,0,0,1,43.67,23.64ZM17,17.35a2.93,2.93,0,0,0-.66-.46,2.55,2.55,0,0,0-.84-.19H11.94v6.94h3.57a2.81,2.81,0,0,0,.84-.18A1.89,1.89,0,0,0,17,23a2.69,2.69,0,0,0,.47-.66,2.83,2.83,0,0,0,.19-.85V18.86a2.83,2.83,0,0,0-.19-.85A1.09,1.09,0,0,0,17,17.35Zm-.47,3.95a.75.75,0,0,1-.09.47,1.53,1.53,0,0,1-.28.37c-.1.1-.29.19-.38.28a.8.8,0,0,1-.47.1H13.16V17.64h2.16a.72.72,0,0,1,.47.09,1.38,1.38,0,0,1,.38.28c.09.1.18.28.28.38a.86.86,0,0,1,.09.47Zm4.13-4.7-2.91,7h1.32l.56-1.5H23l.56,1.5H25l-2.91-7Zm-.56,4.6L21.42,18l1.32,3.19Zm11.54-4.78v5.16a.8.8,0,0,0,.19.56.75.75,0,0,0,.56.19h1.79a.75.75,0,0,0,.56-.19.8.8,0,0,0,.19-.56V16.42h1.12v5.72a.88.88,0,0,1-.09.47c-.09.09-.19.28-.28.38a1.43,1.43,0,0,1-.38.28.72.72,0,0,1-.47.09H31.75a.88.88,0,0,1-.47-.09c-.1-.1-.28-.19-.38-.28a1.38,1.38,0,0,1-.28-.38.72.72,0,0,1-.09-.47V16.42Zm-5.16,7v-3l-2.82-4H25l2.06,2.91,2-2.91h1.41l-2.81,4v3Zm17.18,3.75a1,1,0,0,0-1.13.75,11.7,11.7,0,0,1-.47,1.78A18.77,18.77,0,0,1,5.75,27.3h0A2.86,2.86,0,0,0,7.53,24a2.8,2.8,0,1,0-5.44,1.31A2.94,2.94,0,0,0,4,27.4v.28H4v.19H4a20.63,20.63,0,0,0,20.28,16.8A20.9,20.9,0,0,0,43.76,30.31c.19-.66.38-1.32.56-1.88A1.07,1.07,0,0,0,43.67,27.21ZM2.84,25a1.88,1.88,0,1,1,2.25,1.41A1.87,1.87,0,0,1,2.84,25Zm14.08,3.38a8,8,0,0,1,7.13.56,8.11,8.11,0,0,0,6.1.75l4.51-1.31A.68.68,0,0,1,35,29.65L30.53,31a7.72,7.72,0,0,1-2.54.38,9,9,0,0,1-4.69-1.22,7.13,7.13,0,0,0-6-.47l-2.63,1a.65.65,0,0,1-.93-.37.66.66,0,0,1,.37-.94ZM35.5,32.19A.66.66,0,0,1,35,33l-4.5,1.31a7.72,7.72,0,0,1-2.54.38A9,9,0,0,1,23.3,33.5a7.13,7.13,0,0,0-6-.47l-2.63,1a.65.65,0,0,1-.93-.37.66.66,0,0,1,.37-.94l2.63-1a7.94,7.94,0,0,1,7.13.56A8.12,8.12,0,0,0,30,33l4.51-1.31A1,1,0,0,1,35.5,32.19Z" transform="translate(-2 -3.18)"/></svg>