<svg id="图层_1" data-name="图层 1" xmlns="http://www.w3.org/2000/svg" viewBox="0 0 44 44"><title>dayu2</title><path id="Combined-Shape" d="M10.9,40.13a19.83,19.83,0,0,0,12.1,4,20.06,20.06,0,0,0,20-20,19.72,19.72,0,0,0-1.8-8.31A1,1,0,1,1,43,15a21.61,21.61,0,0,1,2,9.11A22.05,22.05,0,0,1,9.6,41.63a3,3,0,0,0,.7-.5A2.74,2.74,0,0,0,10.9,40.13Zm24.2-32A20.07,20.07,0,0,0,3,24.13a19.63,19.63,0,0,0,1.8,8.29,1,1,0,0,1-1.8.8,21.6,21.6,0,0,1-2-9.1A22.05,22.05,0,0,1,36.4,6.63a2.76,2.76,0,0,0-.7.5A2.59,2.59,0,0,0,35.1,8.13Zm1.3,2.6a2,2,0,0,0,2.8-2.8,1.93,1.93,0,0,0-2.8,0A2,2,0,0,0,36.4,10.73Zm-.7.7a2.9,2.9,0,0,1,0-4.2,2.9,2.9,0,0,1,4.2,0,3,3,0,0,1,0,4.2A3.11,3.11,0,0,1,35.7,11.43Zm-29,29a2,2,0,1,0,0-2.79A2,2,0,0,0,6.7,40.42Zm-.7.71a2.91,2.91,0,0,1,0-4.21,2.9,2.9,0,0,1,4.2,0,2.91,2.91,0,0,1,0,4.21A3.1,3.1,0,0,1,6,41.13Zm6-25a.94.94,0,0,0-1,1v14a.94.94,0,0,0,1,1H34a.94.94,0,0,0,1-1v-14a.94.94,0,0,0-1-1Zm0-1H34a2,2,0,0,1,2,2v14a2,2,0,0,1-2,2H12a2,2,0,0,1-2-2v-14A2,2,0,0,1,12,15.13Zm4.1,11.1,3-3c0-.1-.1-.4-.1-.6a1.5,1.5,0,1,1,3,0v.29l2.6,1.5a1.68,1.68,0,0,1,1-.29,1.85,1.85,0,0,1,.7.2l3-2.9a1.35,1.35,0,0,1-.3-.8,1.5,1.5,0,1,1,1.5,1.5,1.17,1.17,0,0,1-.6-.11l-3.1,3a1.31,1.31,0,0,1,.1.61,1.54,1.54,0,0,1-1.5,1.5,1.46,1.46,0,0,1-1.4-1.5v-.3l-2.6-1.5a1.69,1.69,0,0,1-1,.3c-.2,0-.5-.11-.6-.11l-3,3a1.31,1.31,0,0,1,.1.61,1.5,1.5,0,1,1-1.5-1.5A5.64,5.64,0,0,1,16.1,26.23Zm-.6,1.9a.48.48,0,0,0,.5-.5.5.5,0,1,0-1,0A.48.48,0,0,0,15.5,28.13Zm5-5a.48.48,0,0,0,.5-.5.5.5,0,1,0-1,0A.48.48,0,0,0,20.5,23.13Zm5,3a.48.48,0,0,0,.5-.5.5.5,0,1,0-1,0A.48.48,0,0,0,25.5,26.13Zm5-5a.48.48,0,0,0,.5-.5.5.5,0,1,0-1,0A.48.48,0,0,0,30.5,21.13Z" transform="translate(-1 -2.13)"/></svg>