<?xml version="1.0" encoding="utf-8"?>
<!-- Generator: Adobe Illustrator 21.0.0, SVG Export Plug-In . SVG Version: 6.00 Build 0)  -->
<svg version="1.1" id="图层_1" xmlns="http://www.w3.org/2000/svg" xmlns:xlink="http://www.w3.org/1999/xlink" x="0px" y="0px"
	 viewBox="0 0 48 48" style="enable-background:new 0 0 48 48;" xml:space="preserve">
<style type="text/css">
	.st0{fill:#040000;}
</style>
<path class="st0" d="M41.5,11c-0.3,0-0.5,0.2-0.5,0.5s0.2,0.5,0.5,0.5c1.4,0,2.5,1.3,2.5,2.9v19.2c0,1.6-1.1,2.9-2.5,2.9
	c-0.3,0-0.5,0.2-0.5,0.5s0.2,0.5,0.5,0.5c1.9,0,3.5-1.7,3.5-3.9V14.9C45,12.7,43.4,11,41.5,11z M34.5,11h-18c-0.3,0-0.5,0.2-0.5,0.5
	s0.2,0.5,0.5,0.5h18c0.3,0,0.5-0.2,0.5-0.5S34.8,11,34.5,11z M36,32H12c-2.2,0-4,1.8-4,4v3c0,2.2,1.8,4,4,4h24c2.2,0,4-1.8,4-4v-3
	C40,33.8,38.2,32,36,32z M38,39c0,1.1-0.9,2-2,2H12c-1.1,0-2-0.9-2-2v-3c0-1.1,0.9-2,2-2h24c1.1,0,2,0.9,2,2V39z M6.5,12
	C6.8,12,7,11.8,7,11.5S6.8,11,6.5,11C4.6,11,3,12.7,3,14.9v19.2C3,36.3,4.6,38,6.5,38C6.8,38,7,37.8,7,37.5S6.8,37,6.5,37
	C5.1,37,4,35.7,4,34.1V14.9C4,13.3,5.1,12,6.5,12z M13.5,37c-0.3,0-0.5,0.2-0.5,0.5s0.2,0.5,0.5,0.5s0.5-0.2,0.5-0.5
	S13.8,37,13.5,37z M34.5,37h-18c-0.3,0-0.5,0.2-0.5,0.5s0.2,0.5,0.5,0.5h18c0.3,0,0.5-0.2,0.5-0.5S34.8,37,34.5,37z M36,19H12
	c-2.2,0-4,1.8-4,4v3c0,2.2,1.8,4,4,4h24c2.2,0,4-1.8,4-4v-3C40,20.8,38.2,19,36,19z M38,26c0,1.1-0.9,2-2,2H12c-1.1,0-2-0.9-2-2v-3
	c0-1.1,0.9-2,2-2h24c1.1,0,2,0.9,2,2V26z M13.5,11c-0.3,0-0.5,0.2-0.5,0.5c0,0.3,0.2,0.5,0.5,0.5s0.5-0.2,0.5-0.5
	C14,11.2,13.8,11,13.5,11z M13.5,24c-0.3,0-0.5,0.2-0.5,0.5c0,0.3,0.2,0.5,0.5,0.5s0.5-0.2,0.5-0.5C14,24.2,13.8,24,13.5,24z M36,6
	H12c-2.2,0-4,1.8-4,4v3c0,2.2,1.8,4,4,4h24c2.2,0,4-1.8,4-4v-3C40,7.8,38.2,6,36,6z M38,13c0,1.1-0.9,2-2,2H12c-1.1,0-2-0.9-2-2v-3
	c0-1.1,0.9-2,2-2h24c1.1,0,2,0.9,2,2V13z M34.5,24h-18c-0.3,0-0.5,0.2-0.5,0.5s0.2,0.5,0.5,0.5h18c0.3,0,0.5-0.2,0.5-0.5
	S34.8,24,34.5,24z"/>
</svg>
