<svg id="图层_1" data-name="图层 1" xmlns="http://www.w3.org/2000/svg" viewBox="0 0 42 40"><title>defog</title><path d="M44.5,9.5A1.54,1.54,0,0,1,46,11V39a1.54,1.54,0,0,1-1.5,1.5h-16a.5.5,0,0,1,0-1h16a.47.47,0,0,0,.37-.14A.47.47,0,0,0,45,39V11a.46.46,0,0,0-.13-.36.47.47,0,0,0-.37-.14h-16a.5.5,0,0,1,0-1Zm-16,14a.5.5,0,0,1,0-1h3a.5.5,0,0,1,0,1Zm0,12a.5.5,0,0,1,0-1h4a.5.5,0,0,1,0,1Zm12.5-8a.5.5,0,0,1,0-1h2.5a.5.5,0,0,1,0,1Zm0-8a.5.5,0,0,1,0-1h2.5a.5.5,0,0,1,0,1Zm-12.5,8a.5.5,0,0,1,0-1h8a.5.5,0,0,1,0,1Zm7.5,8a.5.5,0,0,1,0-1h6.25a.5.5,0,0,1,0,1Zm-6-4a.5.5,0,0,1,0-1H42.5a.5.5,0,0,1,0,1Zm5-8a.5.5,0,0,1,0-1h7.5a.5.5,0,0,1,0,1Zm-5-8a.5.5,0,0,1,0-1H42.25a.5.5,0,0,1,0,1Zm-1.5,4a.5.5,0,0,1,0-1h9.19a.5.5,0,0,1,0,1ZM17,18.5a2,2,0,1,0,2,2A2,2,0,0,0,17,18.5Zm0,5a3,3,0,0,1-3-3,3,3,0,1,1,3,3Zm7,4.8V11.5H6V33.6l9.3-6.5a.47.47,0,0,1,.6.1l4.6,4.6ZM6,38.49H24V29.8l-3.2,3.1a.45.45,0,0,1-.35.15.47.47,0,0,1-.35-.15l-4.7-4.7L6,34.8Zm19-34a.94.94,0,0,1,.73.27A1,1,0,0,1,26,5.5v38a1,1,0,0,1-2,0v-3H6a2,2,0,0,1-2-2v-27a2,2,0,0,1,2-2H24v-4a1,1,0,0,1,.28-.73A.92.92,0,0,1,25,4.5Z" transform="translate(-4 -4.5)"/></svg>