<svg id="图层_1" data-name="图层 1" xmlns="http://www.w3.org/2000/svg" viewBox="0 0 44 44"><defs><style>.cls-1{fill:#060001;}</style></defs><title>画板 1</title><path class="cls-1" d="M29,25H26.3a.5.5,0,0,0,0,1H29a.5.5,0,0,0,0-1Zm-.5,1.4a.5.5,0,0,0-.5.5v.72A1.34,1.34,0,0,1,26.71,29H17.29A1.34,1.34,0,0,1,16,27.62V19.38A1.34,1.34,0,0,1,17.29,18h9.41A1.34,1.34,0,0,1,28,19.38v.52a.5.5,0,0,0,1,0v-.52A2.34,2.34,0,0,0,27,17v0a5,5,0,0,0-4.9-5.11H21.9A5,5,0,0,0,17,17v0a2.34,2.34,0,0,0-2,2.35v8.25A2.34,2.34,0,0,0,17.29,30h9.41A2.34,2.34,0,0,0,29,27.62V26.9A.5.5,0,0,0,28.5,26.4ZM21.9,12.9h.21A4,4,0,0,1,26,17H18A4,4,0,0,1,21.9,12.9ZM29,23H26.3a.5.5,0,0,0,0,1H29a.5.5,0,0,0,0-1ZM38.4,8.76l-.7-.24A68.23,68.23,0,0,1,31,6a30,30,0,0,1-5.89-3.73l-.58-.45A4.07,4.07,0,0,0,22,1H22a4.08,4.08,0,0,0-2.48.78l-.58.45A30,30,0,0,1,13,6,68.24,68.24,0,0,1,6.3,8.53l-.69.24A3.76,3.76,0,0,0,3,12.65c.28,3.48,1.23,12.14,3.89,17.5C10,36.3,17.56,40.93,20.06,42.45a3.68,3.68,0,0,0,3.88,0C26.44,40.93,34,36.3,37.1,30.14c2.66-5.35,3.61-14,3.89-17.5A3.76,3.76,0,0,0,38.4,8.76ZM35.31,29.25c-1.86,3.75-6,7.61-12.41,11.49a1.68,1.68,0,0,1-1.8,0C14.73,36.86,10.56,33,8.69,29.25c-2.51-5-3.41-13.4-3.69-16.77a1.76,1.76,0,0,1,1.25-1.83l.69-.24a68.1,68.1,0,0,0,7-2.67A32.11,32.11,0,0,0,20.16,3.8l.56-.44A2.09,2.09,0,0,1,21.93,3h.14a2.08,2.08,0,0,1,1.21.36l.56.44a32.17,32.17,0,0,0,6.23,3.94,68,68,0,0,0,7,2.67l.7.24A1.76,1.76,0,0,1,39,12.48C38.72,15.85,37.81,24.21,35.31,29.25ZM29,21H26.3a.5.5,0,0,0,0,1H29a.5.5,0,0,0,0-1Z"/></svg>