<svg id="图层_1" data-name="图层 1" xmlns="http://www.w3.org/2000/svg" viewBox="0 0 44 41.37"><title>DGC</title><path id="形状结合" d="M4.15,22.43a2.81,2.81,0,0,1,3.38,2.06,2.89,2.89,0,0,1-1.79,3.29A19.28,19.28,0,0,0,24.2,43.24,18.75,18.75,0,0,0,42,30.3a7.09,7.09,0,0,0,.48-1.69h0v-.18a1,1,0,0,1,1.11-.76h0c.48.1.75.66.85,1.25h0v.17A13.6,13.6,0,0,1,44,31,20.64,20.64,0,0,1,4.05,28.24v-.1h0a.45.45,0,0,1,0-.23,2.94,2.94,0,0,1-2-2.11,2.8,2.8,0,0,1,2.07-3.37Zm12.5,10a8,8,0,0,1,7.13.56,8.11,8.11,0,0,0,6.1.75h0l4.5-1.31c.37-.19.75.1,1,.46a.66.66,0,0,1-.42.84h0L30.44,35a7.58,7.58,0,0,1-2.5.37,8.9,8.9,0,0,1-4.69-1.25,7.13,7.13,0,0,0-6-.46h0l-2.61,1a.67.67,0,0,1-.9-.28,1,1,0,0,1,0-.1.65.65,0,0,1,.25-.88l.13,0h0Zm.2-3.38a8,8,0,0,1,7.13.56,8,8,0,0,0,6.08.75h0l4.5-1.25a.7.7,0,0,1,.67.71.67.67,0,0,1-.29.54h0l-4.5,1.32a8.14,8.14,0,0,1-2.5.37,9,9,0,0,1-4.69-1.25,7.1,7.1,0,0,0-6-.47h0l-2.61,1a.66.66,0,0,1-.89-.25L13.7,31a.66.66,0,0,1,.28-.9l.1,0h0ZM6.64,24.76a1.86,1.86,0,0,0-2.23-1.4h0A1.92,1.92,0,0,0,3,25.61,2,2,0,0,0,5.24,27,1.88,1.88,0,0,0,6.64,24.76ZM24.14,3.87a20.51,20.51,0,0,1,20,15.47h0l.09.46a2.76,2.76,0,0,1,1.68,2A2.64,2.64,0,0,1,44,25l-.17,0A2.79,2.79,0,0,1,40.48,23a2.75,2.75,0,0,1,1.87-3.29A18.75,18.75,0,0,0,6.2,18.87a.84.84,0,0,1-1,.7l-.16,0a.84.84,0,0,1-.71-1,1.21,1.21,0,0,1,0-.18A20.41,20.41,0,0,1,24.11,3.87Zm0,12.35a2.88,2.88,0,0,1,2,.73,3.32,3.32,0,0,1,1,1.83H25.73l-.07-.16a1.81,1.81,0,0,0-.52-.73,1.64,1.64,0,0,0-1.06-.36,1.69,1.69,0,0,0-.8.19,1.55,1.55,0,0,0-.55.43,1.34,1.34,0,0,0-.34.73,10,10,0,0,0-.1,1.74v.23a8.34,8.34,0,0,0,.1,1.5,1.37,1.37,0,0,0,.34.74,1.55,1.55,0,0,0,.55.43,1.49,1.49,0,0,0,.8.2,1.74,1.74,0,0,0,1.25-.53,1.82,1.82,0,0,0,.51-1.31h0v-.45H24.09V20.18h3.07v2a3.1,3.1,0,0,1-4.78,2.36,2.88,2.88,0,0,1-1-1.06c0-.13-.12-.25-.17-.38a2.56,2.56,0,0,1-.11-.46,13.53,13.53,0,0,1-.09-2,13.6,13.6,0,0,1,.09-2,2.47,2.47,0,0,1,.28-.83,3.08,3.08,0,0,1,1-1.07,2.91,2.91,0,0,1,1.7-.48Zm7.42,0a2.87,2.87,0,0,1,2,.77,3.36,3.36,0,0,1,1,1.83H33.16l-.06-.17a1.7,1.7,0,0,0-2.39-.9,1.55,1.55,0,0,0-.55.44,1.32,1.32,0,0,0-.33.73,6.93,6.93,0,0,0-.1,1.51h0v.22a8.43,8.43,0,0,0,.1,1.74,1.39,1.39,0,0,0,.33.74,1.5,1.5,0,0,0,.55.42,1.46,1.46,0,0,0,.79.2,1.78,1.78,0,0,0,1.66-1.18h1.39l-.06.23a3.24,3.24,0,0,1-1,1.63,3.07,3.07,0,0,1-2,.63,2.9,2.9,0,0,1-1.7-.57,2.93,2.93,0,0,1-1-1.06c-.06-.13-.13-.25-.18-.38a2.39,2.39,0,0,1-.12-.46,16.9,16.9,0,0,1-.09-2v-.24a14.88,14.88,0,0,1,.09-1.77,2.07,2.07,0,0,1,.3-.84,2.93,2.93,0,0,1,1-1.06,2.78,2.78,0,0,1,1.7-.45Zm-14.87,0h.21a2.86,2.86,0,0,1,2.43,1.45,2.6,2.6,0,0,1,.4,1,16.26,16.26,0,0,1,.07,1.85,12.81,12.81,0,0,1-.1,2,2.21,2.21,0,0,1-.15.5c0,.14-.15.29-.24.44a2.93,2.93,0,0,1-1.06,1,3,3,0,0,1-1.65.44h-3V16.28ZM45,22a1.88,1.88,0,1,0-1.42,2.26A2,2,0,0,0,45,22Zm-28.6-4.46H14.91v6.19h1.52A1.82,1.82,0,0,0,18,23a1.58,1.58,0,0,0,.27-.72,13.88,13.88,0,0,0,0-1.58V19.05a1.58,1.58,0,0,0-.33-.8A1.76,1.76,0,0,0,16.43,17.53Z" transform="translate(-2 -3.87)"/></svg>