<svg id="图层_1" data-name="图层 1" xmlns="http://www.w3.org/2000/svg" viewBox="0 0 38.82 41.99"><title>distortioncorrection</title><path d="M10.59,29.49a.5.5,0,0,1-.5-.5.51.51,0,0,1,.5-.5h10.5a.5.5,0,0,1,.5.5.5.5,0,0,1-.5.5Zm0-6a.5.5,0,0,1-.5-.5.51.51,0,0,1,.5-.5H24a.5.5,0,0,1,.5.5.5.5,0,0,1-.5.5Zm0-6a.5.5,0,0,1-.5-.5.51.51,0,0,1,.5-.5H24a.5.5,0,0,1,.5.5.5.5,0,0,1-.5.5Zm22,22H23.5a.64.64,0,0,1-.4-.15.6.6,0,0,1-.05-.85l3.5-4a.5.5,0,0,1,.76.66l-2.93,3.35h8.21v-27a1,1,0,0,0-1-1h-23a1,1,0,0,0-1,1v31a1,1,0,0,0,1,1h23a1,1,0,0,0,1-1Zm5.14,0H34.59v3a3,3,0,0,1-3,3h-23a3,3,0,0,1-3-3v-31a3,3,0,0,1,3-3h23a3,3,0,0,1,3,3v27H42l.18,0a1.43,1.43,0,0,0,1.23-1.61L39.49,5.77a1.43,1.43,0,0,0-1.41-1.26H22a1.28,1.28,0,0,0-1.41,1.2v1.2a.5.5,0,0,1-.5.5.5.5,0,0,1-.5-.5V5.71A2.26,2.26,0,0,1,22,3.51H38.08a2.42,2.42,0,0,1,2.4,2.13l3.91,31.09a2.44,2.44,0,0,1-2.09,2.74l-.31,0Z" transform="translate(-5.59 -3.51)"/></svg>