<?xml version="1.0" encoding="utf-8"?>
<!-- Generator: Adobe Illustrator 21.0.0, SVG Export Plug-In . SVG Version: 6.00 Build 0)  -->
<svg version="1.1" id="图层_1" xmlns="http://www.w3.org/2000/svg" xmlns:xlink="http://www.w3.org/1999/xlink" x="0px" y="0px"
	 viewBox="0 0 48 48" style="enable-background:new 0 0 48 48;" xml:space="preserve">
<style type="text/css">
	.st0{fill:#070102;}
</style>
<g id="图层_1_1_">
	<path class="st0" d="M40.2,38.2c-0.1,0.3-0.1,0.5-0.2,0.7l-1.8-7h-1.9l-1.6,6.2l-0.1,0.6l-0.2-0.6l-1.6-6.2h-2l2.9,10.2h1.9
		l1.7-6.8c0.1,0.3,0.1,0.5,0.2,0.8l1.4,5.9h2l2.8-10.1c0,0-1.9,0-2,0.1L40.2,38.2z M24,3C12.4,3,3,12.4,3,24s9.4,21,21,21
		c2.7,0,5.3-0.5,7.7-1.5l-0.6-2c-0.3,0.2-0.6,0.3-0.8,0.4h-0.1c0.2-0.2,0.4-0.3,0.7-0.5l-0.3-1l-1.3,0.9c-1.5,1-3.2,1.6-5,1.7v-7.2
		h4.8L29,35.6l-0.3-0.9h-4.4v-9.6h12.3c-0.1,1.7-0.3,3.2-0.6,4.8h1c0.3-1.6,0.5-3.2,0.6-4.9h5.3c-0.1,1.7-0.4,3.3-0.9,4.9h2.1
		C44.6,28,45,26.1,45,24C45,12.4,35.6,3,24,3z M17.7,6.2c-2.1,1.5-4,3.7-5.4,6.4H8.9C11.1,9.6,14.2,7.4,17.7,6.2z M8.1,13.5h4.1
		c-1.4,3.1-2.1,6.7-2.1,10.6H4.9C4.9,20.2,6.1,16.6,8.1,13.5z M4.9,25.1H10c0.1,3.5,0.8,6.8,2,9.6H8C6.3,31.8,5.1,28.6,4.9,25.1z
		 M17.6,42c-3.5-1.3-6.5-3.5-8.7-6.3h3.5c1,1.9,2.2,3.6,3.6,4.9c0.1,0.1,0.1,0.1,0.3,0.2c0.5,0.5,1,0.9,1.6,1.2
		C17.7,42.1,17.7,42,17.6,42z M23.4,43.1c-2.2-0.1-4.3-1-6.1-2.5l-0.1-0.1c-1.4-1.2-2.7-2.8-3.7-4.7h9.9L23.4,43.1z M23.4,34.7H13.2
		c-1.2-2.8-2-6.1-2.1-9.6h12.3L23.4,34.7z M23.4,24.1H11c0-3.9,0.8-7.6,2.2-10.6h10.2V24.1z M23.4,12.5h-9.7
		c2.3-4.3,5.8-7.1,9.7-7.3V12.5z M38.9,12.5h-3.5C34,9.8,32.2,7.6,30,6.1C33.6,7.4,36.7,9.6,38.9,12.5z M24.4,5.2
		c3.9,0.2,7.3,3,9.6,7.3h-9.6V5.2z M24.4,24.1V13.5h10.1c1.4,3,2.2,6.7,2.2,10.6H24.4z M37.7,24.1c0-3.9-0.8-7.5-2.1-10.6h4.1
		c2,3,3.2,6.7,3.2,10.6H37.7z"/>
</g>
</svg>
