<svg id="图层_1" data-name="图层 1" xmlns="http://www.w3.org/2000/svg" viewBox="0 0 44 44"><title>domains2</title><path d="M16.1,25.83c-.2.9-.4,1.6-.6,2.4h-.1l-.6-2.4-1.5-5.7h-1l-1.5,5.7-.6,2.4H10a20.48,20.48,0,0,1-.5-2.4L8,20.13H7l2.5,9h1.1l1.4-5.4a25.73,25.73,0,0,0,.7-2.6h.1c.2.89.4,1.7.6,2.6l1.4,5.4H16l2.4-9h-.9ZM25,2.13a22,22,0,1,0,22,22A21.94,21.94,0,0,0,25,2.13Zm14.3,8a21.39,21.39,0,0,1-11.2,5.19c2-1.69,3.8-5,5-9.5A22.26,22.26,0,0,1,39.3,10.13ZM25,4.13a21.84,21.84,0,0,1,7.2,1.3c-1.6,6.3-4.3,10.2-7.2,10.2h0c-2.8,0-5.5-3.9-7.2-10.2A21.84,21.84,0,0,1,25,4.13ZM16.9,5.82c1.2,4.6,2.9,7.81,5,9.5a21.92,21.92,0,0,1-11.2-5.19A22.26,22.26,0,0,1,16.9,5.82ZM11.3,38.63a21.49,21.49,0,0,1,10.5-4.71c-1.9,1.6-3.6,4.5-4.8,8.5A17.24,17.24,0,0,1,11.3,38.63ZM25,44.13a20.8,20.8,0,0,1-7.1-1.3c1.6-5.7,4.3-9.2,7.1-9.2s5.5,3.5,7.1,9.2A20.8,20.8,0,0,1,25,44.13Zm8.1-1.71c-1.2-4-2.8-7-4.8-8.5a22.23,22.23,0,0,1,10.5,4.71A19.57,19.57,0,0,1,33.1,42.42Zm6.4-4.5A22.3,22.3,0,0,0,25,32.63a22.76,22.76,0,0,0-14.5,5.29A20.1,20.1,0,0,1,5,24.13a19.79,19.79,0,0,1,5-13.2,22.25,22.25,0,0,0,15,5.7h0a22.44,22.44,0,0,0,15-5.7,20,20,0,0,1-.5,27ZM28.3,25.83c-.2.9-.4,1.6-.6,2.4h-.1l-.6-2.4-1.5-5.7h-1L23,25.83l-.6,2.4h-.1a20.48,20.48,0,0,1-.5-2.4l-1.5-5.7h-1l2.5,9h1.1l1.4-5.4a25.73,25.73,0,0,0,.7-2.6h0c.2.89.4,1.7.6,2.6l1.4,5.4h1.2l2.4-9h-.9Zm13.8-5.7-1.5,5.7c-.2.9-.4,1.6-.6,2.4h0l-.6-2.4-1.6-5.7h-1l-1.5,5.7-.6,2.4h-.1a20.48,20.48,0,0,1-.5-2.4l-1.5-5.7h-1l2.5,9h1.1l1.4-5.4a25.73,25.73,0,0,0,.7-2.6h.1c.2.89.4,1.7.6,2.6l1.4,5.4h1.2l2.4-9Z" transform="translate(-3 -2.13)"/></svg>