<svg id="图层_1" data-name="图层 1" xmlns="http://www.w3.org/2000/svg" viewBox="0 0 40 40"><title>domainocr</title><path id="服务图标-文字识别_行业类domainocr" data-name="服务图标-文字识别 行业类domainocr" d="M13,23a2.61,2.61,0,0,1-1-2V18.1a2.46,2.46,0,0,1,2.4-2.5H20v-.5a2.48,2.48,0,0,1,2.5-2.5h2A2.48,2.48,0,0,1,27,15.1v.4h5.6A2.46,2.46,0,0,1,35,18v1.9a.5.5,0,0,1-1,0V18a1.45,1.45,0,0,0-1.4-1.5H14.4A1.45,1.45,0,0,0,13,18v2.9a1.5,1.5,0,0,0,1.1,1.5l6.7,1.9a8.92,8.92,0,0,0,2.8.3.5.5,0,0,1,0,1,11,11,0,0,1-3.1-.4L14,23.4v5.8a1.44,1.44,0,0,0,1.5,1.3H24a.5.5,0,0,1,0,1H15.5A2.38,2.38,0,0,1,13,29.2ZM4,14.5v-7a4,4,0,0,1,4-4h7a.94.94,0,0,1,1,1,.94.94,0,0,1-1,1H8a2,2,0,0,0-2,2v7a.94.94,0,0,1-1,1A.94.94,0,0,1,4,14.5Zm2,18v7a2,2,0,0,0,2,2h7a1,1,0,0,1,0,2H8a4,4,0,0,1-4-4v-7a.94.94,0,0,1,1-1A.94.94,0,0,1,6,32.5Zm27,9h7a2,2,0,0,0,2-2v-7a1,1,0,0,1,2,0v7a4,4,0,0,1-4,4H33a1,1,0,0,1,0-2Zm9-34a2,2,0,0,0-2-2H33a.94.94,0,0,1-1-1,.94.94,0,0,1,1-1h7a4,4,0,0,1,4,4v7a1,1,0,0,1-2,0ZM26,15a1.54,1.54,0,0,0-1.5-1.5h-2A1.54,1.54,0,0,0,21,15v.5h5Zm1.1,6.5h8.8c.6,0,1.1.7,1.1,1.5V33c0,.8-.5,1.5-1.1,1.5H27.1c-.6,0-1.1-.7-1.1-1.5V23C26,22.2,26.5,21.5,27.1,21.5Zm-.1,1v11h9v-11ZM34,26a.47.47,0,0,1-.5.5h-4a.5.5,0,0,1,0-1h4A.47.47,0,0,1,34,26Zm-1,3a.47.47,0,0,1-.5.5h-3a.5.5,0,0,1,0-1h3A.47.47,0,0,1,33,29Z" transform="translate(-4 -3.5)"/></svg>