<?xml version="1.0" encoding="utf-8"?>
<!-- Generator: Adobe Illustrator 21.0.0, SVG Export Plug-In . SVG Version: 6.00 Build 0)  -->
<svg version="1.1" id="图层_1" xmlns="http://www.w3.org/2000/svg" xmlns:xlink="http://www.w3.org/1999/xlink" x="0px" y="0px"
	 viewBox="0 0 48 48" style="enable-background:new 0 0 48 48;" xml:space="preserve">
<path d="M46,17.9c0-1.6-1.1-3.5-2.4-4.3l-10.2-6C32.7,7.2,31.9,7,31,7s-1.8,0.2-2.4,0.6l-4.6,2.7l-4.6-2.7C18.6,7.2,17.8,7,16.9,7
	c-0.9,0-1.8,0.2-2.4,0.6l-10.1,6C3,14.4,2,16.3,2,18v12c0,1.6,1.1,3.5,2.4,4.3l10.2,6c0.7,0.4,1.5,0.6,2.4,0.6
	c0.9,0,1.8-0.2,2.4-0.6l4.6-2.7l4.6,2.7c0.7,0.4,1.5,0.6,2.4,0.6s1.8-0.2,2.4-0.6l10.1-6c0.7-0.4,1.3-1.1,1.7-1.9
	c0.4-0.8,0.7-1.7,0.7-2.5V17.9z M43.5,31.5c-0.2,0.4-0.5,0.8-0.8,1l-10.5,6.2c-0.6,0.3-1.9,0.3-2.4,0l-10.5-6.2
	c-0.6-0.4-1.3-1.5-1.3-2.3V17.9c0-0.2-0.1-0.4-0.3-0.5c-0.2-0.1-0.4,0-0.6,0.2l-4.5,6c-0.2,0.2-0.1,0.5,0.1,0.7
	c0.2,0.2,0.5,0.1,0.7-0.1l3.6-4.8v10.7c0,1.1,0.8,2.6,1.8,3.1l4.3,2.5l-4.8,2.8c-0.6,0.3-1.9,0.3-2.4,0L5.2,32.5l-0.1-0.1
	C4.5,31.8,4,30.8,4,30v-10v-2.1c0-0.8,0.5-1.9,1.2-2.4l0.1-0.1l10.5-6.2c0.6-0.3,1.9-0.3,2.4,0l10.4,6.3c0.6,0.4,1.3,1.5,1.3,2.3V30
	c0,0.2,0.1,0.4,0.3,0.5c0.2,0.1,0.4,0,0.6-0.2l4.5-6c0.2-0.2,0.1-0.5-0.1-0.7c-0.2-0.2-0.5-0.1-0.7,0.1L31,28.5V17.7
	c0-1.1-0.8-2.6-1.7-3.1L25,12.1l4.8-2.8c0.6-0.3,1.9-0.3,2.4,0l10.5,6.1c0.7,0.5,1.3,1.6,1.3,2.5v12C44,30.5,43.8,31,43.5,31.5z"/>
</svg>
