<?xml version="1.0" encoding="utf-8"?>
<!-- Generator: Adobe Illustrator 21.0.0, SVG Export Plug-In . SVG Version: 6.00 Build 0)  -->
<svg version="1.1" id="图层_1" xmlns="http://www.w3.org/2000/svg" xmlns:xlink="http://www.w3.org/1999/xlink" x="0px" y="0px"
	 viewBox="0 0 48 48" style="enable-background:new 0 0 48 48;" xml:space="preserve">
<path d="M24,20c-1.9,0-3.5,1.3-4.1,3c-2.2,0.2-3.9,2.2-3.9,4.5c0,2.5,2,4.5,4.4,4.5h7.3c2.4,0,4.4-2,4.4-4.5c0-2.3-1.7-4.2-3.9-4.5
	C27.5,21.3,25.9,20,24,20z M31,27.5c0,1.9-1.5,3.5-3.4,3.5h-7.3c-1.9,0-3.4-1.6-3.4-3.5c0-1.8,1.3-3.3,3-3.5l0.6-0.1l0.2-0.6
	c0.5-1.4,1.7-2.3,3.2-2.3s2.7,0.9,3.2,2.3l0.2,0.6L28,24C29.7,24.2,31,25.7,31,27.5z M21.5,9h18C39.8,9,40,8.8,40,8.5S39.8,8,39.5,8
	h-18C21.2,8,21,8.2,21,8.5S21.2,9,21.5,9z M43,20c-1.7,0-3,1.3-3,3c0,1.3,0.8,2.4,2,2.8V40c0,0.6-0.4,1-1,1H7c-0.6,0-1-0.4-1-1v-2
	c0-0.6-0.4-1-1-1s-1,0.4-1,1v2c0,1.7,1.3,3,3,3h34c1.7,0,3-1.3,3-3V25.8c1.2-0.4,2-1.5,2-2.8C46,21.3,44.7,20,43,20z M43,25
	c-1.1,0-2-0.9-2-2s0.9-2,2-2s2,0.9,2,2S44.1,25,43,25z M8,31c0-1.3-0.8-2.4-2-2.8V8c0-0.6,0.4-1,1-1h7.5l3.4,5.1
	c0.3,0.5,1,0.9,1.7,0.9H41c0.6,0,1,0.4,1,1v2c0,0.6,0.4,1,1,1s1-0.4,1-1v-2c0-1.7-1.3-3-3-3H19.5l-3.4-5.1c-0.3-0.5-1-0.9-1.7-0.9H7
	C5.3,5,4,6.3,4,8v20.2c-1.2,0.4-2,1.5-2,2.8c0,1.7,1.3,3,3,3S8,32.7,8,31z M3,31c0-1.1,0.9-2,2-2s2,0.9,2,2s-0.9,2-2,2S3,32.1,3,31z
	"/>
</svg>
