<svg id="图层_1" data-name="图层 1" xmlns="http://www.w3.org/2000/svg" viewBox="0 0 40 44.05"><defs><style>.cls-1{fill:#060001;}</style></defs><title>ei-campus</title><path id="服务图标-园区智能体ei_campus" data-name="服务图标-园区智能体ei campus" class="cls-1" d="M27,18.5v1a3.34,3.34,0,0,0,3.5,3,3.34,3.34,0,0,0,3.5-3v-1Zm8-.1v1.1a4.27,4.27,0,0,1-4.5,4,4.27,4.27,0,0,1-4.5-4V18.4A1.5,1.5,0,0,1,25,17V16a1.54,1.54,0,0,1,1.5-1.5h8A1.54,1.54,0,0,1,36,16v1A1.41,1.41,0,0,1,35,18.4ZM21.43,34.5H22v-3H20v3Zm1.6,0h12.9a.5.5,0,1,1,0,1H13.53A1.54,1.54,0,0,1,12,34V16a1.54,1.54,0,0,1,1.5-1.5h8A1.54,1.54,0,0,1,23,16ZM26.33,3l15.3,8.5a5.19,5.19,0,0,1,2.4,4v18a5.19,5.19,0,0,1-2.4,4L26.33,46a5.52,5.52,0,0,1-4.7,0L6.43,37.5a4.89,4.89,0,0,1-2.4-4v-18a5.19,5.19,0,0,1,2.4-4L21.63,3A5.52,5.52,0,0,1,26.33,3ZM42,33.5v-18a3.16,3.16,0,0,0-1.3-2.2L25.33,4.8a3,3,0,0,0-2.6,0L7.33,13.3A2.61,2.61,0,0,0,6,15.5v18a3.16,3.16,0,0,0,1.3,2.2l15.4,8.5a3,3,0,0,0,2.6,0l15.4-8.5A3.16,3.16,0,0,0,42,33.5Zm-20-3V16a.47.47,0,0,0-.5-.5h-8a.47.47,0,0,0-.5.5V34a.47.47,0,0,0,.5.5H19V31a.47.47,0,0,1,.5-.5Zm-7.1-8a.5.5,0,0,1,0-1h3.3a.5.5,0,1,1,0,1Zm0-4a.5.5,0,0,1,0-1h3.3a.5.5,0,1,1,0,1Zm0,8a.5.5,0,0,1,0-1h3.3a.5.5,0,1,1,0,1Zm11.6-11a.47.47,0,0,0-.5.5v1a.47.47,0,0,0,.5.5h8A.47.47,0,0,0,35,17V16a.47.47,0,0,0-.5-.5Zm2.3,11.4a.51.51,0,1,1,.5-.9,4.15,4.15,0,0,0,1.2.4,2.2,2.2,0,0,0,1.3-.4.51.51,0,0,1,.5.9,4.07,4.07,0,0,1-1.8.5A2.79,2.79,0,0,1,28.83,26.9Zm-1.1,3a.5.5,0,1,1,.6-.8,4.56,4.56,0,0,0,2.2.4,4.32,4.32,0,0,0,2.2-.4.5.5,0,1,1,.6.8,4.67,4.67,0,0,1-2.8.6A4.85,4.85,0,0,1,27.73,29.9ZM30,21.5a1,1,0,1,1,1-1A.94.94,0,0,1,30,21.5Z" transform="translate(-4.03 -2.47)"/></svg>