<svg id="图层_1" data-name="图层 1" xmlns="http://www.w3.org/2000/svg" viewBox="0 0 48 48">
  <defs>
    <style>
      .cls-1 {
        fill: #060001;
      }
    </style>
  </defs>
  <title>弹性GPU</title>
  <path class="cls-1" d="M45,28a1,1,0,0,0-1,1V41a3,3,0,0,1-3,3H7a3,3,0,0,1-3-3V29a1,1,0,0,0-2,0V41a5,5,0,0,0,5,5H41a5,5,0,0,0,5-5V29A1,1,0,0,0,45,28ZM41,2H7A5,5,0,0,0,2,7V18.94a1,1,0,0,0,2,0V7A3,3,0,0,1,7,4H41a3,3,0,0,1,3,3V19.06a1,1,0,1,0,2,0V7A5,5,0,0,0,41,2ZM9.06,31a1.5,1.5,0,1,0,2-1.41.48.48,0,0,0,0-.09V19.15a4.15,4.15,0,1,1,8.29,0v6.14a1.49,1.49,0,0,0,0,2.84v.55a4.64,4.64,0,1,0,9.27,0V21.91a1.49,1.49,0,0,0,0-2.81,4.14,4.14,0,0,1,8.29.05v9.91a1.49,1.49,0,1,0,1,.07v-10a5.14,5.14,0,0,0-10.29-.06,1.49,1.49,0,0,0,0,2.82v6.76a3.64,3.64,0,1,1-7.27,0V28.1a1.49,1.49,0,0,0,0-2.8V19.15a5.15,5.15,0,1,0-10.29,0V29.5a.47.47,0,0,0,0,.09A1.5,1.5,0,0,0,9.06,31Z"/>
</svg>
