<?xml version="1.0" encoding="utf-8"?>
<!-- Generator: Adobe Illustrator 21.0.0, SVG Export Plug-In . SVG Version: 6.00 Build 0)  -->
<svg version="1.1" id="图层_1" xmlns="http://www.w3.org/2000/svg" xmlns:xlink="http://www.w3.org/1999/xlink" x="0px" y="0px"
	 viewBox="0 0 48 48" style="enable-background:new 0 0 48 48;" xml:space="preserve">
<style type="text/css">
	.st0{fill:#040000;}
</style>
<path d="M37.5,14h-13c-0.3,0-0.5,0.2-0.5,0.5s0.2,0.5,0.5,0.5h13c0.3,0,0.5-0.2,0.5-0.5S37.8,14,37.5,14z M10.5,28h5
	c0.3,0,0.5-0.2,0.5-0.5S15.8,27,15.5,27h-5c-0.3,0-0.5,0.2-0.5,0.5S10.2,28,10.5,28z M45,42h-2V8c0-2.2-1.8-4-4-4H23
	c-2.2,0-4,1.8-4,4v11H9c-2.2,0-4,1.8-4,4v19H3c-0.6,0-1,0.4-1,1s0.4,1,1,1h16h24h2c0.6,0,1-0.4,1-1S45.6,42,45,42z M19,42H7V23
	c0-1.1,0.9-2,2-2h10V42z M41,42H21V8c0-1.1,0.9-2,2-2h16c1.1,0,2,0.9,2,2V42z M10.5,34h5c0.3,0,0.5-0.2,0.5-0.5S15.8,33,15.5,33h-5
	c-0.3,0-0.5,0.2-0.5,0.5S10.2,34,10.5,34z M37.5,32h-13c-0.3,0-0.5,0.2-0.5,0.5s0.2,0.5,0.5,0.5h13c0.3,0,0.5-0.2,0.5-0.5
	S37.8,32,37.5,32z M37.5,20h-13c-0.3,0-0.5,0.2-0.5,0.5s0.2,0.5,0.5,0.5h13c0.3,0,0.5-0.2,0.5-0.5S37.8,20,37.5,20z M37.5,26h-13
	c-0.3,0-0.5,0.2-0.5,0.5s0.2,0.5,0.5,0.5h13c0.3,0,0.5-0.2,0.5-0.5S37.8,26,37.5,26z"/>
</svg>
