<?xml version="1.0" encoding="utf-8"?>
<!-- Generator: Adobe Illustrator 21.0.0, SVG Export Plug-In . SVG Version: 6.00 Build 0)  -->
<svg version="1.1" id="图层_1" xmlns="http://www.w3.org/2000/svg" xmlns:xlink="http://www.w3.org/1999/xlink" x="0px" y="0px"
	 viewBox="0 0 48 48" style="enable-background:new 0 0 48 48;" xml:space="preserve">
<style type="text/css">
	.st0{fill:#060001;}
	.st1{fill:#040000;}
	.st2{fill:none;stroke:#000000;stroke-miterlimit:10;}
	.st3{fill:#221815;}
	.st4{fill:#080102;}
	.st5{fill:#070001;}
</style>
<path class="st0" d="M7,14c-0.6,0-1,0.4-1,1c0,0.6,0.4,1,1,1s1-0.4,1-1C8,14.4,7.6,14,7,14z M40,41H8c-0.6,0-1,0.4-1,1s0.4,1,1,1h32
	c0.6,0,1-0.4,1-1S40.6,41,40,41z M43,5H5C3.3,5,2,6.3,2,8v26c0,1.7,1.3,3,3,3h38c1.7,0,3-1.3,3-3V8C46,6.3,44.7,5,43,5z M44,34
	c0,0.6-0.4,1-1,1H5c-0.6,0-1-0.4-1-1V8c0-0.6,0.4-1,1-1h38c0.6,0,1,0.4,1,1V34z M7,10c-0.6,0-1,0.4-1,1c0,0.6,0.4,1,1,1s1-0.4,1-1
	C8,10.4,7.6,10,7,10z M31,16c-1-2.9-3.7-5-7-5s-6,2.1-7,5c-3.7,0.4-6.5,3.6-6.5,7.5c0,4.1,3.3,7.5,7.4,7.5h12.3
	c4.1,0,7.4-3.4,7.4-7.5C37.5,19.6,34.6,16.5,31,16z M30.1,29.8H17.9c-3.4,0-6.2-2.8-6.2-6.3c0-3.2,2.4-5.9,5.5-6.3
	c0.4,0,0.8-0.4,1-0.8c0.9-2.5,3.2-4.3,5.9-4.3c2.6,0,5,1.7,5.9,4.3c0.1,0.4,0.5,0.7,1,0.8c3.1,0.4,5.5,3.1,5.5,6.3
	C36.3,27,33.6,29.8,30.1,29.8z"/>
</svg>
