<?xml version="1.0" encoding="utf-8"?>
<!-- Generator: Adobe Illustrator 21.0.0, SVG Export Plug-In . SVG Version: 6.00 Build 0)  -->
<svg version="1.1" id="图层_1" xmlns="http://www.w3.org/2000/svg" xmlns:xlink="http://www.w3.org/1999/xlink" x="0px" y="0px"
	 viewBox="0 0 48 48" style="enable-background:new 0 0 48 48;" xml:space="preserve">
<style type="text/css">
	.st0{fill:#080103;}
</style>
<path class="st0" d="M18,32h-0.8c-0.7,0-1.2-0.5-1.2-1.2V17.2c0-0.7,0.5-1.2,1.2-1.2H22c0.3,0,0.5-0.2,0.5-0.5S22.3,15,22,15h-4.8
	C16,15,15,16,15,17.2v13.6c0,1.2,1,2.2,2.2,2.2H18c0.3,0,0.5-0.2,0.5-0.5S18.2,32,18,32z M29.5,23.3C29.4,23.1,29.2,23,29,23h-8.4
	l8.2-9.7c0.2-0.2,0.2-0.5-0.1-0.7c-0.2-0.2-0.5-0.2-0.7,0.1l-8.9,10.5c-0.1,0.1-0.2,0.4-0.1,0.5c0.1,0.2,0.3,0.3,0.5,0.3h8.4
	l-9.3,10.7c-0.2,0.2-0.2,0.5,0,0.7c0.1,0.1,0.2,0.1,0.3,0.1c0.1,0,0.3-0.1,0.4-0.2l10-11.5C29.5,23.7,29.5,23.5,29.5,23.3z M43.1,25
	c0.5,0,0.9-0.4,0.9-1s-0.4-1-0.9-1H40v-5h3.1c0.5,0,0.9-0.4,0.9-1s-0.4-1-0.9-1H40v-4c0-2.2-1.8-4-4-4h-4V4.9C32,4.4,31.6,4,31,4
	s-1,0.4-1,0.9V8h-5V4.9C25,4.4,24.6,4,24,4s-1,0.4-1,0.9V8h-5V4.9C18,4.4,17.6,4,17,4s-1,0.4-1,0.9V8h-4c-2.2,0-4,1.8-4,4v4H4.9
	C4.4,16,4,16.4,4,17s0.4,1,0.9,1H8v5H4.9C4.4,23,4,23.4,4,24s0.4,1,0.9,1H8v5H4.9C4.4,30,4,30.4,4,31s0.4,1,0.9,1H8v4
	c0,2.2,1.8,4,4,4h4v3.1c0,0.5,0.4,0.9,1,0.9s1-0.4,1-0.9V40h5v3.1c0,0.5,0.4,0.9,1,0.9s1-0.4,1-0.9V40h5v3.1c0,0.5,0.4,0.9,1,0.9
	s1-0.4,1-0.9V40h4c2.2,0,4-1.8,4-4v-4h3.1c0.5,0,0.9-0.4,0.9-1s-0.4-1-0.9-1H40v-5H43.1z M38,36c0,1.1-0.9,2-2,2H12
	c-1.1,0-2-0.9-2-2V12c0-1.1,0.9-2,2-2h24c1.1,0,2,0.9,2,2V36z M30.8,15H30c-0.3,0-0.5,0.2-0.5,0.5S29.7,16,30,16h0.7
	c0.7,0,1.2,0.5,1.2,1.2v13.6c0,0.7-0.5,1.2-1.2,1.2H25c-0.3,0-0.5,0.2-0.5,0.5S24.7,33,25,33h5.8c1.2,0,2.2-1,2.2-2.2V17.2
	C33,16,32,15,30.8,15z"/>
</svg>
