<svg id="图层_1" data-name="图层 1" xmlns="http://www.w3.org/2000/svg" viewBox="0 0 44 32"><title>FCS</title><path d="M45.9,26.92a.61.61,0,0,0-.1-.4c0-.29-.1-.5-.1-.79s-.1-.3-.1-.5a6.63,6.63,0,0,1-.2-.71c0-.2-.1-.29-.2-.5s-.1-.39-.2-.6a.77.77,0,0,0-.1-.29,2,2,0,0,0-.3-.5c-.1-.21-.2-.3-.3-.5s-.2-.3-.3-.5-.2-.3-.3-.5-.2-.3-.3-.4a.75.75,0,0,0-.4-.4c-.1-.1-.2-.3-.4-.4l-.4-.4a1.38,1.38,0,0,0-.4-.3c-.2-.1-.3-.3-.5-.4a1.38,1.38,0,0,0-.4-.3,2.18,2.18,0,0,1-.5-.4c-.1-.1-.2-.1-.4-.2a2.09,2.09,0,0,1-.6-.4c-.1-.1-.2-.1-.3-.2s-.5-.2-.7-.3-.1,0-.2-.1a16.66,16.66,0,0,0-3-.8h0a11.71,11.71,0,0,0-11.2-8,11.89,11.89,0,0,0-11.3,8.1A12,12,0,0,0,14,40.13H34a12,12,0,0,0,12-12A5,5,0,0,0,45.9,26.92ZM14,38.13a10,10,0,0,1-10-10,9.88,9.88,0,0,1,8.9-9.9l1.3-.1.4-1.21a10,10,0,0,1,9.4-6.7,10.12,10.12,0,0,1,9.2,6A12,12,0,0,0,22,28.13a11.76,11.76,0,0,0,5.4,10ZM43.2,32a9.77,9.77,0,0,1-2.1,3.2c-.2.2-.5.41-.7.6a9.06,9.06,0,0,1-1.6,1.1,9.5,9.5,0,0,1-4.8,1.2,10,10,0,0,1,0-20h1.2l1.5.3c.1,0,.2.1.3.1s.1,0,.2.1c.3.1.5.2.8.3h.1a5.94,5.94,0,0,1,.8.4h0a9.55,9.55,0,0,1,2.9,2.4h0a3,3,0,0,1,.5.7v.1a2.51,2.51,0,0,1,.4.7.1.1,0,0,0,.1.1c.1.2.2.5.3.7s.1.1.1.2.2.5.3.7a.39.39,0,0,0,.1.21,5.78,5.78,0,0,1,.2.7.37.37,0,0,0,.1.3c0,.2.1.5.1.7v.3c0,.29.1.7.1,1A12.3,12.3,0,0,1,43.2,32Zm-5.6-7.39a3.84,3.84,0,0,0-7.2,0,3.76,3.76,0,0,0,.4,7.5h6.4a3.76,3.76,0,0,0,.4-7.5Zm-.4,6.5H30.8a2.76,2.76,0,0,1-.3-5.5l.6-.11.2-.6A2.93,2.93,0,0,1,34,23a2.8,2.8,0,0,1,2.7,1.9l.2.6.6.11a2.76,2.76,0,0,1-.3,5.5Z" transform="translate(-2 -8.13)"/></svg>