<svg id="图层_1" data-name="图层 1" xmlns="http://www.w3.org/2000/svg" viewBox="0 0 40 44"><defs><style>.cls-1{fill:#040000;}</style></defs><title>for lnflux</title><path class="cls-1" d="M35.72,38h4L27.3,45.2A7.31,7.31,0,0,1,24,46a7.1,7.1,0,0,1-3.07-.68l-.23-.12L8.24,38h4l9.45,5.5A5.21,5.21,0,0,0,24,44a4.73,4.73,0,0,0,2-.41l.16-.09ZM44,16a7,7,0,0,0-3.2-5.37L27.3,2.8,27,2.66A7.16,7.16,0,0,0,24,2a7.31,7.31,0,0,0-3.3.8L7.2,10.6,7,10.71A7,7,0,0,0,4,16.2V28H6V16A5.25,5.25,0,0,1,8.3,12.3L21.8,4.5,22,4.41A4.73,4.73,0,0,1,24,4a5.21,5.21,0,0,1,2.3.5l13.5,7.8.16.1a5.23,5.23,0,0,1,2.14,3.8L42,28h2V16ZM10.44,36.59v-3H7.62v.61H9.78v2.06a4.78,4.78,0,0,1-1,.3,5.51,5.51,0,0,1-1,.11A3,3,0,0,1,6,36.21,2.65,2.65,0,0,1,5,35a4.35,4.35,0,0,1-.33-1.74,4.19,4.19,0,0,1,.41-1.92,2.88,2.88,0,0,1,1.13-1.21,3.35,3.35,0,0,1,1.66-.41,3.9,3.9,0,0,1,1.1.15,5.35,5.35,0,0,1,1,.41l.25-.56a5.33,5.33,0,0,0-1.12-.44,4.83,4.83,0,0,0-1.28-.16,4,4,0,0,0-2,.49A3.32,3.32,0,0,0,4.5,31,4.71,4.71,0,0,0,4,33.26a4.89,4.89,0,0,0,.42,2.08,3.17,3.17,0,0,0,1.26,1.4,3.74,3.74,0,0,0,2,.51,6.31,6.31,0,0,0,1.41-.17A6.56,6.56,0,0,0,10.44,36.59Zm4.67-2.79v-.24a2,2,0,0,0-.39-1.42,1.41,1.41,0,0,0-1.1-.41,3.74,3.74,0,0,0-.91.12,4.82,4.82,0,0,0-.8.3l-.14-.52a4.19,4.19,0,0,1,.83-.31,4.44,4.44,0,0,1,1.11-.14,2.45,2.45,0,0,1,1.1.23,1.59,1.59,0,0,1,.7.78,3.48,3.48,0,0,1,.25,1.46V36c0,.24,0,.61,0,1.11h-.58c0-.1,0-.23-.05-.4s0-.32,0-.44a2.86,2.86,0,0,1-.9.67,2.58,2.58,0,0,1-1.2.28,2.21,2.21,0,0,1-.91-.19,1.46,1.46,0,0,1-.61-.57,1.83,1.83,0,0,1-.22-.91,1.69,1.69,0,0,1,.61-1.35,3.12,3.12,0,0,1,2-.51A8.39,8.39,0,0,1,15.11,33.8Zm0,.47A8.32,8.32,0,0,0,14,34.19a2.49,2.49,0,0,0-1.57.38,1.2,1.2,0,0,0-.44,1,1.09,1.09,0,0,0,.31.86,1.25,1.25,0,0,0,.86.28,2.31,2.31,0,0,0,.77-.13,2.7,2.7,0,0,0,.7-.35,2,2,0,0,0,.49-.46Zm1.92-3V35a2.67,2.67,0,0,0,.43,1.67,1.57,1.57,0,0,0,1.33.56A2.3,2.3,0,0,0,19.94,37a4.3,4.3,0,0,0,1-.73c0,.46.08.76.11.9h.56c0-.58-.05-1.07-.05-1.48V31.3H20.9v4.35a3.89,3.89,0,0,1-.92.74,2.05,2.05,0,0,1-1.06.3,1.11,1.11,0,0,1-.93-.41A2,2,0,0,1,17.67,35V31.3Zm7,5.4a3.61,3.61,0,0,1-.79-.09,3.1,3.1,0,0,1-.69-.25l-.18.54a4,4,0,0,0,.74.25,3.65,3.65,0,0,0,.88.1A2.89,2.89,0,0,0,25.14,37a1.73,1.73,0,0,0,.72-.61,1.68,1.68,0,0,0,.24-.9,1.42,1.42,0,0,0-.21-.8,1.58,1.58,0,0,0-.53-.5,7.55,7.55,0,0,0-.89-.43c-.36-.15-.63-.28-.81-.37a1.19,1.19,0,0,1-.42-.33.69.69,0,0,1-.16-.47A.81.81,0,0,1,23.4,32a1.47,1.47,0,0,1,.91-.24,3.09,3.09,0,0,1,1.45.37l.15-.52a3.81,3.81,0,0,0-1.63-.39,2.27,2.27,0,0,0-1,.19,1.28,1.28,0,0,0-.62.52,1.42,1.42,0,0,0-.21.78,1.39,1.39,0,0,0,.17.7,1.63,1.63,0,0,0,.51.5,5.57,5.57,0,0,0,.88.43c.37.16.66.28.85.39a1.34,1.34,0,0,1,.46.37.9.9,0,0,1,.16.53,1,1,0,0,1-.38.81A1.71,1.71,0,0,1,24,36.7Zm4,0a3.61,3.61,0,0,1-.79-.09,3.1,3.1,0,0,1-.69-.25l-.18.54a4,4,0,0,0,.74.25,3.68,3.68,0,0,0,.89.1A2.88,2.88,0,0,0,29.14,37a1.73,1.73,0,0,0,.72-.61,1.68,1.68,0,0,0,.24-.9,1.42,1.42,0,0,0-.21-.8,1.58,1.58,0,0,0-.53-.5,7.55,7.55,0,0,0-.89-.43c-.36-.15-.63-.28-.81-.37a1.19,1.19,0,0,1-.42-.33.69.69,0,0,1-.16-.47A.81.81,0,0,1,27.4,32a1.47,1.47,0,0,1,.91-.24,3.06,3.06,0,0,1,1.45.37l.15-.52a3.81,3.81,0,0,0-1.63-.39,2.27,2.27,0,0,0-1,.19,1.28,1.28,0,0,0-.62.52,1.42,1.42,0,0,0-.21.78,1.39,1.39,0,0,0,.17.7,1.63,1.63,0,0,0,.51.5,5.57,5.57,0,0,0,.88.43c.37.16.66.28.85.39a1.34,1.34,0,0,1,.46.37.9.9,0,0,1,.16.53,1,1,0,0,1-.38.81A1.71,1.71,0,0,1,28,36.7ZM31,29.23h2.59a5.22,5.22,0,0,1,2.19.42,3,3,0,0,1,1.39,1.25,4,4,0,0,1,.48,2,4.55,4.55,0,0,1-.5,2.18,3.61,3.61,0,0,1-1.45,1.5,4.37,4.37,0,0,1-2.22.54H31Zm1.36,6.83h1a3,3,0,0,0,1.57-.39,2.45,2.45,0,0,0,1-1.1,3.66,3.66,0,0,0,.33-1.6,2.65,2.65,0,0,0-.7-2,2.85,2.85,0,0,0-2.07-.68H32.32Zm11.39-2.15a2,2,0,0,1,.24,1,2.11,2.11,0,0,1-.33,1.17,2.16,2.16,0,0,1-1,.79,3.85,3.85,0,0,1-1.52.28H38.57V29.23H41a3.06,3.06,0,0,1,1.88.48,1.6,1.6,0,0,1,.62,1.34,1.71,1.71,0,0,1-.4,1.17,2.07,2.07,0,0,1-1,.67,2.5,2.5,0,0,1,1,.34A1.87,1.87,0,0,1,43.71,33.91ZM39.9,32.46h.85a1.54,1.54,0,0,0,.75-.17,1.28,1.28,0,0,0,.5-.45,1.24,1.24,0,0,0,.17-.63.83.83,0,0,0-.35-.73,1.79,1.79,0,0,0-1-.24h-.9Zm2.7,2.36a1.16,1.16,0,0,0-.46-1,2.18,2.18,0,0,0-1.32-.35H39.9v2.66h1a1.92,1.92,0,0,0,1.26-.34A1.18,1.18,0,0,0,42.6,34.82Zm-10-13.22h0a2.42,2.42,0,0,1-.58.8L27,26.8a2.4,2.4,0,0,1-1.58.59,2.36,2.36,0,0,1-.78-.13l-6.32-2.18a2.4,2.4,0,0,1-1.58-1.81L15.46,16.7a2.41,2.41,0,0,1,.79-2.27L21.3,10a2.39,2.39,0,0,1,2.35-.45L30,11.76a2.41,2.41,0,0,1,1.57,1.82l1.28,6.56A2.35,2.35,0,0,1,32.63,21.6Zm-1.86-7.87c0-.09-.06-.18-.09-.27l-4.42.73,1.46,8.34L32,21a1.46,1.46,0,0,0,0-.69ZM20,20.22l6.93,2.32v-.06l-1.36-7.79Zm2.92-10h-.1l3.16,3.17,4.2-.7a1.47,1.47,0,0,0-.41-.22l-6.33-2.18A1.53,1.53,0,0,0,22.87,10.26ZM16.77,15a1.54,1.54,0,0,0-.47.74l3,4,6-5.92-3.29-3.29-.12.08ZM17.5,23l1.26-2.51-2.38-3.21Zm8,3.61,1.12-3.28-7.21-2.41-1.49,3a1.67,1.67,0,0,0,.66.44L24.9,26.5A1.55,1.55,0,0,0,25.5,26.57Zm5.63-4.42L27.4,23.5l-.92,2.7Z" transform="translate(-4 -2)"/></svg>