<?xml version="1.0" encoding="utf-8"?>
<!-- Generator: Adobe Illustrator 21.0.0, SVG Export Plug-In . SVG Version: 6.00 Build 0)  -->
<svg version="1.1" id="图层_1" xmlns="http://www.w3.org/2000/svg" xmlns:xlink="http://www.w3.org/1999/xlink" x="0px" y="0px"
	 viewBox="0 0 48 48" style="enable-background:new 0 0 48 48;" xml:space="preserve">
<path d="M45.9,26.8c0-0.1,0-0.3-0.1-0.4c0-0.3-0.1-0.5-0.1-0.8c0-0.2-0.1-0.3-0.1-0.5c-0.1-0.2-0.1-0.4-0.2-0.7
	c0-0.2-0.1-0.3-0.2-0.5c-0.1-0.2-0.1-0.4-0.2-0.6C45,23.3,45,23.2,44.9,23c-0.1-0.2-0.2-0.4-0.3-0.5c-0.1-0.2-0.2-0.3-0.3-0.5
	c-0.1-0.2-0.2-0.3-0.3-0.5c-0.1-0.2-0.2-0.3-0.3-0.5c-0.1-0.1-0.2-0.3-0.3-0.4c-0.1-0.2-0.2-0.3-0.4-0.4c-0.1-0.1-0.2-0.3-0.4-0.4
	c-0.1-0.1-0.3-0.3-0.4-0.4c-0.1-0.1-0.2-0.2-0.4-0.3c-0.2-0.1-0.3-0.3-0.5-0.4c-0.1-0.1-0.2-0.2-0.4-0.3c-0.2-0.1-0.4-0.3-0.5-0.4
	c-0.1-0.1-0.2-0.1-0.4-0.2c-0.2-0.1-0.4-0.2-0.6-0.4c-0.1-0.1-0.2-0.1-0.3-0.2c-0.2-0.1-0.5-0.2-0.7-0.3c-0.1,0-0.1,0-0.2-0.1
	c-1-0.4-2-0.6-3-0.8c0,0,0,0,0,0C33.7,11.4,29.3,8,24,8s-9.7,3.4-11.3,8.1C6.7,16.7,2,21.8,2,28c0,6.6,5.4,12,12,12h20
	c6.6,0,12-5.4,12-12C46,27.6,46,27.2,45.9,26.8z M14,38C8.5,38,4,33.5,4,28c0-5.1,3.8-9.4,8.9-9.9l1.3-0.1l0.4-1.2
	c1.4-4,5.2-6.7,9.4-6.7c4,0,7.6,2.4,9.2,6C26.9,16.5,22,21.7,22,28c0,4.2,2.1,7.9,5.4,10H14z M43.2,31.9c-0.5,1.2-1.2,2.3-2.1,3.2
	c-0.2,0.2-0.5,0.4-0.7,0.6c-0.5,0.4-1,0.8-1.6,1.1c-1.4,0.8-3,1.2-4.8,1.2c-5.5,0-10-4.5-10-10c0-5.5,4.5-10,10-10c0.3,0,0.6,0,1,0
	l0.2,0c0.5,0.1,1,0.2,1.5,0.3c0.1,0,0.2,0.1,0.3,0.1c0.1,0,0.1,0,0.2,0.1c0.3,0.1,0.5,0.2,0.8,0.3c0,0,0,0,0.1,0
	c0.3,0.1,0.6,0.3,0.8,0.4c0,0,0,0,0,0c1.1,0.6,2.1,1.4,2.9,2.4c0,0,0,0,0,0c0.2,0.2,0.4,0.5,0.5,0.7c0,0,0,0,0,0.1
	c0.2,0.2,0.3,0.5,0.4,0.7c0,0,0,0.1,0.1,0.1c0.1,0.2,0.2,0.5,0.3,0.7c0,0.1,0.1,0.1,0.1,0.2c0.1,0.2,0.2,0.5,0.3,0.7
	c0,0.1,0.1,0.2,0.1,0.2c0.1,0.2,0.1,0.4,0.2,0.7c0,0.1,0,0.2,0.1,0.3c0,0.2,0.1,0.5,0.1,0.7c0,0.1,0,0.2,0,0.3c0,0.3,0.1,0.7,0.1,1
	C44,29.4,43.7,30.7,43.2,31.9z M37.6,24.5C37.1,23.1,35.7,22,34,22c-1.7,0-3.1,1.1-3.6,2.5c-1.9,0.2-3.4,1.8-3.4,3.7
	c0,2.1,1.7,3.8,3.8,3.8h6.4c2.1,0,3.8-1.7,3.8-3.8C41,26.3,39.5,24.7,37.6,24.5z M37.2,31h-6.4c-1.6,0-2.8-1.2-2.8-2.8
	c0-1.4,1.1-2.6,2.5-2.7l0.6-0.1l0.2-0.6c0.4-1.1,1.5-1.9,2.7-1.9s2.3,0.7,2.7,1.9l0.2,0.6l0.6,0.1c1.4,0.2,2.5,1.3,2.5,2.7
	C40,29.8,38.7,31,37.2,31z"/>
</svg>
