<?xml version="1.0" encoding="utf-8"?>
<!-- Generator: Adobe Illustrator 21.0.0, SVG Export Plug-In . SVG Version: 6.00 Build 0)  -->
<svg version="1.1" id="图层_1" xmlns="http://www.w3.org/2000/svg" xmlns:xlink="http://www.w3.org/1999/xlink" x="0px" y="0px"
	 viewBox="0 0 48 48" style="enable-background:new 0 0 48 48;" xml:space="preserve">
<style type="text/css">
	.st0{fill:#040000;}
</style>
<path class="st0" d="M25,23.1C25,23.1,25,23,25,23.1V5c0-0.6-0.4-1-1-1s-1,0.4-1,1v18v0.1c-2.8,0.5-5,2.9-5,5.9c0,3.3,2.7,6,6,6
	s6-2.7,6-6C30,26,27.8,23.6,25,23.1z M24,33c-2.2,0-4-1.8-4-4s1.8-4,4-4s4,1.8,4,4S26.2,33,24,33z M8,10c0.6,0,1-0.4,1-1V5
	c0-0.6-0.4-1-1-1S7,4.4,7,5v4C7,9.6,7.4,10,8,10z M40,10c0.6,0,1-0.4,1-1V5c0-0.6-0.4-1-1-1s-1,0.4-1,1v4C39,9.6,39.4,10,40,10z
	 M46,19c0-3.3-2.7-6-6-6s-6,2.7-6,6c0,3,2.2,5.4,5,5.9V25v18c0,0.6,0.4,1,1,1s1-0.4,1-1V25v-0.1C43.8,24.4,46,22,46,19z M40,23
	c-2.2,0-4-1.8-4-4s1.8-4,4-4s4,1.8,4,4S42.2,23,40,23z M24,38c-0.6,0-1,0.4-1,1v4c0,0.6,0.4,1,1,1s1-0.4,1-1v-4
	C25,38.4,24.6,38,24,38z M8,13c-3.3,0-6,2.7-6,6c0,3,2.2,5.4,5,5.9V25v18c0,0.6,0.4,1,1,1s1-0.4,1-1V25v-0.1c2.8-0.5,5-2.9,5-5.9
	C14,15.7,11.3,13,8,13z M8,23c-2.2,0-4-1.8-4-4s1.8-4,4-4s4,1.8,4,4S10.2,23,8,23z"/>
</svg>
