<svg id="图层_1" data-name="图层 1" xmlns="http://www.w3.org/2000/svg" width="40" height="44" viewBox="0 0 40 44"><defs><style>.cls-1{fill:#040000;}</style></defs><title>GaussDB-Mongo</title><path class="cls-1" d="M24,9h-.61A9,9,0,1,0,24,27.07h.62A9,9,0,1,0,24,9Zm-8.32,9h0a8.38,8.38,0,0,1,8-8.35,5.41,5.41,0,0,1,3.9,1.65,7,7,0,0,1,2.12,4.92c0,2.33-1.09,5.07-3.49,5.82A3.63,3.63,0,0,1,25,22a5,5,0,0,0,2.19-4,5.29,5.29,0,0,0-1.91-4,3.8,3.8,0,0,0-3.36-.83c-2.74.69-4,3.91-4,6.51a7.69,7.69,0,0,0,3.5,6.09A8,8,0,0,1,15.68,18Zm9.08-3.42a4.49,4.49,0,0,1,1.64,3.49c0,1.44-.68,2.6-2.26,3.77a3,3,0,0,1-.75-.48,4.46,4.46,0,0,1-1.64-3.49A4.32,4.32,0,0,1,24,14.06a6.19,6.19,0,0,0,.79.55Zm-.11,11.74,0,0c-2.74,0-6.09-2.95-6.16-6.51,0-2.39,1.1-5.27,3.49-5.88a2.91,2.91,0,0,1,1.1-.07,4.91,4.91,0,0,0-2.06,4,5.42,5.42,0,0,0,1.92,4,4,4,0,0,0,2.53.89,2.36,2.36,0,0,0,.75-.07h.07c2.74-.89,4-3.9,4-6.51a7.27,7.27,0,0,0-2.32-5.4c-.07-.07-.21-.14-.28-.28A8.28,8.28,0,0,1,32.25,18,8.15,8.15,0,0,1,24.65,26.32ZM9.09,37.07a6,6,0,0,1-1.41.17,3.8,3.8,0,0,1-2-.51h0a3.22,3.22,0,0,1-1.26-1.4A4.93,4.93,0,0,1,4,33.26,4.79,4.79,0,0,1,4.5,31a3.38,3.38,0,0,1,1.38-1.42,4,4,0,0,1,2-.49,5,5,0,0,1,1.28.16,6.32,6.32,0,0,1,1.12.43l-.28.6a5.13,5.13,0,0,0-1-.41,4.11,4.11,0,0,0-1.1-.15,3.32,3.32,0,0,0-1.66.41,2.81,2.81,0,0,0-1.13,1.21,4.22,4.22,0,0,0-.41,1.91A4.36,4.36,0,0,0,5,35a2.58,2.58,0,0,0,1,1.21,3,3,0,0,0,1.71.45,5.57,5.57,0,0,0,1-.11,4.43,4.43,0,0,0,1-.3V34.19H7.62v-.61h2.82v3A6.41,6.41,0,0,1,9.09,37.07ZM44,16V28H42l.08-11.8A5.23,5.23,0,0,0,40,12.4l-.16-.1L26.3,4.5A5.21,5.21,0,0,0,24,4a4.75,4.75,0,0,0-2,.41l-.16.09L8.3,12.3A5.25,5.25,0,0,0,6,16V28H4V16.2a7,7,0,0,1,3-5.49l.2-.11L20.7,2.8A7.18,7.18,0,0,1,27,2.66l.3.14,13.5,7.8A7,7,0,0,1,44,16ZM35.72,38h4L27.3,45.2A7.27,7.27,0,0,1,24,46a7.09,7.09,0,0,1-3.07-.68l-.23-.12L8.24,38h4l9.45,5.5A5.25,5.25,0,0,0,24,44a4.75,4.75,0,0,0,2-.41l.16-.09ZM15.13,33.8a9.39,9.39,0,0,0-1.19-.08,3.15,3.15,0,0,0-2,.51,1.7,1.7,0,0,0-.61,1.35,1.8,1.8,0,0,0,.22.91,1.46,1.46,0,0,0,.61.57,2.22,2.22,0,0,0,.91.19,2.49,2.49,0,0,0,1.2-.28,2.83,2.83,0,0,0,.9-.67,1.23,1.23,0,0,0,0,.43,1.4,1.4,0,0,1,.05.41l.56,0V33.65a3.46,3.46,0,0,0-.25-1.46,1.57,1.57,0,0,0-.7-.78,2.44,2.44,0,0,0-1.1-.23,4.63,4.63,0,0,0-1.11.14,4.15,4.15,0,0,0-.83.31l.14.52a6,6,0,0,1,.8-.3,4,4,0,0,1,.91-.13,1.45,1.45,0,0,1,1.1.42,2,2,0,0,1,.39,1.42Zm0,2a2,2,0,0,1-.49.46,2.55,2.55,0,0,1-.7.35h0a2.27,2.27,0,0,1-.77.13,1.22,1.22,0,0,1-.86-.28,1.1,1.1,0,0,1-.31-.86,1.2,1.2,0,0,1,.44-1A2.49,2.49,0,0,1,14,34.19a8.29,8.29,0,0,1,1.11.08Zm2.3.93h.05A2.68,2.68,0,0,1,17,35V31.3h.64V35A2,2,0,0,0,18,36.28a1.11,1.11,0,0,0,.93.41,2.07,2.07,0,0,0,1.06-.3,4.1,4.1,0,0,0,.92-.74V31.3h.64v4.36c0,.41,0,.9.05,1.48H21c0-.14-.06-.44-.11-.9a4.21,4.21,0,0,1-1,.73,2.3,2.3,0,0,1-1.15.28A1.58,1.58,0,0,1,17.41,36.69Zm7.7-.29a1,1,0,0,0,.38-.81.78.78,0,0,0-.17-.53,1.15,1.15,0,0,0-.45-.37c-.19-.1-.48-.23-.85-.39a6,6,0,0,1-.88-.43,1.74,1.74,0,0,1-.51-.5,1.54,1.54,0,0,1,0-1.48,1.26,1.26,0,0,1,.62-.52,2.47,2.47,0,0,1,1-.19,3.83,3.83,0,0,1,1.63.39l-.15.52a3,3,0,0,0-1.45-.37,1.42,1.42,0,0,0-.91.25.76.76,0,0,0-.32.65.67.67,0,0,0,.16.47,1.23,1.23,0,0,0,.42.33c.18.09.45.22.81.37a7.16,7.16,0,0,1,.88.43,1.52,1.52,0,0,1,.54.5,1.41,1.41,0,0,1,.21.8,1.56,1.56,0,0,1-1,1.51,2.65,2.65,0,0,1-1.15.22,3.71,3.71,0,0,1-.88-.1h0a4,4,0,0,1-.74-.25l.18-.54a3.35,3.35,0,0,0,.69.25,3.55,3.55,0,0,0,.79.09A1.69,1.69,0,0,0,25.11,36.4Zm4,0a1,1,0,0,0,.38-.81.92.92,0,0,0-.16-.53,1.28,1.28,0,0,0-.46-.37c-.19-.1-.48-.23-.85-.39a6,6,0,0,1-.88-.43,1.74,1.74,0,0,1-.51-.5,1.54,1.54,0,0,1,0-1.48,1.26,1.26,0,0,1,.62-.52,2.47,2.47,0,0,1,1-.19,3.83,3.83,0,0,1,1.63.39l-.15.52a3,3,0,0,0-1.45-.37,1.42,1.42,0,0,0-.91.25.76.76,0,0,0-.32.65.67.67,0,0,0,.16.47,1.23,1.23,0,0,0,.42.33c.18.09.45.22.81.37a7.29,7.29,0,0,1,.89.43,1.49,1.49,0,0,1,.53.5,1.41,1.41,0,0,1,.21.8,1.56,1.56,0,0,1-1,1.51,2.65,2.65,0,0,1-1.15.22,3.71,3.71,0,0,1-.88-.1h0a4,4,0,0,1-.74-.25l.18-.54a3.35,3.35,0,0,0,.69.25,3.55,3.55,0,0,0,.79.09A1.69,1.69,0,0,0,29.11,36.4Zm4.37.72a4.4,4.4,0,0,0,2.22-.54,3.61,3.61,0,0,0,1.45-1.5,4.45,4.45,0,0,0,.5-2.18,4,4,0,0,0-.48-2,3,3,0,0,0-1.39-1.25,5.15,5.15,0,0,0-2.19-.42H31v7.89Zm-1.16-6.83h1.16a2.89,2.89,0,0,1,2.07.68,2.64,2.64,0,0,1,.7,2,3.67,3.67,0,0,1-.33,1.6,2.42,2.42,0,0,1-1,1.1,3,3,0,0,1-1.57.39h-1Zm10.73,2.94h.05a2.53,2.53,0,0,0-1-.34,2.07,2.07,0,0,0,1-.67,1.67,1.67,0,0,0,.4-1.17,1.59,1.59,0,0,0-.62-1.34A3.05,3.05,0,0,0,41,29.23H38.57v7.92H41.1a3.6,3.6,0,0,0,1.52-.28,2.16,2.16,0,0,0,1-.79A2,2,0,0,0,44,34.91a2,2,0,0,0-.24-1A1.87,1.87,0,0,0,43.05,33.23Zm-3.13-3h.9a1.83,1.83,0,0,1,1,.24.82.82,0,0,1,.35.73,1.18,1.18,0,0,1-.18.63,1.25,1.25,0,0,1-.49.45,1.5,1.5,0,0,1-.75.17H39.9Zm2.26,5.55,0,0a2,2,0,0,1-1.26.34h-1V33.44h.91a2.15,2.15,0,0,1,1.33.35,1.15,1.15,0,0,1,.46,1A1.17,1.17,0,0,1,42.18,35.79Z" transform="translate(-4 -2)"/></svg>