<svg id="图层_1" data-name="图层 1" xmlns="http://www.w3.org/2000/svg" viewBox="0 0 40 44"><defs><style>.cls-1{fill:#040000;}</style></defs><title>GaussDB-for MySQL</title><path class="cls-1" d="M15.31,17.56a.39.39,0,0,1,.41.41.39.39,0,0,1-.41.41A.39.39,0,0,1,14.9,18a.38.38,0,0,1,.41-.41M44,16a7,7,0,0,0-3.2-5.37L27.3,2.8,27,2.66A7.16,7.16,0,0,0,24,2a7.31,7.31,0,0,0-3.3.8L7.2,10.6,7,10.71A7,7,0,0,0,4,16.2V28H6V16A5.25,5.25,0,0,1,8.3,12.3L21.8,4.5,22,4.41A4.73,4.73,0,0,1,24,4a5.21,5.21,0,0,1,2.3.5l13.5,7.8.16.1a5.23,5.23,0,0,1,2.14,3.8L42,28h2V16ZM35.72,38h4L27.3,45.2A7.31,7.31,0,0,1,24,46a7.1,7.1,0,0,1-3.07-.68l-.23-.12L8.24,38h4l9.45,5.5A5.21,5.21,0,0,0,24,44a4.73,4.73,0,0,0,2-.41l.16-.09ZM12.27,19.53a1.58,1.58,0,0,0-.17,1.4,1,1,0,0,0,.91.49,2.09,2.09,0,0,0,.9-.25c1.64-.82,3-1.39,3.78-1.72a4.39,4.39,0,0,0,.9.82,3.59,3.59,0,0,0,1.65.57h.24A1.09,1.09,0,0,0,21.55,20a1.17,1.17,0,0,0-.49-1.15c.65.08,1.56.17,2.71.33a6.9,6.9,0,0,1,3.69,1.89,14.85,14.85,0,0,1,1.89,2.14.28.28,0,0,0-.08.16,4.59,4.59,0,0,1-.57.74,4,4,0,0,0-.66,1c0,.09-.49,1.07,0,1.65a.75.75,0,0,0,.62.32h.12a1.52,1.52,0,0,0,1.15-.66A2.14,2.14,0,0,1,31,25.77a5,5,0,0,1,1.18-.24h.3c.24,0,.41,0,.41.08a2.91,2.91,0,0,0,1.06.24,1,1,0,0,0,1-.57c.16-.66-.49-1.23-.82-1.56a6,6,0,0,0-2.71-1.32,13.76,13.76,0,0,0-.66-2.71A13.53,13.53,0,0,0,29,16.57a13.09,13.09,0,0,0-3.54-3.12.65.65,0,0,1-.41-.49.91.91,0,0,1,.17-.58,1.71,1.71,0,0,0,.49-1.56c-.08-.33-.41-.82-1.31-.82h-.09a4,4,0,0,0-2.87,1.89.25.25,0,0,0-.08.16.37.37,0,0,1-.25.09c-.41.08-1,.24-1.89.49a11.36,11.36,0,0,0-5.59,3.53,3.67,3.67,0,0,0-.9,2.88l-.25.24C12.43,19.45,12.35,19.53,12.27,19.53Zm.57.66c0-.09.09-.09.17-.17a1.43,1.43,0,0,0,.49-.9,3.38,3.38,0,0,1,.82-2.38,10.66,10.66,0,0,1,5.18-3.29C20.4,13.2,21,13,21.39,13c.24-.08.41-.08.49-.17a3.8,3.8,0,0,1,.33-.49,3.22,3.22,0,0,1,2.11-1.56h.11a.63.63,0,0,1,.57.33c.08.08-.08.41-.33.66A1.71,1.71,0,0,0,24.34,13a1.64,1.64,0,0,0,.74,1.15,12.78,12.78,0,0,1,3.29,2.95A11.28,11.28,0,0,1,30,19.94a7.9,7.9,0,0,1,.58,2.79v.33h.32a4.43,4.43,0,0,1,2.55,1.15c.49.41.49.58.49.66s0,.24-.08.24a2.07,2.07,0,0,1-.74-.16,1.86,1.86,0,0,0-.74-.08,4.7,4.7,0,0,0-1.8.41,3.37,3.37,0,0,0-1.48,1c-.22.37-.38.41-.47.41h0a.08.08,0,0,1-.08-.09,2.13,2.13,0,0,1,.08-1,7.45,7.45,0,0,1,.58-.82,3.79,3.79,0,0,0,.66-.91,1.31,1.31,0,0,0,.24-.65v-.09l-.16-.24a13.88,13.88,0,0,0-2.05-2.3,7.91,7.91,0,0,0-4.11-2.06c-1.81-.24-3-.41-3.53-.41H20l-.33.08.08.42s.09.65.5.82c.24.16.41.33.41.49s-.25.16-.41.16h-.09a2.7,2.7,0,0,1-1.23-.41,2.47,2.47,0,0,1-.82-.82l-.16-.24-.33.08a26.53,26.53,0,0,0-4.19,1.89,3.53,3.53,0,0,1-.49.16c-.09,0-.17,0-.17-.08A.51.51,0,0,1,12.84,20.19ZM9.09,37.08a6.31,6.31,0,0,1-1.41.17,3.74,3.74,0,0,1-2-.51,3.17,3.17,0,0,1-1.26-1.4A4.89,4.89,0,0,1,4,33.26,4.71,4.71,0,0,1,4.5,31,3.4,3.4,0,0,1,5.88,29.6a4.12,4.12,0,0,1,2-.48,4.83,4.83,0,0,1,1.28.16,5.93,5.93,0,0,1,1.12.43l-.25.57a5.35,5.35,0,0,0-1-.41,3.9,3.9,0,0,0-1.1-.15,3.35,3.35,0,0,0-1.66.41,2.88,2.88,0,0,0-1.13,1.21,4.17,4.17,0,0,0-.41,1.91A4.37,4.37,0,0,0,5,35a2.59,2.59,0,0,0,1,1.21,3,3,0,0,0,1.71.45,5.51,5.51,0,0,0,1-.11,4.78,4.78,0,0,0,1-.3V34.19H7.62v-.61h2.82v3A6.56,6.56,0,0,1,9.09,37.08Zm4.83-3.36a3.12,3.12,0,0,0-2,.51,1.69,1.69,0,0,0-.61,1.35,1.83,1.83,0,0,0,.22.91,1.46,1.46,0,0,0,.61.57,2.21,2.21,0,0,0,.91.19,2.58,2.58,0,0,0,1.2-.28,2.86,2.86,0,0,0,.9-.67c0,.12,0,.26,0,.43s0,.31.05.41h.58c0-.5,0-.87,0-1.11V33.65a3.48,3.48,0,0,0-.25-1.46,1.59,1.59,0,0,0-.7-.78,2.45,2.45,0,0,0-1.1-.23,4.44,4.44,0,0,0-1.11.14,4.19,4.19,0,0,0-.83.31l.14.52a4.82,4.82,0,0,1,.8-.3,3.77,3.77,0,0,1,.91-.13,1.42,1.42,0,0,1,1.1.42,2,2,0,0,1,.39,1.42v.24A8.39,8.39,0,0,0,13.92,33.72Zm1.19,2a2,2,0,0,1-.49.46,2.7,2.7,0,0,1-.7.35,2.31,2.31,0,0,1-.77.13,1.25,1.25,0,0,1-.86-.28,1.09,1.09,0,0,1-.31-.86,1.19,1.19,0,0,1,.44-1A2.49,2.49,0,0,1,14,34.19a10.36,10.36,0,0,1,1.12.07Zm2.56-4.46V35A2,2,0,0,0,18,36.28a1.11,1.11,0,0,0,.93.41,2.05,2.05,0,0,0,1.06-.3,3.89,3.89,0,0,0,.92-.74V31.3h.64v4.36c0,.41,0,.9.05,1.48H21c0-.14-.06-.44-.11-.9a4.3,4.3,0,0,1-1,.73,2.3,2.3,0,0,1-1.15.28,1.57,1.57,0,0,1-1.33-.56A2.67,2.67,0,0,1,17,35V31.3Zm7.44,5.1a1,1,0,0,0,.38-.81.9.9,0,0,0-.16-.53,1.34,1.34,0,0,0-.46-.37c-.19-.11-.48-.23-.85-.39a5.57,5.57,0,0,1-.88-.43,1.63,1.63,0,0,1-.51-.5,1.54,1.54,0,0,1,0-1.48,1.28,1.28,0,0,1,.62-.52,2.27,2.27,0,0,1,1-.19,3.81,3.81,0,0,1,1.63.39l-.15.52a3.09,3.09,0,0,0-1.45-.37,1.47,1.47,0,0,0-.91.24.81.81,0,0,0-.32.66.69.69,0,0,0,.16.47,1.19,1.19,0,0,0,.42.33c.18.09.45.22.81.37a7.55,7.55,0,0,1,.89.43,1.58,1.58,0,0,1,.53.5,1.42,1.42,0,0,1,.21.8,1.68,1.68,0,0,1-.24.9,1.7,1.7,0,0,1-.73.61,2.81,2.81,0,0,1-1.15.22,4.24,4.24,0,0,1-.88-.1,4,4,0,0,1-.74-.25l.18-.54a3.1,3.1,0,0,0,.69.25,3.61,3.61,0,0,0,.79.09A1.71,1.71,0,0,0,25.11,36.4Zm4,0a1,1,0,0,0,.38-.81.9.9,0,0,0-.16-.53,1.34,1.34,0,0,0-.46-.37c-.19-.11-.48-.23-.85-.39a5.57,5.57,0,0,1-.88-.43,1.63,1.63,0,0,1-.51-.5,1.54,1.54,0,0,1,0-1.48,1.28,1.28,0,0,1,.62-.52,2.27,2.27,0,0,1,1-.19,3.81,3.81,0,0,1,1.63.39l-.15.52a3.06,3.06,0,0,0-1.45-.37,1.47,1.47,0,0,0-.91.24.81.81,0,0,0-.32.66.69.69,0,0,0,.16.47,1.19,1.19,0,0,0,.42.33c.18.09.45.22.81.37a7.55,7.55,0,0,1,.89.43,1.58,1.58,0,0,1,.53.5,1.42,1.42,0,0,1,.21.8,1.68,1.68,0,0,1-.24.9,1.73,1.73,0,0,1-.72.61,2.88,2.88,0,0,1-1.15.22,4.26,4.26,0,0,1-.89-.1,4,4,0,0,1-.74-.25l.18-.54a3.1,3.1,0,0,0,.69.25,3.61,3.61,0,0,0,.79.09A1.71,1.71,0,0,0,29.11,36.4ZM31,29.23v7.91h2.48a4.37,4.37,0,0,0,2.22-.54,3.61,3.61,0,0,0,1.45-1.5,4.55,4.55,0,0,0,.5-2.18,4,4,0,0,0-.48-2,3,3,0,0,0-1.39-1.25,5.22,5.22,0,0,0-2.19-.42ZM36.21,33a3.66,3.66,0,0,1-.33,1.6,2.45,2.45,0,0,1-1,1.1,3,3,0,0,1-1.57.39h-1V30.3h1.12a2.85,2.85,0,0,1,2.07.68A2.65,2.65,0,0,1,36.21,33Zm6.84.26a2.5,2.5,0,0,0-1-.34,2.07,2.07,0,0,0,1-.67,1.71,1.71,0,0,0,.4-1.17,1.62,1.62,0,0,0-.62-1.34A3.06,3.06,0,0,0,41,29.23H38.57v7.91h2.57a3.85,3.85,0,0,0,1.52-.28,2.16,2.16,0,0,0,1-.79A2.11,2.11,0,0,0,44,34.9a2,2,0,0,0-.24-1A1.87,1.87,0,0,0,43.05,33.23Zm-3.15-3h.9a1.81,1.81,0,0,1,1,.24.83.83,0,0,1,.35.73,1.16,1.16,0,0,1-.18.63,1.19,1.19,0,0,1-.49.45,1.54,1.54,0,0,1-.75.17H39.9Zm2.28,5.55a2,2,0,0,1-1.26.34h-1V33.47h.91a2.19,2.19,0,0,1,1.33.35,1.32,1.32,0,0,1,0,2Z" transform="translate(-4 -2)"/></svg>