<svg id="图层_1" data-name="图层 1" xmlns="http://www.w3.org/2000/svg" width="40" height="44" viewBox="0 0 40 44"><defs><style>.cls-1{fill:#110002;}</style></defs><title>GaussDB-openGAUSS</title><path class="cls-1" d="M26.2,43.63l-.2.08a4.92,4.92,0,0,1-2,.42,5.24,5.24,0,0,1-2.3-.5l-9.45-5.5h-4l12.46,7.2.23.12a7.27,7.27,0,0,0,6.37-.12l12.46-7.2h-4ZM44,16.09a7,7,0,0,0-3.2-5.39L27.3,2.92,27,2.77a7.25,7.25,0,0,0-6.3.15L7.2,10.7l-.2.13a7,7,0,0,0-3,5.49V28.13H6v-12a5.24,5.24,0,0,1,2.3-3.7l13.5-7.8.2-.09a4.75,4.75,0,0,1,2-.41,5.21,5.21,0,0,1,2.3.5l13.5,7.8.16.09a5.24,5.24,0,0,1,2.14,3.81L42,28.13h2v-12ZM9.09,37.2a6,6,0,0,1-1.41.17,3.79,3.79,0,0,1-2-.5,3.3,3.3,0,0,1-1.26-1.41A5,5,0,0,1,4,33.39a4.64,4.64,0,0,1,.5-2.23,3.33,3.33,0,0,1,1.38-1.45,4,4,0,0,1,2-.48,4.28,4.28,0,0,1,1.28.16,5.08,5.08,0,0,1,1.12.43L10,30.4A5.13,5.13,0,0,0,9,30a3.73,3.73,0,0,0-1.1-.14,3.13,3.13,0,0,0-1.66.41,2.81,2.81,0,0,0-1.13,1.21,4,4,0,0,0-.41,1.91A4.39,4.39,0,0,0,5,35.13a2.74,2.74,0,0,0,1,1.21,3.1,3.1,0,0,0,1.71.44,6.64,6.64,0,0,0,1-.1,8.25,8.25,0,0,0,1-.3V34.32H7.62v-.61h2.82v3A5.9,5.9,0,0,1,9.09,37.2Zm4.83-3.35a3,3,0,0,0-2,.51,1.7,1.7,0,0,0-.61,1.35,1.83,1.83,0,0,0,.22.91,1.38,1.38,0,0,0,.61.56,2.22,2.22,0,0,0,.91.19,2.74,2.74,0,0,0,1.2-.27,3,3,0,0,0,.9-.68v.44a1,1,0,0,0,0,.41h.58V33.78a3.48,3.48,0,0,0-.25-1.47,1.55,1.55,0,0,0-.7-.77,2.32,2.32,0,0,0-1.1-.23,3.8,3.8,0,0,0-1.11.14,3.06,3.06,0,0,0-.83.3l.14.53a3.86,3.86,0,0,1,.8-.3,3.13,3.13,0,0,1,.91-.13,1.41,1.41,0,0,1,1.1.41,2.07,2.07,0,0,1,.37,1.45v.23A7.85,7.85,0,0,0,13.92,33.85Zm1.19,2a2.39,2.39,0,0,1-.49.46,3.52,3.52,0,0,1-.7.35,2.89,2.89,0,0,1-.77.13,1.33,1.33,0,0,1-.86-.28,1.13,1.13,0,0,1-.29-.8,1.19,1.19,0,0,1,.44-1A2.45,2.45,0,0,1,14,34.32a7,7,0,0,1,1.12.07Zm2.56-4.42v3.69A2.05,2.05,0,0,0,18,36.41a1.13,1.13,0,0,0,.93.4,2.1,2.1,0,0,0,1.07-.3,3.7,3.7,0,0,0,.92-.74V31.43h.64v4.36c0,.41,0,.9.05,1.48H21c0-.15-.06-.45-.11-.9a4.85,4.85,0,0,1-1,.73,2.53,2.53,0,0,1-1.15.27,1.6,1.6,0,0,1-1.33-.55A2.68,2.68,0,0,1,17,35.15V31.43Zm7.44,5.09a1,1,0,0,0,.38-.81.88.88,0,0,0-.17-.53,1.13,1.13,0,0,0-.45-.36,6.53,6.53,0,0,0-.85-.39,9,9,0,0,1-.88-.43,1.9,1.9,0,0,1-.51-.51,1.31,1.31,0,0,1-.17-.69,1.44,1.44,0,0,1,.21-.79,1.3,1.3,0,0,1,.62-.52,2.3,2.3,0,0,1,1-.18,3.69,3.69,0,0,1,1.63.39l-.15.51a3.05,3.05,0,0,0-1.45-.36,1.41,1.41,0,0,0-.91.24.78.78,0,0,0-.32.66.74.74,0,0,0,.16.47,1.5,1.5,0,0,0,.42.33l.81.37a6,6,0,0,1,.88.43,1.52,1.52,0,0,1,.54.5,1.36,1.36,0,0,1,.21.79,1.56,1.56,0,0,1-1,1.52,2.83,2.83,0,0,1-1.15.21,4.31,4.31,0,0,1-.88-.09,5,5,0,0,1-.74-.25l.18-.55a3.35,3.35,0,0,0,.69.25,5.16,5.16,0,0,0,.79.09A1.75,1.75,0,0,0,25.11,36.52Zm4,0a1,1,0,0,0,.38-.81.9.9,0,0,0-.16-.53,1.16,1.16,0,0,0-.46-.36,6.53,6.53,0,0,0-.85-.39,9,9,0,0,1-.88-.43,1.9,1.9,0,0,1-.51-.51,1.41,1.41,0,0,1-.17-.69,1.44,1.44,0,0,1,.21-.79,1.3,1.3,0,0,1,.62-.52,2.3,2.3,0,0,1,1-.18,3.69,3.69,0,0,1,1.63.39l-.15.51a3.05,3.05,0,0,0-1.45-.36,1.41,1.41,0,0,0-.91.24.78.78,0,0,0-.32.66.74.74,0,0,0,.16.47,1.5,1.5,0,0,0,.42.33l.81.37a6.07,6.07,0,0,1,.89.43,1.49,1.49,0,0,1,.53.5,1.36,1.36,0,0,1,.21.79,1.56,1.56,0,0,1-1,1.52,2.83,2.83,0,0,1-1.15.21,4.31,4.31,0,0,1-.88-.09,5,5,0,0,1-.74-.25l.18-.55a3.35,3.35,0,0,0,.69.25,5.16,5.16,0,0,0,.79.09A1.75,1.75,0,0,0,29.11,36.52Zm1.89.75h2.48a4.37,4.37,0,0,0,2.18-.56,3.71,3.71,0,0,0,1.45-1.49,4.5,4.5,0,0,0,.5-2.18,4,4,0,0,0-.48-2,2.94,2.94,0,0,0-1.39-1.24,5.16,5.16,0,0,0-2.19-.43H31Zm1.36-6.84h1.12a2.85,2.85,0,0,1,2.07.67,2.67,2.67,0,0,1,.7,2,3.7,3.7,0,0,1-.33,1.6,2.45,2.45,0,0,1-1,1.09,3,3,0,0,1-1.57.4h-1Zm10.69,2.93a2.21,2.21,0,0,0-1-.34,2.14,2.14,0,0,0,1-.67,1.73,1.73,0,0,0,.4-1.18,1.59,1.59,0,0,0-.62-1.33A3,3,0,0,0,41,29.35H38.57v7.92h2.57A3.77,3.77,0,0,0,42.66,37a2.21,2.21,0,0,0,1-.78A2,2,0,0,0,44,35a1.92,1.92,0,0,0-.24-1A1.76,1.76,0,0,0,43.05,33.36Zm-3.15-3h.9a1.75,1.75,0,0,1,1,.24.81.81,0,0,1,.35.72A1.18,1.18,0,0,1,42,32a1.35,1.35,0,0,1-.49.46,1.75,1.75,0,0,1-.75.17H39.9Zm2.28,5.54a2,2,0,0,1-1.26.34h-1V33.6h.91a2.08,2.08,0,0,1,1.33.34,1.3,1.3,0,0,1,0,2ZM27,12.82l-3.24,2a.78.78,0,0,0-.2.16A1.12,1.12,0,0,0,23.14,16a.93.93,0,0,1-.25-.27v-1.2a1.68,1.68,0,0,1,.45-.43L27,11.88h0l4.19,2.57a1.93,1.93,0,0,1,.47.43v1.18a1.41,1.41,0,0,1-.47.44l-6.52,4a2.76,2.76,0,0,1-2.67,0l-6.53-4a1.39,1.39,0,0,1-.45-.42v-1.2a1.51,1.51,0,0,1,.45-.42l6.53-4a2.56,2.56,0,0,1,1.33-.34v.79h0a1.92,1.92,0,0,0-.91.23l-6.53,4c-.17.11-.27.23-.27.34s.1.24.27.35l6.53,4a2,2,0,0,0,1.82,0l6.52-4c.18-.11.27-.23.27-.35s-.09-.23-.27-.34L27,12.82M15,19.33a1.39,1.39,0,0,0,.45.42L22,23.7a2.47,2.47,0,0,0,1.33.34,2.51,2.51,0,0,0,1.31-.34l6.52-4a1.21,1.21,0,0,0,.46-.44V18.19a.69.69,0,0,1-.4.57l-.45.29h0l-4.2,2.56-1.06.66h0L24.26,23a2,2,0,0,1-1.82,0l-1.27-.78h0l-5.74-3.5a.71.71,0,0,1-.38-.52Zm0,3.18a1.42,1.42,0,0,0,.45.43L22,27a2.83,2.83,0,0,0,1.33.34A2.8,2.8,0,0,0,24.64,27l6.52-4a1.48,1.48,0,0,0,.46-.44V21.38a.73.73,0,0,1-.4.57l-.45.28h0l-4.2,2.57-1.06.65h0l-1.25.77a2,2,0,0,1-1.82,0l-1.27-.78h0L15.43,22a.75.75,0,0,1-.38-.53Z" transform="translate(-4 -2.13)"/></svg>