<svg id="图层_1" data-name="图层 1" xmlns="http://www.w3.org/2000/svg" viewBox="0 0 40 40"><title>generalocr</title><path id="服务图标-文字识别_通用类generalocr" data-name="服务图标-文字识别 通用类generalocr" d="M4.2,15.5v-7a4,4,0,0,1,4-4h7a.94.94,0,0,1,1,1,.94.94,0,0,1-1,1h-7a2,2,0,0,0-2,2v7a.94.94,0,0,1-1,1A.94.94,0,0,1,4.2,15.5Zm2,18v7a2,2,0,0,0,2,2h7a1,1,0,1,1,0,2h-7a4,4,0,0,1-4-4v-7a.94.94,0,0,1,1-1A.94.94,0,0,1,6.2,33.5Zm27,9h7a2,2,0,0,0,2-2v-7a1,1,0,0,1,2,0v7a4,4,0,0,1-4,4h-7a1,1,0,0,1,0-2Zm9-34a2,2,0,0,0-2-2h-7a.94.94,0,0,1-1-1,.94.94,0,0,1,1-1h7a4,4,0,0,1,4,4v7a1,1,0,0,1-2,0Zm-14,4h-13a.94.94,0,0,0-1,1v22a.94.94,0,0,0,1,1h18a.94.94,0,0,0,1-1v-17h-4a2,2,0,0,1-2-2Zm5.6,5-4.6-4.6v3.6a.94.94,0,0,0,1,1Zm-4.3-5.7,5.4,5.4a.91.91,0,0,1,.3.7V35.5a2,2,0,0,1-2,2h-18a2,2,0,0,1-2-2v-22a2,2,0,0,1,2-2H28.8A.91.91,0,0,1,29.5,11.8ZM26.2,22.5v-2h-8v2h2a.94.94,0,0,1,1,1v5h2v-5a.94.94,0,0,1,1-1Zm-2,1v5a.94.94,0,0,1-1,1h-2a.94.94,0,0,1-1-1v-5h-2a.94.94,0,0,1-1-1v-2a.94.94,0,0,1,1-1h8a.94.94,0,0,1,1,1v2a.94.94,0,0,1-1,1Zm-6.5,8h13a.5.5,0,1,1,0,1h-13a.5.5,0,0,1,0-1Z" transform="translate(-4.2 -4.5)"/></svg>