<svg id="图层_1" data-name="图层 1" xmlns="http://www.w3.org/2000/svg" viewBox="0 0 44 33"><defs><style>.cls-1{fill:#333;}</style></defs><title>云服务通用</title><path class="cls-1" d="M36.69,14.06a12.82,12.82,0,0,0-23.38,0A12.85,12.85,0,0,0,15.94,39.5H34.06a12.85,12.85,0,0,0,2.63-25.44ZM5,26.63a10.82,10.82,0,0,1,8.6-10.54,13.58,13.58,0,0,0-.48,9.25c.41,1.23.8,2.28,1.13,3.21,1,2.77,1.57,4.29,1.11,6.26a4.83,4.83,0,0,1-1.65,2.43A10.87,10.87,0,0,1,5,26.63ZM14.9,37.41A5.25,5.25,0,0,0,16.29,35c.53-2.24-.1-4-1.14-6.79-.33-.91-.71-1.95-1.11-3.18a13,13,0,0,1,.75-9.41,1.12,1.12,0,0,0,.19-.29,10.77,10.77,0,0,1,20-.21A11,11,0,0,0,26,19.48c-2.3,3.09-2.32,6-2.33,8.55a12.48,12.48,0,0,1-.78,5.18,7.83,7.83,0,0,1-4.41,4.25H15.94C15.59,37.46,15.24,37.44,14.9,37.41Zm19.16.05H20.41a8.8,8.8,0,0,0,3.31-3.88A13.16,13.16,0,0,0,24.57,28c0-2.53,0-5.16,2.16-8s5.2-4.16,9.37-4a10.8,10.8,0,0,1-2,21.42Z" transform="translate(-3 -6.5)"/></svg>