<svg id="图层_1" data-name="图层 1" xmlns="http://www.w3.org/2000/svg" viewBox="0 0 45.25 42.24"><title>green-channel</title><path d="M46.6,16.15a1,1,0,0,1-1,.76H36.11L43,44a1,1,0,0,1-.72,1.22,1.07,1.07,0,0,1-.25,0,1,1,0,0,1-1-.76L33.86,16.15a1,1,0,0,1,.18-.86,1,1,0,0,1,.79-.38h6.88L23.84,5.14,6.22,14.92h6.2a1,1,0,0,1,.77.37,1,1,0,0,1,.2.84l-6,28.31a1,1,0,1,1-2-.41l5.73-27.11-8.8,0a1,1,0,0,1-1-.75A1,1,0,0,1,1.89,15L23.35,3.13a1,1,0,0,1,1,0L46.11,15A1,1,0,0,1,46.6,16.15Zm-10.93,17a.53.53,0,0,1,.12.32v5.68a.49.49,0,0,1-.19.39l-1.8,1.49a.49.49,0,0,1-.32.12h-.06l-.25,1.38a.49.49,0,0,1-.49.41H29.43a.49.49,0,0,1-.49-.41l-.26-1.4-9.38,0-.23,1.42a.5.5,0,0,1-.49.42H15.32a.5.5,0,0,1-.49-.42l-.23-1.43h-.29l0,0-1.86-1.52a.49.49,0,0,1-.19-.39V33.51a.52.52,0,0,1,.11-.32l5-6.26a.52.52,0,0,1,.39-.18H30.1a.46.46,0,0,1,.38.18ZM13.22,37h3.53V35.22H13.22Zm5.07,4.17H15.61l.14.85h2.4Zm14.12,0H29.7l.15.81h2.41ZM34.79,39V38H30.74a.5.5,0,0,1-.5-.5V34.72a.5.5,0,0,1,.5-.5h4.05v-.53l-4.93-5.94H18l-4.79,5.93v.54h4a.5.5,0,0,1,.5.5v2.75a.5.5,0,0,1-.5.5h-4v1l1.44,1.18,18.64.06Zm-3.55-3.74V37h3.55V35.22ZM24,13.25a.5.5,0,0,0,.5-.5v-4a.5.5,0,0,0-.5-.5.5.5,0,0,0-.5.5v4A.51.51,0,0,0,24,13.25Zm-.5,6.33a.5.5,0,0,0,1,0v-4a.5.5,0,1,0-1,0Zm-5.27,5.64h2a.5.5,0,1,0,0-1h-2a.5.5,0,0,0,0,1Zm4.17-.5a.5.5,0,0,0,.5.5h2a.5.5,0,0,0,0-1h-2A.5.5,0,0,0,22.4,24.72Zm6.83.5a.5.5,0,1,0,0-1h-2a.5.5,0,0,0,0,1Z" transform="translate(-1.38 -3)"/></svg>