<?xml version="1.0" encoding="utf-8"?>
<!-- Generator: Adobe Illustrator 21.0.0, SVG Export Plug-In . SVG Version: 6.00 Build 0)  -->
<svg version="1.1" id="图层_1" xmlns="http://www.w3.org/2000/svg" xmlns:xlink="http://www.w3.org/1999/xlink" x="0px" y="0px"
	 viewBox="0 0 40 41" style="enable-background:new 0 0 40 41;" xml:space="preserve">
<g>
	<path d="M38.2,27.6c2.6-8.3-0.8-17.6-8.7-22.1c-0.8-0.5-1.6-0.9-2.5-1.2c0,0,0,0,0,0c0,0-0.1,0-0.1,0c-0.5-0.1-1.1,0.2-1.2,0.7
		c-0.1,0.5,0.2,1,0.6,1.2c0.7,0.3,1.5,0.7,2.2,1.1c7,4,10,12.3,7.7,19.7c-1.5-0.1-2.9,0.6-3.7,2c-1.1,1.9-0.4,4.4,1.5,5.5
		s4.4,0.4,5.5-1.5C40.5,31.1,39.9,28.8,38.2,27.6z M37.7,32c-0.6,1-1.8,1.3-2.7,0.7S33.7,31,34.3,30s1.8-1.3,2.7-0.7
		C38,29.8,38.3,31,37.7,32z"/>
	<path d="M1.2,24.8c0,0,0,0.1,0,0.1c0.1,0.5,0.7,0.9,1.2,0.7c0.5-0.1,0.8-0.7,0.7-1.2C3.1,23.6,3,22.8,3,22C3,13.9,8.7,7.1,16.3,5.4
		C16.8,6.9,18.3,8,20,8c2.2,0,4-1.8,4-4c0-2.2-1.8-4-4-4c-2,0-3.7,1.5-4,3.4C7.4,5.2,1,12.9,1,22C1,22.9,1.1,23.8,1.2,24.8
		C1.2,24.7,1.2,24.7,1.2,24.8z M20,2c1.1,0,2,0.9,2,2c0,1.1-0.9,2-2,2s-2-0.9-2-2C18,2.9,18.9,2,20,2z"/>
	<path d="M29,22c0-4.3-3-7.9-7-8.8h0c0-0.1,0-0.1,0-0.2c0-1.1-0.9-2-2-2s-2,0.9-2,2c0,0.1,0,0.1,0,0.2c-4,0.9-7,4.5-7,8.8
		c0,3.9,2.5,7.3,6,8.5V33h-2.5c-0.3,0-0.5,0.2-0.5,0.5c0,0.3,0.2,0.5,0.5,0.5h11c0.3,0,0.5-0.2,0.5-0.5c0-0.3-0.2-0.5-0.5-0.5H23
		v-2.5C26.5,29.3,29,25.9,29,22z M20,12c0.6,0,1,0.4,1,1c0,0,0,0,0,0.1c-0.3,0-0.7-0.1-1-0.1s-0.7,0-1,0.1c0,0,0,0,0-0.1
		C19,12.4,19.4,12,20,12z M22,33h-4v-2h4V33z M20,30c-4.4,0-8-3.6-8-8s3.6-8,8-8s8,3.6,8,8S24.4,30,20,30z"/>
	<circle cx="20" cy="22" r="1"/>
	<path d="M20,18c-2.2,0-4,1.8-4,4c0,2.2,1.8,4,4,4s4-1.8,4-4C24,19.8,22.2,18,20,18z M20,25c-1.7,0-3-1.3-3-3s1.3-3,3-3s3,1.3,3,3
		S21.7,25,20,25z"/>
	<path d="M30.7,35.2c-0.6,0.5-1.3,1-2,1.4c-7.1,4.3-16.1,2.7-21.5-3.3c0.9-1.2,1-2.9,0.2-4.3c-1.1-1.9-3.6-2.6-5.5-1.5
		c-1.9,1.1-2.6,3.6-1.5,5.5c1.1,1.8,3.4,2.5,5.2,1.6c5.9,6.7,16,8.5,24,3.7c0.8-0.5,1.5-1,2.2-1.6c0,0,0,0,0,0c0,0,0.1-0.1,0.1-0.1
		c0.4-0.4,0.4-1,0-1.4C31.7,34.8,31.1,34.8,30.7,35.2z M5,32.7C4,33.3,2.8,33,2.3,32S2,29.8,3,29.3C4,28.7,5.2,29,5.7,30
		S6,32.2,5,32.7z"/>
</g>
</svg>
