<svg id="图层_1" data-name="图层 1" xmlns="http://www.w3.org/2000/svg" viewBox="0 0 44.04 36.01"><title>IEC</title><path d="M35.33,17.29A12.09,12.09,0,0,0,31,11.51a1,1,0,0,0-1.4.22h0l-.07.11a1,1,0,0,0,.26,1.26A10,10,0,0,1,33.4,18a2,2,0,0,0,1.65,1.33,10,10,0,0,1,9,10.66,9.52,9.52,0,0,1-1.81,4.92,4,4,0,0,0-4.94.49l-5.49-4.61a4.81,4.81,0,0,0-3.28-7.27,4.88,4.88,0,0,0-4-2.91V14.21A4,4,0,1,0,20,9.91a12,12,0,0,0-7.36,7.38A12,12,0,0,0,2,29.93a11.51,11.51,0,0,0,.7,3.28A1,1,0,0,0,4,33.85l0,0H4a1,1,0,0,0,.56-1.26A9.43,9.43,0,0,1,4,29.94a10,10,0,0,1,8.9-10.67A2,2,0,0,0,14.56,18,10,10,0,0,1,20.4,11.9a4,4,0,0,0,3.11,2.25v6.34a4.88,4.88,0,0,0-4,2.91,4.82,4.82,0,0,0-4,4.74,4.7,4.7,0,0,0,.77,2.58l-5.49,4.61A4,4,0,1,0,10.86,41l.21-.24a12.22,12.22,0,0,0,3.3.45H32.81a1,1,0,0,0,0-2H14.34a10.32,10.32,0,0,1-2.41-.29,3.81,3.81,0,0,0-.53-2.79l5.5-4.62A4.88,4.88,0,0,0,20.37,33h7.27a4.88,4.88,0,0,0,3.47-1.45l5.5,4.62A4.07,4.07,0,0,0,36,38.21a4,4,0,1,0,7.53-1.83A11.6,11.6,0,0,0,46,29.93,12,12,0,0,0,35.33,17.29ZM8,40.21a2,2,0,1,1,2-2A2,2,0,0,1,8,40.21Zm14-30a2,2,0,1,1,2,2A2,2,0,0,1,22,10.21ZM27.64,32H20.36a3.81,3.81,0,0,1-.43-7.6.5.5,0,0,0,.42-.33,3.88,3.88,0,0,1,7.3,0,.5.5,0,0,0,.42.33,3.81,3.81,0,0,1-.43,7.6ZM40,40.21a2,2,0,1,1,2-2A2,2,0,0,1,40,40.21Z" transform="translate(-1.98 -6.25)"/></svg>