<svg id="图层_1" data-name="图层 1" xmlns="http://www.w3.org/2000/svg" viewBox="0 0 44 43"><title>IEF</title><path d="M30.5,39.5a5.5,5.5,0,0,1-11,0,5.31,5.31,0,0,1,2-4.2.5.5,0,1,1,.6.8,4.63,4.63,0,0,0-1.6,3.5,4.5,4.5,0,0,0,9,0,4.79,4.79,0,0,0-1.6-3.5.5.5,0,0,1,.6-.8A5.31,5.31,0,0,1,30.5,39.5ZM46.5,22A12,12,0,0,1,35.9,33.9a6.6,6.6,0,0,1-1.4.1H28a2,2,0,0,0-2,2v1.2a2.53,2.53,0,0,1,1.5,2.3,2.5,2.5,0,0,1-5,0A2.53,2.53,0,0,1,24,37.2V36a4,4,0,0,1,4-4h6.5a10,10,0,0,0,1.1-19.9,2.1,2.1,0,0,1-1.7-1.3,9.94,9.94,0,0,0-18.8,0,2.1,2.1,0,0,1-1.7,1.3A9.89,9.89,0,0,0,4.5,22a10.06,10.06,0,0,0,1.6,5.4A10,10,0,0,0,14.5,32h1a8.13,8.13,0,0,0,7.9-6.5,2.73,2.73,0,0,0,.09-.68l-.09,0A3.06,3.06,0,0,1,21.5,22a2.48,2.48,0,0,1,0-.27l-4.7-2.64a2.18,2.18,0,0,1-1.13.31,2,2,0,0,1-1.1-.3,2.17,2.17,0,0,1-.8-3,2.2,2.2,0,0,1,3.8,2.2l0,0,4.21,2.37a3,3,0,0,1,5.42,0l4.21-2.37,0,0a2,2,0,0,1-.2-1.7,2.12,2.12,0,0,1,1-1.3,2.26,2.26,0,0,1,3,.8,2,2,0,0,1,.2,1.7,2.12,2.12,0,0,1-1,1.3,2,2,0,0,1-1.1.3,2.18,2.18,0,0,1-1.13-.31l-4.7,2.64a2.48,2.48,0,0,1,0,.27,3,3,0,0,1-2,2.88,5,5,0,0,0-.06.62A10,10,0,0,1,15.5,34h-1a12,12,0,0,1-1.3-23.9,11.93,11.93,0,0,1,22.6,0A11.94,11.94,0,0,1,46.5,22ZM32.3,17.8a1.23,1.23,0,0,0,1.6.4,1.06,1.06,0,0,0,.6-.7,2.77,2.77,0,0,0-.1-.9,1.1,1.1,0,0,0-1-.6,1.42,1.42,0,0,0-.6.2,1.06,1.06,0,0,0-.6.7A1,1,0,0,0,32.3,17.8Zm-15.6,0a1.08,1.08,0,0,0-.4-1.6,1.42,1.42,0,0,0-.6-.2,1.1,1.1,0,0,0-1,.6,1.08,1.08,0,0,0,.4,1.6A1.16,1.16,0,0,0,16.7,17.8Zm6.8,5.9a1.82,1.82,0,0,0,2,0,1.94,1.94,0,0,0,1-1.7,2,2,0,0,0-4,0A1.94,1.94,0,0,0,23.5,23.7Z" transform="translate(-2.5 -2)"/></svg>