<?xml version="1.0" encoding="utf-8"?>
<!-- Generator: Adobe Illustrator 21.0.0, SVG Export Plug-In . SVG Version: 6.00 Build 0)  -->
<svg version="1.1" id="图层_1" xmlns="http://www.w3.org/2000/svg" xmlns:xlink="http://www.w3.org/1999/xlink" x="0px" y="0px"
	 viewBox="0 0 48 48" style="enable-background:new 0 0 48 48;" xml:space="preserve">
<path d="M44.7,16.4c-0.2-0.6-0.8-0.9-1.4-0.7c-0.6,0.2-0.9,0.8-0.7,1.4c2.6,7.2,0.8,15.4-4.6,20.9c-6.6,6.6-17,7.6-24.7,2.6
	c0.5-1.1,0.3-2.4-0.6-3.3c-1.2-1.2-3.1-1.2-4.2,0c-1.2,1.2-1.2,3.1,0,4.2c0.9,0.9,2.2,1.1,3.2,0.7c8.6,5.9,20.4,4.8,27.9-2.6
	C45.6,33.5,47.6,24.4,44.7,16.4z M12,40.9c-0.8,0.8-2,0.8-2.8,0s-0.8-2,0-2.8s2-0.8,2.8,0C12.8,38.8,12.8,40.1,12,40.9z M26.5,36.5
	c0.3,0,0.5-0.2,0.5-0.5v-3h1.2c2.6,0,4.8-2.2,4.8-5s-2.1-5-4.8-5h-8.5c-2.1,0-3.8-1.5-3.8-3.5s1.7-3.5,3.8-3.5H31
	c0.3,0,0.5-0.2,0.5-0.5S31.3,15,31,15h-4v-3c0-0.3-0.2-0.5-0.5-0.5S26,11.7,26,12v3h-4v-3c0-0.3-0.2-0.5-0.5-0.5S21,11.7,21,12v3
	h-1.2c-2.7,0-4.8,2-4.8,4.5s2.1,4.5,4.8,4.5h8.5c2.1,0,3.8,1.8,3.8,4s-1.7,4-3.8,4H16c-0.3,0-0.5,0.2-0.5,0.5S15.7,33,16,33h5v3
	c0,0.3,0.2,0.5,0.5,0.5S22,36.3,22,36v-3h4v3C26,36.3,26.2,36.5,26.5,36.5z M10,10c6.6-6.6,17-7.6,24.7-2.7
	c-0.5,1.1-0.3,2.4,0.6,3.3c1.2,1.2,3.1,1.2,4.2,0c1.2-1.2,1.2-3.1,0-4.2c-0.9-0.9-2.2-1.1-3.2-0.7C27.7-0.1,15.9,0.9,8.5,8.4
	c-6.4,6.4-8.2,16-4.7,24.3c0.2,0.6,0.9,0.8,1.4,0.6c0.6-0.2,0.8-0.9,0.6-1.4C2.6,24.3,4.2,15.8,10,10z M36,7.1c0.8-0.8,2-0.8,2.8,0
	s0.8,2,0,2.8c-0.8,0.8-2,0.8-2.8,0C35.2,9.2,35.2,7.9,36,7.1z"/>
</svg>
