<?xml version="1.0" encoding="utf-8"?>
<!-- Generator: Adobe Illustrator 21.0.0, SVG Export Plug-In . SVG Version: 6.00 Build 0)  -->
<svg version="1.1" id="图层_1" xmlns="http://www.w3.org/2000/svg" xmlns:xlink="http://www.w3.org/1999/xlink" x="0px" y="0px"
	 viewBox="0 0 48 48" style="enable-background:new 0 0 48 48;" xml:space="preserve">
<style type="text/css">
	.st0{display:none;}
	.st1{display:inline;}
	.st2{fill:none;stroke:#000000;}
</style>
<g id="_x34_8PX模板">
	<g id="Page-1" class="st0">
		<g id="Security-编排4" transform="translate(4.000000, 2.000000)" class="st1">
			<path id="Shape" d="M37.8,8.4c-2.1-0.7-6.3-2.1-8.4-3.1c-4.2-2.1-5.8-3.5-7.4-4.7c-0.6-0.5-1.3-0.7-2.1-0.7l0,0l0,0
				c-0.8,0-1.5,0.2-2.1,0.6c-1.6,1.2-3.2,2.6-7.4,4.7C8.3,6.2,4.1,7.6,2,8.3C0.6,8.8-0.2,10-0.1,11.4c0.4,4.6,1.5,13.5,4.2,19
				c3.2,6.3,11.1,11.2,14.2,13.1c0.5,0.3,1,0.4,1.6,0.4s1.1-0.1,1.6-0.4c3.1-1.9,11-6.8,14.2-13.1c2.7-5.5,3.8-14.4,4.2-18.8
				C40,10.1,39.1,8.8,37.8,8.4z M33.9,29.5c-2,4-6.5,8.1-13.4,12.3c-0.2,0-0.4,0.1-0.6,0.1s-0.4-0.1-0.5-0.2
				c-7-4.1-11.5-8.3-13.5-12.2c-2.8-5.6-3.8-15.3-4-18.1c-0.1-0.7,0.6-1,0.8-1.1L3.5,10c2.3-0.8,5.9-2,7.9-3
				c3.8-1.9,5.6-3.3,7.1-4.4c0.2-0.2,0.4-0.3,0.6-0.5c0-0.1,0.3-0.2,0.7-0.2h0.1H20c0.4,0,0.7,0.1,0.8,0.2c0.2,0.2,0.4,0.3,0.6,0.5
				c1.4,1.1,3.2,2.5,7.1,4.4c2,1,5.5,2.2,7.9,3l0.8,0.3c0.2,0.1,0.8,0.3,0.8,1.1C37.7,14.2,36.7,23.9,33.9,29.5z"/>
			<g id="Group-3" transform="translate(8.000000, 14.000000)">
				<g id="Group-2">
					<path id="Path" class="st2" d="M0.5,8.2L0.5,8.2c0.1,0.1,0.1,0.2,0.1,0.2v0.1l0,0l0,0c0,0,0,0.1,0.1,0.1c0,0,0,0,0.1,0l0,0
						c1.1,0,2,0.9,2,2.1c0,0.2-0.1,0.5-0.2,0.8c-0.1,0.2,0,0.5,0.1,0.7l0,0l1.6,0.9c0.1,0.1,0.2,0.1,0.3,0.1c0.2,0,0.3-0.1,0.4-0.2
						l0,0l0,0c0.6-0.6,1.2-1,1.9-1s1.6,0.4,1.9,1l0,0l0,0c0.1,0.1,0.3,0.2,0.5,0.2l0,0c0.1,0,0.2,0,0.2,0h0.1l1.7-0.9l0,0
						c0.2-0.2,0.3-0.5,0.2-0.7s-0.2-0.5-0.2-0.8c0-1.2,0.6-2.1,1.7-2.1c0.2,0,0.3-0.1,0.4-0.5c0.2-0.9,0.2-1.8,0-2.7
						C13.2,5.2,13.1,5,12.9,5h-0.1c-1,0-1.7-0.8-1.7-2.1c0-0.2,0.1-0.5,0.2-0.8c0.1-0.2,0-0.5-0.1-0.7l0,0L9.5,0.5
						c-0.1,0-0.2-0.1-0.3-0.1C9,0.4,8.9,0.5,8.7,0.6l0,0l0,0C8.4,1.1,7.6,1.5,6.9,1.5c-0.6,0-1.2-0.3-1.6-0.9l0,0l0,0
						C5.2,0.5,5,0.4,4.8,0.4c0,0-0.1,0-0.2,0l0,0l-1.7,1l0,0C2.7,1.6,2.6,1.9,2.7,2.1c0.1,0.2,0.2,0.5,0.2,0.8l0,0c0,1.1-0.9,2-2,2
						C0.7,5,0.6,5.1,0.5,5.5C0.4,6.4,0.4,7.3,0.5,8.2L0.5,8.2z M0.7,8.5L0.7,8.5L0.7,8.5z"/>
					<path id="Oval-2" d="M6.9,9.2c1.3,0,2.3-1,2.3-2.3s-1-2.3-2.3-2.3s-2.3,1-2.3,2.3S5.6,9.2,6.9,9.2z M6.9,10.2
						c-1.8,0-3.3-1.5-3.3-3.3s1.5-3.3,3.3-3.3s3.3,1.5,3.3,3.3S8.7,10.2,6.9,10.2z"/>
				</g>
				<g id="Group-2-Copy" transform="translate(13.000000, 6.000000)">
					<path id="Path_1_" class="st2" d="M0.5,6.4c0,0.1,0.1,0.1,0.1,0.2c0,0,0,0,0,0.1l0,0l0,0l0,0l0,0l0,0c0.9,0,1.7,0.8,1.7,1.8
						c0,0.2-0.1,0.4-0.1,0.6c-0.1,0.1,0,0.3,0.1,0.4l0,0l1.3,0.7c0.1,0,0.1,0,0.2,0c0.1,0,0.2,0,0.3-0.1c0.3-0.5,0.8-0.8,1.3-0.8
						C6,9.3,6.7,9.7,7,10.1c0.1,0.1,0.2,0.1,0.3,0.1l0,0h0.1l0,0l1.3-0.7l0,0C8.9,9.4,8.9,9.2,8.8,9c0-0.2-0.1-0.4-0.1-0.6
						c0-1,0.5-1.7,1.4-1.7c0.1,0,0.1-0.1,0.2-0.3c0.1-0.7,0.1-1.4,0-2.1c0-0.2-0.1-0.3-0.2-0.3H10C9.1,4,8.6,3.3,8.6,2.3
						c0-0.2,0.1-0.4,0.1-0.6c0.1-0.1,0-0.3-0.1-0.4l0,0L7.4,0.5c-0.1,0-0.1-0.1-0.2-0.1S7,0.4,6.9,0.5C6.7,1,6,1.3,5.4,1.3
						c-0.5,0-1-0.3-1.3-0.7C4,0.4,3.9,0.4,3.8,0.4H3.7l0,0L2.3,1.2l0,0C2.2,1.3,2.1,1.5,2.2,1.6C2.3,1.8,2.3,2,2.3,2.3l0,0
						C2.3,3.2,1.6,4,0.7,4C0.6,4,0.5,4.1,0.5,4.3C0.4,5,0.4,5.7,0.5,6.4z M-0.3,7L-0.3,7L-0.3,7L-0.3,7z"/>
					<path id="Oval-2_1_" d="M5.4,7.2c1,0,1.8-0.8,1.8-1.8S6.4,3.6,5.4,3.6S3.6,4.4,3.6,5.4S4.4,7.2,5.4,7.2z M5.4,8
						C4,8,2.8,6.8,2.8,5.4S4,2.8,5.4,2.8S8,4,8,5.4S6.8,8,5.4,8z"/>
				</g>
			</g>
		</g>
	</g>
</g>
<path d="M30.6,23.3h2.8c1.1,0,2.1,0.9,2.1,2.1v0.5c0,1.2-0.9,2.1-2.1,2.1h-5.8v1h5.8c1.7,0,3.1-1.4,3.1-3.1v-0.5
	c-0.1-1.7-1.4-3.1-3.1-3.1h-2.8c-1.1,0-2.1-0.9-2.1-2.1v-0.1c0-1.2,0.9-2.1,2.1-2.1h4.5v-1h-4.5c-1.7,0-3.1,1.4-3.1,3.1v0.1
	C27.5,21.9,28.9,23.3,30.6,23.3z M41.9,10.6c-2.1-0.7-6.3-2.1-8.4-3.1c-4.2-2.1-5.8-3.5-7.4-4.7C25.5,2.2,24.8,2,24,2
	s-1.6,0.2-2.1,0.6c-1.6,1.2-3.2,2.6-7.4,4.7c-2.1,1-6.3,2.4-8.4,3.1c-1.4,0.5-2.2,1.7-2.1,3.1c0.4,4.6,1.5,13.5,4.2,19
	c3.2,6.3,11.1,11.2,14.2,13.1c0.5,0.3,1,0.4,1.6,0.4c0.5,0,1.1-0.1,1.6-0.4c3.1-1.9,11-6.8,14.2-13.1c2.7-5.5,3.8-14.4,4.2-18.8
	C44.1,12.3,43.2,11,41.9,10.6z M38.1,31.6c-2,4-6.5,8.1-13.4,12.3c-0.3,0-0.5,0.1-0.7,0.1s-0.4-0.1-0.5-0.2
	c-7-4.1-11.5-8.3-13.5-12.2l0,0L38.1,31.6L38.1,31.6z M38.6,30.6h-29c-2-4.7-3-11.4-3.4-15.1h35.7C41.5,19.2,40.6,26,38.6,30.6z
	 M42,14.5H6.1c0-0.4-0.1-0.7-0.1-1c-0.1-0.7,0.6-1,0.8-1.1l0.8-0.3c2.3-0.8,5.9-2,7.9-3c3.8-1.9,5.6-3.3,7.1-4.4
	c0.2-0.2,0.4-0.3,0.6-0.5c0-0.1,0.3-0.2,0.7-0.2h0.2c0.4,0,0.7,0.1,0.8,0.2c0.2,0.2,0.4,0.3,0.6,0.5c1.4,1.1,3.2,2.5,7.1,4.4
	c2,1,5.5,2.2,7.9,3l0.8,0.3c0.2,0.1,0.8,0.3,0.8,1.1C42.1,13.8,42,14.1,42,14.5z M20.4,29.1h2.9c1.8,0,3.2-1.4,3.2-3.2V24h-5.7v0.9
	h4.7v1c0,1.2-1,2.2-2.2,2.2h-2.9c-1.2,0-2.2-1-2.2-2.2v-5.6c0-1.2,1-2.2,2.2-2.2h3.5v-1h-3.5c-1.8,0-3.2,1.4-3.2,3.2v5.6
	C17.2,27.7,18.6,29.1,20.4,29.1z M13.9,17h-1v12h1V17z"/>
<g id="图层_3">
</g>
</svg>
