<svg id="图层_1" data-name="图层 1" xmlns="http://www.w3.org/2000/svg" viewBox="0 0 40 40"><defs><style>.cls-1{fill:#040000;}</style></defs><title>imagemoderation</title><path class="cls-1" d="M27,22.63a.5.5,0,0,1,.5-.5.5.5,0,0,1,.5.5v4a.5.5,0,0,1-.5.5.51.51,0,0,1-.5-.5Zm0,6.08v-.08a.5.5,0,0,1,.5-.5.5.5,0,0,1,.5.5v.08a.5.5,0,0,1-.5.5A.5.5,0,0,1,27,28.71Zm-5-8.58H33a2,2,0,0,1,2,2v8a2,2,0,0,1-2,2H22a2,2,0,0,1-2-2v-8A2,2,0,0,1,22,20.13Zm0,1a1,1,0,0,0-1,1v8a1,1,0,0,0,1,1H33a1,1,0,0,0,1-1v-8a1,1,0,0,0-1-1Zm5,18a13,13,0,1,0-13-13A13,13,0,0,0,27,39.13ZM38.29,36l5.42,5.42a1,1,0,0,1,0,1.41,1,1,0,0,1-1.42,0l-5.41-5.42A15,15,0,1,1,38.29,36ZM18,43.13a1,1,0,0,1-1,1H8a4,4,0,0,1-4-4v-32a4,4,0,0,1,4-4H38a4,4,0,0,1,4,4v6a1,1,0,1,1-2,0v-6a2,2,0,0,0-2-2H8a2,2,0,0,0-2,2v32a2,2,0,0,0,2,2h9A1,1,0,0,1,18,43.13Z" transform="translate(-4 -4.13)"/></svg>