<svg id="图层_1" data-name="图层 1" xmlns="http://www.w3.org/2000/svg" viewBox="0 0 40.11 43.83"><title>IoT Analytics</title><g id="IoT服务图标_IoTA" data-name="IoT服务图标/IoTA"><path id="形状结合" d="M28.2,3.13l.27.15,12.05,7a8,8,0,0,1,4,6.93V31.08a8,8,0,0,1-4,6.93L28.47,45a8,8,0,0,1-8,0L8.41,38a8,8,0,0,1-4-6.93V17.17a8,8,0,0,1,4-6.93l12.06-7A8,8,0,0,1,28.2,3.13ZM21.47,5,9.41,12a6,6,0,0,0-3,5.2V31.08a6,6,0,0,0,3,5.2l12.06,7a6,6,0,0,0,6,0l12.05-7a6,6,0,0,0,3-5.2V17.17a6,6,0,0,0-3-5.2L27.47,5l-.24-.13A6,6,0,0,0,21.47,5ZM35,22.13a2.5,2.5,0,0,1,.44,5A11,11,0,0,1,15.06,28.4.5.5,0,0,1,16,28h0a10,10,0,0,0,8.72,5.62H25a10,10,0,0,0,9.39-6.58A2.5,2.5,0,0,1,35,22.13Zm-15,1a.5.5,0,0,1,.5.5v3a.51.51,0,0,1-.5.5.5.5,0,0,1-.5-.5v-3A.5.5,0,0,1,20,23.13Zm3-4a.5.5,0,0,1,.5.5v7a.51.51,0,0,1-.5.5.5.5,0,0,1-.5-.5v-7A.5.5,0,0,1,23,19.13Zm3,5a.5.5,0,0,1,.5.5v2a.51.51,0,0,1-.5.5.5.5,0,0,1-.5-.5v-2A.5.5,0,0,1,26,24.13Zm3-3a.5.5,0,0,1,.5.5v5a.51.51,0,0,1-.5.5.5.5,0,0,1-.5-.5v-5A.5.5,0,0,1,29,21.13Zm-4-8.5a11,11,0,0,1,10.11,6.66.5.5,0,0,1-.3.6.49.49,0,0,1-.62-.23h0A10,10,0,0,0,15.2,21.45,2.5,2.5,0,1,1,14,21.13h.28A11,11,0,0,1,25,12.63Zm10,10.5a1.5,1.5,0,1,0,1.5,1.5A1.5,1.5,0,0,0,35,23.13Zm-21-1a1.5,1.5,0,1,0,1.5,1.5A1.5,1.5,0,0,0,14,22.13Z" transform="translate(-4.41 -2.21)"/></g></svg>