<?xml version="1.0" encoding="utf-8"?>
<!-- Generator: Adobe Illustrator 21.0.0, SVG Export Plug-In . SVG Version: 6.00 Build 0)  -->
<svg version="1.1" id="图层_1" xmlns="http://www.w3.org/2000/svg" xmlns:xlink="http://www.w3.org/1999/xlink" x="0px" y="0px"
	 viewBox="0 0 48 48" style="enable-background:new 0 0 48 48;" xml:space="preserve">
<style type="text/css">
	.st0{fill:#333333;}
</style>
<title>IoT Message Queue</title>
<desc>Created with Sketch.</desc>
<g id="Page-1">
	<g id="IoT消息对列" transform="translate(-226.000000, -100.000000)">
		<g id="IoT-Message-Queue" transform="translate(226.000000, 100.000000)">
			<path id="Combined-Shape" class="st0" d="M46,24c1.1,0,2,0.9,2,2c0,0.9-0.6,1.6-1.4,1.9C44.7,38.9,35.2,47,24,47
				C12.9,47,3.3,39,1.3,28c0,0,0,0,0-0.1c0,0,0,0,0-0.1L1.2,27H13v3c0,0.6,0.4,1,1,1h6.8l3.2,3.2l3.2-3.2H34c0.6,0,1-0.4,1-1v-3.3
				c-0.6-0.4-1-1-1-1.7c0-1.1,0.9-2,2-2c1.1,0,2,0.9,2,2c0,0.7-0.4,1.4-1,1.7V30c0,1.7-1.3,3-3,3h-6l-3.3,3.3
				c-0.2,0.2-0.4,0.3-0.7,0.3c-0.3,0-0.5-0.1-0.7-0.3L20,33h-6c-1.7,0-3-1.3-3-3v-1H3.7C6,38.7,14.9,45.3,24.8,45
				c9.9-0.4,18.3-7.6,19.9-17.4C44.3,27.2,44,26.6,44,26C44,24.9,44.9,24,46,24z M36.1,24c-0.5,0-0.9,0.4-0.9,1s0.4,1,0.9,1
				c0.5,0,0.9-0.4,0.9-1S36.6,24,36.1,24z M4,21c0,1.1-0.9,2-2,2c-1,0-1.9-0.7-2-1.8c-0.1-1,0.5-2,1.5-2.2C3.9,8.3,13.5,0.8,24.5,1
				s20.3,8.2,22.2,19l0.1,0.2c0,0.1,0,0.1,0,0.2V21H35v-4c0-0.6-0.4-1-1-1H14c-0.6,0-1,0.4-1,1v4.3c0.6,0.4,1,1,1,1.7
				c0,1.1-0.9,2-2,2s-2-0.9-2-2c0-0.7,0.4-1.4,1-1.7V17c0-1.7,1.3-3,3-3h20c1.7,0,3,1.3,3,3v2h7.4C42,9.5,33.5,2.9,23.7,3.1
				s-18.1,7-20.2,16.6C3.8,20,4,20.5,4,21z M12,24c0.6,0,1-0.4,1-1s-0.4-1-1-1c-0.6,0-1,0.4-1,1S11.5,24,12,24z M31.5,21
				c0.3,0,0.5,0.2,0.5,0.5c0,0.3-0.2,0.5-0.5,0.5h-15c-0.3,0-0.5-0.2-0.5-0.5c0-0.3,0.2-0.5,0.5-0.5H31.5z M31.5,25
				c0.3,0,0.5,0.2,0.5,0.5c0,0.3-0.2,0.5-0.5,0.5h-15c-0.3,0-0.5-0.2-0.5-0.5c0-0.3,0.2-0.5,0.5-0.5H31.5z"/>
		</g>
	</g>
</g>
</svg>
