<svg id="图层_1" data-name="图层 1" xmlns="http://www.w3.org/2000/svg" viewBox="0 0 40.2 43.91"><title>IoTStage</title><g id="IoT服务图标_IoTEdge" data-name="IoT服务图标/IoTEdge"><path id="形状" d="M27.7,2.13l.3.2,12.1,7a7.94,7.94,0,0,1,4,6.9v13.9a7.82,7.82,0,0,1-4,6.9L28,44a8.14,8.14,0,0,1-8,0L7.9,37a7.94,7.94,0,0,1-4-6.9v-14A7.82,7.82,0,0,1,7.65,9.38L20,2.23A7.83,7.83,0,0,1,27.7,2.13ZM21,4,8.9,11a6,6,0,0,0-3,5.2v13.9a6,6,0,0,0,3,5.2l12.1,7a5.87,5.87,0,0,0,6,0l12.1-7a6,6,0,0,0,3-5.2v-14a6,6,0,0,0-3-5.2L27,4l-.2-.1A6.26,6.26,0,0,0,21,4Zm3,3.6a2.5,2.5,0,0,1,.5,5v2.26l6.9,4v8l2,1.16a2.46,2.46,0,0,1,1.73-.86h.16a2.5,2.5,0,1,1-2.5,2.5,2.42,2.42,0,0,1,.12-.76l-2-1.16-6.9,4-6.9-4-2,1.16a2.36,2.36,0,0,1,.11.6v.16A2.51,2.51,0,1,1,14.59,28l2-1.16v-8l6.9-4V12.58a2.51,2.51,0,0,1-2-2.28v-.17A2.5,2.5,0,0,1,24,7.63Zm11.3,20.5a1.5,1.5,0,1,0,1.5,1.5A1.5,1.5,0,0,0,35.3,28.13Zm-22.6,0a1.5,1.5,0,1,0,1.5,1.5A1.5,1.5,0,0,0,12.7,28.13ZM24,15.71l-6.4,3.71v7.42L24,30.55l6.4-3.71V19.42ZM23.9,20a3,3,0,0,1,2.47,1.2l.11.16.05.09h0a2.45,2.45,0,0,1,1.91,2v.34a2.41,2.41,0,0,1-2.23,2.4H21.5a2,2,0,0,1-2-2,2.1,2.1,0,0,1,1.15-1.81l.15-.06.08,0v0a3.2,3.2,0,0,1,2.64-2.25h.37Zm0,1a2.17,2.17,0,0,0-2.07,1.63l0,.15-.06.36-.36.06a1.1,1.1,0,0,0-.87,1,1,1,0,0,0,.89,1H26.1a1.4,1.4,0,0,0,1.4-1.4,1.44,1.44,0,0,0-1.21-1.38l-.14,0-.29,0-.12-.27A1.94,1.94,0,0,0,23.9,21ZM24,8.63a1.5,1.5,0,1,0,1.5,1.5A1.5,1.5,0,0,0,24,8.63Z" transform="translate(-3.9 -1.17)"/></g></svg>