<?xml version="1.0" encoding="utf-8"?>
<!-- Generator: Adobe Illustrator 21.0.0, SVG Export Plug-In . SVG Version: 6.00 Build 0)  -->
<svg version="1.1" id="图层_1" xmlns="http://www.w3.org/2000/svg" xmlns:xlink="http://www.w3.org/1999/xlink" x="0px" y="0px"
	 viewBox="0 0 48 48" style="enable-background:new 0 0 48 48;" xml:space="preserve">
<style type="text/css">
	.st0{fill:#040000;}
</style>
<path class="st0" d="M15.6,32c0.1,0,0.3,0,0.4,0h20.1c1,0,1.9-0.7,2.3-1.5l7.4-17.2c0.2-0.6,0.2-1.1-0.1-1.6S44.9,11,44.3,11H10.5
	L9.3,6.7C9,5.7,8,5,7,5H3C2.4,5,2,5.4,2,6s0.4,1,1,1h4c0.1,0,0.3,0.1,0.3,0.2l4.1,14.6l0,0l2.4,8.4c0.1,0.3,0,0.9-0.1,1.2L12,35
	c-2.2,0-4,1.8-4,4s1.8,4,4,4c1.8,0,3.4-1.2,3.9-2.9c0,0,0,0,0-0.1h16.4c0.4,1.7,2,3,3.9,3c1.8,0,3.4-1.2,3.9-2.9
	c0.1-0.3,0.1-0.7,0.1-1.1c0-2.2-1.8-4-4-4c-1.9,0-3.4,1.3-3.9,3H15.9c-0.3-1.1-1-2-2-2.5l1.5-3.2C15.6,32.2,15.6,32.1,15.6,32z
	 M36.3,36c1.7,0,3,1.3,3,3c0,0.3,0,0.5-0.1,0.8c-0.4,1.3-1.6,2.2-2.9,2.2c-1.7,0-3-1.3-3-3S34.6,36,36.3,36z M15.1,39
	c0,0.3,0,0.5-0.1,0.8c-0.4,1.3-1.6,2.2-3,2.2c-1.7,0-3-1.3-3-3s1.4-3,3-3S15.1,37.3,15.1,39z M11,13h32.8l-7.2,16.7
	c-0.1,0.1-0.3,0.3-0.5,0.3h-20c-0.1,0-0.3-0.1-0.3-0.2L11,13z"/>
</svg>
