<svg id="图层_1" data-name="图层 1" xmlns="http://www.w3.org/2000/svg" viewBox="0 0 38.6 44"><defs><style>.cls-1{fill:#484848;fill-rule:evenodd;}</style></defs><title>IVSCS</title><path class="cls-1" d="M42.85,10.82,26.56,1.57a3.55,3.55,0,0,0-1.5-.5,3.55,3.55,0,0,0-1.51.5L7.26,10.82a3.56,3.56,0,0,0-1.5,3v18.5a3.56,3.56,0,0,0,1.5,3l16.29,9.25a3.55,3.55,0,0,0,1.51.5,3.55,3.55,0,0,0,1.5-.5l16.29-9.25a3.57,3.57,0,0,0,1.51-3V13.82A3.57,3.57,0,0,0,42.85,10.82Zm-.25,21.5a1.37,1.37,0,0,1-.75,1.25l-16,9.5c-.25,0-.5.25-.75.25s-.51-.25-.76-.25l-16-9.5a1.37,1.37,0,0,1-.75-1.25V13.82a1.37,1.37,0,0,1,.75-1.25l16-9.5c.25,0,.51-.25.76-.25s.5.25.75.25l16,9.5a1.37,1.37,0,0,1,.75,1.25ZM25.06,11.07a12.17,12.17,0,0,0-12,12,12.17,12.17,0,0,0,12,12,12,12,0,1,0,0-24Zm0,23a11.1,11.1,0,0,1-11-11,10.84,10.84,0,0,1,2.12-6.42,1.84,1.84,0,1,0,2.34-2.37,10.87,10.87,0,0,1,6.54-2.21,11,11,0,1,1,0,22Zm0-17.4a6.62,6.62,0,0,0-6.5,6.5,6.5,6.5,0,0,0,13,0A6.62,6.62,0,0,0,25.06,16.67Zm0,12a5.5,5.5,0,1,1,5.5-5.5A5.55,5.55,0,0,1,25.06,28.67Z" transform="translate(-5.76 -1.07)"/></svg>