<svg id="图层_1" data-name="图层 1" xmlns="http://www.w3.org/2000/svg" viewBox="0 0 44 34.05"><defs><style>.cls-1{fill:#333;}</style></defs><title>L2CG</title><path id="Combined-Shape" class="cls-1" d="M34.54,40V38.18H35a9.17,9.17,0,1,0,0-18.33,10.12,10.12,0,0,0-2.38.28,8.61,8.61,0,0,0,.55-3,9.17,9.17,0,0,0-18.34,0,8.25,8.25,0,0,0,.55,3A10.18,10.18,0,0,0,13,19.85a9.17,9.17,0,1,0,0,18.33h1.38V40H13a11,11,0,0,1,0-22h0V17.1a11,11,0,0,1,22,0V18h0a11,11,0,0,1,0,22Zm-15.4-7.79h4.49a.92.92,0,1,1,0,1.83H19.14v1.65a.86.86,0,0,1-.91.92,3.4,3.4,0,0,1-.46-.1l-4.31-2.65a.91.91,0,0,1-.28-1.29c.1-.09.19-.27.28-.27l4.31-2.66a1,1,0,0,1,1.28.27.86.86,0,0,1,.09.46Zm9.35-5.14V25.35a4.16,4.16,0,0,1,.09-.46.9.9,0,0,1,1.29-.27l4.3,2.66c.1.09.28.18.28.27a1,1,0,0,1-.28,1.28l-4.3,2.66a1,1,0,0,1-1.38-.82V29H24a.92.92,0,1,1,0-1.84h4.49Zm-9.35-1.92v1.74a4.16,4.16,0,0,1-.09.46.89.89,0,0,1-1.28.27L13.46,25c-.09-.09-.28-.18-.28-.27a1,1,0,0,1,.28-1.28l4.31-2.66a.83.83,0,0,1,.46-.09.86.86,0,0,1,.91.91v1.65h4.49a.92.92,0,1,1,0,1.84H19.14Zm9.35,12.37H24a.92.92,0,1,1,0-1.83h4.49V34.06a.87.87,0,0,1,.92-.92c.18,0,.36.09.46.09l4.3,2.66a.91.91,0,0,1,.28,1.29c-.09.09-.18.27-.28.27L29.87,40a1,1,0,0,1-1.29-.28.83.83,0,0,1-.09-.46Z" transform="translate(-2 -6.1)"/></svg>