<?xml version="1.0" encoding="utf-8"?>
<!-- Generator: Adobe Illustrator 21.0.0, SVG Export Plug-In . SVG Version: 6.00 Build 0)  -->
<svg version="1.1" id="图层_1" xmlns="http://www.w3.org/2000/svg" xmlns:xlink="http://www.w3.org/1999/xlink" x="0px" y="0px"
	 viewBox="0 0 48 48" enable-background="new 0 0 48 48" xml:space="preserve">
<path d="M25.4,24.7L17,20c-0.3-0.2-0.7-0.2-1,0s-0.5,0.5-0.5,0.9v9.3c0,0.4,0.2,0.7,0.5,0.9c0.2,0.1,0.3,0.1,0.5,0.1
	c0.2,0,0.3,0,0.5-0.1l8.5-4.7c0.3-0.2,0.5-0.5,0.5-0.9C26,25.2,25.8,24.8,25.4,24.7z M25,25.5l-8.5,4.7v-9.3L25,25.5L25,25.5z
	 M44,14.9c-0.3,0-0.6,0.1-1,0.2l-6,3.3v-1.9c0-2.8-2.2-5-5-5H7c-2.8,0-5,2.2-5,5v18c0,2.8,2.2,5,5,5h25c2.8,0,5-2.2,5-5v-1.9l6,3.3
	c0.3,0.2,0.6,0.2,1,0.2c1,0,2-0.8,2-2V16.9C46,15.7,45,14.9,44,14.9z M35,34.5c0,1.7-1.3,3-3,3H7c-1.7,0-3-1.3-3-3v-18
	c0-1.7,1.3-3,3-3h25c1.7,0,3,1.3,3,3V34.5z M44,34.2l-7-3.8v-9.6l7-3.8V34.2z"/>
</svg>
