<svg id="图层_1" data-name="图层 1" xmlns="http://www.w3.org/2000/svg" viewBox="0 0 44 44"><title>未标题-2</title><path d="M15,16a1,1,0,0,0-1,1v1H10.5a.5.5,0,0,0,0,1H14v1a1,1,0,0,0,2,0V19H37.5a.5.5,0,0,0,0-1H16V17A1,1,0,0,0,15,16ZM8.54,36.68A1,1,0,0,0,7,38,22.22,22.22,0,0,0,10.05,41a1,1,0,0,0,1.27-1.55A20.19,20.19,0,0,1,8.54,36.68ZM4.85,29.78a1,1,0,1,0-1.92.58,21.88,21.88,0,0,0,1.65,4,1,1,0,0,0,1.76-.94A19.88,19.88,0,0,1,4.85,29.78Zm35.39,9A22,22,0,1,0,2,24c0,.7,0,1.4.1,2.09a1,1,0,0,0,1,.91h.09a1,1,0,0,0,.9-1.09C4,25.28,4,24.63,4,24A20,20,0,1,1,24,44c-.63,0-1.27,0-1.91-.09a1,1,0,0,0-.19,2c.7.06,1.4.1,2.09.1a21.91,21.91,0,0,0,14.83-5.76l4.47,4.47a1,1,0,0,0,1.41-1.41ZM10.5,30H32v1a1,1,0,0,0,2,0V30h3.5a.5.5,0,0,0,0-1H34V28a1,1,0,0,0-2,0v1H10.5a.5.5,0,0,0,0,1Zm7.73,13.16a19.87,19.87,0,0,1-3.64-1.5,1,1,0,1,0-.94,1.76,22,22,0,0,0,4,1.65,1,1,0,0,0,.29,0,1,1,0,0,0,.29-2Z" transform="translate(-2 -2)"/></svg>