<?xml version="1.0" encoding="utf-8"?>
<!-- Generator: Adobe Illustrator 21.0.0, SVG Export Plug-In . SVG Version: 6.00 Build 0)  -->
<svg version="1.1" id="图层_1" xmlns="http://www.w3.org/2000/svg" xmlns:xlink="http://www.w3.org/1999/xlink" x="0px" y="0px"
	 viewBox="0 0 48 48" style="enable-background:new 0 0 48 48;" xml:space="preserve">
<path d="M28,40H6c-1.1,0-2-0.9-2-2V10c0-1.1,0.9-2,2-2h4.2c0.4,1.2,1.5,2,2.8,2c1.7,0,3-1.3,3-3s-1.3-3-3-3c-1.3,0-2.4,0.8-2.8,2H6
	c-2.2,0-4,1.8-4,4v28c0,2.2,1.8,4,4,4h22c0.6,0,1-0.4,1-1S28.6,40,28,40z M13,5c1.1,0,2,0.9,2,2s-0.9,2-2,2s-2-0.9-2-2S11.9,5,13,5z
	 M30.3,22.7L30.3,22.7l-9-5.5c-0.5-0.3-1-0.3-1.5,0c-0.5,0.3-0.8,0.8-0.8,1.3v11c0,0.5,0.3,1,0.8,1.3c0.2,0.1,0.5,0.2,0.7,0.2
	c0.3,0,0.5-0.1,0.8-0.2l9-5.5C30.7,25,31,24.5,31,24S30.7,23,30.3,22.7z M29.8,24.4l-9,5.5c-0.2,0.1-0.4,0.1-0.5,0
	c-0.1,0-0.3-0.2-0.3-0.4v-11c0-0.3,0.2-0.4,0.3-0.4c0,0,0.1-0.1,0.2-0.1c0.1,0,0.2,0,0.3,0.1l9,5.5C30,23.7,30,23.9,30,24
	S30,24.3,29.8,24.4z M42,6H20c-0.6,0-1,0.4-1,1s0.4,1,1,1h22c1.1,0,2,0.9,2,2v28c0,1.1-0.9,2-2,2h-4.2c-0.4-1.2-1.5-2-2.8-2
	c-1.7,0-3,1.3-3,3s1.3,3,3,3c1.3,0,2.4-0.8,2.8-2H42c2.2,0,4-1.8,4-4V10C46,7.8,44.2,6,42,6z M35,43c-1.1,0-2-0.9-2-2s0.9-2,2-2
	s2,0.9,2,2S36.1,43,35,43z"/>
</svg>
