<svg id="图层_1" data-name="图层 1" xmlns="http://www.w3.org/2000/svg" width="35" height="42" viewBox="0 0 35 42"><defs><style>.cls-1{fill:#040000;}</style></defs><title>lts</title><path class="cls-1" d="M13.28,14.18H24.22a.52.52,0,0,0,.55-.55.51.51,0,0,0-.44-.56H13.39a.52.52,0,0,0-.55.56A.5.5,0,0,0,13.28,14.18Zm15.31-11H10.33c-2.3,0-3.83,2-3.83,4.42V40.7c0,2.44,1.53,4.43,3.83,4.43H37A4.58,4.58,0,0,0,41.5,40.7V16Zm-.22,2.65L38.55,16.39h-8c-1.42,0-2.19-1.22-2.19-2.76ZM39.31,40.7A2.37,2.37,0,0,1,37,42.91H10.33c-1.1,0-1.64-1-1.64-2.21V7.55c0-1.22.65-2.21,1.64-2.21h17v8.29c0,2.09,1.31,3.86,3.28,3.86h8.75ZM12.84,21.36a.52.52,0,0,0,.55.55H34.17a.52.52,0,0,0,.55-.55.59.59,0,0,0-.55-.55H13.39A.52.52,0,0,0,12.84,21.36ZM25.09,37A7.43,7.43,0,0,0,27,31.86,7.66,7.66,0,1,0,19.3,39.6a7.17,7.17,0,0,0,4.92-1.88l2.84,2.76a.4.4,0,0,0,.33.11.44.44,0,0,0,.44-.22.53.53,0,0,0,0-.77Zm-5.68,1.54A6.63,6.63,0,1,1,26,31.86,6.62,6.62,0,0,1,19.41,38.49Z" transform="translate(-6.5 -3.13)"/></svg>