<?xml version="1.0" encoding="utf-8"?>
<!-- Generator: Adobe Illustrator 21.0.0, SVG Export Plug-In . SVG Version: 6.00 Build 0)  -->
<svg version="1.1" id="图层_1" xmlns="http://www.w3.org/2000/svg" xmlns:xlink="http://www.w3.org/1999/xlink" x="0px" y="0px"
	 viewBox="0 0 48 48" style="enable-background:new 0 0 48 48;" xml:space="preserve">
<style type="text/css">
	.st0{fill:#040000;}
	.st1{fill:#060001;}
	.st2{fill:#080103;}
</style>
<path d="M35.5,13.7C33.6,9.1,29.1,6,24,6s-9.6,3.1-11.5,7.7C6.5,14.6,2,19.7,2,25.8C2,32.5,7.6,38,14.5,38c0.6,0,1-0.4,1-1
	s-0.4-1-1-1C8.7,36,4,31.4,4,25.8c0-5.2,4-9.6,9.3-10.2l0.6-0.1l0.2-0.6C15.6,10.8,19.6,8,24,8s8.4,2.8,9.9,6.9l0.2,0.6l0.6,0.1
	c5.3,0.6,9.3,5,9.3,10.2C44,31.4,39.3,36,33.5,36c-0.6,0-1,0.4-1,1s0.4,1,1,1C40.4,38,46,32.5,46,25.8C46,19.7,41.5,14.6,35.5,13.7z
	 M19.6,26L19.6,26l-8.1,0c-0.3,0-0.5,0.2-0.5,0.5s0.2,0.5,0.5,0.5h0l8.1,0h0c0.8,0,1.4,0.6,1.4,1.4L21,42l-2.9-3.7
	c-0.2-0.2-0.5-0.3-0.7-0.1c-0.2,0.2-0.3,0.5-0.1,0.7l3.8,4.8c0.1,0.1,0.2,0.2,0.4,0.2c0.1,0,0.1,0,0.2,0c0.2-0.1,0.3-0.3,0.3-0.5
	l0-15.1C22,27.1,20.9,26,19.6,26z M29.9,38.4L27,42l0-13.6c0-0.8,0.6-1.4,1.4-1.4h0l8.1,0h0c0.3,0,0.5-0.2,0.5-0.5S36.8,26,36.5,26
	l-8.1,0h0c-1.3,0-2.4,1.1-2.4,2.4l0,15.1c0,0.2,0.1,0.4,0.3,0.5c0.1,0,0.1,0,0.2,0c0.2,0,0.3-0.1,0.4-0.2l3.8-4.8
	c0.2-0.2,0.1-0.5-0.1-0.7C30.4,38.1,30.1,38.1,29.9,38.4z"/>
</svg>
