<?xml version="1.0" encoding="utf-8"?>
<!-- Generator: Adobe Illustrator 21.0.0, SVG Export Plug-In . SVG Version: 6.00 Build 0)  -->
<svg version="1.1" id="图层_1" xmlns="http://www.w3.org/2000/svg" xmlns:xlink="http://www.w3.org/1999/xlink" x="0px" y="0px"
	 viewBox="0 0 48 48" style="enable-background:new 0 0 48 48;" xml:space="preserve">
<style type="text/css">
	.st0{fill:#060001;}
	.st1{fill:#040000;}
	.st2{fill:none;stroke:#000000;stroke-miterlimit:10;}
	.st3{fill:#221815;}
	.st4{fill:#080102;}
	.st5{fill:none;stroke:#000000;stroke-width:2;stroke-linecap:round;stroke-linejoin:round;stroke-miterlimit:10;}
	.st6{fill:#070001;}
</style>
<g>
	<path d="M25.1,42.8H7.3c-0.6,0-1.1-0.5-1.1-1.1V6.3c0-0.6,0.5-1.1,1.1-1.1h28.9c0.6,0,1.1,0.5,1.1,1.1V24c0,0.6,0.5,1.1,1.1,1.1
		c0.6,0,1.1-0.5,1.1-1.1V6.3c0-1.8-1.5-3.3-3.3-3.3H7.3C5.5,3,4,4.5,4,6.3v35.4C4,43.5,5.5,45,7.3,45h17.8c0.6,0,1.1-0.5,1.1-1.1
		S25.7,42.8,25.1,42.8z"/>
	<path d="M42.6,33.3h-1.2c-0.1-0.3-0.2-0.6-0.3-0.8l0.8-0.8c0.6-0.6,0.6-1.5,0-2l-1.3-1.3c-0.5-0.5-1.5-0.5-2,0l-0.8,0.8
		c-0.3-0.1-0.6-0.2-0.8-0.3v-1.2c0-0.8-0.6-1.4-1.4-1.4h-1.8c-0.8,0-1.4,0.6-1.4,1.4v1.2c-0.3,0.1-0.6,0.2-0.8,0.3l-0.8-0.8
		c-0.5-0.5-1.5-0.5-2,0l-1.3,1.3c-0.6,0.6-0.6,1.5,0,2l0.8,0.8c-0.1,0.3-0.3,0.6-0.3,0.8h-1.2c-0.8,0-1.4,0.6-1.4,1.4v1.8
		c0,0.8,0.6,1.4,1.4,1.4h1.2c0.1,0.3,0.2,0.6,0.3,0.8l-0.8,0.8c-0.6,0.6-0.6,1.5,0,2l1.3,1.3c0.5,0.5,1.5,0.5,2,0l0.8-0.8
		c0.3,0.1,0.6,0.2,0.8,0.3v1.2c0,0.8,0.6,1.4,1.4,1.4h1.8c0.8,0,1.4-0.6,1.4-1.4v-1.2c0.3-0.1,0.6-0.2,0.8-0.3l0.8,0.8
		c0.5,0.5,1.5,0.5,2,0l1.3-1.3c0.6-0.6,0.6-1.5,0-2L41,38.8c0.1-0.3,0.3-0.6,0.3-0.8h1.2c0.8,0,1.4-0.6,1.4-1.4v-1.8
		C44,33.9,43.4,33.3,42.6,33.3z M42.9,36.5c0,0.2-0.2,0.3-0.3,0.3h-2l-0.1,0.4c-0.1,0.5-0.3,0.9-0.6,1.4L39.7,39l1.4,1.4
		c0.1,0.1,0.1,0.3,0,0.5l-1.3,1.3c-0.1,0.1-0.3,0.1-0.5,0l-1.4-1.4l-0.4,0.2c-0.4,0.2-0.9,0.4-1.4,0.6l-0.4,0.1v2
		c0,0.2-0.1,0.3-0.3,0.3h-1.8c-0.2,0-0.3-0.1-0.3-0.3v-2l-0.4-0.1c-0.5-0.1-1-0.3-1.4-0.6l-0.4-0.2l-1.4,1.4c-0.1,0.1-0.3,0.1-0.5,0
		L28,40.8c-0.1-0.1-0.1-0.3,0-0.5l1.4-1.4l-0.2-0.4c-0.2-0.4-0.4-0.9-0.6-1.4l-0.1-0.4h-2c-0.2,0-0.3-0.1-0.3-0.3v-1.8
		c0-0.2,0.2-0.3,0.3-0.3h2l0.1-0.4c0.1-0.5,0.3-0.9,0.6-1.4l0.2-0.4L28,30.8c-0.1-0.1-0.1-0.3,0-0.5l1.3-1.3c0.1-0.1,0.3-0.1,0.5,0
		l1.4,1.4l0.4-0.2c0.4-0.2,0.9-0.4,1.4-0.6l0.4-0.1v-2c0-0.2,0.2-0.3,0.3-0.3h1.8c0.2,0,0.3,0.1,0.3,0.3v2l0.4,0.1
		c0.5,0.1,1,0.3,1.4,0.6l0.4,0.2l1.4-1.4c0.1-0.1,0.3-0.1,0.5,0l1.3,1.3c0.1,0.1,0.1,0.3,0,0.5l-1.4,1.4l0.2,0.4
		c0.2,0.4,0.4,0.9,0.6,1.4l0.1,0.4h2c0.2,0,0.3,0.1,0.3,0.3V36.5z"/>
	<path d="M34.6,31.7c-2.1,0-3.9,1.7-3.9,3.9c0,2.1,1.7,3.9,3.9,3.9c2.1,0,3.9-1.7,3.9-3.9C38.4,33.5,36.7,31.7,34.6,31.7z
		 M34.6,38.4c-1.5,0-2.8-1.2-2.8-2.8c0-1.5,1.2-2.8,2.8-2.8c1.5,0,2.8,1.2,2.8,2.8C37.3,37.1,36.1,38.4,34.6,38.4z"/>
	<path d="M32.3,11.8H15.7c-0.3,0-0.6,0.2-0.6,0.6s0.2,0.6,0.6,0.6h16.7c0.3,0,0.6-0.2,0.6-0.6S32.6,11.8,32.3,11.8z"/>
	<path d="M12.3,11.8h-1.1c-0.3,0-0.6,0.2-0.6,0.6s0.2,0.6,0.6,0.6h1.1c0.3,0,0.6-0.2,0.6-0.6S12.6,11.8,12.3,11.8z"/>
	<path d="M32.9,17.9c0-0.3-0.2-0.6-0.6-0.6H15.7c-0.3,0-0.6,0.2-0.6,0.6s0.2,0.6,0.6,0.6h16.7C32.6,18.5,32.9,18.2,32.9,17.9z"/>
	<path d="M12.3,17.4h-1.1c-0.3,0-0.6,0.2-0.6,0.6s0.2,0.6,0.6,0.6h1.1c0.3,0,0.6-0.2,0.6-0.6S12.6,17.4,12.3,17.4z"/>
	<path d="M29.6,23.4c0-0.3-0.2-0.6-0.6-0.6H15.7c-0.3,0-0.6,0.2-0.6,0.6s0.2,0.6,0.6,0.6H29C29.3,24,29.6,23.8,29.6,23.4z"/>
	<path d="M12.3,22.9h-1.1c-0.3,0-0.6,0.2-0.6,0.6s0.2,0.6,0.6,0.6h1.1c0.3,0,0.6-0.2,0.6-0.6S12.6,22.9,12.3,22.9z"/>
	<path d="M15.7,28.4c-0.3,0-0.6,0.2-0.6,0.6s0.2,0.6,0.6,0.6h7.8c0.3,0,0.6-0.2,0.6-0.6s-0.2-0.6-0.6-0.6H15.7z"/>
	<path d="M11.2,28.4c-0.3,0-0.6,0.2-0.6,0.6s0.2,0.6,0.6,0.6h1.1c0.3,0,0.6-0.2,0.6-0.6s-0.2-0.6-0.6-0.6H11.2z"/>
</g>
</svg>
