<?xml version="1.0" encoding="utf-8"?>
<!-- Generator: Adobe Illustrator 21.0.0, SVG Export Plug-In . SVG Version: 6.00 Build 0)  -->
<svg version="1.1" id="图层_1" xmlns="http://www.w3.org/2000/svg" xmlns:xlink="http://www.w3.org/1999/xlink" x="0px" y="0px"
	 viewBox="0 0 48 48" style="enable-background:new 0 0 48 48;" xml:space="preserve">
<style type="text/css">
	.st0{fill:#060001;}
	.st1{fill:#040000;}
	.st2{fill:none;stroke:#000000;stroke-miterlimit:10;}
	.st3{fill:#221815;}
	.st4{fill:#080102;}
	.st5{fill:none;stroke:#000000;stroke-width:2;stroke-linecap:round;stroke-linejoin:round;stroke-miterlimit:10;}
	.st6{fill:#070001;}
</style>
<path d="M24.3,27.2c-0.2-0.2-0.5-0.2-0.6,0l-6,5c-0.2,0.2-0.2,0.5-0.1,0.7c0.2,0.2,0.5,0.2,0.7,0.1l5.2-4.3v9.9
	c0,0.3,0.2,0.5,0.5,0.5s0.5-0.2,0.5-0.5v-9.9l5.2,4.3c0.1,0.1,0.2,0.1,0.3,0.1c0.1,0,0.3-0.1,0.4-0.2c0.2-0.2,0.1-0.5-0.1-0.7
	L24.3,27.2z M32.4,26.4l-6.7-3.9c-0.5-0.3-1-0.4-1.6-0.4s-1.2,0.1-1.6,0.4l-6.7,3.9c-0.9,0.5-1.6,1.7-1.6,2.8V37
	c0,1,0.7,2.3,1.6,2.8l6.7,3.9c0.5,0.3,1,0.4,1.6,0.4s1.2-0.1,1.6-0.4l6.7-3.9C33.3,39.2,34,38,34,37v-7.8
	C34,28.2,33.3,26.9,32.4,26.4z M33,37c0,0.7-0.5,1.6-1.1,1.9l-6.7,3.9C24.8,42.9,24.4,43,24,43c-0.4,0-0.8-0.1-1.1-0.3l-6.7-3.9
	C15.5,38.5,15,37.6,15,37v-7.8c0-0.7,0.5-1.6,1.1-1.9l6.7-3.9c0.3-0.2,0.7-0.3,1.1-0.3s0.8,0.1,1.1,0.3l6.7,3.9
	c0.6,0.3,1.1,1.2,1.1,1.9V37z M35.5,11.7C33.7,7.1,29.1,4,24,4s-9.7,3.1-11.5,7.7C6.5,12.7,2,17.8,2,24c0,4.8,3.8,9,7.5,11
	c0.5,0.3,1.1,0.1,1.4-0.4c0.3-0.5,0.1-1.1-0.4-1.3C7.3,31.4,4,27.9,4,24c0-5.3,4-9.7,9.3-10.3c0.4,0,0.7-0.3,0.8-0.7
	c1.5-4.2,5.4-7,9.9-7s8.4,2.8,9.9,7c0.1,0.4,0.5,0.6,0.8,0.7C40,14.2,44,18.7,44,24c0,4.2-2.4,7.6-6.4,9.2c-0.5,0.2-0.8,0.8-0.6,1.3
	c0.2,0.4,0.5,0.6,0.9,0.6c0.1,0,0.2,0,0.4-0.1c4.8-1.9,7.6-6,7.6-11C46,17.8,41.5,12.7,35.5,11.7z"/>
</svg>
