<?xml version="1.0" encoding="utf-8"?>
<!-- Generator: Adobe Illustrator 21.0.0, SVG Export Plug-In . SVG Version: 6.00 Build 0)  -->
<svg version="1.1" id="图层_1" xmlns="http://www.w3.org/2000/svg" xmlns:xlink="http://www.w3.org/1999/xlink" x="0px" y="0px"
	 viewBox="0 0 48 48" style="enable-background:new 0 0 48 48;" xml:space="preserve">
<style type="text/css">
	.st0{fill:#060001;}
	.st1{fill:#040000;}
	.st2{fill:none;stroke:#000000;stroke-miterlimit:10;}
	.st3{fill:#221815;}
	.st4{fill:#080102;}
	.st5{fill:none;stroke:#000000;stroke-width:2;stroke-linecap:round;stroke-linejoin:round;stroke-miterlimit:10;}
	.st6{fill:#070001;}
</style>
<g>
	<path d="M37.8,4H10.2C8.4,4,7,5.4,7,7.2v33.7c0,1.7,1.4,3.2,3.2,3.2h27.6c1.8,0,3.2-1.4,3.2-3.2V7.2C41,5.4,39.6,4,37.8,4z
		 M38.9,40.8c0,0.6-0.5,1.1-1.1,1.1H10.2c-0.6,0-1.1-0.5-1.1-1.1V7.2c0-0.6,0.5-1.1,1.1-1.1h27.6c0.6,0,1.1,0.5,1.1,1.1V40.8z"/>
	<path d="M36.2,37.7h-0.5V20.8c0-0.6-0.5-1.1-1.1-1.1h-2.1c-0.6,0-1.1,0.5-1.1,1.1v16.8h-2.1V27.2c0-0.6-0.5-1.1-1.1-1.1h-2.1
		c-0.6,0-1.1,0.5-1.1,1.1v10.5h-2.1V24c0-0.6-0.5-1.1-1.1-1.1h-2.1c-0.6,0-1.1,0.5-1.1,1.1v13.7h-2.1v-8.4c0-0.6-0.5-1.1-1.1-1.1
		h-2.1c-0.6,0-1.1,0.5-1.1,1.1v8.4h-0.5c-0.3,0-0.6,0.2-0.6,0.5s0.3,0.5,0.6,0.5h0.5h1.1h2.1h1.1h2.1h1.1h2.1h1.1h2.1h1.1h2.1h1.1
		h3.2h2.1h1.5c0.3,0,0.6-0.2,0.6-0.5C36.7,37.9,36.5,37.7,36.2,37.7z M13.4,37.7v-8.4h2.1v8.4H13.4z M19.8,37.7V24h2.1v13.7H19.8z
		 M26.1,37.7V27.2h2.1v10.5H26.1z M32.5,37.7V20.8h2.1v16.8H32.5z"/>
	<path d="M14.4,21.1c0.9,0,1.6-0.7,1.6-1.6c0-0.1,0-0.2,0-0.3l3.8-2.2c0.3,0.2,0.6,0.4,1,0.4c0.6,0,1-0.3,1.3-0.7l3.5,0.9
		c0.1,0.8,0.8,1.4,1.6,1.4c0.9,0,1.6-0.7,1.6-1.6c0-0.2,0-0.3-0.1-0.5l4-3.2c0.2,0.2,0.5,0.2,0.8,0.2c0.9,0,1.6-0.7,1.6-1.6
		s-0.7-1.6-1.6-1.6S32,11.5,32,12.4c0,0.2,0,0.3,0.1,0.5l-4,3.2c-0.2-0.2-0.5-0.2-0.8-0.2c-0.6,0-1,0.3-1.3,0.7l-3.5-0.9
		c-0.1-0.8-0.8-1.4-1.6-1.4c-0.9,0-1.6,0.7-1.6,1.6c0,0.1,0,0.2,0,0.3l-3.8,2.2c-0.3-0.2-0.6-0.4-1-0.4c-0.9,0-1.6,0.7-1.6,1.6
		S13.6,21.1,14.4,21.1z"/>
</g>
</svg>
