<svg id="图层_1" data-name="图层 1" xmlns="http://www.w3.org/2000/svg" viewBox="0 0 39.95 44"><defs><style>.cls-1{fill:#484848;fill-rule:evenodd;}</style></defs><title>Mebile AI</title><path class="cls-1" d="M33.05,24.06c0-.19-.1-.29-.3-.39l-17.68-10L25.06,8l9.08,5.2c0,.1-.09.3-.09.39a1.5,1.5,0,1,0,1.51-1.49,1.13,1.13,0,0,0-.81.3L25.35,7a.48.48,0,0,0-.49,0l-11,6.3a.53.53,0,0,0-.29.41c0,.2.1.29.29.39l17.79,10-10.6,6.61V21.55a.46.46,0,0,0-.49-.49.47.47,0,0,0-.51.49v10a.41.41,0,0,0,.3.41.44.44,0,0,1,.21.1.37.37,0,0,0,.3-.1l12-7.5a.52.52,0,0,0,.2-.4Zm-9.6,15.3-12.38-7.2V20a1.48,1.48,0,0,0,1-1.41,1.5,1.5,0,0,0-3,0,1.4,1.4,0,0,0,1,1.41v12.5a.52.52,0,0,0,.2.41l12.59,7.29c.1,0,.2.1.3.1a.6.6,0,0,0,.41-.2.46.46,0,0,0-.12-.7Zm16.1-22.2a.48.48,0,0,0-.51.51V32.16l-9.38,5.39a1.68,1.68,0,0,0-1.1-.49,1.5,1.5,0,1,0,1.49,1.49v-.09l9.79-5.59a.53.53,0,0,0,.3-.41V17.67a.63.63,0,0,0-.59-.51Zm2.29-6.49L28.35,2.87a7.09,7.09,0,0,0-6.58,0l-13.5,7.8a6.94,6.94,0,0,0-3.19,5.59V31.87a7.11,7.11,0,0,0,3.19,5.59l13.5,7.8a6.84,6.84,0,0,0,3.29.8,7.17,7.17,0,0,0,3.29-.8l13.49-7.8A7.11,7.11,0,0,0,45,31.87V16.26a6.94,6.94,0,0,0-3.19-5.59ZM43,31.87a5.23,5.23,0,0,1-2.29,3.9l-13.5,7.78a4.19,4.19,0,0,1-2.19.51,4.85,4.85,0,0,1-2.29-.51L9.37,35.77a5.2,5.2,0,0,1-2.29-3.9V16.26a5.19,5.19,0,0,1,2.29-3.9L22.86,4.55a4.56,4.56,0,0,1,2.2-.49,5.28,5.28,0,0,1,2.29.49l13.49,7.81a5.19,5.19,0,0,1,2.29,3.9V31.87Z" transform="translate(-5.08 -2.06)"/></svg>