<?xml version="1.0" encoding="utf-8"?>
<!-- Generator: Adobe Illustrator 21.0.0, SVG Export Plug-In . SVG Version: 6.00 Build 0)  -->
<svg version="1.1" id="图层_1" xmlns="http://www.w3.org/2000/svg" xmlns:xlink="http://www.w3.org/1999/xlink" x="0px" y="0px"
	 viewBox="0 0 48 48" style="enable-background:new 0 0 48 48;" xml:space="preserve">
<path d="M32,24c0-0.2-0.1-0.3-0.3-0.4L14,13.6l10-5.7l9.1,5.2c0,0.1-0.1,0.3-0.1,0.4c0,0.8,0.7,1.5,1.5,1.5s1.5-0.7,1.5-1.5
	S35.3,12,34.5,12c-0.3,0-0.6,0.1-0.8,0.3l-9.4-5.4c-0.2-0.1-0.3-0.1-0.5,0l-11,6.3c-0.2,0.1-0.3,0.3-0.3,0.4c0,0.2,0.1,0.3,0.3,0.4
	l17.8,10L20,30.6v-9.1c0-0.3-0.2-0.5-0.5-0.5S19,21.2,19,21.5v10c0,0.2,0.1,0.3,0.3,0.4c0.1,0,0.2,0.1,0.2,0.1c0.1,0,0.2,0,0.3-0.1
	l12-7.5C31.9,24.3,32,24.2,32,24z M22.4,39.3L10,32.1V19.9c0.6-0.2,1-0.8,1-1.4c0-0.8-0.7-1.5-1.5-1.5S8,17.7,8,18.5
	c0,0.7,0.4,1.2,1,1.4v12.5c0,0.2,0.1,0.3,0.2,0.4l12.6,7.3c0.1,0,0.2,0.1,0.3,0.1c0.2,0,0.3-0.1,0.4-0.2
	C22.7,39.7,22.6,39.4,22.4,39.3z M38.5,17.1c-0.3,0-0.5,0.2-0.5,0.5v14.5l-9.4,5.4c-0.3-0.3-0.7-0.5-1.1-0.5c-0.8,0-1.5,0.7-1.5,1.5
	s0.7,1.5,1.5,1.5s1.5-0.7,1.5-1.5c0,0,0-0.1,0-0.1l9.8-5.6c0.2-0.1,0.3-0.3,0.3-0.4V17.6C39,17.3,38.8,17.1,38.5,17.1z M40.8,10.6
	L27.3,2.8C26.3,2.3,25.2,2,24,2s-2.3,0.3-3.3,0.8L7.2,10.6C5.4,11.6,4,14.1,4,16.2v15.6c0,2.1,1.4,4.5,3.2,5.6l13.5,7.8
	c0.9,0.5,2.1,0.8,3.3,0.8s2.3-0.3,3.3-0.8l13.5-7.8c1.8-1.1,3.2-3.5,3.2-5.6V16.2C44,14.1,42.6,11.6,40.8,10.6z M42,31.8
	c0,1.4-1.1,3.2-2.3,3.9l-13.5,7.8C25.7,43.8,24.9,44,24,44s-1.7-0.2-2.3-0.5L8.3,35.7C7.1,35,6,33.2,6,31.8V16.2
	c0-1.4,1.1-3.2,2.3-3.9l13.5-7.8C22.3,4.2,23.1,4,24,4s1.7,0.2,2.3,0.5l13.5,7.8c1.2,0.7,2.3,2.5,2.3,3.9V31.8z"/>
</svg>
