<svg id="图层_1" data-name="图层 1" xmlns="http://www.w3.org/2000/svg" viewBox="0 0 44.04 30.03"><title>meeting</title><path d="M46.05,28.14a10.44,10.44,0,0,0-10.28-9.38A13,13,0,0,0,22.35,9.14,12.81,12.81,0,0,0,10.05,20a9.7,9.7,0,0,0-8,10.15,9.85,9.85,0,0,0,9.38,9H36.76a2.06,2.06,0,0,0,.65-.07A10.35,10.35,0,0,0,46.05,28.14Zm-9.81,9H11.94a8,8,0,0,1-7.89-7.77A7.66,7.66,0,0,1,12,22,10.91,10.91,0,0,1,22.58,11.14c5.92-.26,11.19,4.18,11.61,9.86a6.56,6.56,0,0,1,1.47-.17c4.46.08,8.26,3.49,8.41,7.77a8.53,8.53,0,0,1-7.86,8.54Zm-3.69-14.2a.93.93,0,0,0-.44.11l-3.06,1.51V22.64a1.5,1.5,0,0,0-1.5-1.5h-12a1.5,1.5,0,0,0-1.5,1.5v9a1.5,1.5,0,0,0,1.5,1.5h12a1.5,1.5,0,0,0,1.5-1.5h0V29.86l3.1,1.35a1.29,1.29,0,0,0,.4.08,1,1,0,0,0,.92-.6,1.42,1.42,0,0,0,.08-.4V23.94A1,1,0,0,0,32.55,22.94Zm-4.5,8.7a.51.51,0,0,1-.5.5h-12a.5.5,0,0,1-.5-.5v-9a.5.5,0,0,1,.5-.5h12a.5.5,0,0,1,.5.5Zm4.5-1.35-3.5-1.52v-3.1l3.5-1.73Zm-14.5-6.15a1,1,0,0,1-2,0,1,1,0,0,1,2,0Z" transform="translate(-2.03 -9.11)"/></svg>