<?xml version="1.0" encoding="utf-8"?>
<!-- Generator: Adobe Illustrator 21.0.0, SVG Export Plug-In . SVG Version: 6.00 Build 0)  -->
<svg version="1.1" id="图层_1" xmlns="http://www.w3.org/2000/svg" xmlns:xlink="http://www.w3.org/1999/xlink" x="0px" y="0px"
	 viewBox="0 0 48 48" style="enable-background:new 0 0 48 48;" xml:space="preserve">
<path d="M25,11c-4.9,0-9.2,3.7-9.9,8.5C15,20,15,20.5,15,21c0,1.9-1.9,6.3-2,6.3c-0.1,0.2-0.1,0.3,0,0.5c0.1,0.1,0.2,0.2,0.4,0.2
	h2.6L16,33.5c0,0.1,0.1,0.3,0.1,0.4c0.1,0.1,0.2,0.1,0.4,0.1H21v2.5c0,0.3,0.2,0.5,0.5,0.5s0.5-0.2,0.5-0.5v-3
	c0-0.3-0.2-0.5-0.5-0.5H17l0.1-5.5c0-0.1-0.1-0.3-0.1-0.4c-0.1-0.1-0.2-0.1-0.4-0.1h-2.3c0.6-1.4,1.7-4.4,1.7-6c0-0.4,0-0.9,0.1-1.3
	c0.4-3,2.3-5.4,4.9-6.7v3.6c-0.6,0.2-1,0.8-1,1.4c0,0.8,0.7,1.5,1.5,1.5S23,18.8,23,18c0-0.7-0.4-1.2-1-1.4v-4.1
	c0.9-0.3,2-0.5,3-0.5v6.1c0,0.2,0.1,0.4,0.3,0.4l1.7,0.8v6.2c0,0.2,0.1,0.3,0.2,0.4l4.7,3.7c-0.1,1.3-0.1,2.5-0.1,3.6L28.9,31
	c0.1-0.2,0.1-0.3,0.1-0.5c0-0.8-0.7-1.5-1.5-1.5S26,29.7,26,30.5s0.7,1.5,1.5,1.5c0.3,0,0.5-0.1,0.7-0.2l3.6,2.8
	c0.1,1.1,0.2,1.9,0.2,2c0,0.2,0.2,0.4,0.5,0.4c0,0,0,0,0.1,0c0.3,0,0.5-0.3,0.4-0.6c0-0.1-1-6.9,0.8-10.7C34.6,24,35,22.5,35,21
	C35,15.5,30.5,11,25,11z M32.9,25.3c-0.4,0.9-0.7,2-0.9,3.2l-4-3.1v-6.2c0-0.2-0.1-0.4-0.3-0.4L26,17.8v-5.7c1.5,0.2,2.8,0.7,4,1.5
	v7c0,0.3,0.2,0.5,0.5,0.5s0.5-0.2,0.5-0.5v-6.2c1.8,1.6,3,4,3,6.7C34,22.3,33.7,23.7,32.9,25.3z M40.8,10.6L27.3,2.8
	C26.3,2.3,25.2,2,24,2s-2.3,0.3-3.3,0.8L7.2,10.6C5.4,11.6,4,14.1,4,16.2v15.6c0,2.1,1.4,4.5,3.2,5.6l13.5,7.8
	c0.9,0.5,2.1,0.8,3.3,0.8s2.3-0.3,3.3-0.8l13.5-7.8c1.8-1.1,3.2-3.5,3.2-5.6V16.2C44,14.1,42.6,11.6,40.8,10.6z M42,31.8
	c0,1.4-1.1,3.2-2.3,3.9l-13.5,7.8C25.7,43.8,24.9,44,24,44s-1.7-0.2-2.3-0.5L8.3,35.7C7.1,35,6,33.2,6,31.8V16.2
	c0-1.4,1.1-3.2,2.3-3.9l13.5-7.8C22.3,4.2,23.1,4,24,4s1.7,0.2,2.3,0.5l13.5,7.8c1.2,0.7,2.3,2.5,2.3,3.9V31.8z"/>
</svg>
