<?xml version="1.0" encoding="utf-8"?>
<!-- Generator: Adobe Illustrator 21.0.0, SVG Export Plug-In . SVG Version: 6.00 Build 0)  -->
<svg version="1.1" id="图层_1" xmlns="http://www.w3.org/2000/svg" xmlns:xlink="http://www.w3.org/1999/xlink" x="0px" y="0px"
	 viewBox="0 0 48 48" style="enable-background:new 0 0 48 48;" xml:space="preserve">
<style type="text/css">
	.st0{fill:#231816;}
</style>
<path class="st0" d="M17.5,20h17c0.3,0,0.5-0.2,0.5-0.5S34.8,19,34.5,19h-17c-0.3,0-0.5,0.2-0.5,0.5S17.2,20,17.5,20z M17.5,14h17
	c0.3,0,0.5-0.2,0.5-0.5S34.8,13,34.5,13h-17c-0.3,0-0.5,0.2-0.5,0.5S17.2,14,17.5,14z M37.7,39.3c0,0-0.1-0.1-0.1-0.1
	C38.5,38,39,36.6,39,35c0-3.9-3.1-7-7-7s-7,3.1-7,7s3.1,7,7,7c1.6,0,3-0.5,4.2-1.4c0,0,0,0.1,0.1,0.1l3,3c0.2,0.2,0.5,0.3,0.7,0.3
	s0.5-0.1,0.7-0.3c0.4-0.4,0.4-1,0-1.4L37.7,39.3z M32,40c-2.8,0-5-2.2-5-5s2.2-5,5-5s5,2.2,5,5S34.8,40,32,40z M17.5,26h7
	c0.3,0,0.5-0.2,0.5-0.5S24.8,25,24.5,25h-7c-0.3,0-0.5,0.2-0.5,0.5S17.2,26,17.5,26z M14.5,13h-1c-0.3,0-0.5,0.2-0.5,0.5
	s0.2,0.5,0.5,0.5h1c0.3,0,0.5-0.2,0.5-0.5S14.8,13,14.5,13z M14.5,25h-1c-0.3,0-0.5,0.2-0.5,0.5s0.2,0.5,0.5,0.5h1
	c0.3,0,0.5-0.2,0.5-0.5S14.8,25,14.5,25z M14.5,19h-1c-0.3,0-0.5,0.2-0.5,0.5s0.2,0.5,0.5,0.5h1c0.3,0,0.5-0.2,0.5-0.5
	S14.8,19,14.5,19z M39.1,3H8.9C7.3,3,6,4.3,6,6v36c0,1.7,1.3,3,2.9,3h17.7c0.6,0,1-0.4,1-1s-0.4-1-1-1H8.9C8.4,43,8,42.6,8,42V6
	c0-0.6,0.4-1,0.9-1h30.1C39.6,5,40,5.4,40,6v23.8c0,0.6,0.4,1,1,1s1-0.4,1-1V6C42,4.3,40.7,3,39.1,3z"/>
</svg>
