<?xml version="1.0" encoding="utf-8"?>
<!-- Generator: Adobe Illustrator 21.0.0, SVG Export Plug-In . SVG Version: 6.00 Build 0)  -->
<svg version="1.1" id="图层_1" xmlns="http://www.w3.org/2000/svg" xmlns:xlink="http://www.w3.org/1999/xlink" x="0px" y="0px"
	 viewBox="0 0 48 48" style="enable-background:new 0 0 48 48;" xml:space="preserve">
<path d="M15.5,35.5c0,0.3,0.2,0.5,0.5,0.5h16c0.2,0,0.4-0.1,0.5-0.3s0-0.4-0.1-0.5l-3-3c-0.2-0.2-0.5-0.2-0.7,0
	c-0.2,0.2-0.2,0.5,0,0.7l2.2,2.1H16C15.7,35,15.5,35.2,15.5,35.5z M35.5,13.7C33.6,9.1,29.1,6,24,6s-9.6,3.1-11.5,7.7
	C6.5,14.6,2,19.7,2,25.8c0,5.7,4.1,10.7,9.8,12c0.5,0.1,1.1-0.2,1.2-0.8c0.1-0.5-0.2-1.1-0.8-1.2c-4.8-1-8.2-5.2-8.2-10
	c0-5.2,4-9.6,9.3-10.2l0.6-0.1l0.2-0.6C15.6,10.8,19.6,8,24,8s8.4,2.8,9.9,6.9l0.2,0.6l0.6,0.1c5.3,0.6,9.3,5,9.3,10.2
	c0,4.8-3.5,9-8.2,10c-0.5,0.1-0.9,0.6-0.8,1.2c0.1,0.5,0.5,0.8,1,0.8c0.1,0,0.1,0,0.2,0c5.7-1.2,9.8-6.2,9.8-12
	C46,19.7,41.5,14.6,35.5,13.7z M32,38H16c-0.2,0-0.4,0.1-0.5,0.3s0,0.4,0.1,0.5l3,3C18.8,42,18.9,42,19,42c0.1,0,0.3,0,0.4-0.1
	c0.2-0.2,0.2-0.5,0-0.7L17.2,39H32c0.3,0,0.5-0.2,0.5-0.5S32.3,38,32,38z M21.5,28.9c0.3,0,0.5-0.1,0.7-0.2l6-3.4
	C28.7,25,29,24.5,29,24c0-0.5-0.3-1-0.8-1.3l-6-3.4c-0.5-0.3-1-0.3-1.5,0C20.3,19.6,20,20,20,20.6v6.8c0,0.5,0.3,1,0.7,1.3
	C21,28.9,21.2,28.9,21.5,28.9z M21,20.6c0-0.3,0.2-0.4,0.2-0.4c0,0,0.1-0.1,0.3-0.1c0.1,0,0.2,0,0.2,0.1l6,3.4
	C28,23.7,28,23.9,28,24c0,0.1,0,0.3-0.3,0.4l-6,3.4c-0.2,0.1-0.4,0-0.5,0c-0.1,0-0.2-0.2-0.2-0.4V20.6z"/>
</svg>
