<svg id="图层_1" data-name="图层 1" xmlns="http://www.w3.org/2000/svg" viewBox="0 0 43.71 48"><title>mtd</title><path d="M34.13,20.73a3.25,3.25,0,0,0-3.21,2.72H28.25a.57.57,0,0,0-.51.37L26.3,28,24.54,15.2a.53.53,0,0,0-.49-.46.51.51,0,0,0-.55.42l-1.9,8.29H19.75v-.11a.46.46,0,0,0-.44-.43h-.65a2.42,2.42,0,0,0-1.59-1.51l-3.27-1h-.15a2.88,2.88,0,0,0-1.91.31,2.25,2.25,0,0,0-1.09,1.57.54.54,0,0,0,.43.64h0a.53.53,0,0,0,.63-.4v0a1.15,1.15,0,0,1,.6-.83,1.84,1.84,0,0,1,1.26-.16l3.27,1a1.31,1.31,0,0,1,.83.78.24.24,0,0,0,0,.12v1.37a1.28,1.28,0,0,1-.82.83l-3.27,1a1.52,1.52,0,0,1-1.78-.81v-.14a.55.55,0,0,0-.55-.54.54.54,0,0,0-.54.54v.44a2.7,2.7,0,0,0,2.43,1.62,2.33,2.33,0,0,0,.73-.12l3.26-1a2.38,2.38,0,0,0,1.47-1.5h.69a.47.47,0,0,0,.44-.44v-.11H22a.54.54,0,0,0,.53-.42l1.3-5.79,1.65,12.06a.57.57,0,0,0,.49.47h.06a.54.54,0,0,0,.51-.37l2.06-5.95h2.29a3.27,3.27,0,1,0,3.21-3.81Zm0,5.45A2.18,2.18,0,1,1,36.31,24,2.19,2.19,0,0,1,34.13,26.18ZM43.56,9.29c-3.05-1-6.1-2.07-9.15-3.38A42.19,42.19,0,0,1,26.34.79,3.64,3.64,0,0,0,24.05,0h0a4.27,4.27,0,0,0-2.28.66A39.07,39.07,0,0,1,13.7,5.8,85,85,0,0,1,4.55,9.18a3.27,3.27,0,0,0-2.4,3.38c.55,5,1.74,14.71,4.69,20.7,3.48,6.86,12.09,12.2,15.47,14.27a3.32,3.32,0,0,0,3.49,0c3.37-2.07,12-7.41,15.47-14.27,2.94-6,4.14-15.69,4.58-20.6a3.26,3.26,0,0,0-2.29-3.37m-4.25,23Q36,38.82,24.6,45.68a1.17,1.17,0,0,1-1.2,0C15.88,41.11,11,36.53,8.8,32.28c-3.05-6.1-4.14-16.67-4.36-19.72a1.26,1.26,0,0,1,.87-1.2L6.18,11C9.12,10.05,12,9,14.79,7.76A43.76,43.76,0,0,0,22.53,3l.65-.55a1.3,1.3,0,0,1,.76-.22h.22a2.15,2.15,0,0,1,.87.22l.66.55a43.68,43.68,0,0,0,7.73,4.79C36.26,9,39.09,10.05,42,11l.87.33a1.18,1.18,0,0,1,.88,1.2c-.33,3-1.42,13.62-4.47,19.72" transform="translate(-2.14 -0.02)"/></svg>