<svg id="图层_1" data-name="图层 1" xmlns="http://www.w3.org/2000/svg" viewBox="0 0 40 40"><defs><style>.cls-1{fill:#040000;}</style></defs><title>MTS</title><path class="cls-1" d="M26,24h1V14H19V10H18v4H10V24h1V22h7v9h1V22h7Zm-8-3H11V15h7Zm1,0V15h7v6ZM16,40H8.2C7,40,6,38.4,6,37.2V7.6C6,6.2,7.4,6,8.2,6H37.7c.9,0,2.3.2,2.3,1.6V16a1,1,0,0,0,2,0V7.6C42,5.5,40.3,4,37.8,4H8.2C5.7,4,4,5.5,4,7.6V37.1C4,39.5,5.8,42,8.2,42H16a1,1,0,0,0,0-2ZM41,19.5a3,3,0,0,0-3,3,2.91,2.91,0,0,0,2,2.8V37.2c0,1.2-1,2.8-2.2,2.8h-12A2.91,2.91,0,0,0,23,38a3,3,0,0,0,0,6,2.91,2.91,0,0,0,2.8-2h12c2.4,0,4.2-2.5,4.2-4.8V25.3a2.91,2.91,0,0,0,2-2.8A3,3,0,0,0,41,19.5ZM23,43a2,2,0,1,1,2-2A2,2,0,0,1,23,43ZM41,24.5a2,2,0,1,1,2-2A2,2,0,0,1,41,24.5ZM27.4,35.6l.9.4,1.2-3H34v-.8L35.5,36l.9-.4L32.3,25h-.9ZM33.9,32H29.8l2-5.3Z" transform="translate(-4 -4)"/></svg>