<?xml version="1.0" encoding="utf-8"?>
<!-- Generator: Adobe Illustrator 21.0.0, SVG Export Plug-In . SVG Version: 6.00 Build 0)  -->
<svg version="1.1" id="图层_1" xmlns="http://www.w3.org/2000/svg" xmlns:xlink="http://www.w3.org/1999/xlink" x="0px" y="0px"
	 viewBox="0 0 48 48" style="enable-background:new 0 0 48 48;" xml:space="preserve">
<g>
	<path d="M40.4,10.3L27.6,2.9c-2-1.1-5.2-1.1-7.2,0L7.6,10.3c-2,1.2-3.6,3.9-3.6,6.2v14.9c0,2.4,1.5,5,3.6,6.2l12.8,7.4
		c1,0.6,2.3,0.9,3.6,0.9s2.6-0.3,3.6-0.9l12.8-7.4c2-1.2,3.6-3.9,3.6-6.2V16.5C44,14.2,42.5,11.5,40.4,10.3z M42,31.5
		c0,1.2-0.6,2.6-1.5,3.6c-1-0.7-2.8-2.1-4.1-3.4c0.6-0.1,1.5-0.3,1.9-0.4c1.5-0.5,2.5-1.5,2.5-1.6c0.1-0.1,0.2-0.2,0.1-0.4
		s-0.1-0.3-0.2-0.4c-2.9-2.5-6.8-3.1-8.4-3.4c-0.2,0-0.4-0.1-0.5-0.1c-0.9-1.5-3.6-4.7-5.9-6.1l2.5-3.9c0.1-0.2,0.1-0.4,0-0.6
		c-0.1-0.2-0.3-0.2-0.5-0.2l-2.1,0.6l-0.6-3.4c0-0.2-0.1-0.3-0.3-0.4c-0.2-0.1-0.3-0.1-0.5,0l-2.9,1.9l-0.9-1.9
		c-0.1-0.2-0.3-0.3-0.5-0.3c-0.2,0-0.4,0.2-0.4,0.4L18.6,16c-1.7-0.4-3.8,0.3-4.4,0.5c-0.1,0-0.1,0-0.2-0.1c-1.8-0.6-4-1.2-5.1-0.4
		c-0.4,0.2-0.7,0.6-0.7,1.1c-0.2,1.5,1.1,2.4,1.9,3c0.1,0.1,0.3,0.2,0.3,0.3l0.3,0.2c0.4,0.3,0.7,0.6,1,0.9c0.1,0.1,0.1,0.3,0.3,0.5
		c0.1,0.2,0.2,0.6,0.5,0.9c0.8,1.5,2.9,3.1,4,3.9c-0.2,2.1-0.1,3,0.4,4.8c0.4,1.2,1.3,2.4,2.2,2.6c0.4,0.1,0.7,0,0.9-0.2
		c0.4-0.4,0.5-1.2,0.6-2.7c0.6,0.7,1.3,1.6,1.8,2c1.7,1.5,3.3,2.3,3.4,2.3c0.1,0,0.1,0,0.2,0c0.2,0,0.4-0.1,0.5-0.3
		c0.1-0.2,0-0.5-0.2-0.7c0,0-1.5-0.7-3.1-2.1c-0.8-0.7-2.5-2.9-2.5-2.9c-0.1-0.1-0.3-0.2-0.5-0.2c-0.2,0-0.3,0.1-0.4,0.3
		c-0.1,0.1-0.1,0.2-0.1,0.8c0,0.6-0.1,2.4-0.3,2.7c-0.2,0-1.2-0.7-1.5-1.9c-0.5-1.8-0.6-2.6-0.3-4.7c0-0.2-0.1-0.4-0.2-0.5
		c-1.5-1-3.3-2.6-4-3.7c-0.2-0.4-0.3-0.6-0.4-0.9c-0.1-0.3-0.2-0.5-0.4-0.7c-0.3-0.4-0.7-0.7-1.1-1L11,19.6
		c-0.1-0.1-0.2-0.2-0.4-0.3c-0.7-0.5-1.6-1.2-1.5-2.1c0-0.2,0.1-0.3,0.3-0.4c0.6-0.4,2.1-0.2,4.3,0.5c0.2,0.1,0.4,0.1,0.5,0.1
		c0.1,0,0.2,0,0.2,0c0,0,2.5-0.9,4.1-0.5c0,0,0,0,0,0c0.1,0.1,0.6,1.3,3.1,2.4c1.3,0.6,2.3,0.7,2.9,0.7c0.3,0,0.5,0,0.7-0.1
		c2.2,1.3,5.1,4.7,5.9,6.1c0.1,0.3,0.3,0.3,1.1,0.4c1.5,0.2,4.9,0.8,7.5,2.8c-0.4,0.3-1,0.7-1.7,1c-0.5,0.2-2.1,0.5-2.6,0.6
		c-0.2,0-0.3,0.2-0.4,0.3c-0.1,0.2,0,0.4,0.1,0.5c1.2,1.3,3.4,3.1,4.7,4c-0.1,0.1-0.2,0.1-0.3,0.2l-12.8,7.4c-1.4,0.8-3.8,0.8-5.2,0
		L8.6,35.9C7.2,35.1,6,33.1,6,31.5V16.5c0-1.6,1.2-3.7,2.6-4.5l12.8-7.4C22.1,4.2,23,4,24,4s1.9,0.2,2.6,0.6l12.8,7.4
		c1.4,0.8,2.6,2.8,2.6,4.5V31.5z M24.9,19.1c-0.3,0.1-1.3,0.1-3-0.6c-1.7-0.7-2.3-1.5-2.5-1.7l0.9-3.5l0.6,1.2
		c0.1,0.1,0.2,0.2,0.3,0.3c0.1,0,0.3,0,0.4-0.1l2.8-1.8l0.5,3.2c0,0.1,0.1,0.3,0.2,0.3c0.1,0.1,0.3,0.1,0.4,0.1l1.3-0.4L24.9,19.1z"
		/>
	<path d="M15.1,19c-0.3-0.1-0.5,0.1-0.6,0.4c-0.1,0.3,0.1,0.5,0.4,0.6c0.1,0,0.2,0.1,0.4,0.3c0.1,0.1,0.2,0.2,0.2,0.2
		c0,0.3,0.2,0.5,0.5,0.5c0,0,0,0,0,0c0.3,0,0.5-0.2,0.5-0.5c0-0.3-0.2-0.6-0.5-0.9C15.8,19.3,15.4,19.1,15.1,19z"/>
</g>
</svg>
