<?xml version="1.0" encoding="utf-8"?>
<!-- Generator: Adobe Illustrator 21.0.0, SVG Export Plug-In . SVG Version: 6.00 Build 0)  -->
<svg version="1.1" id="图层_1" xmlns="http://www.w3.org/2000/svg" xmlns:xlink="http://www.w3.org/1999/xlink" x="0px" y="0px"
	 viewBox="0 0 48 48" style="enable-background:new 0 0 48 48;" xml:space="preserve">
<style type="text/css">
	.st0{fill:#040000;}
</style>
<path d="M43.5,13c-0.9-1.5-3-2.3-5.8-2.3c-1.9,0-4.1,0.3-6.4,1C29.7,5.8,27,2,24,2s-5.7,3.8-7.3,9.7c-2.4-0.6-4.6-1-6.4-1
	c-2.8,0-4.9,0.7-5.8,2.3C3,15.6,5,19.7,9.4,24C5,28.3,3,32.4,4.5,35c0.9,1.5,3,2.3,5.8,2.3c1.9,0,4.1-0.3,6.4-1
	C18.3,42.2,21,46,24,46s5.7-3.8,7.3-9.7c2.4,0.6,4.6,1,6.4,1c2.8,0,4.9-0.7,5.8-2.3c1.5-2.6-0.6-6.7-4.9-11C43,19.7,45,15.6,43.5,13
	z M37.7,12.7c2.1,0,3.5,0.5,4,1.3c0.5,0.9,0.2,3-2.4,6.2c-0.7,0.8-1.4,1.6-2.2,2.4c-1.3-1.2-2.9-2.3-4.5-3.5c-0.2-2-0.5-3.8-0.8-5.5
	C33.9,13,36,12.7,37.7,12.7z M27.4,29.7c-1.1,0.6-2.2,1.2-3.4,1.7c-1.1-0.5-2.2-1.1-3.4-1.7c-1.1-0.6-2.2-1.3-3.2-2
	c-0.1-1.2-0.1-2.4-0.1-3.7s0.1-2.5,0.1-3.7c1-0.7,2.1-1.3,3.2-2c1.1-0.6,2.2-1.2,3.4-1.7c1.1,0.5,2.2,1.1,3.4,1.7
	c1.1,0.6,2.2,1.3,3.2,2c0.1,1.2,0.1,2.4,0.1,3.7s-0.1,2.5-0.1,3.7C29.6,28.4,28.5,29.1,27.4,29.7z M30.4,30.3
	c-0.2,1.2-0.4,2.4-0.6,3.5c-1.1-0.4-2.2-0.8-3.4-1.3c0.7-0.3,1.3-0.7,2-1.1C29.1,31.1,29.7,30.7,30.4,30.3z M21.6,32.5
	c-1.2,0.5-2.3,0.9-3.4,1.3c-0.2-1.1-0.4-2.3-0.6-3.5c0.6,0.4,1.3,0.8,2,1.2C20.3,31.8,20.9,32.2,21.6,32.5z M15.3,26.2
	c-1-0.7-1.9-1.5-2.8-2.2c0.9-0.8,1.8-1.5,2.8-2.2c0,0.7,0,1.5,0,2.2S15.2,25.5,15.3,26.2z M17.6,17.7c0.2-1.2,0.4-2.4,0.6-3.5
	c1.1,0.4,2.2,0.8,3.4,1.3c-0.7,0.3-1.3,0.7-2,1.1C18.9,16.9,18.3,17.3,17.6,17.7z M26.4,15.5c1.2-0.5,2.3-0.9,3.4-1.3
	c0.2,1.1,0.4,2.3,0.6,3.5c-0.6-0.4-1.3-0.8-2-1.2C27.7,16.2,27.1,15.8,26.4,15.5z M32.7,21.8c1,0.7,1.9,1.5,2.8,2.2
	c-0.9,0.8-1.8,1.5-2.8,2.2c0-0.7,0-1.5,0-2.2S32.8,22.5,32.7,21.8z M24,4c1.7,0,3.9,3,5.3,8.3c-1.7,0.5-3.5,1.3-5.3,2.1
	c-1.8-0.8-3.6-1.5-5.3-2.1C20.1,7,22.3,4,24,4z M6.3,14c0.5-0.8,1.9-1.3,4-1.3c1.7,0,3.8,0.3,6,0.9c-0.4,1.7-0.6,3.6-0.8,5.5
	c-1.6,1.1-3.2,2.3-4.5,3.5c-0.8-0.8-1.6-1.6-2.2-2.4C6.1,17,5.7,14.9,6.3,14z M10.3,35.3c-2.1,0-3.5-0.5-4-1.3
	c-0.5-0.9-0.2-3,2.4-6.2c0.7-0.8,1.4-1.6,2.2-2.4c1.3,1.2,2.9,2.3,4.5,3.5c0.2,2,0.5,3.8,0.8,5.5C14.1,35,12,35.3,10.3,35.3z M24,44
	c-1.7,0-3.9-3-5.3-8.3c1.7-0.5,3.5-1.3,5.3-2.1c1.8,0.8,3.6,1.5,5.3,2.1C27.9,41,25.7,44,24,44z M41.7,34c-0.5,0.8-1.9,1.3-4,1.3
	c-1.7,0-3.8-0.3-6-0.9c0.4-1.7,0.6-3.6,0.8-5.5c1.6-1.1,3.2-2.3,4.5-3.5c0.8,0.8,1.6,1.6,2.2,2.4C41.9,31,42.3,33.1,41.7,34z"/>
</svg>
