<?xml version="1.0" encoding="utf-8"?>
<!-- Generator: Adobe Illustrator 21.0.0, SVG Export Plug-In . SVG Version: 6.00 Build 0)  -->
<svg version="1.1" id="图层_1" xmlns="http://www.w3.org/2000/svg" xmlns:xlink="http://www.w3.org/1999/xlink" x="0px" y="0px"
	 viewBox="0 0 48 48" style="enable-background:new 0 0 48 48;" xml:space="preserve">
<path d="M38,3H10C7.8,3,6,4.8,6,7v34c0,2.2,1.8,4,4,4h28c2.2,0,4-1.8,4-4V7C42,4.8,40.2,3,38,3z M8,7c0-0.4,0.1-0.8,0.4-1.2
	c4.6,0.8,8.5,3.3,11.3,6.8c-3,2-5.2,5.1-5.9,8.9c-1.3,0.1-2.3,1.2-2.3,2.5c0,1.4,1.1,2.5,2.5,2.5s2.5-1.1,2.5-2.5
	c0-1.1-0.7-2-1.7-2.4c0.7-3.4,2.7-6.3,5.5-8.2c1.6,2.4,2.7,5.1,3.1,8.1c-0.1,0-0.2,0.1-0.3,0.1c-0.9,0.4-1.5,1.3-1.5,2.3
	c0,1.3,0.9,2.3,2.2,2.5c0.4,3.2,1.5,6.1,3.3,8.6c-1.8,1-3.9,1.6-6.2,1.6c-7,0-12.8-5.7-12.8-12.8V7z M14,22.5c0.8,0,1.5,0.7,1.5,1.5
	s-0.7,1.5-1.5,1.5s-1.5-0.7-1.5-1.5S13.2,22.5,14,22.5z M23.4,22.6c0.2-0.1,0.4-0.1,0.6-0.1c0.8,0,1.5,0.7,1.5,1.5s-0.7,1.5-1.5,1.5
	s-1.5-0.7-1.5-1.5C22.5,23.4,22.9,22.9,23.4,22.6z M38,43H10c-1.1,0-2-0.9-2-2V29c2,5.1,7,8.6,12.8,8.6c2.5,0,4.8-0.6,6.8-1.8
	c2.7,3.5,6.5,6,10.9,7.1C38.3,43,38.2,43,38,43z M40,41c0,0.4-0.1,0.8-0.4,1.2c-4.6-0.8-8.5-3.3-11.2-6.8c3-2,5.1-5.1,5.9-8.8
	c1.3-0.1,2.3-1.2,2.3-2.5c0-1.4-1.1-2.5-2.5-2.5s-2.5,1.1-2.5,2.5c0,1.1,0.7,2,1.7,2.4c-0.7,3.4-2.7,6.3-5.5,8.1
	c-1.6-2.4-2.7-5.1-3.1-8.1c1.1-0.3,1.8-1.3,1.8-2.4c0-1.3-0.9-2.3-2.2-2.5c-0.4-3.2-1.5-6.1-3.3-8.6c1.8-1,3.9-1.6,6.2-1.6
	c7,0,12.8,5.7,12.8,12.8V41z M34,25.5c-0.8,0-1.5-0.7-1.5-1.5s0.7-1.5,1.5-1.5s1.5,0.7,1.5,1.5S34.8,25.5,34,25.5z M40,19
	c-2-5-7-8.6-12.8-8.6c-2.5,0-4.8,0.6-6.8,1.8c-2.7-3.5-6.5-6-10.9-7.1C9.7,5,9.8,5,10,5h28c1.1,0,2,0.9,2,2V19z"/>
</svg>
