<svg id="图层_1" data-name="图层 1" xmlns="http://www.w3.org/2000/svg" viewBox="0 0 42.03 43"><title>nlpc</title><path id="服务图标-定制自然语言处理nlpc" d="M30,27V18.5A1.54,1.54,0,0,0,28.5,17h-11A1.54,1.54,0,0,0,16,18.5V22h6.6a.76.76,0,0,1,.5.2l.9,1.4a.64.64,0,0,1,0,.6l-.9,1.4c-.1.1-.2.2-.3.2a.35.35,0,0,0-.2.1H16v6.5a1.54,1.54,0,0,0,1.5,1.5H22v-.6a3.46,3.46,0,0,1,3.4-3.5h5.2a.5.5,0,0,1,0,1H25.4a2.5,2.5,0,0,0,0,5h5.2a.5.5,0,1,1,0,1H25.4a3.35,3.35,0,0,1-3-1.9H17.6a2.48,2.48,0,0,1-2.5-2.5V25.5h0V22.6h0v-4a2.48,2.48,0,0,1,2.5-2.5h11a2.48,2.48,0,0,1,2.5,2.5V27h.7a3.46,3.46,0,0,1,3.4,3.5A3.61,3.61,0,0,1,31.7,34H26.5a.5.5,0,0,1,0-1h5.2a2.5,2.5,0,0,0,0-5H26.5a.5.5,0,0,1,0-1Zm-7.7-2,.6-1-.6-1H16v2ZM10.1,37.5A18.06,18.06,0,0,0,24,44a17.25,17.25,0,0,0,9.9-3A1,1,0,1,1,35,42.7a20.06,20.06,0,0,1-26.5-4,3.93,3.93,0,0,1-5-1.7,4,4,0,0,1,7-4A4.1,4.1,0,0,1,10.1,37.5Zm31.6-4.4h0c-.1,0-.1,0-.2-.1a2,2,0,0,0-1.6,3.6,2,2,0,1,0,2-3.4A.31.31,0,0,1,41.7,33.1ZM41.3,31a16.79,16.79,0,0,0,.7-5,17.79,17.79,0,0,0-9.4-15.8,1,1,0,1,1,1-1.8A20,20,0,0,1,44,26a22.39,22.39,0,0,1-.8,5.7A4,4,0,0,1,44.5,37a4,4,0,1,1-7-4A4,4,0,0,1,41.3,31ZM20.2,8.4A17.92,17.92,0,0,0,6,26a.94.94,0,0,1-1,1,.94.94,0,0,1-1-1A20,20,0,0,1,20,6.4,4.08,4.08,0,0,1,24,3a4,4,0,0,1,0,8A4.15,4.15,0,0,1,20.2,8.4ZM24,9a2,2,0,1,0-2-2A2,2,0,0,0,24,9ZM8.7,34A1.86,1.86,0,0,0,6,33.3,1.88,1.88,0,0,0,5.3,36a1.88,1.88,0,0,0,2.7.7A1.88,1.88,0,0,0,8.7,34Z" transform="translate(-2.98 -3)"/></svg>