<svg id="图层_1" data-name="图层 1" xmlns="http://www.w3.org/2000/svg" viewBox="0 0 42.03 43"><title>nlpf</title><path id="服务图标-自然语言处理基础nlpf" d="M10.11,37.13A18.1,18.1,0,0,0,24,43.63a17.25,17.25,0,0,0,9.9-3,1,1,0,0,1,1.4.29,1,1,0,0,1-.3,1.41,20.06,20.06,0,0,1-26.5-4,3.94,3.94,0,0,1-5-1.7,4,4,0,0,1,7-4A4.1,4.1,0,0,1,10.11,37.13Zm31.6-4.41h0c-.1,0-.1,0-.2-.1a2,2,0,0,0-1.6,3.6,2,2,0,0,0,2-3.4A.26.26,0,0,1,41.71,32.72Zm-.4-2.09a16.83,16.83,0,0,0,.7-5,17.8,17.8,0,0,0-9.4-15.81,1,1,0,1,1,1-1.8A20,20,0,0,1,44,25.63a22.52,22.52,0,0,1-.8,5.7,4,4,0,0,1,1.3,5.3,4,4,0,1,1-7-4A4,4,0,0,1,41.31,30.63ZM20.21,8A17.91,17.91,0,0,0,6,25.63a.94.94,0,0,1-1,1,.94.94,0,0,1-1-1A20,20,0,0,1,20,6a4.08,4.08,0,0,1,4-3.39,4,4,0,0,1,0,8A4.16,4.16,0,0,1,20.21,8Zm3.8.6a2,2,0,1,0-2-2A2,2,0,0,0,24,8.63Zm-15.3,25A1.87,1.87,0,0,0,6,32.92a1.89,1.89,0,0,0-.7,2.71,1.89,1.89,0,0,0,2.7.7A1.88,1.88,0,0,0,8.71,33.63Zm14.4-16H20v8h1.6a.47.47,0,0,1,.5.5.48.48,0,0,1-.5.5h-5a.48.48,0,0,1-.5-.5.47.47,0,0,1,.5-.5H18v-8h-2.9v.5a.5.5,0,0,1-1,0v-.71a.86.86,0,0,1,.8-.8h8.4a.86.86,0,0,1,.8.8v.71a.5.5,0,0,1-1,0Zm3.5,5a.48.48,0,0,1-.5-.5.47.47,0,0,1,.5-.5h7.1a.47.47,0,0,1,.5.5.54.54,0,0,1-.5.5Zm-12.1,8.1a.48.48,0,0,1-.5-.5.47.47,0,0,1,.5-.5h19.2a.47.47,0,0,1,.5.5.48.48,0,0,1-.5.5Zm12.1-4.1a.48.48,0,0,1-.5-.5.47.47,0,0,1,.5-.5h7.1a.47.47,0,0,1,.5.5.54.54,0,0,1-.5.5Zm-12,8.2a.5.5,0,0,1,0-1h19.2a.5.5,0,0,1,0,1Z" transform="translate(-2.98 -2.63)"/></svg>