<?xml version="1.0" encoding="utf-8"?>
<!-- Generator: Adobe Illustrator 21.0.0, SVG Export Plug-In . SVG Version: 6.00 Build 0)  -->
<svg version="1.1" id="图层_1" xmlns="http://www.w3.org/2000/svg" xmlns:xlink="http://www.w3.org/1999/xlink" x="0px" y="0px"
	 viewBox="0 0 48 48" style="enable-background:new 0 0 48 48;" xml:space="preserve">
<style type="text/css">
	.st0{fill:#040000;}
	.st1{fill:#060001;}
	.st2{fill:#080103;}
</style>
<path d="M43.2,8H4.8C3.2,8,2,9,2,10.3v27.4C2,39,3.2,40,4.8,40h24c0.1,0,0.2,0,0.3-0.1h15.4c0.9,0,1.5-0.7,1.5-1.6V10.3
	C46,9,44.8,8,43.2,8z M44,37.9H28.1v-1.4c0-1.3,1.7-1.9,3.6-2.5c0.7-0.2,1.2-0.4,1.5-0.6c0.3-0.2,0.5-0.5,0.5-0.9V32
	c0-0.3-0.1-0.6-0.4-0.8c-1-0.8-1.5-2-1.5-3.3v-3.8c0,0,0-0.1,0-0.1l0,0l0,0c0.1-2.3,1.9-4.1,4.2-4.1c2.3,0,4.2,1.9,4.2,4.3v3.8
	c0,1.3-0.6,2.4-1.5,3.3c-0.2,0.2-0.4,0.5-0.4,0.8v0.6c0,0.4,0.2,0.7,0.5,0.9c0.3,0.2,0.8,0.3,1.6,0.6c1.9,0.6,3.6,1.2,3.6,2.5V37.9z
	 M44,33.2c-1-0.6-2.2-1-3-1.2c0,0-0.1,0-0.1,0c0.9-1.1,1.4-2.5,1.4-4v-3.8c0-3.5-2.8-6.3-6.2-6.3c-2.9,0-5.3,2-6,4.6L28.4,21
	c0.1-0.3,0.2-0.5,0.2-0.8c0-1.1-0.9-2-2-2c-1.1,0-2,0.9-2,2c0,0.4,0.1,0.8,0.3,1.1l-4.2,7.7c-0.2-0.1-0.4-0.1-0.6-0.1
	c-0.5,0-1,0.2-1.3,0.5l-4.8-4.1c0.1-0.2,0.1-0.4,0.1-0.7c0-1.1-0.9-2-2-2c-1.1,0-2,0.9-2,2c0,0.4,0.1,0.8,0.3,1.1l-2.5,3.2
	c-0.3-0.1-0.5-0.2-0.8-0.2c-1.1,0-2,0.9-2,2c0,1.1,0.9,2,2,2c1.1,0,2-0.9,2-2c0-0.5-0.2-0.9-0.4-1.2l2.5-3.1c0.3,0.2,0.6,0.3,1,0.3
	c0.5,0,1-0.2,1.3-0.5l4.8,4.1c-0.1,0.2-0.1,0.4-0.1,0.7c0,1.1,0.9,2,2,2c1.1,0,2-0.9,2-2c0-0.5-0.2-1-0.5-1.4l4.1-7.5
	c0.3,0.1,0.6,0.2,0.9,0.2c0.4,0,0.9-0.2,1.2-0.4l2.1,1.8c0,0.2,0,0.3,0,0.5v3.8c0,1.5,0.5,2.9,1.5,4c-0.1,0-0.1,0-0.2,0.1
	c-1.8,0.5-5,1.5-5,4.5V38H4.8C4.3,38,4,37.8,4,37.7l0-21.7h40V33.2z M44,15H4l0-4.7C4,10.2,4.3,10,4.8,10h38.4
	c0.5,0,0.7,0.2,0.8,0.2V15z M16.5,11c-0.8,0-1.5,0.7-1.5,1.5s0.7,1.5,1.5,1.5s1.5-0.7,1.5-1.5S17.4,11,16.5,11z M9.5,11
	C8.7,11,8,11.7,8,12.5S8.7,14,9.5,14c0.8,0,1.5-0.7,1.5-1.5S10.3,11,9.5,11z"/>
</svg>
