<?xml version="1.0" encoding="utf-8"?>
<!-- Generator: Adobe Illustrator 21.0.0, SVG Export Plug-In . SVG Version: 6.00 Build 0)  -->
<svg version="1.1" id="图层_1" xmlns="http://www.w3.org/2000/svg" xmlns:xlink="http://www.w3.org/1999/xlink" x="0px" y="0px"
	 viewBox="0 0 48 48" style="enable-background:new 0 0 48 48;" xml:space="preserve">
<style type="text/css">
	.st0{fill:#040000;}
	.st1{fill:#060001;}
	.st2{fill:#080103;}
</style>
<path d="M6,43.1L8,5c0-0.6,0.4-1,1-1h24c0.5,0,1,0.4,1,1l0,0L35,23.3c0,0,0.7,0.3,1,0.4c0.4,0.2,1.1,0.7,1.1,0.7L36,5
	c0-1.7-1.3-3-3-3H9C7.3,2,6,3.3,6,4.9L4,43c0,1.7,1.3,3,3,3h14v-2H7C6.4,44,6,43.6,6,43.1z M38.6,39.2c-0.5-0.1-1.1-0.3-1.4-0.3
	c0,0,0,0,0,0l-0.1-0.5c1.5-1.1,2.3-2.8,2.3-4.5v-4.1c0-3.2-2.9-5.9-6.5-5.9c-3.6,0-6.5,2.6-6.5,5.9V34c0,1.7,0.8,3.4,2.3,4.4
	l0.1,0.4c-0.2,0.1-1,0.3-1.5,0.5c-2.1,0.6-5.3,1.4-5.3,3.9v2c0,0.4,0.4,0.8,0.9,0.8H43c0.5,0,1-0.6,1-1v-1.8
	C44,40.6,40.8,39.8,38.6,39.2z M42.3,44.4H23.7v-1.3c0-1.3,2.3-2,4.1-2.4c1.5-0.4,2.7-0.7,2.7-1.7v-1c0-0.3-0.1-0.5-0.3-0.6
	c-1.2-0.8-1.9-2.1-1.9-3.4v-4.1c0-2.4,2.1-4.3,4.8-4.3s4.8,1.9,4.8,4.3V34c0,1.4-0.7,2.6-1.9,3.4c-0.2,0.1-0.3,0.4-0.3,0.6v1
	c0,1,1.2,1.3,2.7,1.7c1.7,0.4,4.1,1.1,4.1,2.4V44.4z M27.4,8.9C27.8,8.7,28,8.4,28,8c0-0.6-0.4-1-1-1s-1,0.4-1,1
	c0,0.3,0.2,0.6,0.4,0.8c-0.4,2.7-2.7,4.7-5.4,4.7s-5-2-5.4-4.7C15.8,8.6,16,8.3,16,8c0-0.6-0.4-1-1-1s-1,0.4-1,1
	c0,0.4,0.2,0.7,0.6,0.9c0.4,3.2,3.2,5.6,6.4,5.6S27,12.1,27.4,8.9z"/>
</svg>
