<?xml version="1.0" encoding="utf-8"?>
<!-- Generator: Adobe Illustrator 21.0.0, SVG Export Plug-In . SVG Version: 6.00 Build 0)  -->
<svg version="1.1" id="图层_1" xmlns="http://www.w3.org/2000/svg" xmlns:xlink="http://www.w3.org/1999/xlink" x="0px" y="0px"
	 viewBox="0 0 48 48" style="enable-background:new 0 0 48 48;" xml:space="preserve">
<style type="text/css">
	.st0{fill:#040000;}
	.st1{fill:#060001;}
	.st2{fill:#080103;}
</style>
<path d="M19,30c-2.2,0-4,1.8-4,4c0,2.2,1.8,4,4,4c2.2,0,4-1.8,4-4C23,31.8,21.2,30,19,30z M19,36.9c-1.6,0-2.9-1.3-2.9-2.9
	c0-1.6,1.3-2.9,2.9-2.9c1.6,0,2.9,1.3,2.9,2.9C21.9,35.6,20.6,36.9,19,36.9z M35,13.5c0-0.3-0.2-0.5-0.5-0.5h-1v1h1
	C34.8,14,35,13.8,35,13.5z M40,14.5c0-0.3-0.2-0.5-0.5-0.5h-1v1h1C39.8,15,40,14.8,40,14.5z M25.5,11h-13c-0.3,0-0.5,0.2-0.5,0.5
	c0,0.3,0.2,0.5,0.5,0.5h13c0.3,0,0.5-0.2,0.5-0.5C26,11.2,25.8,11,25.5,11z M40.5,6.5h-2v1h2C41.3,7.5,42,8,42,8.6v30.9
	c0,0.6-0.7,1.1-1.5,1.1h-2v1h2c1.4,0,2.5-0.9,2.5-2.1V8.6C43,7.4,41.9,6.5,40.5,6.5z M35.5,4.5h-2v1h2c0.8,0,1.5,0.6,1.5,1.3v34.4
	c0,0.7-0.7,1.3-1.5,1.3h-2v1h2c1.4,0,2.5-1,2.5-2.3V6.8C38,5.5,36.9,4.5,35.5,4.5z M30,2H8C6.3,2,5,3.3,5,5v38c0,1.7,1.3,3,3,3h22
	c1.7,0,3-1.3,3-3V5C33,3.3,31.7,2,30,2z M31,43c0,0.6-0.4,1-1,1H8c-0.6,0-1-0.4-1-1V5c0-0.6,0.4-1,1-1h22c0.6,0,1,0.4,1,1V43z"/>
</svg>
