<?xml version="1.0" encoding="utf-8"?>
<!-- Generator: Adobe Illustrator 21.0.0, SVG Export Plug-In . SVG Version: 6.00 Build 0)  -->
<svg version="1.1" id="图层_1" xmlns="http://www.w3.org/2000/svg" xmlns:xlink="http://www.w3.org/1999/xlink" x="0px" y="0px"
	 viewBox="0 0 48 48" style="enable-background:new 0 0 48 48;" xml:space="preserve">
<style type="text/css">
	.st0{fill:#040000;}
	.st1{fill:#060001;}
	.st2{fill:#080103;}
</style>
<path d="M28.4,2H10.8C8.7,2,7,3.8,7,6V42c0,2.2,1.7,4,3.8,4h26.4c2.1,0,3.8-1.8,3.8-4V14.6L28.4,2z M28.5,4.9l9.6,9.6h-7.3
	c-1.3,0-2.3-1.1-2.3-2.5V4.9z M39,42c0,1.1-0.8,2-1.8,2H10.8c-1,0-1.8-0.9-1.8-2V6c0-1.1,0.8-2,1.8-2h16.8l0,0h-0.1v8
	c0,1.9,1.5,3.5,3.3,3.5H39V42z"/>
</svg>
