<?xml version="1.0" encoding="utf-8"?>
<!-- Generator: Adobe Illustrator 21.0.0, SVG Export Plug-In . SVG Version: 6.00 Build 0)  -->
<svg version="1.1" id="图层_1" xmlns="http://www.w3.org/2000/svg" xmlns:xlink="http://www.w3.org/1999/xlink" x="0px" y="0px"
	 viewBox="0 0 48 48" style="enable-background:new 0 0 48 48;" xml:space="preserve">
<style type="text/css">
	.st0{fill:#040000;}
</style>
<path class="st0" d="M43,22.2c0-2.9-2.3-5.2-5.1-5.2H36v-4c0-4.6-3.7-11-12-11c-8.2,0-12,6.6-12,11v4h-1.9C7.3,17,5,19.3,5,22.2
	v18.6c0,2.9,2.3,5.2,5.1,5.2h23c0.5,0,0.7,0,5.3-5.1c4.6-5,4.6-5.2,4.6-5.6C43,34.6,43,23.5,43,22.2z M14,13c0-3.6,3.2-9,10-9
	c7.6,0,10,6.1,10,9v4H14V13z M41,34.9c-1,1.3-7,7.8-8.3,9.1H10.1C8.4,44,7,42.6,7,40.8V22.2c0-1.8,1.4-3.2,3.1-3.2H38
	c1.7,0,3.1,1.4,3.1,3.2C41,26.7,41,33.4,41,34.9z M31.9,24H16.1C15,24,14,24.9,14,26.1V37c0,1.1,0.9,2.1,2.1,2.1h15.8
	c1.1,0,2.1-0.9,2.1-2.1V26.1C34,24.9,33.1,24,31.9,24z M20,38h-3.9c-0.6,0-1.1-0.5-1.1-1.1V34h5V38z M20,33h-5v-3h5V33z M20,29h-5
	v-2.9c0-0.6,0.5-1.1,1.1-1.1H20V29z M27,38h-6V25h6V38z M33,36.9c0,0.6-0.5,1.1-1.1,1.1H28v-4h5V36.9z M33,33h-5v-3h5V33z M33,29h-5
	v-4h3.9c0.6,0,1.1,0.5,1.1,1.1V29z"/>
</svg>
