<svg id="图层_1" data-name="图层 1" xmlns="http://www.w3.org/2000/svg" viewBox="0 0 48 48"><title>ra</title><path d="M36.9,17.22A14,14,0,0,1,41,27.13a14.39,14.39,0,0,1-2.1,7.29,1,1,0,0,0,.3,1.41,1,1,0,0,0,1.4-.31A15.46,15.46,0,0,0,43,27.13a16.08,16.08,0,0,0-4.3-10.91l2.4-2.59a3.94,3.94,0,0,0,1.9.5,4,4,0,1,0-4-4,3.66,3.66,0,0,0,.6,2.09l-3,3.2a1.06,1.06,0,0,0-.1,1.21A2.05,2.05,0,0,0,36.9,17.22ZM43,8.13a2,2,0,1,1-2,2A2,2,0,0,1,43,8.13ZM13.7,31.22a1,1,0,0,1-.2-.5,14.79,14.79,0,0,1-.5-3.59,14.07,14.07,0,0,1,10.1-13.5,1,1,0,0,0,.7-1.21,1,1,0,0,0-1.2-.7A16,16,0,0,0,11,27.13a15,15,0,0,0,.4,3.7L7.4,32A4.12,4.12,0,0,0,4,30.13a4,4,0,1,0,4,4v-.21l5-1.5A.88.88,0,0,0,13.7,31.22ZM4,36.13a2,2,0,1,1,2-2A2,2,0,0,1,4,36.13ZM25.1,8l.2,4.11h.1v.09a.94.94,0,0,0,1,1H27a14,14,0,0,1,7,1.91,1.11,1.11,0,0,0,1.4-.41,1.09,1.09,0,0,0-.4-1.39,15.46,15.46,0,0,0-7.7-2.2l-.1-3.21A4,4,0,1,0,22,4.13,4.07,4.07,0,0,0,25.1,8ZM26,2.13a2,2,0,1,1-2,2A2,2,0,0,1,26,2.13Zm18,38a3.6,3.6,0,0,0-2,.59l-.06,0,.06,0L38.4,37a1,1,0,0,0-1.3-.1c-.1,0-.3.21-.4.3A13.87,13.87,0,0,1,27,41.13a14,14,0,0,1-12.1-7,1,1,0,1,0-1.8,1,16.15,16.15,0,0,0,13.9,8,15.74,15.74,0,0,0,10.6-4l3,3a3.56,3.56,0,0,0-.6,2,4,4,0,1,0,4-4Zm0,6a2,2,0,1,1,2-2A2,2,0,0,1,44,46.13Zm-17-31a12,12,0,1,0,12,12A12,12,0,0,0,27,15.13Zm0,23a11,11,0,1,1,11-11A11,11,0,0,1,27,38.13Zm6.7-12.21a1,1,0,0,0,.1-1.4l-3.4-4a.9.9,0,0,0-.8-.39H24.4a1.27,1.27,0,0,0-.8.39l-3.4,4a1.11,1.11,0,0,0-.2.61,1,1,0,0,0,1,1h.4l-1.2,1.39a1.11,1.11,0,0,0-.2.61,1,1,0,0,0,1,1h.4l-1.2,1.39a1.11,1.11,0,0,0-.2.61,1,1,0,0,0,1,1H33a2.62,2.62,0,0,0,.7-.21,1,1,0,0,0,.1-1.4l-1.2-1.39H33a2.62,2.62,0,0,0,.7-.21,1,1,0,0,0,.1-1.4l-1.2-1.39H33A2.62,2.62,0,0,0,33.7,25.92ZM33,31.13H21l1.7-2h8.6Zm0-3H21l1.7-2h8.6Zm-12-3,3.4-4h5.2l3.4,4Z" transform="translate(0 -0.13)"/></svg>