<svg id="图层_1" data-name="图层 1" xmlns="http://www.w3.org/2000/svg" viewBox="0 0 40 40"><title>rasr</title><path id="服务图标-实时语音转写rasr" d="M31.5,42.13a.48.48,0,0,1-.5-.5.47.47,0,0,1,.5-.5H33a5,5,0,0,0,5-5v-2.5l-1.8,1.79a.47.47,0,0,1-.7,0,.48.48,0,0,1,0-.7l2.3-2.3a1,1,0,0,1,1.4,0l2.3,2.3a.48.48,0,0,1,0,.7.47.47,0,0,1-.7,0L39,33.63v2.5a6,6,0,0,1-6,6ZM8,16.52H8c0,.4-.2.61-.5.61a.48.48,0,0,1-.5-.5v-.11H7V15.13a6,6,0,0,1,6-6h2.3L13.5,7.32a.47.47,0,0,1,0-.69.48.48,0,0,1,.7,0l2.3,2.3a1,1,0,0,1,0,1.39l-2.3,2.31a.5.5,0,0,1-.7,0,.48.48,0,0,1,0-.7l1.8-1.8H13.1A4.94,4.94,0,0,0,8,15v1.5ZM32,30.13a1,1,0,0,1,0-2H42v-22H21v10a1,1,0,0,1-2,0v-10a2,2,0,0,1,1.9-2H42.1a2,2,0,0,1,1.9,2v22a2,2,0,0,1-1.9,2Zm5-19H33v10h1.5a.47.47,0,0,1,.5.5.48.48,0,0,1-.5.5H31v-11H27v.5a.5.5,0,1,1-1,0v-.5a.94.94,0,0,1,1-1H37a.94.94,0,0,1,1,1v.5a.5.5,0,1,1-1,0Zm-31,10v21H27v-21Zm-.1-2H27.1A1.89,1.89,0,0,1,29,21v21.2a1.91,1.91,0,0,1-1.9,1.91H5.9A2,2,0,0,1,4,42.22V21A2,2,0,0,1,5.9,19.13ZM18,36h0v3.1a1,1,0,0,1-2,0V36a5,5,0,0,1-4-4.9h1a4,4,0,1,0,8,0h1A5,5,0,0,1,18,36Zm-1-10.9a2,2,0,0,0-2,2v4a2,2,0,0,0,4,0v-4A2,2,0,0,0,17,25.13Zm0-1a2.94,2.94,0,0,1,3,3v4a3,3,0,0,1-6,0v-4A2.94,2.94,0,0,1,17,24.13Zm-4.5,7a.48.48,0,0,1-.5-.5.5.5,0,1,1,1,0A.48.48,0,0,1,12.5,31.13Zm9,0a.48.48,0,0,1-.5-.5.5.5,0,1,1,1,0A.48.48,0,0,1,21.5,31.13Zm-9.5-.5h1v.5H12Zm9,0h1v.5H21Z" transform="translate(-4 -4.13)"/></svg>