<svg id="图层_1" data-name="图层 1" xmlns="http://www.w3.org/2000/svg" viewBox="0 0 40 40"><title>receiptocr</title><path id="服务图标-文字识别_票据类receiptocr" data-name="服务图标-文字识别 票据类receiptocr" d="M4,15.5v-7a4,4,0,0,1,4-4h7a.94.94,0,0,1,1,1,.94.94,0,0,1-1,1H8a2,2,0,0,0-2,2v7a.94.94,0,0,1-1,1A.94.94,0,0,1,4,15.5Zm2,18v7a2,2,0,0,0,2,2h7a1,1,0,1,1,0,2H8a4,4,0,0,1-4-4v-7a.94.94,0,0,1,1-1A.94.94,0,0,1,6,33.5Zm27,9h7a2,2,0,0,0,2-2v-7a1,1,0,0,1,2,0v7a4,4,0,0,1-4,4H33a1,1,0,0,1,0-2Zm9-34a2,2,0,0,0-2-2H33a.94.94,0,0,1-1-1,.94.94,0,0,1,1-1h7a4,4,0,0,1,4,4v7a1,1,0,0,1-2,0Zm-25,25H36a.94.94,0,0,0,1-1V28.4a4,4,0,0,1-3-3.9,4.08,4.08,0,0,1,3-3.9V16.5a.94.94,0,0,0-1-1H17V18a.5.5,0,0,1-1,0V15.5H12a.94.94,0,0,0-1,1v4.1a4,4,0,0,1,3,3.9,4.08,4.08,0,0,1-3,3.9v4.1a.94.94,0,0,0,1,1h4V31a.5.5,0,1,1,1,0Zm21-6v5a2,2,0,0,1-2,2H12a2,2,0,0,1-2-2v-5a3,3,0,1,0,0-6v-5a2,2,0,0,1,2-2H36a2,2,0,0,1,2,2v5a3,3,0,0,0,0,6Zm-21.5-7a.47.47,0,0,1,.5.5v2a.5.5,0,0,1-1,0V21A.47.47,0,0,1,16.49,20.5Zm0,5a.47.47,0,0,1,.5.5v2a.5.5,0,0,1-1,0V26A.47.47,0,0,1,16.49,25.5Zm4-6h11a.5.5,0,0,1,0,1h-11a.5.5,0,1,1,0-1Zm0,4h11a.5.5,0,0,1,0,1h-11a.5.5,0,1,1,0-1Zm0,4h6a.5.5,0,0,1,0,1h-6a.5.5,0,1,1,0-1Z" transform="translate(-3.99 -4.5)"/></svg>