<svg id="图层_1" data-name="图层 1" xmlns="http://www.w3.org/2000/svg" viewBox="0 0 40 40"><defs><style>.cls-1{fill:#040000;}</style></defs><title>roc</title><path class="cls-1" d="M16,43a1,1,0,0,1-1,1H8a4,4,0,0,1-4-4V33a1,1,0,0,1,2,0v7a2,2,0,0,0,2,2h7A1,1,0,0,1,16,43ZM5,16a1,1,0,0,0,1-1V8A2,2,0,0,1,8,6h7a1,1,0,0,0,0-2H8A4,4,0,0,0,4,8v7A1,1,0,0,0,5,16Zm12.63,7.35a.51.51,0,0,1,0-.71,8.92,8.92,0,0,1,3.89-2.29,5,5,0,1,1,5,0,8.93,8.93,0,0,1,3.93,2.33.5.5,0,0,1-.71.71,8,8,0,0,0-11.36,0A.51.51,0,0,1,17.63,23.35ZM24,20a4,4,0,1,0-4-4A4,4,0,0,0,24,20ZM43,32a1,1,0,0,0-1,1v7a2,2,0,0,1-2,2H33a1,1,0,0,0,0,2h7a4,4,0,0,0,4-4V33A1,1,0,0,0,43,32Zm-8.78,1.9a.82.82,0,0,0,1.12-.36.94.94,0,0,0,.08-.55L35,30.44l1.77-1.8a.89.89,0,0,0,0-1.22.73.73,0,0,0-.47-.25l-2.45-.38-1.09-2.31a.83.83,0,0,0-1.12-.39.85.85,0,0,0-.38.39l-1.09,2.31-.87.21c-.49.1-.41,1,.33.89l.69-.11a1,1,0,0,0,.75-.56l.94-2,.93,2a1,1,0,0,0,.76.56l2.18.33-1.61,1.63a1,1,0,0,0-.27.87l.37,2.24-1.88-1a1,1,0,0,0-1,0l-1.88,1-.41.23a.5.5,0,0,0-.2.68.1.1,0,0,0,0,.05c.12.2.58.18.74.09L32,32.7ZM40,4H33a1,1,0,0,0,0,2h7a2,2,0,0,1,2,2v7a1,1,0,0,0,2,0V8A4,4,0,0,0,40,4ZM27.57,32.73l.5,3.06A1,1,0,0,1,27.26,37a1,1,0,0,1-.64-.1L24,35.44l-2.62,1.44A1,1,0,0,1,20,36.45a1.09,1.09,0,0,1-.1-.66l.5-3.06L18.3,30.57a1.08,1.08,0,0,1,0-1.47,1,1,0,0,1,.57-.3l2.94-.45,1.31-2.77a1,1,0,0,1,1.34-.47,1,1,0,0,1,.46.47l1.31,2.77,2.94.45a1.05,1.05,0,0,1,.55,1.77Zm-.71-.7L29,29.87s0,0,0,0,0-.05,0-.05l-2.94-.45a1,1,0,0,1-.76-.56L24,26l-1.3,2.75a1,1,0,0,1-.76.56L19,29.79a.11.11,0,0,0,0,.08L21.14,32a1,1,0,0,1,.28.87L20.91,36a.06.06,0,0,0,0,0l2.6-1.43a1,1,0,0,1,1,0L27.08,36s0,0,0,0l-.51-3.05A1,1,0,0,1,26.86,32Zm-8.09,1-.41-.23-1.88-1a1,1,0,0,0-1,0l-1.88,1L14,30.61a1,1,0,0,0-.27-.87l-1.61-1.63,2.18-.33a1,1,0,0,0,.76-.56l.93-2,.93,2a1,1,0,0,0,.76.56l.69.11c.74.11.82-.79.33-.89l-.87-.21-1.09-2.31a.85.85,0,0,0-.38-.39.82.82,0,0,0-1.12.39l-1.09,2.31-2.45.38a.73.73,0,0,0-.47.25.89.89,0,0,0,0,1.22L13,30.44,12.61,33a.87.87,0,0,0,.08.55.82.82,0,0,0,1.12.36L16,32.7l2.19,1.2c.16.09.62.11.74-.09l0-.05A.5.5,0,0,0,18.77,33.08Z" transform="translate(-4 -4)"/></svg>