<?xml version="1.0" encoding="utf-8"?>
<!-- Generator: Adobe Illustrator 21.0.0, SVG Export Plug-In . SVG Version: 6.00 Build 0)  -->
<svg version="1.1" id="图层_1" xmlns="http://www.w3.org/2000/svg" xmlns:xlink="http://www.w3.org/1999/xlink" x="0px" y="0px"
	 viewBox="0 0 48 48" style="enable-background:new 0 0 48 48;" xml:space="preserve">
<style type="text/css">
	.st0{fill:#333333;}
</style>
<title>ROMA</title>
<desc>Created with Sketch.</desc>
<g id="logo">
	<g id="ROMA_Logo_定稿-" transform="translate(-126.000000, -61.000000)">
		<g id="ROMA" transform="translate(126.000000, 61.000000)">
			<path id="Combined-Shape" class="st0" d="M27.9,39h6l3-3.8c0.1-0.1,0.2-0.2,0.4-0.2h6.8c0.2-0.6,0.8-1,1.4-1
				c0.8,0,1.5,0.7,1.5,1.5S46.3,37,45.5,37c-0.7,0-1.2-0.4-1.4-1h-6.6l-3,3.8c-0.1,0.1-0.2,0.2-0.4,0.2h-6.2c-0.2,0.6-0.8,1-1.4,1
				c-0.8,0-1.5-0.7-1.5-1.5s0.7-1.5,1.5-1.5C27.2,38,27.7,38.4,27.9,39z M27.9,23h6.2c0.1,0,0.3,0,0.3,0.1l3,3.9h6.6
				c0.2-0.6,0.8-1,1.4-1c0.8,0,1.5,0.7,1.5,1.5S46.3,29,45.5,29c-0.7,0-1.2-0.4-1.4-1h-6.8c-0.1,0-0.3,0-0.3-0.1l-3-3.9h-6
				c-0.2,0.6-0.8,1-1.4,1c-0.8,0-1.5-0.7-1.5-1.5s0.7-1.5,1.5-1.5C27.2,22,27.7,22.4,27.9,23z M23.9,31h7.2c0.2-0.6,0.8-1,1.4-1
				c0.8,0,1.5,0.7,1.5,1.5S33.3,33,32.5,33c-0.7,0-1.2-0.4-1.4-1h-7.2c-0.2,0.6-0.8,1-1.4,1c-0.8,0-1.5-0.7-1.5-1.5s0.7-1.5,1.5-1.5
				C23.2,30,23.7,30.4,23.9,31z M45.9,23h-2.2c-1.6-3-4.6-5.1-8-5.4l-1.3-0.1l-0.4-1.2C32.5,11.9,28.5,9,24,9s-8.5,2.9-9.9,7.2
				l-0.4,1.2l-1.3,0.1C7.1,18.1,3,22.7,3,28.2C3,34.2,7.8,39,13.5,39H22v2h-8.5C6.6,41,1,35.3,1,28.2c0-6.6,4.9-12,11.2-12.6
				C13.9,10.6,18.5,7,24,7s10.1,3.6,11.8,8.6C40.3,16.1,44.1,19,45.9,23z"/>
		</g>
	</g>
</g>
</svg>
