<svg id="图层_1" data-name="图层 1" xmlns="http://www.w3.org/2000/svg" viewBox="0 0 43.98 40"><title>rp</title><path id="形状结合" d="M37.61,20.42a1,1,0,1,1,1.9-.5l6.4,21.71a2,2,0,0,1-1.3,2.5H4a2,2,0,0,1-2-2,1.23,1.23,0,0,1,.1-.6l2.6-8.7a1.09,1.09,0,0,1,1.2-.7,1.09,1.09,0,0,1,.7,1.2L4,42.13H44ZM24,20.13a1,1,0,0,1,0-2h3a1,1,0,0,1,0,2Zm9,4c-4.7-6.11-7-10.4-7-13a7,7,0,0,1,14,0C40,13.73,37.71,18,33,24.13Zm-5-13c0,1.69,1.7,5,5,9.7,3.3-4.6,5-7.9,5-9.7a5,5,0,0,0-10,0Zm-16,27C5.31,29.92,2,23.92,2,20.23a10,10,0,1,1,20,0C22,23.92,18.71,29.92,12,38.13ZM4,20.23C4,23,6.71,28,12,34.92c5.3-6.79,8-11.79,8-14.7a8,8,0,1,0-16,0Zm8,3.9a4,4,0,1,1,4-4A4,4,0,0,1,12,24.13Zm0-1a3,3,0,1,0-3-3A2.95,2.95,0,0,0,12,23.13Zm21-9a3,3,0,1,1,3-3A3,3,0,0,1,33,14.13Zm0-1a2,2,0,1,0-2-2A2,2,0,0,0,33,13.13Zm-2.5,10a.47.47,0,0,1,.5.5.48.48,0,0,1-.5.5h-4a.48.48,0,0,1-.5-.5.47.47,0,0,1,.5-.5Zm-6.2.89a.48.48,0,0,1,.7,0,.5.5,0,0,1,0,.71A2.91,2.91,0,0,0,24,27a2.74,2.74,0,0,0,.1.9c.1.3-.1.5-.4.6s-.5-.1-.6-.39a2.84,2.84,0,0,1-.1-1A4.09,4.09,0,0,1,24.31,24Zm.1,6.31a.62.62,0,0,1-.1-.7.6.6,0,0,1,.7-.11,2.41,2.41,0,0,0,1.4.61h2.1a.47.47,0,0,1,.5.5c0,.29-.1.5-.4.5h-2.1A4,4,0,0,1,24.41,30.33Zm6.2.8a.48.48,0,0,1-.5-.5.47.47,0,0,1,.5-.5h1.9a3.37,3.37,0,0,1,2.2,1,.49.49,0,0,1-.7.7,2.83,2.83,0,0,0-1.6-.7Zm4.3,2.2c-.1-.3.1-.5.4-.6s.5.1.6.4a3.08,3.08,0,0,1,.1,1,4.15,4.15,0,0,1-1.5,3.3.5.5,0,1,1-.6-.8,3,3,0,0,0,1.1-2.5A2,2,0,0,0,34.91,33.33Zm-2.6,3.8a.47.47,0,0,1,.5.5.48.48,0,0,1-.5.5h-4a.48.48,0,0,1-.5-.5.47.47,0,0,1,.5-.5Zm-6,0a.47.47,0,0,1,.5.5.48.48,0,0,1-.5.5h-4a.48.48,0,0,1-.5-.5.47.47,0,0,1,.5-.5Zm-6,0a.47.47,0,0,1,.5.5.48.48,0,0,1-.5.5h-4a.48.48,0,0,1-.5-.5.47.47,0,0,1,.5-.5Z" transform="translate(-2.01 -4.13)"/></svg>