<?xml version="1.0" encoding="utf-8"?>
<!-- Generator: Adobe Illustrator 21.0.0, SVG Export Plug-In . SVG Version: 6.00 Build 0)  -->
<svg version="1.1" id="图层_1" xmlns="http://www.w3.org/2000/svg" xmlns:xlink="http://www.w3.org/1999/xlink" x="0px" y="0px"
	 viewBox="0 0 48 48" style="enable-background:new 0 0 48 48;" xml:space="preserve">
<g>
	<path d="M43.9,11.3c-0.7-0.4-1.5-0.4-2.2,0.1c-0.1,0-0.1,0.1-0.2,0.1l-6.1,6.1V12c-0.1-1.6-1.4-2.9-3-2.9H5.9C4.3,9,3,10.3,3,11.9
		V23c0,0.6,0.4,1,1,1s1-0.4,1-1V11.9C5.1,11.4,5.4,11,5.9,11h26.5c0.5,0.1,0.9,0.4,1,0.9v7.9v0.1c0,0.3,0.1,0.6,0.3,0.8
		c0.4,0.4,1,0.4,1.4,0l7.7-7.7c0.1,0,0.1,0,0.2,0v22h-0.1l-7.7-7.7c-0.4-0.4-1-0.4-1.4,0c-0.2,0.2-0.3,0.4-0.3,0.7v8.1
		c0,0.5-0.4,0.9-0.9,0.9H26c-0.6,0-1,0.4-1,1c0,0.6,0.4,1,1,1h6.5c1.6-0.1,2.9-1.3,2.9-2.9v-5.7l6.1,6.1c0.1,0.1,0.1,0.1,0.2,0.1
		c0.7,0.4,1.5,0.4,2.2,0.1c0.7-0.3,1.1-1,1.1-1.7V13C45,12.3,44.6,11.6,43.9,11.3z"/>
	<path d="M12.7,33.4c0.5-0.7,0.7-1.6,0.7-2.5v-2.5c0.1-2.4-1.8-4.3-4.1-4.4c-2.4,0.1-4.2,2-4.2,4.4v2.5c0,0.9,0.3,1.8,0.7,2.5
		c-1.2,0.4-3.1,1.1-3.1,3.1v1.2C2.7,38.5,3.3,39,4,39h10.5c0.7,0,1.3-0.6,1.3-1.3v-1.2C15.7,34.5,13.9,33.8,12.7,33.4z M14.7,37.6
		c0,0.3-0.1,0.4-0.2,0.4H4c-0.2,0-0.3-0.1-0.3-0.3v-1.2c0-1.3,1.3-1.8,2.7-2.2l0.4-0.1c0.3-0.1,0.4-0.4,0.3-0.6
		c0-0.1-0.1-0.1-0.1-0.2c-0.6-0.7-1-1.5-0.9-2.4v-2.5C6,26.6,7.4,25.1,9.2,25c1.8,0.1,3.2,1.6,3.2,3.4v2.5c0,0.9-0.3,1.8-0.9,2.4
		c-0.2,0.2-0.2,0.5,0,0.7c0.1,0.1,0.1,0.1,0.2,0.1l0.4,0.1c1.3,0.4,2.6,0.9,2.6,2.2V37.6z"/>
	<path d="M21.3,30.8c0.5-0.7,0.7-1.6,0.7-2.5v-2.5c0.1-2.4-1.8-4.3-4.1-4.4c-2.4,0.1-4.2,2-4.2,4.4v2.5c0,0.9,0.3,1.8,0.7,2.5
		c-0.3,0.1-0.6,0.2-0.9,0.3c0.4,0.2,0.8,0.4,1.1,0.7c0.1-0.1,0.3-0.1,0.5-0.1l0.4-0.1c0.3-0.1,0.4-0.4,0.3-0.6
		c0-0.1-0.1-0.1-0.1-0.2c-0.6-0.6-1-1.5-0.9-2.4v-2.5c-0.1-1.8,1.4-3.3,3.2-3.4c1.8,0.1,3.2,1.6,3.2,3.4v2.5c0,0.9-0.3,1.8-0.9,2.4
		c-0.2,0.2-0.2,0.5,0,0.7c0.1,0.1,0.1,0.1,0.2,0.1l0.4,0.1c1.3,0.4,2.6,0.9,2.6,2.2v1.2c0,0.2-0.1,0.3-0.3,0.3h-6.6
		c0,0.3-0.1,0.7-0.1,1h6.8c0.7,0,1.3-0.6,1.3-1.3v-1.2C24.4,31.9,22.5,31.2,21.3,30.8z"/>
	<path d="M29.5,14.5c0.3,0,0.5-0.2,0.5-0.5s-0.2-0.5-0.5-0.5h-11c-0.3,0-0.5,0.2-0.5,0.5s0.2,0.5,0.5,0.5H29.5z"/>
</g>
</svg>
