<svg id="图层_1" data-name="图层 1" xmlns="http://www.w3.org/2000/svg" viewBox="0 0 43.62 48"><title>saas</title><path id="形状结合" d="M21.76.62a5.87,5.87,0,0,1,5.14,0h0L43.57,9.9a5.42,5.42,0,0,1,2.57,4.32h0V33.85a5.39,5.39,0,0,1-2.57,4.33h0L26.9,47.43a5.8,5.8,0,0,1-5.14,0h0L5.09,38.15a5.4,5.4,0,0,1-2.57-4.3h0V14.22A5.42,5.42,0,0,1,5.09,9.9h0Zm2.57,1.64a2.92,2.92,0,0,0-1.42.31h0L6.22,11.84a3.2,3.2,0,0,0-1.41,2.38h0V33.85a3.18,3.18,0,0,0,1.43,2.39h0l16.67,9.27a3.51,3.51,0,0,0,2.84,0h0l16.69-9.27a3.19,3.19,0,0,0,1.41-2.39h0V14.22a3.15,3.15,0,0,0-1.43-2.38h0L25.75,2.57A2.92,2.92,0,0,0,24.33,2.26ZM22.91,12.38a3.13,3.13,0,0,1,2.83,0h0l3.5,2a3.1,3.1,0,0,1,1.42,2.45h0V22l4.27,2.45a3,3,0,0,1,1.41,2.44h0v4.3a3.09,3.09,0,0,1-1.41,2.45h0l-3.48,2a3.07,3.07,0,0,1-2.83,0h0l-4.29-2.45-4.25,2.45a3.07,3.07,0,0,1-2.83,0h0l-3.5-2a3.08,3.08,0,0,1-1.41-2.46h0V26.93a3.12,3.12,0,0,1,1.41-2.46h0L18,22V16.83a3.09,3.09,0,0,1,1.4-2.45h0Zm7.47,10.69L24.79,26v6.33l4.45,2.52a1.74,1.74,0,0,0,1.63,0h0l3.73-2.14a1.81,1.81,0,0,0,.79-1.35h0V26.71a1.82,1.82,0,0,0-.79-1.35h0ZM18.6,23l-4.45,2.51a1.76,1.76,0,0,0-.78,1.34h0v4.54a1.79,1.79,0,0,0,.78,1.35h0l3.64,2.14a1.74,1.74,0,0,0,1.63,0h0l4.42-2.39V26Zm6.55-9.67a1.82,1.82,0,0,0-1.64,0h0l-3.7,2.05a1.75,1.75,0,0,0-.76,1.34h0V22l5.28,3.07,5.4-2.88v-5.4a1.77,1.77,0,0,0-.79-1.34h0Z" transform="translate(-2.52 -0.03)"/></svg>