<?xml version="1.0" encoding="utf-8"?>
<!-- Generator: Adobe Illustrator 21.0.0, SVG Export Plug-In . SVG Version: 6.00 Build 0)  -->
<svg version="1.1" id="图层_1" xmlns="http://www.w3.org/2000/svg" xmlns:xlink="http://www.w3.org/1999/xlink" x="0px" y="0px"
	 viewBox="0 0 48 48" style="enable-background:new 0 0 48 48;" xml:space="preserve">
<style type="text/css">
	.st0{fill:#060001;}
	.st1{fill:#040000;}
	.st2{fill:none;stroke:#000000;stroke-miterlimit:10;}
	.st3{fill:#221815;}
	.st4{fill:#080102;}
	.st5{fill:none;stroke:#000000;stroke-width:2;stroke-linecap:round;stroke-linejoin:round;stroke-miterlimit:10;}
	.st6{fill:#070001;}
</style>
<path d="M41.9,10.5c-2.1-0.7-6.3-2.1-8.4-3.1c-4.2-2.1-5.8-3.5-7.4-4.7C25.5,2.2,24.8,2,24,2c0,0,0,0,0,0c0,0,0,0,0,0
	c-0.8,0-1.5,0.2-2.1,0.6c-1.6,1.2-3.2,2.6-7.4,4.7c-2.1,1-6.3,2.4-8.4,3.1c-1.4,0.5-2.2,1.7-2.1,3.1C4.4,18.1,5.5,27,8.2,32.5
	c3.2,6.3,11.1,11.2,14.2,13.1c0.5,0.3,1,0.4,1.6,0.4s1.1-0.1,1.6-0.4c3.1-1.9,11-6.8,14.2-13.1c2.7-5.5,3.8-14.4,4.2-18.8
	C44.1,12.2,43.2,10.9,41.9,10.5z M38,31.6c-2,4-6.5,8.1-13.4,12.3C24.4,43.9,24.2,44,24,44s-0.4-0.1-0.5-0.2
	C16.5,39.7,12,35.5,10,31.6C7.2,26,6.2,16.3,6,13.5c-0.1-0.7,0.6-1,0.8-1.1l0.8-0.3c2.3-0.8,5.9-2,7.9-3c3.8-1.9,5.6-3.3,7.1-4.4
	c0.2-0.2,0.4-0.3,0.6-0.5C23.2,4.1,23.5,4,23.9,4l0,0L24,4l0.1,0c0.4,0,0.7,0.1,0.8,0.2c0.2,0.2,0.4,0.3,0.6,0.5
	c1.4,1.1,3.2,2.5,7.1,4.4c2,1,5.5,2.2,7.9,3l0.8,0.3c0.2,0.1,0.8,0.3,0.8,1.1C41.8,16.3,40.8,26,38,31.6z M33.8,16.7
	c-3.7-0.7-7.2-2.6-8.8-4.1c-0.3-0.2-0.7-0.3-0.9-0.3c-0.2,0-0.7,0-1,0.3c-1.7,1.5-5.1,3.3-8.8,4.1c-0.5,0.1-0.9,1.1-0.9,1.6
	c0,0.4,0.1,0.8,0.1,1.2c0.3,2.6,0.6,6.4,3.2,9.9c1.7,2.4,4.4,4.8,6.8,6.1c0.1,0.1,0.3,0.1,0.6,0.1c0.3,0,0.4-0.1,0.5-0.1
	c2.4-1.3,5.1-3.7,6.8-6.1c2.3-3.2,2.8-7.3,3-9.9c0-0.4,0.1-0.8,0.1-1.2C34.6,17.9,34.4,16.8,33.8,16.7z M30.5,28.8
	c-1.6,2.2-4.2,4.6-6.3,5.8c0,0-0.1,0-0.1,0c-0.1,0-0.1,0-0.1,0c-2.2-1.2-4.8-3.5-6.4-5.8c-0.9-1.2-1.5-2.4-1.9-3.6l8.3,3.6l8.3-3.6
	C31.9,26.5,31.4,27.7,30.5,28.8z M32.7,23.9L24,27.6l-8.7-3.7c-0.3-1.1-0.4-2.2-0.6-3.2l9.3,3.9l9.3-3.9
	C33.1,21.7,33,22.8,32.7,23.9z M33.4,19.4C33.4,19.4,33.4,19.5,33.4,19.4l-9.4,4l-9.4-3.9c0-0.5-0.1-0.9-0.1-1.3
	c0-0.1,0.1-0.4,0.2-0.5c3.8-0.8,7.4-2.7,9.2-4.3c0,0,0.1-0.1,0.3-0.1c0.1,0,0.2,0,0.2,0c1.8,1.6,5.3,3.5,9.1,4.3
	c0.1,0.1,0.1,0.4,0.1,0.5C33.5,18.6,33.4,19,33.4,19.4z"/>
</svg>
