<?xml version="1.0" encoding="utf-8"?>
<!-- Generator: Adobe Illustrator 21.0.0, SVG Export Plug-In . SVG Version: 6.00 Build 0)  -->
<svg version="1.1" id="图层_1" xmlns="http://www.w3.org/2000/svg" xmlns:xlink="http://www.w3.org/1999/xlink" x="0px" y="0px"
	 viewBox="0 0 48 48" style="enable-background:new 0 0 48 48;" xml:space="preserve">
<style type="text/css">
	.st0{fill:#040000;}
</style>
<path d="M33.8,17.4c-3.7-0.7-7.1-2.6-8.9-4.1C24.6,13,24.2,13,24,13l0,0l0,0c-0.2,0-0.6,0-0.9,0.3c-1.8,1.5-5.2,3.4-8.9,4.1
	c-0.5,0.1-1.1,1.2-1,1.8c0,0.4,0.1,0.8,0.1,1.3c0.2,2.6,0.5,6.6,3.1,10.1c1.7,2.4,4.6,5,7,6.3c0.1,0,0.2,0.1,0.6,0.1c0,0,0,0,0,0
	c0,0,0,0,0,0c0.3,0,0.5-0.1,0.6-0.1c2.4-1.3,5.3-3.9,7-6.3c2.6-3.6,2.9-7.5,3.1-10.1c0-0.5,0.1-0.9,0.1-1.3
	C34.9,18.6,34.4,17.6,33.8,17.4z M33.6,20.4c-0.2,2.5-0.5,6.2-2.9,9.5c-1.6,2.2-4.4,4.7-6.6,5.9c0,0,0,0-0.1,0c0,0,0,0-0.1,0
	c-2.3-1.3-5-3.7-6.6-5.9c-2.4-3.3-2.7-7.1-2.9-9.5c0-0.5-0.1-0.9-0.1-1.3c0-0.1,0.1-0.4,0.3-0.6c4.1-0.8,7.5-2.9,9.3-4.4
	c0,0,0.1,0,0.2,0h0v0h0v0h0c0.1,0,0.2,0,0.2,0c1.7,1.5,5.2,3.5,9.3,4.4c0.1,0.1,0.3,0.4,0.3,0.6C33.7,19.5,33.6,19.9,33.6,20.4z
	 M41.2,11.8c-6.4-1.3-12.4-4.5-15.5-7.3C25.1,4.1,24.4,4,24,4c0,0,0,0,0,0c0,0,0,0,0,0c-0.4,0-1.1,0.1-1.7,0.5
	c-3.1,2.7-9.1,6-15.5,7.3C5.9,12,4.9,13.9,5,14.9c0.1,0.7,0.1,1.4,0.2,2.2c0.4,4.6,0.9,11.5,5.5,17.7c3,4.2,8.1,8.7,12.3,11
	c0.1,0,0.4,0.2,1,0.2c0,0,0,0,0,0c0,0,0,0,0,0c0.6,0,0.9-0.2,1-0.2c4.2-2.3,9.3-6.8,12.3-11c4.6-6.2,5.1-13.1,5.5-17.7
	c0.1-0.8,0.1-1.5,0.2-2.2C43.1,13.9,42.1,12,41.2,11.8z M40.8,16.9c-0.4,4.4-0.9,10.9-5.1,16.7c-2.9,3.9-7.6,8.2-11.6,10.4
	c0,0-0.1,0-0.1,0c0,0-0.1,0-0.1,0c-4-2.2-8.7-6.5-11.6-10.4c-4.2-5.8-4.8-12.4-5.1-16.7c-0.1-0.8-0.1-1.6-0.2-2.2
	c0-0.2,0.3-0.7,0.4-1c7.1-1.5,13.2-5,16.2-7.6C23.7,6,23.8,6,24,6h0v0h0v0h0c0.2,0,0.3,0,0.4,0.1c3,2.6,9,6.2,16.2,7.6
	c0.2,0.3,0.4,0.8,0.4,1C40.9,15.3,40.9,16.1,40.8,16.9z"/>
</svg>
