<?xml version="1.0" encoding="utf-8"?>
<!-- Generator: Adobe Illustrator 21.0.0, SVG Export Plug-In . SVG Version: 6.00 Build 0)  -->
<svg version="1.1" id="图层_1" xmlns="http://www.w3.org/2000/svg" xmlns:xlink="http://www.w3.org/1999/xlink" x="0px" y="0px"
	 viewBox="0 0 48 48" style="enable-background:new 0 0 48 48;" xml:space="preserve">
<style type="text/css">
	.st0{fill:#060001;}
	.st1{fill:#040000;}
	.st2{fill:none;stroke:#000000;stroke-miterlimit:10;}
	.st3{fill:#221815;}
	.st4{fill:#080102;}
	.st5{fill:none;stroke:#000000;stroke-width:2;stroke-linecap:round;stroke-linejoin:round;stroke-miterlimit:10;}
	.st6{fill:#070001;}
</style>
<path d="M18.5,23c-0.9,0-1.6,0.7-1.6,1.6c0,0.9,0.7,1.6,1.6,1.6c0.9,0,1.6-0.7,1.6-1.6C20.1,23.7,19.3,23,18.5,23z M18.5,25
	c-0.3,0-0.5-0.2-0.5-0.5s0.2-0.5,0.5-0.5c0.3,0,0.5,0.2,0.5,0.5S18.8,25,18.5,25z M31.2,24h-9.6c-0.3,0-0.5,0.2-0.5,0.5
	s0.2,0.5,0.5,0.5h9.6c0.3,0,0.5-0.2,0.5-0.5S31.5,24,31.2,24z M29.6,18.5c-0.8-2.3-3-3.9-5.5-3.9c-2.5,0-4.7,1.6-5.5,3.9
	c-2.9,0.3-5.2,2.8-5.2,5.8c0,3.2,2.6,5.8,5.8,5.8H29c3.2,0,5.8-2.6,5.8-5.8C34.8,21.2,32.5,18.8,29.6,18.5z M29,29h-9.7
	c-2.6,0-4.8-2.1-4.8-4.7c0-2.4,1.8-4.5,4.2-4.7c0.4,0,0.7-0.3,0.9-0.7c0.7-1.9,2.5-3.2,4.5-3.2c2,0,3.8,1.3,4.5,3.2
	c0.1,0.4,0.5,0.7,0.9,0.7c2.4,0.3,4.2,2.3,4.2,4.7C33.7,26.8,31.6,29,29,29z M41.9,10.5c-2.1-0.7-6.3-2.1-8.4-3.1
	c-4.2-2.1-5.8-3.5-7.4-4.7C25.5,2.2,24.8,2,24,2c0,0,0,0,0,0c0,0,0,0,0,0c-0.8,0-1.5,0.2-2.1,0.6c-1.6,1.2-3.2,2.6-7.4,4.7
	c-2.1,1-6.3,2.4-8.4,3.1c-1.4,0.5-2.2,1.7-2.1,3.1C4.4,18.1,5.5,27,8.2,32.5c3.2,6.3,11.1,11.2,14.2,13.1c0.5,0.3,1,0.4,1.6,0.4
	s1.1-0.1,1.6-0.4c3.1-1.9,11-6.8,14.2-13.1c2.7-5.5,3.8-14.4,4.2-18.8C44.1,12.2,43.2,10.9,41.9,10.5z M38,31.6
	c-2,4-6.5,8.1-13.4,12.3C24.4,43.9,24.2,44,24,44s-0.4-0.1-0.5-0.2C16.5,39.7,12,35.5,10,31.6C7.2,26,6.2,16.3,6,13.5
	c-0.1-0.7,0.6-1,0.8-1.1l0.8-0.3c2.3-0.8,5.9-2,7.9-3c3.8-1.9,5.6-3.3,7.1-4.4c0.2-0.2,0.4-0.3,0.6-0.5C23.2,4.1,23.5,4,23.9,4l0,0
	L24,4l0.1,0c0.4,0,0.7,0.1,0.8,0.2c0.2,0.2,0.4,0.3,0.6,0.5c1.4,1.1,3.2,2.5,7.1,4.4c2,1,5.5,2.2,7.9,3l0.8,0.3
	c0.2,0.1,0.8,0.3,0.8,1.1C41.8,16.3,40.8,26,38,31.6z"/>
</svg>
