<svg id="图层_1" data-name="图层 1" xmlns="http://www.w3.org/2000/svg" viewBox="0 0 44 33"><title>sis-tts</title><path d="M43.2,6.63H32.75a.86.86,0,0,0-.92.91.87.87,0,0,0,.92.92H43.2a.87.87,0,0,1,.92.92v9.71a.92.92,0,1,0,1.83,0V9.38A2.7,2.7,0,0,0,43.2,6.63ZM2.87,20.1a.86.86,0,0,0,.91-.92V9.56a1.18,1.18,0,0,1,1.1-1.1H15.15a.87.87,0,0,0,.92-.92.86.86,0,0,0-.92-.91H4.88A2.89,2.89,0,0,0,2,9.56v9.53A1,1,0,0,0,2.87,20.1ZM15.15,37.79H4.88a1.18,1.18,0,0,1-1.1-1.1V27.07a.86.86,0,0,0-.91-.92.87.87,0,0,0-.92.92v9.62a2.9,2.9,0,0,0,2.93,2.94H15.15a.92.92,0,0,0,0-1.84ZM45,26.15a.86.86,0,0,0-.91.92V36.6A1.12,1.12,0,0,1,43,37.7H32.75a.92.92,0,1,0,0,1.83H43A2.89,2.89,0,0,0,46,36.6V27.07A.92.92,0,0,0,45,26.15ZM24,19.92a.43.43,0,0,0-.46.46v1.83a.44.44,0,0,0,.46.46.44.44,0,0,0,.46-.46V20.38A.44.44,0,0,0,24,19.92Zm0,7.33a.43.43,0,0,0-.46.46v1.83A.43.43,0,0,0,24,30a.44.44,0,0,0,.46-.46V27.71A.44.44,0,0,0,24,27.25Zm0,3.67a.43.43,0,0,0-.46.46v1.83a.44.44,0,0,0,.46.46.44.44,0,0,0,.46-.46V31.38A.44.44,0,0,0,24,30.92Zm0-7.34a.44.44,0,0,0-.46.46v1.84a.43.43,0,0,0,.46.45.43.43,0,0,0,.46-.45V24A.44.44,0,0,0,24,23.58Zm0-7.33a.43.43,0,0,0-.46.46v1.83A.43.43,0,0,0,24,19a.44.44,0,0,0,.46-.46V16.71A.44.44,0,0,0,24,16.25Zm0-3.67a.44.44,0,0,0-.46.46v1.84a.43.43,0,0,0,.46.45.43.43,0,0,0,.46-.45V13A.44.44,0,0,0,24,12.58ZM7.36,27.07H8.55l.73-2.2h3.39l.83,2.2h1.19l-3-8.07h-1.2Zm3.57-7c0,.18.09.37.09.55l1.2,3.3H9.65l1.19-3.3C10.84,20.47,10.93,20.28,10.93,20.1Zm6.88,1.1a3.88,3.88,0,0,0-2,.55v1A3,3,0,0,1,17.72,22c.73,0,1.19.45,1.19,1.37l-1.74.28c-1.29.18-1.93.82-1.93,1.83a1.41,1.41,0,0,0,.46,1.28,2.21,2.21,0,0,0,1.37.46,2,2,0,0,0,1.75-1v.92h1V23.49C19.82,21.93,19.18,21.2,17.81,21.2Zm.64,4.68a1.54,1.54,0,0,1-1.1.45,1,1,0,0,1-.73-.27,1,1,0,0,1-.28-.64,1,1,0,0,1,.28-.74,1.92,1.92,0,0,1,1-.36L19,24.13v.55A3.71,3.71,0,0,1,18.45,25.88Zm17.14-.46V20.83a.43.43,0,0,0-.46-.45.43.43,0,0,0-.46.45v4.59a.44.44,0,0,0,.46.46A.44.44,0,0,0,35.59,25.42Zm2.84,1.83V19a.46.46,0,1,0-.91,0v8.25a.46.46,0,1,0,.91,0Zm2.48-1.83V20.83a.43.43,0,0,0-.46-.45.43.43,0,0,0-.46.45v4.59a.44.44,0,0,0,.46.46A.44.44,0,0,0,40.91,25.42Zm-8.16,1.83V19a.44.44,0,0,0-.46-.46.44.44,0,0,0-.46.46v8.25a.44.44,0,0,0,.46.46A.44.44,0,0,0,32.75,27.25Zm-3.3-6.87a.43.43,0,0,0-.46.45v4.59a.44.44,0,0,0,.46.46.44.44,0,0,0,.46-.46V20.83A.43.43,0,0,0,29.45,20.38Z" transform="translate(-1.95 -6.63)"/></svg>