<svg id="图层_1" data-name="图层 1" xmlns="http://www.w3.org/2000/svg" viewBox="0 0 44 44"><defs><style>.cls-1{fill:#404040;fill-rule:evenodd;}</style></defs><title>Smart Traffic</title><path class="cls-1" d="M46.06,31.07h-8a6.08,6.08,0,0,0-6,6v7a1,1,0,0,0,2,0v-7a4,4,0,0,1,4-4h8a1,1,0,0,0,0-2ZM25.31,23.82c0,.25.5.25.5,0,.25,0,.25-.5,0-.5h0l-6-6c0-.25-.5-.25-.5,0-.25,0-.25.5,0,.5l6,6ZM24.06,9.07v2.5a11.63,11.63,0,0,0,11.5,11.5h9a.5.5,0,0,0,0-1h-9a10.56,10.56,0,0,1-10.5-10.5V9.07a2.74,2.74,0,0,0,2-3,2.74,2.74,0,0,0-3-2,2.74,2.74,0,0,0-2,3,2.71,2.71,0,0,0,2,2Zm.5-4a1.61,1.61,0,0,1,1.5,1.5,1.5,1.5,0,0,1-3,0,1.61,1.61,0,0,1,1.5-1.5Zm13.5,11h8a1,1,0,0,0,0-2h-8a4,4,0,0,1-4-4v-8a1,1,0,0,0-2,0v8a6.08,6.08,0,0,0,6,6ZM27.81,25.32c0-.25-.5-.25-.5,0-.25,0-.25.5,0,.5l3,3c0,.25.5.25.5,0,.25,0,.25-.5,0-.5l-3-3ZM25.06,36.07v-1.5a11.63,11.63,0,0,0-11.5-11.5h-9a.5.5,0,1,0,0,1h9a10.56,10.56,0,0,1,10.5,10.5v1.5a2.55,2.55,0,1,0,1,5,2.74,2.74,0,0,0,2-3,2.71,2.71,0,0,0-2-2Zm-.5,4a1.5,1.5,0,1,1,1.5-1.5,1.61,1.61,0,0,1-1.5,1.5Zm-20.5-24h8a6.08,6.08,0,0,0,6-6v-8a1,1,0,0,0-2,0v8a4,4,0,0,1-4,4h-8a1,1,0,1,0,0,2Zm8,15h-8a1,1,0,1,0,0,2h8a4,4,0,0,1,4,4v7a1,1,0,0,0,2,0v-7a6.08,6.08,0,0,0-6-6Z" transform="translate(-3.06 -1.07)"/></svg>