<?xml version="1.0" encoding="utf-8"?>
<!-- Generator: Adobe Illustrator 21.0.0, SVG Export Plug-In . SVG Version: 6.00 Build 0)  -->
<svg version="1.1" id="图层_1" xmlns="http://www.w3.org/2000/svg" xmlns:xlink="http://www.w3.org/1999/xlink" x="0px" y="0px"
	 viewBox="0 0 48 48" style="enable-background:new 0 0 48 48;" xml:space="preserve">
<style type="text/css">
	.st0{fill:#040000;}
	.st1{fill:#060001;}
	.st2{fill:#080103;}
</style>
<path d="M16.6,19.9h13.5l-3.2,3.2c-0.2,0.2-0.2,0.5,0,0.7c0.1,0.1,0.2,0.1,0.4,0.1c0.1,0,0.3-0.1,0.4-0.2l4-4.1
	c0.2-0.2,0.2-0.5,0-0.7l-4-4.1c-0.2-0.2-0.5-0.2-0.7,0c-0.2,0.2-0.2,0.5,0,0.7l3.2,3.2H16.6c-0.3,0-0.5,0.2-0.5,0.5
	S16.3,19.9,16.6,19.9z M14,18.9h-2.1c-0.3,0-0.5,0.2-0.5,0.5s0.2,0.5,0.5,0.5H14c0.3,0,0.5-0.2,0.5-0.5S14.3,18.9,14,18.9z
	 M18.7,28.1h-2.1c-0.3,0-0.5,0.2-0.5,0.5s0.2,0.5,0.5,0.5h2.1c0.3,0,0.5-0.2,0.5-0.5S19,28.1,18.7,28.1z M32.4,24.1
	c-0.2-0.2-0.5-0.2-0.7,0c-0.2,0.2-0.2,0.5,0,0.7l3.2,3.2H21.4c-0.3,0-0.5,0.2-0.5,0.5s0.2,0.5,0.5,0.5h13.5l-3.2,3.2
	c-0.2,0.2-0.2,0.5,0,0.7c0.1,0.1,0.2,0.1,0.4,0.1c0.1,0,0.3-0.1,0.4-0.2l4-4.1c0.2-0.2,0.2-0.5,0-0.7L32.4,24.1z M41.6,11L26.4,2.5
	c-1.3-0.7-3.4-0.7-4.7,0L6.4,11C5,11.8,4,13.5,4,15v18c0,1.5,1,3.2,2.4,4l15.3,8.5c0.6,0.4,1.5,0.6,2.3,0.6s1.7-0.2,2.4-0.6
	l15.3-8.5c1.3-0.7,2.4-2.5,2.4-4V15C44,13.5,43,11.8,41.6,11z M41.9,33c0,0.8-0.6,1.8-1.3,2.2l-15.3,8.5c-0.7,0.4-2,0.4-2.6,0
	L7.4,35.2c-0.7-0.4-1.3-1.4-1.3-2.2V15c0-0.8,0.6-1.8,1.3-2.2l15.3-8.5C23,4.1,23.5,4,24,4s1,0.1,1.3,0.3l15.3,8.5
	c0.7,0.4,1.3,1.4,1.3,2.2V33z"/>
</svg>
