<?xml version="1.0" encoding="utf-8"?>
<!-- Generator: Adobe Illustrator 21.0.0, SVG Export Plug-In . SVG Version: 6.00 Build 0)  -->
<svg version="1.1" id="图层_1" xmlns="http://www.w3.org/2000/svg" xmlns:xlink="http://www.w3.org/1999/xlink" x="0px" y="0px"
	 viewBox="0 0 48 48" style="enable-background:new 0 0 48 48;" xml:space="preserve">
<style type="text/css">
	.st0{fill:#060001;}
	.st1{fill:#040000;}
	.st2{fill:none;stroke:#000000;stroke-miterlimit:10;}
	.st3{fill:#221815;}
	.st4{fill:#080102;}
	.st5{fill:none;stroke:#000000;stroke-width:2;stroke-linecap:round;stroke-linejoin:round;stroke-miterlimit:10;}
	.st6{fill:#070001;}
</style>
<path d="M46,28c0-6.2-4.7-11.3-10.7-11.9C33.7,11.4,29.3,8,24,8c-5.3,0-9.7,3.4-11.3,8.1C6.7,16.7,2,21.8,2,28c0,6.6,5.4,12,12,12
	h13.5l0,0H34l0,0C40.6,40,46,34.6,46,28z M34,38H14c-3.9,0-7.3-2.2-8.9-5.5h17c0.1,0,0.1,0,0.2,0c0,0,0.1,0,0.1-0.1c0,0,0,0,0.1,0
	l0,0c0,0,0,0,0,0l8.8-8.5v5.1c0,0.3,0.2,0.5,0.5,0.5s0.5-0.2,0.5-0.5v-6.2c0,0,0,0,0-0.1c0,0,0-0.1,0-0.1c0,0,0-0.1-0.1-0.1
	c0,0,0,0,0,0c0,0,0,0,0,0c0,0-0.1-0.1-0.2-0.1c-0.1,0-0.1,0-0.2,0c0,0,0,0,0,0h-6c-0.3,0-0.5,0.2-0.5,0.5s0.2,0.5,0.5,0.5h4.8
	l-8.6,8.4H4.6C4.2,30.4,4,29.2,4,28c0-0.9,0.1-1.7,0.3-2.5h14.9c0.3,0,0.5-0.2,0.5-0.5s-0.2-0.5-0.5-0.5H4.6c1.3-3.4,4.4-6,8.3-6.4
	c0.8-0.1,1.4-0.6,1.7-1.3c1.4-4,5.2-6.7,9.4-6.7s8,2.7,9.4,6.7c0.3,0.7,0.9,1.2,1.7,1.3c5.1,0.6,8.9,4.8,8.9,9.9
	C44,33.5,39.5,38,34,38z"/>
</svg>
