<?xml version="1.0" encoding="utf-8"?>
<!-- Generator: Adobe Illustrator 21.0.0, SVG Export Plug-In . SVG Version: 6.00 Build 0)  -->
<svg version="1.1" id="图层_1" xmlns="http://www.w3.org/2000/svg" xmlns:xlink="http://www.w3.org/1999/xlink" x="0px" y="0px"
	 viewBox="0 0 48 48" style="enable-background:new 0 0 48 48;" xml:space="preserve">
<style type="text/css">
	.st0{fill:#060001;}
	.st1{fill:#040000;}
	.st2{fill:none;stroke:#000000;stroke-miterlimit:10;}
	.st3{fill:#221815;}
	.st4{fill:#080102;}
	.st5{fill:none;stroke:#000000;stroke-width:2;stroke-linecap:round;stroke-linejoin:round;stroke-miterlimit:10;}
	.st6{fill:#070001;}
</style>
<path d="M31.6,32h-15c-0.3,0-0.5,0.2-0.5,0.5s0.2,0.5,0.5,0.5h15c0.3,0,0.5-0.2,0.5-0.5S31.9,32,31.6,32z M34.4,19.1l-5.1,2.8
	l-4.7-6.6c-0.2-0.3-0.6-0.3-0.8,0L19,21.9l-5.1-2.8c-0.2-0.1-0.4-0.1-0.6,0.1c-0.3,0-0.3,0.2-0.3,0.4l3,10c0.1,0.2,0.3,0.4,0.5,0.4
	h15c0.2,0,0.4-0.1,0.5-0.4l3-10c0.1-0.2,0-0.4-0.2-0.5C34.8,19,34.5,19,34.4,19.1z M31.2,29H16.9l-2.5-8.5l4.4,2.4
	c0.2,0.1,0.5,0.1,0.6-0.1l4.6-6.4l4.6,6.4c0.1,0.2,0.4,0.3,0.6,0.1l4.4-2.4L31.2,29z M35.4,2H12.7C10.1,2,8,4.2,8,7v34
	c0,2.8,2.1,5,4.7,5h22.6c2.6,0,4.7-2.2,4.7-5V7C40.1,4.2,38,2,35.4,2z M38.1,41c0,1.7-1.2,3-2.7,3H12.7c-1.5,0-2.7-1.3-2.7-3V7
	c0-1.7,1.2-3,2.7-3h22.6c1.6,0,2.8,1.3,2.8,3V41z"/>
</svg>
