<?xml version="1.0" encoding="utf-8"?>
<!-- Generator: Adobe Illustrator 21.0.0, SVG Export Plug-In . SVG Version: 6.00 Build 0)  -->
<svg version="1.1" id="图层_1" xmlns="http://www.w3.org/2000/svg" xmlns:xlink="http://www.w3.org/1999/xlink" x="0px" y="0px"
	 viewBox="0 0 48 48" style="enable-background:new 0 0 48 48;" xml:space="preserve">
<style type="text/css">
	.st0{fill:#060001;}
	.st1{fill:#040000;}
	.st2{fill:none;stroke:#000000;stroke-miterlimit:10;}
	.st3{fill:#221815;}
	.st4{fill:#080102;}
	.st5{fill:none;stroke:#000000;stroke-width:2;stroke-linecap:round;stroke-linejoin:round;stroke-miterlimit:10;}
	.st6{fill:#070001;}
</style>
<g>
	<path d="M24,2C11.9,2,2,11.9,2,24s9.9,22,22,22s22-9.9,22-22S36.1,2,24,2z M24,44.2C12.8,44.2,3.8,35.2,3.8,24S12.8,3.8,24,3.8
		S44.2,12.8,44.2,24S35.2,44.2,24,44.2z"/>
	<path d="M33,29c-0.9,0-1.7,0.3-2.5,0.9L29,28.3c2.2-2.5,2.2-6.2,0-8.7l1.6-1.6c0.7,0.6,1.6,0.9,2.4,0.9c1,0,2-0.4,2.8-1.2
		c1.5-1.5,1.5-4.1,0-5.6C35,11.5,34,11.1,33,11.1c-1,0-2,0.4-2.8,1.2c-1.4,1.4-1.5,3.7-0.3,5.3l-1.5,1.5c-1.2-1.1-2.8-1.7-4.4-1.7
		c-1.6,0-3.1,0.6-4.3,1.6l-1.6-1.6c1.2-1.6,1.2-3.8-0.3-5.3c-0.8-0.8-1.8-1.2-2.8-1.2c-1,0-2,0.4-2.8,1.2c-1.5,1.5-1.5,4.1,0,5.6
		C13,18.6,14,19,15,19c0.9,0,1.7-0.3,2.5-0.9l1.6,1.6c-2.2,2.5-2.2,6.2,0,8.7l-1.5,1.5C16.8,29.3,15.9,29,15,29c-1,0-2,0.4-2.8,1.2
		c-1.5,1.5-1.5,4.1,0,5.6c0.8,0.8,1.8,1.2,2.8,1.2s2-0.4,2.8-1.2c1.4-1.4,1.5-3.7,0.3-5.2l1.6-1.6c1.2,1.1,2.8,1.6,4.3,1.6
		c1.6,0,3.1-0.6,4.3-1.6l1.6,1.6c-1.2,1.6-1.2,3.8,0.3,5.3c0.8,0.8,1.8,1.2,2.8,1.2c1,0,2-0.4,2.8-1.2c1.5-1.5,1.5-4.1,0-5.6
		C35,29.4,34,29,33,29z M30.8,12.9c0.6-0.6,1.4-0.9,2.2-0.9c0.8,0,1.6,0.3,2.2,0.9s0.9,1.4,0.9,2.2s-0.3,1.6-0.9,2.2
		s-1.4,0.9-2.2,0.9s-1.6-0.3-2.2-0.9C29.6,16,29.6,14.1,30.8,12.9z M15,18.1c-0.8,0-1.6-0.3-2.2-0.9c-0.6-0.6-0.9-1.4-0.9-2.2
		s0.3-1.6,0.9-2.2c0.6-0.6,1.4-0.9,2.2-0.9c0.8,0,1.6,0.3,2.2,0.9c1.2,1.2,1.2,3.2,0,4.4C16.6,17.8,15.9,18.1,15,18.1z M17.2,35.1
		c-0.6,0.6-1.4,0.9-2.2,0.9c-0.8,0-1.6-0.3-2.2-0.9c-0.6-0.6-0.9-1.4-0.9-2.2s0.3-1.6,0.9-2.2s1.4-0.9,2.2-0.9
		c0.8,0,1.6,0.3,2.2,0.9C18.4,32,18.4,33.9,17.2,35.1z M24,29.7c-1.5,0-3-0.6-4-1.7c-2.2-2.2-2.2-5.9,0-8.1c1.1-1.1,2.5-1.7,4-1.7
		c1.5,0,3,0.6,4,1.7c2.2,2.2,2.2,5.9,0,8.1C27,29.1,25.5,29.7,24,29.7z M35.1,35.1c-0.6,0.6-1.4,0.9-2.2,0.9s-1.6-0.3-2.2-0.9
		c-1.2-1.2-1.2-3.2,0-4.4c0.6-0.6,1.4-0.9,2.2-0.9s1.6,0.3,2.2,0.9s0.9,1.4,0.9,2.2S35.7,34.6,35.1,35.1z"/>
</g>
</svg>
