<svg id="图层_1" data-name="图层 1" xmlns="http://www.w3.org/2000/svg" viewBox="0 0 44 38.95"><title>tdc</title><path id="路径-10" d="M19.57,14.54c-.28-.28-.19-.64.09-1.19l.73-.64a1.93,1.93,0,0,1,2.2,0l7.77,5.94a1.92,1.92,0,0,1,.73,1.47v.36A1.92,1.92,0,0,1,30.36,22L23,27.44l7.41,5.85a1.91,1.91,0,0,1,.73,1.46v.37a1.88,1.88,0,0,1-.73,1.46l-7.77,5.67a1.93,1.93,0,0,1-2.2,0L2.74,29.36A1.93,1.93,0,0,1,2,27.89v-.45A1.93,1.93,0,0,1,2.74,26L8,22a1,1,0,0,1,1.28.18,1.32,1.32,0,0,1,.18.55v.46l-5.67,4.3v.45L21.4,40.79l7.77-5.67v-.37L21.76,28.9a1.78,1.78,0,0,1-.27-2.56c.09-.09.18-.28.36-.37l7.32-5.49v-.36l-7.77-6-.64.46C20.21,14.9,19.84,14.9,19.57,14.54Zm-7,15.09a.57.57,0,0,1-.09-.64c.09-.18.46-.18.64-.09l7.14,5.85a.57.57,0,0,1,.09.64c-.09.19-.46.19-.64.1Zm2.84,0A.46.46,0,1,1,16,28.9l3.66,2.93a.46.46,0,1,1-.55.73Zm19.48-9.51a1.93,1.93,0,0,1,2.2,0L45.27,26a1.84,1.84,0,0,1,0,2.93l-8.14,5.85a1.77,1.77,0,0,1-2.1,0L27.16,29a1.88,1.88,0,0,1-.73-1.46,1.92,1.92,0,0,1,.73-1.47ZM36,33.2l8-5.76-8-5.86-8,5.86ZM12.07,21h6.4v-.91H17.1a.46.46,0,0,1,0-.92h3.2V16.46H10.24V19.2h.91a.87.87,0,0,1,.92.92ZM13,22h-.91a.87.87,0,0,1-.92-.92v-.91h-.91a.87.87,0,0,1-.92-.92V16.46a.87.87,0,0,1,.92-.92H13V11.88h-.91a.86.86,0,0,1-.92-.91V4.57a.87.87,0,0,1,.92-.92h6.4a.86.86,0,0,1,.91.92V11a.86.86,0,0,1-.91.91h-.92v3.66H20.3a.86.86,0,0,1,.91.92V19.2a.86.86,0,0,1-.91.92h-.92V21a.86.86,0,0,1-.91.92h-.92v3.66l-1.55,2a1,1,0,0,1-1.28.18l-.18-.18-1.56-2Zm.92,3.38,1.37,1.83,1.37-1.83V22H13.9Zm0-9.79h2.74V11.88H13.9ZM12.07,11h6.4V4.57h-6.4V7.31h3.2a.43.43,0,0,1,.45.46.43.43,0,0,1-.45.46h-3.2Z" transform="translate(-2 -3.65)"/></svg>