<svg id="图层_1" data-name="图层 1" xmlns="http://www.w3.org/2000/svg" viewBox="0 0 40 40"><title>textmoderation</title><path d="M24.11,25.59a15.54,15.54,0,0,0,1.9,1.7.5.5,0,1,1-.6.8,18,18,0,0,1-1.94-1.71,36.3,36.3,0,0,1-3.61,3.67.5.5,0,1,1-.66-.74,38.36,38.36,0,0,0,3.6-3.68A15.32,15.32,0,0,1,20.51,22a.5.5,0,0,1,.92-.41,13.59,13.59,0,0,0,2,3.24A15.16,15.16,0,0,0,26,20.12L18.51,20a.51.51,0,0,1-.49-.51.49.49,0,0,1,.5-.49l4.48.05V17.56a.51.51,0,0,1,.5-.5.5.5,0,0,1,.5.5V19.1l5.54.06a.5.5,0,0,1,.49.51.49.49,0,0,1-.5.49l-2.48,0A15.82,15.82,0,0,1,24.11,25.59ZM29,29.13h4.25l-1.8-5h-.67Zm-.36,1-1.06,3a.5.5,0,0,1-.94-.33L30,23.52a.59.59,0,0,1,.56-.4h1.24a.5.5,0,0,1,.54.32L35.7,33a.5.5,0,0,1-.3.64.51.51,0,0,1-.64-.31l-1.12-3.15Zm-1.64,9a13,13,0,1,0-13-13A13,13,0,0,0,27,39.13ZM38.33,36l5.41,5.42a1,1,0,0,1-1.41,1.41l-5.42-5.42A14.85,14.85,0,1,1,38.33,36ZM18,43.13a1,1,0,0,1-1,1H8a4,4,0,0,1-4-4v-32a4,4,0,0,1,4-4H38a4,4,0,0,1,4,4v6a1,1,0,1,1-2,0v-6a2,2,0,0,0-2-2H8a2,2,0,0,0-2,2v32a2,2,0,0,0,2,2h9A1,1,0,0,1,18,43.13Z" transform="translate(-4.03 -4.13)"/></svg>