<svg id="图层_1" data-name="图层 1" xmlns="http://www.w3.org/2000/svg" viewBox="0 0 48 48"><title>画板 1</title><path d="M45,32H37a6,6,0,0,0-6,6v7a1,1,0,0,0,2,0V38a4,4,0,0,1,4-4h8a1,1,0,0,0,0-2ZM24.15,24.85a.5.5,0,0,0,.71-.71l-6-6a.5.5,0,0,0-.71.71ZM23,9.95V12.5A11.51,11.51,0,0,0,34.5,24h9a.5.5,0,0,0,0-1h-9A10.51,10.51,0,0,1,24,12.5V9.95a2.5,2.5,0,1,0-1,0ZM23.5,6A1.5,1.5,0,1,1,22,7.5,1.5,1.5,0,0,1,23.5,6ZM37,17h8a1,1,0,0,0,0-2H37a4,4,0,0,1-4-4V3a1,1,0,0,0-2,0v8A6,6,0,0,0,37,17ZM26.85,26.15a.5.5,0,0,0-.71.71l3,3a.5.5,0,0,0,.71-.71ZM24,37.05V35.5A11.51,11.51,0,0,0,12.5,24h-9a.5.5,0,0,0,0,1h9A10.51,10.51,0,0,1,23,35.5v1.55a2.5,2.5,0,1,0,1,0ZM23.5,41A1.5,1.5,0,1,1,25,39.5,1.5,1.5,0,0,1,23.5,41ZM3,17h8a6,6,0,0,0,6-6V3a1,1,0,0,0-2,0v8a4,4,0,0,1-4,4H3a1,1,0,0,0,0,2Zm8,15H3a1,1,0,0,0,0,2h8a4,4,0,0,1,4,4v7a1,1,0,0,0,2,0V38A6,6,0,0,0,11,32Z"/></svg>