<svg id="图层_1" data-name="图层 1" xmlns="http://www.w3.org/2000/svg" viewBox="0 0 40 44"><defs><style>.cls-1{fill:#080102;}</style></defs><title>ugo</title><path class="cls-1" d="M42.1,11,26.81,2.54a5.38,5.38,0,0,0-4.7,0L6.82,11a5,5,0,0,0-2.36,4V33a5,5,0,0,0,2.36,4l15.29,8.5a4.92,4.92,0,0,0,2.35.56,5,5,0,0,0,2.35-.55L42.1,36.94a4.94,4.94,0,0,0,2.36-4V15A4.94,4.94,0,0,0,42.1,11ZM42.36,33a2.9,2.9,0,0,1-1.3,2.18l-15.29,8.5a3.29,3.29,0,0,1-2.61,0L7.87,35.16A2.9,2.9,0,0,1,6.57,33V15a2.87,2.87,0,0,1,1.3-2.18L23.16,4.32a3.18,3.18,0,0,1,2.61,0l15.29,8.5A2.91,2.91,0,0,1,42.36,15ZM21.12,25h0a.5.5,0,0,0,.5-.46.52.52,0,0,0-.47-.55c-3.58-.3-5.79-1.4-5.79-2.24h0V19.22c1.56,1.12,4.71,1.72,7.74,1.72s6.17-.6,7.73-1.72v1.5a.51.51,0,0,0,.51.51.5.5,0,0,0,.5-.51V17.86a.3.3,0,0,0,0-.1.78.78,0,0,0,0-.16c0-2.17-4.5-3.34-8.74-3.34s-8.75,1.17-8.75,3.34a.78.78,0,0,0,0,.16.3.3,0,0,0,0,.1v3.86h0v4.1h0v4.63h0v.25a.52.52,0,0,0,.11.3c.62,1.62,3.82,2.46,6.62,2.7h0a.51.51,0,0,0,0-1c-3.58-.31-5.79-1.4-5.79-2.25h0v-3a12.61,12.61,0,0,0,5.72,1.63h0a.5.5,0,0,0,.5-.46.52.52,0,0,0-.47-.55c-3.58-.3-5.79-1.4-5.79-2.25h0V23.36A12.49,12.49,0,0,0,21.12,25Zm2-9.71c4.79,0,7.73,1.36,7.73,2.33s-2.94,2.33-7.73,2.33S15.4,18.58,15.4,17.6,18.34,15.27,23.14,15.27ZM33.6,28.55H32.05A8.39,8.39,0,0,0,30.82,27a1.83,1.83,0,0,0,.91-1.58v-2a1.85,1.85,0,0,0-1.85-1.85h-2a1.85,1.85,0,0,0-1.85,1.85v2A1.82,1.82,0,0,0,27,27a8.8,8.8,0,0,0-1.22,1.55H24.17a1.85,1.85,0,0,0-1.84,1.85v2a1.85,1.85,0,0,0,1.84,1.85h2A1.85,1.85,0,0,0,28,32.38v-2a1.85,1.85,0,0,0-1.18-1.72,11.17,11.17,0,0,1,1.26-1.41h1.6A11.17,11.17,0,0,1,31,28.68a1.85,1.85,0,0,0-1.18,1.72v2a1.85,1.85,0,0,0,1.85,1.85h2a1.85,1.85,0,0,0,1.85-1.85v-2A1.85,1.85,0,0,0,33.6,28.55Zm-6.55-5.11a.85.85,0,0,1,.85-.85h2a.85.85,0,0,1,.85.85v2a.85.85,0,0,1-.85.85h-2a.85.85,0,0,1-.85-.85Zm0,8.94a.85.85,0,0,1-.85.85h-2a.85.85,0,0,1-.84-.85v-2a.85.85,0,0,1,.84-.85h2a.85.85,0,0,1,.85.85Zm7.44,0a.85.85,0,0,1-.85.85h-2a.85.85,0,0,1-.85-.85v-2a.85.85,0,0,1,.85-.85h2a.85.85,0,0,1,.85.85Z" transform="translate(-4.46 -2)"/></svg>