<?xml version="1.0" encoding="utf-8"?>
<!-- Generator: Adobe Illustrator 21.0.0, SVG Export Plug-In . SVG Version: 6.00 Build 0)  -->
<svg version="1.1" id="图层_1" xmlns="http://www.w3.org/2000/svg" xmlns:xlink="http://www.w3.org/1999/xlink" x="0px" y="0px"
	 viewBox="0 0 48 48" style="enable-background:new 0 0 48 48;" xml:space="preserve">
<path d="M35.6,2H12.8C6.9,2,2,6.9,2,12.6v17.2c0,5.4,4.3,10,9.8,10.4c0.5,0,1-0.4,1.1-0.9c0-0.5-0.4-1-0.9-1.1
	C7.5,37.9,4,34.2,4,29.8V24h6.8c1.8,0,3.2,1.2,3.2,2.5v2.3c-1.5,0.2-2.6,1.4-2.6,3c0,1.7,1.3,3,3,3s3-1.3,3-3c0-1.4-1-2.7-2.4-2.9
	v-2.3c0-1.9-1.8-3.5-4.2-3.5H4v-6h9.8c2.9,0,5.2-1.2,5.2-3.1v-2.3c1.4-0.3,2.4-1.5,2.4-2.9c0-1.7-1.3-3-3-3s-3,1.3-3,3
	c0,1.5,1.1,2.8,2.6,3v2.3c0,1.4-1.8,2.1-4.2,2.1H4v-3.4C4,8,8,4,12.8,4h22.8c0.1,0,0.2,0.3,0.4,0.3v14c0,0,0,0,0,0
	c-1.5,0.2-2.6,1.4-2.6,3c0,1.7,1.3,3,3,3s3-1.3,3-3c0-1.5-1-2.7-2.4-2.9c0,0,0,0,0-0.1V4.4c4.1,0.6,7,3.9,7,8.2v17.2
	c0,0.2,0,0.2,0,0.2h-9.1c-2.6,0-4.8-1.8-4.8-4.2V14.3c0,0,0,0,0-0.1c1.4-0.3,2.4-1.5,2.4-2.9c0-1.7-1.3-3-3-3s-3,1.3-3,3
	c0,1.5,1.1,2.8,2.6,3c0,0,0,0,0,0v11.5c0,2.9,2.7,5.2,5.8,5.2h9c-0.7,4-4,7-8.2,7H23V24.3c0,0,0,0,0-0.1c1.4-0.3,2.4-1.5,2.4-2.9
	c0-1.7-1.3-3-3-3s-3,1.3-3,3c0,1.5,1.1,2.8,2.6,3c0,0,0,0,0,0V38h-3.7c-0.3,0-0.6,0.3-0.8,0.5l-5,6.8c-0.3,0.4-0.2,1.1,0.2,1.4
	c0.2,0.1,0.4,0.2,0.6,0.2c0.3,0,0.6-0.3,0.8-0.5l4.7-6.5h16.8C41.4,40,46,35.7,46,29.8V12.6C46,6.8,41.4,2,35.6,2z M16.4,31.8
	c0,1.1-0.9,2-2,2s-2-0.9-2-2s0.9-2,2-2S16.4,30.7,16.4,31.8z M16.4,8.6c0-1.1,0.9-2,2-2s2,0.9,2,2s-0.9,2-2,2S16.4,9.7,16.4,8.6z
	 M38.4,21.3c0,1.1-0.9,2-2,2s-2-0.9-2-2s0.9-2,2-2S38.4,20.2,38.4,21.3z M27.4,11.3c0-1.1,0.9-2,2-2s2,0.9,2,2s-0.9,2-2,2
	S27.4,12.4,27.4,11.3z M20.4,21.3c0-1.1,0.9-2,2-2s2,0.9,2,2s-0.9,2-2,2S20.4,22.4,20.4,21.3z"/>
</svg>
