<?xml version="1.0" encoding="utf-8"?>
<!-- Generator: Adobe Illustrator 17.0.0, SVG Export Plug-In . SVG Version: 6.00 Build 0)  -->
<!DOCTYPE svg PUBLIC "-//W3C//DTD SVG 1.1//EN" "http://www.w3.org/Graphics/SVG/1.1/DTD/svg11.dtd">
<svg version="1.1" id="图层_1" xmlns="http://www.w3.org/2000/svg" xmlns:xlink="http://www.w3.org/1999/xlink" x="0px" y="0px"
	 width="48px" height="48px" viewBox="24.5 816.5 48 48" enable-background="new 24.5 816.5 48 48" xml:space="preserve">
<path d="M60.5,839.5c-5.5,0-10,4.5-10,10s4.5,10,10,10s10-4.5,10-10S66,839.5,60.5,839.5z M60.5,857.5c-4.4,0-8-3.6-8-8s3.6-8,8-8
	s8,3.6,8,8S64.9,857.5,60.5,857.5z M45.7,833.1c-0.4-0.3-1-0.3-1.4,0c-0.5,0.3-0.7,0.7-0.7,1.2v8.5c0,0.5,0.3,1,0.7,1.2
	c0.2,0.1,0.5,0.2,0.7,0.2c0.3,0,0.5-0.1,0.7-0.2l7-4.2c0.4-0.3,0.7-0.7,0.7-1.2s-0.3-1-0.7-1.2L45.7,833.1z M52.3,839l-7,4.2
	c-0.2,0.1-0.4,0.1-0.6,0c-0.2-0.1-0.3-0.3-0.3-0.5v-8.5c0-0.2,0.1-0.4,0.3-0.5c0.1-0.1,0.2-0.1,0.3-0.1s0.2,0,0.3,0.1l7,4.2
	c0.2,0.1,0.3,0.3,0.3,0.5C52.6,838.6,52.5,838.9,52.3,839z M65.2,846.1l-6.7,5.7l-2.7-2.7c-0.2-0.2-0.5-0.2-0.7,0
	c-0.2,0.2-0.2,0.5,0,0.7l3,3c0.1,0.1,0.2,0.1,0.4,0.1c0.1,0,0.2,0,0.3-0.1l7-6c0.2-0.2,0.2-0.5,0.1-0.7
	C65.7,846,65.4,845.9,65.2,846.1z M47.5,854.5H33.4v-31h28.2V836c0,0.2,0.2,0.4,0.4,0.4s0.4-0.2,0.4-0.4v-4.6h4.1v5.6
	c0,0.6,0.4,1,1,1s1-0.4,1-1v-11.5c0-2.2-1.8-4-4-4h-34c-2.2,0-4,1.8-4,4v27c0,2.2,1.8,4,4,4h17c0.6,0,1-0.4,1-1
	S48.1,854.5,47.5,854.5z M62.4,823.5h2.1c1.1,0,2,0.9,2,2v5.1h-4.1V823.5z M32.6,854.5h-2.1c-1.1,0-2-0.9-2-2v-5.1h4.1V854.5z
	 M32.6,846.6h-4.1v-7.2h4.1V846.6z M32.6,838.6h-4.1v-7.2h4.1V838.6z M32.6,830.6h-4.1v-5.1c0-1.1,0.9-2,2-2h2.1V830.6z"/>
</svg>
