<svg id="图层_1" data-name="图层 1" xmlns="http://www.w3.org/2000/svg" viewBox="0 0 44 37.87"><title>VCP</title><path id="服务图标-视频编辑vcp" d="M8.15,32H3V31H8.15V23.83H3v-1H8.15V15.62H3v-1H8.15V5.36h1V40.24h-1ZM38.92,14.59h6.16v1H38.92v7.69a.51.51,0,1,1-1,0V5.36h1Zm5.13,9.24a1,1,0,0,1-1-1V9.47A2.06,2.06,0,0,0,41,7.42H6.1a2.05,2.05,0,0,0-2,2.05V37.16A2.05,2.05,0,0,0,6.1,39.21H25.59a1,1,0,1,1,0,2H6.1A4.11,4.11,0,0,1,2,37.16V9.47A4.12,4.12,0,0,1,6.1,5.36H41a4.12,4.12,0,0,1,4.11,4.11V22.8A1,1,0,0,1,44.05,23.83Zm-15.9.41c.11-.11.31-.21.41-.41a1,1,0,0,0-.41-1.44L22,18.8a1,1,0,0,0-.51-.1,1,1,0,0,0-1,1V26.9a1,1,0,0,0,.1.52,1.15,1.15,0,0,0,1.44.41Zm-5.64,4.41a2,2,0,0,1-2.77-.72,2,2,0,0,1-.3-1V19.72a2.05,2.05,0,0,1,2-2,1.67,1.67,0,0,1,1,.31l6.16,3.59a2,2,0,0,1,.71,2.77,2.44,2.44,0,0,1-.71.72ZM33.79,39.52l8-8-1.43-1.44-8,8Zm-.71.72L31.64,38.8h0l-.51,2,1.95-.51Zm9.43-9.44L44,29.36l-1.44-1.43-1.43,1.43ZM44,26.49l1.43,1.44a2,2,0,0,1,0,2.87L34.31,42a2.53,2.53,0,0,1-.52.31l-3.89.92a1,1,0,0,1-1.23-.72V42l.92-3.9c0-.2.1-.31.31-.51L41,26.49A2.11,2.11,0,0,1,44,26.49Z" transform="translate(-2 -5.36)"/></svg>