<?xml version="1.0" encoding="utf-8"?>
<!-- Generator: Adobe Illustrator 17.0.0, SVG Export Plug-In . SVG Version: 6.00 Build 0)  -->
<!DOCTYPE svg PUBLIC "-//W3C//DTD SVG 1.1//EN" "http://www.w3.org/Graphics/SVG/1.1/DTD/svg11.dtd">
<svg version="1.1" id="图层_1" xmlns="http://www.w3.org/2000/svg" xmlns:xlink="http://www.w3.org/1999/xlink" x="0px" y="0px"
	 width="48px" height="48px" viewBox="281.5 398.5 48 48" enable-background="new 281.5 398.5 48 48" xml:space="preserve">
<path d="M284.1,427.3c0.3,0.2,0.8,0.1,1.1-0.1l4.3-3.4l4.4,3.4c0.2,0.1,0.4,0.2,0.6,0.2s0.3,0,0.4-0.1c0.3-0.2,0.6-0.5,0.6-0.9
	v-20.9c0-0.6-0.4-1-1-1h-7c-2.2,0-4,1.8-4,4v17.9C283.5,426.7,283.7,427.1,284.1,427.3z M285.5,408.5c0-1.1,0.9-2,2-2h6v17.8
	l-3.4-2.6c-0.2-0.1-0.4-0.2-0.6-0.2s-0.4,0.1-0.6,0.2l-3.4,2.6V408.5z M303,428.2c0.3,0,0.5-0.1,0.7-0.2l7-4.2
	c0.4-0.3,0.7-0.7,0.7-1.2s-0.3-1-0.7-1.2l-7-4.2c-0.4-0.3-1-0.3-1.4,0c-0.5,0.3-0.7,0.7-0.7,1.2v8.5c0,0.5,0.3,1,0.7,1.2
	C302.5,428.1,302.8,428.2,303,428.2z M302.4,418.3c0-0.2,0.1-0.4,0.3-0.5c0.1-0.1,0.2-0.1,0.3-0.1s0.2,0,0.3,0.1l7,4.2
	c0.2,0.1,0.3,0.3,0.3,0.5s-0.1,0.4-0.3,0.5l-7,4.2c-0.2,0.1-0.4,0.1-0.6,0c-0.2-0.1-0.3-0.3-0.3-0.5V418.3L302.4,418.3z
	 M323.5,404.5h-24c-0.6,0-1,0.4-1,1s0.4,1,1,1h24c1.1,0,2,0.9,2,2v26h-40v-3c0-0.6-0.4-1-1-1s-1,0.4-1,1v5c0,2.2,1.8,4,4,4h36
	c2.2,0,4-1.8,4-4v-28C327.5,406.3,325.7,404.5,323.5,404.5z M325.5,436.5c0,1.1-0.9,2-2,2h-36c-1.1,0-2-0.9-2-2v-1h40V436.5z"/>
</svg>
