<?xml version="1.0" encoding="utf-8"?>
<!-- Generator: Adobe Illustrator 21.0.0, SVG Export Plug-In . SVG Version: 6.00 Build 0)  -->
<svg version="1.1" id="图层_1" xmlns="http://www.w3.org/2000/svg" xmlns:xlink="http://www.w3.org/1999/xlink" x="0px" y="0px"
	 viewBox="0 0 48 48" style="enable-background:new 0 0 48 48;" xml:space="preserve">
<title>Ipsec-03</title>
<g>
	<path d="M34,25.6c-0.6,0-1.1,0.4-1.3,0.9h-4.5v-3.1c0,0,0,0,0-0.1h3.6c0.1,0,0.2,0,0.3-0.1l2.2-1.7c0.1-0.1,0.2-0.2,0.2-0.4v-4.9
		c0.5-0.2,0.9-0.7,0.9-1.3c0,0,0,0,0,0c0-0.8-0.6-1.4-1.4-1.4c-0.8,0-1.4,0.6-1.4,1.4c0,0.6,0.4,1.1,0.9,1.3v4.6l-1.8,1.4H28
		c-0.1-0.3-0.3-0.5-0.5-0.7c-0.7-0.5-1.5-0.8-2.4-0.8h-1V17c0-0.1,0-0.3,0-0.4c-0.1-2.4-2.1-4.2-4.5-4.1c-2.4,0.1-4.2,2.1-4.1,4.5
		v3.9h-1.2c-1.5,0-2.7,1.2-2.7,2.7V31c0,2,2,2.6,3,2.7h6c0.3,0,0.5-0.2,0.5-0.5c0-0.3-0.2-0.5-0.5-0.5h-6c-0.1,0-2-0.1-2-1.7v-7.4
		c0-0.9,0.8-1.7,1.7-1.7h10.8c0.6,0,1.2,0.1,1.7,0.5c0.3,0.3,0.4,0.6,0.4,1v7.5c0,0-0.2,1.7-1.6,1.8c0,0,0,0,0,0
		c-0.3,0-0.5,0.3-0.4,0.5c0,0,0,0,0,0c0,0.3,0.3,0.5,0.5,0.4c1.2-0.2,2.1-1,2.4-2.1h2.7l1.7,1.9c-0.1,0.2-0.1,0.3-0.1,0.5
		c0,0.8,0.6,1.4,1.4,1.4s1.4-0.6,1.4-1.4s-0.6-1.4-1.4-1.4c-0.2,0-0.4,0-0.5,0.1l-1.9-2c-0.1-0.1-0.2-0.2-0.4-0.1h-2.8v-3h4.5
		c0.2,0.5,0.7,0.9,1.3,0.9c0.8,0,1.4-0.6,1.4-1.4c0,0,0,0,0,0C35.4,26.2,34.8,25.6,34,25.6z M34,14.6c0.2,0,0.4,0.2,0.4,0.4
		c0,0.2-0.2,0.4-0.4,0.4c-0.2,0-0.4-0.2-0.4-0.4C33.6,14.8,33.8,14.6,34,14.6z M16.5,17c0-1.8,1.5-3.3,3.3-3.3
		c1.8,0,3.3,1.5,3.3,3.3v3.9h-6.6V17z M34.2,33.9c0,0.2-0.2,0.4-0.4,0.4c-0.2,0-0.4-0.2-0.4-0.4c0-0.2,0.2-0.4,0.4-0.4
		C34,33.5,34.2,33.7,34.2,33.9z M34,27.4c-0.2,0-0.4-0.2-0.4-0.4c0-0.2,0.2-0.4,0.4-0.4c0.2,0,0.4,0.2,0.4,0.4
		C34.4,27.2,34.2,27.4,34,27.4z"/>
	<path d="M24,2C11.8,2,2,11.8,2,24s9.8,22,22,22s22-9.8,22-22S36.2,2,24,2z M24,44C13,44,4,35,4,24C4,13,13,4,24,4s20,9,20,20
		C44,35,35,44,24,44z"/>
	<circle cx="19.9" cy="27" r="1.1"/>
</g>
</svg>
