<svg id="图层_1" data-name="图层 1" xmlns="http://www.w3.org/2000/svg" width="44" height="44" viewBox="0 0 44 44"><defs><style>.cls-1{fill:#333;}</style></defs><title>vpc-endpoint</title><path class="cls-1" d="M24,2A22,22,0,1,0,46,24,22,22,0,0,0,24,2Zm0,42A20,20,0,1,1,44,24,20,20,0,0,1,24,44ZM36.5,21a3.41,3.41,0,0,0-3.45,3H29.5a.52.52,0,0,0-.43.24l-.1.08-5,5V18.5a.5.5,0,0,0-.5-.5.52.52,0,0,0-.43.24l-.1.08L17.32,24l0,0H12.93a2,2,0,1,0,0,1H17.5a.52.52,0,0,0,.43-.24l.1-.08,5-5V30.5a.5.5,0,0,0,.5.5.52.52,0,0,0,.43-.24l.1-.08L29.68,25l0,0h3.34a3.49,3.49,0,1,0,3.45-4Zm0,5.25a1.75,1.75,0,1,1,1.75-1.75A1.76,1.76,0,0,1,36.5,26.25Z" transform="translate(-2 -2)"/></svg>