<?xml version="1.0" encoding="utf-8"?>
<!-- Generator: Adobe Illustrator 21.0.0, SVG Export Plug-In . SVG Version: 6.00 Build 0)  -->
<svg version="1.1" id="图层_1" xmlns="http://www.w3.org/2000/svg" xmlns:xlink="http://www.w3.org/1999/xlink" x="0px" y="0px"
	 viewBox="0 0 48 48" style="enable-background:new 0 0 48 48;" xml:space="preserve">
<g id="Clip-2_2_">
</g>
<g>
	<path d="M22.5,15.9h-12c-0.3,0-0.5,0.2-0.5,0.5s0.2,0.5,0.5,0.5h12c0.3,0,0.5-0.2,0.5-0.5S22.8,15.9,22.5,15.9z"/>
	<path d="M17.5,21.9h-7c-0.3,0-0.5,0.2-0.5,0.5s0.2,0.5,0.5,0.5h7c0.3,0,0.5-0.2,0.5-0.5S17.8,21.9,17.5,21.9z"/>
	<path d="M38.5,39.9h2c0.3,0,0.5-0.2,0.5-0.5s-0.2-0.5-0.5-0.5h-2c-0.3,0-0.5,0.2-0.5,0.5S38.2,39.9,38.5,39.9z"/>
	<path d="M43.2,25.9C43.2,25.9,43.2,25.9,43.2,25.9l0-17.6c0.1-1.2-0.9-2.1-2.1-2.1h-36C3.9,6.1,3,7.1,3,8.3v23.4
		c0,1.2,0.9,2.2,2.1,2.2h17v5.9c0,0.1,0,0.1,0,0.1h-6.9c-0.5,0-1,0.5-1,1c0,0.6,0.4,1,1,1H31c0.5,0,1-0.5,1-1c0-0.6-0.4-1-1-1h-6.9
		v-0.1v-5.9H34v5.7c0,1.2,1,2.3,2.3,2.3h6.5c0.6,0,1.2-0.2,1.6-0.6c0.4-0.4,0.6-1,0.6-1.6V28C45,26.9,44.2,26.1,43.2,25.9z M34,28
		v3.8H5.2C5,31.9,5,31.8,5,31.6V8.3c0-0.1,0-0.1,0.1-0.1h36c0.1,0,0.1,0.1,0.1,0.1v17.6h-4.8C35.2,25.9,34,26.7,34,28z M43.9,39.6
		c0,0.4-0.1,0.7-0.3,0.9c-0.2,0.2-0.5,0.3-0.9,0.3h-6.5c-0.7,0-1.3-0.6-1.3-1.3v-1.7h9V39.6z M44,36.9h-9V28c0-0.7,0.7-1.1,1.4-1.1
		h6.3c0.7,0,1.3,0.5,1.3,1.1V36.9z"/>
	<path d="M37.9,14.3L35,11.4c-0.2-0.2-0.5-0.2-0.7,0l-8.2,8.2c0,0-0.1,0.1-0.1,0.2l-1.8,4.6c-0.1,0.2,0,0.4,0.1,0.5
		c0.1,0.1,0.2,0.1,0.4,0.1c0.1,0,0.1,0,0.2,0l4.7-1.7c0.1,0,0.1-0.1,0.2-0.1l8.2-8.2C38.1,14.8,38.1,14.5,37.9,14.3z M29.1,22.4
		l-3.6,1.3l1.4-3.5l7.7-7.7l2.2,2.2L29.1,22.4z"/>
</g>
</svg>
