<?xml version="1.0" encoding="utf-8"?>
<!-- Generator: Adobe Illustrator 21.0.0, SVG Export Plug-In . SVG Version: 6.00 Build 0)  -->
<svg version="1.1" id="图层_1" xmlns="http://www.w3.org/2000/svg" xmlns:xlink="http://www.w3.org/1999/xlink" x="0px" y="0px"
	 viewBox="0 0 48 48" style="enable-background:new 0 0 48 48;" xml:space="preserve">
<title>白名单-03-01-01</title>
<g>
	<path d="M31.1,20.7c-6.7,0-12,5.4-12,12.1c0,6.7,5.4,12,12.1,12c6.6,0,12-5.4,12-12c0,0,0-0.1,0-0.1C43.1,26.1,37.7,20.7,31.1,20.7
		z M41.1,32.8c0,5.6-4.5,10-10.1,10c-5.6,0-10-4.5-10-10.1c0-5.6,4.5-10,10.1-10C36.7,22.7,41.1,27.2,41.1,32.8
		C41.2,32.8,41.1,32.8,41.1,32.8z"/>
	<path d="M29.5,13.1c0-0.3-0.2-0.5-0.5-0.5H12.3c-0.3,0-0.5,0.2-0.5,0.5s0.2,0.5,0.5,0.5H29C29.3,13.6,29.5,13.4,29.5,13.1z"/>
	<path d="M12.3,20.1c-0.3,0-0.5,0.2-0.5,0.5s0.2,0.5,0.5,0.5h8.8c0.3,0,0.5-0.2,0.5-0.5s-0.2-0.5-0.5-0.5H12.3z"/>
	<path d="M29.3,37.2l-4.1-4.5c-0.2-0.2-0.5-0.2-0.7,0c-0.2,0.2-0.2,0.5-0.1,0.7l4.4,4.8c0.1,0.1,0.2,0.2,0.4,0.2
		c0.1,0,0.3,0,0.4-0.1l8.9-8.2c0.2-0.2,0.2-0.5,0-0.7c-0.2-0.2-0.5-0.2-0.7-0.1L29.3,37.2z"/>
	<path d="M16.9,39H8c-0.2,0-0.3,0-0.4-0.1c-0.3-0.4-0.5-0.9-0.4-1.5V6.2c0-0.3,0-0.6,0.2-0.8c0,0,0.1-0.2,0.5-0.2h28.3
		c0.4,0,0.8,0.1,1.1,0.3c0.2,0.2,0.3,0.5,0.2,0.7v12.6c0,0.6,0.4,1,1,1s1-0.4,1-1V6.2c0-0.8-0.3-1.6-0.9-2.2
		c-0.7-0.6-1.6-0.9-2.5-0.8H7.9c-0.8,0-1.5,0.3-2,0.8C5.3,4.7,5.1,5.5,5.2,6.4v31c-0.1,1.1,0.3,2.2,1.1,3C6.8,40.7,7.4,41,8,40.9v0
		h8.9c0.6,0,1-0.4,1-1C17.9,39.4,17.4,39,16.9,39z"/>
</g>
</svg>
