<svg id="图层_1" data-name="图层 1" xmlns="http://www.w3.org/2000/svg" viewBox="0 0 48 48"><title>5G NaaS</title><path id="形状结合" d="M32.69-.54a1.08,1.08,0,0,1,1.18,1s0,0,0,.08h0V4.22h4.78A4.79,4.79,0,0,1,43.44,9h0v4.78h3.69a1.1,1.1,0,0,1,1.08,1.11.22.22,0,0,1,0,.08,1.08,1.08,0,0,1-1,1.19H43.44v6h3.69a1.2,1.2,0,0,1,0,2.4H43.44v6h3.69a1.1,1.1,0,0,1,1.08,1.11.28.28,0,0,1,0,.09,1.08,1.08,0,0,1-1,1.18H43.44v4.78a4.79,4.79,0,0,1-4.78,4.78H33.88v3.69a1.1,1.1,0,0,1-1.11,1.08h-.08a1.08,1.08,0,0,1-1.19-1s0-.06,0-.09h0V42.44h-6v3.69a1.2,1.2,0,1,1-2.4,0h0V42.44h-6v3.69a1.1,1.1,0,0,1-1.11,1.08H16a1.08,1.08,0,0,1-1.18-1s0-.05,0-.08h0V42.44H10a4.79,4.79,0,0,1-4.78-4.78h0V32.88H1.53A1.1,1.1,0,0,1,.45,31.77a.22.22,0,0,1,0-.08,1.08,1.08,0,0,1,1-1.19H5.22v-6H1.53a1.2,1.2,0,0,1,0-2.4H5.22v-6H1.53A1.1,1.1,0,0,1,.45,15.06a.28.28,0,0,1,0-.09,1.08,1.08,0,0,1,1-1.18H5.22V9A4.79,4.79,0,0,1,10,4.22h4.78V.53A1.1,1.1,0,0,1,15.89-.55H16a1.08,1.08,0,0,1,1.19,1s0,.06,0,.09h0V4.22h6V.53a1.2,1.2,0,1,1,2.4,0h0V4.22h6V.53A1.1,1.1,0,0,1,32.6-.55Zm6,7.16H10A2.4,2.4,0,0,0,7.62,9h0V37.66A2.4,2.4,0,0,0,10,40H38.66A2.4,2.4,0,0,0,41,37.66h0V9A2.4,2.4,0,0,0,38.66,6.62ZM21.72,17.47v1.2H16.81l-.24,2.87a3.65,3.65,0,0,1,1.58-.36A3.58,3.58,0,1,1,14.78,26h1.31a2.4,2.4,0,1,0,2.06-3.58,2.44,2.44,0,0,0-1.79.72h0L15.18,23l.46-5.52Zm7.55-.1a5.36,5.36,0,0,1,4.53,2.49H32.25a4.26,4.26,0,0,0-3-1.24,4.19,4.19,0,0,0,0,8.36,4.11,4.11,0,0,0,3.21-1.5h1.45a5.38,5.38,0,1,1-4.66-8Zm4.66,5.37v2.67H32.5V23.92H29.7V22.74Z" transform="translate(-0.33 0.67)"/></svg>