<?xml version="1.0" encoding="utf-8"?>
<!-- Generator: Adobe Illustrator 21.0.0, SVG Export Plug-In . SVG Version: 6.00 Build 0)  -->
<svg version="1.1" id="图层_1" xmlns="http://www.w3.org/2000/svg" xmlns:xlink="http://www.w3.org/1999/xlink" x="0px" y="0px"
	 viewBox="0 0 48 48" style="enable-background:new 0 0 48 48;" xml:space="preserve">
<style type="text/css">
	.st0{fill:#060001;}
	.st1{fill:#040000;}
	.st2{fill:none;stroke:#000000;stroke-miterlimit:10;}
	.st3{fill:#221815;}
	.st4{fill:#080102;}
	.st5{fill:none;stroke:#000000;stroke-width:2;stroke-linecap:round;stroke-linejoin:round;stroke-miterlimit:10;}
	.st6{fill:#070001;}
</style>
<path d="M3,4h42c0.6,0,1-0.4,1-1s-0.4-1-1-1H3C2.4,2,2,2.4,2,3S2.4,4,3,4z M38.5,16H33c-0.3,0-0.5,0.2-0.5,0.5S32.7,17,33,17h4.3
	L26.9,28.3l-8.6-6.7c-0.2-0.2-0.5-0.1-0.7,0.1l-8.5,9c-0.2,0.2-0.2,0.5,0,0.7c0.1,0.1,0.2,0.1,0.3,0.1s0.3-0.1,0.4-0.2l8.2-8.7
	l8.6,6.7c0.2,0.2,0.5,0.1,0.7-0.1L38,17.7V22c0,0.3,0.2,0.5,0.5,0.5S39,22.3,39,22v-5.5C39,16.2,38.8,16,38.5,16z M45,44H3
	c-0.6,0-1,0.4-1,1s0.4,1,1,1h42c0.6,0,1-0.4,1-1S45.6,44,45,44z M7,7c-2.2,0-4,1.8-4,4v26c0,2.2,1.8,4,4,4h34c2.2,0,4-1.8,4-4V11
	c0-2.2-1.8-4-4-4H7z M43,11v26c0,1.1-0.9,2-2,2H7c-1.1,0-2-0.9-2-2V11c0-1.1,0.9-2,2-2h34C42.1,9,43,9.9,43,11z"/>
</svg>
