<?xml version="1.0" encoding="utf-8"?>
<!-- Generator: Adobe Illustrator 21.0.0, SVG Export Plug-In . SVG Version: 6.00 Build 0)  -->
<svg version="1.1" id="图层_1" xmlns="http://www.w3.org/2000/svg" xmlns:xlink="http://www.w3.org/1999/xlink" x="0px" y="0px"
	 viewBox="0 0 48 48" style="enable-background:new 0 0 48 48;" xml:space="preserve">
<style type="text/css">
	.st0{fill:#060001;}
	.st1{fill:#040000;}
	.st2{fill:none;stroke:#000000;stroke-miterlimit:10;}
	.st3{fill:#221815;}
	.st4{fill:#080102;}
	.st5{fill:none;stroke:#000000;stroke-width:2;stroke-linecap:round;stroke-linejoin:round;stroke-miterlimit:10;}
	.st6{fill:#070001;}
</style>
<path d="M32,9c-1.1,0-2,0.9-2,2c0,0.9,0.6,1.7,1.4,1.9c-0.5,3.7-3.6,6.6-7.4,6.6s-7-2.9-7.4-6.6c0.8-0.2,1.4-1,1.4-1.9
	c0-1.1-0.9-2-2-2s-2,0.9-2,2c0,1,0.7,1.7,1.6,1.9c0.5,4.2,4.1,7.6,8.4,7.6s8-3.3,8.4-7.6c0.9-0.2,1.6-1,1.6-1.9C34,9.9,33.1,9,32,9z
	 M15,11c0-0.6,0.4-1,1-1s1,0.4,1,1s-0.4,1-1,1S15,11.6,15,11z M32,12c-0.6,0-1-0.4-1-1s0.4-1,1-1c0.6,0,1,0.4,1,1S32.6,12,32,12z
	 M41.3,4.9C41.1,3.3,39.7,2,38.1,2H9.9c-1.6,0-3,1.3-3.2,2.9L4,42.6C3.9,44.5,5.3,46,7.2,46h33.6c1.9,0,3.3-1.5,3.2-3.4L41.3,4.9z
	 M8.7,5.1C8.8,4.5,9.3,4,9.9,4H38c0.6,0,1.1,0.5,1.2,1.1L41.6,38H6.4L8.7,5.1z M41.7,43.6c-0.1,0.1-0.4,0.4-0.9,0.4H7.2
	c-0.5,0-0.8-0.2-0.9-0.4C6.2,43.5,6,43.2,6,42.8L6.3,39h35.4l0.3,3.8C42,43.2,41.8,43.5,41.7,43.6z"/>
</svg>
