<?xml version="1.0" encoding="utf-8"?>
<!-- Generator: Adobe Illustrator 21.0.0, SVG Export Plug-In . SVG Version: 6.00 Build 0)  -->
<svg version="1.1" id="图层_1" xmlns="http://www.w3.org/2000/svg" xmlns:xlink="http://www.w3.org/1999/xlink" x="0px" y="0px"
	 viewBox="0 0 48 48" style="enable-background:new 0 0 48 48;" xml:space="preserve">
<style type="text/css">
	.st0{fill:#060001;}
	.st1{fill:#040000;}
	.st2{fill:none;stroke:#000000;stroke-miterlimit:10;}
	.st3{fill:#221815;}
	.st4{fill:#080102;}
	.st5{fill:none;stroke:#000000;stroke-width:2;stroke-linecap:round;stroke-linejoin:round;stroke-miterlimit:10;}
	.st6{fill:#070001;}
</style>
<path d="M40.8,10.6L27.3,2.8c-1.8-1.1-4.7-1.1-6.5,0L7.2,10.6c-1.8,1-3.2,3.5-3.2,5.6v15.6c0,2.1,1.4,4.5,3.2,5.6l13.5,7.8
	c0.9,0.5,2.1,0.8,3.3,0.8s2.3-0.3,3.3-0.8l13.5-7.8c1.8-1.1,3.2-3.5,3.2-5.6V16.2C44,14.1,42.6,11.6,40.8,10.6z M8.3,12.4l13.5-7.8
	c0.6-0.3,1.4-0.5,2.2-0.5s1.6,0.2,2.2,0.5l13.5,7.8c0.4,0.2,0.7,0.6,1.1,1l-8.9,5.3H16.1l-8.8-5.3C7.6,13,7.9,12.6,8.3,12.4z
	 M23.5,43.9c-0.6-0.1-1.2-0.2-1.7-0.5L8.3,35.6c-1.2-0.7-2.2-2.5-2.2-3.8V16.2c0-0.6,0.2-1.3,0.6-2l8.8,5.3l8,13.3V43.9z M16.8,19.7
	h14.5l-7.3,12L16.8,19.7z M41.9,31.8c0,1.3-1,3.1-2.2,3.8l-13.5,7.8c-0.5,0.3-1.1,0.4-1.7,0.5v-11l8-13.4l8.8-5.3
	c0.4,0.7,0.6,1.4,0.6,2C41.9,16.2,41.9,31.8,41.9,31.8z"/>
</svg>
