<?xml version="1.0" encoding="utf-8"?>
<!-- Generator: Adobe Illustrator 21.0.0, SVG Export Plug-In . SVG Version: 6.00 Build 0)  -->
<svg version="1.1" id="图层_1" xmlns="http://www.w3.org/2000/svg" xmlns:xlink="http://www.w3.org/1999/xlink" x="0px" y="0px"
	 viewBox="0 0 48 48" style="enable-background:new 0 0 48 48;" xml:space="preserve">
<style type="text/css">
	.st0{fill:#060001;}
	.st1{fill:#040000;}
	.st2{fill:none;stroke:#000000;stroke-miterlimit:10;}
	.st3{fill:#221815;}
	.st4{fill:#080102;}
	.st5{fill:none;stroke:#000000;stroke-width:2;stroke-linecap:round;stroke-linejoin:round;stroke-miterlimit:10;}
	.st6{fill:#070001;}
</style>
<path d="M8.5,33h31c0.3,0,0.5-0.2,0.5-0.5S39.8,32,39.5,32h-31C8.2,32,8,32.2,8,32.5S8.2,33,8.5,33z M42,6H6c-2.2,0-4,1.8-4,4v28
	c0,2.2,1.8,4,4,4h36c2.2,0,4-1.8,4-4V10C46,7.8,44.2,6,42,6z M44,38c0,1.1-0.9,2-2,2H6c-1.1,0-2-0.9-2-2V14h40V38z M44,13H4v-3
	c0-1.1,0.9-2,2-2h36c1.1,0,2,0.9,2,2V13z M8.5,21h15c0.3,0,0.5-0.2,0.5-0.5S23.8,20,23.5,20h-15C8.2,20,8,20.2,8,20.5S8.2,21,8.5,21
	z M8.5,27h31c0.3,0,0.5-0.2,0.5-0.5S39.8,26,39.5,26h-31C8.2,26,8,26.2,8,26.5S8.2,27,8.5,27z M9.5,10h-1C8.2,10,8,10.2,8,10.5
	S8.2,11,8.5,11h1c0.3,0,0.5-0.2,0.5-0.5S9.8,10,9.5,10z M13.5,10h-1c-0.3,0-0.5,0.2-0.5,0.5s0.2,0.5,0.5,0.5h1
	c0.3,0,0.5-0.2,0.5-0.5S13.8,10,13.5,10z"/>
</svg>
