<?xml version="1.0" encoding="utf-8"?>
<!-- Generator: Adobe Illustrator 21.0.0, SVG Export Plug-In . SVG Version: 6.00 Build 0)  -->
<svg version="1.1" id="图层_1" xmlns="http://www.w3.org/2000/svg" xmlns:xlink="http://www.w3.org/1999/xlink" x="0px" y="0px"
	 viewBox="0 0 48 48" style="enable-background:new 0 0 48 48;" xml:space="preserve">
<style type="text/css">
	.st0{fill:#060001;}
	.st1{fill:#040000;}
	.st2{fill:none;stroke:#000000;stroke-miterlimit:10;}
	.st3{fill:#221815;}
	.st4{fill:#080102;}
	.st5{fill:none;stroke:#000000;stroke-width:2;stroke-linecap:round;stroke-linejoin:round;stroke-miterlimit:10;}
	.st6{fill:#070001;}
</style>
<path d="M42,2H6C3.8,2,2,3.8,2,6v29c0,2.2,1.8,4,4,4h36c2.2,0,4-1.8,4-4V6C46,3.8,44.2,2,42,2z M44,35c0,1.1-0.9,2-2,2H6
	c-1.1,0-2-0.9-2-2V6c0-1.1,0.9-2,2-2h36c1.1,0,2,0.9,2,2V35z M14,7.5C14,7.2,13.8,7,13.5,7h-6C7.4,7,7.4,7,7.3,7
	C7.2,7.1,7.1,7.2,7,7.3c0,0.1,0,0.1,0,0.2v6C7,13.8,7.2,14,7.5,14S8,13.8,8,13.5V8.7l5.1,5.1c0.1,0.1,0.2,0.1,0.4,0.1s0.3,0,0.4-0.1
	c0.2-0.2,0.2-0.5,0-0.7L8.7,8h4.8C13.8,8,14,7.8,14,7.5z M42,44H6c-0.6,0-1,0.4-1,1s0.4,1,1,1h36c0.6,0,1-0.4,1-1S42.6,44,42,44z
	 M40.5,27c-0.3,0-0.5,0.2-0.5,0.5v4.8l-5.1-5.1c-0.2-0.2-0.5-0.2-0.7,0s-0.2,0.5,0,0.7l5.1,5.1h-4.8c-0.3,0-0.5,0.2-0.5,0.5
	s0.2,0.5,0.5,0.5h6c0.1,0,0.1,0,0.2,0c0.1-0.1,0.2-0.1,0.3-0.3c0-0.1,0-0.1,0-0.2v-6C41,27.2,40.8,27,40.5,27z"/>
</svg>
