<?xml version="1.0" encoding="utf-8"?>
<!-- Generator: Adobe Illustrator 21.0.0, SVG Export Plug-In . SVG Version: 6.00 Build 0)  -->
<svg version="1.1" id="图层_1" xmlns="http://www.w3.org/2000/svg" xmlns:xlink="http://www.w3.org/1999/xlink" x="0px" y="0px"
	 viewBox="0 0 48 48" style="enable-background:new 0 0 48 48;" xml:space="preserve">
<style type="text/css">
	.st0{fill:#060001;}
	.st1{fill:#040000;}
	.st2{fill:none;stroke:#000000;stroke-miterlimit:10;}
	.st3{fill:#221815;}
	.st4{fill:#080102;}
	.st5{fill:none;stroke:#000000;stroke-width:2;stroke-linecap:round;stroke-linejoin:round;stroke-miterlimit:10;}
	.st6{fill:#070001;}
</style>
<path class="st0" d="M29,24c0-2.5-1.7-4.5-4-5V14c1.4-0.4,2.5-1.9,2.5-3.4c0-2-1.6-3.6-3.5-3.6s-3.5,1.6-3.5,3.6
	c0,1.6,1.1,3,2.5,3.4V19c-2.3,0.5-4,2.6-4,5s1.7,4.5,4,5V34c-1.4,0.4-2.5,1.9-2.5,3.4c0,2,1.6,3.6,3.5,3.6s3.5-1.6,3.5-3.6
	c0-1.6-1.1-3-2.5-3.4V29C27.3,28.5,29,26.5,29,24z M22.5,10.6c0-0.8,0.7-1.5,1.5-1.5s1.5,0.7,1.5,1.5s-0.7,1.5-1.5,1.5
	S22.5,11.4,22.5,10.6z M25.5,37.4c0,0.8-0.7,1.5-1.5,1.5s-1.5-0.7-1.5-1.5s0.7-1.5,1.5-1.5S25.5,36.6,25.5,37.4z M24,27.1
	c-1.7,0-3-1.3-3-3.1s1.3-3.1,3-3.1s3,1.3,3,3.1S25.7,27.1,24,27.1z M5,20.9c-1.7,0-3,1.3-3,3.1s1.3,3.1,3,3.1s3-1.3,3-3.1
	S6.7,20.9,5,20.9z M5,26.1c-1.1,0-2-0.9-2-2.1s0.9-2.1,2-2.1s2,0.9,2,2.1S6.1,26.1,5,26.1z M14,26.2V23h-1v3.2
	c-1.4,0.2-2.5,1.5-2.5,3c0,1.8,1.3,3.1,3,3.1s3-1.3,3-3.1C16.5,27.6,15.4,26.4,14,26.2z M13.5,31.2c-1.1,0-2-0.9-2-2.1
	c0-1.1,0.9-2.1,2-2.1s2,0.9,2,2.1C15.5,30.3,14.6,31.2,13.5,31.2z M43,20.9c-1.7,0-3,1.3-3,3.1s1.3,3.1,3,3.1s3-1.3,3-3.1
	S44.7,20.9,43,20.9z M43,26.1c-1.1,0-2-0.9-2-2.1s0.9-2.1,2-2.1s2,0.9,2,2.1S44.1,26.1,43,26.1z M34.5,27.1c-1.7,0-3,1.3-3,3.1
	s1.3,3.1,3,3.1s3-1.3,3-3.1S36.2,27.1,34.5,27.1z M34.5,32.2c-1.1,0-2-0.9-2-2.1s0.9-2.1,2-2.1s2,0.9,2,2.1S35.6,32.2,34.5,32.2z
	 M13.5,14.7c-1.7,0-3,1.3-3,3.1s1.3,3.1,3,3.1s3-1.3,3-3.1S15.2,14.7,13.5,14.7z M13.5,19.9c-1.1,0-2-0.9-2-2.1s0.9-2.1,2-2.1
	s2,0.9,2,2.1S14.6,19.9,13.5,19.9z M34.5,14.7c-1.7,0-3,1.3-3,3.1c0,1.5,1.1,2.8,2.5,3V24h1v-3.1c1.4-0.2,2.5-1.5,2.5-3
	C37.5,16.1,36.2,14.7,34.5,14.7z M34.5,19.9c-1.1,0-2-0.9-2-2.1s0.9-2.1,2-2.1s2,0.9,2,2.1S35.6,19.9,34.5,19.9z"/>
</svg>
