<?xml version="1.0" encoding="utf-8"?>
<!-- Generator: Adobe Illustrator 21.0.0, SVG Export Plug-In . SVG Version: 6.00 Build 0)  -->
<svg version="1.1" id="图层_1" xmlns="http://www.w3.org/2000/svg" xmlns:xlink="http://www.w3.org/1999/xlink" x="0px" y="0px"
	 viewBox="0 0 48 48" style="enable-background:new 0 0 48 48;" xml:space="preserve">
<style type="text/css">
	.st0{fill:#060001;}
	.st1{fill:#040000;}
	.st2{fill:none;stroke:#000000;stroke-miterlimit:10;}
	.st3{fill:#221815;}
	.st4{fill:#080102;}
	.st5{fill:none;stroke:#000000;stroke-width:2;stroke-linecap:round;stroke-linejoin:round;stroke-miterlimit:10;}
	.st6{fill:#070001;}
</style>
<path class="st0" d="M20,22.2l-0.3,0.7c-1.8,3.7-2.9,5.8-5.2,5.5c-0.3,0-0.5-0.6-0.5-1.2c0-1,0.8-2.8,3.5-2.9c0.3,0,0.5-0.2,0.5-0.5
	s-0.2-0.5-0.5-0.5s-0.6,0-0.9,0.1l0,0c-0.9-0.8-1.7-2.7-1.4-4.9c0-0.3-0.1-0.5-0.4-0.6c-0.3,0-0.5,0.1-0.6,0.4
	c-0.3,2.2,0.4,4.2,1.3,5.4c-1.6,0.7-2.4,2.1-2.5,3.4c-0.1,1.2,0.5,2.2,1.4,2.3c0.2,0,0.3,0,0.5,0c2.8,0,4.2-2.9,5.7-6.1l0.3-0.7
	c2-4.2,4.8-7,8.4-8.5c3.7-1.5,7-1.8,9.2-0.9c1,0.5,1.7,1.2,2.1,2.2c0.5,1.5-1.2,3.1-3.4,4.4c-1.1-0.5-2.4-0.8-3.5-0.9
	c-2.2-0.2-6.7,0.3-8.1,1.7c-0.4,0.4-0.5,0.9-0.5,1.2c0,0.2,0.1,0.6,0.6,0.9c1.3,0.9,5.2,0.9,7,0.3c0.7-0.3,2.6-1,4.5-2
	c0.8,0.4,1.3,0.8,1.3,1.2c0,0.2,0,0.5-0.3,0.7c-0.8,0.9-2.9,1.5-4.7,1.4c-0.3,0-0.5,0.2-0.5,0.5s0.2,0.5,0.5,0.5
	c1.8,0.1,4.4-0.6,5.5-1.8c0.4-0.5,0.6-1,0.5-1.5c-0.1-0.6-0.6-1.2-1.3-1.7c2.2-1.4,4-3.2,3.3-5.2c-0.4-1.2-1.3-2.2-2.6-2.8
	c-2.4-1.1-6-0.8-10,0.8C25,14.8,22.1,17.8,20,22.2z M32.4,22c-1.6,0.6-4.9,0.5-6-0.1c-0.2-0.1-0.2-0.2-0.2-0.2s0-0.2,0.2-0.4
	c0.9-0.9,4-1.4,6.4-1.4c0.3,0,0.6,0,0.9,0c0.8,0.1,1.6,0.2,2.4,0.5C34.8,21.1,33.5,21.6,32.4,22z M25.7,30.4
	c-1.8-1.4-3.8-2.7-6.5-2.9c-0.3,0-0.5,0.2-0.5,0.5s0.2,0.5,0.5,0.5c3.3,0.3,5.6,2.3,7.6,4.2c1.9,1.7,3.6,3.3,5.8,3.3
	c0.3,0,0.5,0,0.8-0.1c1.4-0.2,2.4-1.1,2.8-2.5c0.6-1.9,0.1-4.2-1.4-5.7C32.4,25,27.5,24.4,22,26c-0.3,0.1-0.4,0.4-0.3,0.6
	c0.1,0.3,0.4,0.4,0.6,0.3c3-0.9,5.9-1,8.1-0.5C28.2,27.1,26.4,28.5,25.7,30.4z M35.3,33.1c-0.3,1-1.1,1.6-2,1.8
	c-0.7,0.1-1.3,0-2-0.2C32,33,33,32,35.5,31.8C35.5,32.2,35.4,32.7,35.3,33.1z M34.9,29.5c0.2,0.4,0.4,0.9,0.5,1.3
	c-2.5,0.2-4,1.2-5,3.5c-0.5-0.3-1-0.7-1.5-1.1C29.4,30.6,32.1,29,34.9,29.5z M32.4,27.1c0.7,0.3,1.3,0.8,1.8,1.3l0,0
	c-2.8-0.1-5.4,1.5-6.2,4c-0.2-0.2-0.3-0.3-0.5-0.5c-0.3-0.3-0.6-0.5-0.9-0.8C27.2,28.6,30,27.2,32.4,27.1z M43.5,20.4
	c-0.3-0.4-1-0.5-1.4-0.2s-0.5,1-0.2,1.4c1.3,1.8,2.1,3.9,2.1,6.1C44,33.4,39.3,38,33.5,38h-19C8.7,38,4,33.4,4,27.8
	c0-5.2,4-9.6,9.3-10.2c0.4,0,0.7-0.3,0.8-0.7c1.5-4.1,5.4-6.9,9.9-6.9c1.5,0,3,0.3,4.4,0.9c0.5,0.2,1.1,0,1.3-0.5s0-1.1-0.5-1.3
	C27.5,8.4,25.8,8,24,8c-5.1,0-9.6,3.1-11.5,7.7C6.5,16.6,2,21.7,2,27.8C2,34.5,7.6,40,14.5,40h19.1C40.4,40,46,34.5,46,27.8
	C46,25.1,45.1,22.6,43.5,20.4z M14.1,24c0.1,0,0.3-0.1,0.4-0.2c0.2-0.2,0.1-0.5-0.1-0.7c-0.9-0.7-1.4-1.4-1.5-2.2
	c0-0.3-0.3-0.5-0.6-0.4c-0.3,0-0.5,0.3-0.4,0.6c0.2,1.1,0.8,2,1.9,2.9C13.9,24,14,24,14.1,24z"/>
</svg>
