<?xml version="1.0" encoding="utf-8"?>
<!-- Generator: Adobe Illustrator 21.0.0, SVG Export Plug-In . SVG Version: 6.00 Build 0)  -->
<svg version="1.1" id="图层_1" xmlns="http://www.w3.org/2000/svg" xmlns:xlink="http://www.w3.org/1999/xlink" x="0px" y="0px"
	 viewBox="0 0 48 48" style="enable-background:new 0 0 48 48;" xml:space="preserve">
<style type="text/css">
	.st0{fill:#040000;}
	.st1{fill:#060001;}
	.st2{fill:#080103;}
</style>
<path d="M35.3,16.1C33.7,11.4,29.3,8,24,8c-5.3,0-9.7,3.4-11.3,8.1C6.7,16.7,2,21.8,2,28c0,6.6,5.4,12,12,12h20c6.6,0,12-5.4,12-12
	C46,21.8,41.3,16.7,35.3,16.1z M34,38H14C8.5,38,4,33.5,4,28c0-5.1,3.8-9.4,8.9-9.9c0.8-0.1,1.4-0.6,1.7-1.3c1.4-4,5.2-6.7,9.4-6.7
	c4.3,0,8,2.7,9.4,6.7c0.3,0.7,0.9,1.2,1.7,1.3c5.1,0.6,8.9,4.8,8.9,9.9C44,33.5,39.5,38,34,38z M24.2,19.9c1.9-0.4,3.9,0.2,5.3,1.5
	c1.4,1.3,2,3.2,1.6,5.1c0,0.2,0.1,0.4,0.3,0.5c0,0,0.1,0,0.1,0c0.2,0,0.4-0.1,0.4-0.3c0.5-2.1-0.2-4.3-1.8-5.8
	c-1.6-1.5-3.8-2.2-6-1.7c-0.2,0-0.4,0.3-0.3,0.5C23.8,19.8,24,20,24.2,19.9z M28.1,26.9C28.1,26.9,28.1,26.9,28.1,26.9
	c0.3,0,0.5-0.1,0.5-0.3c0.3-1.2-0.1-2.5-1-3.3c-0.9-0.9-2.2-1.2-3.5-0.9c-0.2,0.1-0.4,0.3-0.3,0.5c0.1,0.2,0.3,0.3,0.5,0.3
	c1-0.2,2,0,2.7,0.7c0.7,0.7,1,1.7,0.8,2.6C27.7,26.6,27.8,26.8,28.1,26.9z M28.7,29.6c-1-0.5-1.4-0.3-2.2,0.3
	c-0.3,0.2-0.7,0.4-1.2,0.8c-0.6,0.4-1.6-0.3-1.7-0.3c0,0-1-0.6-1.6-1.2c-0.7-0.6-1.3-1.5-1.3-1.6c0,0-0.7-0.9-0.3-1.5
	c0.3-0.5,0.6-0.9,0.8-1.1c0.6-0.8,0.9-1.2,0.3-2.2c-1.9-3.3-3.3-3.4-4-3.2c-1.5,0.4-2.6,2.8-2,5.4c0.7,2.5,2.1,4.9,4,6.8
	c1.9,1.8,4.4,3.2,7,3.8c0.5,0.1,1.1,0.2,1.6,0.2c2,0,3.7-0.9,4-2.1C32.2,32.8,32.1,31.4,28.7,29.6z M31.1,33.2
	c-0.2,0.8-2.2,1.7-4.4,1.2h0c-2.5-0.6-4.8-1.8-6.6-3.5c-1.8-1.7-3.1-3.9-3.7-6.3c-0.6-2.1,0.4-3.9,1.2-4.1c0,0,0.1,0,0.1,0
	c0.5,0,1.5,0.6,2.8,2.8c0.2,0.4,0.2,0.4-0.3,1.1c-0.2,0.3-0.5,0.7-0.8,1.2c-0.7,1.2,0.3,2.6,0.4,2.6c0,0,0.7,1,1.4,1.7
	c0.7,0.7,1.7,1.3,1.8,1.3c0.1,0,1.5,1.1,2.7,0.4c0.5-0.3,0.9-0.6,1.2-0.8c0.7-0.5,0.7-0.5,1.2-0.2C31.4,32.2,31.1,33.2,31.1,33.2z"
	/>
</svg>
