<svg id="图层_1" data-name="图层 1" xmlns="http://www.w3.org/2000/svg" viewBox="0 0 40 40"><title>bmr</title><path d="M23,35.5a3.7,3.7,0,0,0,4-3.6c0-2.09-1.68-3.39-4-3.39s-4,1.3-4,3.39S20.73,35.5,23,35.5Zm5-3.63v0a4.69,4.69,0,0,1-5,4.6c-2.78,0-5-1.87-5-4.6s2.2-4.39,5-4.39a5.22,5.22,0,0,1,4,1.61V18.17a.6.6,0,0,1,.46-.59,6.88,6.88,0,0,1,3.53.31,13.74,13.74,0,0,1,1.6.61l.59.27a10.43,10.43,0,0,0,2.17.78,4.07,4.07,0,0,0,1,.09h0a.6.6,0,0,1,.6.6v4.08H36V20.64a4,4,0,0,1-.88-.12,11.53,11.53,0,0,1-2.35-.84l-.59-.27a11.93,11.93,0,0,0-1.49-.57A6.53,6.53,0,0,0,28,18.5v4a7.89,7.89,0,0,1,2.89.41,13.74,13.74,0,0,1,1.6.61l.59.27a10.43,10.43,0,0,0,2.17.78l.4.06h0a.32.32,0,0,0,.32-.32h1a1.32,1.32,0,0,1-1.32,1.32h-.14a4.23,4.23,0,0,1-.52-.09,11.53,11.53,0,0,1-2.35-.84l-.59-.27a11.93,11.93,0,0,0-1.49-.57A6.57,6.57,0,0,0,28,23.53v8.34ZM15,16.31V14.94a2.41,2.41,0,0,1,2.5-2.39H29c1.34,0,2.13,1.18,2.13,2.66a.5.5,0,0,1-.5.5.51.51,0,0,1-.5-.5c0-1-.44-1.66-1.13-1.66H17.52A1.41,1.41,0,0,0,16,14.94V17a.57.57,0,0,1-.09.32.6.6,0,0,1-.83.19l-2.32-1.47a.5.5,0,0,0-.77.42v5.9a.5.5,0,0,0,.77.42l2.32-1.47a.62.62,0,0,1,.32-.09.6.6,0,0,1,.6.6v2.09a1.5,1.5,0,0,0,1.5,1.5.5.5,0,0,1,.5.5.5.5,0,0,1-.5.5,2.5,2.5,0,0,1-2.5-2.5V22.58l-1.7,1.08a1.5,1.5,0,0,1-2.07-.46,1.45,1.45,0,0,1-.24-.81v-5.9a1.5,1.5,0,0,1,1.5-1.5,1.53,1.53,0,0,1,.81.23ZM15,41.5a1,1,0,0,1,0,2H8a4,4,0,0,1-4-4v-7a1,1,0,0,1,2,0v7a2,2,0,0,0,2,2ZM5,15.5a.93.93,0,0,1-1-1v-7a4,4,0,0,1,4-4h7a1,1,0,0,1,0,2H8a2,2,0,0,0-2,2v7a.93.93,0,0,1-1,1Zm35-12a4,4,0,0,1,4,4v8a1,1,0,0,1-2,0v-8a2,2,0,0,0-2-2H33a1,1,0,0,1,0-2Zm3,28a.93.93,0,0,1,1,1v7a4,4,0,0,1-4,4H33a1,1,0,0,1,0-2h7a2,2,0,0,0,2-2v-7a.93.93,0,0,1,1-1Z" transform="translate(-4 -3.5)"/></svg>