<?xml version="1.0" encoding="utf-8"?>
<!-- Generator: Adobe Illustrator 21.0.0, SVG Export Plug-In . SVG Version: 6.00 Build 0)  -->
<svg version="1.1" id="图层_1" xmlns="http://www.w3.org/2000/svg" xmlns:xlink="http://www.w3.org/1999/xlink" x="0px" y="0px"
	 viewBox="0 0 48 48" style="enable-background:new 0 0 48 48;" xml:space="preserve">
<path d="M39.2,20.2c-1.1,0.9-2.6,1-3.2,0.6l-0.1-0.1c-0.7-0.4-1.5-1-2.6-1.6c1.1-0.1,2.3-0.5,3.5-1.5c0.2-0.2,0.2-0.5,0-0.7
	c-0.2-0.2-0.5-0.2-0.7,0c-2.2,1.9-4.5,1.3-6.5,0.8c-0.1,0-0.1,0-0.2-0.1l-0.1,0c0,0,0,0,0,0c-0.2-0.1-0.5-0.1-0.7-0.2
	c1.1-0.4,2-1,2.8-2.1c0.2-0.2,0.1-0.5-0.1-0.7c-0.2-0.2-0.5-0.1-0.7,0.1c-1.4,1.9-3.1,2.2-6.4,2.3c0,0,0,0,0,0c-0.2,0-0.4,0-0.6,0
	c-0.2,0-0.4,0.1-0.6,0.1c0.6-0.5,1.1-1.2,1.5-1.9c0.1-0.2,0-0.5-0.2-0.7s-0.5,0-0.7,0.2c-0.8,1.6-2,2.4-4.7,3.2c0,0,0,0-0.1,0
	c-0.4,0.1-0.8,0.3-1.3,0.4c-0.1,0-0.1,0-0.2,0.1c-4.4,1.7-7.1,4.4-8.5,5.9c-0.3,0.3-0.5,0.5-0.7,0.7c-0.2,0.2-0.2,0.5,0,0.7
	C8.2,25.9,8.4,26,8.5,26c0.1,0,0.2,0,0.3-0.1c0.2-0.2,0.4-0.4,0.7-0.7c1.4-1.5,3.7-3.8,7.4-5.4c0,0.3-0.1,0.7-0.1,1
	c0,4,3.3,7.3,7.3,7.3c4,0,7.3-3.3,7.3-7.3c0-0.5-0.1-1-0.2-1.4c1.7,0.7,3.1,1.6,4,2.2l0.1,0.1c1,0.6,2.9,0.5,4.3-0.7
	c0.2-0.2,0.2-0.5,0.1-0.7C39.7,20,39.4,20,39.2,20.2z M22,20.1c0.2-1,1.1-1.7,2.1-1.7c0.1,0,0.3,0,0.4,0c0.5,0.1,1,0.4,1.3,0.9
	c0.3,0.5,0.4,1,0.3,1.6c-0.2,1-1.1,1.7-2.1,1.7c-0.1,0-0.3,0-0.4,0c-0.5-0.1-1-0.4-1.3-0.9C22,21.2,21.9,20.6,22,20.1z M24.2,27
	c-3.5,0-6.3-2.8-6.3-6.3c0-0.5,0.1-1,0.2-1.4c1.1-0.4,2.4-0.8,3.8-1c-0.4,0.4-0.7,0.9-0.8,1.5c0,0.1,0,0.2,0,0.3l-1,0.1
	c-0.3,0-0.5,0.2-0.5,0.5c0,0.3,0.2,0.5,0.5,0.5c0,0,0,0,0,0l1-0.1c0.2,0.8,0.7,1.5,1.4,1.9L22,24c-0.1,0.3,0,0.5,0.3,0.7
	c0.1,0,0.1,0,0.2,0c0.2,0,0.4-0.1,0.5-0.3l0.4-0.9c0,0,0.1,0,0.1,0c0.2,0,0.4,0.1,0.6,0.1c0.5,0,1-0.1,1.4-0.4l0.6,0.8
	c0.1,0.1,0.2,0.2,0.4,0.2c0.1,0,0.2,0,0.3-0.1c0.2-0.2,0.3-0.5,0.1-0.7l-0.6-0.8c0.4-0.4,0.7-0.9,0.8-1.5c0-0.1,0-0.2,0-0.2l1.1-0.1
	c0.3,0,0.5-0.2,0.5-0.5c0-0.3-0.2-0.5-0.5-0.5l-1.1,0.1C27,19.1,26.6,18.5,26,18c1.5,0.1,2.9,0.4,4.2,0.8c0.2,0.6,0.3,1.2,0.3,1.9
	C30.4,24.2,27.6,27,24.2,27z M35.7,23.6c-0.2-0.1-0.5-0.1-0.7,0.2c-0.8,1.4-2.6,3.9-5.3,5.2c-3.5,1.7-7.5,0.6-11.2-0.5
	c-2.5-0.7-5.2-1.5-7.6-1.4c-0.3,0-0.5,0.3-0.5,0.5c0,0.3,0.3,0.5,0.5,0.5c2.3-0.1,4.7,0.6,7.3,1.3c2.5,0.7,5,1.5,7.5,1.5
	c1.5,0,3-0.3,4.5-1c2.9-1.4,4.8-4.1,5.7-5.6C36,24,35.9,23.7,35.7,23.6z M40.4,10.3L27.6,2.9c-2-1.1-5.2-1.1-7.2,0L7.6,10.3
	c-2,1.2-3.6,3.9-3.6,6.2v14.9c0,2.4,1.5,5,3.6,6.2l12.8,7.4c1,0.6,2.3,0.9,3.6,0.9s2.6-0.3,3.6-0.9l12.8-7.4c2-1.2,3.6-3.9,3.6-6.2
	V16.5C44,14.2,42.5,11.5,40.4,10.3z M42,31.4c0,1.6-1.2,3.7-2.6,4.5l-12.8,7.4c-1.4,0.8-3.8,0.8-5.2,0L8.6,35.9
	C7.2,35.1,6,33.1,6,31.4V16.5c0-1.6,1.2-3.7,2.6-4.5l12.8-7.4C22.1,4.2,23,4,24,4s1.9,0.2,2.6,0.6L39.4,12c1.4,0.8,2.6,2.8,2.6,4.5
	V31.4z"/>
</svg>
