<?xml version="1.0" encoding="utf-8"?>
<!-- Generator: Adobe Illustrator 21.0.0, SVG Export Plug-In . SVG Version: 6.00 Build 0)  -->
<svg version="1.1" id="图层_1" xmlns="http://www.w3.org/2000/svg" xmlns:xlink="http://www.w3.org/1999/xlink" x="0px" y="0px"
	 viewBox="0 0 44 44" style="enable-background:new 0 0 44 44;" xml:space="preserve">
<path d="M30.5,14h-2c-0.3,0-0.5,0.2-0.5,0.5V16h-1v-1.5c0-0.3-0.2-0.5-0.5-0.5h-3c-0.3,0-0.5,0.2-0.5,0.5V16h-2v-1.5
	c0-0.3-0.2-0.5-0.5-0.5h-3c-0.3,0-0.5,0.2-0.5,0.5V16h-1v-1.5c0-0.3-0.2-0.5-0.5-0.5h-2c-0.3,0-0.5,0.2-0.5,0.5v15
	c0,0.3,0.2,0.5,0.5,0.5h5c0.3,0,0.5-0.2,0.5-0.5V27c0-1.7,1.3-3,3-3s3,1.3,3,3v2.5c0,0.3,0.2,0.5,0.5,0.5h5c0.3,0,0.5-0.2,0.5-0.5
	v-15C31,14.2,30.8,14,30.5,14z M30,29h-4v-2c0-2.2-1.8-4-4-4s-4,1.8-4,4v2h-4v-8h16V29z M30,20H14v-5h1v1.5c0,0.3,0.2,0.5,0.5,0.5h2
	c0.3,0,0.5-0.2,0.5-0.5V15h2v1.5c0,0.3,0.2,0.5,0.5,0.5h3c0.3,0,0.5-0.2,0.5-0.5V15h2v1.5c0,0.3,0.2,0.5,0.5,0.5h2
	c0.3,0,0.5-0.2,0.5-0.5V15h1V20z M38.5,8.8l-0.7-0.2C35.9,7.9,32.7,6.8,31,6c-3.2-1.6-4.7-2.7-5.9-3.7l-0.6-0.5C23.8,1.3,23,1,22,1
	s-1.8,0.3-2.5,0.8l-0.6,0.5c-1.3,1-2.7,2.1-5.9,3.7c-1.6,0.8-4.9,1.9-6.8,2.6L5.4,8.8c-1.7,0.6-2.8,2.1-2.6,3.9
	C3.1,16.2,4,24.8,6.7,30.2C9.8,36.3,17.5,40.9,20,42.4c0.6,0.4,1.3,0.6,2,0.6s1.4-0.2,1.9-0.6c2.5-1.5,10.2-6.1,13.3-12.3
	c2.7-5.4,3.6-14,3.9-17.5C41.3,10.9,40.3,9.3,38.5,8.8z M35.4,29.2c-1.9,3.7-6.1,7.6-12.5,11.5c-0.6,0.3-1.3,0.3-1.8,0
	C14.6,36.9,10.4,33,8.5,29.2c-2.5-5-3.4-13.4-3.7-16.8c-0.1-0.8,0.4-1.5,1.3-1.8l0.7-0.2c2.1-0.7,5.3-1.8,7.1-2.7
	c3.4-1.7,5-2.9,6.3-3.9l0.6-0.4C21,3.1,21.5,3,21.9,3H22c0.5,0,1,0.1,1.3,0.4l0.6,0.4c1.3,1,2.9,2.2,6.3,3.9c1.8,0.9,5,2,7.1,2.7
	l0.7,0.2c0.8,0.3,1.3,1,1.3,1.8C38.9,15.8,38,24.2,35.4,29.2z"/>
</svg>
