<?xml version="1.0" encoding="utf-8"?>
<!-- Generator: Adobe Illustrator 21.0.0, SVG Export Plug-In . SVG Version: 6.00 Build 0)  -->
<svg version="1.1" id="图层_1" xmlns="http://www.w3.org/2000/svg" xmlns:xlink="http://www.w3.org/1999/xlink" x="0px" y="0px"
	 viewBox="0 0 48 48" style="enable-background:new 0 0 48 48;" xml:space="preserve">
<style type="text/css">
	.st0{fill:#060001;}
</style>
<title>画板 1</title>
<g>
	<g>
		<path class="st0" d="M31.5,19.1c-1.9-5.5-8-8.4-13.5-6.5c-3.1,1.1-5.5,3.5-6.5,6.5C6.1,19.6,2,24.1,2,29.5C2,35.3,6.8,40,12.6,40
			h17.7c5.9,0,10.6-4.6,10.7-10.5C41,24.1,36.9,19.6,31.5,19.1z M30.4,38H12.6C7.9,38,4,34.2,4,29.5c0-4.4,3.3-8,7.7-8.4
			c0.8-0.1,1.4-0.6,1.7-1.3c1.7-4.5,6.7-6.8,11.3-5.1c2.4,0.9,4.3,2.8,5.1,5.1c0.3,0.7,0.9,1.2,1.7,1.3c4.3,0.4,7.6,4,7.7,8.4
			C39,34.2,35.1,38,30.4,38z M36.4,15.1C34.8,10.8,30.6,8,26,8c-0.8,0-1.7,0.1-2.5,0.3c-1.7,0.4-3.3,1.2-4.7,2.3
			c-0.2,0.2-0.2,0.5-0.1,0.7c0.2,0.2,0.5,0.2,0.7,0.1c1.2-1.1,2.7-1.8,4.3-2.1C24.4,9.1,25.2,9,26,9c4.3,0,8.1,2.7,9.6,6.7
			c0.1,0.2,0.2,0.3,0.4,0.3c5.5,0.5,9.5,5.3,9,10.8c-0.2,2.7-1.6,5.1-3.7,6.8c-0.2,0.2-0.2,0.5-0.1,0.7c0.1,0.1,0.2,0.2,0.4,0.2
			c0.1,0,0.2,0,0.3-0.1c2.6-2.1,4.1-5.2,4.1-8.5C45.9,20.4,41.8,15.8,36.4,15.1z"/>
	</g>
</g>
</svg>
