<svg id="图层_1" data-name="图层 1" xmlns="http://www.w3.org/2000/svg" viewBox="0 0 40 42"><title>cbsc</title><path id="服务图标-定制化对话机器人cbsc" d="M26,7.3v3.2H41a4,4,0,0,1,4,4v21a4,4,0,0,1-4,4H9a4,4,0,0,1-4-4v-21a4,4,0,0,1,4-4H24V7.3a2.91,2.91,0,0,1-2-2.8,3,3,0,0,1,6,0A2.91,2.91,0,0,1,26,7.3ZM9,12.5a2,2,0,0,0-2,2v21a2,2,0,0,0,2,2H41a2,2,0,0,0,2-2v-21a2,2,0,0,0-2-2Zm7.7,11.7a1,1,0,0,1-1.7-.7v-4a1,1,0,0,1,2,0v4A.91.91,0,0,1,16.65,24.2Zm18,0a1,1,0,0,1-1.7-.7v-4a1,1,0,0,1,2,0v4A.91.91,0,0,1,34.65,24.2ZM18.55,43.4a.52.52,0,0,1-.2-.4.4.4,0,0,1,.2-.4c.1-.1.2-.1.4-.1h11.9a.51.51,0,1,1,0,1H19C18.75,43.5,18.65,43.5,18.55,43.4ZM25,34.5a5.67,5.67,0,0,1-5.5-4.2.53.53,0,0,1,.4-.7c.1,0,.2-.1.4-.1a4.14,4.14,0,0,0,1-.1h7.5a2.79,2.79,0,0,1,1,.1c.1,0,.3,0,.3.1a.35.35,0,0,1,.2.1c.2.1.2.3.2.5s0,.1-.1.2A5.55,5.55,0,0,1,25,34.5Zm0-1a4.68,4.68,0,0,0,4.4-3h-8.8A4.68,4.68,0,0,0,25,33.5Zm0-28a.94.94,0,0,0,1-1,1,1,0,0,0-2,0A.94.94,0,0,0,25,5.5Z" transform="translate(-4.95 -1.5)"/></svg>