<svg id="图层_1" data-name="图层 1" xmlns="http://www.w3.org/2000/svg" viewBox="0 0 40 42"><title>cbsqa</title><path id="服务图标-智能问答机器人cbsqa" d="M20,30h8a5.07,5.07,0,0,1-2-4,5,5,0,1,1,5,5H17a5,5,0,1,1,5-5A5.07,5.07,0,0,1,20,30Zm-3.1,0h.2a4,4,0,1,0-4.2-4A4.15,4.15,0,0,0,16.9,30Zm13.9,0H31a3.9,3.9,0,1,0-.2,0ZM25,8.8V12H40a4,4,0,0,1,4,4V37a4,4,0,0,1-4,4H8a4,4,0,0,1-4-4V16a4,4,0,0,1,4-4H23V8.8A2.91,2.91,0,0,1,21,6a3,3,0,0,1,6,0A2.91,2.91,0,0,1,25,8.8ZM8,14a2,2,0,0,0-2,2V37a2,2,0,0,0,2,2H40a2,2,0,0,0,2-2V16a2,2,0,0,0-2-2Zm9.6,30.9a.52.52,0,0,1-.2-.4.4.4,0,0,1,.2-.4c.1-.1.2-.1.4-.1H29.9a.51.51,0,1,1,0,1H18C17.8,45,17.7,45,17.6,44.9ZM24,7a.94.94,0,0,0,1-1,1,1,0,0,0-2,0A.94.94,0,0,0,24,7Z" transform="translate(-4 -3)"/></svg>