<svg id="图层_1" data-name="图层 1" xmlns="http://www.w3.org/2000/svg" viewBox="0 0 40 42"><title>CBSSA</title><path id="服务图标-智能质检cbssa" d="M24.7,31.9c1.2,1.8,3.5,2.3,5.9,1.1a.51.51,0,1,1,.5.9c-2.9,1.5-6.1.7-7.4-2a4.56,4.56,0,0,1-2.1-.8,3.88,3.88,0,0,1-1.2-4.8,5.39,5.39,0,0,0-3.5,4.3.44.44,0,0,1-.6.4c-.3-.1-.5-.3-.4-.6A6.16,6.16,0,0,1,21.2,25a3.87,3.87,0,0,1,5.3-.4,2.34,2.34,0,0,1,.7.7,5.11,5.11,0,0,0-1.9-5.4.5.5,0,1,1,.6-.8,6.06,6.06,0,0,1,1.9,7.4,3.88,3.88,0,0,1-.6,3.6l-.1.1A2.94,2.94,0,0,1,24.7,31.9ZM25,8.8V12H40a4,4,0,0,1,4,4V37a4,4,0,0,1-4,4H8a4,4,0,0,1-4-4V16a4,4,0,0,1,4-4H23V8.8A2.91,2.91,0,0,1,21,6a3,3,0,0,1,6,0A2.91,2.91,0,0,1,25,8.8ZM8,14a2,2,0,0,0-2,2V37a2,2,0,0,0,2,2H40a2,2,0,0,0,2-2V16a2,2,0,0,0-2-2Zm9.6,30.9a.52.52,0,0,1-.2-.4.4.4,0,0,1,.2-.4c.1-.1.2-.1.4-.1H29.9a.51.51,0,1,1,0,1H18C17.8,45,17.7,45,17.6,44.9ZM24,7a.94.94,0,0,0,1-1,1,1,0,0,0-2,0A.94.94,0,0,0,24,7ZM21.6,26.3a2.93,2.93,0,1,0,4.7,3.5l.1-.1a2.93,2.93,0,0,0-4.7-3.5Zm.6-8.9a1,1,0,1,1,1.6,1.2,1,1,0,0,1-1.6-1.2Zm10,14a1,1,0,1,1,.2,1.4A1.06,1.06,0,0,1,32.2,31.4Zm-17,1a1,1,0,1,1,.2,1.4A1.08,1.08,0,0,1,15.2,32.4Z" transform="translate(-4 -3)"/></svg>