<svg id="图层_1" data-name="图层 1" xmlns="http://www.w3.org/2000/svg" viewBox="0 0 40 42"><title>cbstask</title><path d="M41.2,11.13h-15V7.93a2.91,2.91,0,0,0,2-2.8,3,3,0,1,0-6,0,3.06,3.06,0,0,0,2,2.8v3.2H9.2a4,4,0,0,0-4,4v21a4,4,0,0,0,4,4h32a4,4,0,0,0,4-4v-21A4,4,0,0,0,41.2,11.13Zm-16-7a.94.94,0,0,1,1,1,1,1,0,0,1-2,0A.94.94,0,0,1,25.2,4.13Zm18,32a2,2,0,0,1-2,2H9.2a2,2,0,0,1-2-2v-21a2,2,0,0,1,2-2h32a2,2,0,0,1,2,2Zm-11.5,7.5a.57.57,0,0,1-.6.5H19.2c-.2,0-.3,0-.4-.1a.41.41,0,0,1-.2-.4.52.52,0,0,1,.2-.41c.1-.09.2-.09.4-.09H31.1A.56.56,0,0,1,31.7,43.63Zm-12.4-16a.48.48,0,0,1-.5.5h-.6a.65.65,0,0,0-.4.09l-1.7,1.7a1.14,1.14,0,0,1-.8.3,1.09,1.09,0,0,1-.8-.3,1.11,1.11,0,0,1-.3-.79v-1h0a2,2,0,0,1-2-2v-7.5a2.48,2.48,0,0,1,2.5-2.5h12a2.48,2.48,0,0,1,2.5,2.5v.29a.53.53,0,0,1-.5.5.47.47,0,0,1-.5-.5v-.29a1.54,1.54,0,0,0-1.5-1.5h-12a1.54,1.54,0,0,0-1.5,1.5v7.5a1,1,0,0,0,1,1h.5a.65.65,0,0,1,.6.6v1.4c.1.1.1.1.2.1l1.7-1.71a1.58,1.58,0,0,1,1-.39h.5A.56.56,0,0,1,19.3,27.63Zm16.4-7.5h-13a2.48,2.48,0,0,0-2.5,2.5v7a2.48,2.48,0,0,0,2.5,2.5h8a1.08,1.08,0,0,1,.3.09l1.7,1.7a1.09,1.09,0,0,0,.8.3h0a1.09,1.09,0,0,0,.8-.3,1.13,1.13,0,0,0,.3-.79v-1h1.3a2.33,2.33,0,0,0,2.3-2.3v-7.2A2.54,2.54,0,0,0,35.7,20.13Zm1.5,9.7a1.32,1.32,0,0,1-1.3,1.3H34.2a.64.64,0,0,0-.6.59v1.5h-.1l-1.8-1.7a1.43,1.43,0,0,0-1-.4h-8a1.54,1.54,0,0,1-1.5-1.5v-7a1.54,1.54,0,0,1,1.5-1.5h13a1.54,1.54,0,0,1,1.5,1.5Zm-13-4.7a1,1,0,0,1,0,2,1,1,0,0,1,0-2Zm5,0a1,1,0,0,1,0,2,1,1,0,0,1,0-2Zm5,0a1,1,0,0,1,0,2,1,1,0,0,1,0-2Z" transform="translate(-5.2 -2.13)"/></svg>