<svg id="图层_1" data-name="图层 1" xmlns="http://www.w3.org/2000/svg" viewBox="0 0 38 42"><title>CESS</title><path d="M41.89,11.75,27.42,3.64a5,5,0,0,0-4.43,0L8.36,11.75A4.87,4.87,0,0,0,6,15.54V32.69a4.86,4.86,0,0,0,2.37,3.79L23,44.6a5.06,5.06,0,0,0,4.51,0l14.41-8.12A4.6,4.6,0,0,0,44,32.69V15.54A4.63,4.63,0,0,0,41.89,11.75ZM42,32.69a2.62,2.62,0,0,1-1.11,2.08L26.43,42.89a3,3,0,0,1-2.45,0L9.35,34.77A2.88,2.88,0,0,1,8,32.69V15.54a2.93,2.93,0,0,1,1.36-2.08L24,5.34a2.81,2.81,0,0,1,1.27-.27,2.76,2.76,0,0,1,1.26.27l14.41,8.12A2.65,2.65,0,0,1,42,15.54ZM29,26l-3-3v8.66a.49.49,0,0,1-.5.49.5.5,0,0,1-.5-.49V23.06l-3.28,3a.68.68,0,0,1-.83,0,.5.5,0,0,1,0-.7l4-3.76a.5.5,0,0,1,.7,0l4,3.76a.49.49,0,0,1,0,.7.51.51,0,0,1-.36.15C29.13,26.17,29.13,26.12,29,26Zm8-5.35v6.38c0,1.35-.74,3.06-2.12,3.06H28.63a.5.5,0,0,1,0-1h6.25c.82,0,1.12-1.25,1.12-2.06V20.68c0-.81-.3-1.56-1.12-1.56H15.63A1.68,1.68,0,0,0,14,20.68v6.38c0,.81.8,2.06,1.63,2.06h6.25a.5.5,0,0,1,0,1H15.63c-1.38,0-2.63-1.71-2.63-3.06V20.68a2.69,2.69,0,0,1,2.63-2.56H34.88C36.26,18.12,37,19.33,37,20.68Z" transform="translate(-6 -3.13)"/></svg>