<svg id="图层_1" data-name="图层 1" xmlns="http://www.w3.org/2000/svg" viewBox="0 0 48 48"><defs><style>.cls-1{fill:#060001;}</style></defs><title>画板 1</title><path class="cls-1" d="M28.16,29.87a.5.5,0,0,0,.71,0l10-11a.5.5,0,0,0-.74-.67l-10,11A.5.5,0,0,0,28.16,29.87ZM45,3H30a3.52,3.52,0,0,0-2.48,1L25,6.58,22.46,4A3.53,3.53,0,0,0,20,3H3A1,1,0,0,0,2,4V42a1,1,0,0,0,1,1H20.44A5.78,5.78,0,0,0,25,45a5.26,5.26,0,0,0,4.32-2H45a1,1,0,0,0,1-1V4A1,1,0,0,0,45,3ZM44,41H28.75a1,1,0,0,0-.9.57A3.15,3.15,0,0,1,25,43a3.6,3.6,0,0,1-3.1-1.43A1,1,0,0,0,21,41H4V5H20A1.51,1.51,0,0,1,21,5.44l3.25,3.26A1,1,0,0,0,25,9h0a1,1,0,0,0,.71-.3l3.23-3.26A1.51,1.51,0,0,1,30,5H44ZM24,15h3.5a.5.5,0,0,0,0-1H9.5a.5.5,0,0,0-.5.5v3a.5.5,0,0,0,1,0V15h3v3s0,0,0,0a6.43,6.43,0,0,0-1,3.45,6.5,6.5,0,0,0,3.79,5.9A9.51,9.51,0,0,0,9,36.5a.5.5,0,0,0,1,0,8.5,8.5,0,0,1,17,0,.5.5,0,0,0,1,0,9.51,9.51,0,0,0-6.79-9.1A6.5,6.5,0,0,0,25,21.5,6.43,6.43,0,0,0,24,18s0,0,0,0ZM14,15h9v2.63L18.5,19,14,17.63Zm10,6.5a5.5,5.5,0,0,1-11,0,5.44,5.44,0,0,1,.83-2.88L18.36,20l.14,0,.14,0,4.52-1.36A5.44,5.44,0,0,1,24,21.5Z"/></svg>