<?xml version="1.0" encoding="utf-8"?>
<!-- Generator: Adobe Illustrator 21.0.0, SVG Export Plug-In . SVG Version: 6.00 Build 0)  -->
<svg version="1.1" id="图层_1" xmlns="http://www.w3.org/2000/svg" xmlns:xlink="http://www.w3.org/1999/xlink" x="0px" y="0px"
	 viewBox="0 0 48 48" style="enable-background:new 0 0 48 48;" xml:space="preserve">
<style type="text/css">
	.st0{fill:#060001;}
	.st1{fill:#040000;}
	.st2{fill:none;stroke:#000000;stroke-miterlimit:10;}
	.st3{fill:#221815;}
	.st4{fill:#080102;}
	.st5{fill:none;stroke:#000000;stroke-width:2;stroke-linecap:round;stroke-linejoin:round;stroke-miterlimit:10;}
	.st6{fill:#070001;}
</style>
<path class="st6" d="M32.6,21H15.5c-0.8,0-1.5,0.7-1.5,1.5v10c0,0.8,0.7,1.5,1.5,1.5h17.1c0.8,0,1.4-0.7,1.4-1.5v-10
	C34,21.7,33.4,21,32.6,21z M33,32.5c0,0.3-0.2,0.5-0.4,0.5H15.5c-0.2,0-0.5-0.2-0.5-0.5v-7.7l8.8,3.7c0.1,0,0.1,0,0.2,0s0.1,0,0.2,0
	l8.8-3.7V32.5z M33,23.7l-9,3.8l-9-3.8v-1.2c0-0.3,0.2-0.5,0.5-0.5h17.1c0.2,0,0.4,0.2,0.4,0.5V23.7z M35.3,16.1
	C33.7,11.4,29.3,8,24,8s-9.7,3.4-11.3,8.1C6.7,16.7,2,21.8,2,28c0,6.6,5.4,12,12,12h20c6.6,0,12-5.4,12-12
	C46,21.8,41.3,16.7,35.3,16.1z M34,38H14C8.5,38,4,33.5,4,28c0-5.1,3.8-9.4,8.9-9.9c0.8-0.1,1.4-0.6,1.7-1.3c1.4-4,5.2-6.7,9.4-6.7
	s8,2.7,9.4,6.7c0.3,0.7,0.9,1.2,1.7,1.3c5.1,0.6,8.9,4.8,8.9,9.9C44,33.5,39.5,38,34,38z"/>
</svg>
