<?xml version="1.0" encoding="utf-8"?>
<!-- Generator: Adobe Illustrator 21.0.0, SVG Export Plug-In . SVG Version: 6.00 Build 0)  -->
<svg version="1.1" id="图层_1" xmlns="http://www.w3.org/2000/svg" xmlns:xlink="http://www.w3.org/1999/xlink" x="0px" y="0px"
	 viewBox="0 0 48 48" style="enable-background:new 0 0 48 48;" xml:space="preserve">
<style type="text/css">
	.st0{fill:#060001;}
	.st1{fill:#040000;}
	.st2{fill:none;stroke:#000000;stroke-miterlimit:10;}
	.st3{fill:#221815;}
	.st4{fill:#080102;}
	.st5{fill:none;stroke:#000000;stroke-width:2;stroke-linecap:round;stroke-linejoin:round;stroke-miterlimit:10;}
	.st6{fill:#070001;}
</style>
<path class="st6" d="M24,17.5c-5,0-9,3.8-9,8.5v4l0,0v2.4c0,1.1,1.1,2.1,2.5,2.1s2.5-0.9,2.5-2.1v-3.9c0-1.1-1.1-2.1-2.5-2.1
	c-0.6,0-1.1,0.2-1.5,0.4V26c0-4.1,3.6-7.5,8-7.5s8,3.4,8,7.5v0.9c-0.4-0.3-0.9-0.4-1.5-0.4c-1.4,0-2.5,0.9-2.5,2.1v3.9
	c0,1.1,1.1,2.1,2.5,2.1s2.5-0.9,2.5-2.1V26C33,21.3,29,17.5,24,17.5z M16,28.6c0-0.6,0.7-1.1,1.5-1.1S19,28,19,28.6v3.9
	c0,0.6-0.7,1.1-1.5,1.1S16,33,16,32.4V28.6z M32,32.4c0,0.6-0.7,1.1-1.5,1.1S29,33,29,32.4v-3.9c0-0.6,0.7-1.1,1.5-1.1
	S32,28,32,28.6V32.4z M35.3,16.1C33.7,11.4,29.3,8,24,8s-9.7,3.4-11.3,8.1C6.7,16.7,2,21.8,2,28c0,6.6,5.4,12,12,12h20
	c6.6,0,12-5.4,12-12C46,21.8,41.3,16.7,35.3,16.1z M34,38H14C8.5,38,4,33.5,4,28c0-5.1,3.8-9.4,8.9-9.9c0.8-0.1,1.4-0.6,1.7-1.3
	c1.4-4,5.2-6.7,9.4-6.7s8,2.7,9.4,6.7c0.3,0.7,0.9,1.2,1.7,1.3c5.1,0.6,8.9,4.8,8.9,9.9C44,33.5,39.5,38,34,38z"/>
</svg>
