<?xml version="1.0" encoding="utf-8"?>
<!-- Generator: Adobe Illustrator 21.0.0, SVG Export Plug-In . SVG Version: 6.00 Build 0)  -->
<svg version="1.1" id="图层_1" xmlns="http://www.w3.org/2000/svg" xmlns:xlink="http://www.w3.org/1999/xlink" x="0px" y="0px"
	 viewBox="0 0 48 48" style="enable-background:new 0 0 48 48;" xml:space="preserve">
<style type="text/css">
	.st0{fill:none;stroke:#000000;stroke-width:2;stroke-linecap:round;stroke-linejoin:round;stroke-miterlimit:10;}
</style>
<rect x="21.5" y="9.5" width="1" height="1"/>
<rect x="24" y="9.5" width="8" height="1"/>
<g>
	<path d="M30.8,26.7c-0.2-0.2-0.4-0.1-0.6,0.1l0,0l-1.6,1.8V18c0-0.3-0.2-0.5-0.5-0.5s-0.5,0.2-0.5,0.5v12c0,0.2,0.1,0.4,0.3,0.5
		c0.1,0,0.1,0,0.2,0s0.3-0.1,0.4-0.2l1.7-2l0.8-0.9C31.1,27.2,31,26.9,30.8,26.7z"/>
	<path d="M24.5,18v12.1l0,0c0,0.3-0.2,0.4-0.5,0.4s-0.5-0.2-0.5-0.5V19.3l-1.1,1.3L22,21.1c-0.1,0.1-0.2,0.1-0.3,0.2
		c-0.1,0.1-0.3,0-0.4-0.1C21.1,21.1,21,21,21,20.9s0-0.2,0.1-0.3l0.4-0.5l2-2.4c0.2-0.1,0.4-0.2,0.6-0.1
		C24.4,17.6,24.5,17.8,24.5,18z"/>
</g>
<path d="M14.9,29.5c-2.4,0-4.3,1.6-5.1,3.8C7.1,33.5,5,36,5,38.9c0,3.1,2.5,5.6,5.5,5.6h9.1c3,0,5.5-2.5,5.5-5.6
	c0-2.9-2.1-5.2-4.8-5.6C19.2,31.1,17.2,29.5,14.9,29.5z M23.8,38.9c0,2.4-1.9,4.4-4.2,4.4h-9.1c-2.4,0-4.2-2-4.2-4.4
	c0-2.2,1.6-4.1,3.7-4.4l0.7-0.1l0.2-0.8c0.6-1.8,2.1-2.9,4-2.9s3.4,1.1,4,2.9l0.2,0.8l0.9,0.1C22.2,34.8,23.8,36.6,23.8,38.9z"/>
<path class="st0" d="M27.9,43.4"/>
<path d="M35.1,45h-6.6c-0.6,0-1-0.5-1-1s0.4-1,1-1h6.6c1.7,0,3-1.4,3-3.1V10.1c0-1.7-1.3-3.1-3-3.1H16.9c-1.7,0-3,1.4-3,3.1v16.1
	c0,0.6-0.4,1-1,1s-1-0.5-1-1V10.1C12,7.3,14.2,5,16.9,5H35c2.8,0,4.9,2.3,4.9,5.1v29.7C40,42.7,37.7,45,35.1,45z"/>
</svg>
