<svg id="图层_1" data-name="图层 1" xmlns="http://www.w3.org/2000/svg" viewBox="0 0 40 40.13"><defs><style>.cls-1{fill:#040000;}</style></defs><title>custom-bot</title><path class="cls-1" d="M26,24.13a2,2,0,1,1-2-2A2,2,0,0,1,26,24.13Zm18,8.06v11a.94.94,0,0,1-1,1H5a.94.94,0,0,1-1-1v-11a19.87,19.87,0,0,1,10.6-17.6l-3.2-6.4a1.68,1.68,0,0,1-1.8-.8,2,2,0,0,1,3-2.6,2,2,0,0,1-.2,2.8L15.6,14a19.75,19.75,0,0,1,16.8-.1l3.2-6.5a2.1,2.1,0,0,1-.4-2A2,2,0,1,1,39,6.79,2.08,2.08,0,0,1,36.4,8l-3.2,6.4A20.17,20.17,0,0,1,44,32.19ZM37.83,20.7a16.49,16.49,0,0,0-1.2-1.3,2.51,2.51,0,0,0-1.13-.27h-23a2.47,2.47,0,0,0-1.12.27,16.49,16.49,0,0,0-1.2,1.3,2.53,2.53,0,0,0-.18.93v5a2.48,2.48,0,0,0,2.5,2.5h23a2.48,2.48,0,0,0,2.5-2.5v-5A2.52,2.52,0,0,0,37.83,20.7Zm-25-2.57H35.19a17.85,17.85,0,0,0-22.37,0ZM42,32.19a17.87,17.87,0,0,0-3-9.91v4.35a3.55,3.55,0,0,1-3.5,3.5h-23A3.55,3.55,0,0,1,9,26.63V22.28a17.87,17.87,0,0,0-3,9.91v10H42Z" transform="translate(-4 -4.06)"/></svg>