<?xml version="1.0" encoding="utf-8"?>
<!-- Generator: Adobe Illustrator 21.0.0, SVG Export Plug-In . SVG Version: 6.00 Build 0)  -->
<svg version="1.1" id="图层_1" xmlns="http://www.w3.org/2000/svg" xmlns:xlink="http://www.w3.org/1999/xlink" x="0px" y="0px"
	 viewBox="0 0 48 48" enable-background="new 0 0 48 48" xml:space="preserve">
<path d="M43,40H31.4C37.7,36.9,42,30.4,42,23c0-10.5-8.5-19-19-19S4,12.5,4,23s8.5,19,19,19h20c0.6,0,1-0.4,1-1S43.6,40,43,40z
	 M6,23c0-9.4,7.6-17,17-17s17,7.6,17,17s-7.6,17-17,17S6,32.4,6,23z M23,20c3,0,5.5-2.5,5.5-5.5S26,9,23,9s-5.5,2.5-5.5,5.5
	S20,20,23,20z M23,10c2.5,0,4.5,2,4.5,4.5S25.5,19,23,19s-4.5-2-4.5-4.5S20.5,10,23,10z M37,23c0-3-2.5-5.5-5.5-5.5S26,20,26,23
	c0,3,2.5,5.5,5.5,5.5S37,26,37,23z M31.5,27.5c-2.5,0-4.5-2-4.5-4.5s2-4.5,4.5-4.5s4.5,2,4.5,4.5S34,27.5,31.5,27.5z M20,23
	c0-3-2.5-5.5-5.5-5.5S9,20,9,23c0,3,2.5,5.5,5.5,5.5S20,26,20,23z M14.5,27.5c-2.5,0-4.5-2-4.5-4.5s2-4.5,4.5-4.5s4.5,2,4.5,4.5
	S17,27.5,14.5,27.5z M23,26c-3,0-5.5,2.5-5.5,5.5S20,37,23,37s5.5-2.5,5.5-5.5S26,26,23,26z M23,36c-2.5,0-4.5-2-4.5-4.5
	s2-4.5,4.5-4.5s4.5,2,4.5,4.5S25.5,36,23,36z"/>
</svg>
