<?xml version="1.0" encoding="utf-8"?>
<!-- Generator: Adobe Illustrator 21.0.0, SVG Export Plug-In . SVG Version: 6.00 Build 0)  -->
<svg version="1.1" id="图层_1" xmlns="http://www.w3.org/2000/svg" xmlns:xlink="http://www.w3.org/1999/xlink" x="0px" y="0px"
	 viewBox="0 0 48 48" style="enable-background:new 0 0 48 48;" xml:space="preserve">
<style type="text/css">
	.st0{fill:#040000;}
</style>
<path class="st0" d="M26.2,24c-0.3,0-0.5,0.2-0.5,0.5s0.2,0.5,0.5,0.5h3c0.3,0,0.5-0.2,0.5-0.5S29.5,24,29.2,24H26.2z M19.2,24
	c-0.3,0-0.5,0.2-0.5,0.5s0.2,0.5,0.5,0.5h3c0.3,0,0.5-0.2,0.5-0.5S22.5,24,22.2,24H19.2z M6.8,14c0.6,0,1-0.4,1-1V8.5
	C7.8,7.1,9.7,7,10.2,7h28c0.4,0,1.6,0.1,1.6,1.5V13c0,0.6,0.4,1,1,1s1-0.4,1-1V8.5c0-2-1.3-3.5-3.6-3.5h-28C7.8,5,5.8,6.5,5.8,8.5
	V13C5.8,13.6,6.2,14,6.8,14z M35.7,16.5c0-0.3-0.2-0.5-0.5-0.5h-22c-0.3,0-0.5,0.2-0.5,0.5s0.2,0.5,0.5,0.5h22
	C35.5,17,35.7,16.8,35.7,16.5z M11.7,24.5c0,0.3,0.2,0.5,0.5,0.5h3c0.3,0,0.5-0.2,0.5-0.5S15.5,24,15.2,24h-3
	C11.9,24,11.7,24.2,11.7,24.5z M9,31.5c0.6,0,1.1-0.4,1.1-1s-0.6-1-1.1-1c-1.1,0-2.1-0.9-2.1-2v-8c0-1.1,1.1-2,2.2-2
	c0.6,0,1.1-0.4,1.1-1s-0.6-1-1.1-1c-2.2,0-4.1,1.8-4.1,4v8C4.8,29.7,6.8,31.5,9,31.5z M39,15.5c-0.6,0-0.9,0.4-0.9,1s0.3,1,0.9,1
	c1.1,0,1.9,0.9,1.9,2v8c0,1.1-0.7,2-1.8,2c-0.6,0-0.9,0.4-0.9,1s0.3,1,0.9,1c2.2,0,3.9-1.8,3.9-4v-8C42.8,17.3,41.2,15.5,39,15.5z
	 M13.2,32H20l3.9,3.9C24,36,24.1,36,24.3,36l0,0c0.1,0,0.3-0.1,0.4-0.1l3.8-3.9h6.8c0.3,0,0.5-0.2,0.5-0.5S35.5,31,35.2,31h-7
	c-0.1,0-0.3,0.1-0.4,0.1l-3.6,3.6l-3.6-3.6C20.5,31,20.4,31,20.2,31h-7c-0.3,0-0.5,0.2-0.5,0.5S12.9,32,13.2,32z M40.8,34
	c-0.6,0-1,0.4-1,1v3.5c0,1.1-0.5,2.5-1.6,2.5h-28c-1.1,0-2.4-1.4-2.4-2.5V35c0-0.6-0.4-1-1-1s-1,0.4-1,1v3.5c0,2.1,2.1,4.5,4.4,4.5
	h28c2.3,0,3.6-2.4,3.6-4.5V35C41.8,34.4,41.4,34,40.8,34z M36.7,24.5c0-0.3-0.2-0.5-0.5-0.5h-3c-0.3,0-0.5,0.2-0.5,0.5
	s0.2,0.5,0.5,0.5h3C36.5,25,36.7,24.8,36.7,24.5z"/>
</svg>
