<svg id="图层_1" data-name="图层 1" xmlns="http://www.w3.org/2000/svg" viewBox="0 0 42 41"><title>darkenhance</title><path d="M7.36,25.67A.5.5,0,0,1,6.65,25l4.56-4.57a1.51,1.51,0,0,1,2.12,0l2.36,2.33a.51.51,0,0,0,.69,0l13.7-12.64a1.49,1.49,0,0,1,2.1.07l8.76,8.56a.49.49,0,0,1,0,.7.48.48,0,0,1-.7,0l-8.78-8.57a.49.49,0,0,0-.7,0L17.06,23.46a1.49,1.49,0,0,1-2.07,0L12.62,21.1a.5.5,0,0,0-.7,0ZM33.61,40.5v.2a1.8,1.8,0,0,1-1.8,1.8h-.4a1.81,1.81,0,0,1-1.8-1.8v-.2ZM28,37.5h7.11a1,1,0,0,1,0,2H28a1,1,0,0,1,0-2Zm6.8-6.7c.41-.84.63-1.29.83-1.78a6.11,6.11,0,0,0,.54-2.26,4.42,4.42,0,0,0-8.83,0,9.11,9.11,0,0,0,1.21,3.64c.08.17.08.17.17.34a15.17,15.17,0,0,1,1.47,3.76h3.12A14.08,14.08,0,0,1,34.8,30.8ZM34,36.5H29.69a1.54,1.54,0,0,1-1.41-1.27c0-.08,0-.16,0-.25a13.24,13.24,0,0,0-1.32-3.37,3.78,3.78,0,0,1-.17-.35c-1-2.07-1.41-3.24-1.41-4.5a6.42,6.42,0,0,1,12.83,0,8,8,0,0,1-.69,3c-.23.55-.45,1-.89,1.91-1,2-1.29,2.72-1.36,3.56A1.32,1.32,0,0,1,34,36.5Zm-10.16,1a1,1,0,0,1,0,2H6A3,3,0,0,1,3,36.5V4.5a3,3,0,0,1,3-3h36.1a3,3,0,0,1,3,3v32a3,3,0,0,1-3,3H40a1,1,0,0,1,0-2h2a1,1,0,0,0,1-1V4.5a1,1,0,0,0-1-1H6a1,1,0,0,0-1,1v32a1,1,0,0,0,1,1ZM11,11.47h0a3,3,0,1,0,3-3A3,3,0,0,0,11,11.47Zm3-4a4,4,0,1,1-4,4A4,4,0,0,1,14,7.5Z" transform="translate(-3 -1.5)"/></svg>