<?xml version="1.0" encoding="utf-8"?>
<!-- Generator: Adobe Illustrator 21.0.0, SVG Export Plug-In . SVG Version: 6.00 Build 0)  -->
<svg version="1.1" id="图层_1" xmlns="http://www.w3.org/2000/svg" xmlns:xlink="http://www.w3.org/1999/xlink" x="0px" y="0px"
	 viewBox="0 0 48 48" style="enable-background:new 0 0 48 48;" xml:space="preserve">
<style type="text/css">
	.st0{fill:#040000;}
	.st1{fill:#060001;}
	.st2{fill:#080103;}
</style>
<path d="M28.5,26.1c0.1,0,0.3-0.1,0.4-0.2c0.2-0.2,0.2-0.5,0-0.7l-4.2-3.9c-0.2-0.2-0.5-0.2-0.7,0l-4.2,3.9c-0.2,0.2-0.2,0.5,0,0.7
	s0.7,0.2,0.9,0l3.5-3.1V32c0,0.3,0.2,0.5,0.5,0.5s0.5-0.2,0.5-0.5v-9.1l3.2,3.1C28.3,26.1,28.3,26.1,28.5,26.1z M34.4,17.7H14.1
	c-1.5,0-2.8,1.3-2.8,2.7v6.7c0,1.4,1.3,3.2,2.8,3.2h6.6c0.3,0,0.5-0.2,0.5-0.5s-0.2-0.5-0.5-0.5h-6.6c-0.9,0-1.7-1.3-1.7-2.2v-6.7
	c0-0.8,0.8-1.6,1.7-1.6h20.3c0.9,0,1.2,0.8,1.2,1.6v6.7c0,0.8-0.3,2.2-1.2,2.2h-6.6c-0.3,0-0.5,0.2-0.5,0.5s0.2,0.5,0.5,0.5h6.6
	c1.5,0,2.2-1.8,2.2-3.2v-6.7C36.6,19,35.8,17.7,34.4,17.7z M41.8,11L26.5,2.5c-1.3-0.7-3.4-0.7-4.7,0L6.5,11C5.2,11.8,4,13.5,4,15
	v18c0,1.5,1.2,3.2,2.5,4l15.4,8.5c0.6,0.4,1.5,0.6,2.4,0.6c0.9,0,1.7-0.2,2.4-0.6l15.2-8.5c1.3-0.7,2.2-2.5,2.2-4V15
	C44,13.5,43.1,11.8,41.8,11z M41.9,33c0,0.8-0.5,1.8-1.2,2.2l-15.2,8.5c-0.7,0.4-1.9,0.4-2.6,0L7.5,35.2c-0.7-0.4-1.4-1.4-1.4-2.2
	V15c0-0.8,0.7-1.8,1.4-2.2l15.4-8.5C23.2,4.1,23.7,4,24.2,4c0.5,0,1,0.1,1.3,0.3l15.2,8.5c0.7,0.4,1.2,1.4,1.2,2.2V33z"/>
</svg>
