<?xml version="1.0" encoding="utf-8"?>
<!-- Generator: Adobe Illustrator 21.0.0, SVG Export Plug-In . SVG Version: 6.00 Build 0)  -->
<svg version="1.1" id="图层_1" xmlns="http://www.w3.org/2000/svg" xmlns:xlink="http://www.w3.org/1999/xlink" x="0px" y="0px"
	 viewBox="0 0 48 48" style="enable-background:new 0 0 48 48;" xml:space="preserve">
<style type="text/css">
	.st0{fill:#040000;}
	.st1{fill:#060001;}
	.st2{fill:#080103;}
</style>
<path class="st2" d="M31.4,34.2c-0.4,0-0.7,0.1-1,0.3L28.9,33v-3.4l4-2v-6.8l-4-2v-3.5l1.4-1.4c0.3,0.2,0.6,0.3,1,0.3
	c1.1,0,2-0.9,2-2c0-1.1-0.9-2-2-2s-2,0.9-2,2c0,0.4,0.1,0.7,0.3,1l-1.7,1.7v4.7l4,2v5.5l-4,2v4.6l1.8,1.8c-0.2,0.3-0.3,0.6-0.3,1
	c0,1.1,0.9,2,2,2s2-0.9,2-2C33.4,35.2,32.5,34.2,31.4,34.2z M31.3,11c0.6,0,1,0.4,1,1c0,0.6-0.4,1-1,1c-0.6,0-1-0.4-1-1
	C30.3,11.4,30.8,11,31.3,11z M31.4,37.2c-0.6,0-1-0.4-1-1c0-0.6,0.4-1,1-1s1,0.4,1,1C32.4,36.8,32,37.2,31.4,37.2z M17.4,34.5
	c-0.3-0.2-0.6-0.3-1-0.3c-1.1,0-2,0.9-2,2c0,1.1,0.9,2,2,2s2-0.9,2-2c0-0.4-0.1-0.7-0.3-1l1.8-1.8v-4.6l-4-2v-5.5l4-2v-4.7l-1.7-1.7
	c0.2-0.3,0.3-0.7,0.3-1c0-1.1-0.9-2-2-2s-2,0.9-2,2c0,1.1,0.9,2,2,2c0.4,0,0.7-0.1,1-0.3l1.4,1.4v3.5l-4,2v6.8l4,2v3.4L17.4,34.5z
	 M16.4,37.2c-0.6,0-1-0.4-1-1c0-0.6,0.4-1,1-1s1,0.4,1,1C17.4,36.8,17,37.2,16.4,37.2z M16.5,13c-0.6,0-1-0.4-1-1c0-0.6,0.4-1,1-1
	c0.6,0,1,0.4,1,1C17.5,12.6,17,13,16.5,13z M43.4,15.6l-5.3-3c-0.3-0.2-0.6-0.6-0.7-0.9L36,7.5c-0.2-0.8-1-1.6-1.8-1.9l-9.1-3.3
	C24.7,2,24.3,2,23.9,2c-0.3,0-0.8,0-1.3,0.2l-9.1,3.3c-0.8,0.3-1.6,1.1-1.9,1.9l-1.4,4.1c-0.1,0.3-0.5,0.7-0.7,0.9l-5.3,3
	C3.6,16.1,3,17.1,3,18v11.1C3,30,3.5,31,4.2,31.5l5.4,3.8c0.3,0.2,0.7,0.7,0.8,1l1.4,4.1c0.3,0.8,1.1,1.6,1.9,1.9l9.1,3.3
	C23.2,46,23.6,46,24,46c0.3,0,0.8,0,1.3-0.2l9.1-3.3c0.8-0.3,1.6-1.1,1.9-1.9l1.4-4.1c0.1-0.3,0.5-0.8,0.8-1l5.4-3.8
	C44.5,31,45,30,45,29.1V18C44.8,17.1,44.2,16.1,43.4,15.6z M22.9,43.9l-8.7-3.2c-0.2-0.1-0.6-0.4-0.6-0.7l-1.4-4.1
	c-0.2-0.7-0.9-1.6-1.5-2l-5.4-3.8C5.2,29.7,5,29.3,5,29.1v-5.1h3.1c0.2,0.9,1,1.5,1.9,1.5c1.1,0,2-0.9,2-2c0-1.1-0.9-2-2-2
	c-0.9,0-1.7,0.6-1.9,1.5H5V18c0-0.2,0.2-0.5,0.4-0.6l5.3-3c0.7-0.4,1.4-1.2,1.6-2l1.4-4.1C13.7,8,14,7.6,14.2,7.5l8.7-3.2V43.9z
	 M9,23.5c0-0.6,0.4-1,1-1c0.6,0,1,0.4,1,1c0,0.6-0.4,1-1,1C9.4,24.6,9,24.2,9,23.5z M42.8,23h-3.1c-0.2-0.9-1-1.5-1.9-1.5
	c-1.1,0-2,0.9-2,2c0,1.1,0.9,2,2,2c0.9,0,1.7-0.6,1.9-1.5h3.1v5.1c0,0.2-0.2,0.6-0.4,0.8L37,33.8c-0.6,0.4-1.3,1.3-1.5,2l-1.4,4.1
	c-0.1,0.2-0.4,0.6-0.6,0.7l-8.7,3.2V4.2l8.7,3.2c0.2,0.1,0.6,0.4,0.6,0.7l1.4,4.1c0.3,0.8,0.9,1.6,1.6,2l5.3,3
	c0.2,0.1,0.4,0.4,0.4,0.6V23z M38.8,23.5c0,0.6-0.4,1-1,1s-1-0.4-1-1c0-0.6,0.4-1,1-1S38.8,22.9,38.8,23.5z"/>
</svg>
