<?xml version="1.0" encoding="utf-8"?>
<!-- Generator: Adobe Illustrator 21.0.0, SVG Export Plug-In . SVG Version: 6.00 Build 0)  -->
<svg version="1.1" id="图层_1" xmlns="http://www.w3.org/2000/svg" xmlns:xlink="http://www.w3.org/1999/xlink" x="0px" y="0px"
	 viewBox="0 0 48 48" style="enable-background:new 0 0 48 48;" xml:space="preserve">
<style type="text/css">
	.st0{fill:#060001;}
	.st1{fill:#040000;}
	.st2{fill:none;stroke:#000000;stroke-miterlimit:10;}
	.st3{fill:#221815;}
	.st4{fill:#080102;}
	.st5{fill:none;stroke:#000000;stroke-width:2;stroke-linecap:round;stroke-linejoin:round;stroke-miterlimit:10;}
	.st6{fill:#070001;}
</style>
<path d="M41.5,13.5c-0.3,0-0.5,0.2-0.5,0.5v27.7c0,1.4-1,2.2-1.8,2.4s-2.1,0.1-2.8-1l-10-16.3c-0.1-0.2-0.5-0.3-0.7-0.2
	c-0.2,0.1-0.3,0.5-0.2,0.7l10,16.3c0.7,1,1.7,1.6,2.9,1.6c0.3,0,0.7,0,1-0.1c1.5-0.4,2.5-1.8,2.5-3.4V14
	C42,13.7,41.8,13.5,41.5,13.5z M6.5,34.5C6.8,34.5,7,34.3,7,34V6.3c0-1.4,1-2.2,1.8-2.4c0.8-0.2,2.1-0.1,2.8,1l10,16.3
	c0.1,0.2,0.5,0.3,0.7,0.2c0.2-0.1,0.3-0.5,0.2-0.7l-10-16.3C11.6,3,10,2.5,8.5,2.9C7,3.4,6,4.7,6,6.3V34C6,34.3,6.2,34.5,6.5,34.5z
	 M41.5,2C39,2,37,4,37,6.5c0,0.9,0.3,1.7,0.7,2.4L8.9,37.7C8.2,37.3,7.4,37,6.5,37C4,37,2,39,2,41.5S4,46,6.5,46s4.5-2,4.5-4.5
	c0-0.9-0.3-1.7-0.7-2.4l28.8-28.8c0.7,0.4,1.5,0.7,2.4,0.7C44,11,46,9,46,6.5S44,2,41.5,2z M6.5,44C5.1,44,4,42.9,4,41.5
	S5.1,39,6.5,39S9,40.1,9,41.5S7.9,44,6.5,44z M41.5,9C40.1,9,39,7.9,39,6.5S40.1,4,41.5,4S44,5.1,44,6.5S42.9,9,41.5,9z"/>
</svg>
