<?xml version="1.0" encoding="utf-8"?>
<!-- Generator: Adobe Illustrator 21.0.0, SVG Export Plug-In . SVG Version: 6.00 Build 0)  -->
<svg version="1.1" id="图层_1" xmlns="http://www.w3.org/2000/svg" xmlns:xlink="http://www.w3.org/1999/xlink" x="0px" y="0px"
	 viewBox="0 0 48 48" style="enable-background:new 0 0 48 48;" xml:space="preserve">
<style type="text/css">
	.st0{fill:#060001;}
	.st1{fill:#040000;}
	.st2{fill:none;stroke:#000000;stroke-miterlimit:10;}
	.st3{fill:#221815;}
	.st4{fill:#080102;}
	.st5{fill:none;stroke:#000000;stroke-width:2;stroke-linecap:round;stroke-linejoin:round;stroke-miterlimit:10;}
	.st6{fill:#070001;}
</style>
<path class="st0" d="M20.6,23h-1.1c-0.3,0-0.5,0.2-0.5,0.5s0.2,0.5,0.5,0.5h1.1c0.3,0,0.5-0.2,0.5-0.5S20.8,23,20.6,23z M39.3,13.9
	c0,0-1.4,1.2-3.9,1.2c-0.1,0-0.3,0-1,0.5c-0.6-0.5-1-0.5-1.1-0.5c-1.2,0.2-3.3-0.8-4-1.2c-0.2-0.1-0.4-0.1-0.6,0
	c-0.2,0.1-0.2,0.3-0.2,0.5c0,0.1,1,3.2,2.9,4.1l0.3,0.2c0.4,0.2,1.2,0.5,1.2,0.7c0,0.4,0,0.9-0.3,1.5c-0.2,0.5-1.6,1.1-2.5,1
	c-2.1-0.2-3.9-0.9-5.7-1.8c-2-0.9-4-1.8-6.7-2c-3-0.1-5.1,0.6-6.5,2.1c-1.1,1.1-1.6,2.7-1.5,4.4c0.3,3.9,3.9,7.1,8.7,7.6H19
	c0.2,0.3,0.6,0.9,1.5,1.5c0.7,0.6,2.6,1.3,3.5,1.3c0.3,0,0.5-0.1,0.7-0.3c0.1-0.1,0.2-0.3,0.1-0.5c-0.1-0.6-0.4-1.2-0.7-1.6
	c0.1-0.3,0-0.4,0-0.5h1c7.9-0.5,10.2-6.9,10.5-8.2c0.4-1.3,0.4-3.1,0.4-4v-0.3c0.1-0.1,0.3-0.2,0.5-0.2c0.4-0.2,1.2-0.5,1.7-0.9
	c1.6-1.1,2-4,2-4.1c0.1-0.3-0.1-0.5-0.2-0.6C39.7,13.7,39.5,13.7,39.3,13.9z M37.5,17.6c-0.5,0.4-1.1,0.6-1.6,0.8
	c-0.6,0.3-1.1,0.5-1.1,0.8v0.6c0,0.8,0,2.6-0.3,3.8c-0.3,1.1-2.3,7-9.5,7.5h-2.1c-0.2,0-0.4,0.1-0.5,0.3c-0.1,0.2,0,0.4,0.1,0.6
	c0,0,0.5,0.4,1,1c0.2,0.3,0.3,0.6,0.5,0.9c-0.7-0.1-2-0.6-2.5-1c-1.1-0.8-1.3-1.3-1.3-1.3c0-0.2-0.2-0.4-0.5-0.4h-1
	c-4.2-0.4-7.5-3.2-7.7-6.7v-0.5h5.9c0.3,0,0.5-0.2,0.5-0.5S17.1,23,16.9,23h-5.8c0.2-0.8,0.5-1.5,1.1-2.1c1.2-1.2,3.1-1.7,5.7-1.6
	c2.3,0.1,4.2,0.9,6.2,1.8c1.8,0.8,3.8,1.7,6.1,1.8c1.3,0.1,3.2-0.6,3.6-1.6c0.3-0.7,0.4-1.4,0.3-2c-0.1-0.7-1-1.1-1.8-1.5L32,17.6
	c-0.8-0.4-1.5-1.4-1.9-2.3c1,0.4,2.3,0.9,3.3,0.8c0.1,0.1,0.4,0.3,0.6,0.6c0.1,0.1,0.2,0.2,0.3,0.2c0.1,0,0.3,0,0.4-0.1
	c0.3-0.2,0.6-0.5,0.7-0.6c1.5,0,2.6-0.4,3.4-0.7C38.6,16.2,38.2,17.1,37.5,17.6z M41.6,11L26.3,2.5c-1.3-0.7-3.4-0.7-4.7,0L6.4,11
	C5,11.8,4,13.5,4,15v18c0,1.5,1,3.2,2.4,4l15.3,8.5c0.6,0.4,1.5,0.6,2.3,0.6s1.7-0.2,2.3-0.6l15.3-8.5c1.3-0.7,2.4-2.5,2.4-4V15
	C44,13.5,43,11.8,41.6,11z M41.9,33c0,0.8-0.6,1.8-1.3,2.2l-15.3,8.5c-0.7,0.4-2,0.4-2.6,0L7.4,35.2c-0.7-0.4-1.3-1.4-1.3-2.2V15
	c0-0.8,0.6-1.8,1.3-2.2l15.3-8.5C23,4.1,23.5,4,24,4s1,0.1,1.3,0.3l15.3,8.5c0.7,0.4,1.3,1.4,1.3,2.2V33z"/>
</svg>
