<svg id="图层_1" data-name="图层 1" xmlns="http://www.w3.org/2000/svg" viewBox="0 0 44 44.96"><title>Data assets</title><path id="形状结合" d="M44.53,43.34a1.06,1.06,0,0,1,1.07,1h0a1.08,1.08,0,0,1-.93,1h-.11l-40.67.35a1,1,0,0,1-.14-2.09h.13ZM34.53.9A1.05,1.05,0,0,1,34.64,3H7.24a3.14,3.14,0,0,0-3.14,3V34a3.14,3.14,0,0,0,3,3.15H40.77a3.15,3.15,0,0,0,3.14-3V21.33A1.05,1.05,0,0,1,46,21.21V34a5.23,5.23,0,0,1-5,5.24H7.24a5.21,5.21,0,0,1-5.23-5V6.05A5.24,5.24,0,0,1,7,.82H34.53Zm9.7,5.71a.94.94,0,0,1,0,1.24v.09l-15,13.93a1.57,1.57,0,0,1-2,.14l-.11-.11L23.79,19a.49.49,0,0,0-.59,0h0L8.4,31.33a.51.51,0,0,1-.73,0h0a.56.56,0,0,1,0-.67h0l14.7-12.31a1.56,1.56,0,0,1,1.92,0l.13.09,3.27,2.86a.51.51,0,0,0,.62,0h0L43.05,7.63,35.16,9.28a.53.53,0,0,1-.6-.32h0a.52.52,0,0,1,.32-.59h0L43.3,6.43A1,1,0,0,1,44.23,6.61Z" transform="translate(-2.01 -0.82)"/></svg>