<?xml version="1.0" encoding="utf-8"?>
<!-- Generator: Adobe Illustrator 21.0.0, SVG Export Plug-In . SVG Version: 6.00 Build 0)  -->
<svg version="1.1" id="图层_1" xmlns="http://www.w3.org/2000/svg" xmlns:xlink="http://www.w3.org/1999/xlink" x="0px" y="0px"
	 viewBox="0 0 48 48" style="enable-background:new 0 0 48 48;" xml:space="preserve">
<style type="text/css">
	.st0{fill:#231816;}
</style>
<path d="M5,16c0.6,0,1-0.4,1-1V8c0-1.1,0.9-2,2-2h7c0.6,0,1-0.4,1-1s-0.4-1-1-1H8C5.8,4,4,5.8,4,8v7C4,15.6,4.4,16,5,16z M40,4h-7
	c-0.6,0-1,0.4-1,1s0.4,1,1,1h7c1.1,0,2,0.9,2,2v8c0,0.6,0.4,1,1,1s1-0.4,1-1V8C44,5.8,42.2,4,40,4z M10,15.5v17
	c0,0.8,0.7,1.5,1.5,1.5h25c0.8,0,1.5-0.7,1.5-1.5v-17c0-0.8-0.7-1.5-1.5-1.5h-25C10.7,14,10,14.7,10,15.5z M37,32.5
	c0,0.3-0.2,0.5-0.5,0.5h-25c-0.3,0-0.5-0.2-0.5-0.5v-1.8l6.7-5.3l4.5,4.4c0.1,0.1,0.2,0.1,0.4,0.1c0.1,0,0.3-0.1,0.4-0.1L33,19.6
	l4,4.1V32.5z M37,15.5v6.8l-3.6-3.7c-0.1-0.1-0.2-0.2-0.4-0.2c-0.1,0-0.3,0.1-0.4,0.1L22.5,28.8l-4.4-4.4c-0.2-0.2-0.5-0.2-0.7,0
	L11,29.5v-14c0-0.3,0.2-0.5,0.5-0.5h25C36.8,15,37,15.2,37,15.5z M15,42H8c-1.1,0-2-0.9-2-2v-7c0-0.6-0.4-1-1-1s-1,0.4-1,1v7
	c0,2.2,1.8,4,4,4h7c0.6,0,1-0.4,1-1S15.6,42,15,42z M20,22.5c1.4,0,2.5-1.1,2.5-2.5s-1.1-2.5-2.5-2.5s-2.5,1.1-2.5,2.5
	S18.6,22.5,20,22.5z M20,18.5c0.8,0,1.5,0.7,1.5,1.5s-0.7,1.5-1.5,1.5s-1.5-0.7-1.5-1.5S19.2,18.5,20,18.5z M43,32c-0.6,0-1,0.4-1,1
	v7c0,1.1-0.9,2-2,2h-7c-0.6,0-1,0.4-1,1s0.4,1,1,1h7c2.2,0,4-1.8,4-4v-7C44,32.4,43.6,32,43,32z"/>
</svg>
