<?xml version="1.0" encoding="utf-8"?>
<!-- Generator: Adobe Illustrator 21.0.0, SVG Export Plug-In . SVG Version: 6.00 Build 0)  -->
<svg version="1.1" id="图层_1" xmlns="http://www.w3.org/2000/svg" xmlns:xlink="http://www.w3.org/1999/xlink" x="0px" y="0px"
	 viewBox="0 0 48 48" style="enable-background:new 0 0 48 48;" xml:space="preserve">
<style type="text/css">
	.st0{fill:#060001;}
	.st1{fill:#040000;}
	.st2{fill:none;stroke:#000000;stroke-miterlimit:10;}
	.st3{fill:#221815;}
	.st4{fill:#080102;}
	.st5{fill:none;stroke:#000000;stroke-width:2;stroke-linecap:round;stroke-linejoin:round;stroke-miterlimit:10;}
	.st6{fill:#070001;}
</style>
<g>
	<path d="M42.5,2H5.5C3.6,2,2,3.6,2,5.5v25.8c0,1.7,1.1,3.6,2.6,4.5l16.8,9.6C22.1,45.8,23,46,24,46s1.9-0.2,2.6-0.6l16.8-9.6
		c1.5-0.8,2.6-2.8,2.6-4.5V5.5C46,3.6,44.4,2,42.5,2z M43.7,31.3c0,0.9-0.7,2-1.4,2.5l-16.8,9.6c-0.7,0.4-2.2,0.4-2.9,0L5.7,33.8
		c-0.7-0.4-1.4-1.6-1.4-2.5V5.5c0-0.6,0.5-1.2,1.2-1.2h37.1c0.6,0,1.2,0.5,1.2,1.2V31.3z"/>
	<path d="M38.3,19.8c-1.1,0-1.9,0.8-1.9,1.9c0,0.8,0.5,1.5,1.2,1.7c-0.8,2.8-3.4,4.8-6.4,4.8c-3,0-5.6-2-6.4-4.8
		c0.7-0.3,1.2-1,1.2-1.7c0-1-0.7-1.8-1.7-1.9c-0.9-3.3-3.9-5.7-7.4-5.7c-3.5,0-6.5,2.4-7.4,5.7c-0.9,0.1-1.7,0.9-1.7,1.9
		c0,1,0.9,1.9,1.9,1.9c1.1,0,1.9-0.8,1.9-1.9c0-0.8-0.5-1.5-1.2-1.7c0.8-2.8,3.4-4.8,6.4-4.8c3,0,5.6,2,6.4,4.8
		c-0.7,0.3-1.2,1-1.2,1.7c0,1,0.7,1.8,1.7,1.9c0.9,3.3,3.9,5.7,7.4,5.7c3.5,0,6.5-2.4,7.4-5.7c0.9-0.1,1.7-0.9,1.7-1.9
		C40.2,20.6,39.4,19.8,38.3,19.8z M9.7,22.6c-0.5,0-0.9-0.4-0.9-0.9c0-0.5,0.4-0.9,0.9-0.9c0.5,0,0.9,0.4,0.9,0.9
		C10.6,22.2,10.2,22.6,9.7,22.6z M23,21.7c0-0.5,0.4-0.9,0.9-0.9s0.9,0.4,0.9,0.9c0,0.5-0.4,0.9-0.9,0.9S23,22.2,23,21.7z
		 M38.3,22.6c-0.5,0-0.9-0.4-0.9-0.9c0-0.5,0.4-0.9,0.9-0.9c0.5,0,0.9,0.4,0.9,0.9C39.2,22.2,38.8,22.6,38.3,22.6z"/>
	<path d="M36.4,17.6c0.2,0.3,0.4,0.5,0.6,0.8l0.2,0.4l0.8-0.5L37.8,18c-0.2-0.3-0.4-0.6-0.6-0.9l-0.3-0.4l-0.8,0.6L36.4,17.6z"/>
	<path d="M27.1,16.4c0.5-0.3,1-0.6,1.5-0.9l0.4-0.2l-0.4-0.9l-0.4,0.2c-0.6,0.2-1.2,0.6-1.7,1L26.1,16l0.6,0.8L27.1,16.4z"/>
	<path d="M30.3,15.1c0.6-0.1,1.2-0.1,1.7,0l0.5,0.1l0.1-0.9l-0.5-0.1c-0.6-0.1-1.3-0.1-2,0l-0.5,0.1l0.1,0.9L30.3,15.1z"/>
	<path d="M35.2,16.4l0.4,0.3l0.6-0.8l-0.4-0.3c-0.5-0.4-1.1-0.7-1.7-1l-0.4-0.2l-0.4,0.9l0.4,0.2C34.2,15.8,34.7,16.1,35.2,16.4z"/>
	<path d="M25.3,18.5c0.2-0.3,0.3-0.6,0.6-0.8l0.3-0.4l-0.8-0.6l-0.3,0.4c-0.2,0.3-0.4,0.6-0.6,0.9l-0.2,0.4l0.8,0.5L25.3,18.5z"/>
	<path d="M11.6,25.7c-0.2-0.3-0.4-0.5-0.6-0.8l-0.2-0.4L10,24.9l0.2,0.4c0.2,0.3,0.4,0.6,0.6,0.9l0.3,0.4l0.8-0.6L11.6,25.7z"/>
	<path d="M20.9,26.9c-0.5,0.3-1,0.6-1.5,0.9L18.9,28l0.4,0.9l0.4-0.2c0.6-0.2,1.2-0.6,1.7-1l0.4-0.3l-0.6-0.8L20.9,26.9z"/>
	<path d="M17.7,28.2c-0.6,0.1-1.2,0.1-1.7,0l-0.5-0.1l-0.1,0.9l0.5,0.1c0.3,0,0.7,0.1,1,0.1c0.3,0,0.7,0,1-0.1l0.5-0.1l-0.1-0.9
		L17.7,28.2z"/>
	<path d="M12.8,26.9l-0.4-0.3l-0.6,0.8l0.4,0.3c0.5,0.4,1.1,0.7,1.7,1l0.4,0.2l0.4-0.9l-0.4-0.2C13.8,27.6,13.3,27.3,12.8,26.9z"/>
	<path d="M22.7,24.9c-0.2,0.3-0.3,0.6-0.6,0.8l-0.3,0.4l0.8,0.6l0.3-0.4c0.2-0.3,0.4-0.6,0.6-0.9l0.2-0.4l-0.8-0.5L22.7,24.9z"/>
</g>
</svg>
