<?xml version="1.0" encoding="utf-8"?>
<!-- Generator: Adobe Illustrator 21.0.0, SVG Export Plug-In . SVG Version: 6.00 Build 0)  -->
<svg version="1.1" id="图层_1" xmlns="http://www.w3.org/2000/svg" xmlns:xlink="http://www.w3.org/1999/xlink" x="0px" y="0px"
	 viewBox="0 0 48 48" style="enable-background:new 0 0 48 48;" xml:space="preserve">
<style type="text/css">
	.st0{fill:#060001;}
</style>
<path class="st0" d="M42,28.9c-2,0-3.6,1.1-3.9,3.1h-8.5c2.6-1,4.3-4.5,4.4-7.8c0,0,0,0.1,0,0V9.9c1.7-0.4,3-2,3-3.9
	c0-2.2-1.8-4-4-4s-4,1.8-4,4c0,1.9,1.3,3.4,3,3.9V18c-1.8-2.4-4.7-4.2-8-4.2c-0.8,0-1.6,0.1-2.3,0.1H9.9c-0.3-2-2-3.1-3.9-3.1
	c-2.2,0-4,1.9-4,4.1s1.8,3.9,4,3.9c1.8,0,3.2-0.8,3.8-2.8h7.9c-2.2,2-3.6,4.8-3.6,7.9c0,0.1,0,0.2,0,0.3c0,0,0,0.1,0,0.1v13.9
	c-1.7,0.4-3,2-3,3.9c0,2.2,1.8,4,4,4s4-1.8,4-4c0-1.9-1.3-3.4-3-3.9V30c1.7,2.3,4.3,3.6,7.3,3.8C23.5,34,23.7,34,24,34h14.2
	c0.5,2,2,2.9,3.8,2.9c2.2,0,4-1.8,4-4S44.2,28.9,42,28.9z M31,6c0-1.1,0.9-2,2-2s2,0.9,2,2s-0.9,2-2,2S31,7.1,31,6z M6,17
	c-1.1,0-2-0.9-2-2c0-1.1,0.9-2,2-2s2,0.9,2,2C8,16.1,7.1,17,6,17z M17,42c0,1.1-0.9,2-2,2s-2-0.9-2-2c0-0.5,0.2-1,0.6-1.4
	c0.2-0.2,0.5-0.4,0.9-0.5c0.2,0.1,0.3,0.2,0.6,0.2c0.2,0,0.4-0.1,0.6-0.2C16.4,40.3,17,41.1,17,42z M16,23.9c0-3.7,2.5-6.9,5.9-7.9
	H24c0.2,0,0.5,0,0.6-0.1c4.1,0.3,7.4,3.8,7.4,8c0,4.4-3.6,8-8,8S16,28.3,16,23.9z M42,35c-1.1,0-2-0.9-2-2c0-1.1,0.9-2,2-2
	s2,0.9,2,2C44,34.1,43.1,35,42,35z"/>
</svg>
