<?xml version="1.0" encoding="utf-8"?>
<!-- Generator: Adobe Illustrator 21.0.0, SVG Export Plug-In . SVG Version: 6.00 Build 0)  -->
<svg version="1.1" id="图层_1" xmlns="http://www.w3.org/2000/svg" xmlns:xlink="http://www.w3.org/1999/xlink" x="0px" y="0px"
	 viewBox="0 0 48 48" style="enable-background:new 0 0 48 48;" xml:space="preserve">
<style type="text/css">
	.st0{fill:#060001;}
	.st1{fill:#040000;}
	.st2{fill:none;stroke:#000000;stroke-miterlimit:10;}
	.st3{fill:#221815;}
	.st4{fill:#080102;}
	.st5{fill:none;stroke:#000000;stroke-width:2;stroke-linecap:round;stroke-linejoin:round;stroke-miterlimit:10;}
	.st6{fill:#070001;}
</style>
<g>
	<path class="st1" d="M30.1,25.8h-5.4v-5.6c0-0.3-0.3-0.6-0.6-0.6c-0.3,0-0.6,0.3-0.6,0.6v5.6h-5.1c-0.3,0-0.6,0.3-0.6,0.6
		c0,0.3,0.3,0.6,0.6,0.6h5.1v9.5c0,0.3,0.3,0.6,0.6,0.6c0.3,0,0.6-0.3,0.6-0.6v-9.5h5.4c0.3,0,0.6-0.3,0.6-0.6
		C30.7,26,30.4,25.8,30.1,25.8z"/>
	<path class="st1" d="M36.7,19.1c-4.7-0.9-9.2-3.4-11.3-5.3c-0.3-0.3-0.8-0.3-1.1-0.3c-0.2,0-0.8,0-1.2,0.4
		c-2.1,1.9-6.6,4.3-11.3,5.2c-0.6,0.1-1.1,1.4-1,2c0.1,0.5,0.1,1.1,0.2,1.8c0.3,3.5,0.8,8.9,4,13.2c1.8,2.5,4.6,4.8,8.6,7
		c0.2,0.1,0.4,0.1,0.7,0.1c0.4,0,0.5-0.1,0.6-0.1c4-2.2,6.8-4.5,8.6-7c2.9-4.1,3.5-9.6,3.9-13.3c0.1-0.6,0.1-1.2,0.2-1.7
		C37.7,20.6,37.4,19.2,36.7,19.1z M36.3,22.7c-0.4,3.5-0.9,8.9-3.6,12.7c-1.7,2.4-4.4,4.5-8.2,6.6c0,0-0.1,0-0.1,0
		c-0.1,0-0.2,0-0.2,0c-3.8-2.1-6.5-4.3-8.2-6.6c-3-4.1-3.5-9.3-3.8-12.7c-0.1-0.7-0.1-1.3-0.2-1.8c0-0.2,0.1-0.6,0.2-0.7
		c4.9-1,9.4-3.4,11.7-5.5c0,0,0.2-0.1,0.5-0.1c0.2,0,0.3,0,0.4,0c2.3,2,6.8,4.5,11.6,5.5c0.1,0.2,0.2,0.5,0.1,0.7
		C36.4,21.4,36.3,22,36.3,22.7z"/>
	<path class="st1" d="M42.5,2H5.5C3.6,2,2,3.6,2,5.5v25.8c0,1.7,1.1,3.6,2.6,4.5l16.8,9.6C22.1,45.8,23,46,24,46s1.9-0.2,2.6-0.6
		l16.8-9.6c1.5-0.8,2.6-2.8,2.6-4.5V5.5C46,3.6,44.4,2,42.5,2z M5.5,4.3h37.1c0.6,0,1.2,0.5,1.2,1.2v3c-0.3-0.1-0.6-0.1-0.9-0.1H5.8
		c-0.5,0-1,0.1-1.4,0.4V5.5C4.3,4.8,4.8,4.3,5.5,4.3z M42.3,33.8l-16.8,9.6c-0.7,0.4-2.2,0.4-2.9,0L5.7,33.8
		c-0.7-0.4-1.4-1.6-1.4-2.5V10.2c0.3-0.4,0.8-0.6,1.4-0.6h37.1c0.3,0,0.6,0.1,0.9,0.2v21.5C43.7,32.2,43,33.3,42.3,33.8z"/>
</g>
</svg>
