<?xml version="1.0" encoding="utf-8"?>
<!-- Generator: Adobe Illustrator 21.0.0, SVG Export Plug-In . SVG Version: 6.00 Build 0)  -->
<svg version="1.1" id="图层_1" xmlns="http://www.w3.org/2000/svg" xmlns:xlink="http://www.w3.org/1999/xlink" x="0px" y="0px"
	 viewBox="0 0 48 48" style="enable-background:new 0 0 48 48;" xml:space="preserve">
<style type="text/css">
	.st0{fill:#060001;}
	.st1{fill:#040000;}
	.st2{fill:none;stroke:#000000;stroke-miterlimit:10;}
	.st3{fill:#221815;}
	.st4{fill:#080102;}
	.st5{fill:none;stroke:#000000;stroke-width:2;stroke-linecap:round;stroke-linejoin:round;stroke-miterlimit:10;}
	.st6{fill:#070001;}
</style>
<g>
	<path d="M42.5,2H5.5C3.6,2,2,3.6,2,5.5v25.8c0,1.7,1.1,3.6,2.6,4.5l16.8,9.6C22.1,45.8,23,46,24,46s1.9-0.2,2.6-0.6l16.8-9.6
		c1.5-0.8,2.6-2.8,2.6-4.5V5.5C46,3.6,44.4,2,42.5,2z M43.7,31.3c0,0.9-0.7,2-1.4,2.5l-16.8,9.6c-0.7,0.4-2.2,0.4-2.9,0L5.7,33.8
		c-0.7-0.4-1.4-1.6-1.4-2.5V5.5c0-0.6,0.5-1.2,1.2-1.2h37.1c0.6,0,1.2,0.5,1.2,1.2V31.3z"/>
	<path d="M18.5,7.8h-6.9c-1.6,0-2.9,1.3-2.9,2.9v18.6c0,1.6,1.3,2.9,2.9,2.9h6.9c1.6,0,2.9-1.3,2.9-2.9V10.7
		C21.4,9.1,20.1,7.8,18.5,7.8z M20.2,29.2c0,1-0.8,1.7-1.7,1.7h-6.9c-1,0-1.7-0.8-1.7-1.7V10.7c0-1,0.8-1.7,1.7-1.7h6.9
		c1,0,1.7,0.8,1.7,1.7V29.2z"/>
	<path d="M35.9,7.8h-9.3c-1.6,0-2.9,1.3-2.9,2.9v4.6c0,1.6,1.3,2.9,2.9,2.9h9.3c1.6,0,2.9-1.3,2.9-2.9v-4.6
		C38.8,9.1,37.5,7.8,35.9,7.8z M37.6,15.3c0,1-0.8,1.7-1.7,1.7h-9.3c-1,0-1.7-0.8-1.7-1.7v-4.6c0-1,0.8-1.7,1.7-1.7h9.3
		c1,0,1.7,0.8,1.7,1.7V15.3z"/>
	<path d="M35.9,20.5h-9.3c-1.6,0-2.9,1.3-2.9,2.9v5.8c0,1.6,1.3,2.9,2.9,2.9h9.3c1.6,0,2.9-1.3,2.9-2.9v-5.8
		C38.8,21.8,37.5,20.5,35.9,20.5z M37.6,29.2c0,1-0.8,1.7-1.7,1.7h-9.3c-1,0-1.7-0.8-1.7-1.7v-5.8c0-1,0.8-1.7,1.7-1.7h9.3
		c1,0,1.7,0.8,1.7,1.7V29.2z"/>
</g>
</svg>
