<?xml version="1.0" encoding="utf-8"?>
<!-- Generator: Adobe Illustrator 21.0.0, SVG Export Plug-In . SVG Version: 6.00 Build 0)  -->
<svg version="1.1" id="图层_1" xmlns="http://www.w3.org/2000/svg" xmlns:xlink="http://www.w3.org/1999/xlink" x="0px" y="0px"
	 viewBox="0 0 48 48" style="enable-background:new 0 0 48 48;" xml:space="preserve">
<style type="text/css">
	.st0{fill:#060001;}
	.st1{fill:#040000;}
	.st2{fill:none;stroke:#000000;stroke-miterlimit:10;}
	.st3{fill:#221815;}
	.st4{fill:#080102;}
	.st5{fill:none;stroke:#000000;stroke-width:2;stroke-linecap:round;stroke-linejoin:round;stroke-miterlimit:10;}
	.st6{fill:#070001;}
</style>
<path d="M25.5,33h-3v1h3V33z M42.1,2H5.9C3.7,2,2,3.7,2,5.9v26.2c0,1.4,0.8,2.7,2,3.4l18.1,10c0.6,0.3,1.2,0.5,1.9,0.5
	s1.3-0.2,1.9-0.5l18.1-10c1.2-0.7,2-2,2-3.4V5.9C46,3.7,44.3,2,42.1,2z M44,32.1c0,0.7-0.4,1.3-1,1.7l-18.1,10
	c-0.6,0.3-1.2,0.3-1.8,0L5,33.8c-0.6-0.3-1-1-1-1.7V5.9C4,4.8,4.8,4,5.9,4h36.3c1,0,1.9,0.8,1.9,1.9V32.1z M31,8H17
	c-1.1,0-2,0.9-2,2v24c0,1.1,0.9,2,2,2h14c1.1,0,2-0.9,2-2V10C33,8.9,32.1,8,31,8z M32,34c0,0.6-0.4,1-1,1H17c-0.6,0-1-0.4-1-1v-2h16
	V34z M32,31H16V10c0-0.6,0.4-1,1-1h14c0.6,0,1,0.4,1,1V31z"/>
</svg>
