<?xml version="1.0" encoding="utf-8"?>
<!-- Generator: Adobe Illustrator 21.0.0, SVG Export Plug-In . SVG Version: 6.00 Build 0)  -->
<svg version="1.1" id="图层_1" xmlns="http://www.w3.org/2000/svg" xmlns:xlink="http://www.w3.org/1999/xlink" x="0px" y="0px"
	 viewBox="0 0 48 48" style="enable-background:new 0 0 48 48;" xml:space="preserve">
<style type="text/css">
	.st0{fill:#070001;}
</style>
<path class="st0" d="M40,23.4c-8.5-3.4-16.2,2.9-21.3,7.1c-1.9,1.6-3.6,3-4.6,3.2c-2.1,0.5-4.6-0.3-6.3-1.9c-2-2-2.9-5.2-2.4-9.1
	c1.6-2.7,4.4-4.7,7.7-5c0.4,0,0.7-0.3,0.8-0.7c1.4-4.2,5.3-7,9.7-7s8.2,2.8,9.7,7c0.2,0.5,0.7,0.8,1.3,0.6c0.5-0.2,0.8-0.7,0.6-1.3
	c-1.7-5-6.4-8.3-11.6-8.3c-5,0-9.5,3.1-11.4,7.8C6.4,16.7,2,21.9,2,28s5.3,11.9,11,11.9c2.9,0,5.7-1,9-3.4c0,0,1.5-1.3,2.3-1.9
	c1-0.8,4.1-3.2,6.9-2.8c1.2,0.2,2.2,0.8,3,2l0.8,1.1l0.8-1.2c0,0,1.5-2.2,3.8-2.4c1.5-0.1,3.1,0.6,4.6,2.2c0.4,0.4,1,0.4,1.4,0
	c0.2-0.2,0.3-0.5,0.3-0.7l0,0C46.1,32.7,46,25.8,40,23.4z M39.6,29.5c-2,0.2-3.5,1.4-4.4,2.2c-1-1-2.2-1.6-3.6-1.8
	c-3.6-0.5-7.2,2.3-8.4,3.2c-0.8,0.6-2.4,1.9-2.4,1.9c-3.7,2.6-6.1,3-7.7,3c-4.6,0-9-4.8-9-9.9c0-0.9,0.1-1.7,0.3-2.5
	c0.1,2.9,1,5.3,2.8,7c1.5,1.5,3.6,2.3,5.6,2.3c0.5,0,1-0.1,1.6-0.2c1.2-0.3,2.9-1.7,5-3.4c4.9-4,12.3-10.2,20.2-7
	c3.7,1.5,4.9,5.1,5.3,7.2C43.2,30,41.4,29.3,39.6,29.5z M40.1,34c-1.7,0-3,1.3-3,3s1.3,3,3,3s3-1.3,3-3S41.8,34,40.1,34z"/>
</svg>
