<?xml version="1.0" encoding="utf-8"?>
<!-- Generator: Adobe Illustrator 21.0.0, SVG Export Plug-In . SVG Version: 6.00 Build 0)  -->
<svg version="1.1" id="图层_1" xmlns="http://www.w3.org/2000/svg" xmlns:xlink="http://www.w3.org/1999/xlink" x="0px" y="0px"
	 viewBox="0 0 48 48" style="enable-background:new 0 0 48 48;" xml:space="preserve">
<style type="text/css">
	.st0{fill:#060001;}
	.st1{fill:#040000;}
	.st2{fill:none;stroke:#000000;stroke-miterlimit:10;}
	.st3{fill:#221815;}
	.st4{fill:#080102;}
	.st5{fill:none;stroke:#000000;stroke-width:2;stroke-linecap:round;stroke-linejoin:round;stroke-miterlimit:10;}
	.st6{fill:#070001;}
</style>
<g>
	<path class="st1" d="M28.3,15.9h-8.7c-0.3,0-0.6,0.3-0.6,0.6s0.3,0.6,0.6,0.6h8.7c0.3,0,0.6-0.3,0.6-0.6S28.7,15.9,28.3,15.9z"/>
	<path class="st1" d="M34.4,10.7H13.6c-1.6,0-2.9,1.3-2.9,2.9v13.9c0,1.6,1.3,2.9,2.9,2.9h20.8c1.6,0,2.9-1.3,2.9-2.9V13.6
		C37.3,12,36,10.7,34.4,10.7z M36.2,27.5c0,1-0.8,1.7-1.7,1.7H13.6c-1,0-1.7-0.8-1.7-1.7V13.6c0-1,0.8-1.7,1.7-1.7h20.8
		c1,0,1.7,0.8,1.7,1.7V27.5z"/>
	<path class="st1" d="M42.5,2H5.5C3.6,2,2,3.6,2,5.5v25.8c0,1.7,1.1,3.6,2.6,4.5l16.8,9.6C22.1,45.8,23,46,24,46s1.9-0.2,2.6-0.6
		l16.8-9.6c1.5-0.8,2.6-2.8,2.6-4.5V5.5C46,3.6,44.4,2,42.5,2z M43.7,31.3c0,0.9-0.7,2-1.4,2.5l-16.8,9.6c-0.7,0.4-2.2,0.4-2.9,0
		L5.7,33.8c-0.7-0.4-1.4-1.6-1.4-2.5V5.5c0-0.6,0.5-1.2,1.2-1.2h37.1c0.6,0,1.2,0.5,1.2,1.2V31.3z"/>
</g>
</svg>
