<?xml version="1.0" encoding="utf-8"?>
<!-- Generator: Adobe Illustrator 21.0.0, SVG Export Plug-In . SVG Version: 6.00 Build 0)  -->
<svg version="1.1" id="图层_1" xmlns="http://www.w3.org/2000/svg" xmlns:xlink="http://www.w3.org/1999/xlink" x="0px" y="0px"
	 viewBox="0 0 48 48" style="enable-background:new 0 0 48 48;" xml:space="preserve">
<style type="text/css">
	.st0{fill:#060001;}
	.st1{fill:#040000;}
	.st2{fill:none;stroke:#000000;stroke-miterlimit:10;}
	.st3{fill:#221815;}
	.st4{fill:#080102;}
	.st5{fill:none;stroke:#000000;stroke-width:2;stroke-linecap:round;stroke-linejoin:round;stroke-miterlimit:10;}
	.st6{fill:#070001;}
</style>
<g>
	<path class="st1" d="M27.5,9.3L24,13.5l-3.5-4.3L8.4,15.9l3.9,4.8L10,26.1l2.5,1.2l-0.1,3.3c0,0.3,0.1,0.5,0.4,0.6L23.6,37
		c0,0,0,0,0,0c0.1,0,0.1,0.1,0.2,0.1c0,0,0,0,0,0c0,0,0.1,0,0.1,0l0,0l0,0c0,0,0.1,0,0.1,0c0,0,0,0,0,0c0.1,0,0.1,0,0.2-0.1
		c0,0,0,0,0,0l10.8-5.8c0.2-0.1,0.4-0.4,0.4-0.6l-0.1-3.3l2.5-1.2l-2.3-5.4l3.9-4.8L27.5,9.3z M10.5,16.3l9.7-5.3l2.8,3.4l-9.7,5.3
		L10.5,16.3z M11.8,25.4l1.7-3.9l9.7,4.5l-1.7,4L11.8,25.4z M23.3,35.3l-9.5-5.1l0-2.2l8.3,4l1.1-2.8V35.3z M24,24.9l-9.2-4.5l9.2-5
		l9.2,5L24,24.9z M24.7,35.3v-6.1l1.1,2.8l8.3-4l0,2.2L24.7,35.3z M36.2,25.4L26.5,30l-1.7-4l9.7-4.5L36.2,25.4z M34.8,19.7
		l-9.7-5.3l2.8-3.4l9.7,5.3L34.8,19.7z"/>
	<path class="st1" d="M42.5,2H5.5C3.6,2,2,3.6,2,5.5v25.8c0,1.7,1.1,3.6,2.6,4.5l16.8,9.6C22.1,45.8,23,46,24,46s1.9-0.2,2.6-0.6
		l16.8-9.6c1.5-0.8,2.6-2.8,2.6-4.5V5.5C46,3.6,44.4,2,42.5,2z M43.7,31.3c0,0.9-0.7,2-1.4,2.5l-16.8,9.6c-0.7,0.4-2.2,0.4-2.9,0
		L5.7,33.8c-0.7-0.4-1.4-1.6-1.4-2.5V5.5c0-0.6,0.5-1.2,1.2-1.2h37.1c0.6,0,1.2,0.5,1.2,1.2V31.3z"/>
</g>
</svg>
