<?xml version="1.0" encoding="utf-8"?>
<!-- Generator: Adobe Illustrator 21.0.0, SVG Export Plug-In . SVG Version: 6.00 Build 0)  -->
<svg version="1.1" id="图层_1" xmlns="http://www.w3.org/2000/svg" xmlns:xlink="http://www.w3.org/1999/xlink" x="0px" y="0px"
	 viewBox="0 0 48 48" style="enable-background:new 0 0 48 48;" xml:space="preserve">
<style type="text/css">
	.st0{fill:#060001;}
	.st1{fill:#040000;}
	.st2{fill:none;stroke:#000000;stroke-miterlimit:10;}
	.st3{fill:#221815;}
	.st4{fill:#080102;}
	.st5{fill:none;stroke:#000000;stroke-width:2;stroke-linecap:round;stroke-linejoin:round;stroke-miterlimit:10;}
	.st6{fill:#070001;}
</style>
<g>
	<path class="st1" d="M34.2,11.6H15.3c-0.3-0.5-0.9-0.9-1.5-0.9c-1,0-1.7,0.8-1.7,1.7c0,1,0.8,1.7,1.7,1.7c0.9,0,1.6-0.6,1.7-1.5
		h18.7c1,0,2,1.3,2,2.3v0.3c0,1-0.9,2.3-2,2.3H19.4c-0.2-0.7-0.9-1.2-1.6-1.2c-0.8,0-1.4,0.5-1.6,1.2h-2.3c-1.7,0-3.1,1.3-3.1,2.9
		s1.4,2.9,3.1,2.9h14.8c0.2,0.7,0.9,1.2,1.6,1.2s1.4-0.5,1.6-1.2h2.3c1.1,0,2,1.1,2,2v0.6c0,0.9-0.9,2-2,2H15.4
		c-0.2-0.7-0.9-1.2-1.6-1.2c-1,0-1.7,0.8-1.7,1.7c0,1,0.8,1.7,1.7,1.7c0.8,0,1.4-0.5,1.6-1.2h18.7c1.8,0,3.1-1.7,3.1-3.2v-0.6
		c0-1.5-1.3-3.2-3.1-3.2h-2.3c-0.2-0.7-0.9-1.2-1.6-1.2s-1.4,0.5-1.6,1.2H13.8c-1.1,0-2-0.8-2-1.7c0-1,0.9-1.7,2-1.7h2.3
		c0.2,0.7,0.9,1.2,1.6,1.2c0.8,0,1.4-0.5,1.6-1.2h14.8c1.7,0,3.1-1.9,3.1-3.5v-0.3C37.3,13.5,35.9,11.6,34.2,11.6z"/>
	<path class="st1" d="M42.5,2H5.5C3.6,2,2,3.6,2,5.5v25.8c0,1.7,1.1,3.6,2.6,4.5l16.8,9.6C22.1,45.8,23,46,24,46
		c1,0,1.9-0.2,2.6-0.6l16.8-9.6c1.5-0.8,2.6-2.8,2.6-4.5V5.5C46,3.6,44.4,2,42.5,2z M43.7,31.3c0,0.9-0.7,2-1.4,2.5l-16.8,9.6
		c-0.7,0.4-2.2,0.4-2.9,0L5.7,33.8c-0.7-0.4-1.4-1.6-1.4-2.5V5.5c0-0.6,0.5-1.2,1.2-1.2h37.1c0.6,0,1.2,0.5,1.2,1.2V31.3z"/>
</g>
</svg>
