<?xml version="1.0" encoding="utf-8"?>
<!-- Generator: Adobe Illustrator 21.0.0, SVG Export Plug-In . SVG Version: 6.00 Build 0)  -->
<svg version="1.1" id="图层_1" xmlns="http://www.w3.org/2000/svg" xmlns:xlink="http://www.w3.org/1999/xlink" x="0px" y="0px"
	 viewBox="0 0 48 48" style="enable-background:new 0 0 48 48;" xml:space="preserve">
<style type="text/css">
	.st0{fill:#040000;}
</style>
<path class="st0" d="M40.5,18.5c-3,0-5.5,2.5-5.5,5.5c0,1.1,0.4,2.2,1,3.1l-7.2,5.7C28,32.3,27,32,26,32c-0.9,0-1.7,0.3-2.4,0.7
	l-2.5-3.5c0.6-0.5,0.9-1.3,0.9-2.1c0-1.7-1.3-3-3-3s-3,1.3-3,3s1.3,3,3,3c0.5,0,0.9-0.1,1.3-0.3l2.5,3.5C21.7,34.1,21,35.5,21,37
	c0,2.8,2.2,5,5,5s5-2.2,5-5c0-1-0.3-1.9-0.8-2.7l7.2-5.7c0.9,0.6,2,1,3.1,1c3,0,5.5-2.5,5.5-5.5C46,21,43.5,18.5,40.5,18.5z M19,29
	c-1.1,0-2-0.9-2-2s0.9-2,2-2s2,0.9,2,2S20.1,29,19,29z M26,40c-1.7,0-3-1.3-3-3s1.3-3,3-3s3,1.3,3,3S27.7,40,26,40z M40.5,27.5
	c-1.9,0-3.5-1.6-3.5-3.5s1.6-3.5,3.5-3.5S44,22.1,44,24S42.4,27.5,40.5,27.5z M19.2,15.2C20,15.7,21,16,22,16c0.9,0,1.7-0.3,2.4-0.7
	l2.5,3.5C26.3,19.4,26,20.2,26,21c0,1.7,1.3,3,3,3s3-1.3,3-3s-1.3-3-3-3c-0.5,0-0.9,0.1-1.3,0.3l-2.5-3.5c1.1-0.9,1.8-2.3,1.8-3.8
	c0-2.8-2.2-5-5-5s-5,2.2-5,5c0,1,0.3,1.9,0.8,2.7l-7.2,5.7c-0.9-0.6-2-1-3.1-1C4.5,18.5,2,21,2,24s2.5,5.5,5.5,5.5S13,27,13,24
	c0-1.1-0.4-2.2-1-3.1L19.2,15.2z M29,19c1.1,0,2,0.9,2,2s-0.9,2-2,2s-2-0.9-2-2S27.9,19,29,19z M22,8c1.7,0,3,1.3,3,3s-1.3,3-3,3
	s-3-1.3-3-3S20.3,8,22,8z M7.5,27.5C5.6,27.5,4,25.9,4,24s1.6-3.5,3.5-3.5S11,22.1,11,24S9.4,27.5,7.5,27.5z"/>
</svg>
