<svg id="图层_1" data-name="图层 1" xmlns="http://www.w3.org/2000/svg" viewBox="0 0 40.47 46.6"><defs><style>.cls-1{fill:#333;}</style></defs><title>dlv</title><path class="cls-1" d="M7.77,28.5h-3a1,1,0,1,0,0,2h3a.94.94,0,0,0,1-1A1,1,0,0,0,7.77,28.5Zm9.6-15.1a1.05,1.05,0,0,0,.9.5.9.9,0,0,0,.5-.1,1.11,1.11,0,0,0,.4-1.4l-3.4-5.8a1.11,1.11,0,0,0-1.4-.4A1.11,1.11,0,0,0,14,7.6ZM29.27,11a.94.94,0,0,0,1-1V2a1,1,0,0,0-2,0v8A1,1,0,0,0,29.27,11Zm14.8,11.9a16.94,16.94,0,1,0-15,24.7,17.15,17.15,0,0,0,14.2-7.5,1,1,0,0,0-1.7-1.1,15.19,15.19,0,0,1-12.5,6.6,14.8,14.8,0,1,1,13.3-21.7,1,1,0,0,0,1.4.4A1,1,0,0,0,44.07,22.9Zm-10,7.8a5,5,0,1,0-5,4.9A4.93,4.93,0,0,0,34.07,30.7Zm-8,0a3,3,0,1,1,3,2.9A2.93,2.93,0,0,1,26.07,30.7Zm-5.8,0a.5.5,0,0,0-1,0,9.8,9.8,0,1,0,9.8-9.7,9.47,9.47,0,0,0-4.9,1.3.51.51,0,1,0,.5.9,8.56,8.56,0,0,1,4.4-1.2,8.7,8.7,0,1,1-8.8,8.7Zm-8.9-11.6L7,16.6a1,1,0,0,0-1.4.4A.92.92,0,0,0,6,18.3l4.4,2.6a.9.9,0,0,0,.5.1,1.19,1.19,0,0,0,.9-.5A1.11,1.11,0,0,0,11.37,19.1Z" transform="translate(-3.77 -1)"/></svg>