<svg id="图层_1" data-name="图层 1" xmlns="http://www.w3.org/2000/svg" viewBox="0 0 44 44"><title>dns-console</title><path d="M24,1.13a22,22,0,1,0,22,22A21.94,21.94,0,0,0,24,1.13Zm-9.5,33h19c-2.1,5.4-5.7,8.79-9.5,8.79S16.6,39.53,14.5,34.13Zm-4.5-1a31.6,31.6,0,0,1-1.6-9.9,33.22,33.22,0,0,1,1.3-9.1H38.1a29.8,29.8,0,0,1,1.3,9.1,31.6,31.6,0,0,1-1.6,9.9Zm23.8-20H14.2c2.1-5.9,5.8-9.5,9.8-9.5S31.7,7.23,33.8,13.13Zm6.7,10.1a33.22,33.22,0,0,0-1.3-9.1h2.6a19.26,19.26,0,0,1,2.1,9,20,20,0,0,1-2.7,10H39A31.6,31.6,0,0,0,40.5,23.23Zm.8-10.1H34.8c-1.6-4.7-4.2-8.2-7.3-9.7A20,20,0,0,1,41.3,13.13ZM20.4,3.43c-3,1.5-5.7,5-7.3,9.7H6.7A20,20,0,0,1,20.4,3.43ZM6.1,14.13H8.7a33.22,33.22,0,0,0-1.3,9.1A34.78,34.78,0,0,0,9,33.13H6.7a20,20,0,0,1-2.7-10A20.86,20.86,0,0,1,6.1,14.13Zm1.2,20h6.1c1.5,4,3.7,7,6.2,8.5A19.69,19.69,0,0,1,7.3,34.13Zm21,8.5c2.6-1.6,4.8-4.5,6.2-8.5h6.1A19.17,19.17,0,0,1,28.3,42.63Zm-12.6-25a.47.47,0,0,1,.5-.5h1.9a1.48,1.48,0,0,1,2.8,0H31.8a.47.47,0,0,1,.5.5.48.48,0,0,1-.5.5H20.9a1.48,1.48,0,0,1-2.8,0H16.2C16,18.13,15.8,17.92,15.7,17.63Zm16.6,6a.48.48,0,0,1-.5.5H29.9a1.48,1.48,0,0,1-2.8,0H16.2a.48.48,0,0,1-.5-.5.47.47,0,0,1,.5-.5H27.1a1.48,1.48,0,0,1,2.8,0h1.9A.47.47,0,0,1,32.3,23.63Zm0,6a.48.48,0,0,1-.5.5H20.9a1.48,1.48,0,0,1-2.8,0H16.2a.48.48,0,0,1-.5-.5.47.47,0,0,1,.5-.5h1.9a1.48,1.48,0,0,1,2.8,0H31.8A.53.53,0,0,1,32.3,29.63Z" transform="translate(-2 -1.13)"/></svg>