<svg id="图层_1" data-name="图层 1" xmlns="http://www.w3.org/2000/svg" viewBox="0 0 40 43.92"><title>dris</title><path id="形状" d="M27.73,3.09l.27.14,12,7a8,8,0,0,1,4,6.93V31.09A8,8,0,0,1,40,38L28,45a8,8,0,0,1-8,0L8,38a8,8,0,0,1-4-6.93v-14a8,8,0,0,1,4-6.93L20,3.24A8,8,0,0,1,27.73,3.09ZM21,5,9,12a6,6,0,0,0-3,5.11v14a6,6,0,0,0,3,5.19l12.05,7a6,6,0,0,0,6,0l12-7a6,6,0,0,0,3-5.19v-14a6,6,0,0,0-3-5.19l-12-7-.23-.13A6,6,0,0,0,21,5ZM10.39,17.19v.07L20,34.47l.12.2a4.51,4.51,0,0,0,6,1.53,4.35,4.35,0,0,0,1.58-1.49l.15-.24,3.74-6.68a.51.51,0,0,1,.68-.2.48.48,0,0,1,.23.6v.08L28.8,35a5.5,5.5,0,0,1-7.48,2.11,5.55,5.55,0,0,1-2-1.91L19.2,35,9.56,17.75v-.08A.51.51,0,0,1,9.89,17a.48.48,0,0,1,.46.09ZM12.51,16l.05.08,9.69,17.31a2,2,0,0,0,2.72.77h0a2.07,2.07,0,0,0,.67-.61l.1-.16,5.76-10.28a.5.5,0,0,1,.68-.19.48.48,0,0,1,.23.6v.08l-5.77,10.3A3,3,0,0,1,22.57,35a3,3,0,0,1-1.06-1l-.1-.15L11.69,16.54a.5.5,0,0,1,.76-.62Zm2.12-1.21v.08L24,31.49l7.34-13.12.06-.07a.47.47,0,0,1,.63-.12.5.5,0,0,1,.22.6v.08L24.44,32.75l-.06.08-.06.06a.5.5,0,0,1-.69,0h0l-.06-.08L13.81,15.33v-.08A.54.54,0,0,1,14,14.7h.15a.48.48,0,0,1,.49.09ZM34.3,24.09a.5.5,0,0,1,.23.6v.08l-1,1.73a.5.5,0,0,1-.91-.4V26l1-1.74A.5.5,0,0,1,34.3,24.09Zm1.94-3.48a.48.48,0,0,1,.23.6v.08l-1,1.73a.52.52,0,0,1-.68.2.51.51,0,0,1-.23-.6v-.09l1-1.72a.49.49,0,0,1,.68-.17Zm-2.1-1.23a.5.5,0,0,1,.23.6v.08l-1,1.73a.49.49,0,0,1-.67.2.48.48,0,0,1-.24-.61V21.3l1-1.73a.49.49,0,0,1,.68-.17h0Zm4.1-2.29a.48.48,0,0,1,.23.6v.08l-1,1.83a.49.49,0,0,1-.66.19h0a.52.52,0,0,1-.23-.6v-.08l1-1.83A.51.51,0,0,1,38.24,17.09Zm-2.12-1.2a.5.5,0,0,1,.23.6v.08l-1,1.8a.5.5,0,0,1-.68.19.54.54,0,0,1-.23-.6v-.08l1-1.8a.49.49,0,0,1,.66-.23l0,0ZM34,14.67a.46.46,0,0,1,.23.59v.09l-1,1.74-.06.08-.06.06a.52.52,0,0,1-.57.05.5.5,0,0,1-.22-.59V16.6l1-1.76v-.08a.49.49,0,0,1,.7-.1Z" transform="translate(-4 -2.16)"/></svg>