<svg id="图层_1" data-name="图层 1" xmlns="http://www.w3.org/2000/svg" viewBox="0 0 40.02 44"><title>dsc</title><path id="形状结合" d="M24,2h.24a3.06,3.06,0,0,1,1.87.7,38.12,38.12,0,0,0,7.4,4.7c2.1,1,6.3,2.4,8.4,3.1A3.09,3.09,0,0,1,44,13.72c-.4,4.4-1.5,13.3-4.2,18.8-3.2,6.3-11.1,11.2-14.2,13.1A2.81,2.81,0,0,1,24,46a2.81,2.81,0,0,1-1.6-.4c-3.1-1.9-11-6.8-14.2-13.1C5.51,27,4.41,18.12,4,13.52a3,3,0,0,1,2.1-3.1c2.1-.7,6.3-2.1,8.4-3.1a38.2,38.2,0,0,0,7.41-4.7A3.77,3.77,0,0,1,24,2Zm.1,2h-.33c-.33,0-.57.11-.57.2-.2.2-.4.3-.6.5a41.19,41.19,0,0,1-7.1,4.4,80.13,80.13,0,0,1-7.9,3h0l-.8.3c-.2.1-.9.4-.8,1.1.2,2.8,1.2,12.5,4,18.1,2,3.9,6.5,8.1,13.5,12.2a.72.72,0,0,0,.5.2c.2,0,.4-.1.6-.1,6.91-4.2,11.4-8.3,13.4-12.3,2.8-5.6,3.8-15.3,4.1-18.1a1.14,1.14,0,0,0-.8-1.1h0l-.8-.3a69.71,69.71,0,0,1-7.9-3,34.2,34.2,0,0,1-7.1-4.4c-.2-.2-.4-.3-.6-.5A1.33,1.33,0,0,0,24.1,4ZM34.24,23.66A9.71,9.71,0,0,1,27.08,33c-.15,0-.29,0-.43.09a2.15,2.15,0,1,1-2.15-2.3h0a2.15,2.15,0,0,1,2.05,1.44.58.58,0,0,0,.29,0,8.68,8.68,0,0,0,6.44-8.45h1ZM24.5,31.73a1.19,1.19,0,1,0,1.24,1.19A1.22,1.22,0,0,0,24.5,31.73ZM16.2,17.17a2.14,2.14,0,0,1,2.14,2.12v0a2.17,2.17,0,0,1-2.19,2.15H16a1.23,1.23,0,0,1-.1.43,7.47,7.47,0,0,0-.19,1.76,8.56,8.56,0,0,0,4.92,7.83h0l-.43.86a9.61,9.61,0,0,1-5.4-8.64,9,9,0,0,1,.19-2,2.28,2.28,0,0,1,.1-.57,2.16,2.16,0,0,1-.71-3,2.19,2.19,0,0,1,1.86-1Zm8.3,3.1a3.39,3.39,0,1,1-3.44,3.39A3.43,3.43,0,0,1,24.5,20.27Zm0,.92a2.5,2.5,0,0,0,0,5h0a2.5,2.5,0,0,0,0-5Zm0-7.17a9.88,9.88,0,0,1,7.4,3.34,3.08,3.08,0,0,1,.9-.19,2.15,2.15,0,1,1-2.19,2.15,2.1,2.1,0,0,1,.52-1.39,9,9,0,0,0-6.63-3,8.71,8.71,0,0,0-5.25,1.72h0l-.57-.76A9.94,9.94,0,0,1,24.5,14Zm-8.3,4.1a1.24,1.24,0,0,0-1.2,1.2,1.31,1.31,0,0,0,.67,1.1h0l.29.09a.58.58,0,0,0,.29,0,1.27,1.27,0,0,0,1.24-1.24,1.24,1.24,0,0,0-1.26-1.2Zm16.6,0a1.88,1.88,0,0,0-.47.1h0l-.43.28a1.28,1.28,0,0,0-.34.82,1.25,1.25,0,1,0,1.3-1.2Z" transform="translate(-3.99 -2.02)"/></svg>