<svg id="图层_1" data-name="图层 1" xmlns="http://www.w3.org/2000/svg" viewBox="0 0 40 44.05"><defs><style>.cls-1{fill:#060001;}</style></defs><title>ei-industriai</title><path id="服务图标-工业智能体ei_industriai" data-name="服务图标-工业智能体ei industriai" class="cls-1" d="M13,33.5V32a1.54,1.54,0,0,1,1.5-1.5H15v-1h-.5A1.54,1.54,0,0,1,13,28V27a1.54,1.54,0,0,1,1.5-1.5h5A1.54,1.54,0,0,1,21,27v1a1.54,1.54,0,0,1-1.5,1.5H19v1h.5A1.54,1.54,0,0,1,21,32v1.5h4.6a5,5,0,0,1,2.1-3.2l4.4-7.9c-1.7.1-4,.2-6.8.3l-.5.8a1.56,1.56,0,0,1-1.3.8h-.1l-2-.5a.51.51,0,1,1,.2-1l1.9.5c.2,0,.3-.1.4-.3l.3-.6a1.17,1.17,0,0,1-.6-1,1.69,1.69,0,0,1,.3-1l-.5-.5c-.1-.1-.3-.2-.4-.1l-1.6,1a.51.51,0,1,1-.5-.9l1.7-1,.1-.1a1.67,1.67,0,0,1,1.5.4l.7.7,8.8-2.4a2.92,2.92,0,0,1,.9-.2,2.48,2.48,0,0,1,2.5,2.5,2.53,2.53,0,0,1-1.5,2.3l-1.6,9a4.57,4.57,0,0,1,1.2,2.4.55.55,0,0,1,.3.5.47.47,0,0,1-.5.5H13a.5.5,0,0,1,0-1Zm1,0h6V32a.47.47,0,0,0-.5-.5H18v-3h1.5A.47.47,0,0,0,20,28V27a.47.47,0,0,0-.5-.5h-5a.47.47,0,0,0-.5.5v1a.47.47,0,0,0,.5.5H16v3H14.5a.47.47,0,0,0-.5.5ZM25,21c-.1,0-.1.1-.2.1a.37.37,0,0,0-.1.3c0,.1.1.3.3.2,3.1-.1,5.6-.2,7.4-.3A1.84,1.84,0,0,1,32,20a2.92,2.92,0,0,1,.2-.9Zm16.6-9.5a5.19,5.19,0,0,1,2.4,4v18a5.19,5.19,0,0,1-2.4,4L26.3,46a5.52,5.52,0,0,1-4.7,0L6.4,37.5a4.89,4.89,0,0,1-2.4-4v-18a5.19,5.19,0,0,1,2.4-4L21.7,3a5.52,5.52,0,0,1,4.7,0Zm.3,22v-18a3.16,3.16,0,0,0-1.3-2.2L25.3,4.8a3,3,0,0,0-2.6,0L7.4,13.3a3.16,3.16,0,0,0-1.3,2.2v18a3.16,3.16,0,0,0,1.3,2.2l15.3,8.5a3,3,0,0,0,2.6,0l15.3-8.5A3.16,3.16,0,0,0,41.9,33.5ZM34.1,18.6H34A1.5,1.5,0,0,0,33,20a1.5,1.5,0,1,0,1.5-1.5A.6.6,0,0,0,34.1,18.6Zm-.6,3.7h-.3l-4,7.3a4.87,4.87,0,0,1,1.2-.1,5,5,0,0,1,2.7.8l1.3-7.8A2.92,2.92,0,0,1,33.5,22.3Zm-3.1,8.2a4,4,0,0,0-3.8,3h7.5A3.78,3.78,0,0,0,30.4,30.5ZM13,36.5a.5.5,0,0,1,0-1H35a.5.5,0,0,1,0,1H13ZM25.4,15.9a.49.49,0,0,1-.7.7,1,1,0,0,0-1.4,0,.49.49,0,0,1-.7-.7A1.93,1.93,0,0,1,25.4,15.9Zm2.8-1.5a.49.49,0,1,1-.7.7,5,5,0,0,0-7.1,0,.49.49,0,1,1-.7-.7A6.1,6.1,0,0,1,28.2,14.4Zm2.1-1.7a.49.49,0,1,1-.7.7,8,8,0,0,0-11.3,0,.49.49,0,0,1-.7-.7A9,9,0,0,1,30.3,12.7Z" transform="translate(-4 -2.47)"/></svg>