<?xml version="1.0" encoding="utf-8"?>
<!-- Generator: Adobe Illustrator 21.0.0, SVG Export Plug-In . SVG Version: 6.00 Build 0)  -->
<svg version="1.1" id="图层_1" xmlns="http://www.w3.org/2000/svg" xmlns:xlink="http://www.w3.org/1999/xlink" x="0px" y="0px"
	 viewBox="0 0 48 48" style="enable-background:new 0 0 48 48;" xml:space="preserve">
<style type="text/css">
	.st0{fill:#333333;}
</style>
<g>
	<path class="st0" d="M6.1,32c0.1,0,0.2,0,0.3,0c0.4-0.1,0.7-0.5,0.7-1v-7h7.8l4,4h3.3c0.2,0.6,0.8,1,1.4,1c0.8,0,1.5-0.7,1.5-1.5
		c0-0.8-0.7-1.5-1.5-1.5c-0.6,0-1.2,0.4-1.4,1h-2.9l-4-4H7.1V11c0-1.7,1.3-3,3-3h28.1c1.7,0,3,1.3,3,3v1.1c0,0.6,0.4,1,1,1
		s1-0.4,1-1V11c0-2.8-2.2-5-5-5H10.1c-2.8,0-5,2.2-5,5v16.4l-1.2-2.1c-0.3-0.5-0.9-0.6-1.4-0.3c-0.5,0.3-0.6,0.9-0.3,1.4l3.1,5.2
		C5.4,31.8,5.7,32,6.1,32z"/>
	<path class="st0" d="M45.9,22.3L43,16.6c-0.2-0.4-0.7-0.6-1.1-0.5c-0.5,0.1-0.8,0.5-0.8,1v6h-5.9l-4-4H28c-0.2-0.6-0.8-1-1.4-1
		c-0.8,0-1.5,0.7-1.5,1.5c0,0.8,0.7,1.5,1.5,1.5c0.6,0,1.2-0.4,1.4-1h2.9l4,4h6.3v13.1c0,1.7-1.3,3-3,3H32v-4.1h0c0,0,0-0.1,0-0.1
		c0-0.6-0.4-1-1-1s-1,0.4-1,1c0,0,0,0.1,0,0.1h0v4.1h-5v-4.1h0c0,0,0-0.1,0-0.1c0-0.6-0.4-1-1-1s-1,0.4-1,1c0,0,0,0.1,0,0.1h0v4.1
		h-5v-4.1h0c0,0,0-0.1,0-0.1c0-0.6-0.4-1-1-1s-1,0.4-1,1c0,0,0,0.1,0,0.1h0v4.1h-6c-1.7,0-3-1.3-3-3v-1.1c0-0.6-0.4-1-1-1
		s-1,0.4-1,1v1.1c0,2.8,2.2,5,5,5h28.1c2.8,0,5-2.2,5-5V21.2l1,2c0.2,0.5,0.8,0.7,1.3,0.4C46,23.4,46.2,22.8,45.9,22.3z"/>
</g>
</svg>
