<?xml version="1.0" encoding="utf-8"?>
<!-- Generator: Adobe Illustrator 21.0.0, SVG Export Plug-In . SVG Version: 6.00 Build 0)  -->
<svg version="1.1" id="图层_1" xmlns="http://www.w3.org/2000/svg" xmlns:xlink="http://www.w3.org/1999/xlink" x="0px" y="0px"
	 viewBox="0 0 48 48" style="enable-background:new 0 0 48 48;" xml:space="preserve">
<style type="text/css">
	.st0{fill:#040000;}
	.st1{fill:#060001;}
	.st2{fill:#080103;}
</style>
<path d="M24.2,21.4c0.6,0,1-0.4,1-1s-0.4-1-1-1s-1,0.4-1,1S23.6,21.4,24.2,21.4z M24.2,16.9c-4.4,0-8,3.6-8,8s3.6,8,8,8s8-3.6,8-8
	S28.6,16.9,24.2,16.9z M24.2,31.9c-3.9,0-7-3.1-7-7s3.1-7,7-7s7,3.1,7,7S28,31.9,24.2,31.9z M35.3,14.1C33.7,9.4,29.3,6,24,6
	c-5.3,0-9.7,3.4-11.3,8.1C6.7,14.7,2,19.8,2,26c0,6.6,5.4,12,12,12h20c6.6,0,12-5.4,12-12C46,19.8,41.3,14.7,35.3,14.1z M34,36H14
	C8.5,36,4,31.5,4,26c0-5.1,3.8-9.4,8.9-9.9c0.8-0.1,1.4-0.6,1.7-1.3C16,10.7,19.7,8,24,8s8,2.7,9.4,6.7c0.3,0.7,0.9,1.2,1.7,1.3
	c5.1,0.6,8.9,4.8,8.9,9.9C44,31.5,39.5,36,34,36z M24.2,22.4c-1.9,0-3.5,1.6-3.5,3.5s1.6,3.5,3.5,3.5s3.5-1.6,3.5-3.5
	S26.1,22.4,24.2,22.4z M24.2,28.4c-1.4,0-2.5-1.1-2.5-2.5s1.1-2.5,2.5-2.5s2.5,1.1,2.5,2.5S25.5,28.4,24.2,28.4z"/>
</svg>
