<?xml version="1.0" encoding="utf-8"?>
<!-- Generator: Adobe Illustrator 21.0.0, SVG Export Plug-In . SVG Version: 6.00 Build 0)  -->
<svg version="1.1" id="图层_1" xmlns="http://www.w3.org/2000/svg" xmlns:xlink="http://www.w3.org/1999/xlink" x="0px" y="0px"
	 viewBox="0 0 48 48" style="enable-background:new 0 0 48 48;" xml:space="preserve">
<path d="M15,18.5v3c0,0.6,0.4,1,1,1s1-0.4,1-1v-3c0-0.6-0.4-1-1-1S15,17.9,15,18.5z M25.5,29c0.3,0,0.5-0.2,0.5-0.5S25.8,28,25.5,28
	c-1.4,0-2.5-1.1-2.5-2.5v-2c0-0.3-0.2-0.5-0.5-0.5S22,23.2,22,23.5v2C22,27.4,23.6,29,25.5,29z M32,22.5c0.6,0,1-0.4,1-1v-3
	c0-0.6-0.4-1-1-1s-1,0.4-1,1v3C31,22.1,31.4,22.5,32,22.5z M5,16c0.6,0,1-0.4,1-1V8c0-1.1,0.9-2,2-2h7c0.6,0,1-0.4,1-1s-0.4-1-1-1H8
	C5.8,4,4,5.8,4,8v7C4,15.6,4.4,16,5,16z M40,4h-7c-0.6,0-1,0.4-1,1s0.4,1,1,1h7c1.1,0,2,0.9,2,2v8c0,0.6,0.4,1,1,1s1-0.4,1-1V8
	C44,5.8,42.2,4,40,4z M15,42H8c-1.1,0-2-0.9-2-2v-7c0-0.6-0.4-1-1-1s-1,0.4-1,1v7c0,2.2,1.8,4,4,4h7c0.6,0,1-0.4,1-1S15.6,42,15,42z
	 M43,32c-0.6,0-1,0.4-1,1v7c0,1.1-0.9,2-2,2h-7c-0.6,0-1,0.4-1,1s0.4,1,1,1h7c2.2,0,4-1.8,4-4v-7C44,32.4,43.6,32,43,32z M33.3,29.7
	c-0.2-0.1-0.5-0.1-0.7,0.1c-1.9,2.9-5.1,4.6-8.6,4.6c-3.5,0-6.7-1.7-8.6-4.6c-0.2-0.2-0.5-0.3-0.7-0.1c-0.2,0.2-0.3,0.5-0.1,0.7
	c2.1,3.1,5.6,5,9.4,5c3.8,0,7.4-1.9,9.4-5C33.6,30.1,33.5,29.8,33.3,29.7z"/>
</svg>
