<svg id="图层_1" data-name="图层 1" xmlns="http://www.w3.org/2000/svg" viewBox="0 0 44.49 40.4"><defs><style>.cls-1{fill:#333;}</style></defs><title>flow logs</title><path class="cls-1" d="M11.86,18.34a.47.47,0,0,1-.5.5h-1a.5.5,0,0,1,0-1h1A.47.47,0,0,1,11.86,18.34Zm-.5,4.5h-1a.5.5,0,0,0,0,1h1a.5.5,0,1,0,0-1Zm11.2-5h-8.8v1H23l4-4h5.9a1.5,1.5,0,0,0,1.4,1,1.5,1.5,0,0,0,0-3,1.41,1.41,0,0,0-1.4,1h-6.3Zm11.8,4a1.41,1.41,0,0,0-1.4,1H13.76v1h19.1a1.5,1.5,0,0,0,1.4,1,1.54,1.54,0,0,0,1.5-1.5A1.39,1.39,0,0,0,34.36,21.84Zm-23,6h-1a.5.5,0,0,0,0,1h1a.5.5,0,1,0,0-1Zm2.4,1h14v-1h-14Zm-3-18.9a.94.94,0,0,0,1-1V4.84a.94.94,0,0,0-1-1,.94.94,0,0,0-1,1v4.1A1,1,0,0,0,10.76,9.94Zm24,0a.94.94,0,0,0,1-1V4.84a1,1,0,1,0-2,0v4.1A1,1,0,0,0,34.76,9.94Zm11.2,34a1.6,1.6,0,0,1-.8.3,1.14,1.14,0,0,1-.8-.3l-3.6-3.6a7.38,7.38,0,0,1-4.5,1.5,7.5,7.5,0,1,1,7.5-7.5,7.18,7.18,0,0,1-1.5,4.5l3.6,3.6A1,1,0,0,1,46,43.94Zm-4.4-9.5a5.3,5.3,0,1,0-5.3,5.3,5.43,5.43,0,0,0,3.4-1.2A5.16,5.16,0,0,0,41.56,34.44Zm-8.8-27.6h-20v2h20Zm-29,27.1V10.84a2,2,0,0,1,2-2h3v-2h-3a4,4,0,0,0-4,3.9v23.2a3.93,3.93,0,0,0,4,3.9h22v-1.9h-22A2,2,0,0,1,3.76,33.94Zm38-23.1v17.1h2V10.74a4,4,0,0,0-4-3.9h-3v2h3A2,2,0,0,1,41.76,10.84Z" transform="translate(-1.76 -3.84)"/></svg>