<svg id="图层_1" data-name="图层 1" xmlns="http://www.w3.org/2000/svg" viewBox="0 0 40.04 44.09"><defs><style>.cls-1{fill:#040000;}</style></defs><title>for Redis</title><path class="cls-1" d="M44,15v2H41.9V15a2.89,2.89,0,0,0-1.16-2.12l-.14-.08L25.3,4.28a2.84,2.84,0,0,0-2.6,0L7.4,12.78A2.84,2.84,0,0,0,6.1,15v2H4V15a4.91,4.91,0,0,1,2.21-3.86L6.4,11,21.6,2.48a5.52,5.52,0,0,1,4.7,0L41.6,11A4.94,4.94,0,0,1,44,15ZM41.89,27H44v6a5,5,0,0,1-2.4,4l-15.3,8.5a4.71,4.71,0,0,1-4.6,0L6.4,37A5,5,0,0,1,4,33V27H6.11a3.79,3.79,0,0,0,1.45,2.41l.14.1L22.4,38a3.39,3.39,0,0,0,3.1,0l14.8-8.5A3.42,3.42,0,0,0,41.89,27Zm0,2.51a3,3,0,0,1-1,.89l-14.8,8.5a4.7,4.7,0,0,1-4.2,0L7.1,30.37a3,3,0,0,1-1-.89V33a2.82,2.82,0,0,0,1.3,2.19l15.3,8.5a2.9,2.9,0,0,0,2.6,0l15.3-8.5A3,3,0,0,0,41.9,33ZM6.24,19.11a3.27,3.27,0,0,1,1.67-.42A4,4,0,0,1,9,18.84a5.39,5.39,0,0,1,1,.41l.25-.56a5.08,5.08,0,0,0-1.12-.43,4.64,4.64,0,0,0-1.28-.17,4.09,4.09,0,0,0-2,.49A3.36,3.36,0,0,0,4.5,20,4.68,4.68,0,0,0,4,22.24a4.92,4.92,0,0,0,.42,2.07,3.3,3.3,0,0,0,1.26,1.41,3.89,3.89,0,0,0,2,.5,6,6,0,0,0,1.41-.17,6.41,6.41,0,0,0,1.35-.49v-3H7.62v.6H9.78v2.06a5.76,5.76,0,0,1-1,.3,4.79,4.79,0,0,1-1,.11A3.19,3.19,0,0,1,6,25.19,2.7,2.7,0,0,1,5,24a4.22,4.22,0,0,1-.3-1.72,4.06,4.06,0,0,1,.41-1.91A2.81,2.81,0,0,1,6.24,19.11Zm8.87,3.66v-.23a2.08,2.08,0,0,0-.39-1.43,1.41,1.41,0,0,0-1.1-.41,3.13,3.13,0,0,0-.91.13,3.21,3.21,0,0,0-.8.3l-.13-.53a3,3,0,0,1,.82-.3,4.17,4.17,0,0,1,1.11-.14,2.44,2.44,0,0,1,1.1.23,1.59,1.59,0,0,1,.7.77,3.51,3.51,0,0,1,.25,1.47v3.48h-.58a1.34,1.34,0,0,0,0-.4,1.29,1.29,0,0,1,0-.44,3,3,0,0,1-.9.68,2.74,2.74,0,0,1-1.2.27,2,2,0,0,1-.9-.19,1.4,1.4,0,0,1-.62-.56,1.83,1.83,0,0,1-.22-.91,1.74,1.74,0,0,1,.61-1.36,3.14,3.14,0,0,1,2-.51A9.83,9.83,0,0,1,15.11,22.77Zm0,.47A8.27,8.27,0,0,0,14,23.17a2.42,2.42,0,0,0-1.57.37,1.26,1.26,0,0,0-.44,1,1.12,1.12,0,0,0,.31.87,1.33,1.33,0,0,0,.86.28,2.89,2.89,0,0,0,.77-.13,3.52,3.52,0,0,0,.7-.35,2.14,2.14,0,0,0,.49-.46Zm1.92-3V24a2.7,2.7,0,0,0,.43,1.68,1.57,1.57,0,0,0,1.33.55A2.4,2.4,0,0,0,19.94,26a5.13,5.13,0,0,0,1-.73,3.71,3.71,0,0,0,.11.89h.56c0-.57-.05-1.06-.05-1.47V20.27H20.9v4.35a3.89,3.89,0,0,1-.92.74,2.1,2.1,0,0,1-1.06.3,1.12,1.12,0,0,1-.92-.41,2,2,0,0,1-.33-1.3v-3.7Zm7,5.4a3.48,3.48,0,0,1-.79-.09,2.85,2.85,0,0,1-.69-.25l-.18.54a3.07,3.07,0,0,0,.74.25,3.8,3.8,0,0,0,.89.1A2.84,2.84,0,0,0,25.15,26a1.75,1.75,0,0,0,.72-.6,1.72,1.72,0,0,0,.24-.91,1.36,1.36,0,0,0-.21-.79,1.72,1.72,0,0,0-.53-.51c-.29-.16-.59-.3-.89-.43s-.63-.27-.81-.36a1.7,1.7,0,0,1-.42-.33.72.72,0,0,1-.16-.47A.79.79,0,0,1,23.4,21a1.48,1.48,0,0,1,.91-.25,3.19,3.19,0,0,1,1.45.37l.15-.51a3.83,3.83,0,0,0-1.63-.39,2.46,2.46,0,0,0-1,.18,1.26,1.26,0,0,0-.62.52,1.41,1.41,0,0,0-.21.78,1.34,1.34,0,0,0,.17.7,1.74,1.74,0,0,0,.51.5,5.56,5.56,0,0,0,.88.44c.37.15.66.28.85.38a1.37,1.37,0,0,1,.46.37.9.9,0,0,1,.16.53,1,1,0,0,1-.38.81,1.71,1.71,0,0,1-1.1.29Zm4,0a3.48,3.48,0,0,1-.79-.09,2.85,2.85,0,0,1-.69-.25l-.18.54a3.07,3.07,0,0,0,.74.25,3.71,3.71,0,0,0,.88.1A2.88,2.88,0,0,0,29.15,26a1.75,1.75,0,0,0,.72-.6,1.72,1.72,0,0,0,.24-.91,1.36,1.36,0,0,0-.21-.79,1.72,1.72,0,0,0-.53-.51c-.29-.16-.59-.3-.89-.43s-.63-.27-.81-.36a1.7,1.7,0,0,1-.42-.33.72.72,0,0,1-.16-.47A.79.79,0,0,1,27.4,21a1.48,1.48,0,0,1,.91-.25,3.19,3.19,0,0,1,1.45.37l.15-.51a3.83,3.83,0,0,0-1.63-.39,2.46,2.46,0,0,0-1,.18,1.26,1.26,0,0,0-.62.52,1.41,1.41,0,0,0-.21.78,1.34,1.34,0,0,0,.17.7,1.74,1.74,0,0,0,.51.5,5.56,5.56,0,0,0,.88.44c.37.15.66.28.85.38a1.37,1.37,0,0,1,.46.37.9.9,0,0,1,.16.53,1,1,0,0,1-.38.81,1.71,1.71,0,0,1-1.1.29Zm7.65-.1a4.43,4.43,0,0,1-2.23.54H31V18.2h2.59a5.15,5.15,0,0,1,2.19.42,3,3,0,0,1,1.39,1.25,4,4,0,0,1,.48,2,4.62,4.62,0,0,1-.5,2.18,3.67,3.67,0,0,1-1.48,1.52Zm.22-2a3.85,3.85,0,0,0,.32-1.6,2.67,2.67,0,0,0-.7-2,2.84,2.84,0,0,0-2.07-.67H32.32V25h1a2.88,2.88,0,0,0,1.57-.4,2.54,2.54,0,0,0,1-1.08Zm7.24-2.35a2.05,2.05,0,0,1-1,.66,2.4,2.4,0,0,1,1,.35,1.87,1.87,0,0,1,.66.68,1.92,1.92,0,0,1,.24,1,2.12,2.12,0,0,1-.33,1.17,2.26,2.26,0,0,1-1,.78,3.76,3.76,0,0,1-1.52.28H38.57V18.2H41a3,3,0,0,1,1.88.49A1.59,1.59,0,0,1,43.5,20a1.81,1.81,0,0,1-.37,1.18Zm-2.32,1.26H39.9V25.1h1a2,2,0,0,0,1.26-.34,1.33,1.33,0,0,0,.14-1.86.93.93,0,0,0-.14-.14A2.1,2.1,0,0,0,40.82,22.45Zm1.35-2.27a.79.79,0,0,0-.35-.72,1.68,1.68,0,0,0-1-.25h-.9v2.23h.85a1.75,1.75,0,0,0,.75-.17,1.38,1.38,0,0,0,.5-.46A1.27,1.27,0,0,0,42.17,20.18Z" transform="translate(-4 -1.95)"/></svg>