<?xml version="1.0" encoding="utf-8"?>
<!-- Generator: Adobe Illustrator 21.0.0, SVG Export Plug-In . SVG Version: 6.00 Build 0)  -->
<svg version="1.1" id="图层_1" xmlns="http://www.w3.org/2000/svg" xmlns:xlink="http://www.w3.org/1999/xlink" x="0px" y="0px"
	 viewBox="0 0 48 48" style="enable-background:new 0 0 48 48;" xml:space="preserve">
<style type="text/css">
	.st0{fill:#333333;}
</style>
<g>
	<path class="st0" d="M12.6,19h-1c-0.3,0-0.5,0.2-0.5,0.5s0.2,0.5,0.5,0.5h1c0.3,0,0.5-0.2,0.5-0.5S12.9,19,12.6,19z"/>
	<path class="st0" d="M12.6,24h-1c-0.3,0-0.5,0.2-0.5,0.5c0,0.3,0.2,0.5,0.5,0.5h1c0.3,0,0.5-0.2,0.5-0.5C13.1,24.2,12.9,24,12.6,24
		z"/>
	<path class="st0" d="M27.8,15l-4,4H15v1h9.2l4-4h5.9c0.2,0.6,0.8,1,1.4,1c0.8,0,1.5-0.7,1.5-1.5c0-0.8-0.7-1.5-1.5-1.5
		c-0.7,0-1.2,0.4-1.4,1H27.8z"/>
	<path class="st0" d="M35.6,23c-0.7,0-1.2,0.4-1.4,1H15v1h19.1c0.2,0.6,0.8,1,1.4,1c0.8,0,1.5-0.7,1.5-1.5
		C37.1,23.7,36.4,23,35.6,23z"/>
	<path class="st0" d="M12.6,29h-1c-0.3,0-0.5,0.2-0.5,0.5c0,0.3,0.2,0.5,0.5,0.5h1c0.3,0,0.5-0.2,0.5-0.5C13.1,29.2,12.9,29,12.6,29
		z"/>
	<rect x="15" y="29" class="st0" width="14" height="1"/>
	<path class="st0" d="M12,11.1c0.6,0,1-0.4,1-1V10V6.1V6c0-0.6-0.4-1-1-1s-1,0.4-1,1v0.1V10v0.1C11,10.6,11.4,11.1,12,11.1z"/>
	<path class="st0" d="M36,11.1c0.6,0,1-0.4,1-1V10V6.1V6c0-0.6-0.4-1-1-1s-1,0.4-1,1v0.1V10v0.1C35,10.6,35.4,11.1,36,11.1z"/>
	<path class="st0" d="M47.1,43.6L43.5,40c1-1.3,1.5-2.8,1.5-4.5c0-4.1-3.4-7.5-7.5-7.5S30,31.4,30,35.5s3.4,7.5,7.5,7.5
		c1.6,0,3.2-0.5,4.5-1.5l3.6,3.6c0.2,0.2,0.5,0.3,0.8,0.3c0.2,0,0.5-0.1,0.8-0.3C47.6,44.7,47.6,44,47.1,43.6z M40.9,39.7
		c-1,0.8-2.2,1.2-3.4,1.2c-2.9,0-5.3-2.4-5.3-5.3s2.4-5.3,5.3-5.3c2.9,0,5.3,2.4,5.3,5.3C42.9,37.2,42.1,38.6,40.9,39.7z"/>
	<rect x="14" y="8" class="st0" width="20" height="2"/>
	<path class="st0" d="M5,35.1V12c0-1.1,0.9-2,2-2h3V8H7c-2.2,0-4,1.8-4,3.9v23.2C3,37.3,4.8,39,7,39h22v-1.9H7
		C5.9,37.1,5,36.2,5,35.1z"/>
	<path class="st0" d="M43,12v17.1h2V11.9C45,9.8,43.2,8,41,8h-3v2h3C42.1,10,43,10.9,43,12z"/>
</g>
</svg>
