<svg id="图层_1" data-name="图层 1" xmlns="http://www.w3.org/2000/svg" width="44" height="32.59" viewBox="0 0 44 32.59"><defs><style>.cls-1{fill:#404040;fill-rule:evenodd;}</style></defs><title>FunctionGraph</title><path class="cls-1" d="M34,38.26H14a10.22,10.22,0,0,1-1-20.37,1.59,1.59,0,0,0,1.5-1.27A10.25,10.25,0,0,1,24,9.74a10.25,10.25,0,0,1,9.5,6.88A1.59,1.59,0,0,0,35,17.89a10.32,10.32,0,0,1,9,10.18A10.12,10.12,0,0,1,34,38.26Zm1.25-22.41a11.84,11.84,0,0,0-22.5,0A12.27,12.27,0,0,0,14,40.3H34a12.27,12.27,0,0,0,1.25-24.45ZM28,27.06a.54.54,0,0,0-.5.5,3.41,3.41,0,0,1-3.25,3.57H13.75a3.41,3.41,0,0,1-3.25-3.57A3.4,3.4,0,0,1,13.75,24H18.5a.54.54,0,0,0,.5-.51.55.55,0,0,0-.5-.51H13.75a4.6,4.6,0,0,0,0,9.17h10.5a4.48,4.48,0,0,0,4.25-4.59A.54.54,0,0,0,28,27.06ZM34.25,23H23.75a4.48,4.48,0,0,0-4.25,4.58.5.5,0,1,0,1,0A3.4,3.4,0,0,1,23.75,24h10.5a3.4,3.4,0,0,1,3.25,3.56,3.41,3.41,0,0,1-3.25,3.57H29.5a.54.54,0,0,0-.5.51.55.55,0,0,0,.5.51h4.75a4.6,4.6,0,0,0,0-9.17Z" transform="translate(-2 -7.7)"/></svg>