<?xml version="1.0" encoding="utf-8"?>
<!-- Generator: Adobe Illustrator 21.0.0, SVG Export Plug-In . SVG Version: 6.00 Build 0)  -->
<svg version="1.1" id="图层_1" xmlns="http://www.w3.org/2000/svg" xmlns:xlink="http://www.w3.org/1999/xlink" x="0px" y="0px"
	 viewBox="0 0 48 48" style="enable-background:new 0 0 48 48;" xml:space="preserve">
<style type="text/css">
	.st0{fill:#080103;}
</style>
<path class="st0" d="M28.5,21.3C28.4,21.1,28.2,21,28,21h-6.4l5.3-6.7c0.2-0.2,0.1-0.5-0.1-0.7s-0.5-0.1-0.7,0.1l-5.9,7.5
	c-0.1,0.2-0.1,0.4-0.1,0.5c0.1,0.2,0.3,0.3,0.4,0.3h6.4l-6.3,7.7c-0.2,0.2-0.1,0.5,0.1,0.7c0.1,0.1,0.2,0.1,0.3,0.1
	c0.1,0,0.3-0.1,0.4-0.2l7-8.5C28.5,21.7,28.5,21.5,28.5,21.3z M19.4,27h-2c-0.8,0-1.4-0.5-1.4-1.2v-7.6c0-0.7,0.6-1.2,1.4-1.2h3.1
	c0.3,0,0.5-0.2,0.5-0.5S20.8,16,20.5,16h-3.1c-1.3,0-2.4,1-2.4,2.2v7.6c0,1.2,1.1,2.2,2.4,2.2h2c0.3,0,0.5-0.2,0.5-0.5
	S19.6,27,19.4,27z M30.6,16h-2.5c-0.3,0-0.5,0.2-0.5,0.5s0.2,0.5,0.5,0.5h2.5c0.8,0,1.4,0.5,1.4,1.2v7.6c0,0.7-0.6,1.2-1.4,1.2h-4.1
	c-0.3,0-0.5,0.2-0.5,0.5s0.2,0.5,0.5,0.5h4.1c1.3,0,2.4-1,2.4-2.2v-7.6C33,17,31.9,16,30.6,16z M42,8H6c-2.2,0-4,1.8-4,4v20
	c0,2.2,1.8,4,4,4h2v3c0,0.6,0.4,1,1,1s1-0.4,1-1v-3h4v3c0,0.6,0.4,1,1,1s1-0.4,1-1v-3h4v3c0,0.6,0.4,1,1,1s1-0.4,1-1v-3h4v3
	c0,0.6,0.4,1,1,1s1-0.4,1-1v-3h4v3c0,0.6,0.4,1,1,1s1-0.4,1-1v-3h4v3c0,0.6,0.4,1,1,1s1-0.4,1-1v-3h2c2.2,0,4-1.8,4-4V12
	C46,9.8,44.2,8,42,8z M44,32c0,1.1-0.9,2-2,2H6c-1.1,0-2-0.9-2-2V12c0-1.1,0.9-2,2-2h36c1.1,0,2,0.9,2,2V32z"/>
</svg>
