<svg id="图层_1" data-name="图层 1" xmlns="http://www.w3.org/2000/svg" viewBox="0 0 40 44"><title>GaussDB-for Cassandra</title><path d="M35.72,38h4L27.3,45.2A7.31,7.31,0,0,1,24,46a7.1,7.1,0,0,1-3.07-.68l-.23-.12L8.23,38h4l9.45,5.5A5.21,5.21,0,0,0,24,44a4.73,4.73,0,0,0,2-.41l.16-.09ZM44,16A7,7,0,0,0,40.8,10.6L27.3,2.8,27,2.66A7.08,7.08,0,0,0,24,2a7.31,7.31,0,0,0-3.3.8L7.2,10.6,7,10.71A7,7,0,0,0,4,16.2V28H6V16A5.26,5.26,0,0,1,8.3,12.3L21.8,4.5,22,4.41A4.73,4.73,0,0,1,24,4a5.21,5.21,0,0,1,2.3.5l13.5,7.8.15.1a5.21,5.21,0,0,1,2.15,3.8L42,28h2V16ZM10.44,36.59v-3H7.62v.61H9.78v2.06a5.18,5.18,0,0,1-1,.3,5.53,5.53,0,0,1-1.06.11A3,3,0,0,1,6,36.21,2.67,2.67,0,0,1,5,35a4.55,4.55,0,0,1-.32-1.75,4,4,0,0,1,.41-1.91,2.88,2.88,0,0,1,1.13-1.21,3.32,3.32,0,0,1,1.66-.41,4,4,0,0,1,1.1.15,5.26,5.26,0,0,1,1,.41l.26-.57a6.2,6.2,0,0,0-1.12-.43,4.88,4.88,0,0,0-1.28-.16,4.16,4.16,0,0,0-2,.48A3.53,3.53,0,0,0,4.49,31,4.71,4.71,0,0,0,4,33.26a4.92,4.92,0,0,0,.42,2.08,3.15,3.15,0,0,0,1.25,1.4,3.8,3.8,0,0,0,2,.51,6.31,6.31,0,0,0,1.41-.17A6.56,6.56,0,0,0,10.44,36.59Zm4.67-2.79v-.24a2,2,0,0,0-.39-1.42,1.43,1.43,0,0,0-1.1-.42,3.7,3.7,0,0,0-.91.13,4.82,4.82,0,0,0-.8.3l-.14-.52a4,4,0,0,1,.83-.31,4.42,4.42,0,0,1,1.1-.14,2.46,2.46,0,0,1,1.11.23,1.59,1.59,0,0,1,.7.78,3.65,3.65,0,0,1,.25,1.46V36c0,.24,0,.61,0,1.11h-.58a2.85,2.85,0,0,1-.05-.41c0-.17,0-.31,0-.43a2.82,2.82,0,0,1-.89.67,2.6,2.6,0,0,1-1.21.28,2.13,2.13,0,0,1-.9-.19,1.46,1.46,0,0,1-.61-.57,1.73,1.73,0,0,1-.22-.91,1.66,1.66,0,0,1,.61-1.35,3.09,3.09,0,0,1,2-.51A8.63,8.63,0,0,1,15.11,33.8Zm0,.46A10.52,10.52,0,0,0,14,34.19a2.49,2.49,0,0,0-1.57.38,1.2,1.2,0,0,0-.45,1,1.09,1.09,0,0,0,.32.86,1.24,1.24,0,0,0,.86.28,2.31,2.31,0,0,0,.77-.13,2.8,2.8,0,0,0,.69-.35,1.86,1.86,0,0,0,.5-.46Zm1.92-3V35a2.74,2.74,0,0,0,.42,1.67,1.58,1.58,0,0,0,1.33.56A2.28,2.28,0,0,0,19.93,37a4.34,4.34,0,0,0,1-.73c0,.46.08.76.1.9h.56c0-.58,0-1.07,0-1.48V31.3h-.65v4.35a3.83,3.83,0,0,1-.91.74,2.05,2.05,0,0,1-1.06.3,1.14,1.14,0,0,1-.94-.41A2.09,2.09,0,0,1,17.66,35V31.3Zm7,5.4a3.55,3.55,0,0,1-.79-.09,2.92,2.92,0,0,1-.69-.25l-.18.54a3.76,3.76,0,0,0,.74.25,4.16,4.16,0,0,0,.88.1A2.84,2.84,0,0,0,25.13,37a1.6,1.6,0,0,0,1-1.51,1.42,1.42,0,0,0-.21-.8,1.61,1.61,0,0,0-.54-.5,6.61,6.61,0,0,0-.88-.43c-.36-.15-.63-.28-.81-.37a1.33,1.33,0,0,1-.43-.33.73.73,0,0,1-.15-.47.81.81,0,0,1,.31-.66,1.49,1.49,0,0,1,.91-.24,3.13,3.13,0,0,1,1.46.37l.15-.52a3.85,3.85,0,0,0-1.63-.39,2.35,2.35,0,0,0-1,.19,1.33,1.33,0,0,0-.62.52,1.42,1.42,0,0,0-.21.78,1.33,1.33,0,0,0,.18.7,1.74,1.74,0,0,0,.51.5,5.42,5.42,0,0,0,.87.43,8.82,8.82,0,0,1,.86.39,1.12,1.12,0,0,1,.45.37.84.84,0,0,1,.16.53,1,1,0,0,1-.37.81A1.73,1.73,0,0,1,24,36.7Zm4,0a3.61,3.61,0,0,1-.79-.09,2.92,2.92,0,0,1-.69-.25l-.18.54a3.76,3.76,0,0,0,.74.25,4.16,4.16,0,0,0,.88.1A2.84,2.84,0,0,0,29.13,37a1.6,1.6,0,0,0,1-1.51,1.42,1.42,0,0,0-.21-.8,1.61,1.61,0,0,0-.54-.5,7.29,7.29,0,0,0-.88-.43c-.36-.15-.63-.28-.81-.37a1.33,1.33,0,0,1-.43-.33.73.73,0,0,1-.15-.47.81.81,0,0,1,.31-.66,1.49,1.49,0,0,1,.91-.24,3.1,3.1,0,0,1,1.46.37l.15-.52a3.85,3.85,0,0,0-1.63-.39,2.35,2.35,0,0,0-1,.19,1.33,1.33,0,0,0-.62.52,1.42,1.42,0,0,0-.21.78,1.33,1.33,0,0,0,.18.7,1.74,1.74,0,0,0,.51.5,5.42,5.42,0,0,0,.87.43,8.82,8.82,0,0,1,.86.39,1.12,1.12,0,0,1,.45.37.84.84,0,0,1,.16.53,1,1,0,0,1-.37.81A1.73,1.73,0,0,1,28,36.7Zm5.41.44H31V29.23h2.59a5.22,5.22,0,0,1,2.19.42,3,3,0,0,1,1.39,1.25,4,4,0,0,1,.48,2,4.67,4.67,0,0,1-.5,2.18,3.67,3.67,0,0,1-1.45,1.5A4.41,4.41,0,0,1,33.43,37.14Zm-.08-1.08a3,3,0,0,0,1.57-.39,2.45,2.45,0,0,0,1-1.1A3.66,3.66,0,0,0,36.2,33a2.64,2.64,0,0,0-.69-2,2.89,2.89,0,0,0-2.08-.68H32.32v5.76Zm10.36-2.15a2,2,0,0,1,.24,1,2.11,2.11,0,0,1-.33,1.17,2.16,2.16,0,0,1-1,.79,3.85,3.85,0,0,1-1.52.28H38.57V29.23H41a3.08,3.08,0,0,1,1.88.48,1.62,1.62,0,0,1,.62,1.34,1.71,1.71,0,0,1-.4,1.17,2.1,2.1,0,0,1-1.05.67,2.5,2.5,0,0,1,1,.34A1.82,1.82,0,0,1,43.71,33.91ZM39.9,32.46h.85a1.47,1.47,0,0,0,.74-.17,1.16,1.16,0,0,0,.5-.45,1.18,1.18,0,0,0,.18-.63.83.83,0,0,0-.35-.73,1.83,1.83,0,0,0-1-.24h-.9Zm2.7,2.36a1.19,1.19,0,0,0-.46-1,2.19,2.19,0,0,0-1.33-.35H39.9v2.66h1a2,2,0,0,0,1.26-.34A1.18,1.18,0,0,0,42.6,34.82ZM22.75,13.1c.16,0,.32-.08.47-.08H24c2.39-.09,3.66-.36,4.71-1.79a.39.39,0,0,1,.63.47,4.42,4.42,0,0,1-2.19,1.64c.16.08.39.08.55.16h.07c.08.07.08.07.16.07,1.56.4,3.36.86,5.08-.62a.38.38,0,0,1,.55,0,.39.39,0,0,1,0,.55,4.91,4.91,0,0,1-2.74,1.17c.86.47,1.49.94,2,1.25l.08.08a2.46,2.46,0,0,0,2.5-.47c.16-.16.39-.16.39.08a.46.46,0,0,1-.08.54,3.1,3.1,0,0,1-3.36.55l-.07-.08a18.38,18.38,0,0,0-3.13-1.72,4.62,4.62,0,0,1,.16,1.1,5.71,5.71,0,0,1-11.41,0c0-.24.08-.55.08-.78a16.9,16.9,0,0,0-5.78,4.21l-.55.55a.28.28,0,0,1-.23.08.43.43,0,0,1-.32-.24.38.38,0,0,1,0-.54l.55-.55a17.63,17.63,0,0,1,6.64-4.61c.08-.08.08-.08.16-.08.39-.07.7-.23,1-.31h.08c2.11-.62,3.05-1.25,3.67-2.5.16-.16.39-.31.55-.16a.54.54,0,0,1,.16.55A5.59,5.59,0,0,1,22.75,13.1Zm2.35.7A2.24,2.24,0,0,1,26,15.28l.86-.07a.37.37,0,0,1,.39.39.37.37,0,0,1-.39.39l-.86.07v.16a2.1,2.1,0,0,1-.63,1.17l.47.63c.16.15.08.39-.08.54a.26.26,0,0,1-.23.08.4.4,0,0,1-.31-.15l-.47-.63a1.77,1.77,0,0,1-1.1.31c-.15,0-.31-.07-.46-.07h-.08l-.32.7a.41.41,0,0,1-.39.23h-.15a.43.43,0,0,1-.24-.54l.39-.78a2.41,2.41,0,0,1-1.09-1.49l-.78.08h-.08a.39.39,0,0,1,.08-.77l.78-.08v-.23A2.17,2.17,0,0,1,21.9,14a15.26,15.26,0,0,0-3,.78,4.62,4.62,0,0,0-.16,1.1,4.9,4.9,0,0,0,4.92,4.92,5,5,0,0,0,4.92-4.92,4.48,4.48,0,0,0-.23-1.49A14.67,14.67,0,0,0,25.1,13.8ZM22,15.44a1.83,1.83,0,0,0,.24,1.25,1.52,1.52,0,0,0,1,.7h.32a1.67,1.67,0,0,0,1.64-1.33,1.77,1.77,0,0,0-.24-1.25,1.52,1.52,0,0,0-1-.7h-.32A1.68,1.68,0,0,0,22,15.44Zm10.86,3.28a.46.46,0,0,0-.15-.55.43.43,0,0,0-.55.16A10.29,10.29,0,0,1,28,22.39c-2.74,1.33-5.86.47-8.75-.39a20.13,20.13,0,0,0-5.94-1.09.42.42,0,0,0-.39.39.43.43,0,0,0,.39.39,19.65,19.65,0,0,1,5.7,1,22.27,22.27,0,0,0,5.86,1.18,8.28,8.28,0,0,0,3.52-.78A11.33,11.33,0,0,0,32.83,18.72Z" transform="translate(-4 -2)"/></svg>