<svg id="图层_1" data-name="图层 1" xmlns="http://www.w3.org/2000/svg" viewBox="0 0 40 44"><defs><style>.cls-1{fill:#040000;}</style></defs><title>GaussDB-for nosql</title><path class="cls-1" d="M44,16V28H42l.08-11.8A5.23,5.23,0,0,0,40,12.4l-.16-.1L26.3,4.5A5.21,5.21,0,0,0,24,4a4.75,4.75,0,0,0-2,.41l-.16.09L8.3,12.3A5.25,5.25,0,0,0,6,16V28H4V16.2a7,7,0,0,1,3-5.49l.2-.11L20.7,2.8A7.18,7.18,0,0,1,27,2.66l.3.14,13.5,7.8A7,7,0,0,1,44,16ZM26.16,43.5l-.16.09A4.75,4.75,0,0,1,24,44a5.25,5.25,0,0,1-2.31-.5L12.24,38h-4L20.7,45.2l.23.12A7.09,7.09,0,0,0,24,46a7.27,7.27,0,0,0,3.3-.8L39.76,38h-4ZM33,16.89a5.11,5.11,0,0,1-1.6,3.65,4.73,4.73,0,0,1,.12.92,5.08,5.08,0,0,1-5.05,5.06,4.86,4.86,0,0,1-2.41-.62,5.42,5.42,0,0,1-2.4.62,5.08,5.08,0,0,1-5.06-5.06,4.1,4.1,0,0,1,.06-.86A5,5,0,0,1,15,16.9a5.1,5.1,0,0,1,4.5-5,5,5,0,0,1,9.12,0A5,5,0,0,1,33,16.89Zm-13.33-2.8a4.36,4.36,0,0,0,.93,2.71,4.48,4.48,0,0,0,2.28,1.54c.12,0,.18.06.31.06l-.06-.31a5.59,5.59,0,0,1-.13-1V16.9a5.15,5.15,0,0,1,5-5,4.47,4.47,0,0,0-3.93-2.28A4.35,4.35,0,0,0,20,12.33,4.44,4.44,0,0,0,19.67,14.09Zm-2.45,6.17a4.57,4.57,0,0,0,4.44.74,4.37,4.37,0,0,0,2.06-1.71.56.56,0,0,1,.13-.24L23.54,19l-.93-.19A4.69,4.69,0,0,1,20,17.08,5.12,5.12,0,0,1,19,14c0-.24.06-.43.06-.67v-.19a2.2,2.2,0,0,1,.12-.62,4.5,4.5,0,0,0-3.57,4.38h0A4.18,4.18,0,0,0,17.22,20.26Zm6.66,5.08A4.16,4.16,0,0,0,26,21.58v-.13a4.46,4.46,0,0,0-.95-2.54,1.48,1.48,0,0,0-.25-.31l-.18.37a5.31,5.31,0,0,1-.44.81,5,5,0,0,1-7,1.35v.47A4.42,4.42,0,0,0,21.6,26a4.3,4.3,0,0,0,2.29-.66ZM31,21.49a5.59,5.59,0,0,0-.13-1,6.13,6.13,0,0,0-.18-.61A4.4,4.4,0,0,0,25,17.34c-.13.07-.19.07-.25.13l.18.18a6.78,6.78,0,0,1,.68.74,5.47,5.47,0,0,1,1,3v.19a5.14,5.14,0,0,1-2,4,4.92,4.92,0,0,0,1.85.37V26h0A4.51,4.51,0,0,0,31,21.49Zm.21-1.58a4.6,4.6,0,0,0,1.22-3,4.43,4.43,0,0,0-4-4.44h-.54A4.43,4.43,0,0,0,23.52,17v.49c.06-.07.18-.13.24-.19l.07-.06.8-.37a5.15,5.15,0,0,1,3.2-.12A5,5,0,0,1,31.22,20ZM10.44,36.58v-3H7.62v.61H9.71v2.06a4.43,4.43,0,0,1-1,.3,5.57,5.57,0,0,1-1,.11A3,3,0,0,1,6,36.21,2.63,2.63,0,0,1,5,35a4.36,4.36,0,0,1-.3-1.75,4.22,4.22,0,0,1,.41-1.91,2.81,2.81,0,0,1,1.13-1.21,3.32,3.32,0,0,1,1.66-.41,4.11,4.11,0,0,1,1.1.15,5.13,5.13,0,0,1,1,.41l.28-.6a6.32,6.32,0,0,0-1.12-.43,5,5,0,0,0-1.28-.16,4,4,0,0,0-2,.49A3.38,3.38,0,0,0,4.5,31,4.79,4.79,0,0,0,4,33.26a4.93,4.93,0,0,0,.42,2.08,3.22,3.22,0,0,0,1.26,1.4h0a3.8,3.8,0,0,0,2,.51,6,6,0,0,0,1.41-.17A6.41,6.41,0,0,0,10.44,36.58Zm4.69-3a2,2,0,0,0-.39-1.42,1.45,1.45,0,0,0-1.1-.42,4,4,0,0,0-.91.13,6,6,0,0,0-.8.3l-.14-.52a4.15,4.15,0,0,1,.83-.31,4.63,4.63,0,0,1,1.11-.14,2.44,2.44,0,0,1,1.1.23,1.57,1.57,0,0,1,.7.78,3.46,3.46,0,0,1,.25,1.46v3.46l-.56,0a1.4,1.4,0,0,0-.05-.41,1.23,1.23,0,0,1,0-.43,2.83,2.83,0,0,1-.9.67,2.61,2.61,0,0,1-1.2.28,2.22,2.22,0,0,1-.91-.19,1.46,1.46,0,0,1-.61-.57,1.8,1.8,0,0,1-.22-.91,1.7,1.7,0,0,1,.61-1.35,3.15,3.15,0,0,1,2-.51,9.39,9.39,0,0,1,1.19.08Zm0,.71A8.29,8.29,0,0,0,14,34.19a2.49,2.49,0,0,0-1.57.38,1.19,1.19,0,0,0-.44,1,1.1,1.1,0,0,0,.31.86,1.22,1.22,0,0,0,.86.28,2.27,2.27,0,0,0,.77-.13h0a2.55,2.55,0,0,0,.7-.35,2,2,0,0,0,.49-.46Zm3.63,3A2.3,2.3,0,0,0,19.89,37a4.21,4.21,0,0,0,1-.73c.05.46.11.76.11.9h.6c-.05-.58-.05-1.07-.05-1.48V31.3h-.64v4.35a4.1,4.1,0,0,1-.92.74,2.07,2.07,0,0,1-1.06.3,1.11,1.11,0,0,1-.93-.41A2,2,0,0,1,17.64,35V31.3H17V35a2.68,2.68,0,0,0,.46,1.69h-.05A1.58,1.58,0,0,0,18.74,37.25ZM24,36.7a3.55,3.55,0,0,1-.79-.09,3.35,3.35,0,0,1-.69-.25l-.18.54a4,4,0,0,0,.74.25h0a3.71,3.71,0,0,0,.88.1A2.65,2.65,0,0,0,25.14,37a1.56,1.56,0,0,0,1-1.51,1.41,1.41,0,0,0-.21-.8,1.52,1.52,0,0,0-.54-.5,6,6,0,0,0-.88-.43c-.36-.15-.63-.28-.81-.37a1.23,1.23,0,0,1-.42-.33.67.67,0,0,1-.16-.47.76.76,0,0,1,.32-.65,1.42,1.42,0,0,1,.91-.25,3,3,0,0,1,1.45.37l.15-.52a3.83,3.83,0,0,0-1.63-.39,2.47,2.47,0,0,0-1,.19,1.26,1.26,0,0,0-.62.52,1.54,1.54,0,0,0,0,1.48,1.74,1.74,0,0,0,.51.5,6,6,0,0,0,.88.43c.37.16.66.29.85.39a1.15,1.15,0,0,1,.45.37.78.78,0,0,1,.17.53,1,1,0,0,1-.38.81A1.69,1.69,0,0,1,24,36.7Zm4,0a3.55,3.55,0,0,1-.79-.09,3.35,3.35,0,0,1-.69-.25l-.18.54a4,4,0,0,0,.74.25h0a3.71,3.71,0,0,0,.88.1A2.65,2.65,0,0,0,29.14,37a1.56,1.56,0,0,0,1-1.51,1.41,1.41,0,0,0-.21-.8,1.49,1.49,0,0,0-.53-.5,7.29,7.29,0,0,0-.89-.43c-.36-.15-.63-.28-.81-.37a1.23,1.23,0,0,1-.42-.33.67.67,0,0,1-.16-.47.76.76,0,0,1,.32-.65,1.42,1.42,0,0,1,.91-.25,3,3,0,0,1,1.45.37l.15-.52a3.83,3.83,0,0,0-1.63-.39,2.47,2.47,0,0,0-1,.19,1.26,1.26,0,0,0-.62.52,1.54,1.54,0,0,0,0,1.48,1.74,1.74,0,0,0,.51.5,6,6,0,0,0,.88.43c.37.16.66.29.85.39a1.28,1.28,0,0,1,.46.37.92.92,0,0,1,.16.53,1,1,0,0,1-.38.81A1.69,1.69,0,0,1,28,36.7Zm3-7.47h2.59a5.15,5.15,0,0,1,2.19.42,3,3,0,0,1,1.39,1.25,4,4,0,0,1,.48,2,4.45,4.45,0,0,1-.5,2.18,3.61,3.61,0,0,1-1.45,1.5,4.4,4.4,0,0,1-2.22.54H31Zm1.32,6.82h1a3,3,0,0,0,1.57-.39,2.42,2.42,0,0,0,1-1.1,3.67,3.67,0,0,0,.33-1.6,2.63,2.63,0,0,0-.7-2,2.89,2.89,0,0,0-2.07-.68H32.32Zm11.39-2.14a2,2,0,0,1,.24,1,2,2,0,0,1-.33,1.17,2.16,2.16,0,0,1-1,.79,3.6,3.6,0,0,1-1.52.28H38.57V29.23H41a3.05,3.05,0,0,1,1.88.48,1.59,1.59,0,0,1,.62,1.34,1.67,1.67,0,0,1-.4,1.17,2.07,2.07,0,0,1-1,.67,2.53,2.53,0,0,1,1,.34h-.05A1.87,1.87,0,0,1,43.71,33.91ZM39.9,32.46h.85a1.5,1.5,0,0,0,.75-.17,1.25,1.25,0,0,0,.49-.45,1.18,1.18,0,0,0,.18-.63.82.82,0,0,0-.35-.73,1.75,1.75,0,0,0-1-.24h-.9Zm2.7,2.33a1.15,1.15,0,0,0-.46-1,2.15,2.15,0,0,0-1.33-.35H39.9V36.1h1a2,2,0,0,0,1.26-.34l0,0A1.17,1.17,0,0,0,42.6,34.79Z" transform="translate(-4 -2)"/></svg>