<?xml version="1.0" encoding="utf-8"?>
<!-- Generator: Adobe Illustrator 21.0.0, SVG Export Plug-In . SVG Version: 6.00 Build 0)  -->
<svg version="1.1" id="图层_1" xmlns="http://www.w3.org/2000/svg" xmlns:xlink="http://www.w3.org/1999/xlink" x="0px" y="0px"
	 viewBox="0 0 44 44" style="enable-background:new 0 0 44 44;" xml:space="preserve">
<g>
	<g>
		<path d="M22,22c2.2,0,4-1.8,4-4s-1.8-4-4-4s-4,1.8-4,4S19.8,22,22,22z M22,15c1.7,0,3,1.3,3,3s-1.3,3-3,3s-3-1.3-3-3
			S20.3,15,22,15z M21.3,29.4c0.2,0.2,0.5,0.3,0.7,0.3s0.5-0.1,0.7-0.3l5.7-5.7c1.7-1.7,2.6-4,2.6-6.4c0-2.4-0.9-4.7-2.6-6.4
			c-1.7-1.7-4-2.6-6.4-2.6c-2.4,0-4.7,0.9-6.4,2.6c-1.7,1.7-2.6,4-2.6,6.4c0,2.4,0.9,4.7,2.6,6.4L21.3,29.4z M17.1,12.4
			c1.3-1.3,3.1-2,4.9-2s3.6,0.7,5,2.1c1.3,1.3,2,3.1,2,4.9s-0.7,3.6-2.1,5L22,27.2l-5-5c-1.3-1.3-2-3.1-2-4.9
			C15,15.5,15.7,13.7,17.1,12.4z M38.4,9.6L24.6,1.7c-1.6-0.9-3.6-0.9-5.2,0L5.6,9.6C4,10.5,3,12.2,3,14.1v15.8c0,1.9,1,3.6,2.6,4.5
			l13.8,7.9c0.8,0.5,1.7,0.7,2.6,0.7s1.8-0.2,2.6-0.7l13.8-7.9c1.6-0.9,2.6-2.7,2.6-4.5V14.1C41,12.2,40,10.5,38.4,9.6z M39,29.9
			c0,1.1-0.6,2.2-1.6,2.8l-13.8,7.9c-1,0.6-2.3,0.6-3.2,0L6.6,32.7C5.6,32.1,5,31,5,29.9V14.1c0-1.1,0.6-2.2,1.6-2.8l13.8-7.9
			C20.9,3.1,21.4,3,22,3s1.1,0.1,1.6,0.4l13.8,7.9c1,0.6,1.6,1.6,1.6,2.8V29.9z M30.1,27h-2.5c-0.3,0-0.5,0.2-0.5,0.5
			s0.2,0.5,0.5,0.5h2.5c0.8,0,1.5,0.8,1.5,1.5S30.9,31,30.1,31H16.6c-1,0-1.8,0.6-1.8,1.5s0.8,1.5,1.8,1.5h4.7
			c0.3,0,0.5-0.2,0.5-0.5S21.6,33,21.3,33h-4.7c-0.4,0-0.8-0.1-0.8-0.5s0.3-0.5,0.8-0.5h13.5c1.4,0,2.5-1.2,2.5-2.5S31.4,27,30.1,27
			z"/>
	</g>
</g>
</svg>
