<?xml version="1.0" encoding="utf-8"?>
<!-- Generator: Adobe Illustrator 21.0.0, SVG Export Plug-In . SVG Version: 6.00 Build 0)  -->
<svg version="1.1" id="图层_1" xmlns="http://www.w3.org/2000/svg" xmlns:xlink="http://www.w3.org/1999/xlink" x="0px" y="0px"
	 viewBox="0 0 48 48" style="enable-background:new 0 0 48 48;" xml:space="preserve">
<path d="M43,33.4c-0.5-4.7-2.9-10.7-4.5-13.5c-1.7-2.9-5.7-8.1-9.6-10.8C29,8.7,29,8.4,29,8c0-2.8-2.2-5-5-5s-5,2.2-5,5
	c0,0.3,0,0.6,0.1,0.9c-3.9,2.7-8.1,8-9.8,10.9c-1.7,2.9-4.1,8.9-4.5,13.6C3.1,34.4,2,36,2,38c0,2.8,2.2,5,5,5c1.1,0,2-0.3,2.9-0.9
	c4.3,2,10.8,2.9,14.1,2.9c3.3,0,9.8-0.9,14.1-2.9c0.8,0.6,1.8,0.9,2.9,0.9c2.8,0,5-2.2,5-5C46,36,44.8,34.2,43,33.4z M36.8,20.9
	c1.3,2.2,3.6,7.7,4.2,12.1c-0.7,0-1.3,0.1-1.9,0.4c-2.5-3.3-6.4-6.5-10.5-8c0.8-4.4-0.2-9.4-1.8-13.2c0.5-0.3,0.9-0.7,1.2-1.2
	C31.7,13.6,35.4,18.6,36.8,20.9z M36,37.5c-3.9-0.6-8.2-2.3-11.2-4.9c0.9-0.8,1.6-1.8,2.2-2.7c0.6-1.1,1.1-2.3,1.4-3.6
	c3.8,1.4,7.4,4.4,9.8,7.5C37,34.6,36.2,36,36,37.5z M12,37.6c-0.1-1.6-1-2.9-2.2-3.7c2.5-3.2,6.1-6.2,10-7.6
	c0.3,1.3,0.8,2.6,1.4,3.7c0.6,1,1.3,1.9,2.2,2.7C20.3,35.3,15.9,37,12,37.6z M22.1,29.4c-0.6-1.1-1-2.2-1.3-3.5
	c1.1-0.3,2.2-0.5,3.2-0.5c1.1,0,2.3,0.2,3.4,0.5c-0.3,1.2-0.7,2.4-1.3,3.4c-0.5,0.9-1.2,1.8-2,2.6C23.3,31.2,22.6,30.4,22.1,29.4z
	 M22.3,12.7c0.5,0.2,1.1,0.3,1.7,0.3c0.7,0,1.3-0.1,1.9-0.4c1.5,3.6,2.4,8.3,1.7,12.4c-1.2-0.4-2.4-0.6-3.6-0.6
	c-1.1,0-2.3,0.2-3.4,0.5C19.9,20.8,20.8,16.2,22.3,12.7z M24,5c1.7,0,3,1.3,3,3c0,1.7-1.3,3-3,3s-3-1.3-3-3C21,6.3,22.3,5,24,5z
	 M11,20.9c1.4-2.4,5.2-7.4,8.8-10c0.4,0.6,0.9,1,1.5,1.4c-1.6,3.7-2.5,8.6-1.8,13c-4.2,1.4-8.2,4.7-10.7,8.1C8.3,33.1,7.7,33,7,33
	c-0.1,0-0.1,0-0.2,0C7.5,28.6,9.8,23.1,11,20.9z M4,38c0-1.7,1.3-3,3-3s3,1.3,3,3c0,1.7-1.3,3-3,3S4,39.6,4,38z M11.3,40.5
	c0.3-0.6,0.6-1.2,0.7-2c4.2-0.6,8.9-2.4,12.2-5.2c3.2,2.8,7.8,4.6,11.9,5.2c0.1,0.7,0.3,1.4,0.7,2C32.6,42.3,26.6,43,24,43
	C21.4,43,15.4,42.3,11.3,40.5z M41,41c-1.7,0-3-1.3-3-3c0-1.7,1.3-3,3-3s3,1.3,3,3C44,39.6,42.7,41,41,41z"/>
</svg>
