<svg id="图层_1" data-name="图层 1" xmlns="http://www.w3.org/2000/svg" viewBox="0 0 40.11 43.83"><title>gsl</title><g id="IoT服务图标_GSL" data-name="IoT服务图标/GSL"><path id="形状结合" d="M27.72,3.13l.27.15,12.05,7a8,8,0,0,1,4,6.93V31.08A8,8,0,0,1,40,38L28,45a8,8,0,0,1-8,0l-12-7a8,8,0,0,1-4-6.93V17.17a8,8,0,0,1,4-6.93l12-7A8,8,0,0,1,27.72,3.13ZM21,5l-12,7a6,6,0,0,0-3,5.2V31.08a6,6,0,0,0,3,5.2l12,7a6,6,0,0,0,6,0l12.05-7a6,6,0,0,0,3-5.2V17.17A6,6,0,0,0,39,12L27,5l-.23-.13A6,6,0,0,0,21,5Zm10.5,7.12a2.49,2.49,0,0,1,2.5,2.5v19a2.5,2.5,0,0,1-2.5,2.5h-15a2.5,2.5,0,0,1-2.5-2.5V19.45a2.48,2.48,0,0,1,.6-1.62l.13-.14,4.83-4.83a2.51,2.51,0,0,1,1.77-.73Zm0,1H21.32a1.49,1.49,0,0,0-1.06.43l-4.83,4.83A1.52,1.52,0,0,0,15,19.45V33.63a1.5,1.5,0,0,0,1.5,1.5h15a1.5,1.5,0,0,0,1.5-1.5v-19A1.5,1.5,0,0,0,31.49,13.13ZM28,19.63a2.49,2.49,0,0,1,2.5,2.5v8a2.5,2.5,0,0,1-2.5,2.5H20a2.5,2.5,0,0,1-2.5-2.5v-8a2.49,2.49,0,0,1,2.5-2.5Zm-6.5,9h-3v1.5a1.5,1.5,0,0,0,1.5,1.5h1.5Zm4,0h-3v3h3Zm4,0h-3v3H28a1.5,1.5,0,0,0,1.5-1.5Zm0-4h-11v3h11Zm-8-4H20a1.5,1.5,0,0,0-1.5,1.5v1.5h3Zm4,0h-3v3h3Zm2.5,0h-1.5v3h3v-1.5A1.5,1.5,0,0,0,28,20.63Z" transform="translate(-3.94 -2.21)"/></g></svg>