<svg id="图层_1" data-name="图层 1" xmlns="http://www.w3.org/2000/svg" viewBox="0 0 48 45.19"><title>hardware</title><path id="形状结合" d="M39,.77a3.32,3.32,0,0,1,3.14,2.32l.08.26,6,25.3a2.09,2.09,0,0,1,0,.5V42.62A3.33,3.33,0,0,1,45.1,46H3.59A3.35,3.35,0,0,1,.25,42.81V28.65L6.31,3.35a3.36,3.36,0,0,1,3-2.58Zm7.27,30.46H2.35V43.81H46.24ZM39.9,37a1.15,1.15,0,0,1,0,2.3H8.72a1.15,1.15,0,0,1,0-2.3H39.9ZM23.84,2.89H8.55L2.35,29.23h21.5V18.78l.7-.19h-.18c-5.79,0-10.49-1.87-10.49-4.18s4.7-4.2,10.49-4.2,10.5,1.87,10.5,4.2-4.36,4-9.85,4.18V29.21H46.28L39.84,2.89H25v7.32H23.82V2.89Zm.53,8.37c-5.25,0-9.44,1.67-9.44,3.15s4.19,3.14,9.44,3.14,9.44-1.68,9.44-3.14S29.63,11.26,24.37,11.26Z" transform="translate(-0.25 -0.77)"/></svg>