<svg id="图层_1" data-name="图层 1" xmlns="http://www.w3.org/2000/svg" viewBox="0 0 40 40"><title>has</title><path id="服务图标-人体分析has-copy" d="M43,32.13a.9.9,0,0,1,.7.29.94.94,0,0,1,.3.71v7a4,4,0,0,1-4,4H33a1,1,0,0,1,0-2h7a2,2,0,0,0,2-2v-7a.94.94,0,0,1,.3-.71A.9.9,0,0,1,43,32.13Zm-3-28a4,4,0,0,1,4,4v8a1,1,0,0,1-2,0v-8a2,2,0,0,0-2-2H33a1,1,0,0,1-1-1,.94.94,0,0,1,1-1Zm-35,12a.92.92,0,0,1-.7-.31.87.87,0,0,1-.3-.69v-7a4,4,0,0,1,4-4h7a.94.94,0,0,1,1,1,1,1,0,0,1-1,1H8a2,2,0,0,0-2,2v7a.87.87,0,0,1-.3.69A.92.92,0,0,1,5,16.13Zm10,26a1,1,0,0,1,0,2H8a4,4,0,0,1-4-4v-7a.94.94,0,0,1,1-1,.94.94,0,0,1,1,1v7a2,2,0,0,0,2,2Zm12-24a3,3,0,1,0-3,3A2.94,2.94,0,0,0,27,18.13Zm1,0a4,4,0,1,1-4-4A4,4,0,0,1,28,18.13Zm-4,5a5.86,5.86,0,0,1,6,5.6v3.1a2.26,2.26,0,0,1-2.3,2.3H20.3a2.26,2.26,0,0,1-2.3-2.3v-3.1C18,25.52,21,23.13,24,23.13Zm0,1c-2.5,0-5,2-5,4.6v3.1a1.32,1.32,0,0,0,1.3,1.3h7.4a1.32,1.32,0,0,0,1.3-1.3v-3.1C29,26.13,26.5,24.13,24,24.13Zm-6.3-5.71a2.65,2.65,0,0,0-1.2-.29,2.5,2.5,0,0,0,0,5h.4a2.68,2.68,0,0,0,1.4-.71.48.48,0,0,1,.7,0,.5.5,0,0,1,0,.71,3.54,3.54,0,0,1-2,1h-.6a3.5,3.5,0,1,1,0-7,3.64,3.64,0,0,1,1.7.39.59.59,0,0,1,.2.71C18.3,18.42,18,18.52,17.7,18.42ZM16,33.13H13A2.11,2.11,0,0,1,10.9,31V29.63c0-3,2.9-4.5,5.8-4.5a.47.47,0,0,1,.5.5c0,.29-.1.5-.4.5-2.4,0-4.8,1.2-4.8,3.5V31a1.11,1.11,0,0,0,1.1,1.11h3a.47.47,0,0,1,.5.5A.57.57,0,0,1,16,33.13ZM30.3,18.42a.66.66,0,0,1-.7-.2.66.66,0,0,1,.2-.7,3.29,3.29,0,0,1,1.7-.4,3.51,3.51,0,0,1,0,7h-.6a3.89,3.89,0,0,1-2-1,.5.5,0,0,1,0-.71.48.48,0,0,1,.7,0,2.76,2.76,0,0,0,1.4.71h.4a2.5,2.5,0,0,0,0-5A2.1,2.1,0,0,0,30.3,18.42ZM32,33.13a.48.48,0,0,1-.5-.5.47.47,0,0,1,.5-.5h3A1.11,1.11,0,0,0,36.1,31V29.63c0-2.4-2.4-3.5-4.8-3.5a.48.48,0,0,1-.5-.5.47.47,0,0,1,.5-.5c2.9,0,5.8,1.5,5.8,4.5V31A2.06,2.06,0,0,1,35,33.13Zm10-8.5a.48.48,0,0,1-.5.5h-4a.48.48,0,0,1-.5-.5.47.47,0,0,1,.5-.5h4A.47.47,0,0,1,42,24.63Zm-31,0a.48.48,0,0,1-.5.5h-4a.48.48,0,0,1-.5-.5.47.47,0,0,1,.5-.5h4A.47.47,0,0,1,11,24.63Z" transform="translate(-4 -4.13)"/></svg>