<?xml version="1.0" encoding="utf-8"?>
<!-- Generator: Adobe Illustrator 21.0.0, SVG Export Plug-In . SVG Version: 6.00 Build 0)  -->
<svg version="1.1" id="图层_1" xmlns="http://www.w3.org/2000/svg" xmlns:xlink="http://www.w3.org/1999/xlink" x="0px" y="0px"
	 viewBox="0 0 48 48" style="enable-background:new 0 0 48 48;" xml:space="preserve">
<g>
	<path d="M8.5,30h5.8c1.2,0,2.2-1.1,2.2-2.4v-7.2c0-1.3-1-2.4-2.2-2.4H8.5h-1v1v9.9v1L8.5,30L8.5,30z M8.5,19.1h5.8
		c0.7,0,1.2,0.6,1.2,1.4v7.2c0,0.8-0.6,1.4-1.2,1.4H8.5V19.1z"/>
	<path d="M24.8,28.2c0.5,1.3,1.4,1.8,2.9,1.8H29v-1l0,0V18.1h-1V29h-0.3c-1.1,0-1.6-0.3-1.9-1.2l0,0l-2.7-7.6
		c-0.2-0.5-0.8-2.2-2.8-2.2h-0.8l0,0H19v11.9h1V19.1h0.3c0.9,0,1.4,0.4,1.8,1.5L24.8,28.2"/>
	<path d="M33.7,24h1l0,0h3.7c0.7,0,1.2,0.6,1.2,1.4v2.3c0,0.8-0.5,1.4-1.2,1.4h-6.7v1h6.7c1.2,0,2.2-1.1,2.2-2.4v-2.3
		c0-1.3-1-2.4-2.2-2.4h-1l0,0h-3.7c-0.7,0-1.2-0.6-1.2-1.4v-1.3c0-0.8,0.5-1.4,1.2-1.4h6.7v-1h-6.7c-1.2,0-2.2,1.1-2.2,2.4v1.3
		C31.5,22.9,32.5,24,33.7,24z"/>
	<path d="M24,2C11.9,2,2,11.8,2,24s9.9,22,22,22c12.2,0,22-9.8,22-22S36.2,2,24,2z M24,44.5c-6.7,0-12.6-3.4-16.3-8.6H34l-3.5,2.5
		c-0.1,0-0.1,0.1,0,0.2l0.2,0.2c0.2,0.3,0.5,0.3,0.8,0.1l4.3-3.1l0,0c0.1-0.1,0.2-0.2,0.2-0.4v-0.2c0-0.2-0.2-0.4-0.4-0.4H7.1
		C5.1,31.7,4,28,4,24C4,12.7,13,3.5,24,3.5c7.1,0,13.4,3.8,16.9,9.6H14l3.5-2.5c0.1,0,0.1-0.1,0-0.2l-0.2-0.2
		c-0.2-0.3-0.5-0.3-0.8-0.1l-4.3,3.1l0,0c-0.1,0.1-0.2,0.2-0.2,0.4v0.2c0,0.2,0.2,0.4,0.4,0.4h29.1C43.1,17,44,20.4,44,24
		C44,35.3,35,44.5,24,44.5z"/>
</g>
</svg>
