<svg id="图层_1" data-name="图层 1" xmlns="http://www.w3.org/2000/svg" viewBox="0 0 40 43.83"><title>HWSQL</title><path d="M41.4,10.44,28.6,3a8.27,8.27,0,0,0-7.2,0L8.6,10.44A7.94,7.94,0,0,0,5,16.64v14.9a7.54,7.54,0,0,0,3.6,6.2l12.8,7.4A7.13,7.13,0,0,0,25,46a7.13,7.13,0,0,0,3.6-.9l12.8-7.4a7.94,7.94,0,0,0,3.6-6.2V16.64A7.68,7.68,0,0,0,41.4,10.44ZM43,31.64a5.75,5.75,0,0,1-1.5,3.6,34.77,34.77,0,0,1-4.1-3.4c.6-.1,1.5-.3,1.9-.4a5.47,5.47,0,0,0,2.5-1.6c.1-.1.2-.2.1-.4s-.1-.3-.2-.4c-2.9-2.5-6.8-3.1-8.4-3.4a4.33,4.33,0,0,1-.5-.1,22.38,22.38,0,0,0-5.9-6.1l2.5-3.9a.64.64,0,0,0,0-.6c-.1-.2-.3-.2-.5-.2l-2.1.6-.6-3.4c0-.2-.1-.3-.3-.4a.45.45,0,0,0-.5,0l-2.9,1.9-.9-1.9a.55.55,0,0,0-.5-.3.43.43,0,0,0-.4.4l-1.1,4.5a8.94,8.94,0,0,0-4.4.5c-.1,0-.1,0-.2-.1-1.8-.6-4-1.2-5.1-.4a1.23,1.23,0,0,0-.7,1.1c-.2,1.5,1.1,2.4,1.9,3,.1.1.3.2.3.3l.3.2a9,9,0,0,1,1,.9c.1.1.1.3.3.5a2.77,2.77,0,0,0,.5.9c.8,1.5,2.9,3.1,4,3.9a10.82,10.82,0,0,0,.4,4.8,3.92,3.92,0,0,0,2.2,2.6.9.9,0,0,0,.9-.2c.4-.4.5-1.2.6-2.7a19,19,0,0,0,1.8,2,13.78,13.78,0,0,0,3.4,2.3H27a.55.55,0,0,0,.5-.3.66.66,0,0,0-.2-.7,14.74,14.74,0,0,1-3.1-2.1,31.46,31.46,0,0,1-2.5-2.9.76.76,0,0,0-.5-.2c-.2,0-.3.1-.4.3s-.1.2-.1.8a10.59,10.59,0,0,1-.3,2.7,2.8,2.8,0,0,1-1.5-1.9,9.18,9.18,0,0,1-.3-4.7.76.76,0,0,0-.2-.5,16.08,16.08,0,0,1-4-3.7,6.31,6.31,0,0,1-.4-.9,1.61,1.61,0,0,0-.4-.7,5.24,5.24,0,0,0-1.1-1l-.5-.2a1.38,1.38,0,0,0-.4-.3c-.7-.5-1.6-1.2-1.5-2.1,0-.2.1-.3.3-.4.6-.4,2.1-.2,4.3.5a1.09,1.09,0,0,0,.5.1h.2a9,9,0,0,1,4.1-.5h0a6,6,0,0,0,3.1,2.4,6.86,6.86,0,0,0,2.9.7,1.48,1.48,0,0,0,.7-.1,22.38,22.38,0,0,1,5.9,6.1c.1.3.3.3,1.1.4a16.27,16.27,0,0,1,7.5,2.8,8.47,8.47,0,0,1-1.7,1,24.37,24.37,0,0,1-2.6.6c-.2,0-.3.2-.4.3a.44.44,0,0,0,.1.5,34.42,34.42,0,0,0,4.7,4c-.1.1-.2.1-.3.2l-12.8,7.4a5.93,5.93,0,0,1-5.2,0L9.6,36A5.7,5.7,0,0,1,7,31.64v-15a5.89,5.89,0,0,1,2.6-4.5l12.8-7.4a5.26,5.26,0,0,1,2.6-.6,5.26,5.26,0,0,1,2.6.6l12.8,7.4a5.73,5.73,0,0,1,2.6,4.5ZM25.9,19.24a5.38,5.38,0,0,1-3-.6,6.18,6.18,0,0,1-2.5-1.7l.9-3.5.6,1.2.3.3a.6.6,0,0,0,.4-.1L25.4,13l.5,3.2c0,.1.1.3.2.3a.6.6,0,0,0,.4.1l1.3-.4Zm-8.9.5a1.38,1.38,0,0,1,.5.9.47.47,0,0,1-.5.5h0a.47.47,0,0,1-.5-.5l-.2-.2c-.2-.2-.3-.3-.4-.3-.3-.1-.5-.3-.4-.6s.3-.5.6-.4A1.8,1.8,0,0,1,17,19.74Z" transform="translate(-5 -2.21)"/></svg>