<svg id="图层_1" data-name="图层 1" xmlns="http://www.w3.org/2000/svg" viewBox="0 0 41 40"><defs><style>.cls-1{fill:#050505;}</style></defs><title>icd</title><path class="cls-1" d="M18,33.5a1,1,0,1,0-1-1A1,1,0,0,0,18,33.5Zm-1-14a1,1,0,1,0-1-1A1,1,0,0,0,17,19.5Zm9.5,9.89a.5.5,0,0,1-.5-.5.5.5,0,0,1,.5-.5,3,3,0,0,0,3-3.2,3,3,0,0,0-3-3.19.5.5,0,0,1,0-1,4,4,0,0,1,4,4.19A4,4,0,0,1,26.5,29.39Zm17,3.11a.93.93,0,0,1,1,1v7a4,4,0,0,1-4,4h-7a1,1,0,0,1,0-2h7a2,2,0,0,0,2-2v-7a.93.93,0,0,1,1-1Zm-29,10a1,1,0,0,1,0,2h-7a4,4,0,0,1-4-4v-7a1,1,0,0,1,2,0v7a2,2,0,0,0,2,2Zm26-38a4,4,0,0,1,4,4v8a1,1,0,0,1-2,0v-8a2,2,0,0,0-2-2h-7a1,1,0,0,1,0-2Zm-36,12a.93.93,0,0,1-1-1v-7a4,4,0,0,1,4-4h7a1,1,0,0,1,0,2h-7a2,2,0,0,0-2,2v7a.93.93,0,0,1-1,1Zm20,1v16q8.63,0,15.09-7.94a.51.51,0,0,0,0-.64C35.44,19.85,30.52,17.5,24.5,17.5ZM16.31,31.43A2,2,0,1,1,16,32.5v-.1a22.36,22.36,0,0,1-7.66-6.19,1.51,1.51,0,0,1,0-1.9,26.28,26.28,0,0,1,4.5-4.41.5.5,0,1,1,.6.79,25.82,25.82,0,0,0-4.33,4.25.51.51,0,0,0,0,.64A21.51,21.51,0,0,0,16.31,31.43ZM22.5,25.5H18.45a1.52,1.52,0,0,1-1.42,1,1.5,1.5,0,0,1,0-3,1.52,1.52,0,0,1,1.42,1H22.5v-7a16.65,16.65,0,0,0-3.52.71,2.45,2.45,0,0,1,0,.27,2,2,0,1,1-.4-1.2,17.64,17.64,0,0,1,3.9-.79V6.5a1,1,0,0,1,2,0v10C30.82,16.5,36,19,40.37,24.31a1.51,1.51,0,0,1,0,1.9Q33.61,34.5,24.5,34.52v8a1,1,0,0,1-2,0Z" transform="translate(-3.5 -4.5)"/></svg>