<?xml version="1.0" encoding="utf-8"?>
<!-- Generator: Adobe Illustrator 21.0.0, SVG Export Plug-In . SVG Version: 6.00 Build 0)  -->
<svg version="1.1" id="图层_1" xmlns="http://www.w3.org/2000/svg" xmlns:xlink="http://www.w3.org/1999/xlink" x="0px" y="0px"
	 viewBox="0 0 48 48" enable-background="new 0 0 48 48" xml:space="preserve">
<path d="M41.9,10.5c-2.1-0.7-6.3-2.1-8.4-3.1c-4.2-2.1-5.8-3.5-7.4-4.7C25.5,2.2,24.8,2,24,2l0,0l0,0c-0.8,0-1.5,0.2-2.1,0.6
	c-1.6,1.2-3.2,2.6-7.4,4.7c-2.1,1-6.3,2.4-8.4,3.1c-1.4,0.5-2.2,1.7-2.1,3.1c0.4,4.6,1.5,13.5,4.2,19c3.2,6.3,11.1,11.2,14.2,13.1
	c0.5,0.3,1,0.4,1.6,0.4s1.1-0.1,1.6-0.4c3.1-1.9,11-6.8,14.2-13.1c2.7-5.5,3.8-14.4,4.2-18.8C44.1,12.2,43.2,10.9,41.9,10.5z
	 M38,31.6c-2,4-6.5,8.1-13.4,12.3c-0.2,0-0.4,0.1-0.6,0.1s-0.4-0.1-0.5-0.2c-7-4.1-11.5-8.3-13.5-12.2C7.2,26,6.2,16.3,6,13.5
	c-0.1-0.7,0.6-1,0.8-1.1l0.8-0.3c2.3-0.8,5.9-2,7.9-3c3.8-1.9,5.6-3.3,7.1-4.4c0.2-0.2,0.4-0.3,0.6-0.5c0-0.1,0.3-0.2,0.7-0.2l0,0
	l0,0l0,0l0,0c0.4,0,0.7,0.1,0.8,0.2c0.2,0.2,0.4,0.3,0.6,0.5c1.4,1.1,3.2,2.5,7.1,4.4c2,1,5.5,2.2,7.9,3l0.8,0.3
	c0.2,0.1,0.8,0.3,0.8,1.1C41.8,16.3,40.8,26,38,31.6z M34.7,17.5l-6.3,6.3l-2.9-2.9c-0.4-0.4-1-0.4-1.4,0s-0.4,1,0,1.4l3.6,3.6
	c0.2,0.2,0.4,0.3,0.7,0.3s0.5-0.1,0.7-0.3l7-7c0.4-0.4,0.4-1,0-1.4S35.1,17.1,34.7,17.5z M15.5,18h14c0.3,0,0.5-0.2,0.5-0.5
	S29.8,17,29.5,17h-14c-0.3,0-0.5,0.2-0.5,0.5S15.2,18,15.5,18z M30.5,29h-15c-0.3,0-0.5,0.2-0.5,0.5s0.2,0.5,0.5,0.5h15
	c0.3,0,0.5-0.2,0.5-0.5S30.8,29,30.5,29z M15.5,24h5c0.3,0,0.5-0.2,0.5-0.5S20.8,23,20.5,23h-5c-0.3,0-0.5,0.2-0.5,0.5
	S15.2,24,15.5,24z"/>
</svg>
