<?xml version="1.0" encoding="utf-8"?>
<!-- Generator: Adobe Illustrator 21.0.0, SVG Export Plug-In . SVG Version: 6.00 Build 0)  -->
<svg version="1.1" xmlns="http://www.w3.org/2000/svg" xmlns:xlink="http://www.w3.org/1999/xlink" x="0px" y="0px"
	 viewBox="0 0 48 48" style="enable-background:new 0 0 48 48;" xml:space="preserve">
<style type="text/css">
	.st0{display:none;}
	.st1{display:inline;opacity:0.3;}
	.st2{fill:#ED1C24;}
	.st3{display:inline;}
	.st4{fill:none;stroke:#000000;}
</style>
<g id="_x34_8PX模板" class="st0">
	<g class="st1">
		<path class="st2" d="M46,2v44H2V2H46 M48,0H0v48h48V0L48,0z"/>
	</g>
	<g id="Page-1">
		<g id="Security-编排4" transform="translate(4.000000, 2.000000)" class="st3">
			<path id="Shape" d="M37.8,8.4c-2.1-0.7-6.3-2.1-8.4-3.1c-4.2-2.1-5.8-3.5-7.4-4.7c-0.6-0.5-1.3-0.7-2.1-0.7l0,0l0,0
				c-0.8,0-1.5,0.2-2.1,0.6c-1.6,1.2-3.2,2.6-7.4,4.7C8.3,6.2,4.1,7.6,2,8.3C0.6,8.8-0.2,10-0.1,11.4c0.4,4.6,1.5,13.5,4.2,19
				c3.2,6.3,11.1,11.2,14.2,13.1c0.5,0.3,1,0.4,1.6,0.4c0.6,0,1.1-0.1,1.6-0.4c3.1-1.9,11-6.8,14.2-13.1c2.7-5.5,3.8-14.4,4.2-18.8
				C40,10.1,39.1,8.8,37.8,8.4z M33.9,29.5c-2,4-6.5,8.1-13.4,12.3c-0.2,0-0.4,0.1-0.6,0.1c-0.2,0-0.4-0.1-0.5-0.2
				c-7-4.1-11.5-8.3-13.5-12.2c-2.8-5.6-3.8-15.3-4-18.1c-0.1-0.7,0.6-1,0.8-1.1L3.5,10c2.3-0.8,5.9-2,7.9-3
				c3.8-1.9,5.6-3.3,7.1-4.4c0.2-0.2,0.4-0.3,0.6-0.5c0-0.1,0.3-0.2,0.7-0.2h0.1H20c0.4,0,0.7,0.1,0.8,0.2c0.2,0.2,0.4,0.3,0.6,0.5
				c1.4,1.1,3.2,2.5,7.1,4.4c2,1,5.5,2.2,7.9,3l0.8,0.3c0.2,0.1,0.8,0.3,0.8,1.1C37.7,14.2,36.7,23.9,33.9,29.5z"/>
			<g id="Group-3" transform="translate(8.000000, 14.000000)">
				<g id="Group-2">
					<path id="Path" class="st4" d="M0.5,8.2L0.5,8.2c0.1,0.1,0.1,0.2,0.1,0.2c0,0,0,0.1,0,0.1c0,0,0,0,0,0c0,0,0,0,0,0
						c0,0,0,0.1,0.1,0.1c0,0,0,0,0.1,0h0c1.1,0,2,0.9,2,2.1c0,0.2-0.1,0.5-0.2,0.8c-0.1,0.2,0,0.5,0.1,0.7l0,0l1.6,0.9
						c0.1,0.1,0.2,0.1,0.3,0.1c0.2,0,0.3-0.1,0.4-0.2l0,0l0,0C5.6,12.4,6.2,12,6.9,12c0.7,0,1.6,0.4,1.9,1l0,0l0,0
						c0.1,0.1,0.3,0.2,0.5,0.2l0,0c0.1,0,0.2,0,0.2,0l0.1,0l1.7-0.9l0,0c0.2-0.2,0.3-0.5,0.2-0.7c-0.1-0.2-0.2-0.5-0.2-0.8
						c0-1.2,0.6-2.1,1.7-2.1c0.2,0,0.3-0.1,0.4-0.5c0.2-0.9,0.2-1.8,0-2.7C13.2,5.2,13.1,5,12.9,5h-0.1c-1,0-1.7-0.8-1.7-2.1
						c0-0.2,0.1-0.5,0.2-0.8c0.1-0.2,0-0.5-0.1-0.7l0,0L9.5,0.5C9.4,0.5,9.3,0.4,9.2,0.4C9,0.4,8.9,0.5,8.7,0.6l0,0l0,0
						C8.4,1.1,7.6,1.5,6.9,1.5c-0.6,0-1.2-0.3-1.6-0.9l0,0l0,0C5.2,0.5,5,0.4,4.8,0.4c0,0-0.1,0-0.2,0l0,0l-1.7,1l0,0
						C2.7,1.6,2.6,1.9,2.7,2.1c0.1,0.2,0.2,0.5,0.2,0.8l0,0c0,1.1-0.9,2-2,2C0.7,5,0.6,5.1,0.5,5.5C0.4,6.4,0.4,7.3,0.5,8.2L0.5,8.2
						z M0.7,8.5C0.7,8.5,0.7,8.5,0.7,8.5C0.7,8.5,0.7,8.5,0.7,8.5z"/>
					<path id="Oval-2" d="M6.9,9.2c1.3,0,2.3-1,2.3-2.3s-1-2.3-2.3-2.3s-2.3,1-2.3,2.3S5.6,9.2,6.9,9.2z M6.9,10.2
						c-1.8,0-3.3-1.5-3.3-3.3s1.5-3.3,3.3-3.3s3.3,1.5,3.3,3.3S8.7,10.2,6.9,10.2z"/>
				</g>
				<g id="Group-2-Copy" transform="translate(13.000000, 6.000000)">
					<path id="Path_1_" class="st4" d="M0.5,6.4c0,0.1,0.1,0.1,0.1,0.2c0,0,0,0,0,0.1c0,0,0,0,0,0c0,0,0,0,0,0c0,0,0,0,0,0
						c0,0,0,0,0,0h0c0.9,0,1.7,0.8,1.7,1.8c0,0.2-0.1,0.4-0.1,0.6c-0.1,0.1,0,0.3,0.1,0.4l0,0l1.3,0.7c0.1,0,0.1,0,0.2,0
						c0.1,0,0.2,0,0.3-0.1c0.3-0.5,0.8-0.8,1.3-0.8C6,9.3,6.7,9.7,7,10.1c0.1,0.1,0.2,0.1,0.3,0.1l0,0c0,0,0.1,0,0.1,0l0,0l1.3-0.7
						l0,0C8.9,9.4,8.9,9.2,8.8,9C8.8,8.8,8.7,8.6,8.7,8.4c0-1,0.5-1.7,1.4-1.7c0.1,0,0.1-0.1,0.2-0.3c0.1-0.7,0.1-1.4,0-2.1
						c0-0.2-0.1-0.3-0.2-0.3H10C9.1,4,8.6,3.3,8.6,2.3c0-0.2,0.1-0.4,0.1-0.6c0.1-0.1,0-0.3-0.1-0.4l0,0L7.4,0.5
						c-0.1,0-0.1-0.1-0.2-0.1c-0.1,0-0.2,0-0.3,0.1C6.7,1,6,1.3,5.4,1.3c-0.5,0-1-0.3-1.3-0.7C4,0.4,3.9,0.4,3.8,0.4
						c0,0-0.1,0-0.1,0l0,0L2.3,1.2l0,0C2.2,1.3,2.1,1.5,2.2,1.6c0.1,0.2,0.1,0.4,0.1,0.7l0,0C2.3,3.2,1.6,4,0.7,4
						C0.6,4,0.5,4.1,0.5,4.3C0.4,5,0.4,5.7,0.5,6.4z M-0.3,7C-0.3,7-0.3,7-0.3,7C-0.3,7-0.3,7-0.3,7L-0.3,7z"/>
					<path id="Oval-2_1_" d="M5.4,7.2c1,0,1.8-0.8,1.8-1.8S6.4,3.6,5.4,3.6S3.6,4.4,3.6,5.4S4.4,7.2,5.4,7.2z M5.4,8
						C4,8,2.8,6.8,2.8,5.4S4,2.8,5.4,2.8S8,4,8,5.4S6.8,8,5.4,8z"/>
				</g>
			</g>
		</g>
	</g>
</g>
<g id="图层_2">
	<path d="M18.3,22.9L18.3,22.9c0.1,0.1,0.2,0.1,0.3,0.1c0.1,0,0.3-0.1,0.4-0.2c0.1-0.2,0.1-0.5-0.1-0.6c-1.2-0.9-1.8-2.2-1.8-3.7
		c0-2.5,2-4.6,4.6-4.6c2.5,0,4.6,2,4.6,4.6c0,0.3,0,0.6-0.1,0.9c0,0.2,0.1,0.5,0.3,0.5c0.2,0,0.5-0.1,0.5-0.3
		c0.1-0.4,0.1-0.7,0.1-1.1c0-3-2.4-5.4-5.4-5.4c-3,0-5.4,2.4-5.4,5.4C16.1,20.2,16.9,21.9,18.3,22.9z M29.6,21.8L29.6,21.8
		c-0.2,0-0.4,0-0.7,0.1c0,0,0,0-0.1,0c-0.4-0.6-1.1-1-1.8-1c-0.3,0-0.5,0-0.7,0.1c-0.4-0.7-1.1-1.1-1.8-1.1c-0.1,0-0.3,0-0.4,0v-1.2
		c0-1.2-1-2.2-2.2-2.2c-1.2,0-2.2,1-2.2,2.2v5.8l-0.3-0.3c-0.4-0.4-1-0.6-1.6-0.6c-0.6,0-1.2,0.2-1.6,0.6c-0.8,0.8-1.1,2.3-0.1,3.3
		l5,5c0.1,0.1,0.2,0.2,0.4,0.3c0.9,0.8,2.1,1.3,4.4,1.3c5.5,0,5.9-3.2,5.9-6.5V24C31.7,22.8,30.8,21.8,29.6,21.8z M30.9,27.6
		c0,3.2-0.4,5.6-5.1,5.6c-2.1,0-3.1-0.4-3.9-1.1l-0.1,0c-0.1-0.1-0.2-0.1-0.3-0.2l-5-5c-0.7-0.7-0.3-1.6,0.1-2
		c0.2-0.2,0.6-0.4,1-0.4c0.4,0,0.7,0.1,0.9,0.4l1.8,1.8v-7.9c0-0.7,0.6-1.3,1.4-1.3c0.7,0,1.3,0.6,1.3,1.3v2.5l0,0v2.6
		c0,0.2,0.2,0.4,0.4,0.4c0.2,0,0.4-0.2,0.4-0.4v-3c0.1,0,0.3-0.1,0.4-0.1c0.6,0,1,0.3,1.2,0.9l0.1,0.2v2.9c0,0.2,0.2,0.4,0.4,0.4
		c0.2,0,0.4-0.2,0.4-0.4v-2.9c0.1,0,0.3-0.1,0.4-0.1c0.6,0,1,0.3,1.2,0.9l0,0.1v2.9c0,0.2,0.2,0.4,0.4,0.4c0.2,0,0.4-0.2,0.4-0.4
		v-2.8c0.1-0.1,0.3-0.1,0.5-0.1c0.7,0,1.3,0.6,1.3,1.3L30.9,27.6L30.9,27.6L30.9,27.6z M41.9,10.5c-2.1-0.7-6.3-2.1-8.4-3.1
		c-4.2-2.1-5.8-3.5-7.4-4.7C25.6,2.2,24.9,2,24.1,2c-0.8,0-1.5,0.2-2.1,0.6c-1.6,1.2-3.2,2.6-7.4,4.7c-2.1,1-6.3,2.4-8.4,3.1
		c-1.4,0.5-2.2,1.7-2.1,3.1c0.4,4.6,1.5,13.5,4.2,19c3.2,6.3,11.1,11.2,14.2,13.1c0.5,0.3,1,0.4,1.6,0.4c0.6,0,1.1-0.1,1.6-0.4
		c3.1-1.9,11-6.8,14.2-13.1c2.7-5.5,3.8-14.4,4.2-18.8C44.1,12.2,43.2,10.9,41.9,10.5z M38.1,31.6c-2,4-6.5,8.1-13.4,12.3
		c-0.2,0-0.4,0.1-0.6,0.1c-0.2,0-0.4-0.1-0.5-0.2c-7-4.1-11.5-8.3-13.5-12.2c-2.8-5.6-3.8-15.3-4-18.1c-0.1-0.7,0.6-1,0.8-1.1
		l0.8-0.3c2.3-0.8,5.9-2,7.9-3c3.8-1.9,5.6-3.3,7.1-4.4c0.2-0.2,0.4-0.3,0.6-0.5C23.3,4.1,23.6,4,24,4h0.2c0.4,0,0.7,0.1,0.8,0.2
		c0.2,0.2,0.4,0.3,0.6,0.5c1.4,1.1,3.2,2.5,7.1,4.4c2,1,5.5,2.2,7.9,3l0.8,0.3c0.2,0.1,0.8,0.3,0.8,1.1C41.8,16.3,40.8,26,38.1,31.6
		z"/>
</g>
</svg>
