<?xml version="1.0" encoding="utf-8"?>
<!-- Generator: Adobe Illustrator 21.0.0, SVG Export Plug-In . SVG Version: 6.00 Build 0)  -->
<svg version="1.1" id="图层_1" xmlns="http://www.w3.org/2000/svg" xmlns:xlink="http://www.w3.org/1999/xlink" x="0px" y="0px"
	 viewBox="0 0 48 48" style="enable-background:new 0 0 48 48;" xml:space="preserve">
<path d="M10.3,30.2c-0.7,0.4-1,1.3-0.5,2c0.4,0.7,1.3,1,2,0.5c0.7-0.4,1-1.3,0.5-2C11.9,30,11,29.8,10.3,30.2z M24,10.5
	c0.8,0,1.5-0.7,1.5-1.5S24.8,7.5,24,7.5S22.5,8.2,22.5,9S23.2,10.5,24,10.5z M24,15.5c-4.7,0-8.5,3.8-8.5,8.5c0,4.7,3.8,8.5,8.5,8.5
	c4.7,0,8.5-3.8,8.5-8.5C32.5,19.3,28.7,15.5,24,15.5z M24,31.5c-4.1,0-7.5-3.4-7.5-7.5s3.4-7.5,7.5-7.5s7.5,3.4,7.5,7.5
	S28.1,31.5,24,31.5z M37.7,30.2c-0.7-0.4-1.6-0.2-2,0.5c-0.4,0.7-0.2,1.6,0.5,2c0.7,0.4,1.6,0.2,2-0.5
	C38.7,31.5,38.5,30.6,37.7,30.2z M36.6,27.1c0.3-1,0.4-2.1,0.4-3.1c0-1-0.1-2.1-0.4-3.1c-0.1-0.2-0.2-0.4-0.5-0.4
	c-1.2-0.1-2.3-0.8-3-1.8c-0.6-1.1-0.7-2.4-0.1-3.5c0.1-0.2,0.1-0.4-0.1-0.6c-1.5-1.5-3.4-2.5-5.4-3.1c-0.2-0.1-0.4,0-0.6,0.2
	c-0.7,1-1.8,1.7-3.1,1.7c-1.2,0-2.4-0.6-3.1-1.7c-0.1-0.2-0.3-0.3-0.6-0.2c-2,0.6-3.9,1.7-5.4,3.1c-0.2,0.2-0.2,0.4-0.1,0.6
	c0.6,1.1,0.5,2.4-0.1,3.5c-0.6,1.1-1.7,1.8-3,1.8c-0.2,0-0.4,0.2-0.5,0.4C11.1,21.9,11,23,11,24c0,1,0.1,2.1,0.4,3.1
	c0.1,0.2,0.2,0.4,0.5,0.4c1.2,0.1,2.3,0.8,3,1.8c0.6,1.1,0.7,2.4,0.1,3.5c-0.1,0.2-0.1,0.4,0.1,0.6c1.5,1.5,3.4,2.5,5.4,3.1
	c0,0,0.1,0,0.1,0c0.2,0,0.3-0.1,0.4-0.2c0.7-1,1.8-1.7,3.1-1.7c1.2,0,2.4,0.6,3.1,1.7c0.1,0.2,0.3,0.3,0.6,0.2
	c2-0.6,3.9-1.7,5.4-3.1c0.2-0.2,0.2-0.4,0.1-0.6c-0.6-1.1-0.5-2.4,0.1-3.5c0.6-1.1,1.7-1.8,3-1.8C36.4,27.5,36.6,27.3,36.6,27.1z
	 M35.7,26.5c-1.4,0.2-2.7,1-3.4,2.3c-0.7,1.3-0.8,2.8-0.3,4.1c-1.3,1.1-2.8,2-4.4,2.5c-0.9-1.1-2.2-1.8-3.7-1.8
	c-1.4,0-2.8,0.7-3.7,1.8c-1.6-0.5-3.1-1.4-4.4-2.5c0.5-1.3,0.4-2.8-0.3-4.1c-0.7-1.3-2-2.1-3.4-2.3C12.1,25.7,12,24.8,12,24
	c0-0.8,0.1-1.7,0.3-2.5c1.4-0.2,2.7-1,3.4-2.3c0.7-1.3,0.8-2.8,0.3-4.1c1.3-1.1,2.8-2,4.4-2.5c0.9,1.1,2.2,1.8,3.7,1.8
	c1.4,0,2.8-0.7,3.7-1.8c1.6,0.5,3.1,1.4,4.4,2.5c-0.5,1.3-0.4,2.8,0.3,4.1c0.7,1.3,2,2.1,3.4,2.3c0.2,0.9,0.3,1.7,0.3,2.5
	C36,24.8,35.9,25.7,35.7,26.5z M24,2C11.9,2,2,11.9,2,24s9.9,22,22,22s22-9.9,22-22S36.1,2,24,2z M24,44C13,44,4,35,4,24
	C4,13,13,4,24,4c11,0,20,9,20,20C44,35,35,44,24,44z"/>
</svg>
