<svg id="图层_1" data-name="图层 1" xmlns="http://www.w3.org/2000/svg" viewBox="0 0 40 40"><title>Image</title><path d="M6,16a.94.94,0,0,0,1-1V8A2,2,0,0,1,9,6h7a.94.94,0,0,0,1-1,.94.94,0,0,0-1-1H9A4,4,0,0,0,5,8v7A.94.94,0,0,0,6,16ZM41,4H34a.94.94,0,0,0-1,1,.94.94,0,0,0,1,1h7a2,2,0,0,1,2,2v8a1,1,0,0,0,2,0V8A4,4,0,0,0,41,4ZM11,15.5v17A1.54,1.54,0,0,0,12.5,34h25A1.54,1.54,0,0,0,39,32.5v-17A1.54,1.54,0,0,0,37.5,14h-25A1.54,1.54,0,0,0,11,15.5Zm27,17a.47.47,0,0,1-.5.5h-25a.47.47,0,0,1-.5-.5V30.7l6.7-5.3,4.5,4.4c.1.1.2.1.4.1s.3-.1.4-.1L34,19.6l4,4.1Zm0-17v6.8l-3.6-3.7a.52.52,0,0,0-.4-.2c-.1,0-.3.1-.4.1L23.5,28.8l-4.4-4.4a.48.48,0,0,0-.7,0L12,29.5v-14a.47.47,0,0,1,.5-.5h25A.47.47,0,0,1,38,15.5ZM16,42H9a2,2,0,0,1-2-2V33a.94.94,0,0,0-1-1,.94.94,0,0,0-1,1v7a4,4,0,0,0,4,4h7a1,1,0,0,0,0-2Zm5-19.5A2.5,2.5,0,1,0,18.5,20,2.48,2.48,0,0,0,21,22.5Zm0-4A1.5,1.5,0,1,1,19.5,20,1.54,1.54,0,0,1,21,18.5ZM44,32a.94.94,0,0,0-1,1v7a2,2,0,0,1-2,2H34a1,1,0,0,0,0,2h7a4,4,0,0,0,4-4V33A.94.94,0,0,0,44,32Z" transform="translate(-5 -4)"/></svg>