<?xml version="1.0" encoding="utf-8"?>
<!-- Generator: Adobe Illustrator 21.0.0, SVG Export Plug-In . SVG Version: 6.00 Build 0)  -->
<svg version="1.1" id="图层_1" xmlns="http://www.w3.org/2000/svg" xmlns:xlink="http://www.w3.org/1999/xlink" x="0px" y="0px"
	 viewBox="0 0 48 48" style="enable-background:new 0 0 48 48;" xml:space="preserve">
<style type="text/css">
	.st0{fill:#231816;}
</style>
<path d="M16,22.5c1.7,0,3-1.3,3-3s-1.3-3-3-3s-3,1.3-3,3S14.3,22.5,16,22.5z M16,17.5c1.1,0,2,0.9,2,2s-0.9,2-2,2s-2-0.9-2-2
	S14.9,17.5,16,17.5z M43.5,9.5h-16C27.2,9.5,27,9.8,27,10s0.2,0.5,0.5,0.5h16c0.3,0,0.5,0.2,0.5,0.5v13.5H27.5
	c-0.3,0-0.5,0.2-0.5,0.5s0.2,0.5,0.5,0.5H44V38c0,0.3-0.2,0.5-0.5,0.5h-16c-0.3,0-0.5,0.2-0.5,0.5s0.2,0.5,0.5,0.5h16
	c0.8,0,1.5-0.7,1.5-1.5V11C45,10.2,44.3,9.5,43.5,9.5z M37.5,17.5c0.3,0,0.5-0.2,0.5-0.5s-0.2-0.5-0.5-0.5h-1
	c-0.3,0-0.5,0.2-0.5,0.5s0.2,0.5,0.5,0.5H37.5z M31.5,21c0,0.3,0.2,0.5,0.5,0.5h8.5c0.3,0,0.5-0.2,0.5-0.5s-0.2-0.5-0.5-0.5H32
	C31.7,20.5,31.5,20.8,31.5,21z M24,4c-0.6,0-1,0.4-1,1v3.5H5c-1.1,0-2,0.9-2,2v28c0,1.1,0.9,2,2,2h18V43c0,0.6,0.4,1,1,1s1-0.4,1-1
	V5C25,4.4,24.6,4,24,4z M23,38.5H5v-4.2l9.4-6.6l4.7,4.7c0.2,0.2,0.5,0.2,0.7,0l3.1-3.1V38.5z M23,27.8l-3.5,3.5l-4.6-4.6
	c-0.2-0.2-0.4-0.2-0.6-0.1L5,33.1V10.5h18V27.8z"/>
</svg>
