<?xml version="1.0" encoding="utf-8"?>
<!-- Generator: Adobe Illustrator 21.0.0, SVG Export Plug-In . SVG Version: 6.00 Build 0)  -->
<svg version="1.1" id="图层_1" xmlns="http://www.w3.org/2000/svg" xmlns:xlink="http://www.w3.org/1999/xlink" x="0px" y="0px"
	 viewBox="0 0 48 48" style="enable-background:new 0 0 48 48;" xml:space="preserve">
<path d="M5,7h38c0.6,0,1-0.4,1-1s-0.4-1-1-1H5C4.4,5,4,5.4,4,6S4.4,7,5,7z M43,41H5c-0.6,0-1,0.4-1,1s0.4,1,1,1h38c0.6,0,1-0.4,1-1
	S43.6,41,43,41z M39,10H9c-2.8,0-5,2.2-5,5v18c0,2.8,2.2,5,5,5h30c2.8,0,5-2.2,5-5V15C44,12.2,41.8,10,39,10z M42,33
	c0,1.7-1.3,3-3,3H9c-1.7,0-3-1.3-3-3V15c0-1.7,1.3-3,3-3h30c1.7,0,3,1.3,3,3V33z M28.9,22.7l-6.6-4.1c-0.2-0.1-0.5-0.2-0.8-0.2h0
	c-0.8,0-1.5,0.7-1.5,1.5v8.2c0,0.8,0.7,1.5,1.5,1.5c0.3,0,0.6-0.1,0.8-0.2l6.6-4.1c0.4-0.3,0.7-0.8,0.7-1.3S29.3,23,28.9,22.7z
	 M28.3,24.4l-6.6,4.1c-0.1,0.1-0.2,0.1-0.3,0.1c-0.3,0-0.5-0.2-0.5-0.5v-8.2c0-0.3,0.2-0.5,0.5-0.5c0.1,0,0.2,0,0.3,0.1l6.6,4.1
	C28.6,23.8,28.6,24.2,28.3,24.4z"/>
</svg>
