<?xml version="1.0" encoding="utf-8"?>
<!-- Generator: Adobe Illustrator 21.0.0, SVG Export Plug-In . SVG Version: 6.00 Build 0)  -->
<svg version="1.1" id="图层_1" xmlns="http://www.w3.org/2000/svg" xmlns:xlink="http://www.w3.org/1999/xlink" x="0px" y="0px"
	 viewBox="0 0 48 48" style="enable-background:new 0 0 48 48;" xml:space="preserve">
<style type="text/css">
	.st0{fill:#060001;}
	.st1{fill:#040000;}
	.st2{fill:none;stroke:#000000;stroke-miterlimit:10;}
	.st3{fill:#221815;}
	.st4{fill:#080102;}
	.st5{fill:none;stroke:#000000;stroke-width:2;stroke-linecap:round;stroke-linejoin:round;stroke-miterlimit:10;}
	.st6{fill:#070001;}
</style>
<path d="M20.9,31.2c-1.9,1.9-4.4,2.9-7,2.9s-5.1-1-7-2.9S3.9,26.7,3.9,24s1-5.2,2.9-7.2s4.4-2.9,7-2.9s5.1,1,7,2.9L31,27.3
	c1.7,1.7,4.8,1.7,6.5,0c0.8-1,1.3-2.1,1.3-3.3s-0.4-2.3-1.3-3.3c-1-1-2.1-1.4-3.2-1.4c-0.6,0-1,0.4-1,1s0.4,1,1,1
	c0.8,0,1.3,0.2,1.9,0.8c0.6,0.6,0.8,1.2,0.8,1.9s-0.2,1.4-0.8,1.9c-1.1,1-2.9,1-3.8,0L22.2,15.5C19.9,13.2,17,12,13.8,12
	s-6.1,1.2-8.4,3.5S2,20.7,2,24s1.1,6.2,3.4,8.5s5.1,3.5,8.4,3.5c3,0,6.1-1.2,8.4-3.5c0.4-0.4,0.4-1,0-1.4
	C21.8,30.8,21.2,30.8,20.9,31.2z M18.2,19.5l10.1,10.3c1.5,1.7,3.4,2.5,5.7,2.5s4.4-0.8,5.7-2.3c1.7-1.5,2.5-3.7,2.5-5.8
	s-1-4.3-2.5-5.8c-2.3-2.3-5.9-2.9-9-1.7C30.2,17,30,17.4,30.2,18c0.4,0.6,0.8,0.8,1.3,0.6c2.3-1,5.1-0.4,6.9,1.4
	c1.3,1.2,1.9,2.9,1.9,4.5s-0.8,3.3-1.9,4.5c-2.5,2.3-6.7,2.3-9,0L19.3,18.4c-1.5-1.7-3.6-2.5-5.7-2.5s-4.2,1-5.7,2.5
	c-1.7,1.5-2.5,3.7-2.5,5.8s1,4.3,2.5,5.8c2.3,2.3,5.9,2.9,9,1.7c0.6-0.4,0.8-0.8,0.6-1.4c-0.4-0.6-0.8-0.8-1.3-0.6
	c-2.3,1-5.1,0.4-6.9-1.4c-1.3-1.2-1.9-2.7-1.9-4.5c0-1.5,0.8-3.3,1.9-4.5C11.7,17.2,15.9,17.2,18.2,19.5z M42.6,15.5
	c-2.3-2.3-5.1-3.5-8.4-3.5s-6.1,1.2-8.4,3.5c-0.4,0.4-0.4,1,0,1.4s1,0.4,1.3,0c1.9-1.9,4.4-2.9,7-2.9s5.1,1,7,2.9s2.9,4.5,2.9,7.2
	s-1,5.2-2.9,7.2s-4.4,2.9-7,2.9s-5.1-1-7-2.9L17,20.7c-1.7-1.7-4.8-1.7-6.5,0c-0.8,1-1.3,2.1-1.3,3.3s0.4,2.5,1.3,3.3
	c1,0.8,2.1,1.4,3.2,1.4c0.6,0,1-0.4,1-1s-0.4-1-1-1c-0.8,0-1.3-0.2-1.9-0.8c-0.6-0.6-0.8-1.2-0.8-1.9s0.2-1.4,0.8-1.9
	c1-1,2.9-1,3.8,0l9.9,10.5c2.3,2.3,5.1,3.5,8.4,3.5s6.1-1.2,8.6-3.5c2.3-2.3,3.4-5.2,3.4-8.5S44.9,17.8,42.6,15.5z"/>
</svg>
