<svg id="图层_1" data-name="图层 1" xmlns="http://www.w3.org/2000/svg" viewBox="0 0 42.04 44"><title>IoTA-iotanalytics</title><path id="服务图标-IoT平台行业分析套件IoTAnalytics" d="M17.35,5.16a1,1,0,0,1,1.27.58A1,1,0,0,1,17.94,7a18.56,18.56,0,0,0-7.43,4.6,1,1,0,1,1-1.37-1.37A20.51,20.51,0,0,1,17.35,5.16ZM3.66,19.82a.93.93,0,0,1,1.18-.68,1,1,0,0,1,.68,1.17,19.58,19.58,0,0,0-.59,4.79,18.23,18.23,0,0,0,.59,4.7A1,1,0,0,1,4.84,31a1,1,0,0,1-1.18-.69A18.33,18.33,0,0,1,3,25.1,18.6,18.6,0,0,1,3.66,19.82ZM10.9,41.53A1,1,0,0,1,12.07,40a19.21,19.21,0,0,0,6.75,3.52,1,1,0,0,1,.68,1.18,1,1,0,0,1-1.17.68A20.58,20.58,0,0,1,10.9,41.53Zm18.77,3.81a1,1,0,0,1-1.17-.68,1,1,0,0,1,.68-1.18,19,19,0,0,0,6.75-3.42,1,1,0,0,1,1.17,1.57A22.07,22.07,0,0,1,29.67,45.34ZM44.24,30.68a1,1,0,0,1-1.86-.49,17.56,17.56,0,0,0,.69-5,20.39,20.39,0,0,0-.59-4.89,1,1,0,0,1,1.86-.49A19.75,19.75,0,0,1,45,25.2,21.76,21.76,0,0,1,44.24,30.68ZM39,10.34a1,1,0,1,1-1.37,1.37A19.6,19.6,0,0,0,30.06,7a1,1,0,0,1-.58-1.27.91.91,0,0,1,1.27-.58A21.24,21.24,0,0,1,39,10.34ZM16.86,20.8l-.1.2a8.61,8.61,0,0,0-1.07,4.1,8.23,8.23,0,0,0,.19,1.57c.1.29-.09.49-.39.58s-.49-.09-.58-.39a10.43,10.43,0,0,1-.2-1.76,10.15,10.15,0,0,1,1-4.2L8.16,16.6a2,2,0,0,1-.78.19,1.47,1.47,0,1,1,1.46-1.46c0,.19,0,.29-.09.39L16.18,20a9.25,9.25,0,0,1,4.2-3.52c.3-.1.49,0,.69.29s0,.49-.3.69A8.13,8.13,0,0,0,16.86,20.8Zm7.63,13.59v8.9a1.46,1.46,0,0,1,1,1.37,1.47,1.47,0,0,1-2.94,0,1.37,1.37,0,0,1,1-1.37v-8.9a9.33,9.33,0,0,1-4.59-1.47.6.6,0,0,1-.2-.78c.2-.19.49-.29.68-.09A8.54,8.54,0,0,0,24,33.41a8.79,8.79,0,0,0,4.89-1.56c.19-.2.49-.1.68.1a.48.48,0,0,1-.09.68A9.33,9.33,0,0,1,24.49,34.39ZM39.84,16.5l-7.53,4.4a8.8,8.8,0,0,1,1,4.2,8.29,8.29,0,0,1-.1,1.57.5.5,0,0,1-1-.2,6.33,6.33,0,0,0,.1-1.37,8,8,0,0,0-1.07-4l-.1-.19a8.42,8.42,0,0,0-3.82-3.33.5.5,0,0,1-.29-.68.51.51,0,0,1,.69-.29,9,9,0,0,1,4.1,3.52l7.43-4.31c0-.09-.09-.29-.09-.39a1.47,1.47,0,0,1,2.93,0,1.43,1.43,0,0,1-1.47,1.37A1.14,1.14,0,0,1,39.84,16.5ZM10.12,33.81l10.75-7.24a4,4,0,0,1-.29-1.47,3.46,3.46,0,0,1,2.93-3.42V9a3.4,3.4,0,0,1-2.93-3.42A3.42,3.42,0,1,1,24.49,9V21.68a3.4,3.4,0,0,1,2.93,3.42,3.2,3.2,0,0,1-.29,1.37l11.05,6.94a3.46,3.46,0,1,1-1,2.45,4.65,4.65,0,0,1,.39-1.66L26.54,27.35a3.2,3.2,0,0,1-2.64,1.17,3.4,3.4,0,0,1-2.54-1.07L10.6,34.68a4.94,4.94,0,0,1,.2,1.18,3.46,3.46,0,0,1-3.42,3.42,3.42,3.42,0,1,1,0-6.84A3.41,3.41,0,0,1,10.12,33.81Zm15.93-7.44a2.71,2.71,0,0,0,.39-1.27,2.44,2.44,0,0,0-4.88,0A2.2,2.2,0,0,0,22,26.47v.1A2.67,2.67,0,0,0,24,27.65a2.7,2.7,0,0,0,2.05-1.28ZM24,8a2.41,2.41,0,0,0,2.44-2.44,2.44,2.44,0,1,0-4.88,0A2.41,2.41,0,0,0,24,8ZM20.28,19.92A.49.49,0,0,1,21,20a.48.48,0,0,1-.1.68,5.46,5.46,0,0,0-2.25,4.4.46.46,0,0,1-.49.49.46.46,0,0,1-.49-.49A6.35,6.35,0,0,1,20.28,19.92Zm1.18,11a.53.53,0,1,1,.39-1c.1,0,.19.1.29.1a5.62,5.62,0,0,0,1.86.29,5.21,5.21,0,0,0,2.15-.49c.1,0,.2-.09.29-.09a.66.66,0,0,1,.69.19.65.65,0,0,1-.2.69c-.09.09-.19.09-.39.19a5.63,5.63,0,0,1-2.54.49A5.3,5.3,0,0,1,21.85,31C21.65,31.07,21.56,31,21.46,31Zm8.9-5.87a.46.46,0,0,1-.49.49.46.46,0,0,1-.49-.49v-.29a5.66,5.66,0,0,0-2.25-4.11A.48.48,0,0,1,27,20a.49.49,0,0,1,.69-.1,6.19,6.19,0,0,1,2.64,4.79Zm7.82,10.76a2.45,2.45,0,1,0,2.44-2.45A2.41,2.41,0,0,0,38.18,35.86Zm-28.36,0A2.45,2.45,0,1,0,7.38,38.3,2.42,2.42,0,0,0,9.82,35.86Z" transform="translate(-2.98 -2.13)"/></svg>