<svg id="图层_1" data-name="图层 1" xmlns="http://www.w3.org/2000/svg" viewBox="0 0 40.11 43.83"><title>IoTStudio</title><g id="icon_OceanBooster" data-name="icon/OceanBooster"><g id="Group-4"><path id="形状结合" d="M27.73,3.13l.27.15,12,7a8,8,0,0,1,4,6.93V31.08a8,8,0,0,1-4,6.93L28,45a8,8,0,0,1-8,0L8,38a8,8,0,0,1-4-6.93V17.17a8,8,0,0,1,4-6.93L20,3.28A8,8,0,0,1,27.73,3.13ZM21,5,9,12a6,6,0,0,0-3,5.2V31.08a6,6,0,0,0,3,5.2l12.05,7a6,6,0,0,0,6,0l12-7a6,6,0,0,0,3-5.2V17.17a6,6,0,0,0-3-5.2L27,5l-.23-.13A6,6,0,0,0,21,5Zm3.11,13.46.08,0L27,20.11a.51.51,0,0,1,.18.69.5.5,0,0,1-.6.22l-.08,0-2.53-1.46L14.11,25.2v5.37l4.65,2.67L21,32a.5.5,0,0,1,.58.82l-.08,0L19,34.25a.48.48,0,0,1-.42,0l-.08,0-5.15-3a.51.51,0,0,1-.25-.35v-6a.49.49,0,0,1,.17-.38l.08-.05,10.33-6A.52.52,0,0,1,24.11,18.47Zm8,4.53.08,0,2.49,1.44a.51.51,0,0,1,.25.34v6a.5.5,0,0,1-.17.38l-.08.05-5.15,3a.51.51,0,0,1-.42,0l-.08,0-10.33-6a.47.47,0,0,1-.24-.34v-3.3a.5.5,0,0,1,.5-.5.49.49,0,0,1,.49.41v3l9.83,5.67,4.65-2.67V25.2l-2.24-1.3a.49.49,0,0,1-.18-.68A.5.5,0,0,1,32.07,23ZM24,12.28l.08,0,5.17,3a.53.53,0,0,1,.24.34v12a.53.53,0,0,1-.18.38l-.07,0-2.79,1.61a.49.49,0,0,1-.68-.19.48.48,0,0,1,.11-.63l.07-.05,2.54-1.46V16L23.8,13.33,19.14,16V18.6a.5.5,0,0,1-.5.5.51.51,0,0,1-.49-.41v-3a.49.49,0,0,1,.18-.38l.07,0,5.16-3A.48.48,0,0,1,24,12.28Z" transform="translate(-3.95 -2.21)"/></g></g></svg>