<svg id="图层_1" data-name="图层 1" xmlns="http://www.w3.org/2000/svg" viewBox="0 0 41.03 44"><defs><style>.cls-1{fill:#404040;fill-rule:evenodd;}</style></defs><title>iPower</title><path class="cls-1" d="M15.83,41.48H8.65a2.2,2.2,0,0,1-2.05-2V32.27a1.1,1.1,0,0,0-1-1,1.1,1.1,0,0,0-1,1v7.16a4,4,0,0,0,4.1,4.1h7.18a1,1,0,1,0,0-2.05ZM5.57,14.87a1.1,1.1,0,0,0,1-1V6.69A2.2,2.2,0,0,1,8.65,4.64h7.18a1.11,1.11,0,0,0,1-1,1.11,1.11,0,0,0-1-1H8.65a4,4,0,0,0-4.1,4.09v7.16a1.1,1.1,0,0,0,1,1Zm33.34,4.35c0-.25-.26-.25-.51-.25H24.29l5.39-17.4s0-.51-.26-.51h-.51l-17.44,23c-.26.26-.26.52,0,.52,0,.25,0,.51.26.51h14.1L20.45,44.55s0,.51.25.51H21c.26,0,.26,0,.51-.26L38.91,19.73v-.51ZM22.24,41.73,27.11,24.6v-.26c-.25-.26-.25-.26-.51-.26H12.75L27.88,4.13,23,19.48v.25c.26.26.26.26.51.26H37.37L22.24,41.73ZM44.55,31.25a1.1,1.1,0,0,0-1,1v7.16a2.2,2.2,0,0,1-2.05,2H34.3a1,1,0,1,0,0,2.05h7.18a4.06,4.06,0,0,0,4.1-4.1V32.27a1.1,1.1,0,0,0-1-1ZM41.48,2.6H34.3a1.1,1.1,0,0,0-1,1,1.1,1.1,0,0,0,1,1h7.18a2.21,2.21,0,0,1,2.05,2.05v8.18a1,1,0,1,0,2,0V6.69a4,4,0,0,0-4.1-4.09Z" transform="translate(-4.55 -1.06)"/></svg>