<?xml version="1.0" encoding="utf-8"?>
<!-- Generator: Adobe Illustrator 21.0.0, SVG Export Plug-In . SVG Version: 6.00 Build 0)  -->
<svg version="1.1" id="图层_1" xmlns="http://www.w3.org/2000/svg" xmlns:xlink="http://www.w3.org/1999/xlink" x="0px" y="0px"
	 viewBox="0 0 48 48" style="enable-background:new 0 0 48 48;" xml:space="preserve">
<path d="M22.5,26.8l3.6-7.4c0.1-0.2,0.3-0.3,0.4-0.3c0.1,0,0.3,0,0.5,0.2l4.6,7.9c0.3,0.5,0.8,0.7,1.3,0.7h2.6
	c0.3,0,0.5-0.2,0.5-0.5S35.8,27,35.5,27h-2.6c-0.2,0-0.3-0.1-0.4-0.2l-4.6-7.9c-0.3-0.5-0.8-0.8-1.4-0.7c-0.6,0-1.1,0.3-1.3,0.8
	l-3.6,7.4c-0.1,0.2-0.3,0.3-0.4,0.3c-0.1,0-0.3,0-0.4-0.2l-1.2-1.7c-0.3-0.4-0.8-0.6-1.2-0.6c-0.5,0-1,0.3-1.2,0.7l-1.3,2
	c-0.1,0.1-0.2,0.2-0.4,0.2h-2.9c-0.3,0-0.5,0.2-0.5,0.5s0.2,0.5,0.5,0.5h2.9c0.5,0,1-0.2,1.2-0.7l1.3-2c0.1-0.1,0.2-0.2,0.4-0.2
	c0.1,0,0.3,0.1,0.4,0.2L20,27c0.3,0.4,0.8,0.7,1.3,0.6C21.8,27.6,22.3,27.3,22.5,26.8z M43.4,21.1C42.4,11.5,34.1,4,24,4
	S5.6,11.5,4.6,21.1C3.1,21.5,2,22.9,2,24.5v5C2,31.4,3.6,33,5.5,33S9,31.4,9,29.5v-5c0-1.5-1-2.8-2.4-3.3C7.5,12.7,15,6,24,6
	s16.5,6.7,17.4,15.2C40,21.7,39,23,39,24.5v5c0,1.3,0.7,2.5,1.8,3.1c-2.2,5.9-7.9,10-14.3,10.4c0-0.5-0.5-1-1-1h-3c-0.6,0-1,0.4-1,1
	s0.4,1,1,1h3c7.3,0,13.8-4.5,16.3-11.1C42,33,42.2,33,42.5,33c1.9,0,3.5-1.6,3.5-3.5v-5C46,22.9,44.9,21.5,43.4,21.1z M7,24.5v5
	C7,30.3,6.3,31,5.5,31S4,30.3,4,29.5v-5C4,23.7,4.7,23,5.5,23S7,23.7,7,24.5z M44,29.5c0,0.8-0.7,1.5-1.5,1.5S41,30.3,41,29.5v-5
	c0-0.8,0.7-1.5,1.5-1.5s1.5,0.7,1.5,1.5V29.5z"/>
</svg>
