<?xml version="1.0" encoding="utf-8"?>
<!-- Generator: Adobe Illustrator 21.0.0, SVG Export Plug-In . SVG Version: 6.00 Build 0)  -->
<svg version="1.1" id="图层_1" xmlns="http://www.w3.org/2000/svg" xmlns:xlink="http://www.w3.org/1999/xlink" x="0px" y="0px"
	 viewBox="0 0 44 44" style="enable-background:new 0 0 44 44;" xml:space="preserve">
<path d="M37.4,34c0.9-1.2,1.4-2.6,1.4-4.1c0-3.8-3.1-6.9-6.9-6.9S25,26.1,25,29.9s3.1,6.9,6.9,6.9c1.5,0,2.9-0.5,4.1-1.4l3.3,3.3
	c0.2,0.2,0.5,0.3,0.7,0.3s0.5-0.1,0.7-0.3c0.4-0.4,0.4-1,0-1.4L37.4,34z M35,33.7c-0.9,0.7-2,1.1-3.1,1.1c-2.7,0-4.9-2.2-4.9-4.9
	s2.2-4.9,4.9-4.9s4.9,2.2,4.9,4.9C36.8,31.4,36.1,32.7,35,33.7z M16.5,12.9c0-1.9-1.6-3.5-3.5-3.5S9.5,11,9.5,12.9
	c0,1.9,1.6,3.5,3.5,3.5S16.5,14.9,16.5,12.9z M10.5,12.9c0-1.4,1.1-2.5,2.5-2.5s2.5,1.1,2.5,2.5c0,1.4-1.1,2.5-2.5,2.5
	S10.5,14.3,10.5,12.9z M38.1,4H5.9C4.3,4,3,5.3,3,6.9v28.2C3,36.7,4.3,38,5.9,38H24c0.6,0,1-0.4,1-1s-0.4-1-1-1H5.9
	C5.4,36,5,35.6,5,35.1V6.9C5,6.4,5.4,6,5.9,6h32.2C38.6,6,39,6.4,39,6.9V24c0,0.6,0.4,1,1,1s1-0.4,1-1V6.9C41,5.3,39.7,4,38.1,4z
	 M8.2,30.7c0.1,0,0.2,0.1,0.2,0.1c0.2,0,0.3-0.1,0.4-0.3l4.1-7.4c0.9-1.7,3.1-2.3,4.8-1.4l2,1.1c2.1,1.2,5.1,0.6,6.6-1.3l3-3.7
	c0.7-0.9,2.1-2.2,3.9-1c1,0.7,1.9,1.9,1.9,1.9c0.2,0.2,0.5,0.3,0.7,0.1c0.2-0.2,0.3-0.5,0.1-0.7c0-0.1-1-1.4-2.1-2.1
	c-1.7-1.1-3.6-0.7-5.2,1.2l-3,3.7c-1.2,1.5-3.7,2-5.4,1.1l-2-1.1c-2.2-1.2-4.9-0.4-6.1,1.8L8,30.1C7.9,30.3,8,30.6,8.2,30.7z"/>
</svg>
