<?xml version="1.0" encoding="utf-8"?>
<!-- Generator: Adobe Illustrator 21.0.0, SVG Export Plug-In . SVG Version: 6.00 Build 0)  -->
<svg version="1.1" id="图层_1" xmlns="http://www.w3.org/2000/svg" xmlns:xlink="http://www.w3.org/1999/xlink" x="0px" y="0px"
	 viewBox="0 0 48 48" style="enable-background:new 0 0 48 48;" xml:space="preserve">
<path d="M25.5,33.2L3.7,11.3c-0.4-0.4-1-0.4-1.4,0s-0.4,1,0,1.4l2.8,2.8c3.1,5.2,3.1,11.8,0,17l-2.8,2.8c-0.4,0.4-0.4,1,0,1.4
	C2.5,36.9,2.7,37,3,37s0.5-0.1,0.7-0.3l9-9c0.4-0.4,0.4-1,0-1.4s-1-0.4-1.4,0l-4,4c1.6-4,1.6-8.6,0-12.6l16.3,16.4c0,0,0,0,0,0
	l0.1,0.1l0.8,0.8c0,0,0,0,0,0l5.8,5.8c-2-0.8-4.1-1.2-6.3-1.2c-2.2,0-4.3,0.4-6.3,1.2l4-4c0.4-0.4,0.4-1,0-1.4s-1-0.4-1.4,0l-9,9
	c-0.4,0.4-0.4,1,0,1.4c0.2,0.2,0.5,0.3,0.7,0.3s0.5-0.1,0.7-0.3l2.8-2.8c2.5-1.5,5.4-2.4,8.5-2.4c3.1,0,6,0.8,8.5,2.3l2.8,2.8
	c0.2,0.2,0.5,0.3,0.7,0.3c0.3,0,0.5-0.1,0.7-0.3c0.4-0.4,0.4-1,0-1.4L25.5,33.2z M12.3,13c0.1,0.1,0.2,0.1,0.4,0.1s0.3,0,0.4-0.1
	c0.2-0.2,0.2-0.5,0-0.7L8,7.3c-0.2-0.2-0.5-0.2-0.7,0S7.1,7.8,7.3,8L12.3,13z M31.2,17.5c0.1,0.1,0.2,0.1,0.4,0.1s0.3,0,0.4-0.1
	l9.3-9.3c0.2-0.2,0.2-0.5,0-0.7s-0.5-0.2-0.7,0l-9.3,9.3C31,17,31,17.3,31.2,17.5z M17.6,31.1c-0.2-0.2-0.5-0.2-0.7,0l-9.5,9.4
	c-0.2,0.2-0.2,0.5,0,0.7c0.1,0.1,0.2,0.1,0.4,0.1c0.1,0,0.3,0,0.4-0.1l9.5-9.4C17.8,31.7,17.8,31.3,17.6,31.1z M42.8,32.4
	c-1.5-2.4-2.3-5.1-2.3-7.9c0-2.8,0.8-5.5,2.3-7.9l2.9-2.9c0.4-0.4,0.4-1,0-1.4s-1-0.4-1.4,0l-8,8c-0.4,0.4-0.4,1,0,1.4
	c0.2,0.2,0.5,0.3,0.7,0.3s0.5-0.1,0.7-0.3l2.9-2.9c-0.7,1.8-1.1,3.8-1.1,5.7c0,2,0.4,3.9,1.1,5.7L35,24.5c0,0,0,0,0,0l-0.8-0.8
	l-0.1-0.1c0,0,0,0,0,0L17.7,7.3c2,0.8,4.2,1.2,6.3,1.2c2.1,0,4.3-0.4,6.3-1.2l-4,4c-0.4,0.4-0.4,1,0,1.4c0.2,0.2,0.5,0.3,0.7,0.3
	s0.5-0.1,0.7-0.3l9-9c0.4-0.4,0.4-1,0-1.4s-1-0.4-1.4,0l-2.8,2.8c-5.2,3.1-11.8,3.1-17,0l-2.8-2.8c-0.4-0.4-1-0.4-1.4,0
	c-0.4,0.4-0.4,1,0,1.4l21.9,21.8l11.1,11.2c0.2,0.2,0.5,0.3,0.7,0.3c0.3,0,0.5-0.1,0.7-0.3c0.4-0.4,0.4-1,0-1.4L42.8,32.4z
	 M35.6,34.9c-0.2-0.2-0.5-0.2-0.7,0s-0.2,0.5,0,0.7l4.8,4.8c0.1,0.1,0.2,0.1,0.4,0.1s0.3,0,0.4-0.1c0.2-0.2,0.2-0.5,0-0.7L35.6,34.9
	z M21.8,22.3c0.1,0,0.3,0,0.4-0.1c0.2-0.2,0.2-0.5,0-0.7l-4.9-4.9c-0.2-0.2-0.5-0.2-0.7,0s-0.2,0.5,0,0.7l4.9,4.9
	C21.6,22.3,21.7,22.3,21.8,22.3z M31,31.5c0.1,0,0.3,0,0.4-0.1c0.2-0.2,0.2-0.5,0-0.7l-5-5c-0.2-0.2-0.5-0.2-0.7,0s-0.2,0.5,0,0.7
	l5,5C30.8,31.5,30.9,31.5,31,31.5z"/>
</svg>
