<svg xmlns="http://www.w3.org/2000/svg" viewBox="0 0 42.04 36.04"><defs><style>.cls-1{fill:#050001;}</style></defs><title>车联网智能体</title><g id="图层_2" data-name="图层 2"><g id="_48PX模板" data-name="48PX模板"><path class="cls-1" d="M42,12V12a1,1,0,0,0-1-1H39a.94.94,0,0,0-.47.14L32.25,1.39A3,3,0,0,0,29.71,0H12.25A3,3,0,0,0,9.71,1.39L3.5,11.11A.94.94,0,0,0,3.07,11H1a1,1,0,0,0-1,1V12a1,1,0,0,0,1,1H2.29L.16,16.34a1,1,0,0,0-.16.54v15a4.09,4.09,0,0,0,2.78,3.93,4,4,0,0,0,4.82-2A4,4,0,0,0,8.06,32H34v.67a1,1,0,0,0,0,.24,4.16,4.16,0,0,0,.33.9A4,4,0,0,0,37.95,36a4.27,4.27,0,0,0,1.25-.19A4.09,4.09,0,0,0,42,31.92V16.81a1,1,0,0,0-.16-.54L39.73,13h1.34A1,1,0,0,0,42,12ZM40,31.92a2.08,2.08,0,0,1-1.38,2,2.05,2.05,0,0,1-2.48-1,2.15,2.15,0,0,1-.14-.36V32a2.12,2.12,0,0,0-.57-1.46A2,2,0,0,0,34,30H8.06a2,2,0,0,0-1.43.59A2,2,0,0,0,6.06,32a2,2,0,0,1-.23.93,2,2,0,0,1-2.45,1,2.08,2.08,0,0,1-1.37-2V17.17l9.39-14.7A1,1,0,0,1,12.25,2H29.71a1,1,0,0,1,.86.47L40,17.11Z"/><path class="cls-1" d="M24.1,13.2,22.78,15l-3-6.61a.5.5,0,0,0-.87-.07L15.81,13H7.5a.5.5,0,0,0,0,1h8.58a.5.5,0,0,0,.42-.23l2.75-4.19,3,6.55a.5.5,0,0,0,.4.29h.06a.5.5,0,0,0,.4-.2L24.75,14H34.5a.5.5,0,0,0,0-1h-10A.5.5,0,0,0,24.1,13.2Z"/><path class="cls-1" d="M10,19H5a2,2,0,0,0-2,2V23a2,2,0,0,0,2,2H10a2,2,0,0,0,2-2V21A2,2,0,0,0,10,19Zm1,4a1,1,0,0,1-1,1H5a1,1,0,0,1-1-1V21a1,1,0,0,1,1-1H10a1,1,0,0,1,1,1Z"/><path class="cls-1" d="M30,21V23a2,2,0,0,0,2,2H37a2,2,0,0,0,2-2V21a2,2,0,0,0-2-2H32A2,2,0,0,0,30,21Zm8,0V23a1,1,0,0,1-1,1H32a1,1,0,0,1-1-1V21a1,1,0,0,1,1-1H37A1,1,0,0,1,38,21Z"/><path class="cls-1" d="M26.5,20h-11a.5.5,0,0,0,0,1h11a.5.5,0,0,0,0-1Z"/><path class="cls-1" d="M26.5,23h-11a.5.5,0,0,0,0,1h11a.5.5,0,0,0,0-1Z"/></g></g></svg>