<?xml version="1.0" encoding="utf-8"?>
<!-- Generator: Adobe Illustrator 21.0.0, SVG Export Plug-In . SVG Version: 6.00 Build 0)  -->
<svg version="1.1" id="图层_1" xmlns="http://www.w3.org/2000/svg" xmlns:xlink="http://www.w3.org/1999/xlink" x="0px" y="0px"
	 viewBox="0 0 44 44" style="enable-background:new 0 0 44 44;" xml:space="preserve">
<path d="M16.5,19h4.1c0.4,0,1,0.3,1.3,0.6l2.8,3.1c0.5,0.5,1.3,0.9,2,0.9h1.4c0,0,0,0,0,0c0.3,0.8,1,1.4,1.9,1.4c1.1,0,2-0.9,2-2
	s-0.9-2-2-2c-1,0-1.8,0.7-2,1.6h-1.4c-0.4,0-1-0.3-1.3-0.6l-2.8-3.1c-0.5-0.5-1.3-0.9-2-0.9h-4.1c-0.3,0-0.5,0.2-0.5,0.5
	S16.2,19,16.5,19z M30,22c0.6,0,1,0.4,1,1s-0.4,1-1,1s-1-0.4-1-1S29.5,22,30,22z M21.5,24c-0.3,0-0.5,0.2-0.5,0.5s0.2,0.5,0.5,0.5h1
	c0.3,0,0.5-0.2,0.5-0.5S22.8,24,22.5,24H21.5z M25.1,3.7c-0.8-0.8-1.6-1.6-2.4-2.4c-0.4-0.4-1-0.4-1.4,0C20.6,2,19.8,2.8,19,3.6
	C12.8,9.7,5,17.4,5,25.8C5,35.3,12.6,43,22,43s17-7.7,17-17.2C39,17.4,31.3,9.8,25.1,3.7z M22,41c-8.3,0-15-6.8-15-15.2
	C7,18.2,14.4,10.9,20.4,5C21,4.5,21.5,3.9,22,3.4c0.5,0.5,1.1,1.1,1.7,1.7C29.6,11,37,18.3,37,25.8C37,34.2,30.3,41,22,41z M32.1,27
	h-3.7c-0.6,0-1.6,0.3-2.1,0.6l-2.8,1.9c-0.4,0.3-1.1,0.5-1.5,0.5h-5c-0.2-0.9-1-1.5-1.9-1.5c-1.1,0-2,0.9-2,2s0.9,2,2,2
	c0.9,0,1.7-0.6,1.9-1.5h5c0.6,0,1.6-0.3,2.1-0.6l2.8-1.9c0.4-0.3,1.1-0.5,1.5-0.5h3.7c0.3,0,0.5-0.2,0.5-0.5S32.4,27,32.1,27z
	 M15,31.5c-0.6,0-1-0.4-1-1s0.4-1,1-1s1,0.4,1,1S15.6,31.5,15,31.5z M14.5,25h5c0.3,0,0.5-0.2,0.5-0.5S19.8,24,19.5,24h-5
	c-0.3,0-0.5,0.2-0.5,0.5S14.2,25,14.5,25z"/>
</svg>
