<?xml version="1.0" encoding="utf-8"?>
<!-- Generator: Adobe Illustrator 21.0.0, SVG Export Plug-In . SVG Version: 6.00 Build 0)  -->
<svg version="1.1" id="图层_1" xmlns="http://www.w3.org/2000/svg" xmlns:xlink="http://www.w3.org/1999/xlink" x="0px" y="0px"
	 viewBox="0 0 48 48" style="enable-background:new 0 0 48 48;" xml:space="preserve">
<style type="text/css">
	.st0{fill:none;}
	.st1{fill:#070102;}
</style>
<path d="M42,5H6C3.8,5,2,6.8,2,9.1v24.7C2,36.1,3.8,38,6,38h13l3.5,4.3c0.4,0.5,1,0.7,1.5,0.7c0.6,0,1.1-0.2,1.5-0.7L29,38h13
	c2.2,0,4-1.8,4-4.1V9.1C46,6.8,44.2,5,42,5z M44,33.9c0,1.2-0.9,2.1-2,2.1H29c-0.6,0-1.2,0.3-1.6,0.7L24,41l-3.5-4.3
	c-0.4-0.5-1-0.7-1.6-0.7H6c-1.1,0-2-1-2-2.1V9.1C4,8,4.9,7,6,7h36c1.1,0,2,1,2,2.1V33.9z M33,18.9c1.7,0,3-1.3,3-3s-1.3-3-3-3
	s-3,1.3-3,3c0,0.3,0,0.5,0.1,0.8l-3.3,1.9c-0.6-0.6-1.4-1-2.3-1.1v-2.6c1.4-0.2,2.5-1.5,2.5-2.9c0-1.7-1.3-3-3-3s-3,1.3-3,3
	c0,1.5,1.1,2.7,2.5,2.9v2.6c-2,0.2-3.5,1.9-3.5,3.9s1.5,3.7,3.5,3.9V28c-1.4,0.3-2.5,1.5-2.5,3c0,1.7,1.3,3,3,3s3-1.3,3-3
	c0-1.5-1.1-2.7-2.5-2.9v-2.6c1.1-0.1,2-0.7,2.7-1.5l3.1,1.8C30.1,26.1,30,26.5,30,27c0,1.7,1.3,3,3,3s3-1.3,3-3s-1.3-3-3-3
	c-0.8,0-1.6,0.4-2.2,0.9l-3.2-1.8c0.2-0.5,0.3-1,0.3-1.6c0-0.7-0.2-1.4-0.6-2l3.1-1.8C31.1,18.4,32,18.9,33,18.9z M33,14
	c1.1,0,2,0.9,2,2s-0.9,2-2,2s-2-0.9-2-2S31.9,14,33,14z M22,12c0-1.1,0.9-2,2-2s2,0.9,2,2s-0.9,2-2,2S22,13.1,22,12z M26,31
	c0,1.1-0.9,2-2,2s-2-0.9-2-2s0.9-2,2-2S26,29.9,26,31z M24,24.5c-1.7,0-3-1.3-3-3s1.3-3,3-3s3,1.3,3,3S25.7,24.5,24,24.5z M33,25
	c1.1,0,2,0.9,2,2s-0.9,2-2,2s-2-0.9-2-2S31.9,25,33,25z"/>
</svg>
