<svg id="图层_1" data-name="图层 1" xmlns="http://www.w3.org/2000/svg" viewBox="0 0 48 45.75"><title>License</title><path id="形状结合" d="M32.36,1.12a4.35,4.35,0,0,1,4.37,4.33v0h0v37a4.35,4.35,0,0,1-4.33,4.37H14.94a4.34,4.34,0,0,1-4.36-4.33v0h0v-37a4.35,4.35,0,0,1,4.33-4.37H32.36Zm0,2.18H14.94a2.19,2.19,0,0,0-2.18,2.19h0v37a2.19,2.19,0,0,0,2.18,2.19H32.36a2.19,2.19,0,0,0,2.19-2.19h0v-37A2.19,2.19,0,0,0,32.36,3.3Zm7.1,6c2.41,0,3.8,1.78,3.8,4.91h0V33.8c0,3.13-1.39,4.91-3.8,4.91a.56.56,0,0,1-.65-.46.55.55,0,0,1,.46-.64h.19c1.79,0,2.71-1.27,2.71-3.81h0V14.2c0-2.54-.92-3.81-2.71-3.81a.56.56,0,1,1-.19-1.1Zm-31.59,0a.57.57,0,0,1,.45.65.55.55,0,0,1-.45.45c-1.81,0-2.73,1.27-2.73,3.81h0V33.8c0,2.54.92,3.81,2.73,3.81a.56.56,0,0,1,0,1.1c-2.44,0-3.82-1.78-3.82-4.91h0V14.2C4.05,11.07,5.43,9.29,7.87,9.29ZM31,18.49a.55.55,0,0,1,.32.62v.1L24.8,34.12a1,1,0,0,1-.57.57,1.1,1.1,0,0,1-1.38-.48V34.1L16.63,19.2a.55.55,0,0,1,.38-.69.54.54,0,0,1,.58.18v.1l6.21,14.9,6.54-14.92A.55.55,0,0,1,31,18.49ZM44.9,15.83a2.92,2.92,0,0,1,2.17.6c.57.58.56,1.39.56,2.65h0v8.76a5.09,5.09,0,0,1-.79,3.66,2.61,2.61,0,0,1-1.94.67.56.56,0,0,1-.64-.45.55.55,0,0,1,.45-.64.31.31,0,0,1,.19,0,1.6,1.6,0,0,0,1.17-.35c.48-.49.46-1.63.46-2.87h0V19.1c0-.93,0-1.64-.23-1.87S45.65,17,44.9,17a.58.58,0,0,1-.57-.57.57.57,0,0,1,.57-.56Zm-42.49,0a.56.56,0,0,1,.64.45.55.55,0,0,1-.45.64.31.31,0,0,1-.19,0A2.19,2.19,0,0,0,1,17.2a9.52,9.52,0,0,0-.23,3h0V28.9c0,.93,0,1.64.23,1.87s.65.27,1.4.27a.58.58,0,0,1,.57.57.57.57,0,0,1-.57.56,2.92,2.92,0,0,1-2.17-.6C-.32,31-.32,30.18-.3,28.92h0V20.16c0-1.24,0-3.15.54-3.73A2.92,2.92,0,0,1,2.41,15.83Z" transform="translate(0.31 -1.12)"/></svg>