<svg id="图层_1" data-name="图层 1" xmlns="http://www.w3.org/2000/svg" viewBox="0 0 44 44"><defs><style>.cls-1{fill:#262729;}</style></defs><title>liteos</title><path id="服务图标-轻量级操作系统LiteOS" class="cls-1" d="M35.8,10.93a.69.69,0,0,1,.7.89,1.39,1.39,0,0,1-1.2,1,30.15,30.15,0,0,0-3.1.11c-8.8.5-16.2,2.59-19.1,5.2.6-3.5,9.4-6.61,20.3-7.11a20.52,20.52,0,0,1,2.4-.09ZM4.1,24.13a19.89,19.89,0,0,0,4,12H5.6a21.52,21.52,0,0,1-3.6-12,22,22,0,0,1,38.9-14H38.2a36.41,36.41,0,0,0-4.9,0c-9.1.5-16.8,2.69-19.4,5.5.3-3.61,9.3-6.9,20.4-7.4a7.57,7.57,0,0,1,1.5-.1A19.45,19.45,0,0,0,24,4.22,19.9,19.9,0,0,0,4.1,24.13Zm8.1,13.2c-.5,0-.8-.41-.8-1a1.52,1.52,0,0,1,1.3-1h.1c1,0,2-.1,3-.1,8.8-.5,16.2-2.6,19.1-5.2-.6,3.5-9.4,6.7-20.3,7.2a19.27,19.27,0,0,1-2.4.1Zm23.6-9.1a6.83,6.83,0,0,1-2.8,2c-.3.2-3.5,1.4-3.6,1.4-.8.29-5.7,1.29-6,1.29s-4.3.71-5.6.8-1.3.1-1.7.1h-.3a.61.61,0,0,1-.6-.8,1.3,1.3,0,0,1,1.1-.9c.4,0,.7-.1,1-.1h.2c1.9-.1,5.3-.6,5.9-.7h.1c.6-.1,2.7-.5,3.4-.7.5-.1,1-.3,1.5-.4s1.8-.6,2-.7a22,22,0,0,0-7.5-2.4c-6.6-.7-11.2-2.9-11.3-5.5v-.4a2.57,2.57,0,0,1,.5-1.2,11.83,11.83,0,0,1,3.6-2.6,44.07,44.07,0,0,1,12.9-2.9c.6-.1,2.8-.3,3.2-.3h.3c.5,0,.7.4.6.9a1.17,1.17,0,0,1-1.1.9c-.4,0-6.5.7-7.1.8l-3.5.7c-.5.1-3.3,1-3.5,1.1A22,22,0,0,0,25,21c6.6.7,11.2,2.9,11.3,5.5v.4A3,3,0,0,1,35.8,28.23Zm-4.6.9a13,13,0,0,0,2-.9c-1-1.4-4.3-3.21-9-4.1-4.7-.5-8.5-1.9-10.2-3.61a2.26,2.26,0,0,0-1,1.71c0,1.6,4,4,9.8,4.69A21.74,21.74,0,0,1,31.2,29.13Zm2.8-1.5a2.48,2.48,0,0,0,1-1.5c0-1.5-4-3.9-9.8-4.8A22.18,22.18,0,0,1,16.7,19a17.38,17.38,0,0,0-1.9,1c1,1.4,4.4,3.2,9.1,4C28.6,24.52,32.3,25.92,34,27.63Zm8.4-15.5a21.45,21.45,0,0,1,3.6,12,22.07,22.07,0,0,1-22,22,21.56,21.56,0,0,1-16.8-8H9.9a44.49,44.49,0,0,0,4.9,0c9.1-.5,16.8-2.71,19.4-5.5-.3,3.59-9.3,6.9-20.4,7.4a7.57,7.57,0,0,1-1.5.1A19.44,19.44,0,0,0,24.1,44a19.83,19.83,0,0,0,15.8-31.9Z" transform="translate(-2 -2.13)"/></svg>