<?xml version="1.0" encoding="utf-8"?>
<!-- Generator: Adobe Illustrator 21.0.0, SVG Export Plug-In . SVG Version: 6.00 Build 0)  -->
<svg version="1.1" id="图层_1" xmlns="http://www.w3.org/2000/svg" xmlns:xlink="http://www.w3.org/1999/xlink" x="0px" y="0px"
	 viewBox="0 0 48 48" style="enable-background:new 0 0 48 48;" xml:space="preserve">
<path d="M17.5,33H13v-7.5c0-0.3-0.2-0.5-0.5-0.5S12,25.2,12,25.5v8c0,0.3,0.2,0.5,0.5,0.5h5c0.3,0,0.5-0.2,0.5-0.5S17.8,33,17.5,33z
	 M26.5,25h-6c-0.3,0-0.5,0.2-0.5,0.5v8c0,0.3,0.2,0.5,0.5,0.5h6c0.3,0,0.5-0.2,0.5-0.5v-8C27,25.2,26.8,25,26.5,25z M26,33h-5v-7h5
	V33z M35.5,26c0.3,0,0.5-0.2,0.5-0.5S35.8,25,35.5,25h-6c-0.3,0-0.5,0.2-0.5,0.5v8c0,0.3,0.2,0.5,0.5,0.5h6c0.3,0,0.5-0.2,0.5-0.5
	v-4c0-0.3-0.2-0.5-0.5-0.5h-3c-0.3,0-0.5,0.2-0.5,0.5s0.2,0.5,0.5,0.5H35v3h-5v-7H35.5z M35.9,13.2c0,0-0.1-0.1-0.1-0.1h-0.1h-0.1
	l-3.9,0.1c-0.3,0-0.5,0.2-0.5,0.5c0,0,0,0,0,0c0,0.3,0.2,0.5,0.5,0.5c0,0,0,0,0,0l2.4-0.2l-8.2,5.7l-4.5-3.2c-0.2-0.1-0.4-0.1-0.6,0
	l-8.5,5.3c-0.2,0.2-0.3,0.5-0.1,0.7c0.2,0.2,0.5,0.3,0.7,0.1c0,0,0,0,0,0l8.2-5l4.5,3.2c0.2,0.2,0.5,0.2,0.6,0l8.6-6l-0.4,2.7
	c0,0.3,0.2,0.5,0.4,0.6H35c0.3,0,0.5-0.2,0.5-0.4l0.5-4c0-0.1,0-0.2,0-0.2C36,13.3,35.9,13.2,35.9,13.2z M40.8,10.6L27.3,2.8
	C26.3,2.3,25.2,2,24,2s-2.3,0.3-3.3,0.8L7.2,10.6C5.4,11.6,4,14.1,4,16.2v15.6c0,2.1,1.4,4.5,3.2,5.6l13.5,7.8
	c0.9,0.5,2.1,0.8,3.3,0.8s2.3-0.3,3.3-0.8l13.5-7.8c1.8-1.1,3.2-3.5,3.2-5.6V16.2C44,14.1,42.6,11.6,40.8,10.6z M42,31.8
	c0,1.4-1.1,3.2-2.3,3.9l-13.5,7.8C25.7,43.8,24.9,44,24,44s-1.7-0.2-2.3-0.5L8.3,35.7C7.1,35,6,33.2,6,31.8V16.2
	c0-1.4,1.1-3.2,2.3-3.9l13.5-7.8C22.3,4.2,23.1,4,24,4s1.7,0.2,2.3,0.5l13.5,7.8c1.2,0.7,2.3,2.5,2.3,3.9V31.8z"/>
</svg>
