<?xml version="1.0" encoding="utf-8"?>
<!-- Generator: Adobe Illustrator 21.0.0, SVG Export Plug-In . SVG Version: 6.00 Build 0)  -->
<svg version="1.1" id="图层_1" xmlns="http://www.w3.org/2000/svg" xmlns:xlink="http://www.w3.org/1999/xlink" x="0px" y="0px"
	 viewBox="0 0 48 48" style="enable-background:new 0 0 48 48;" xml:space="preserve">
<style type="text/css">
	.st0{fill:#040000;}
	.st1{fill:#060001;}
	.st2{fill:#080103;}
</style>
<path class="st0" d="M13.3,18.5l16.2,16.2l-6,0.5l0.1,1.2l8.4-0.8l-18-18L13.3,18.5z M42.3,15.3h-9.6V5.7C32.7,3.7,31,2,29,2H5.7
	C3.7,2,2,3.7,2,5.7v23.2c0,2.1,1.7,3.7,3.7,3.7h9.6v9.6c0,2.1,1.7,3.7,3.7,3.7h23.2c2.1,0,3.7-1.7,3.7-3.7V19.1
	C46,17,44.3,15.3,42.3,15.3z M43.7,42.3c0,0.8-0.6,1.4-1.4,1.4H19.1c-0.8,0-1.4-0.6-1.4-1.4V30.4H5.7c-0.8,0-1.4-0.6-1.4-1.4V5.7
	C4.3,5,5,4.3,5.7,4.3H29c0.8,0,1.4,0.6,1.4,1.4v11.9h11.9c0.8,0,1.4,0.6,1.4,1.4V42.3z M24.4,12.7l-0.1-1.2l-8.4,0.8l18,18l0.8-0.8
	L18.5,13.2L24.4,12.7z"/>
</svg>
