<?xml version="1.0" encoding="utf-8"?>
<!-- Generator: Adobe Illustrator 21.0.0, SVG Export Plug-In . SVG Version: 6.00 Build 0)  -->
<svg version="1.1" id="图层_1" xmlns="http://www.w3.org/2000/svg" xmlns:xlink="http://www.w3.org/1999/xlink" x="0px" y="0px"
	 viewBox="0 0 48 48" style="enable-background:new 0 0 48 48;" xml:space="preserve">
<style type="text/css">
	.st0{fill:#060001;}
	.st1{fill:#040000;}
	.st2{fill:none;stroke:#000000;stroke-miterlimit:10;}
	.st3{fill:#221815;}
	.st4{fill:#080102;}
	.st5{fill:none;stroke:#000000;stroke-width:2;stroke-linecap:round;stroke-linejoin:round;stroke-miterlimit:10;}
	.st6{fill:#070001;}
</style>
<path class="st6" d="M35.7,19.7c0,0.3,0.2,0.5,0.5,0.5l3.5-0.2l-10.6,8.9l-4.7-5.1c-0.2-0.2-0.5-0.2-0.7-0.1l-11.2,8
	c-0.2,0.2-0.3,0.5-0.1,0.7c0.1,0.1,0.3,0.2,0.4,0.2c0.1,0,0.2,0,0.3-0.1l10.8-7.7l4.8,5.1c0.2,0.2,0.5,0.2,0.7,0l11-9.2l-0.8,3.4
	c-0.1,0.3,0.1,0.5,0.4,0.6c0,0,0.1,0,0.1,0c0.2,0,0.4-0.2,0.5-0.4l1.1-4.9c0-0.2,0-0.3-0.1-0.4s-0.3-0.2-0.4-0.2l-5,0.3
	C35.9,19.2,35.7,19.4,35.7,19.7z M44.7,22.2c-0.3-0.5-0.9-0.7-1.3-0.4c-0.5,0.3-0.7,0.9-0.4,1.3c0.7,1.4,1.1,3,1.1,4.6
	C44,33.4,39.3,38,33.5,38H14.5C8.7,38,4,33.4,4,27.8c0-5.2,4-9.6,9.3-10.2c0.4,0,0.7-0.3,0.8-0.7c1.5-4.1,5.4-6.9,9.9-6.9
	s8.4,2.8,9.9,6.9c0.2,0.5,0.8,0.8,1.3,0.6c0.5-0.2,0.8-0.8,0.6-1.3C34,11.3,29.3,8,24,8c-5.1,0-9.6,3.1-11.5,7.7
	C6.5,16.6,2,21.7,2,27.8C2,34.5,7.6,40,14.5,40h19.1C40.4,40,46,34.5,46,27.8C46,25.8,45.5,23.9,44.7,22.2z"/>
</svg>
