<svg id="图层_1" data-name="图层 1" xmlns="http://www.w3.org/2000/svg" viewBox="0 0 40.02 44"><title>mdr</title><path id="Fill-15备份" d="M38,31.6c-2,4-6.52,8.09-13.45,12.27A1.07,1.07,0,0,1,24,44a1,1,0,0,1-.55-.16C16.52,39.69,12,35.56,10,31.6,7.22,26,6.24,16.33,6,13.49a1.07,1.07,0,0,1,.79-1.09l.76-.25a78.66,78.66,0,0,0,7.87-3,36.92,36.92,0,0,0,7.07-4.42l.62-.48A1.47,1.47,0,0,1,23.9,4h.17a1.41,1.41,0,0,1,.82.22l.62.48a37,37,0,0,0,7.07,4.43,78.66,78.66,0,0,0,7.87,3l.76.25A1.08,1.08,0,0,1,42,13.49C41.76,16.33,40.78,26,38,31.6m3.86-21.09a86.31,86.31,0,0,1-8.39-3.14A36.91,36.91,0,0,1,26.1,2.66,3.36,3.36,0,0,0,24,2h0a3.36,3.36,0,0,0-2.1.63,36.91,36.91,0,0,1-7.37,4.71,86.31,86.31,0,0,1-8.39,3.14A3,3,0,0,0,4,13.65C4.38,18.12,5.47,27,8.22,32.5c3.15,6.28,11.07,11.2,14.2,13.08a3,3,0,0,0,3.16,0c3.13-1.88,11-6.8,14.2-13.08C42.52,27,43.62,18.12,44,13.65a3,3,0,0,0-2.13-3.14M33.77,28.1l-5-3a.49.49,0,0,0-.69.17.51.51,0,0,0,.17.69L31.69,28H14.5a1.5,1.5,0,0,1-1.5-1.5v-5a.5.5,0,0,0-1,0v5A2.5,2.5,0,0,0,14.5,29h19a.5.5,0,0,0,.5-.5.47.47,0,0,0-.24-.43M33.5,18h-19a.48.48,0,0,0-.48.37.5.5,0,0,0,.22.56l5,3a.51.51,0,0,0,.69-.17.5.5,0,0,0-.17-.69L16.3,19H33.5a1.5,1.5,0,0,1,1.5,1.5v5a.5.5,0,0,0,1,0v-5A2.49,2.49,0,0,0,33.5,18" transform="translate(-3.99 -2.02)"/></svg>