<?xml version="1.0" encoding="utf-8"?>
<!-- Generator: Adobe Illustrator 21.0.0, SVG Export Plug-In . SVG Version: 6.00 Build 0)  -->
<svg version="1.1" id="图层_3" xmlns="http://www.w3.org/2000/svg" xmlns:xlink="http://www.w3.org/1999/xlink" x="0px" y="0px"
	 viewBox="0 0 48 48" style="enable-background:new 0 0 48 48;" xml:space="preserve">
<title>开源镜像站Mirrors-产品ICON</title>
<g>
	<polygon points="30.3,31.2 32.3,31.7 32.6,30.7 30.6,30.2 	"/>
	<polygon points="30.4,10.7 30.6,11.7 32.6,11.3 32.4,10.3 	"/>
	<polygon points="27.4,30.6 29.4,31 29.6,30 27.6,29.6 	"/>
	<path d="M24.8,29l-0.3,0.9c0.2,0.1,0.3,0.1,0.5,0.1l1.5,0.4l0.2-1L25,29C24.9,29,24.9,29,24.8,29z"/>
	<path d="M24.9,12c-0.2,0-0.3,0-0.5,0.1l0.4,0.9H25l1.7-0.4l-0.2-1L24.9,12z"/>
	<path d="M34,11c0.2,0,0.4,0.2,0.5,0.4l1-0.1C35.4,10.5,34.7,10,34,10l-0.7,0.1l0.2,1L34,11z"/>
	<polygon points="27.5,11.4 27.7,12.4 29.7,12 29.5,11 	"/>
	<path d="M34,31l-0.5-0.1l-0.2,1L34,32c0.7,0,1.4-0.6,1.5-1.3l-1-0.1C34.4,30.8,34.2,31,34,31z"/>
	<rect x="34.5" y="18.3" width="1" height="2"/>
	<rect x="34.5" y="12.3" width="1" height="2"/>
	<rect x="34.5" y="15.3" width="1" height="2"/>
	<rect x="34.5" y="27.3" width="1" height="2"/>
	<rect x="34.5" y="24.3" width="1" height="2"/>
	<rect x="34.5" y="21.3" width="1" height="2"/>
	<path d="M24.5,13.5c0-0.8-0.6-1.5-1.4-1.5l-9-2H14c-0.8,0-1.5,0.7-1.5,1.5v19c0,0.8,0.7,1.5,1.5,1.5h0.1l9-2c0.8,0,1.5-0.7,1.5-1.5
		V13.5z M23.5,28.5c0,0.3-0.2,0.5-0.5,0.5l-9,2c-0.3,0-0.5-0.2-0.5-0.5v-19c0-0.3,0.2-0.5,0.5-0.5l8.9,2H23c0.3,0,0.5,0.2,0.5,0.5
		V28.5z"/>
	<path d="M42,2H6C3.8,2,2,3.8,2,6v25.3c0.1,1.6,0.8,3,2,4.1c0.2,0.2,0.4,0.3,0.6,0.4L19,44l2.4,1.4c1.6,0.8,3.5,0.8,5.2,0L29,44
		l14.4-8.2c0.2-0.1,0.4-0.3,0.6-0.4c1.2-1,1.9-2.5,2-4.1V6C46,3.8,44.2,2,42,2z M44,31.6c-0.1,0.9-0.6,1.8-1.4,2.3l-17.1,9.8
		c-0.9,0.4-2,0.4-2.9,0L5.4,33.9c-0.8-0.5-1.3-1.4-1.4-2.3V6c0-1.1,0.9-2,2-2h36c1.1,0,2,0.9,2,2V31.6z"/>
</g>
</svg>
