<svg id="图层_1" data-name="图层 1" xmlns="http://www.w3.org/2000/svg" viewBox="0 0 44 44">
  <defs>
    <style>
      .cls-1 {
        fill: #231815;
      }
    </style>
  </defs>
  <title>画板 1</title>
  <path class="cls-1" d="M24.87,26.25a6,6,0,1,0-5.28,0,9.76,9.76,0,0,0-7.27,9.25.5.5,0,0,0,.49.51h0a.5.5,0,0,0,.5-.49,8.84,8.84,0,0,1,17.67,0,.48.48,0,0,0,.51.49.5.5,0,0,0,.49-.51A9.76,9.76,0,0,0,24.87,26.25Zm-7.59-5.39a5,5,0,1,1,5,5A5,5,0,0,1,17.28,20.86ZM34.86,9H32.51A7.59,7.59,0,0,0,25,2.4H6.14A4.29,4.29,0,0,0,1.86,6.68V37.32A4.29,4.29,0,0,0,6.14,41.6h32a4.29,4.29,0,0,0,4.28-4.28V16.61A7.6,7.6,0,0,0,34.86,9Zm-31-2.31A2.29,2.29,0,0,1,6.14,4.4H25A5.59,5.59,0,0,1,30.57,10v0H3.86ZM40.43,37.32a2.28,2.28,0,0,1-2.28,2.28h-32a2.28,2.28,0,0,1-2.28-2.28V11H35.52a5.6,5.6,0,0,1,4.9,5.57Z"/>
</svg>
