<svg id="图层_1" data-name="图层 1" xmlns="http://www.w3.org/2000/svg" viewBox="0 0 44 44">
  <defs>
    <style>
      .cls-1 {
        fill: #040000;
      }
    </style>
  </defs>
  <title>画板 1</title>
  <path class="cls-1" d="M42.67,11.65a1,1,0,0,0,0-.2l-2.45-8a1,1,0,0,0-1-.71H4.78a1,1,0,0,0-1,.71l-2.45,8a1,1,0,0,0,0,.2,4.21,4.21,0,0,0,0,.44v.11A5.89,5.89,0,0,0,3,16.43V36.87a4.08,4.08,0,0,0,4.08,4.08H17a1,1,0,1,0,0-2H7.11A2.08,2.08,0,0,1,5,36.87V16.53a5.43,5.43,0,0,0,7.15-2.61,5.45,5.45,0,0,0,9.82,0,5.45,5.45,0,0,0,9.82,0A5.43,5.43,0,0,0,39,16.53V28.48a1,1,0,1,0,2,0V16.41a5.88,5.88,0,0,0,1.71-4.21v-.12A3.58,3.58,0,0,0,42.67,11.65Zm-2,.36v.18a3.87,3.87,0,0,1-1.08,2.75A4.41,4.41,0,0,1,32.32,12a.5.5,0,0,0-1,0,4.44,4.44,0,0,1-8.83.06.5.5,0,0,0-1,0A4.44,4.44,0,0,1,12.67,12a.5.5,0,0,0-1,0,4.41,4.41,0,0,1-7.24,3,3.9,3.9,0,0,1-1.12-2.78v-.13s0-.1,0-.15l2.2-7.17h33l2.19,7.16ZM35.17,34.3l-.6-.15a5.16,5.16,0,0,0,1.68-3.77V27a5.71,5.71,0,0,0-5.94-5.44A5.71,5.71,0,0,0,24.36,27v3.42a4.94,4.94,0,0,0,1.71,3.75l-.64.18c-1.81.47-4.84,1.26-4.84,3.77v1.71A1.2,1.2,0,0,0,21.82,41H38.68A1.45,1.45,0,0,0,40,39.61V38.08C40,35.57,37,34.78,35.17,34.3ZM39,39.61a.53.53,0,0,1-.34.34H21.82c-.13,0-.23-.08-.23-.16V38.08c0-1.74,2.46-2.38,4.12-2.81a8.26,8.26,0,0,0,1.36-.43.5.5,0,0,0,.25-.56l-.09-.37a.51.51,0,0,0-.2-.29,3.93,3.93,0,0,1-1.67-3.23V27a4.71,4.71,0,0,1,4.94-4.44A4.72,4.72,0,0,1,35.25,27v3.42a4.25,4.25,0,0,1-1.75,3.37.5.5,0,0,0-.19.48l.06.37a.5.5,0,0,0,.34.4l.15,0c.16,0,.64.13,1.06.24h0c2.17.57,4.11,1.21,4.11,2.81Z"/>
</svg>
