<?xml version="1.0" encoding="utf-8"?>
<!-- Generator: Adobe Illustrator 21.0.0, SVG Export Plug-In . SVG Version: 6.00 Build 0)  -->
<svg version="1.1" id="图层_1" xmlns="http://www.w3.org/2000/svg" xmlns:xlink="http://www.w3.org/1999/xlink" x="0px" y="0px"
	 viewBox="0 0 48 48" style="enable-background:new 0 0 48 48;" xml:space="preserve">
<style type="text/css">
	.st0{fill:#040000;}
	.st1{fill:#060001;}
	.st2{fill:#080103;}
</style>
<path class="st0" d="M26.4,18.9c0.3,0.1,0.5-0.1,0.6-0.4c0.1-0.3-0.1-0.6-0.3-0.6c-0.9-0.3-1.8-0.4-2.7-0.4c-5.4,0-9.8,4.5-9.8,10.1
	c0,0.3,0.2,0.5,0.5,0.5s0.5-0.2,0.5-0.5c0-5,4-9.1,8.8-9.1C24.8,18.5,25.7,18.6,26.4,18.9z M22.9,29.1c0.8,0.6,1.9,0.5,2.5-0.3
	L33.2,15c0,0-10.7,11.5-10.8,11.5l0,0C22,27.4,22.1,28.5,22.9,29.1z M4,28.7c0.5,0,1-0.4,1-1C4.9,16.8,13.5,8,24,8
	c10.5,0,19.1,8.8,19.1,19.7c0,0.5,0.4,1,1,1s1-0.4,1-1C45,15.7,35.6,6,24,6C12.4,6,3,15.7,3,27.7C3,28.2,3.4,28.7,4,28.7z M40,37.9
	H8c-0.6,0-1,0.5-1,1s0.5,1,1,1H40c0.6,0,1-0.5,1-1S40.5,37.9,40,37.9z M32.8,27.1c0,0.3,0.2,0.5,0.5,0.5s0.5-0.2,0.5-0.5
	c0-2.1-0.6-4-1.7-5.7c-0.2-0.2-0.5-0.3-0.7-0.1c-0.2,0.2-0.3,0.5-0.1,0.7C32.3,23.5,32.8,25.3,32.8,27.1z M44,32.8H4
	c-0.5,0-1,0.5-1,1c0,0.6,0.4,1,1,1h40c0.5,0,1-0.5,1-1C45,33.2,44.6,32.8,44,32.8z"/>
</svg>
