<?xml version="1.0" encoding="utf-8"?>
<!-- Generator: Adobe Illustrator 21.0.0, SVG Export Plug-In . SVG Version: 6.00 Build 0)  -->
<svg version="1.1" id="图层_1" xmlns="http://www.w3.org/2000/svg" xmlns:xlink="http://www.w3.org/1999/xlink" x="0px" y="0px"
	 viewBox="0 0 48 48" style="enable-background:new 0 0 48 48;" xml:space="preserve">
<style type="text/css">
	.st0{fill:#040000;}
	.st1{fill:#060001;}
	.st2{fill:#080103;}
</style>
<path class="st1" d="M25.5,23.5c-0.2-0.6-0.6-0.7-0.8-0.7s-0.6,0.1-0.8,0.7l-6.3,17.9c-0.1,0.4-0.1,0.8,0.1,1.1
	c0.2,0.3,0.6,0.5,1,0.5h12c0.4,0,0.8-0.2,1-0.5c0.2-0.3,0.3-0.7,0.1-1.1L25.5,23.5z M30.7,42h-12c-0.1,0-0.2,0-0.2-0.1
	c0,0,0-0.1,0-0.2l6.2-17.5l6.2,17.5c0,0.1,0,0.2,0,0.2C30.9,42,30.8,42,30.7,42z M31.5,33.1c3.6-2.3,5.7-6.2,5.7-10.3
	c0-6.8-5.6-12.3-12.5-12.3s-12.5,5.5-12.5,12.3c0,4.2,2.1,8.1,5.7,10.3c0.1,0.1,0.2,0.1,0.3,0.1c0.2,0,0.3-0.1,0.4-0.2
	c0.2-0.2,0.1-0.5-0.1-0.7c-3.3-2.1-5.2-5.7-5.2-9.5c0-6.3,5.2-11.4,11.5-11.4s11.5,5.1,11.5,11.4c0,3.8-2,7.4-5.2,9.5
	c-0.2,0.1-0.3,0.5-0.1,0.7C31,33.2,31.3,33.2,31.5,33.1z M24.7,3c-11,0-20,8.9-20,19.8c0,6.8,3.5,13.1,9.4,16.8
	c0.2,0.1,0.3,0.2,0.5,0.2c0.3,0,0.7-0.2,0.8-0.5c0.3-0.5,0.2-1.1-0.3-1.4c-5.3-3.3-8.5-8.9-8.5-15.1C6.7,13,14.8,5,24.7,5
	s18,8,18,17.8c0,6.1-3.1,11.7-8.3,15c-0.5,0.3-0.6,0.9-0.3,1.4c0.3,0.5,0.9,0.6,1.4,0.3c5.8-3.7,9.3-9.9,9.3-16.7
	C44.7,11.9,35.7,3,24.7,3z M28.3,26.8c-0.2,0.2-0.2,0.5,0,0.7c0.2,0.2,0.5,0.2,0.7,0c1.4-1.2,2.2-3,2.2-4.8c0-3.5-2.9-6.4-6.5-6.4
	s-6.5,2.9-6.5,6.4c0,1.8,0.8,3.6,2.2,4.8c0.1,0.1,0.2,0.1,0.3,0.1c0.1,0,0.3-0.1,0.4-0.2c0.2-0.2,0.2-0.5,0-0.7
	c-1.2-1-1.8-2.5-1.8-4c0-3,2.5-5.4,5.5-5.4s5.5,2.4,5.5,5.4C30.2,24.3,29.5,25.8,28.3,26.8z"/>
</svg>
