<?xml version="1.0" encoding="utf-8"?>
<!-- Generator: Adobe Illustrator 21.0.0, SVG Export Plug-In . SVG Version: 6.00 Build 0)  -->
<svg version="1.1" id="图层_1" xmlns="http://www.w3.org/2000/svg" xmlns:xlink="http://www.w3.org/1999/xlink" x="0px" y="0px"
	 viewBox="0 0 48 48" style="enable-background:new 0 0 48 48;" xml:space="preserve">
<g id="自然语言处理服务">
	<g id="合并形状-2" transform="translate(5.000000, 4.000000)">
		<path id="合并形状" d="M38.8,12.8c0.3,0.7,0.5,1.4,0.7,2.2c0.6,2.4,0.8,4.7,0.4,7.5c-0.5,4.2-2.3,8.2-5.8,11.7
			c-6.8,6.8-17.4,7.8-25.3,2.5l-7.4,2.3l2.1-7.4C1.1,27.9-0.1,23.6,0,19.2c0.2-5,2.2-9.8,5.8-13.4c7.4-7.4,19.2-7.8,27-1.2V3
			c0-0.6,0.4-1,1-1c0.6,0,1,0.4,1,1v3.8c0,0.6-0.4,1-1,1H30c-0.6,0-1-0.4-1-1s0.4-1,1-1h1C24,0.3,13.8,0.8,7.3,7.3
			C4,10.5,2.2,14.8,2,19.3c-0.2,4,1.1,8,3.5,11.3L5.8,31l-1.4,4.8l4.8-1.5l0.4,0.3c7.1,5,16.9,4.3,23.1-2c3.1-3.1,4.8-6.7,5.2-10.5
			c0.3-2.5,0.1-4.6-0.4-6.8c-0.1-0.5-0.3-1-0.4-1.5c0,0-0.1,0-0.1,0c-1.1,0-2-0.9-2-2s0.9-2,2-2s2,0.9,2,2
			C39,12.3,38.9,12.6,38.8,12.8z M17,14V9h1v5h5h1v6h-1h-5v7h-1v-7h-5h-1v-6h1H17z M17,15h-5v4h5V15z M18,15v4h5v-4H18z M29.4,25
			h-3.8L25,27h-1.1l2.8-8h1.6l2.8,8h-1.1L29.4,25z M29.1,24l-1.4-4h-0.3L26,24H29.1z M11,29h20v1H11V29z"/>
	</g>
</g>
</svg>
