<svg id="图层_1" data-name="图层 1" xmlns="http://www.w3.org/2000/svg" viewBox="0 0 42.03 43"><title>nlplg</title><path id="服务图标-语言生成nlplg" d="M27.71,31.63l-.5,1.09a.51.51,0,0,1-.7.3.52.52,0,0,1-.3-.7l1.9-4.4a.52.52,0,0,1,.7-.3l.3.3,1.9,4.5c.1.3,0,.5-.3.7s-.5,0-.7-.3l-.4-1.19Zm.4-1h1l-.5-1.21ZM13,29.23l2.6-2.6H26a.94.94,0,0,0,1-1v-8a.94.94,0,0,0-1-1H14a.94.94,0,0,0-1,1Zm3-1.6-2.3,2.29a1,1,0,0,1-1.4,0,.91.91,0,0,1-.3-.7V17.63a2,2,0,0,1,2-2H26a2,2,0,0,1,2,2v8a2,2,0,0,1-2,2Zm-.5-8h9a.47.47,0,0,1,.5.5.48.48,0,0,1-.5.5h-9a.48.48,0,0,1-.5-.5A.47.47,0,0,1,15.51,19.63Zm0,3h6a.47.47,0,0,1,.5.5.48.48,0,0,1-.5.5h-6a.48.48,0,0,1-.5-.5A.47.47,0,0,1,15.51,22.63Zm-5.4,14.5A18.1,18.1,0,0,0,24,43.63a17.25,17.25,0,0,0,9.9-3,1,1,0,0,1,1.4.29,1,1,0,0,1-.3,1.41,20.06,20.06,0,0,1-26.5-4,3.94,3.94,0,0,1-5-1.7,4,4,0,0,1,7-4A4.1,4.1,0,0,1,10.11,37.13Zm31.6-4.41h0c-.1,0-.1,0-.2-.1a2,2,0,0,0-1.6,3.6,2,2,0,0,0,2-3.4A.26.26,0,0,1,41.71,32.72Zm-.4-2.09a16.83,16.83,0,0,0,.7-5,17.8,17.8,0,0,0-9.4-15.81,1,1,0,1,1,1-1.8A20,20,0,0,1,44,25.63a22.52,22.52,0,0,1-.8,5.7,4,4,0,0,1,1.3,5.3,4,4,0,1,1-7-4A4,4,0,0,1,41.31,30.63ZM20.21,8A17.91,17.91,0,0,0,6,25.63a.94.94,0,0,1-1,1,.94.94,0,0,1-1-1A20,20,0,0,1,20,6a4.08,4.08,0,0,1,4-3.39,4,4,0,0,1,0,8A4.16,4.16,0,0,1,20.21,8Zm3.8.6a2,2,0,1,0-2-2A2,2,0,0,0,24,8.63Zm-15.3,25A1.87,1.87,0,0,0,6,32.92a1.89,1.89,0,0,0-.7,2.71,1.89,1.89,0,0,0,2.7.7A1.88,1.88,0,0,0,8.71,33.63Zm20.8-8.11A.47.47,0,0,1,29,25a.48.48,0,0,1,.5-.5h3A2.48,2.48,0,0,1,35,27v6a2.48,2.48,0,0,1-2.5,2.5h-8A2.48,2.48,0,0,1,22,33V29a.5.5,0,0,1,1,0v4a1.54,1.54,0,0,0,1.5,1.5h8A1.54,1.54,0,0,0,34,33V27a1.54,1.54,0,0,0-1.5-1.5Z" transform="translate(-2.98 -2.63)"/></svg>