<svg id="图层_1" data-name="图层 1" xmlns="http://www.w3.org/2000/svg" viewBox="0 0 42.03 43"><title>nlplu</title><path id="服务图标-语言理解nlplu" d="M21,26.83a7.85,7.85,0,0,1,9.5-12.3.57.57,0,0,1,.2.7c-.1.3-.4.3-.7.2a7,7,0,0,0-8.2,1.2,6.7,6.7,0,0,0-1.2,8,5,5,0,0,1,.4-1.11h0a7.93,7.93,0,0,1,9.7-5.6,7.78,7.78,0,0,1,5.8,7.4.5.5,0,0,1-1,0,6.94,6.94,0,0,0-5.1-6.5,6.82,6.82,0,0,0-7.6,3,3.08,3.08,0,0,1,1.3-.3,3.39,3.39,0,0,1,3,1.8,7.86,7.86,0,0,1-10.3,11.8.5.5,0,0,1,.6-.8,6.85,6.85,0,0,0,8.9-.7,6.72,6.72,0,0,0,1.2-8c-.1.4-.2.7-.3,1h0a7.92,7.92,0,0,1-15.5-3.1.44.44,0,0,1,.6-.4.44.44,0,0,1,.4.6,6.92,6.92,0,0,0,5,7.6,6.82,6.82,0,0,0,7.6-3,2.13,2.13,0,0,1-1.2.31A3.55,3.55,0,0,1,21,26.83Zm.9-.6h0c.1.1.2.2.2.29a2.51,2.51,0,0,0,4.6-1.39,2.07,2.07,0,0,0-.3-1.11h0a.31.31,0,0,1-.1-.2,2.62,2.62,0,0,0-2.2-1.19,2.48,2.48,0,0,0-2.5,2.5A2.06,2.06,0,0,0,21.86,26.23Zm-11.7,10.9a18.1,18.1,0,0,0,13.9,6.5,17.25,17.25,0,0,0,9.9-3,1,1,0,0,1,1.4.29,1,1,0,0,1-.3,1.41,20.06,20.06,0,0,1-26.5-4,3.94,3.94,0,0,1-5-1.7,4,4,0,0,1,7-4A4.1,4.1,0,0,1,10.16,37.13Zm31.6-4.41h0c-.1,0-.1,0-.2-.1a2,2,0,0,0-1.6,3.6,2,2,0,0,0,2-3.4A.26.26,0,0,1,41.76,32.72Zm-.4-2.09a16.83,16.83,0,0,0,.7-5,17.8,17.8,0,0,0-9.4-15.81,1,1,0,1,1,1-1.8,20,20,0,0,1,10.4,17.61,22.52,22.52,0,0,1-.8,5.7,4,4,0,0,1,1.3,5.3,4,4,0,1,1-7-4A4,4,0,0,1,41.36,30.63ZM20.26,8a17.91,17.91,0,0,0-14.2,17.6.94.94,0,0,1-1,1,.94.94,0,0,1-1-1A20,20,0,0,1,20.06,6a4.08,4.08,0,0,1,4-3.39,4,4,0,0,1,0,8A4.16,4.16,0,0,1,20.26,8Zm3.8.6a2,2,0,1,0-2-2A2,2,0,0,0,24.06,8.63Zm-15.3,25a1.87,1.87,0,0,0-2.7-.71,1.89,1.89,0,0,0-.7,2.71,1.89,1.89,0,0,0,2.7.7A1.88,1.88,0,0,0,8.76,33.63Z" transform="translate(-3.03 -2.63)"/></svg>