<?xml version="1.0" encoding="utf-8"?>
<!-- Generator: Adobe Illustrator 21.0.0, SVG Export Plug-In . SVG Version: 6.00 Build 0)  -->
<svg version="1.1" id="图层_1" xmlns="http://www.w3.org/2000/svg" xmlns:xlink="http://www.w3.org/1999/xlink" x="0px" y="0px"
	 viewBox="0 0 40 44.1" style="enable-background:new 0 0 40 44.1;" xml:space="preserve">
<style type="text/css">
	.st0{fill:none;}
	.st1{fill:#060001;}
</style>
<title>nosql</title>
<g>
	<path class="st0" d="M16.2,26.4L16.2,26.4c1.4-0.5,2.6-1.5,3.4-2.8l0,0l0,0c0.1-0.1,0.2-0.3,0.2-0.4l-0.5-0.1l0,0l0,0
		c-0.5,0-1-0.1-1.5-0.3c-1.7-0.5-3.1-1.5-4.2-2.8c-1.1-1.5-1.7-3.2-1.7-5c0-0.4,0-0.7,0.1-1.1c0-0.1,0-0.2,0-0.3
		c0.1-0.3,0.1-0.7,0.2-1l0,0c-3.3,0.6-5.8,3.6-5.8,7.1c0,2.1,0.9,4.1,2.5,5.5C10.9,26.8,13.7,27.3,16.2,26.4z"/>
	<path class="st0" d="M31,25.5c-0.6-2.6-2.5-4.6-5-5.3c-1.5-0.4-3.1-0.4-4.5,0.2c-0.1,0.1-0.2,0.1-0.4,0.2l0,0l0.3,0.3
		c0.4,0.4,0.8,0.8,1.1,1.2c1.1,1.4,1.7,3,1.7,4.8v0.3c0,2.6-1.2,5-3.3,6.5c0.9,0.4,1.9,0.6,3,0.6c4,0,7.2-3.2,7.2-7.2
		C31.2,26.6,31.1,26,31,25.5L31,25.5z"/>
	<path class="st0" d="M23.3,27.1v-0.2c0-1.5-0.6-3-1.5-4.2c-0.1-0.2-0.3-0.3-0.4-0.5l-0.3,0.6c-0.2,0.4-0.4,0.9-0.7,1.3l0,0
		c-0.9,1.4-2.3,2.5-3.9,3.1l0,0c-2.5,1-5.4,0.6-7.5-0.9c0,0.2,0,0.5,0,0.7c0,4,3.2,7.2,7.2,7.2c1.3,0,2.6-0.4,3.7-1
		C22,32,23.3,29.7,23.3,27.1z"/>
	<path class="st0" d="M18.1,21.9c0.2,0,0.3,0.1,0.5,0.1l-0.1-0.5l0,0l0,0l0,0c-0.1-0.5-0.2-1-0.2-1.6l0,0l0,0l0,0l0,0v-0.3
		c0-1.6,0.5-3.2,1.4-4.5c1.5-2.3,4-3.7,6.7-3.7c-1.3-2.2-3.6-3.7-6.3-3.7c-2.9,0-5.5,1.7-6.6,4.4c-0.4,0.9-0.6,1.8-0.6,2.8
		c0,1.6,0.5,3.2,1.5,4.4C15.4,20.6,16.6,21.5,18.1,21.9z"/>
	<path class="st0" d="M36.6,10.8L21.3,2.3C21,2.1,20.5,2,20,2s-1,0.1-1.3,0.3L3.4,10.8c-0.7,0.4-1.3,1.4-1.3,2.2v18
		c0,0.8,0.6,1.8,1.3,2.2l15.3,8.5c0.6,0.4,1.9,0.4,2.6,0l15.3-8.5c0.7-0.4,1.3-1.4,1.3-2.2V13C37.9,12.2,37.3,11.2,36.6,10.8z
		 M32.2,27.1c0,4.5-3.7,8.2-8.2,8.2c-1.4,0-2.7-0.4-3.9-1c-1.2,0.7-2.6,1-3.9,1c-4.5,0-8.2-3.7-8.2-8.2c0-0.5,0.1-1,0.1-1.4
		c-1.7-1.6-2.7-3.7-2.7-6c0-4.2,3.2-7.7,7.3-8.1c1.3-2.9,4.2-4.7,7.4-4.7s6.1,1.9,7.4,4.7c4.1,0.5,7.1,4,7.1,8.1
		c0,2.2-0.9,4.4-2.6,5.9C32.1,26.1,32.2,26.6,32.2,27.1z"/>
	<path class="st0" d="M27.1,12.5c-0.2,0-0.5,0-0.7,0c-2.4,0-4.7,1.2-6,3.2c-0.8,1.2-1.2,2.5-1.2,4v0.2c0,0.2,0,0.4,0,0.6
		c0.1-0.1,0.3-0.2,0.4-0.3l0.1-0.1l0,0l0,0l0,0c0.4-0.2,0.8-0.5,1.3-0.6c1.6-0.6,3.5-0.7,5.2-0.2c2.6,0.7,4.6,2.7,5.5,5.2
		c1.2-1.3,1.9-3,1.9-4.8C33.6,15.9,30.8,12.8,27.1,12.5z"/>
	<path class="st1" d="M27.5,11.5c-1.3-2.9-4.2-4.7-7.4-4.7s-6,1.8-7.4,4.7c-4.1,0.5-7.3,4-7.3,8.1c0,2.3,1,4.5,2.7,6
		C8,26.1,8,26.6,8,27c0,4.5,3.7,8.2,8.2,8.2c1.4,0,2.7-0.4,3.9-1c1.2,0.7,2.6,1,3.9,1c4.5,0,8.2-3.7,8.2-8.2c0-0.5-0.1-1-0.2-1.5
		c1.6-1.5,2.6-3.7,2.6-5.9C34.6,15.5,31.6,12.1,27.5,11.5z M13.5,12.2c1.1-2.7,3.7-4.4,6.6-4.4c2.6,0,5,1.4,6.3,3.7
		c-2.7,0-5.2,1.4-6.7,3.7c-0.9,1.3-1.4,2.9-1.4,4.5V20l0,0l0,0l0,0l0,0c0,0.5,0.1,1,0.2,1.6l0,0l0,0l0,0l0.1,0.5
		c-0.2,0-0.3-0.1-0.5-0.1c-1.5-0.4-2.7-1.3-3.7-2.5c-1-1.3-1.5-2.8-1.5-4.4C12.9,14,13.1,13.1,13.5,12.2z M6.4,19.6
		c0-3.5,2.5-6.4,5.8-7.1l0,0c-0.1,0.3-0.2,0.7-0.2,1c0,0.1,0,0.2,0,0.3c0,0.4-0.1,0.7-0.1,1.1c0,1.8,0.6,3.6,1.7,5
		c1.1,1.4,2.5,2.4,4.2,2.8c0.5,0.1,1,0.2,1.5,0.3l0,0l0,0l0.5,0.1c-0.1,0.1-0.2,0.3-0.2,0.4l0,0l0,0c-0.8,1.3-2,2.2-3.4,2.8l0,0
		c-2.4,0.9-5.3,0.4-7.2-1.2C7.3,23.8,6.4,21.8,6.4,19.6z M19.8,33.3c-1.1,0.7-2.4,1-3.7,1c-4,0-7.2-3.2-7.2-7.2c0-0.2,0-0.5,0-0.7
		c2.2,1.5,5.1,1.8,7.5,0.9l0,0c1.6-0.6,2.9-1.7,3.9-3.1l0,0c0.3-0.4,0.5-0.9,0.7-1.3l0.3-0.6c0.1,0.1,0.3,0.3,0.4,0.5
		c0.9,1.2,1.5,2.7,1.5,4.2v0.2C23.3,29.7,22,32,19.8,33.3z M24,34.3c-1,0-2-0.2-3-0.6c2-1.5,3.3-4,3.3-6.5v-0.3
		c-0.1-1.8-0.7-3.4-1.7-4.8c-0.3-0.4-0.7-0.8-1.1-1.2l-0.3-0.3l0,0c0.1-0.1,0.2-0.1,0.4-0.2c1.4-0.6,3-0.6,4.5-0.2
		c2.5,0.7,4.5,2.7,5,5.3l0,0c0.1,0.5,0.2,1.1,0.2,1.6C31.2,31.1,28,34.3,24,34.3z M31.7,24.5c-0.9-2.5-2.9-4.5-5.5-5.2
		c-1.7-0.5-3.5-0.4-5.2,0.2c-0.4,0.2-0.9,0.4-1.3,0.6l0,0l0,0l0,0l-0.1,0.1c-0.1,0.1-0.3,0.2-0.4,0.3c0-0.2,0-0.4,0-0.6v-0.2
		c0-1.4,0.4-2.8,1.2-4c1.3-2,3.6-3.2,6-3.2c0.2,0,0.5,0,0.7,0c3.7,0.4,6.5,3.4,6.5,7.2C33.6,21.4,32.9,23.1,31.7,24.5z"/>
	<path class="st1" d="M37.6,9L22.3,0.5c-1.3-0.7-3.4-0.7-4.7,0L2.4,9C1,9.8,0,11.5,0,13v18c0,1.5,1,3.2,2.4,4l15.3,8.5
		c0.6,0.4,1.5,0.6,2.3,0.6s1.7-0.2,2.3-0.6L37.6,35c1.3-0.7,2.4-2.5,2.4-4V13C40,11.5,39,9.8,37.6,9z M37.9,31
		c0,0.8-0.6,1.8-1.3,2.2l-15.3,8.5c-0.7,0.4-2,0.4-2.6,0L3.4,33.2c-0.7-0.4-1.3-1.4-1.3-2.2V13c0-0.8,0.6-1.8,1.3-2.2l15.3-8.5
		C19,2.1,19.5,2,20,2s1,0.1,1.3,0.3l15.3,8.5c0.7,0.4,1.3,1.4,1.3,2.2C37.9,13,37.9,31,37.9,31z"/>
</g>
</svg>
