<svg id="图层_1" data-name="图层 1" xmlns="http://www.w3.org/2000/svg" viewBox="0 0 38.11 44"><title>oneaccess</title><path d="M14.5,29.36V26.09a.5.5,0,0,1,1,0v3.27a1.14,1.14,0,0,0,1.14,1.14h4.09a.5.5,0,1,1,0,1H16.64A2.14,2.14,0,0,1,14.5,29.36Zm0-14.72v3.27a.5.5,0,0,0,1,0V14.64a1.14,1.14,0,0,1,1.14-1.14h4.09a.5.5,0,1,0,0-1H16.64A2.14,2.14,0,0,0,14.5,14.64Zm18.5,11a.5.5,0,0,0-.5.5v3.27a1.14,1.14,0,0,1-1.14,1.14H27.27a.5.5,0,0,0,0,1h4.09a2.14,2.14,0,0,0,2.14-2.14V26.09a.5.5,0,0,0-.5-.5Zm.5-11a2.14,2.14,0,0,0-2.14-2.14H27.27a.5.5,0,0,0,0,1h4.09a1.14,1.14,0,0,1,1.14,1.14V18a.5.5,0,0,0,1,0ZM41.1,32a2.93,2.93,0,0,1-2.85,3,2.48,2.48,0,0,1-.93-.18c-2.66,3.1-7.75,7.11-10.61,9.27a4.5,4.5,0,0,1-5.42,0c-1.72-1.3-3.83-3.07-6.45-5.41a1,1,0,0,1-.12-1.41h0A.91.91,0,0,1,16,37.12l0,0c2.59,2.3,4.66,4,6.34,5.3a2.64,2.64,0,0,0,3.2,0,82,82,0,0,0,10.23-8.89A3.12,3.12,0,0,1,35.4,32a2.85,2.85,0,0,1,5.7,0Zm-1.9,0a1,1,0,1,0-1,1,1,1,0,0,0,1-1ZM6.93,14.55A111,111,0,0,0,9.82,29a3,3,0,0,1-.07,6A2.93,2.93,0,0,1,6.9,32,3,3,0,0,1,8,29.64,116.37,116.37,0,0,1,5,14.85,4.82,4.82,0,0,1,8,9.63c2.16-.8,3.69-1.42,4.43-1.8l4.42-2.22A.93.93,0,0,1,18.1,6s0,0,0,0a1,1,0,0,1-.45,1.33L13.26,9.63a47.71,47.71,0,0,1-4.63,1.88A2.81,2.81,0,0,0,6.93,14.55ZM8.8,32a1,1,0,1,0,1-1H9.75A1,1,0,0,0,8.8,32ZM43,14.85l-.23,1.6C42.38,18.91,42,22,41.3,25a1,1,0,0,1-.92.78h-.21a1,1,0,0,1-.72-1.19c.64-2.92,1.06-5.95,1.39-8.38l.23-1.61a2.82,2.82,0,0,0-1.79-3,48,48,0,0,1-4.64-1.89l-8.15-4.2A2.82,2.82,0,0,1,24,7a2.93,2.93,0,0,1-2.85-3A2.93,2.93,0,0,1,24,1a2.89,2.89,0,0,1,2.78,2.34l8.7,4.49a47.13,47.13,0,0,0,4.43,1.79A4.84,4.84,0,0,1,43,14.85ZM25,4a1,1,0,1,0-1,1A1,1,0,0,0,25,4ZM24,15.5a4,4,0,0,1,2.11,7.38A5.93,5.93,0,0,1,30,28a.52.52,0,0,1-.46.54h0a.5.5,0,0,1-.54-.46V28a5,5,0,0,0-10,0,.5.5,0,0,1-.54.46h0A.51.51,0,0,1,18,28a6,6,0,0,1,3.9-5.07A4,4,0,0,1,24,15.5Zm0,1a3,3,0,1,0,3,3A3,3,0,0,0,24,16.5Z" transform="translate(-4.94 -1)"/></svg>