<?xml version="1.0" encoding="utf-8"?>
<!-- Generator: Adobe Illustrator 21.0.0, SVG Export Plug-In . SVG Version: 6.00 Build 0)  -->
<svg version="1.1" id="图层_1" xmlns="http://www.w3.org/2000/svg" xmlns:xlink="http://www.w3.org/1999/xlink" x="0px" y="0px"
	 viewBox="0 0 44 44" style="enable-background:new 0 0 44 44;" xml:space="preserve">
<style type="text/css">
	.st0{fill:none;}
</style>
<path d="M34.5,20.2c-1.2,0-2.1,0.8-2.4,1.9h-0.6c-0.7,0-1.2,0.2-1.6,0.6c-0.7,0.7-0.6,1.6-0.6,1.7c0,0.6-0.1,1.1-0.4,1.4
	c-0.3,0.3-0.8,0.3-0.8,0.3h0c-1.1,0-1.3-1.1-1.3-1.3c-0.5-3-1-10.2-1-10.3c-0.1-1-0.4-1.8-0.9-2.2c-0.6-0.5-1.3-0.5-1.3-0.5
	c-1.6,0.1-2,1.6-2.1,2.5c-0.3,5.5-1,15.1-1,15.2c0,0.9-0.2,1.5-0.6,1.9c-0.3,0.3-0.6,0.2-0.7,0.2c-1,0-1.2-1.7-1.2-1.7
	c-0.3-2-1-5.8-1-5.8c-0.3-1.6-1.9-2-2.7-1.9h-2.1c-0.3-1.1-1.2-1.9-2.4-1.9c-1.4,0-2.5,1.1-2.5,2.5c0,1.4,1.1,2.5,2.5,2.5
	c1.2,0,2.3-0.9,2.5-2.1h2.1c0.1,0,1.5,0,1.7,1.1c0,0,0.7,3.9,1,5.8c0.1,1,0.7,2.6,2.1,2.6c0,0,0.1,0,0.2,0c0.2,0,0.7-0.1,1.2-0.5
	c0.6-0.5,0.9-1.4,1-2.6c0-0.1,0.7-9.7,1-15.2c0,0,0.1-1.5,1.2-1.5c0,0,0.3,0,0.6,0.2c0.3,0.3,0.5,0.8,0.6,1.5c0,0.3,0.5,7.3,1,10.4
	c0.1,0.7,0.7,2.1,2.2,2.1h0c0.1,0,0.9,0,1.5-0.6c0.5-0.5,0.7-1.2,0.7-2.1c0,0,0-0.6,0.4-1c0.2-0.2,0.5-0.3,0.9-0.3H32
	c0.2,1.2,1.2,2.1,2.5,2.1c1.4,0,2.5-1.1,2.5-2.5C37,21.3,35.9,20.2,34.5,20.2z M9.7,24.2c-0.8,0-1.5-0.7-1.5-1.5s0.7-1.5,1.5-1.5
	s1.5,0.7,1.5,1.5S10.5,24.2,9.7,24.2z M34.5,24.2c-0.8,0-1.5-0.7-1.5-1.5s0.7-1.5,1.5-1.5s1.5,0.7,1.5,1.5S35.3,24.2,34.5,24.2z
	 M38.4,9.6L24.6,1.7c-1.6-0.9-3.6-0.9-5.2,0L5.6,9.6C4,10.5,3,12.2,3,14.1v15.8c0,1.9,1,3.6,2.6,4.5l13.8,7.9
	c0.8,0.5,1.7,0.7,2.6,0.7s1.8-0.2,2.6-0.7l13.8-7.9c1.6-0.9,2.6-2.7,2.6-4.5V14.1C41,12.2,40,10.5,38.4,9.6z M39,29.9
	c0,1.1-0.6,2.2-1.6,2.8l-13.8,7.9c-1,0.6-2.3,0.6-3.2,0L6.6,32.7C5.6,32.1,5,31,5,29.9V14.1c0-1.1,0.6-2.2,1.6-2.8l13.8-7.9
	C20.9,3.1,21.4,3,22,3c0.6,0,1.1,0.1,1.6,0.4l13.8,7.9c1,0.6,1.6,1.6,1.6,2.8V29.9z"/>
<rect class="st0" width="44" height="44"/>
</svg>
