<?xml version="1.0" encoding="utf-8"?>
<!-- Generator: Adobe Illustrator 21.0.0, SVG Export Plug-In . SVG Version: 6.00 Build 0)  -->
<svg version="1.1" id="图层_1" xmlns="http://www.w3.org/2000/svg" xmlns:xlink="http://www.w3.org/1999/xlink" x="0px" y="0px"
	 viewBox="0 0 48 48" style="enable-background:new 0 0 48 48;" xml:space="preserve">
<style type="text/css">
	.st0{fill:#040000;}
	.st1{fill:#060001;}
	.st2{fill:#080103;}
</style>
<path d="M38.5,32H19c0-0.6-0.4-1-1-1s-1,0.4-1,1h-2.5c-0.3,0-0.5,0.2-0.5,0.5s0.2,0.5,0.5,0.5H17c0,0.6,0.4,1,1,1s1-0.4,1-1h19.5
	c0.3,0,0.5-0.2,0.5-0.5S38.8,32,38.5,32z M10.5,15C9.7,15,9,15.7,9,16.5c0,0.8,0.7,1.5,1.5,1.5c0.8,0,1.5-0.7,1.5-1.5
	C12,15.7,11.3,15,10.5,15z M10.5,23C9.7,23,9,23.7,9,24.5c0,0.8,0.7,1.5,1.5,1.5c0.8,0,1.5-0.7,1.5-1.5C12,23.7,11.3,23,10.5,23z
	 M10.5,31C9.7,31,9,31.7,9,32.5c0,0.8,0.7,1.5,1.5,1.5c0.8,0,1.5-0.7,1.5-1.5C12,31.7,11.3,31,10.5,31z M38.5,24H36c0-0.6-0.4-1-1-1
	s-1,0.4-1,1H14.5c-0.3,0-0.5,0.2-0.5,0.5s0.2,0.5,0.5,0.5H34c0,0.6,0.4,1,1,1s1-0.4,1-1h2.5c0.3,0,0.5-0.2,0.5-0.5S38.8,24,38.5,24z
	 M41,5H7c-2.8,0-5,2.2-5,5v28c0,2.8,2.2,5,5,5h34c2.8,0,5-2.2,5-5V10C46,7.2,43.8,5,41,5z M44,38c0,1.7-1.3,3-3,3H7
	c-1.7,0-3-1.3-3-3V10c0-1.7,1.3-3,3-3h34c1.7,0,3,1.3,3,3V38z M38.5,16H19c0-0.6-0.4-1-1-1s-1,0.4-1,1h-2.5c-0.3,0-0.5,0.2-0.5,0.5
	s0.2,0.5,0.5,0.5H17c0,0.6,0.4,1,1,1s1-0.4,1-1h19.5c0.3,0,0.5-0.2,0.5-0.5S38.8,16,38.5,16z"/>
</svg>
