<?xml version="1.0" encoding="utf-8"?>
<!-- Generator: Adobe Illustrator 21.0.0, SVG Export Plug-In . SVG Version: 6.00 Build 0)  -->
<svg version="1.1" id="图层_1" xmlns="http://www.w3.org/2000/svg" xmlns:xlink="http://www.w3.org/1999/xlink" x="0px" y="0px"
	 viewBox="0 0 48 48" style="enable-background:new 0 0 48 48;" xml:space="preserve">
<style type="text/css">
	.st0{fill:#040000;}
	.st1{fill:#060001;}
	.st2{fill:#080103;}
</style>
<path d="M9.5,34.5c-0.6,0-1,0.4-1,1c0,0.6,0.4,1,1,1s1-0.4,1-1C10.5,34.9,10.1,34.5,9.5,34.5z M12.5,22h14.8c0.3,0,0.5-0.2,0.5-0.5
	S27.6,21,27.3,21H12.5c-0.3,0-0.5,0.2-0.5,0.5S12.2,22,12.5,22z M12.5,15h26c0.3,0,0.5-0.2,0.5-0.5S38.8,14,38.5,14h-26
	c-0.3,0-0.5,0.2-0.5,0.5S12.2,15,12.5,15z M9.5,27.5c-0.6,0-1,0.4-1,1c0,0.6,0.4,1,1,1s1-0.4,1-1C10.5,27.9,10.1,27.5,9.5,27.5z
	 M24.5,28h-12c-0.3,0-0.5,0.2-0.5,0.5s0.2,0.5,0.5,0.5h12c0.3,0,0.5-0.2,0.5-0.5S24.8,28,24.5,28z M42,8h-7V6c0-0.6-0.4-1-1-1
	s-1,0.4-1,1v2H15V6c0-0.6-0.4-1-1-1s-1,0.4-1,1v2H6C5.4,8,5,8.4,5,9v33c0,0.6,0.4,1,1,1h36c0.6,0,1-0.4,1-1V9C43,8.4,42.6,8,42,8z
	 M23,39.6V41H7V10h6v2c0,0.6,0.4,1,1,1s1-0.4,1-1v-2h18v2c0,0.6,0.4,1,1,1s1-0.4,1-1v-2h6v26.5c-1-0.7-2.2-1-3.2-1.3
	c0,0-0.1,0-0.1,0c0.9-1.1,1.4-2.5,1.4-4v-3.7c0-3.4-2.8-6.2-6.2-6.2c-3.4,0-6.2,2.8-6.2,6.2v3.7c0,1.5,0.5,2.9,1.4,4
	c-0.1,0-0.1,0-0.2,0C26.2,35.7,23,36.7,23,39.6z M41,41H25v-1.4c0-1.3,1.7-1.9,3.6-2.5c0.7-0.2,1.2-0.4,1.5-0.5
	c0.3-0.2,0.5-0.5,0.5-0.9v-0.6c0-0.3-0.1-0.6-0.4-0.8c-1-0.8-1.5-2-1.5-3.2v-3.7c0-2.3,1.9-4.2,4.2-4.2c2.3,0,4.2,1.9,4.2,4.2v3.7
	c0,1.2-0.5,2.4-1.5,3.2c-0.2,0.2-0.4,0.5-0.4,0.8v0.6c0,0.4,0.2,0.7,0.5,0.9c0.3,0.2,0.8,0.3,1.5,0.6c1.3,0.4,3.2,0.9,3.5,2.1
	c0,0.2,0.1,0.3,0.2,0.4V41z M23.4,35H12.5c-0.3,0-0.5,0.2-0.5,0.5s0.2,0.5,0.5,0.5h10.9c0.3,0,0.5-0.2,0.5-0.5S23.6,35,23.4,35z
	 M9.5,20.5c-0.6,0-1,0.4-1,1c0,0.6,0.4,1,1,1s1-0.4,1-1C10.5,20.9,10.1,20.5,9.5,20.5z M9.5,13.5c-0.6,0-1,0.4-1,1c0,0.6,0.4,1,1,1
	s1-0.4,1-1C10.5,13.9,10.1,13.5,9.5,13.5z"/>
</svg>
