<?xml version="1.0" encoding="utf-8"?>
<!-- Generator: Adobe Illustrator 21.0.0, SVG Export Plug-In . SVG Version: 6.00 Build 0)  -->
<svg version="1.1" id="图层_1" xmlns="http://www.w3.org/2000/svg" xmlns:xlink="http://www.w3.org/1999/xlink" x="0px" y="0px"
	 viewBox="0 0 48 48" style="enable-background:new 0 0 48 48;" xml:space="preserve">
<style type="text/css">
	.st0{fill:#040000;}
	.st1{fill:#060001;}
	.st2{fill:#080103;}
</style>
<path d="M17.7,9.9c0.4,3.2,3.2,5.6,6.4,5.6c3.3,0,6-2.4,6.4-5.6c0.3-0.2,0.6-0.5,0.6-0.9c0-0.6-0.4-1-1-1s-1,0.4-1,1
	c0,0.3,0.2,0.6,0.4,0.8c-0.4,2.7-2.7,4.7-5.4,4.7s-5-2-5.4-4.7c0.3-0.2,0.4-0.5,0.4-0.8c0-0.6-0.4-1-1-1s-1,0.4-1,1
	C17.1,9.4,17.3,9.7,17.7,9.9z M29.2,25.5C28.4,23.5,26.4,22,24,22c-2.4,0-4.4,1.5-5.2,3.5C16.1,25.8,14,28,14,30.8
	c0,2.9,2.4,5.2,5.5,5.2h9.1c3,0,5.5-2.4,5.5-5.2C34,28,31.9,25.8,29.2,25.5z M28.5,34.6h-9.1c-2.2,0-4-1.7-4-3.8
	c0-2,1.5-3.6,3.6-3.8c0.6-0.1,1-0.4,1.2-0.9c0.6-1.6,2.1-2.6,3.8-2.6s3.2,1,3.8,2.6c0.2,0.5,0.7,0.9,1.2,0.9c2,0.2,3.6,1.9,3.6,3.8
	C32.5,32.9,30.8,34.6,28.5,34.6z M41,5.4C41,3.5,39.8,2,38.3,2H9.7C8.2,2,7,3.5,7,5.3L5,42.6C5,44.5,6.2,46,7.7,46h32.7
	c1.5,0,2.7-1.5,2.7-3.5L41,5.4z M40.3,44H7.7C7.4,44,7,43.5,7,42.7L9,5.4C9,4.5,9.4,4,9.7,4h28.7C38.6,4,39,4.5,39,5.5l2,37.1
	C41,43.5,40.6,44,40.3,44z"/>
</svg>
