<svg id="图层_1" data-name="图层 1" xmlns="http://www.w3.org/2000/svg" viewBox="0 0 40 40"><defs><style>.cls-1{fill:#060001;}</style></defs><title>QoS</title><path class="cls-1" d="M24,4.13A19.9,19.9,0,0,0,4,23.88a19.61,19.61,0,0,0,9.4,16.75,1,1,0,0,0,.53.15,1,1,0,0,0,.85-.46A1,1,0,0,0,14.46,39,17.68,17.68,0,0,1,6,23.88a18,18,0,0,1,36,0,17.68,17.68,0,0,1-8.34,15,1,1,0,0,0-.31,1.36,1,1,0,0,0,1.38.3A19.6,19.6,0,0,0,44,23.88,19.9,19.9,0,0,0,24,4.13Zm6.83,30.09A12.28,12.28,0,0,0,36.5,23.88a12.5,12.5,0,0,0-25,0,12.29,12.29,0,0,0,5.68,10.35.56.56,0,0,0,.27.08.48.48,0,0,0,.42-.23.49.49,0,0,0-.14-.68,11.31,11.31,0,0,1-5.23-9.52,11.5,11.5,0,0,1,23,0,11.29,11.29,0,0,1-5.22,9.51.5.5,0,1,0,.55.83Zm-6-9.57c-.22-.62-.6-.72-.81-.72s-.58.1-.8.72L16.86,42.54a1.18,1.18,0,0,0,.13,1.1,1.21,1.21,0,0,0,1,.49H30a1.22,1.22,0,0,0,1-.49,1.18,1.18,0,0,0,.13-1.1ZM30,43.14H18a.27.27,0,0,1-.2-.07.22.22,0,0,1,0-.21L24,25.37l6.2,17.49a.25.25,0,0,1,0,.21A.24.24,0,0,1,30,43.14ZM27.67,27.92a.5.5,0,1,0,.67.74,6.38,6.38,0,0,0,2.16-4.78,6.5,6.5,0,0,0-13,0,6.39,6.39,0,0,0,2.17,4.78.46.46,0,0,0,.33.13.5.5,0,0,0,.34-.86,5.41,5.41,0,0,1-1.84-4.05,5.5,5.5,0,0,1,11,0A5.36,5.36,0,0,1,27.67,27.92Z" transform="translate(-4 -4.13)"/></svg>