<?xml version="1.0" encoding="utf-8"?>
<!-- Generator: Adobe Illustrator 21.0.0, SVG Export Plug-In . SVG Version: 6.00 Build 0)  -->
<svg version="1.1" id="图层_1" xmlns="http://www.w3.org/2000/svg" xmlns:xlink="http://www.w3.org/1999/xlink" x="0px" y="0px"
	 viewBox="0 0 48 48" style="enable-background:new 0 0 48 48;" xml:space="preserve">
<style type="text/css">
	.st0{fill:none;}
	.st1{fill:#070102;}
</style>
<path d="M32,19h-5c-0.6,0-1-0.4-1-1v-5c0-0.6-0.4-1-1-1h-2c-0.6,0-1,0.4-1,1v5c0,0.6-0.4,1-1,1h-1c-0.6,0-1-0.4-1-1v-5
	c0-0.6-0.4-1-1-1h-2c-0.6,0-1,0.4-1,1v16c0,0.6,0.4,1,1,1h16c0.6,0,1-0.4,1-1v-9C33,19.4,32.6,19,32,19z M32,29H16V13h2v5
	c0,1.1,0.9,2,2,2h1c1.1,0,2-0.9,2-2v-5h2v5c0,1.1,0.9,2,2,2h5V29z M26,23v2c0,0.6,0.4,1,1,1h2c0.6,0,1-0.4,1-1v-2c0-0.6-0.4-1-1-1
	h-2C26.4,22,26,22.4,26,23z M29,25h-2v-2h2V25z M42,5H6C3.8,5,2,6.8,2,9.1v24.8C2,36.2,3.8,38,6,38h13l3.5,4.3
	c0.4,0.5,1,0.7,1.5,0.7c0.6,0,1.1-0.2,1.5-0.7L29,38h13c2.2,0,4-1.8,4-4.1V9.1C46,6.8,44.2,5,42,5z M44,33.8c0,1.2-0.9,2.1-2,2.1H29
	c-0.6,0-1.2,0.3-1.6,0.7L24,41l-3.5-4.3c-0.4-0.5-1-0.7-1.6-0.7H6c-1.1,0-2-1-2-2.1V9.1C4,7.9,4.9,7,6,7h36c1.1,0,2,1,2,2.1V33.8z"
	/>
</svg>
