<svg id="图层_1" data-name="图层 1" xmlns="http://www.w3.org/2000/svg" viewBox="0 0 41.8 42"><title>RDA</title><path id="SVGID" d="M39.31,28.65v3a.5.5,0,1,1-1,0v-1.8l-4.8,4.8c-.1.1-.2.1-.4.1s-.3-.1-.4-.1l-2.5-2.5-2.5,2.5a.44.44,0,0,1-.5.1.32.32,0,0,1-.3-.3A.75.75,0,0,1,27,34l3-2.9c.1-.1.2-.1.4-.1s.3.1.4.1l2.5,2.5,4.4-4.5h-1.8a.5.5,0,0,1,0-1h3c.2,0,.4.2.4.6Zm.8,9.6a10.11,10.11,0,1,0-14.3,0,10.2,10.2,0,0,0,14.3,0Zm.6,2a12,12,0,1,1,1.4-1.4l3.5,3.5a1,1,0,0,1,0,1.4.71.71,0,0,1-.6.3,1.08,1.08,0,0,1-.7-.3Zm-29.2-14.2h5a.5.5,0,0,1,0,1h-5a.5.5,0,0,1,0-1Zm0-7h9a.5.5,0,0,1,0,1h-9a.5.5,0,0,1,0-1Zm0-7h19a.5.5,0,0,1,0,1h-19a.5.5,0,0,1,0-1ZM38,14.15H36V5.25a1.14,1.14,0,0,0-.3-.8,1,1,0,0,0-.9-.4H7.21A1.16,1.16,0,0,0,6,5.25V40a1.13,1.13,0,0,0,1.2,1.1h11.9v2H7.51a3.41,3.41,0,0,1-2.4-.9,3.1,3.1,0,0,1-1-2.4V5.55a3.39,3.39,0,0,1,3.4-3.5h27.1a4,4,0,0,1,2.5,1,3.17,3.17,0,0,1,1,2.5v8.6Z" transform="translate(-4.1 -2.05)"/></svg>