<svg id="图层_1" data-name="图层 1" xmlns="http://www.w3.org/2000/svg" viewBox="0 0 44 44">
  <defs>
    <style>
      .cls-1 {
        fill: #070102;
      }
    </style>
  </defs>
  <title>画板 1</title>
  <path class="cls-1" d="M28.23,18.47l-4.48-2.59a3.51,3.51,0,0,0-3.5,0l-4.48,2.59a3.51,3.51,0,0,0-1.75,3v5.17a3.51,3.51,0,0,0,1.75,3l4.48,2.59a3.51,3.51,0,0,0,3.5,0l4.48-2.58a3.51,3.51,0,0,0,1.75-3V21.5A3.51,3.51,0,0,0,28.23,18.47Zm-5,13a2.51,2.51,0,0,1-2.5,0l-2.89-1.67a4.14,4.14,0,0,1,8.28,0ZM19.8,22.51a2.2,2.2,0,1,1,2.2,2.2A2.2,2.2,0,0,1,19.8,22.51ZM29,26.68a2.51,2.51,0,0,1-1.25,2.17l-.64.37a5.14,5.14,0,0,0-3.2-4.13,3.2,3.2,0,1,0-3.77,0,5.14,5.14,0,0,0-3.2,4.13l-.64-.37A2.5,2.5,0,0,1,15,26.68V21.5a2.51,2.51,0,0,1,1.25-2.17l4.48-2.59a2.51,2.51,0,0,1,2.5,0l4.48,2.59A2.51,2.51,0,0,1,29,21.5ZM32.8,14.45a11.42,11.42,0,0,0-21.6,0,11.44,11.44,0,0,0,1.27,22.8H31.53a11.44,11.44,0,0,0,1.27-22.8ZM31.53,35.34H12.47a9.53,9.53,0,0,1-1.06-19A1.91,1.91,0,0,0,13,15.07a9.52,9.52,0,0,1,18,0,1.91,1.91,0,0,0,1.59,1.27,9.53,9.53,0,0,1-1.06,19Z"/>
</svg>
