<svg id="图层_1" data-name="图层 1" xmlns="http://www.w3.org/2000/svg" viewBox="0 0 48 48"><title>画板 1</title><path d="M42.85,3.11C39.9,3.67,38,6.22,38,9.61V32a4.46,4.46,0,0,1-4.23,4H7.41C5.47,36,4,33.85,4,32V16a4,4,0,0,1,4.27-4H29.81a1,1,0,1,0,0-2H8.23A6.07,6.07,0,0,0,2,16V32C2,34.72,4.11,37.73,7,38L4.24,43.55A1,1,0,0,0,6,44.45L9.26,38H33.6a1,1,0,0,0,.08.21l3.9,6.32a1,1,0,1,0,1.7-1.05l-3.59-5.82A6.4,6.4,0,0,0,40,32V9.61c0-1.9.85-4.09,3.22-4.53a1,1,0,0,0-.37-2ZM27,20.5A2.5,2.5,0,0,0,24.5,18h-11A2.5,2.5,0,0,0,11,20.5v7A2.5,2.5,0,0,0,13.5,30h11A2.5,2.5,0,0,0,27,27.5v-.3L31.31,29a.51.51,0,0,0,.19,0,.5.5,0,0,0,.5-.5v-9a.5.5,0,0,0-.69-.46L27,20.81Zm-1,6h0v1A1.5,1.5,0,0,1,24.5,29h-11A1.5,1.5,0,0,1,12,27.5v-7A1.5,1.5,0,0,1,13.5,19h11A1.5,1.5,0,0,1,26,20.5Zm5-6.21v7.51l-4-1.64V21.89Z"/></svg>