<svg id="图层_1" data-name="图层 1" xmlns="http://www.w3.org/2000/svg" viewBox="0 0 43.97 44.02"><defs><style>.cls-1{fill:#040000;}</style></defs><title>支持与服务中心01</title><path d="M44.7,16.4a1.11,1.11,0,1,0-2.1.7A20.2,20.2,0,0,1,38,38a19.83,19.83,0,0,1-24.7,2.6,3,3,0,0,0-4.8-3.3,2.9,2.9,0,0,0,0,4.2,3,3,0,0,0,3.2.7,22.11,22.11,0,0,0,27.9-2.6A22.37,22.37,0,0,0,44.7,16.4ZM12,40.9a2,2,0,1,1,0-2.8A1.93,1.93,0,0,1,12,40.9ZM10,10A20,20,0,0,1,34.7,7.3a3,3,0,1,0,4.8-.9,3,3,0,0,0-3.2-.7,22,22,0,0,0-32.5,27,1.08,1.08,0,0,0,2-.8A19.78,19.78,0,0,1,10,10ZM36,7.1a2,2,0,0,1,2.8,2.8A2,2,0,0,1,36,7.1Z" transform="translate(-2.04 -1.97)"/><path class="cls-1" d="M34.36,17.6c-1.13-3-3.21-7.07-10.35-7.07s-11.34,6-11.34,10.16c0,5.62,3.66,9.45,3.65,10.72v5.33a.58.58,0,0,0,.5.41c.31,0,.38-.15.48-.41V31.33c0-1.62-3.6-5.86-3.62-10.4,0-4.9,5.32-9.4,9.88-9.4V19.7a4,4,0,0,0-3.34,4.14,3.71,3.71,0,0,0,3.66,3.78h.18a4.35,4.35,0,0,0,2.44-.86l2,1.44a.49.49,0,0,0,0,.17,1.23,1.23,0,0,0,1.24,1.26,1.11,1.11,0,0,0,1.1-1.08,1.24,1.24,0,0,0-1.24-1.26h0a1.05,1.05,0,0,0-.46.09L27.22,26A4.29,4.29,0,0,0,28,23.68a4.37,4.37,0,0,0-3.45-4V11.53a8.7,8.7,0,0,1,8.69,6.35c.53,1.71,3.38,6.12,3.18,6.82-.14.48-2.66,1.67-2.66,1.67v3.32a3,3,0,0,1-1.08,1.67,4.33,4.33,0,0,1-2.5.83H28.77v4.55a.58.58,0,0,0,.51.4.54.54,0,0,0,.51-.41V33.18a5.72,5.72,0,0,0,3.3-.93,3.46,3.46,0,0,0,1.69-2.82V26.92c.87-.37,2.66-1.23,2.91-1.83C37.8,24.09,35.49,20.6,34.36,17.6ZM27,23.68a2.95,2.95,0,1,1-2.94-2.95A2.94,2.94,0,0,1,27,23.68Z" transform="translate(-2.04 -1.97)"/><circle class="cls-1" cx="27.63" cy="26.47" r="1.21"/></svg>