<?xml version="1.0" encoding="utf-8"?>
<!-- Generator: Adobe Illustrator 21.0.0, SVG Export Plug-In . SVG Version: 6.00 Build 0)  -->
<svg version="1.1" id="_48PX模板" xmlns="http://www.w3.org/2000/svg" xmlns:xlink="http://www.w3.org/1999/xlink" x="0px"
	 y="0px" viewBox="0 0 48 48" style="enable-background:new 0 0 48 48;" xml:space="preserve">
<path d="M28.5,28.5c-0.2,0.2-0.2,0.5,0,0.7l1.3,1.3H26c-0.3,0-0.5,0.2-0.5,0.5c0,0.3,0.2,0.5,0.5,0.5h3.8l-1.3,1.3
	c-0.2,0.2-0.2,0.5,0,0.7c0.2,0.2,0.5,0.2,0.7,0l2.1-2.1c0.1,0,0.1-0.1,0.1-0.2c0,0,0-0.1,0-0.1c0-0.1,0-0.2,0-0.2c0,0,0-0.1,0-0.1
	c0-0.1-0.1-0.1-0.1-0.1l-2.1-2.1C29,28.3,28.7,28.3,28.5,28.5z M18.2,31.5H22c0.3,0,0.5-0.2,0.5-0.5s-0.2-0.5-0.5-0.5h-3.8l1.3-1.3
	c0.2-0.2,0.2-0.5,0-0.7c-0.2-0.2-0.5-0.2-0.7,0l-2.1,2.1c-0.1,0.1-0.1,0.1-0.1,0.2c0,0,0,0.1,0,0.1c0,0.1,0,0.2,0,0.2
	c0,0,0,0.1,0,0.1c0,0.1,0.1,0.1,0.1,0.1l2.1,2.1c0.2,0.2,0.5,0.2,0.7,0c0.2-0.2,0.2-0.5,0-0.7L18.2,31.5z M23.7,29.3
	c0,0.1,0.1,0.1,0.2,0.1h0.1H24h0.1h0.1c0.1,0,0.1-0.1,0.2-0.1l2.1-2.2c0.2-0.2,0.2-0.5,0-0.7c-0.2-0.2-0.5-0.2-0.7,0l-1.3,1.3V24
	c0-0.3-0.2-0.5-0.5-0.5s-0.5,0.2-0.5,0.5v3.8l-1.3-1.3c-0.2-0.2-0.5-0.2-0.7,0c-0.2,0.2-0.2,0.5,0,0.7L23.7,29.3z M24.4,32.7
	c0,0-0.1-0.1-0.2-0.1h-0.1H24h-0.1h-0.1c-0.1,0-0.1,0.1-0.2,0.1l-2.1,2.1c-0.2,0.2-0.2,0.5,0,0.7c0.2,0.2,0.5,0.2,0.7,0l1.3-1.3V38
	c0,0.3,0.2,0.5,0.5,0.5s0.5-0.2,0.5-0.5v-3.8l1.3,1.3c0.2,0.2,0.5,0.2,0.7,0c0.2-0.2,0.2-0.5,0-0.7L24.4,32.7z M24,21
	c-5.5,0-10,4.5-10,10s4.5,10,10,10s10-4.5,10-10S29.5,21,24,21z M24,40c-5,0-9-4-9-9s4-9,9-9s9,4,9,9S29,40,24,40z M35.5,14.7
	C33.6,10.1,29.1,7,24,7c-5.1,0-9.6,3.1-11.5,7.7C6.5,15.7,2,20.8,2,26.9c0,5.8,4.1,10.8,9.8,12.1c0.5,0.1,1.1-0.2,1.2-0.8
	c0.1-0.5-0.2-1.1-0.8-1.2C7.5,36,4,31.7,4,26.9c0-5.3,4-9.7,9.3-10.3l0.6-0.1l0.2-0.6c1.5-4.2,5.4-7,9.9-7s8.4,2.8,9.9,7l0.2,0.6
	l0.6,0.1c5.3,0.6,9.3,5,9.3,10.3c0,4.8-3.5,9.1-8.2,10.1c-0.5,0.1-0.9,0.7-0.8,1.2c0.1,0.5,0.5,0.8,1,0.8c0.1,0,0.1,0,0.2,0
	c5.7-1.2,9.8-6.3,9.8-12.1C46,20.8,41.5,15.7,35.5,14.7z"/>
</svg>
