<?xml version="1.0" encoding="utf-8"?>
<!-- Generator: Adobe Illustrator 21.0.0, SVG Export Plug-In . SVG Version: 6.00 Build 0)  -->
<svg version="1.1" id="图层_1" xmlns="http://www.w3.org/2000/svg" xmlns:xlink="http://www.w3.org/1999/xlink" x="0px" y="0px"
	 viewBox="0 0 48 48" style="enable-background:new 0 0 48 48;" xml:space="preserve">
<style type="text/css">
	.st0{fill:#040000;}
	.st1{fill:#060001;}
	.st2{fill:#080103;}
</style>
<path d="M35.6,28.2H12.4c-0.3,0-0.5,0.2-0.5,0.5c0,0.3,0.2,0.5,0.5,0.5h23.2c0.3,0,0.5-0.2,0.5-0.5C36.1,28.4,35.9,28.2,35.6,28.2z
	 M42.5,10.2C35.6,8.9,29.1,5.3,26,2.5C25.4,2.1,24.6,2,24.2,2c-0.4,0-1.3,0.1-1.9,0.6c-3.1,2.7-9.7,6.3-16.6,7.6
	c-1.1,0.2-1.8,2.2-1.7,3.1c0.1,0.7,0.2,1.5,0.3,2.3c0.5,4.8,1.2,12.1,6,18.6c3.3,4.4,8.4,9,12.8,11.5c0.3,0.2,0.7,0.2,1.2,0.2
	c0.6,0,0.9-0.1,1-0.2c4.4-2.4,9.6-7.1,12.8-11.5c4.4-6.1,5.2-13.7,5.7-18.7c0.1-0.8,0.2-1.6,0.3-2.2C44.1,12.5,43.7,10.5,42.5,10.2z
	 M41.9,13.1c-0.1,0.7-0.2,1.4-0.3,2.3c-0.5,4.8-1.3,12.1-5.4,17.7c-3,4.1-7.9,8.5-12,10.8c-0.1,0-0.3,0-0.3,0
	c-4.1-2.3-9-6.7-12-10.8C7.5,27,6.8,20.4,6.4,15.5c-0.1-0.9-0.2-1.7-0.3-2.4c0-0.2,0.1-0.6,0.3-0.9c7.2-1.5,13.8-5.1,17.2-8
	c0.1,0,0.3-0.1,0.6-0.1c0.3,0,0.4,0,0.4,0c3.4,3,10,6.6,17.2,8.1C41.8,12.5,41.9,12.9,41.9,13.1z M24,13.5c-6.6,0-12,5.4-12.1,12
	l0,0.5h24.2l0-0.5C36,18.9,30.6,13.5,24,13.5z M23.3,24.7c0.3-0.5,1.1-0.5,1.5,0H23.3z M25.9,25c-0.1-0.5-0.3-1-0.7-1.3c0,0,0,0,0,0
	l3-4.4c0.2-0.2,0.1-0.6-0.1-0.7c-0.2-0.2-0.6-0.1-0.7,0.1l-3,4.4c0,0-0.1,0.1-0.1,0.2c-0.1,0-0.2,0-0.3,0c-1,0-1.8,0.8-1.9,1.8H13
	c0.1-1.3,0.4-2.5,0.9-3.6l1,0.6c0.1,0.1,0.2,0.1,0.3,0.1c0.2,0,0.4-0.1,0.5-0.3c0.1-0.2,0.1-0.6-0.2-0.7l-1.1-0.6
	c0.8-1.5,2-2.8,3.3-3.8l0.4,0.5c0.1,0.2,0.3,0.2,0.4,0.2c0.1,0,0.2,0,0.3-0.1c0.2-0.2,0.3-0.5,0.1-0.7l-0.4-0.5
	c1.5-0.9,3.2-1.4,5-1.5v1.1c0,0.3,0.2,0.5,0.5,0.5s0.5-0.2,0.5-0.5v-1.1c1.9,0.1,3.6,0.7,5.1,1.6l-0.3,0.5c-0.2,0.2-0.1,0.6,0.2,0.7
	c0.1,0.1,0.2,0.1,0.3,0.1c0.2,0,0.3-0.1,0.4-0.2l0.3-0.4c1.3,1,2.4,2.2,3.2,3.7l-1.1,0.6c-0.2,0.1-0.3,0.5-0.2,0.7
	c0.1,0.2,0.3,0.3,0.5,0.3c0.1,0,0.2,0,0.3-0.1l1-0.6c0.5,1.1,0.8,2.3,0.9,3.6H25.9z"/>
</svg>
