<?xml version="1.0" encoding="utf-8"?>
<!-- Generator: Adobe Illustrator 21.0.0, SVG Export Plug-In . SVG Version: 6.00 Build 0)  -->
<svg version="1.1" id="图层_1" xmlns="http://www.w3.org/2000/svg" xmlns:xlink="http://www.w3.org/1999/xlink" x="0px" y="0px"
	 viewBox="0 0 48 48" style="enable-background:new 0 0 48 48;" xml:space="preserve">
<style type="text/css">
	.st0{fill:#060001;}
	.st1{fill:#040000;}
	.st2{fill:none;stroke:#000000;stroke-miterlimit:10;}
	.st3{fill:#221815;}
	.st4{fill:#080102;}
	.st5{fill:none;stroke:#000000;stroke-width:2;stroke-linecap:round;stroke-linejoin:round;stroke-miterlimit:10;}
	.st6{fill:#070001;}
</style>
<path d="M41.3,28.5c-0.5-0.2-1.1,0.1-1.3,0.6C37.5,36.8,30.5,42,22.5,42C12.3,42,4,33.5,4,23S12.3,4,22.5,4c7.9,0,15,5.2,17.5,12.9
	c0.2,0.5,0.7,0.8,1.3,0.6c0.5-0.2,0.8-0.7,0.6-1.3C39.1,7.7,31.3,2,22.5,2C11.2,2,2,11.4,2,23s9.2,21,20.5,21
	c8.8,0,16.6-5.7,19.4-14.3C42.1,29.2,41.8,28.6,41.3,28.5z M45.5,23H25.1l6.7-6.1c0.2-0.2,0.2-0.5,0-0.7s-0.5-0.2-0.7,0l-7.7,7
	c-0.2,0.1-0.2,0.4-0.1,0.5s0.3,0.3,0.5,0.3h21.7c0.3,0,0.5-0.2,0.5-0.5S45.8,23,45.5,23z"/>
</svg>
