<?xml version="1.0" encoding="utf-8"?>
<!-- Generator: Adobe Illustrator 21.0.0, SVG Export Plug-In . SVG Version: 6.00 Build 0)  -->
<svg version="1.1" id="图层_1" xmlns="http://www.w3.org/2000/svg" xmlns:xlink="http://www.w3.org/1999/xlink" x="0px" y="0px"
	 viewBox="0 0 48 48" style="enable-background:new 0 0 48 48;" xml:space="preserve">
<style type="text/css">
	.st0{fill:#060001;}
	.st1{fill:#040000;}
	.st2{fill:none;stroke:#000000;stroke-miterlimit:10;}
	.st3{fill:#221815;}
	.st4{fill:#080102;}
	.st5{fill:none;stroke:#000000;stroke-width:2;stroke-linecap:round;stroke-linejoin:round;stroke-miterlimit:10;}
	.st6{fill:#070001;}
</style>
<path d="M31.1,18.5c-0.8-0.3-2.5-0.9-3.4-1.3c-1.7-0.9-2.3-1.4-2.9-1.9C24.6,15.1,24.3,15,24,15c0,0,0,0,0,0c0,0,0,0,0,0
	c-0.3,0-0.6,0.1-0.8,0.3c-0.6,0.5-1.3,1.1-2.9,1.9c-0.8,0.4-2.5,1-3.4,1.3c-0.5,0.2-0.9,0.7-0.9,1.3c0.1,1.8,0.6,5.5,1.7,7.7
	c1.3,2.6,4.4,4.6,5.7,5.4c0.2,0.1,0.4,0.2,0.6,0.2c0.2,0,0.4-0.1,0.6-0.2c1.3-0.8,4.4-2.8,5.7-5.4c1.1-2.2,1.5-5.9,1.7-7.7
	C32,19.2,31.7,18.7,31.1,18.5z M29.4,27c-0.8,1.6-2.6,3.3-5.3,4.9c0,0-0.1,0-0.1,0c0,0-0.1,0-0.1,0c-2.7-1.7-4.5-3.4-5.3-4.9
	c-1.1-2.2-1.5-6.2-1.6-7.3c0-0.2,0.1-0.2,0.2-0.3l0.3-0.1c0.9-0.3,2.4-0.8,3.2-1.2c1.6-0.8,2.3-1.4,2.9-1.8l0.2-0.2c0,0,0.1,0,0.2,0
	l0.1,0l0,0c0.1,0,0.2,0,0.2,0l0.2,0.2c0.6,0.5,1.3,1,2.9,1.8c0.8,0.4,2.2,0.9,3.2,1.2l0.3,0.1c0.1,0,0.2,0.1,0.2,0.3
	C30.9,20.8,30.5,24.8,29.4,27z M34.7,16c-1.3-0.4-3.8-1.2-5-1.9c-2.5-1.2-3.5-2.1-4.4-2.8C24.9,11.1,24.5,11,24,11c0,0,0,0,0,0
	c0,0,0,0,0,0c-0.5,0-0.9,0.1-1.2,0.4c-0.9,0.7-1.9,1.5-4.4,2.8c-1.3,0.6-3.8,1.4-5,1.9c-0.8,0.3-1.3,1-1.3,1.9
	c0.2,2.6,0.9,7.9,2.5,11.1c1.9,3.7,6.6,6.6,8.5,7.7c0.3,0.2,0.6,0.3,0.9,0.3c0.3,0,0.6-0.1,0.9-0.3c1.9-1.1,6.6-4,8.5-7.7
	c1.6-3.2,2.3-8.5,2.5-11.1C36.1,17,35.5,16.3,34.7,16z M32.6,28.5c-1.2,2.4-4,4.8-8.1,7.3C24.3,36,24.2,36,24,36s-0.3,0-0.4-0.1
	c-4.2-2.5-6.9-5-8.1-7.3c-1.7-3.3-2.3-9.1-2.4-10.8c0-0.4,0.3-0.7,0.6-0.8l0.5-0.2c1.4-0.5,3.5-1.2,4.7-1.8c2.3-1.1,3.3-1.9,4.2-2.6
	c0.1-0.1,0.2-0.2,0.4-0.3c0.1-0.1,0.4-0.2,0.6-0.2l0,0l0.1,0l0,0c0.2,0,0.5,0.1,0.6,0.2c0.1,0.1,0.2,0.2,0.4,0.3
	c0.9,0.7,1.9,1.5,4.2,2.6c1.2,0.6,3.3,1.3,4.7,1.8l0.5,0.2c0.3,0.1,0.6,0.4,0.6,0.8C34.9,19.5,34.3,25.2,32.6,28.5z M41.5,11.2
	l-15-8.5C25.7,2.2,24.9,2,24,2s-1.7,0.2-2.5,0.7l-15,8.5C5,12.1,4,13.7,4,15.5v16.9c0,1.8,1,3.5,2.5,4.3l15,8.5
	c0.8,0.4,1.6,0.7,2.5,0.7s1.7-0.2,2.5-0.7l15-8.5c1.6-0.9,2.5-2.5,2.5-4.3V15.5C44,13.7,43,12.1,41.5,11.2z M42,32.5
	c0,1.1-0.6,2.1-1.5,2.6l-15,8.5C25,43.8,24.5,44,24,44s-1-0.1-1.5-0.4l-15-8.5C6.6,34.5,6,33.5,6,32.5V15.5c0-1.1,0.6-2.1,1.5-2.6
	l15-8.5C23,4.2,23.5,4,24,4s1,0.1,1.5,0.4l15,8.5c0.9,0.5,1.5,1.5,1.5,2.6V32.5z"/>
</svg>
