<svg id="图层_1" data-name="图层 1" xmlns="http://www.w3.org/2000/svg" viewBox="0 0 44 33"><title>sis-rasr</title><path d="M43.24,7.63H32.79a.86.86,0,0,0-.91.91.86.86,0,0,0,.91.92H43.24a.87.87,0,0,1,.92.92v9.71a.92.92,0,1,0,1.83,0V10.38A2.7,2.7,0,0,0,43.24,7.63ZM2.91,21.1a.87.87,0,0,0,.92-.92V10.56a1.18,1.18,0,0,1,1.1-1.1H15.19a.87.87,0,0,0,.92-.92.86.86,0,0,0-.92-.91H4.93A2.9,2.9,0,0,0,2,10.56v9.53A1,1,0,0,0,2.91,21.1ZM15.19,38.79H4.93a1.18,1.18,0,0,1-1.1-1.1V28.07a.87.87,0,0,0-.92-.92.87.87,0,0,0-.92.92v9.62a2.91,2.91,0,0,0,2.94,2.94H15.19a.92.92,0,0,0,0-1.84ZM45.08,27.15a.87.87,0,0,0-.92.92V37.6a1.12,1.12,0,0,1-1.1,1.1H32.79a.92.92,0,0,0,0,1.83H43.06A2.89,2.89,0,0,0,46,37.6V28.07A.91.91,0,0,0,45.08,27.15ZM24,28.25a.44.44,0,0,0-.46.46v1.83A.44.44,0,0,0,24,31a.43.43,0,0,0,.46-.46V28.71A.43.43,0,0,0,24,28.25Zm0,3.67a.44.44,0,0,0-.46.46v1.83a.44.44,0,0,0,.46.46.44.44,0,0,0,.46-.46V32.38A.43.43,0,0,0,24,31.92Zm0-7.34a.44.44,0,0,0-.46.46v1.84a.43.43,0,0,0,.46.45.43.43,0,0,0,.46-.45V25A.44.44,0,0,0,24,24.58Zm0-11a.44.44,0,0,0-.46.46v1.84a.43.43,0,0,0,.46.45.43.43,0,0,0,.46-.45V14A.44.44,0,0,0,24,13.58Zm0,7.34a.44.44,0,0,0-.46.46v1.83a.44.44,0,0,0,.46.46.44.44,0,0,0,.46-.46V21.38A.43.43,0,0,0,24,20.92Zm0-3.67a.44.44,0,0,0-.46.46v1.83A.44.44,0,0,0,24,20a.43.43,0,0,0,.46-.46V17.71A.43.43,0,0,0,24,17.25Zm9.72,10.82H34.9l-3-8.07h-1.1l-3,8.07h1.19l.74-2.2h3.39ZM29.86,25l1.19-3.3a1.18,1.18,0,0,0,.09-.55c0,.18.09.37.09.55l1.2,3.3Zm5.59,1.56a2.13,2.13,0,0,0,.46,1.28,2.21,2.21,0,0,0,1.37.46,2,2,0,0,0,1.75-1v.92h1V24.49a1.91,1.91,0,0,0-2.1-2.2,4,4,0,0,0-2,.55v1a2.94,2.94,0,0,1,1.92-.73c.74,0,1.2.46,1.2,1.37l-1.75.28C36.09,24.86,35.45,25.5,35.45,26.51ZM39,25.23v.55A2,2,0,0,1,38.57,27a1.55,1.55,0,0,1-1.1.46,1.08,1.08,0,0,1-.74-.28,1,1,0,0,1-.27-.64,1,1,0,0,1,.27-.73,1.91,1.91,0,0,1,1-.37Zm-20.17.27a.43.43,0,0,0-.46.46v3.67a.43.43,0,0,0,.46.45.43.43,0,0,0,.46-.45V26A.44.44,0,0,0,18.86,25.5Zm-1.93-.92a.43.43,0,0,0-.45.46v5.5a.46.46,0,1,0,.91,0V25A.44.44,0,0,0,16.93,24.58ZM14.64,26v3.67a.43.43,0,0,0,.46.45.43.43,0,0,0,.46-.45V26a.43.43,0,0,0-.46-.46A.44.44,0,0,0,14.64,26ZM13,17.25a6.42,6.42,0,0,0,0,12.83.46.46,0,1,0,0-.91,5.5,5.5,0,1,1,5.5-5.5.44.44,0,0,0,.46.46.44.44,0,0,0,.46-.46A6.38,6.38,0,0,0,13,17.25ZM13,25a.43.43,0,0,0,.46-.46v-.36h3.21a.44.44,0,0,0,.46-.46.44.44,0,0,0-.46-.46H13.45V19a.44.44,0,0,0-.46-.46.44.44,0,0,0-.46.46v4.22h-.45a.43.43,0,0,0-.46.46.44.44,0,0,0,.46.46h.45v.36A.44.44,0,0,0,13,25Z" transform="translate(-1.99 -7.63)"/></svg>