<svg id="图层_1" data-name="图层 1" xmlns="http://www.w3.org/2000/svg" viewBox="0 0 44 33"><title>sis-sasr</title><path d="M43.25,6.63H32.8a.86.86,0,0,0-.92.91.87.87,0,0,0,.92.92H43.25a.87.87,0,0,1,.92.92v9.71a.92.92,0,1,0,1.83,0V9.38A2.7,2.7,0,0,0,43.25,6.63Zm-28,0H4.93A2.89,2.89,0,0,0,2,9.56v9.53a.87.87,0,0,0,.92.92.86.86,0,0,0,.91-.92V9.56a1.18,1.18,0,0,1,1.1-1.1H15.2a.87.87,0,0,0,.92-.92A.86.86,0,0,0,15.2,6.63Zm0,31.16H4.93a1.18,1.18,0,0,1-1.1-1.1V27.07a.86.86,0,0,0-.91-.92.87.87,0,0,0-.92.92v9.62a2.9,2.9,0,0,0,2.93,2.94H15.2a.92.92,0,0,0,0-1.84ZM45.08,26.15a.86.86,0,0,0-.91.92V36.6a1.12,1.12,0,0,1-1.1,1.1H32.8a.92.92,0,1,0,0,1.83H43.07A2.89,2.89,0,0,0,46,36.6V27.07A.92.92,0,0,0,45.08,26.15ZM14.83,28.63v-11a.46.46,0,1,0-.91,0v11a.46.46,0,0,0,.91,0Zm3.76-9.17a.44.44,0,0,0-.46.46v6.41a.44.44,0,0,0,.46.46.43.43,0,0,0,.46-.46V19.92A.43.43,0,0,0,18.59,19.46Zm-8.06,6.87V19.92a.44.44,0,0,0-.46-.46.43.43,0,0,0-.46.46v6.41a.43.43,0,0,0,.46.46A.44.44,0,0,0,10.53,26.33ZM24,30.92a.44.44,0,0,0-.46.46v1.83a.46.46,0,0,0,.92,0V31.38A.44.44,0,0,0,24,30.92Zm0-11a.44.44,0,0,0-.46.46v1.83a.46.46,0,0,0,.92,0V20.38A.44.44,0,0,0,24,19.92Zm0,7.33a.44.44,0,0,0-.46.46v1.83a.46.46,0,0,0,.92,0V27.71A.44.44,0,0,0,24,27.25Zm0-11a.44.44,0,0,0-.46.46v1.83a.46.46,0,0,0,.92,0V16.71A.44.44,0,0,0,24,16.25Zm0-3.67a.44.44,0,0,0-.46.46v1.84a.46.46,0,0,0,.92,0V13A.44.44,0,0,0,24,12.58Zm0,11a.44.44,0,0,0-.46.46v1.84a.46.46,0,0,0,.92,0V24A.44.44,0,0,0,24,23.58Zm9.72,3.49h1.19l-3-8.07h-1.1l-3,8.07H29l.73-2.2h3.39ZM29.87,24l1.19-3.3a1.18,1.18,0,0,0,.09-.55c0,.18.09.37.09.55L32.43,24Zm5.59,1.56a2.13,2.13,0,0,0,.46,1.28,2.19,2.19,0,0,0,1.37.46,2,2,0,0,0,1.74-1v.92h1V23.49a1.92,1.92,0,0,0-2.11-2.2,4,4,0,0,0-2,.55v1a2.94,2.94,0,0,1,1.92-.73c.73,0,1.19.46,1.19,1.37l-1.74.28C36.1,23.86,35.46,24.5,35.46,25.51ZM39,24.23v.55A2,2,0,0,1,38.58,26a1.56,1.56,0,0,1-1.1.46,1.08,1.08,0,0,1-.74-.28,1,1,0,0,1-.27-.64,1,1,0,0,1,.27-.73,1.88,1.88,0,0,1,1-.37Z" transform="translate(-2 -6.63)"/></svg>