<svg id="图层_1" data-name="图层 1" xmlns="http://www.w3.org/2000/svg" viewBox="0 0 44 44"><title>SIS</title><path d="M46,4.69V17.62a.92.92,0,0,1-1.83,0V4.69A.81.81,0,0,0,43.33,4H4.56a.79.79,0,0,0-.73.73V43.56a.79.79,0,0,0,.73.73h31V39a7.54,7.54,0,0,1-7.06-7.52V29.35a.44.44,0,0,1,.46-.46.44.44,0,0,1,.46.46v2.11a6.6,6.6,0,1,0,13.2,0V29.35a.44.44,0,0,1,.46-.46.44.44,0,0,1,.46.46v2.11A7.54,7.54,0,0,1,36.46,39v5.31h6.42a.92.92,0,0,1,0,1.84H4.56A2.65,2.65,0,0,1,2,43.47V4.69A2.62,2.62,0,0,1,4.56,2.13H43.43A2.62,2.62,0,0,1,46,4.69ZM20.51,19.82H11L7.86,25.87c0,.18-.18.27-.37.27a.31.31,0,0,0-.18-.09.59.59,0,0,1-.18-.64l8-15.13a1.32,1.32,0,0,1,.55-.46,1.43,1.43,0,0,1,.64.1.69.69,0,0,1,.37.36l8,15.13a.52.52,0,0,1-.18.64.53.53,0,0,1-.64-.18Zm-.37-.92-4.31-8.25-4.3,8.25Zm-4,18.43h9.35a.44.44,0,0,0,.46-.46.44.44,0,0,0-.46-.46H16.11a2.66,2.66,0,0,1-2.66-2.66V27.7a.44.44,0,0,0-.46-.46.44.44,0,0,0-.46.46v6.05A3.59,3.59,0,0,0,16.11,37.33ZM36,19.72a5.09,5.09,0,0,1,5,5.05v5.86a5,5,0,0,1-10.08,0V24.77A5.09,5.09,0,0,1,36,19.72Zm0,.92a4.1,4.1,0,0,0-4.12,4.13v5.86a4.13,4.13,0,1,0,8.25,0V24.77A4.12,4.12,0,0,0,36,20.64Z" transform="translate(-1.99 -2.13)"/></svg>