<svg id="图层_1" data-name="图层 1" xmlns="http://www.w3.org/2000/svg" viewBox="0 0 44 31.89"><defs><style>.cls-1{fill:#404040;fill-rule:evenodd;}</style></defs><title>Smart Campus</title><path class="cls-1" d="M31.34,13a.57.57,0,0,0-.52-.53H19.29a.54.54,0,0,0,0,1.07H30.82a.57.57,0,0,0,.52-.54ZM46,9.5a3.52,3.52,0,0,0-2.36,0l-.26.27L37.1,16.14V10.3A3.39,3.39,0,0,0,34,7.11H6.2A3.05,3.05,0,0,0,3.05,10.3V20.93A1.14,1.14,0,0,0,4.1,22a1.13,1.13,0,0,0,1.05-1.06V10.3a1.14,1.14,0,0,1,1-1.07H34c.52,0,.78.54,1,1.07v8.5a1,1,0,0,0,.26.8,1.2,1.2,0,0,0,1.31,0l8.12-8.24H45V34.75H44.7l-7.86-8.24h0a1.62,1.62,0,0,0-1.57,0h0a1,1,0,0,0-.26.8h0v8.5a1.14,1.14,0,0,1-1,1.06H20.86a1.07,1.07,0,0,0,0,2.13H34a3,3,0,0,0,3.14-3.19V30l6.29,6.38.26.27a3.64,3.64,0,0,0,2.36,0,2.26,2.26,0,0,0,1-1.86V11.36A2.25,2.25,0,0,0,46,9.5ZM13.53,32.89a3.78,3.78,0,0,0,.79-2.39V27.84a4.69,4.69,0,0,0-4.46-4.79,4.69,4.69,0,0,0-4.45,4.79V30.5a3.72,3.72,0,0,0,.79,2.39c-1.31.53-3.15,1.33-3.15,3.45v1.33A1.25,1.25,0,0,0,4.36,39h11a1.24,1.24,0,0,0,1.31-1.33h0V36.34c0-2.12-1.83-2.92-3.14-3.45Zm2.1,4.78a.26.26,0,0,1-.27.27h-11a.26.26,0,0,1-.26-.27V36.34C4.1,35,5.41,34.48,7,34l.26-.27a.56.56,0,0,0,.53-.53.25.25,0,0,1-.26-.26,4.07,4.07,0,0,1-1-2.66V27.84a3.55,3.55,0,0,1,3.4-3.72,3.56,3.56,0,0,1,3.41,3.72V30.5a4,4,0,0,1-1,2.39.5.5,0,0,0,0,.79h.26l.26.27h0c1.58.53,2.89,1.06,2.89,2.39v1.33Z" transform="translate(-3.05 -7.11)"/></svg>