<svg id="图层_1" data-name="图层 1" xmlns="http://www.w3.org/2000/svg" viewBox="0 0 44 44.03"><defs><style>.cls-1{fill:#404040;fill-rule:evenodd;}</style></defs><title>Smart Retail</title><path class="cls-1" d="M45.63,1a6.84,6.84,0,0,0-5,6.8V31.35a4.55,4.55,0,0,1-4.45,4.18H8.76c-2.09,0-3.66-2.35-3.66-4.18V14.61a4.13,4.13,0,0,1,4.19-4.18H32a1.12,1.12,0,0,0,1-1,1.12,1.12,0,0,0-1-1H9.55A6.41,6.41,0,0,0,3,14.61H3V31.35c0,2.87,2.09,6,5.23,6.27L5.36,43.38c-.26.52,0,1.3.53,1.3a1.15,1.15,0,0,0,1.31-.26l3.39-6.8H36l.26.26,3.92,6.54a1.26,1.26,0,0,0,1.57.53c.52-.27.52-1.05.26-1.57h0l-3.66-6a7.11,7.11,0,0,0,4.45-6V7.81c0-1.83.78-4.18,3.4-4.7.52,0,1-.53.78-1,0-.78-.52-1-1.31-1ZM29.16,19.32a2.47,2.47,0,0,0-2.61-2.62H15a2.48,2.48,0,0,0-2.62,2.62v7.32A2.48,2.48,0,0,0,15,29.26H26.55a2.47,2.47,0,0,0,2.61-2.62v-.26l4.45,1.83h.26a.56.56,0,0,0,.52-.52V18.27a.56.56,0,0,0-.52-.52h-.26l-4.45,1.83v-.26Zm-1.05,6.27h0v1.05a1.68,1.68,0,0,1-1.56,1.57H15a1.69,1.69,0,0,1-1.57-1.57h0V19.32A1.69,1.69,0,0,1,15,17.75H26.55a1.68,1.68,0,0,1,1.56,1.57v6.27Zm5.23-6.53V26.9l-4.18-1.57V20.89l4.18-1.83Z" transform="translate(-3.01 -1.01)"/></svg>