<?xml version="1.0" encoding="utf-8"?>
<!-- Generator: Adobe Illustrator 21.0.0, SVG Export Plug-In . SVG Version: 6.00 Build 0)  -->
<svg version="1.1" id="图层_1" xmlns="http://www.w3.org/2000/svg" xmlns:xlink="http://www.w3.org/1999/xlink" x="0px" y="0px"
	 viewBox="0 0 48 48" style="enable-background:new 0 0 48 48;" xml:space="preserve">
<path d="M15,35c0-0.6-0.4-1-1-1H6c-1.1,0-2-0.9-2-2V9c0-1.1,0.9-2,2-2h33c1.1,0,2,0.9,2,2v10c0,0.6,0.4,1,1,1s1-0.4,1-1V9
	c0-2.2-1.8-4-4-4H6C3.8,5,2,6.8,2,9v23c0,2.2,1.8,4,4,4h8C14.6,36,15,35.6,15,35z M37,41H8c-0.6,0-1,0.4-1,1s0.4,1,1,1h29
	c0.6,0,1-0.4,1-1S37.6,41,37,41z M39,21.3c-1.1-3.1-4-5.3-7.5-5.3s-6.4,2.2-7.5,5.3c-4,0.4-7,3.8-7,7.8c0,4.3,3.5,7.9,7.9,7.9h13.2
	c4.4,0,7.9-3.5,7.9-7.9C46,25.1,42.9,21.7,39,21.3z M38.1,35H24.9c-3.3,0-5.9-2.6-5.9-5.9c0-3,2.3-5.5,5.3-5.8
	c0.8-0.1,1.4-0.6,1.7-1.3c0.8-2.4,3.1-4,5.6-4s4.8,1.6,5.6,4c0.3,0.7,0.9,1.2,1.7,1.3c3,0.3,5.3,2.8,5.3,5.8
	C44,32.4,41.3,35,38.1,35z M29.7,23.5c-0.2-0.1-0.4,0-0.6,0.1l-2.5,3c-0.2,0.2-0.1,0.5,0.1,0.7s0.5,0.1,0.7-0.1l1.6-1.9l0,6.6
	c0,0.3,0.2,0.5,0.5,0.5S30,32.3,30,32l0-8C30,23.8,29.9,23.6,29.7,23.5z M35.6,28.7L34,30.6l0-6.6c0-0.3-0.2-0.5-0.5-0.5
	S33,23.7,33,24l0,8c0,0.2,0.1,0.4,0.3,0.5c0.1,0,0.1,0,0.2,0c0.1,0,0.3-0.1,0.4-0.2l2.5-3c0.2-0.2,0.1-0.5-0.1-0.7
	C36.1,28.4,35.8,28.5,35.6,28.7z"/>
</svg>
