<svg id="图层_1" data-name="图层 1" xmlns="http://www.w3.org/2000/svg" viewBox="0 0 40 44"><title>策略编排</title><path d="M24.73,20.22A1.39,1.39,0,0,0,23.39,19h-.13c-.58,0-.66-.67-.66-1a1.18,1.18,0,0,1,.08-.42,1.62,1.62,0,0,0-.48-1.88l-1.82-1.07a1.68,1.68,0,0,0-.69-.16h0a1.59,1.59,0,0,0-1.12.41l-.21.26s0,0-.1.09A1.12,1.12,0,0,1,16.63,15l-.15-.18a1.74,1.74,0,0,0-1.15-.44,1.78,1.78,0,0,0-.52.09L12.88,15.5l-.08.06a1.63,1.63,0,0,0-.52,1.91,1.36,1.36,0,0,1,.09.43,1,1,0,0,1-1,1.05,1.4,1.4,0,0,0-1.36,1.28,7.37,7.37,0,0,0,0,3l.17.44,0,.05.09.19a1.21,1.21,0,0,0,.65.55,1.6,1.6,0,0,0,.43.06,1,1,0,0,1,1,1.06,1.61,1.61,0,0,1-.1.44,1.61,1.61,0,0,0,.12,1.45,1.42,1.42,0,0,0,.37.41l1.81,1a1.49,1.49,0,0,0,.69.17h0a1.71,1.71,0,0,0,1.19-.49l.15-.21a.84.84,0,0,1,.73-.43,1.46,1.46,0,0,1,1,.46l.19.24a1.62,1.62,0,0,0,1.06.46h.14a1.87,1.87,0,0,0,.61-.12l1.79-1,.11-.08a1.6,1.6,0,0,0,.53-1.9,1.15,1.15,0,0,1-.09-.44c0-.25,0-1.06.66-1.06a1.41,1.41,0,0,0,1.35-1.28A7.64,7.64,0,0,0,24.73,20.22Zm-1,2.85h0c-.07.32-.19.48-.37.48-1,0-1.66.83-1.66,2.06a2.1,2.1,0,0,0,.16.82.62.62,0,0,1-.2.73l-1.69,1c-.07,0-.15,0-.15.05l-.12,0a.62.62,0,0,1-.48-.21,2.38,2.38,0,0,0-1.87-1,1.82,1.82,0,0,0-1.59.93l0,0a.58.58,0,0,1-.41.17.54.54,0,0,1-.27-.05l-1.67-1a.87.87,0,0,1-.12-.14.59.59,0,0,1,0-.55,2.43,2.43,0,0,0,.17-.79,2,2,0,0,0-2-2.08h-.11a.15.15,0,0,1-.09-.07l-.05-.12a1.35,1.35,0,0,0-.13-.21l0-.06a6.62,6.62,0,0,1,0-2.66c.09-.47.3-.46.38-.47a2,2,0,0,0,2-2.07,2.23,2.23,0,0,0-.17-.8.61.61,0,0,1,.21-.72l1.77-1a.63.63,0,0,1,.62.16l0,0a1.84,1.84,0,0,0,1.55.87A2.65,2.65,0,0,0,18.84,16a1.21,1.21,0,0,0,.38-.4.67.67,0,0,1,.43-.17.72.72,0,0,1,.28,0l1.59.91.09.07a.59.59,0,0,1,.2.48,1.23,1.23,0,0,1,0,.21,2.35,2.35,0,0,0-.16.78c0,1.26.65,2.07,1.66,2.07h.13c.06,0,.27,0,.36.46A6.81,6.81,0,0,1,23.76,23.07Zm-6.37-4.49a3.27,3.27,0,1,0,3.27,3.27A3.27,3.27,0,0,0,17.39,18.58Zm0,5.6a2.34,2.34,0,1,1,2.33-2.33A2.33,2.33,0,0,1,17.39,24.18Zm24.5-13.64c-2.1-.7-6.29-2.1-8.39-3.1a38.4,38.4,0,0,1-7.4-4.7A3.14,3.14,0,0,0,24,2a3.7,3.7,0,0,0-2.1.6,38.56,38.56,0,0,1-7.39,4.7c-2.11,1-6.3,2.4-8.4,3.1A3,3,0,0,0,4,13.54c.39,4.6,1.5,13.5,4.2,19,3.19,6.3,11.09,11.2,14.19,13.1a3.4,3.4,0,0,0,3.2,0c3.1-1.9,11-6.8,14.19-13.1,2.7-5.5,3.8-14.4,4.2-18.8A3.08,3.08,0,0,0,41.89,10.54ZM38,31.64c-2,4-6.5,8.1-13.4,12.3-.2,0-.4.1-.6.1a.76.76,0,0,1-.5-.2c-7-4.1-11.49-8.3-13.49-12.2-2.8-5.6-3.8-15.3-4-18.1-.11-.7.6-1,.8-1.1l.8-.3a80.93,80.93,0,0,0,7.89-3,41.87,41.87,0,0,0,7.1-4.4c.2-.2.4-.3.6-.5,0-.1.3-.2.7-.2h.2a1.29,1.29,0,0,1,.8.2c.2.2.4.3.6.5a34.74,34.74,0,0,0,7.1,4.4,72.18,72.18,0,0,0,7.89,3l.8.3a1.13,1.13,0,0,1,.8,1.1C41.79,16.34,40.79,26,38,31.64Zm-7.73-8a2.57,2.57,0,1,0,2.57,2.56A2.57,2.57,0,0,0,30.27,23.66Zm0,4.4a1.84,1.84,0,1,1,1.83-1.84A1.83,1.83,0,0,1,30.27,28.06ZM35,23.85h-.1a.32.32,0,0,1-.27-.12,1.12,1.12,0,0,1-.14-.59.83.83,0,0,1,.07-.32,1.34,1.34,0,0,0-.41-1.57l-1.46-.86a1.35,1.35,0,0,0-1.54.21l-.19.22a.76.76,0,0,1-1.19-.09l-.13-.14a1.31,1.31,0,0,0-.9-.36,1.28,1.28,0,0,0-.46,0l-1.56.86-.09.07a1.34,1.34,0,0,0-.45,1.61,1,1,0,0,1,.06.32.7.7,0,0,1-.65.71,1.16,1.16,0,0,0-1.17,1.08,6.14,6.14,0,0,0,0,2.56l.17.32.05.12a1.1,1.1,0,0,0,.61.49.87.87,0,0,0,.34,0,.69.69,0,0,1,.24.05.75.75,0,0,1,.43.67,1.19,1.19,0,0,1-.08.34,1.36,1.36,0,0,0-.05.85,1.41,1.41,0,0,0,.46.7l1.43.83a1.36,1.36,0,0,0,1.65-.28l.12-.17c.26-.45,1.08-.15,1.18,0l.17.22a1.34,1.34,0,0,0,.87.37l.14,0a1.13,1.13,0,0,0,.49-.1l1.44-.81.1-.07a1.35,1.35,0,0,0,.45-1.61,1,1,0,0,1-.06-.31c0-.22,0-.72.41-.72a1.21,1.21,0,0,0,1.17-1.1,6,6,0,0,0,0-2.42A1.18,1.18,0,0,0,35,23.85Zm.19,3.32h0c0,.1-.08.28-.19.28-.85,0-1.41.69-1.41,1.75a2.21,2.21,0,0,0,.13.66.36.36,0,0,1-.11.43l-1.36.78h-.12a.54.54,0,0,1-.27-.09v0a2,2,0,0,0-1.57-.79,1.53,1.53,0,0,0-1.33.78.31.31,0,0,1-.42.07l-1.32-.75a.4.4,0,0,1-.09-.15.26.26,0,0,1,0-.12s0-.11,0-.11a1.89,1.89,0,0,0,.16-.68,1.7,1.7,0,0,0-1.71-1.75h0v0l-.14-.25a4.73,4.73,0,0,1,0-2.05c0-.09.08-.29.18-.28a1.69,1.69,0,0,0,1.66-1.71,1.89,1.89,0,0,0-.14-.69A.38.38,0,0,1,27.2,22l1.32-.75.15,0a.37.37,0,0,1,.28.11,1.57,1.57,0,0,0,1.31.73,1.89,1.89,0,0,0,1.53-.72c.1-.09.17-.17.43-.07l1.3.76a.36.36,0,0,1,.1.39,1.8,1.8,0,0,0-.15.68,2,2,0,0,0,.34,1.21,1.32,1.32,0,0,0,1.07.53H35c.09,0,.15.08.18.27A5.24,5.24,0,0,1,35.17,27.17Z" transform="translate(-4 -2.04)"/></svg>