<?xml version="1.0" encoding="utf-8"?>
<!-- Generator: Adobe Illustrator 21.0.0, SVG Export Plug-In . SVG Version: 6.00 Build 0)  -->
<svg version="1.1" id="图层_1" xmlns="http://www.w3.org/2000/svg" xmlns:xlink="http://www.w3.org/1999/xlink" x="0px" y="0px"
	 viewBox="0 0 48 48" style="enable-background:new 0 0 48 48;" xml:space="preserve">
<style type="text/css">
	.st0{fill:#040000;}
</style>
<path class="st0" d="M40.8,10.6L27.3,2.8C26.3,2.3,25.2,2,24,2s-2.3,0.3-3.3,0.8L7.2,10.6c-1.8,1-3.2,3.5-3.2,5.6v15.6
	c0,2.1,1.4,4.5,3.2,5.6l13.5,7.8c0.9,0.5,2.1,0.8,3.3,0.8s2.3-0.3,3.3-0.8l13.5-7.8c1.8-1.1,3.2-3.5,3.2-5.6V16.2
	C44,14.1,42.6,11.6,40.8,10.6z M42,31.8c0,1.4-1.1,3.2-2.3,3.9l-13.5,7.8C25.7,43.8,24.9,44,24,44s-1.7-0.2-2.3-0.5L8.3,35.7
	C7.1,35,6,33.2,6,31.8V16.2c0-1.4,1.1-3.2,2.3-3.9l13.5-7.8C22.3,4.2,23.1,4,24,4s1.7,0.2,2.3,0.5l13.5,7.8c1.2,0.7,2.3,2.5,2.3,3.9
	L42,31.8L42,31.8z M29.1,14c-1.2-0.3-2.6-0.6-4-0.9c-0.3-0.9-1.8-4.9-3.9-4.5c-2.5,0.5-3.8,1.1-5.2,2.6c-0.2,0.2-0.3,0.4-0.3,0.8
	c0.1,0.7,0.7,1.5,1.5,2.2c0.3,0.3,0.6,0.5,1,0.7c2,1.3,3.1,2.7,3.2,4.3c0.2,3.1-3.5,6.2-5.2,7.6c-0.5,0.4-0.8,0.7-1,0.9
	c-1.9,1.6-2.7,2.9-3.1,3.5c-0.2,0.4,0.1,1.5,0.7,2.5c1,1.6,3.6,4.1,10,4.1c0.6,0,1.3,0.1,2,0c2.8-0.2,4.2-3.4,3.9-9.4
	c-0.1-2.7-0.4-5-0.7-5c0,0,0,0,0-0.1c2.9-1.2,5.9-2,9.2-1.7c2,0.2,2.4-0.5,2.5-1C39.9,18.7,33.7,15.1,29.1,14z M27,14.5
	c0.6,0.1,1.3,0.3,1.9,0.4c1,0.2,2,0.6,2.9,0.9c-1.6,1-3.5,1.7-5.1,2.2C26.9,17,27,15.8,27,14.5z M17,12.6c-0.2-0.3-0.3-0.6-0.3-0.7
	c1.1-1.1,2.1-1.8,4.7-2.3c0.9-0.2,2,1.7,2.6,3.3c-2-0.4-4-0.6-5.3-0.6C18,12.3,17.4,12.4,17,12.6z M20.2,15.3
	c-0.4-0.4-0.9-0.8-1.5-1.1c-0.1-0.1-0.2-0.1-0.3-0.2c-0.1-0.1-0.3-0.2-0.4-0.3l0,0l-0.1-0.1l-0.1-0.1c0.2,0,0.4-0.1,1-0.1
	c1.5,0,4.2,0.4,7.3,1c0.1,1.3,0,2.5-0.3,3.6C24.2,17.1,22.5,16.1,20.2,15.3z M24.8,18.6c-1,0.2-1.9,0.4-2.4,0.4
	c-0.1-0.7-0.3-1.4-0.7-2C22.8,17.5,23.9,18,24.8,18.6z M22.4,20c0.6-0.1,1.6-0.2,2.8-0.5c-1,2.3-3,4.2-6,6.1
	C20.6,24.1,22.1,22.1,22.4,20z M19.9,27.2c1.1-0.5,2.1-1,3.2-1.6c0.3-0.1,0.6-0.3,0.8-0.4c0,0.8-0.2,1.7-0.6,2.8
	c-1.2,0.5-2.5,0.9-3.8,1.3C19.8,28.7,19.9,28,19.9,27.2z M22.9,29.3c-0.6,1.4-1.3,2.9-2.1,4.3c-1.9,0.4-3.6,0.6-4.8,0.7
	c1.2-1.2,2.3-2.4,3-3.7C20.3,30.1,21.6,29.7,22.9,29.3z M15.7,28.7c0.1,0,0.1,0,0.2,0c1-0.2,2-0.5,3-1c0,0.7-0.2,1.4-0.5,2
	c-1.9,0.5-3.7,1-4.7,1.2C14,30.3,14.7,29.5,15.7,28.7z M14.5,34.3l-0.1-0.1c-0.9-0.9-1.2-1.8-1.3-2.2c0.9-0.1,2.5-0.5,4.5-1
	c-0.8,1-1.8,2-2.9,3L14.5,34.3z M15.7,35.2c1-0.1,2.6-0.2,4.4-0.5c-0.5,0.7-0.9,1.3-1.4,1.7C17.4,36.1,16.4,35.7,15.7,35.2z
	 M26.5,35.7c-0.5,0.7-1.1,1-1.8,1.1c-1.9,0.1-3.6,0.1-4.9-0.1c0.5-0.6,1.1-1.4,1.6-2.2c2.1-0.4,4.4-1.1,6.2-2
	C27.4,33.8,27,34.9,26.5,35.7z M27.6,31.3c-1.5,0.9-3.5,1.5-5.6,2c0.8-1.4,1.5-3,2.1-4.5c1.3-0.5,2.5-1,3.4-1.6
	C27.7,28.5,27.7,29.9,27.6,31.3z M24.9,24.8c0.7-0.4,1.5-0.7,2.2-1c0.1,0.5,0.2,1.4,0.3,2.4c-0.8,0.5-1.8,1-2.9,1.4
	C24.8,26.5,25,25.6,24.9,24.8z M22.7,24.8c-0.7,0.3-1.3,0.7-2,1c2.8-1.9,4.6-3.9,5.5-6.3c0.7,0.5,1.3,0.9,1.9,1.4
	c0.5,0.3,0.9,0.6,1.4,0.9C27.1,22.6,24.8,23.7,22.7,24.8z M28.7,20c-0.5-0.3-1-0.7-1.5-1c1.7-0.5,3.5-1.3,5.2-2.3
	c-0.2,1.1-1.4,3.6-2.1,4.5C29.8,20.8,29.3,20.4,28.7,20z M37.8,20.7c-0.2,0-0.4,0-0.6,0c-0.5,0-1-0.1-1.5-0.1
	c-1.5,0-2.9,0.2-4.3,0.6c0.8-1.2,1.8-3.3,2-4.6c3.1,1.5,5.3,3.4,5.2,3.9C38.6,20.6,38.5,20.7,37.8,20.7z"/>
</svg>
