<?xml version="1.0" encoding="utf-8"?>
<!-- Generator: Adobe Illustrator 21.0.0, SVG Export Plug-In . SVG Version: 6.00 Build 0)  -->
<svg version="1.1" id="图层_1" xmlns="http://www.w3.org/2000/svg" xmlns:xlink="http://www.w3.org/1999/xlink" x="0px" y="0px"
	 viewBox="0 0 48 48" style="enable-background:new 0 0 48 48;" xml:space="preserve">
<style type="text/css">
	.st0{fill:#040000;}
</style>
<path class="st0" d="M41.6,11.1L26.4,2.6c-1.3-0.7-3.4-0.7-4.7,0L6.4,11.1C5,11.8,4,13.5,4,15v18c0,1.5,1,3.2,2.4,4l15.3,8.5
	c0.7,0.4,1.5,0.6,2.4,0.6s1.7-0.2,2.4-0.6l15.3-8.5c1.3-0.7,2.4-2.5,2.4-4V15C44,13.5,43,11.8,41.6,11.1z M41.9,33
	c0,0.8-0.6,1.8-1.3,2.2l-15.3,8.5c-0.7,0.4-1.9,0.4-2.6,0L7.4,35.2c-0.7-0.4-1.3-1.4-1.3-2.2V15c0-0.8,0.6-1.8,1.3-2.2l15.3-8.5
	C23,4.2,23.5,4.1,24,4.1c0.5,0,1,0.1,1.3,0.3l15.3,8.5c0.7,0.4,1.3,1.4,1.3,2.2V33z M34,16.9c-0.6,0.3-0.9,1-0.8,1.6l-7.6,4.3
	c-0.4-0.5-1-0.8-1.7-0.8c-0.6,0-1.1,0.2-1.5,0.6l-7.4-4.1c0.1-0.6-0.2-1.3-0.8-1.6c-0.8-0.4-1.7-0.2-2.2,0.6
	c-0.4,0.7-0.2,1.7,0.6,2.1c0.6,0.3,1.3,0.2,1.8-0.2l7.4,4.1c0,0.2-0.1,0.4-0.1,0.5c0,1,0.7,1.8,1.6,2v7.6c-0.6,0.2-1.1,0.8-1.1,1.4
	c0,0.9,0.7,1.5,1.6,1.5c0.9,0,1.6-0.7,1.6-1.5c0-0.7-0.4-1.2-1.1-1.4V26c0.9-0.2,1.6-1,1.6-2c0-0.1,0-0.2,0-0.3l7.7-4.3
	c0.5,0.4,1.2,0.5,1.8,0.2c0.8-0.4,1-1.4,0.6-2.1C35.7,16.7,34.7,16.4,34,16.9z"/>
</svg>
