<svg id="图层_1" data-name="图层 1" xmlns="http://www.w3.org/2000/svg" viewBox="0 0 48 48"><defs><style>.cls-1{fill:#040000;}</style></defs><title>画板 1</title><path class="cls-1" d="M30,13.5a.5.5,0,0,0-.5-.5h-11a.5.5,0,0,0,0,1h11A.5.5,0,0,0,30,13.5Zm13.9-3.23a2.17,2.17,0,0,0-2.21.06,1,1,0,0,0-.17.14l-6.07,6.1V10.93a3.14,3.14,0,0,0-3-2.93H5.92A3,3,0,0,0,3,10.93V21a1,1,0,0,0,2,0V10.93a1.05,1.05,0,0,1,.9-.93H32.41a1.22,1.22,0,0,1,1,.93v7.9s0,.06,0,.09a1,1,0,0,0,.28.8,1,1,0,0,0,1.41,0L42.82,12A.22.22,0,0,1,43,12V34a.17.17,0,0,1-.14,0l-7.66-7.7h0a1,1,0,0,0-1.39,0h0a1,1,0,0,0-.29.71h0v8.07a1,1,0,0,1-.9.93H20a1,1,0,0,0,0,2H32.54a3,3,0,0,0,2.9-2.93V29.42l6.07,6.1a1,1,0,0,0,.17.14,2.17,2.17,0,0,0,2.21.06A2,2,0,0,0,45,34V12A2,2,0,0,0,43.9,10.27Zm-31,22.1a4.49,4.49,0,0,0,.74-2.49V27.4A4.3,4.3,0,0,0,9.5,23a4.3,4.3,0,0,0-4.17,4.4v2.48a4.49,4.49,0,0,0,.74,2.49C4.87,32.75,3,33.47,3,35.46V36.7A1.28,1.28,0,0,0,4.27,38H14.73A1.28,1.28,0,0,0,16,36.7V35.46C16,33.47,14.13,32.75,12.93,32.37ZM15,36.7a.29.29,0,0,1-.27.3H4.27A.29.29,0,0,1,4,36.7V35.46c0-1.3,1.3-1.8,2.7-2.24l.37-.12a.5.5,0,0,0,.2-.82,3.47,3.47,0,0,1-.95-2.41V27.4A3.3,3.3,0,0,1,9.5,24a3.3,3.3,0,0,1,3.17,3.4v2.48a3.47,3.47,0,0,1-.95,2.41.5.5,0,0,0,.2.82l.44.14h0c1.33.41,2.62.92,2.62,2.21Z"/></svg>