<?xml version="1.0" encoding="utf-8"?>
<!-- Generator: Adobe Illustrator 21.0.0, SVG Export Plug-In . SVG Version: 6.00 Build 0)  -->
<svg version="1.1" id="图层_1" xmlns="http://www.w3.org/2000/svg" xmlns:xlink="http://www.w3.org/1999/xlink" x="0px" y="0px"
	 viewBox="0 0 48 48" style="enable-background:new 0 0 48 48;" xml:space="preserve">
<title>传输加速03</title>
<g>
	<path d="M5.1,24.8c0,0.3,0.2,0.5,0.5,0.5h6.6c0.3,0,0.5-0.2,0.5-0.5c0-0.3-0.2-0.5-0.5-0.5H5.6C5.3,24.3,5.1,24.5,5.1,24.8z"/>
	<path d="M10.3,29.4c0-0.2-0.2-0.5-0.5-0.5H3.2c-0.3,0-0.5,0.2-0.5,0.5s0.2,0.5,0.5,0.5h6.6C10.1,29.9,10.3,29.7,10.3,29.4z"/>
	<path d="M3.2,20.6h6.6c0.3,0,0.5-0.2,0.5-0.5c0-0.3-0.2-0.5-0.5-0.5H3.2c-0.3,0-0.5,0.2-0.5,0.5C2.7,20.4,2.9,20.6,3.2,20.6z"/>
	<path d="M44.3,19c-1.7-7-7.9-15.1-19.9-15.1C12.6,3.9,7.4,14,7.2,14.5s0,1.1,0.5,1.3c0.4,0.3,1.1,0.1,1.3-0.4
		C9.2,15,13.9,5.9,24.3,6c10.9,0,16.5,7.2,18,13.5c1.6,6.9-0.2,16.1-10.1,20.9c-9.9,4.8-19.4-1.8-21.5-5.3c-0.3-0.3-0.8-0.5-1.2-0.3
		C9,35,8.8,35.6,9,36.1c1.8,3,8.1,8,15.9,8c2.8,0,5.7-0.7,8.2-2C42,38.1,46.7,28.4,44.3,19z"/>
	<path d="M23.5,33.1c0.2,0,0.5-0.2,0.6-0.5V17.2c0-0.2,0-0.3-0.1-0.4c-0.2-0.2-0.5-0.2-0.7,0L19,20.9C18.9,21,18.9,21,18.9,21
		c-0.2,0.2-0.2,0.5,0,0.7c0.2,0.2,0.5,0.2,0.7,0l3.4-3.3v14.2C23,32.9,23.2,33.1,23.5,33.1z"/>
	<path d="M28,16.7c-0.3,0-0.5,0.2-0.5,0.5v15.4c0,0.2,0.1,0.4,0.3,0.5c0.1,0,0.1,0,0.2,0s0.2-0.1,0.3-0.1l4.3-4.1
		c0.2-0.2,0.2-0.5,0-0.7c-0.2-0.2-0.5-0.3-0.7-0.1l-3.4,3.3V17.2C28.5,16.9,28.3,16.7,28,16.7z"/>
</g>
</svg>
