<svg id="图层_1" data-name="图层 1" xmlns="http://www.w3.org/2000/svg" viewBox="0 0 40.02 44"><title>TICS</title><path d="M24,11.5A1.5,1.5,0,1,0,25.5,13,1.54,1.54,0,0,0,24,11.5Zm2.1,5.8a7.41,7.41,0,0,1,5.4,7.2,7.61,7.61,0,0,1-.3,2.1.47.47,0,1,1-.9-.3,5.66,5.66,0,0,0,.3-1.8A6.45,6.45,0,0,0,26,18.3a.45.45,0,0,1-.3-.6C25.8,17.5,25.9,17.2,26.1,17.3Zm-3.6.3a.49.49,0,0,1-.3.6,6.54,6.54,0,0,0-4.7,6.2,5.82,5.82,0,0,0,.3,1.9.47.47,0,1,1-.9.3,8.33,8.33,0,0,1-.3-2.2A7.5,7.5,0,0,1,22,17.2.89.89,0,0,1,22.5,17.6ZM24,21.5a3,3,0,1,0,3,3A2.95,2.95,0,0,0,24,21.5Zm4.8,8.1a.49.49,0,0,1-.1.7,7.35,7.35,0,0,1-9.4,0,.62.62,0,0,1-.1-.7c.1-.2.5-.2.7-.1A6.56,6.56,0,0,0,24,30.9a6.77,6.77,0,0,0,4.1-1.4A.62.62,0,0,1,28.8,29.6Zm4.7-.1A1.5,1.5,0,1,0,35,31,1.54,1.54,0,0,0,33.5,29.5Zm-19,0A1.5,1.5,0,1,0,16,31,1.54,1.54,0,0,0,14.5,29.5Zm9.5-19a2.47,2.47,0,0,1,.5,4.9v5.1a3.93,3.93,0,0,1,3.5,4,4.78,4.78,0,0,1-.4,1.8l4.2,2.9a2.61,2.61,0,0,1,1.7-.7A2.5,2.5,0,1,1,31,31a3.55,3.55,0,0,1,.2-1L27,27.2a4.11,4.11,0,0,1-6,0l-4.2,2.9a3,3,0,0,1,.2,1,2.48,2.48,0,0,1-2.5,2.5A2.56,2.56,0,0,1,12,31a2.48,2.48,0,0,1,2.5-2.5,2.41,2.41,0,0,1,1.7.7l4.2-2.9a4.78,4.78,0,0,1-.4-1.8,4.08,4.08,0,0,1,3.5-4V15.4a2.5,2.5,0,0,1-2-2.5A2.46,2.46,0,0,1,24,10.5Zm0-6h-.2a1.45,1.45,0,0,0-.7.2H23l-1.2.9a9.06,9.06,0,0,1-1.6,1.1,50.1,50.1,0,0,1-4.9,2.8l-.3.3a85.54,85.54,0,0,1-8.2,3,1,1,0,0,0-.8,1l.1,1.3c.7,6.8,1.9,13,3.9,17,2.3,4.5,6.9,8.3,13.4,12.3a1.08,1.08,0,0,0,.6.1,1.08,1.08,0,0,0,.6-.1c6.6-4,11.1-7.8,13.4-12.3,2.1-4.2,3.4-10.9,4-18.1a1.27,1.27,0,0,0-.7-1.2l-2.1-.7a56.38,56.38,0,0,1-6.6-2.5,50.1,50.1,0,0,1-4.9-2.8c-.4-.3-.8-.5-1.2-.8l-.7-.5-1-.8a.76.76,0,0,0-.5-.2H24Zm0-2h.2a2.81,2.81,0,0,1,1.9.7l1.4,1.1a35.45,35.45,0,0,0,6,3.6,75.48,75.48,0,0,0,7.3,2.7l1.1.4A3.08,3.08,0,0,1,44,14.2l-.1.8c-.5,4.6-1.6,12.8-4.1,18-3.2,6.3-11.1,11.2-14.2,13.1a3.4,3.4,0,0,1-3.2,0l-.9-.6C18,43.3,11.2,38.7,8.2,33,5.5,27.5,4.4,18.6,4,14a3,3,0,0,1,2.1-3.1l1.6-.5a57.31,57.31,0,0,0,6.8-2.6,38.4,38.4,0,0,0,7.4-4.7,2.79,2.79,0,0,1,1.8-.6Z" transform="translate(-3.99 -2.5)"/></svg>