<svg id="图层_1" data-name="图层 1" xmlns="http://www.w3.org/2000/svg" viewBox="0 0 40 44.05"><title>trafficgo</title><path id="服务图标-交通智能体_trafficgo" data-name="服务图标-交通智能体 trafficgo" d="M23.05,25.5h-2.5a1.54,1.54,0,0,1-1.5-1.5V17a1.54,1.54,0,0,0-1.5-1.5h-4a1.54,1.54,0,0,0-1.5,1.5V32.1a1.54,1.54,0,0,0,1.5,1.5h4a1.54,1.54,0,0,0,1.5-1.5V27.7a.5.5,0,0,1,1,0v4.4a2.48,2.48,0,0,1-2.5,2.5h-4a2.48,2.48,0,0,1-2.5-2.5V17a2.48,2.48,0,0,1,2.5-2.5h4a2.48,2.48,0,0,1,2.5,2.5v7a.47.47,0,0,0,.5.5h2.5v-2a2,2,0,0,1,2-2h8a2,2,0,0,1,2,1.8l2.2-.9a.63.63,0,0,1,.8.3v6.2a.65.65,0,0,1-.6.6h-.2l-2.2-.9a2.06,2.06,0,0,1-2,1.9h-3v3.3c0,1.1-.7,1.8-2,1.8h-3.5a.5.5,0,0,1,0-1h3.5c.7,0,1-.2,1-.8V29.5h-4a2,2,0,0,1-2-2Zm12-2.1v3.1l2,.8V22.5Zm-2.4,1.5a.76.76,0,0,1-.2.4A4.33,4.33,0,0,1,29,27.4c-1.3,0-2.4-.7-3.5-2.1a.52.52,0,0,1-.2-.4.76.76,0,0,1,.2-.4A4.33,4.33,0,0,1,29,22.4c1.3,0,2.4.7,3.5,2.1A.4.4,0,0,1,32.65,24.9Zm-1.1,0a3.25,3.25,0,0,0-2.5-1.5,3.25,3.25,0,0,0-2.5,1.5,3.25,3.25,0,0,0,2.5,1.5A3,3,0,0,0,31.55,24.9Zm-6.5-3.4a.94.94,0,0,0-1,1v5a.94.94,0,0,0,1,1h8a.94.94,0,0,0,1-1v-5a.94.94,0,0,0-1-1Zm9.5,12a.5.5,0,0,1,0,1h-2.5a.5.5,0,0,1,0-1Zm-4.8-15.3a.49.49,0,0,1-.7.7.48.48,0,0,0-.7,0,.49.49,0,0,1-.7-.7A1.66,1.66,0,0,1,29.75,18.2Zm1.5-1.4a.49.49,0,0,1-.7.7,2.42,2.42,0,0,0-3.5,0,.49.49,0,0,1-.7-.7A3.38,3.38,0,0,1,31.25,16.8Zm1.4-1.4a.49.49,0,0,1-.7.7,4.47,4.47,0,0,0-6.4,0,.49.49,0,0,1-.7-.7A5.62,5.62,0,0,1,32.65,15.4ZM29.05,24a1,1,0,1,1-1,1A.94.94,0,0,1,29.05,24Zm12.6-12.5a5.19,5.19,0,0,1,2.4,4v18a5.19,5.19,0,0,1-2.4,4L26.35,46a5.52,5.52,0,0,1-4.7,0L6.45,37.5a4.89,4.89,0,0,1-2.4-4v-18a5.19,5.19,0,0,1,2.4-4L21.75,3a5.52,5.52,0,0,1,4.7,0Zm.3,22v-18a3.16,3.16,0,0,0-1.3-2.2L25.35,4.8a3,3,0,0,0-2.6,0L7.45,13.3a3.16,3.16,0,0,0-1.3,2.2v18a3.16,3.16,0,0,0,1.3,2.2l15.3,8.5a3,3,0,0,0,2.6,0l15.3-8.5A3.16,3.16,0,0,0,42,33.5Zm-26.5-7a2,2,0,1,1,2-2A2,2,0,0,1,15.45,26.5Zm.1,6a2.5,2.5,0,1,1,2.5-2.5A2.48,2.48,0,0,1,15.55,32.5Zm0-1a1.5,1.5,0,1,0-1.5-1.5A1.54,1.54,0,0,0,15.55,31.5Zm0-10a2.5,2.5,0,1,1,2.5-2.5A2.48,2.48,0,0,1,15.55,21.5Zm0-1a1.5,1.5,0,1,0-1.5-1.5A1.54,1.54,0,0,0,15.55,20.5Z" transform="translate(-4.05 -2.47)"/></svg>