<?xml version="1.0" encoding="utf-8"?>
<!-- Generator: Adobe Illustrator 21.0.0, SVG Export Plug-In . SVG Version: 6.00 Build 0)  -->
<svg version="1.1" id="图层_1" xmlns="http://www.w3.org/2000/svg" xmlns:xlink="http://www.w3.org/1999/xlink" x="0px" y="0px"
	 viewBox="0 0 48 48" style="enable-background:new 0 0 48 48;" xml:space="preserve">
<style type="text/css">
	.st0{fill:#231816;}
</style>
<path d="M27,39.1H7.2C6,39.1,5,38,5,36.8V11.2C5,10,6,9.1,7.2,9.1h4c0.4,1.1,1.5,1.9,2.8,1.9c1.7,0,3-1.3,3-3s-1.3-3-3-3
	c-1.3,0-2.5,0.9-2.9,2.1H7.2C4.9,7.1,3,8.9,3,11.2v25.5c0,2.4,1.9,4.4,4.2,4.4H27c0.6,0,1-0.4,1-1S27.6,39.1,27,39.1z M14,6
	c1.1,0,2,0.9,2,2s-0.9,2-2,2s-2-0.9-2-2S12.9,6,14,6z M22,28v-8c0-0.3-0.2-0.5-0.5-0.5S21,19.7,21,20v8c0,0.3,0.2,0.5,0.5,0.5
	S22,28.3,22,28z M16,16v16c0,0.3,0.2,0.5,0.5,0.5S17,32.3,17,32V16c0-0.3-0.2-0.5-0.5-0.5S16,15.7,16,16z M11.5,21
	c-0.3,0-0.5,0.2-0.5,0.5v5c0,0.3,0.2,0.5,0.5,0.5s0.5-0.2,0.5-0.5v-5C12,21.2,11.8,21,11.5,21z M27,28v-8c0-0.3-0.2-0.5-0.5-0.5
	S26,19.7,26,20v8c0,0.3,0.2,0.5,0.5,0.5S27,28.3,27,28z M32,32V16c0-0.3-0.2-0.5-0.5-0.5S31,15.7,31,16v16c0,0.3,0.2,0.5,0.5,0.5
	S32,32.3,32,32z M36.5,26.5c0.3,0,0.5-0.2,0.5-0.5v-4c0-0.3-0.2-0.5-0.5-0.5S36,21.7,36,22v4C36,26.3,36.2,26.5,36.5,26.5z
	 M41.3,7.1H21c-0.6,0-1,0.4-1,1s0.4,1,1,1h20.3c1.5,0,1.7,1.3,1.7,2.1v25.5c0,1.1-0.5,2.4-1.7,2.4h-4.4C36.5,37.9,35.3,37,34,37
	c-1.7,0-3,1.3-3,3s1.3,3,3,3c1.3,0,2.3-0.8,2.8-1.9h4.5c2.2,0,3.7-1.8,3.7-4.4V11.2C45,8.8,43.5,7.1,41.3,7.1z M34,42
	c-1.1,0-2-0.9-2-2s0.9-2,2-2s2,0.9,2,2S35.1,42,34,42z"/>
</svg>
