<?xml version="1.0" encoding="utf-8"?>
<!-- Generator: Adobe Illustrator 21.0.0, SVG Export Plug-In . SVG Version: 6.00 Build 0)  -->
<svg version="1.1" id="图层_1" xmlns="http://www.w3.org/2000/svg" xmlns:xlink="http://www.w3.org/1999/xlink" x="0px" y="0px"
	 viewBox="0 0 48 48" style="enable-background:new 0 0 48 48;" xml:space="preserve">
<title>网站过滤-03</title>
<path d="M40.8,6.2c0.6,0,1,0.4,1,1v33.7c0,0.6-0.4,1-1,1H7.2c-0.6,0-1-0.4-1-1V7.2c0-0.6,0.4-1,1-1H40.8 M40.8,4.2H7.2
	c-1.7,0-3,1.3-3,3v33.7c0,1.7,1.3,3,3,3h33.7c1.7,0,3-1.3,3-3V7.2C43.8,5.5,42.5,4.2,40.8,4.2z"/>
<rect x="6.2" y="12.8" width="36.1" height="1"/>
<path d="M33.5,20.9c-0.3,0.5-7.7,8.3-7.7,8.3v3.5l-3.2,2.6c0,0-0.4,0.2-0.4-0.5v-5.5l-8-8.3c0,0-0.4-0.5,0.4-0.5h18.5
	C33.1,20.5,33.8,20.5,33.5,20.9z M14.5,19.5c-0.7-0.1-1.3,0.4-1.4,1.1c0,0.4,0.1,0.7,0.3,1l0.1,0.1l7.7,8.1V35c0,1,0.4,1.4,1.1,1.5
	l0,0h0.1c0.2,0,0.4,0,0.5-0.1c0.1,0,0.1-0.1,0.2-0.1l3.2-2.6c0.2-0.2,0.4-0.5,0.4-0.8v-3.1c2.8-3,7.2-7.6,7.5-8.2
	c0.3-0.4,0.3-0.9,0.1-1.3c-0.3-0.5-0.7-0.7-1.3-0.7L14.5,19.5z"/>
<path d="M10.2,10.2H8.7c-0.3,0-0.5-0.2-0.5-0.5s0.2-0.5,0.5-0.5h1.4c0.3,0,0.5,0.2,0.5,0.5S10.4,10.2,10.2,10.2z"/>
<path d="M13.6,10.2h-1.4c-0.3,0-0.5-0.2-0.5-0.5s0.2-0.5,0.5-0.5h1.4c0.3,0,0.5,0.2,0.5,0.5S13.9,10.2,13.6,10.2z"/>
<path d="M17.1,10.2h-1.4c-0.3,0-0.5-0.2-0.5-0.5s0.2-0.5,0.5-0.5h1.4c0.3,0,0.5,0.2,0.5,0.5S17.4,10.2,17.1,10.2z"/>
</svg>
