<?xml version="1.0" encoding="utf-8"?>
<!-- Generator: Adobe Illustrator 21.0.0, SVG Export Plug-In . SVG Version: 6.00 Build 0)  -->
<svg version="1.1" id="图层_1" xmlns="http://www.w3.org/2000/svg" xmlns:xlink="http://www.w3.org/1999/xlink" x="0px" y="0px"
	 viewBox="0 0 48 48" style="enable-background:new 0 0 48 48;" xml:space="preserve">
<style type="text/css">
	.st0{fill:#333333;}
</style>
<title>视频理解 VCC</title>
<desc>Created with Sketch.</desc>
<g id="视频理解-VCC-">
	<g id="Fill-1" transform="translate(4.000000, 4.000000)">
		<path class="st0" d="M32,11v18c0,0.6-0.4,1-1,1H10c-0.6,0-1-0.4-1-1V11c0-0.6,0.4-1,1-1h21C31.6,10,32,10.4,32,11 M8,11v18
			c0,1.1,0.9,2,2,2h21c1.1,0,2-0.9,2-2V11c0-1.1-0.9-2-2-2H10C8.9,9,8,9.9,8,11 M13.5,23h10c0.3,0,0.5-0.2,0.5-0.5
			c0-0.3-0.2-0.5-0.5-0.5h-10c-0.3,0-0.5,0.2-0.5,0.5C13,22.8,13.2,23,13.5,23 M39,28c-0.6,0-1,0.4-1,1v7c0,1.1-0.9,2-2,2h-7
			c-0.6,0-1,0.4-1,1c0,0.6,0.4,1,1,1h7c2.2,0,4-1.8,4-4v-7C40,28.4,39.6,28,39,28 M11,38H4c-1.1,0-2-0.9-2-2v-7c0-0.6-0.4-1-1-1
			c-0.6,0-1,0.4-1,1v7c0,2.2,1.8,4,4,4h7c0.6,0,1-0.4,1-1C12,38.4,11.6,38,11,38 M36,0h-7c-0.6,0-1,0.4-1,1c0,0.6,0.4,1,1,1h7
			c1.1,0,2,0.9,2,2v8c0,0.6,0.4,1,1,1c0.6,0,1-0.4,1-1V4C40,1.8,38.2,0,36,0 M26.5,19h1c0.3,0,0.5-0.2,0.5-0.5
			c0-0.3-0.2-0.5-0.5-0.5h-1c-0.3,0-0.5,0.2-0.5,0.5C26,18.8,26.2,19,26.5,19 M1,12c0.6,0,1-0.4,1-1V4c0-1.1,0.9-2,2-2h7
			c0.6,0,1-0.4,1-1c0-0.6-0.4-1-1-1H4C1.8,0,0,1.8,0,4v7C0,11.6,0.4,12,1,12 M13.5,19h10c0.3,0,0.5-0.2,0.5-0.5
			c0-0.3-0.2-0.5-0.5-0.5h-10c-0.3,0-0.5,0.2-0.5,0.5C13,18.8,13.2,19,13.5,19 M26.5,23h1c0.3,0,0.5-0.2,0.5-0.5
			c0-0.3-0.2-0.5-0.5-0.5h-1c-0.3,0-0.5,0.2-0.5,0.5C26,22.8,26.2,23,26.5,23"/>
	</g>
</g>
</svg>
