<?xml version="1.0" encoding="utf-8"?>
<!-- Generator: Adobe Illustrator 21.0.0, SVG Export Plug-In . SVG Version: 6.00 Build 0)  -->
<svg version="1.1" id="图层_1" xmlns="http://www.w3.org/2000/svg" xmlns:xlink="http://www.w3.org/1999/xlink" x="0px" y="0px"
	 viewBox="0 0 48 48" style="enable-background:new 0 0 48 48;" xml:space="preserve">
<style type="text/css">
	.st0{fill:#333333;}
</style>
<title>视频识别 VCR</title>
<desc>Created with Sketch.</desc>
<g id="视频识别-VCR--">
	<g id="Fill-1" transform="translate(4.000000, 4.000000)">
		<path class="st0" d="M39,27c-0.6,0-1,0.4-1,1v7c0,1.1-0.9,2-2,2h-7c-0.6,0-1,0.4-1,1s0.4,1,1,1h7c2.2,0,4-1.8,4-4v-7
			C40,27.4,39.6,27,39,27z M32,10v18c0,0.6-0.4,1-1,1H10c-0.6,0-1-0.4-1-1V10c0-0.6,0.4-1,1-1h21C31.6,9,32,9.4,32,10z M8,10v18
			c0,1.1,0.9,2,2,2h21c1.1,0,2-0.9,2-2V10c0-1.1-0.9-2-2-2H10C8.9,8,8,8.9,8,10z M36-1h-7c-0.6,0-1,0.4-1,1s0.4,1,1,1h7
			c1.1,0,2,0.9,2,2v8c0,0.6,0.4,1,1,1s1-0.4,1-1V3C40,0.8,38.2-1,36-1z M1,11c0.6,0,1-0.4,1-1V3c0-1.1,0.9-2,2-2h7c0.6,0,1-0.4,1-1
			s-0.4-1-1-1H4C1.8-1,0,0.8,0,3v7C0,10.6,0.4,11,1,11z M11,37H4c-1.1,0-2-0.9-2-2v-7c0-0.6-0.4-1-1-1s-1,0.4-1,1v7c0,2.2,1.8,4,4,4
			h7c0.6,0,1-0.4,1-1S11.6,37,11,37z M16.8,14.3c0-0.2,0.1-0.4,0.3-0.5c0.1-0.1,0.4-0.1,0.6,0l7,4.2c0.2,0.1,0.3,0.3,0.3,0.5
			c0,0.2-0.1,0.5-0.3,0.6l-7,4.2c-0.2,0.1-0.4,0.1-0.6,0c-0.2-0.1-0.3-0.3-0.3-0.5V14.3z M16.7,24.1c0.2,0.1,0.5,0.2,0.7,0.2
			c0.3,0,0.5-0.1,0.7-0.2l7-4.2c0.4-0.3,0.7-0.7,0.7-1.2s-0.3-1-0.7-1.2l-7-4.3c-0.4-0.3-1-0.3-1.4,0c-0.5,0.3-0.7,0.7-0.7,1.2v8.5
			C16,23.4,16.3,23.9,16.7,24.1z"/>
	</g>
</g>
</svg>
