<?xml version="1.0" encoding="utf-8"?>
<!-- Generator: Adobe Illustrator 21.0.0, SVG Export Plug-In . SVG Version: 6.00 Build 0)  -->
<svg version="1.1" id="图层_1" xmlns="http://www.w3.org/2000/svg" xmlns:xlink="http://www.w3.org/1999/xlink" x="0px" y="0px"
	 viewBox="0 0 48 48" style="enable-background:new 0 0 48 48;" xml:space="preserve">
<title>视频加速03-01</title>
<g>
	<path d="M5.1,24.8c0,0.3,0.2,0.5,0.5,0.5h6.6c0.3,0,0.5-0.2,0.5-0.5s-0.2-0.5-0.5-0.5H5.6C5.3,24.3,5.1,24.5,5.1,24.8z"/>
	<path d="M10.3,29.4c0-0.3-0.2-0.5-0.5-0.5H3.2c-0.3,0-0.5,0.2-0.5,0.5c0,0.3,0.2,0.5,0.5,0.5h6.6C10.1,29.9,10.3,29.7,10.3,29.4z"
		/>
	<path d="M3.2,20.6h6.6c0.3,0,0.5-0.2,0.5-0.5c0-0.3-0.2-0.5-0.5-0.5H3.2c-0.3,0-0.5,0.2-0.5,0.5C2.7,20.4,2.9,20.6,3.2,20.6z"/>
	<path d="M21.5,33.4c0.1,0.1,0.2,0.1,0.3,0.1c0.2,0,0.3,0,0.5-0.1c0.5-0.3,9.8-7,10.8-7.7c0.3-0.2,0.5-0.5,0.5-0.9
		c0-0.4-0.3-0.9-0.6-1.1C32.2,23,23,16.8,22.6,16.5l-0.2-0.1c-0.4-0.1-0.7,0-1,0.3c-0.3,0.3-0.4,0.7-0.3,1.1v14.6
		C21.1,32.8,21.2,33.2,21.5,33.4z M32.5,24.5c0.2,0.1,0.2,0.3,0.2,0.3c0,0.1-0.1,0.1-0.1,0.1c-3.7,2.6-9.1,6.5-10.5,7.5V17.7
		c0-0.1,0-0.1,0-0.2C23.2,18.2,31.6,23.9,32.5,24.5z"/>
	<path d="M44.3,19c-1.7-7-7.9-15.1-19.9-15.1C12.6,3.9,7.4,14,7.2,14.5c-0.2,0.5,0,1.1,0.4,1.3c0.5,0.2,1.1,0,1.3-0.4
		c0.2-0.4,4.9-9.4,15.3-9.4c10.9,0,16.5,7.3,18,13.5c1.6,6.9-0.1,16-10.1,20.9c-10,4.8-19.4-1.8-21.5-5.3c-0.3-0.4-0.8-0.5-1.2-0.3
		C9,35,8.8,35.6,9,36.1c1.8,3,8.1,8,15.9,8c2.9,0,5.7-0.7,8.2-1.9C41.9,38.1,46.6,28.4,44.3,19z"/>
</g>
</svg>
