<?xml version="1.0" encoding="utf-8"?>
<!-- Generator: Adobe Illustrator 21.0.0, SVG Export Plug-In . SVG Version: 6.00 Build 0)  -->
<svg version="1.1" id="图层_1" xmlns="http://www.w3.org/2000/svg" xmlns:xlink="http://www.w3.org/1999/xlink" x="0px" y="0px"
	 viewBox="0 0 48 48" style="enable-background:new 0 0 48 48;" xml:space="preserve">
<title>虚拟网关-03</title>
<g>
	<path d="M24,2C11.8,2,2,11.8,2,24c0,12.2,9.8,22,22,22s22-9.8,22-22C46,11.8,36.2,2,24,2z M24,44C13,44,4,35,4,24C4,13,13,4,24,4v0
		C35,4,44,13,44,24C44,35,35,44,24,44z"/>
	<path d="M32.8,22.2h-1.9c0-0.1,0-0.1,0-0.2v-6c0-0.3-0.2-0.5-0.5-0.5c-0.3,0-0.5,0.2-0.5,0.5v6c0,0.1,0,0.1,0,0.2H17.5
		c0-0.1,0-0.1,0-0.2v-6c0-0.3-0.2-0.5-0.5-0.5c-0.3,0-0.5,0.2-0.5,0.5v6c0,0.1,0,0.1,0,0.2h-1.4c-1.4,0-2.5,1.1-2.5,2.5v4.7
		c0,1.4,1.1,2.5,2.5,2.5h17.6c1.4,0,2.5-1.1,2.5-2.5v-4.7C35.3,23.3,34.2,22.2,32.8,22.2z M34.3,29.4c0,0.8-0.7,1.5-1.5,1.5H15.2
		c-0.8,0-1.5-0.7-1.5-1.5v-4.7c0-0.8,0.7-1.5,1.5-1.5h17.6c0.8,0,1.5,0.7,1.5,1.5V29.4z"/>
	<circle cx="17.9" cy="27.1" r="0.8"/>
</g>
</svg>
