<?xml version="1.0" encoding="utf-8"?>
<!-- Generator: Adobe Illustrator 21.0.0, SVG Export Plug-In . SVG Version: 6.00 Build 0)  -->
<svg version="1.1" id="图层_1" xmlns="http://www.w3.org/2000/svg" xmlns:xlink="http://www.w3.org/1999/xlink" x="0px" y="0px"
	 viewBox="0 0 48 48" style="enable-background:new 0 0 48 48;" xml:space="preserve">
<path d="M42.3,34.7l-9-5.5c-0.5-0.3-1-0.3-1.5,0S31,30,31,30.5v11c0,0.5,0.3,1,0.8,1.3c0.1,0.1,0.5,0.2,0.7,0.2c0.1,0,0.3,0,0.4-0.1
	c0,0,0.2-0.1,0.4-0.1l9-5.5C42.7,37,43,36.5,43,36C43,35.6,42.7,35.1,42.3,34.7z M41.7,36.5l-8.9,5.4c-0.1,0-0.2,0.1-0.2,0.1
	c-0.1,0-0.1,0-0.1,0s-0.2,0-0.2-0.1c-0.2-0.1-0.3-0.3-0.3-0.4v-11c0-0.1,0.1-0.3,0.3-0.4c0.1-0.1,0.2-0.1,0.2-0.1
	c0.1,0,0.1,0,0.2,0.1l8.9,5.5c0.2,0.1,0.3,0.4,0.3,0.5C42,36.2,41.9,36.4,41.7,36.5z M42,24.2V9.1C42,6.8,40.1,5,37.8,5H8.2
	C5.9,5,4,6.8,4,9.1v29.5C4,41,5.9,43,8.2,43h15c0.4,1.2,1.5,2,2.8,2c1.7,0,3-1.3,3-3s-1.3-3-3-3c-1.3,0-2.4,0.8-2.8,2h-15
	C7,41,6,39.9,6,38.6V9.1C6,7.9,7,7,8.2,7h29.5C39,7,40,7.9,40,9.1v15.1c-1.2,0.4-2,1.5-2,2.8c0,1.7,1.3,3,3,3s3-1.3,3-3
	C44,25.7,43.2,24.6,42,24.2z M26,40c1.1,0,2,0.9,2,2s-0.9,2-2,2s-2-0.9-2-2S24.9,40,26,40z M41,29c-1.1,0-2-0.9-2-2s0.9-2,2-2
	s2,0.9,2,2S42.1,29,41,29z M34,20.5c0-0.3-0.2-0.5-0.5-0.5h-17c-0.3,0-0.5,0.2-0.5,0.5s0.2,0.5,0.5,0.5h17C33.8,21,34,20.8,34,20.5z
	 M16.5,15h17c0.3,0,0.5-0.2,0.5-0.5S33.8,14,33.5,14h-17c-0.3,0-0.5,0.2-0.5,0.5S16.2,15,16.5,15z M16.5,26c-0.3,0-0.5,0.2-0.5,0.5
	s0.2,0.5,0.5,0.5h7c0.3,0,0.5-0.2,0.5-0.5S23.8,26,23.5,26H16.5z M13.5,14h-1c-0.3,0-0.5,0.2-0.5,0.5s0.2,0.5,0.5,0.5h1
	c0.3,0,0.5-0.2,0.5-0.5S13.8,14,13.5,14z M13.5,26h-1c-0.3,0-0.5,0.2-0.5,0.5s0.2,0.5,0.5,0.5h1c0.3,0,0.5-0.2,0.5-0.5
	S13.8,26,13.5,26z M13.5,20h-1c-0.3,0-0.5,0.2-0.5,0.5s0.2,0.5,0.5,0.5h1c0.3,0,0.5-0.2,0.5-0.5S13.8,20,13.5,20z"/>
</svg>
