<svg id="图层_1" data-name="图层 1" xmlns="http://www.w3.org/2000/svg" viewBox="0 0 44 33"><title>VIS</title><path id="合并形状" d="M38.57,17a2,2,0,0,1-3-1.7V11.63a2,2,0,0,0-2-2h-28a2,2,0,0,0-2,2v25a2,2,0,0,0,2,2h28a2,2,0,0,0,2-2v-4.1a2,2,0,0,1,3.1-1.7l4.9,3.09V14.13Zm-1-1.7,1-.6,1-.6,3-1.8a2,2,0,0,1,3,1.7v19.9a2,2,0,0,1-3.1,1.71l-2.9-1.8-1.1-.7-.9-.6v4.1a4,4,0,0,1-4,4h-28a4,4,0,0,1-4-4v-25a4,4,0,0,1,4-4h28a4,4,0,0,1,4,4v3.69Zm-26.1-.69H14c2.1,0,3.6.89,6,2.89.1.11.3.21.4.4s.4.3.4.4c2.9,2.5,4.5,3.4,6.9,3.4H35a.47.47,0,0,1,.5.5c0,.3-.1.41-.4.41h-7.3c-2.7,0-4.5-1-7.6-3.61l-.4-.39a1.67,1.67,0,0,1-.4-.4c-2.2-1.9-3.6-2.6-5.4-2.6h-2.5a1.5,1.5,0,0,1-1.4,1,1.5,1.5,0,0,1,0-3A1.4,1.4,0,0,1,11.47,14.63Zm0,19a1.52,1.52,0,0,1-1.4,1,1.5,1.5,0,0,1,0-3,1.41,1.41,0,0,1,1.4,1H14c1.8,0,3.2-.8,5.4-2.61.1-.1.3-.2.4-.39s.4-.3.4-.4c3.1-2.6,4.9-3.6,7.6-3.6h7.3a.47.47,0,0,1,.5.5.48.48,0,0,1-.5.5h-7.3c-2.4,0-4,.89-6.9,3.39l-.4.4c-.2.1-.3.3-.4.4-2.4,2-4,2.9-6,2.9h-2.6Zm-2.4-10h8a.47.47,0,0,1,.5.5.48.48,0,0,1-.5.5h-8a.48.48,0,0,1-.5-.5A.47.47,0,0,1,9.07,23.63Zm10,0h2a.47.47,0,0,1,.5.5.48.48,0,0,1-.5.5h-2a.48.48,0,0,1-.5-.5A.47.47,0,0,1,19.07,23.63Z" transform="translate(-1.57 -7.63)"/></svg>