<?xml version="1.0" encoding="utf-8"?>
<!-- Generator: Adobe Illustrator 21.0.0, SVG Export Plug-In . SVG Version: 6.00 Build 0)  -->
<svg version="1.1" id="图层_1" xmlns="http://www.w3.org/2000/svg" xmlns:xlink="http://www.w3.org/1999/xlink" x="0px" y="0px"
	 viewBox="0 0 48 48" style="enable-background:new 0 0 48 48;" xml:space="preserve">
<style type="text/css">
	.st0{fill:#040000;}
</style>
<path class="st0" d="M37.6,21.3c0.1,0.1,0.3,0.2,0.4,0.2c0.1,0,0.2,0,0.3-0.1c0.2-0.2,0.3-0.5,0.1-0.7c-0.2-0.3-5.1-7.2-14.4-7.2
	S9.8,20.4,9.6,20.7c-0.2,0.2-0.1,0.5,0.1,0.7c0.2,0.2,0.5,0.1,0.7-0.1c0-0.1,3.2-4.5,9.1-6.2C18,16.4,17,18.3,17,20.5
	c0,3.9,3.1,7,7,7s7-3.1,7-7c0-2.2-1-4.1-2.5-5.4C34.4,16.8,37.6,21.2,37.6,21.3z M30,20.5c0,3.3-2.7,6-6,6s-6-2.7-6-6s2.7-6,6-6
	S30,17.2,30,20.5z M9.6,23.8C9.8,24.1,14.7,31,24,31s14.2-6.9,14.4-7.2c0.2-0.2,0.1-0.5-0.1-0.7c-0.2-0.2-0.5-0.1-0.7,0.1
	c0,0.1-4.8,6.8-13.6,6.8s-13.5-6.7-13.6-6.8c-0.2-0.2-0.5-0.3-0.7-0.1C9.5,23.2,9.4,23.6,9.6,23.8z M40.3,4h-32C5.7,4,4,5.5,4,7.6
	v29.5C4,39.5,5.8,42,8.2,42h7c0.4,1.2,1.5,2,2.8,2c1.7,0,3-1.3,3-3s-1.3-3-3-3c-1.3,0-2.4,0.8-2.8,2h-7C7.1,40,6,38.4,6,37.2V7.6
	C6,6.2,7.4,6,8.2,6h32C41.5,6,42,6.4,42,7.6v29.5c0,1.1-0.6,2.8-1.7,2.8h-7.5c-0.4-1.2-1.5-2-2.8-2c-1.7,0-3,1.3-3,3s1.3,3,3,3
	c1.3,0,2.4-0.8,2.8-2h7.5c2.4,0,3.7-2.5,3.7-4.8V7.6C44,5.3,42.6,4,40.3,4z M18,39c1.1,0,2,0.9,2,2s-0.9,2-2,2s-2-0.9-2-2
	S16.9,39,18,39z M30,43c-1.1,0-2-0.9-2-2s0.9-2,2-2c1.1,0,2,0.9,2,2S31.1,43,30,43z"/>
</svg>
