<?xml version="1.0" encoding="utf-8"?>
<!-- Generator: Adobe Illustrator 21.0.0, SVG Export Plug-In . SVG Version: 6.00 Build 0)  -->
<svg version="1.1" id="图层_1" xmlns="http://www.w3.org/2000/svg" xmlns:xlink="http://www.w3.org/1999/xlink" x="0px" y="0px"
	 viewBox="0 0 48 48" enable-background="new 0 0 48 48" xml:space="preserve">
<path d="M24.5,14c-2.7,0-5.2,1.4-6.5,3.8V13c0-0.3-0.2-0.5-0.5-0.5S17,12.7,17,13v6.5c0,0.3,0.2,0.5,0.5,0.5h6
	c0.3,0,0.5-0.2,0.5-0.5S23.8,19,23.5,19h-5c1-2.4,3.3-4,6-4c3.6,0,6.5,2.9,6.5,6.5S28.1,28,24.5,28c-3,0-5.6-2-6.3-5
	c-0.1-0.3-0.3-0.4-0.6-0.4c-0.3,0.1-0.4,0.3-0.4,0.6C18,26.6,21,29,24.5,29c4.1,0,7.5-3.4,7.5-7.5S28.6,14,24.5,14z M41,7H7
	c-1.7,0-3,1.3-3,3v24c0,1.7,1.3,3,3,3h34c1.7,0,3-1.3,3-3V10C44,8.3,42.7,7,41,7z M42,34c0,0.6-0.4,1-1,1H7c-0.6,0-1-0.4-1-1V10
	c0-0.6,0.4-1,1-1h34c0.6,0,1,0.4,1,1V34z M39,41H9c-0.6,0-1,0.4-1,1s0.4,1,1,1h30c0.6,0,1-0.4,1-1S39.6,41,39,41z"/>
</svg>
