<svg id="图层_1" data-name="图层 1" xmlns="http://www.w3.org/2000/svg" viewBox="0 0 43 37"><defs><style>.cls-1{fill:#040000;}</style></defs><title>vqd</title><path class="cls-1" d="M36.5,24.63a9,9,0,1,0,9,9A9,9,0,0,0,36.5,24.63Zm0,16a7,7,0,1,1,7-7A7,7,0,0,1,36.5,40.63Zm-12-2H9.5v-31h28v13.5a.51.51,0,0,0,.5.5.5.5,0,0,0,.5-.5v-5.5h4v5a1,1,0,0,0,2,0v-11a4,4,0,0,0-4-4H6.5a4,4,0,0,0-4,4v27a4,4,0,0,0,4,4h18a1,1,0,0,0,0-2Zm14-31h2a2,2,0,0,1,2,2v5h-4Zm-30,31h-2a2,2,0,0,1-2-2v-5h4Zm0-8h-4v-7h4Zm0-8h-4v-7h4Zm0-8h-4v-5a2,2,0,0,1,2-2h2Zm14,3.27a2,2,0,0,0-1-.27,2,2,0,0,0-2,2v7a2.12,2.12,0,0,0,.27,1,2,2,0,0,0,2.73.71l6-3.5a2,2,0,0,0,0-3.45Zm5.87,5.73A1,1,0,0,1,28,24l-6,3.5a1,1,0,0,1-1.36-.36,1,1,0,0,1-.14-.5v-7a1,1,0,0,1,1.5-.86l6,3.5A1,1,0,0,1,28.37,23.63Zm12.84,9.11a.49.49,0,0,1,.23.42.5.5,0,0,1-.5.5.62.62,0,0,1-.51-.28L39,31,36.42,36.4a.6.6,0,0,1-.8.29.64.64,0,0,1-.26-.23L33.61,33.6H31.45a.49.49,0,0,1-.5-.49.51.51,0,0,1,.49-.51l2.39,0a.6.6,0,0,1,.51.29l1.49,2.42,2.53-5.4a.61.61,0,0,1,.23-.25.59.59,0,0,1,.82.19Z" transform="translate(-2.5 -5.63)"/></svg>