<?xml version="1.0" encoding="utf-8"?>
<!-- Generator: Adobe Illustrator 21.0.0, SVG Export Plug-In . SVG Version: 6.00 Build 0)  -->
<svg version="1.1" id="图层_1" xmlns="http://www.w3.org/2000/svg" xmlns:xlink="http://www.w3.org/1999/xlink" x="0px" y="0px"
	 viewBox="0 0 48 48" enable-background="new 0 0 48 48" xml:space="preserve">
<path fill="#020202" d="M44,34c0,0.5522842-0.4477196,1-1,1H5c-0.5522852,0-1-0.4477158-1-1V8c0-0.5522804,0.4477148-1,1-1h38
	c0.5522804,0,1,0.4477196,1,1V34z M43,5H5C3.3431458,5,2,6.3431511,2,8v26c0,1.6568527,1.3431458,3,3,3h38
	c1.6568489,0,3-1.3431473,3-3V8C46,6.3431511,44.6568489,5,43,5z M40,41H8c-0.5522852,0-1,0.4477158-1,1s0.4477148,1,1,1h32
	c0.5522804,0,1-0.4477158,1-1S40.5522804,41,40,41z M24.2399998,28.8199997c-4.120039,0-7.460001-3.3399601-7.460001-7.4599991
	s3.339962-7.460001,7.460001-7.460001s7.460001,3.3399601,7.460001,7.460001
	c0.0026588,1.9793301-0.7824516,3.8783493-2.1820507,5.2779503C28.1183491,28.03755,26.2193298,28.8226604,24.2399998,28.8199997z
	 M30.3199997,26.8999996c3.0309906-3.3297195,2.8499908-8.4700203-0.4076996-11.5783005
	c-3.2576809-3.1082783-8.4008198-3.0479393-11.5846806,0.1359215S15.0834198,23.7846203,18.1917,27.0423012
	c3.1082802,3.2576885,8.2485809,3.4386902,11.5783005,0.4076996l2.4300003,2.4300003
	c0.0717087,0.0751991,0.1710892,0.1177483,0.2749977,0.1177483c0.1039124,0,0.2032928-0.0425491,0.2750015-0.1177483
	c0.0751991-0.0717125,0.1177521-0.1710911,0.1177521-0.2750015c0-0.1039085-0.0425529-0.203289-0.1177521-0.2749996
	L30.3199997,26.8999996z M27.3999996,21.6900005l-4.4799995,2.7799988
	c-0.0787106,0.0391312-0.1712303,0.0390205-0.2498493-0.0002899c-0.0786304-0.0393085-0.1342201-0.1132603-0.1501503-0.1997089v-5.5
	c0-0.1499996,0.1000004-0.2000008,0.1499996-0.2000008c0.0267391-0.0274601,0.0619793-0.0450802,0.1000004-0.0499992
	c0.0476189-0.0218296,0.1023788-0.0218296,0.1499996,0l4.5200005,2.7199993
	c0.0629501,0.0472107,0.1000004,0.1213093,0.1000004,0.2000008c0,0.0786896-0.0370502,0.1527901-0.1000004,0.1999989
	L27.3999996,21.6900005z M23.1499996,18.1100006c-0.2273998-0.1503315-0.5226002-0.1503315-0.75,0
	C22.1625309,18.2421799,22.0109901,18.4884396,22,18.7600002v5.5c0.0109901,0.2715607,0.1625309,0.5178204,0.3999996,0.6499996
	c0.1089401,0.0560608,0.22789,0.0900497,0.3500004,0.1000004c0.1381702-0.0095997,0.2735691-0.0434494,0.3999996-0.1000004l4.5-2.75
	c0.2178612-0.1445103,0.3488407-0.3885593,0.3488407-0.6499996s-0.1309795-0.5054893-0.3488407-0.6499996L23.1499996,18.1100006z"/>
</svg>
