<?xml version="1.0" encoding="utf-8"?>
<!-- Generator: Adobe Illustrator 21.0.0, SVG Export Plug-In . SVG Version: 6.00 Build 0)  -->
<svg version="1.1" id="图层_1" xmlns="http://www.w3.org/2000/svg" xmlns:xlink="http://www.w3.org/1999/xlink" x="0px" y="0px"
	 viewBox="0 0 48 48" enable-background="new 0 0 48 48" xml:space="preserve">
<path d="M16,40H8.2C7,40,6,38.9,6,37.6V8.1C6,6.9,7,6,8.2,6h29.5C39,6,40,6.9,40,8.1V16c0,0.6,0.4,1,1,1c0.6,0,1-0.4,1-1V8.1
	C42,5.8,40.1,4,37.8,4H8.2C5.9,4,4,5.8,4,8.1v29.5C4,40,5.9,42,8.2,42H16c0.6,0,1-0.4,1-1S16.6,40,16,40z M41,20c-1.7,0-3,1.3-3,3
	c0,1.3,0.8,2.4,2,2.8v11.8c0,1.3-1,2.4-2.2,2.4h-12c-0.4-1.2-1.5-2-2.8-2c-1.7,0-3,1.3-3,3s1.3,3,3,3c1.3,0,2.4-0.8,2.8-2h12
	c2.3,0,4.2-2,4.2-4.4V25.8c1.2-0.4,2-1.5,2-2.8C44,21.3,42.7,20,41,20z M23,43c-1.1,0-2-0.9-2-2c0-1.1,0.9-2,2-2s2,0.9,2,2
	C25,42.1,24.1,43,23,43z M41,25c-1.1,0-2-0.9-2-2c0-1.1,0.9-2,2-2s2,0.9,2,2C43,24.1,42.1,25,41,25z M31,15H15c-2.8,0-5,2.2-5,5
	s2.2,5,5,5h16c2.8,0,5-2.2,5-5S33.8,15,31,15z M31,24H15c-2.2,0-4-1.8-4-4s1.8-4,4-4h16c2.2,0,4,1.8,4,4S33.2,24,31,24z M11.5,30
	c-0.3,0-0.5,0.2-0.5,0.5s0.2,0.5,0.5,0.5h23c0.3,0,0.5-0.2,0.5-0.5S34.8,30,34.5,30H11.5z M31,18.5c-0.8,0-1.5,0.7-1.5,1.5
	s0.7,1.5,1.5,1.5s1.5-0.7,1.5-1.5S31.8,18.5,31,18.5z"/>
</svg>
