<?xml version="1.0" encoding="utf-8"?>
<!-- Generator: Adobe Illustrator 21.0.0, SVG Export Plug-In . SVG Version: 6.00 Build 0)  -->
<svg version="1.1" id="图层_1" xmlns="http://www.w3.org/2000/svg" xmlns:xlink="http://www.w3.org/1999/xlink" x="0px" y="0px"
	 viewBox="0 0 48 48" style="enable-background:new 0 0 48 48;" xml:space="preserve">
<style type="text/css">
	.st0{fill:#040000;}
</style>
<path class="st0" d="M41.9,10.5c-2.1-0.7-6.3-2.1-8.4-3.1c-4.2-2.1-5.8-3.5-7.4-4.7C25.5,2.2,24.8,2,24,2l0,0l0,0
	c-0.8,0-1.5,0.2-2.1,0.6c-1.6,1.2-3.2,2.6-7.4,4.7c-2.1,1-6.3,2.4-8.4,3.1c-1.4,0.5-2.2,1.7-2.1,3.1c0.4,4.6,1.5,13.5,4.2,19
	c3.2,6.3,11.1,11.2,14.2,13.1c0.5,0.3,1,0.4,1.6,0.4c0.6,0,1.1-0.1,1.6-0.4c3.1-1.9,11-6.8,14.2-13.1c2.7-5.5,3.8-14.4,4.2-18.8
	C44.1,12.2,43.2,10.9,41.9,10.5z M38,31.6c-2,4-6.5,8.1-13.4,12.3c-0.2,0-0.4,0.1-0.6,0.1s-0.4-0.1-0.5-0.2
	c-7-4.1-11.5-8.3-13.5-12.2C7.2,26,6.2,16.3,6,13.5c-0.1-0.7,0.6-1,0.8-1.1l0.8-0.3c2.3-0.8,5.9-2,7.9-3c3.8-1.9,5.6-3.3,7.1-4.4
	c0.2-0.2,0.4-0.3,0.6-0.5c0-0.1,0.3-0.2,0.7-0.2l0,0H24h0.1c0.4,0,0.7,0.1,0.8,0.2c0.2,0.2,0.4,0.3,0.6,0.5c1.4,1.1,3.2,2.5,7.1,4.4
	c2,1,5.5,2.2,7.9,3l0.8,0.3c0.2,0.1,0.8,0.3,0.8,1.1C41.8,16.3,40.8,26,38,31.6z M31.1,30.3l-1-1L29.4,30l1,1
	c-3.6,3.2-9.1,3.2-12.7,0l1-1L18,29.3l-1,1c-3.2-3.6-3.2-9.1,0-12.7l1,1l0.7-0.7l-1-1c3.6-3.2,9.1-3.2,12.7,0l-1.8,1.8
	c-2.7-2.4-6.8-2.2-9.4,0.3c-2.7,2.7-2.7,7.1,0,9.8c1.4,1.4,3.1,2,4.9,2s3.5-0.7,4.9-2c1.3-1.3,2-2.9,2-4.9h-1c0,2-0.6,3.1-1.7,4.2
	c-2.3,2.3-6.1,2.3-8.4,0s-2.3-6.1,0-8.4c2.2-2.2,5.7-2.3,8-0.3L26.3,21c-1.5-1.2-3.7-1.1-5,0.3c-1.5,1.5-1.5,3.9,0,5.4
	c0.7,0.7,1.7,1.1,2.7,1.1s2-0.4,2.7-1.1c0.7-0.7,1.1-1.7,1.1-2.7h-1c0,1-0.3,1.5-0.8,2c-1.1,1.1-2.9,1.1-4,0s-1.1-2.9,0-4
	c1-1,2.5-1.1,3.6-0.3l-1,1c-0.2-0.1-0.4-0.1-0.6-0.1c-0.8,0-1.5,0.7-1.5,1.5s0.7,1.5,1.5,1.5s1.5-0.7,1.5-1.5c0-0.2-0.1-0.4-0.1-0.6
	l8.1-8.1l-0.7-0.7l-1.7,1.7c-4-3.6-10.1-3.6-14.1,0l-1.7-1.7l-0.7,0.7l1.7,1.7c-3.6,4-3.6,10.1,0,14.1l-1.7,1.7l0.7,0.7l1.7-1.7
	c2,1.8,4.5,2.7,7.1,2.7s5.1-0.9,7.1-2.7l1.7,1.7l0.7-0.7l-1.7-1.7c1.8-1.9,2.7-4.1,2.7-7.1h-1C33.5,26,32.6,28.6,31.1,30.3z"/>
</svg>
