<svg id="图层_1" data-name="图层 1" xmlns="http://www.w3.org/2000/svg" viewBox="0 0 42.01 35.72"><title>welink</title><path id="形状" d="M43.66,25h0V7.38a2,2,0,0,0-1.88-2.11H5.56a2,2,0,0,0-2.1,1.89V30.78A2.15,2.15,0,0,0,5.54,33h17v6h-6.9a1.08,1.08,0,0,0-1,1,1,1,0,0,0,.88,1H31.46a1.08,1.08,0,0,0,1-1,.93.93,0,0,0-.87-1h-7V33h9.9v5.7a2.34,2.34,0,0,0,2.3,2.3h6.5a2.06,2.06,0,0,0,2.2-1.91,1.41,1.41,0,0,0,0-.29V27.08A2.14,2.14,0,0,0,43.66,25Zm-9.2,2.1v3.8H5.66c-.2.1-.2,0-.2-.2V7.38c0-.11,0-.11.1-.11h36a.09.09,0,0,1,.1.1V25h-4.8a2.24,2.24,0,0,0-2.39,2.09Zm9.9,11.6a1,1,0,0,1-.89,1.2H36.66a1.33,1.33,0,0,1-1.3-1.3v-1.7h9ZM41,38.17a.5.5,0,0,1,.5.5.5.5,0,0,1-.5.5H39a.51.51,0,0,1-.5-.5.5.5,0,0,1,.5-.5ZM43.16,26a1.22,1.22,0,0,1,1.3,1.1V36h-9v-8.9a1.27,1.27,0,0,1,1.4-1.1Z" transform="translate(-3.46 -5.27)"/></svg>