<svg id="图层_1" data-name="图层 1" xmlns="http://www.w3.org/2000/svg" viewBox="0 0 44 44"><title>wsa</title><path d="M24,8.34A15.59,15.59,0,1,0,39.59,23.93,15.58,15.58,0,0,0,24,8.34ZM34.18,33.09h-3.3a19.72,19.72,0,0,0,2.2-8.71h4.58A13.45,13.45,0,0,1,34.18,33.09ZM24.46,34h4.77a6.9,6.9,0,0,1-4.77,3Zm0-.92V24.38h7.7a18,18,0,0,1-2.29,8.71Zm0-9.62V14.76h5.41a18,18,0,0,1,2.29,8.62h-7.7Zm0-9.63v-3a7.26,7.26,0,0,1,4.86,3Zm2.11-3.39a13.75,13.75,0,0,1,6.78,3.48H30.42A9.16,9.16,0,0,0,26.57,10.45Zm-3,.37v3H18.87A6.88,6.88,0,0,1,23.54,10.82Zm-5.77,3H14.65a13.6,13.6,0,0,1,7.06-3.48A9.44,9.44,0,0,0,17.77,13.84Zm5.77.92v8.62h-7.6a17.27,17.27,0,0,1,2.29-8.62Zm0,9.62v8.71H18.23a17.89,17.89,0,0,1-2.29-8.71Zm0,9.63v3a6.88,6.88,0,0,1-4.67-3Zm-1.92,3.48a13.33,13.33,0,0,1-7-3.48h3.12A9.16,9.16,0,0,0,21.62,37.49ZM30.42,34h2.93a13.69,13.69,0,0,1-6.69,3.39A9.94,9.94,0,0,0,30.42,34Zm2.66-10.54a17.93,17.93,0,0,0-2.2-8.62h3.3a13.21,13.21,0,0,1,3.48,8.62ZM13.74,14.76h3.48A19.32,19.32,0,0,0,15,23.38H10.25A13.61,13.61,0,0,1,13.74,14.76Zm-3.49,9.62H15a19.4,19.4,0,0,0,2.2,8.71H13.74A13.94,13.94,0,0,1,10.25,24.38ZM46,23.93a2.29,2.29,0,1,0-4.58,0,2.3,2.3,0,0,0,2.11,2.29A19.68,19.68,0,0,1,26.2,43.54a2.23,2.23,0,0,0-2.2-2.2,2.3,2.3,0,0,0,0,4.59,2.21,2.21,0,0,0,2.11-1.47A20.78,20.78,0,0,0,44.54,26,2.2,2.2,0,0,0,46,23.93ZM24,45a1.38,1.38,0,1,1,1.38-1.38A1.41,1.41,0,0,1,24,45ZM6.59,23.93a2.31,2.31,0,0,0-2.11-2.3A19.76,19.76,0,0,1,21.71,4.31,2.38,2.38,0,0,0,24,6.51a2.26,2.26,0,0,0,2.29-2.29A2.26,2.26,0,0,0,24,1.93a2.22,2.22,0,0,0-2.11,1.46A20.69,20.69,0,0,0,3.56,21.82,2.17,2.17,0,0,0,2,23.93a2.27,2.27,0,0,0,2.29,2.29A2.27,2.27,0,0,0,6.59,23.93ZM24,2.84a1.41,1.41,0,0,1,1.38,1.38,1.38,1.38,0,0,1-2.75,0A1.41,1.41,0,0,1,24,2.84Zm8.71,3.39A11.62,11.62,0,0,1,35,7.61a.35.35,0,0,0,.28.09.47.47,0,0,0,.36-.18.44.44,0,0,0-.09-.64A12.6,12.6,0,0,0,33.17,5.5a.61.61,0,0,0-.64.18C32.44,5.78,32.53,6.05,32.71,6.23Zm-5-1.74a23.54,23.54,0,0,1,2.57.64h.18a.51.51,0,0,0,.46-.27.44.44,0,0,0-.28-.55,27.22,27.22,0,0,0-2.75-.73c-.27-.1-.46.09-.55.36A.4.4,0,0,0,27.67,4.49ZM43.44,20.81c0,.18.27.37.45.37H44a.4.4,0,0,0,.36-.55,26.68,26.68,0,0,0-.64-2.75.41.41,0,0,0-.55-.28.4.4,0,0,0-.27.55A13.35,13.35,0,0,1,43.44,20.81Zm-1.56-5.13a.5.5,0,0,0,.46.27h.18a.39.39,0,0,0,.18-.64,16.11,16.11,0,0,0-1.37-2.48.62.62,0,0,0-.64-.18.56.56,0,0,0-.19.64A12.68,12.68,0,0,1,41.88,15.68ZM39,11.09a.48.48,0,0,0,.36.19.33.33,0,0,0,.28-.1.57.57,0,0,0,.09-.64c-.64-.73-1.28-1.37-1.93-2a.43.43,0,0,0-.64,0,.45.45,0,0,0,0,.64C37.84,9.81,38.49,10.45,39,11.09ZM9,36.67a.54.54,0,0,0-.64-.09.54.54,0,0,0-.09.64c.64.73,1.28,1.37,1.92,2a.32.32,0,0,0,.28.1.7.7,0,0,0,.36-.19.43.43,0,0,0,0-.64A8.81,8.81,0,0,1,9,36.67ZM6.13,32.18A.44.44,0,0,0,5.49,32a.39.39,0,0,0-.19.64c.37.74.83,1.65,1.29,2.39A.68.68,0,0,0,7,35.2a.35.35,0,0,0,.28-.09.57.57,0,0,0,.18-.64A9.09,9.09,0,0,1,6.13,32.18Zm9.16,9.44A12.23,12.23,0,0,1,13,40.24a.46.46,0,0,0-.64.09.47.47,0,0,0,.09.65,12.63,12.63,0,0,0,2.39,1.37c.09,0,.09.09.18.09s.37-.09.37-.27C15.57,42.08,15.48,41.8,15.29,41.62ZM4.57,27A.4.4,0,0,0,4,26.68a.4.4,0,0,0-.37.55c.19.91.37,1.83.64,2.75a.63.63,0,0,0,.46.36h.09a.41.41,0,0,0,.28-.55A15.56,15.56,0,0,1,4.57,27ZM20.34,43.36a21,21,0,0,1-2.57-.64.44.44,0,0,0-.55.27c-.09.19.09.46.27.55.92.28,1.84.55,2.75.74h.1c.18,0,.36-.19.45-.37A.51.51,0,0,0,20.34,43.36Z" transform="translate(-2 -1.93)"/></svg>