<?xml version="1.0" encoding="utf-8"?>
<!-- Generator: Adobe Illustrator 21.0.0, SVG Export Plug-In . SVG Version: 6.00 Build 0)  -->
<svg version="1.1" id="图层_1" xmlns="http://www.w3.org/2000/svg" xmlns:xlink="http://www.w3.org/1999/xlink" x="0px" y="0px"
	 viewBox="0 0 48 48" style="enable-background:new 0 0 48 48;" xml:space="preserve">
<g id="背景">
</g>
<g id="参考线">
</g>
<g id="图标">
</g>
<g id="图层_4">
</g>
<g id="图层_5">
	<g>
		<path d="M24,2C11.9,2,2,11.9,2,24s9.9,22,22,22s22-9.9,22-22S36.1,2,24,2z M24,44C13,44,4,35,4,24S13,4,24,4s20,9,20,20
			S35,44,24,44z"/>
		<path d="M35.3,11.5c-1.1,0-2.6,0.4-4.1,0.9c-2.1,0.6-4.5,1.2-7.1,1.2s-5-0.7-7.1-1.2c-1.6-0.5-3-0.9-4.1-0.9
			c-2.2,0-3.3,1.4-3.3,4.6c0,14.3,10.8,23.5,14.5,23.5c3.6,0,14.5-8.3,14.5-23.5C38.5,12.9,37.5,11.5,35.3,11.5z M24,38.5
			c-3.3,0-13.5-9.1-13.5-22.5c0-3.3,1.1-3.5,2.2-3.5s2.4,0.4,3.9,0.8c2.2,0.6,4.7,1.2,7.4,1.2s5.2-0.7,7.4-1.2
			c1.5-0.4,2.9-0.8,3.9-0.8c1.1,0,2.2,0.3,2.2,3.5C37.5,30.3,27.3,38.5,24,38.5z"/>
		<path d="M19.1,19.3c-1.8-0.9-3.7-1.1-5.1-1.1c-0.7,0-1.1,0.1-1.1,0.1l-0.6,0.1l0.2,0.6c0.1,0.2,1.3,3.6,4.1,5.1
			c1,0.5,1.9,0.8,3,0.8c1.4,0,2.5-0.5,2.6-0.5l0.4-0.2l-0.1-0.4C22.5,23.6,22,20.8,19.1,19.3z M19.7,23.7c-0.9,0-1.7-0.2-2.6-0.7
			c-1.8-1-3-2.9-3.4-3.9c1.1,0,3.2,0.1,4.9,1c1.8,1,2.6,2.5,2.8,3.3C21,23.6,20.5,23.7,19.7,23.7z"/>
		<path d="M33.9,18.3c-1.3,0-3.3,0.2-5.1,1.1c-2.9,1.5-3.3,4.2-3.4,4.4l-0.1,0.4l0.4,0.2c0,0,1.1,0.5,2.6,0.5c1.1,0,2.1-0.3,3-0.8
			c2.9-1.4,4.1-4.9,4.1-5.1l0.2-0.6l-0.5-0.2C35,18.3,34.6,18.3,33.9,18.3z M30.9,23.1c-0.8,0.4-1.6,0.7-2.6,0.7
			c-0.8,0-1.3-0.2-1.7-0.3c0.2-0.8,1-2.3,2.8-3.3c1.7-0.9,3.7-1.1,4.9-1C33.8,20.3,32.7,22.2,30.9,23.1z"/>
	</g>
</g>
</svg>
