<?xml version="1.0" encoding="utf-8"?>
<!-- Generator: Adobe Illustrator 21.0.0, SVG Export Plug-In . SVG Version: 6.00 Build 0)  -->
<svg version="1.1" id="图层_1" xmlns="http://www.w3.org/2000/svg" xmlns:xlink="http://www.w3.org/1999/xlink" x="0px" y="0px"
	 viewBox="0 0 48 48" style="enable-background:new 0 0 48 48;" xml:space="preserve">
<path d="M24,2C11.9,2,2,11.9,2,24s9.9,22,22,22s22-9.9,22-22S36.1,2,24,2z M24,44C13,44,4,35,4,24S13,4,24,4s20,9,20,20S35,44,24,44
	z M24,27.2c-1.5,0-2.8,1.2-2.8,2.8s1.2,2.8,2.8,2.8s2.8-1.2,2.8-2.8S25.5,27.2,24,27.2z M24,31.7c-1,0-1.7-0.8-1.7-1.7
	s0.8-1.7,1.7-1.7s1.7,0.8,1.7,1.7S25,31.7,24,31.7z M30.5,9.4h-2.1h-0.7h-0.3l-2.3,4l1.4,3.9l-4.4,7.1l1.4-7l-3-4.6l1.4-3.4h-0.3
	h-0.3h-3.9c-2.1,0-3.9,1.7-3.9,3.9v21.4c0,2.1,1.7,3.9,3.9,3.9h13c2.1,0,3.9-1.7,3.9-3.9V13.3C34.4,11.2,32.7,9.4,30.5,9.4z
	 M25.8,19.8h3.7c0.6,0,1,0.5,1,1c0,0.5-0.5,1-1,1h-5L25.8,19.8z M22.2,21.8h-3.7c-0.6,0-1-0.5-1-1c0-0.5,0.5-1,1-1h4L22.2,21.8z
	 M22.8,17.2h-4.3c-0.6,0-1-0.5-1-1c0-0.6,0.5-1,1-1h3.1L22.8,17.2z M33.1,34.7L33.1,34.7c0,1.4-1.1,2.6-2.6,2.6h-13
	c-1.4,0-2.6-1.1-2.6-2.6V13.3c0-1.4,1.1-2.9,2.6-2.9H21l-1,2.6l1,1.5h-2.6c-0.9,0-1.6,0.8-1.6,1.6c0,0.9,0.8,1.6,1.6,1.6h4.4
	l-0.3,1.4h-4.1c-0.9,0-1.6,0.8-1.6,1.6s0.8,1.6,1.6,1.6H22l-0.8,4.6l3-4.6h5.4c0.9,0,1.6-0.8,1.6-1.6s-0.8-1.6-1.6-1.6h-3.3l0.9-1.3
	h2.4c0.9,0,1.6-0.8,1.6-1.6s-0.8-1.6-1.6-1.6h-3.2l-0.5-1.3l1.8-2.9h2.8c1.4,0,2.6,1.4,2.6,2.9V34.7z M26.6,15.3h3c0.6,0,1,0.5,1,1
	c0,0.6-0.5,1-1,1h-2.2L26.6,15.3z"/>
</svg>
