<?xml version="1.0" encoding="utf-8"?>
<!-- Generator: Adobe Illustrator 21.0.0, SVG Export Plug-In . SVG Version: 6.00 Build 0)  -->
<svg version="1.1" id="图层_1" xmlns="http://www.w3.org/2000/svg" xmlns:xlink="http://www.w3.org/1999/xlink" x="0px" y="0px"
	 viewBox="0 0 48 48" style="enable-background:new 0 0 48 48;" xml:space="preserve">
<path d="M32.2,9.3H23c-0.8,0-1.6,0.5-1.8,1.2l-5.4,13.6c-0.2,0.4-0.1,0.8,0.1,1.1c0.2,0.3,0.6,0.5,1,0.5H21c0.1,0,0.2,0,0.2,0.1
	c0,0,0,0.1,0,0.2L17,37.1c-0.1,0.3-0.2,0.6,0,0.9l0.2,0.2h0.3c0.3,0,0.5-0.2,0.7-0.5l13.6-16.4c0.4-0.5,0.3-0.9,0.2-1.1
	c-0.1-0.2-0.3-0.5-1-0.5h-4.2l0,0l0,0l6.3-8.9c0.3-0.4,0.3-0.8,0.1-1.1C33,9.5,32.6,9.3,32.2,9.3z M32.2,10.3l-6.3,8.9
	c-0.3,0.4-0.3,0.8-0.1,1.1c0.2,0.3,0.5,0.5,1,0.5h4.1L18.6,35.6l3.5-9.2c0.2-0.4,0.1-0.8-0.1-1.1c-0.2-0.3-0.6-0.5-1-0.5h-4.2
	c-0.1,0-0.2,0-0.2-0.1c0,0,0-0.1,0-0.2L22,10.9c0.1-0.3,0.6-0.6,0.9-0.6L32.2,10.3L32.2,10.3L32.2,10.3z M24,2C11.9,2,2,11.9,2,24
	s9.9,22,22,22s22-9.9,22-22S36.1,2,24,2z M24,44C13,44,4,35,4,24S13,4,24,4s20,9,20,20S35,44,24,44z"/>
</svg>
