<?xml version="1.0" encoding="utf-8"?>
<!-- Generator: Adobe Illustrator 21.0.0, SVG Export Plug-In . SVG Version: 6.00 Build 0)  -->
<svg version="1.1" id="图层_1" xmlns="http://www.w3.org/2000/svg" xmlns:xlink="http://www.w3.org/1999/xlink" x="0px" y="0px"
	 viewBox="0 0 48 48" style="enable-background:new 0 0 48 48;" xml:space="preserve">
<title>画板 1</title>
<path d="M46.5,7.7c0-0.2,0-0.4,0-0.5l0-0.1l0,0C45.8,4.2,40.6,2,24,2C12.1,2,2.4,3,1.6,7l0,0l0,0.1c0,0.2-0.1,0.3-0.1,0.5
	c0,0.5,0.2,1,0.5,1.4l6.9,31.7c0.5,3.4,3.2,6,6.7,6.2l16.8,0c3.4-0.3,6.2-2.9,6.7-6.2L46,9.2C46.3,8.7,46.5,8.2,46.5,7.7z M24,4.3
	c20.1,0,20.2,3.3,20.2,3.4c0,0-0.6,3.3-20.2,3.3C4.9,11,3.8,7.7,3.8,7.7C3.8,7.6,4.3,4.3,24,4.3z M37.1,40.5
	c-0.3,2.4-2.4,4.4-4.8,4.5l-16.7,0c-2.5-0.2-4.5-2-4.9-4.6L4.4,10.9c3.2,1.5,9.4,2.4,19.6,2.4c10.4,0,16.4-0.9,19.6-2.3L37.1,40.5z"
	/>
</svg>
