<?xml version="1.0" encoding="utf-8"?>
<!-- Generator: Adobe Illustrator 21.0.0, SVG Export Plug-In . SVG Version: 6.00 Build 0)  -->
<svg version="1.1" id="图层_1" xmlns="http://www.w3.org/2000/svg" xmlns:xlink="http://www.w3.org/1999/xlink" x="0px" y="0px"
	 viewBox="0 0 48 48" style="enable-background:new 0 0 48 48;" xml:space="preserve">
<style type="text/css">
	.st0{fill:#040000;}
</style>
<path class="st0" d="M33.9,16.2L26.1,12c-1.2-0.7-3-0.7-4.2,0l-5,2.8c-0.2,0.1-0.3,0.4-0.2,0.7c0.1,0.2,0.4,0.3,0.7,0.2l5-2.8
	c0.9-0.5,2.4-0.5,3.3,0l7.8,4.3c0.9,0.5,1.6,1.7,1.6,2.6v8.5c0,1-0.7,2.1-1.6,2.6l-7.8,4.2c-0.9,0.5-2.4,0.5-3.3,0l-7.8-4.2
	c-0.9-0.5-1.6-1.7-1.6-2.6v-6.7l2.3,2.3c0.2,0.2,0.5,0.2,0.7,0s0.2-0.5,0-0.7L12.9,20l0,0l0,0l0,0c-0.2-0.2-0.5-0.2-0.7,0l0,0
	L9,23.1c-0.2,0.2-0.2,0.5,0,0.7s0.5,0.2,0.7,0l2.3-2.2v6.7c0,1.3,0.9,2.8,2.1,3.5l7.8,4.2c0.6,0.3,1.3,0.5,2.1,0.5s1.5-0.2,2.1-0.5
	l7.8-4.2c1.2-0.7,2.1-2.2,2.1-3.5v-8.5C36,18.4,35.1,16.9,33.9,16.2z M24,2C11.8,2,2,11.8,2,24s9.8,22,22,22s22-9.8,22-22
	S36.2,2,24,2z M24,44C13,44,4,35,4,24S13,4,24,4s20,9,20,20S35,44,24,44z"/>
</svg>
