<?xml version="1.0" encoding="utf-8"?>
<!-- Generator: Adobe Illustrator 21.0.0, SVG Export Plug-In . SVG Version: 6.00 Build 0)  -->
<svg version="1.1" id="图层_1" xmlns="http://www.w3.org/2000/svg" xmlns:xlink="http://www.w3.org/1999/xlink" x="0px" y="0px"
	 viewBox="0 0 48 48" style="enable-background:new 0 0 48 48;" xml:space="preserve">
<style type="text/css">
	.st0{fill:#070001;}
</style>
<path class="st0" d="M24,2C11.8,2,2,11.8,2,24s9.8,22,22,22s22-9.8,22-22S36.2,2,24,2z M24,44C13,44,4,35,4,24S13,4,24,4s20,9,20,20
	S35,44,24,44z M34.9,15.8l-9.7-5.3c-0.6-0.3-1.6-0.3-2.2,0l-9.7,5.3C12.5,16.1,12,17,12,17.7v12.6c0,0.7,0.5,1.6,1.1,1.9l9.7,5.3
	c0.3,0.2,0.7,0.3,1.1,0.3s0.8-0.1,1.1-0.3l9.7-5.3c0.6-0.3,1.1-1.2,1.1-1.9V17.7C36,17,35.5,16.1,34.9,15.8z M35,30.3
	c0,0.4-0.3,0.9-0.6,1l-9.7,5.3c-0.3,0.2-0.9,0.2-1.3,0l-9.7-5.3c-0.3-0.2-0.6-0.7-0.6-1v-2.9l0.1,0.1l9.7,5.3
	c0.3,0.2,0.7,0.3,1.1,0.3s0.8-0.1,1.1-0.3l9.7-5.3c0.1,0,0.1-0.1,0.1-0.1L35,30.3L35,30.3z M35,25.6c0,0.4-0.3,0.9-0.6,1l-9.7,5.3
	c-0.3,0.2-0.9,0.2-1.3,0l-9.7-5.3c-0.3-0.2-0.6-0.7-0.6-1v-7.9c0-0.4,0.3-0.9,0.6-1l9.7-5.3c0.3-0.2,0.9-0.2,1.3,0l9.7,5.3
	c0.3,0.2,0.6,0.7,0.6,1V25.6z"/>
</svg>
