<?xml version="1.0" encoding="utf-8"?>
<!-- Generator: Adobe Illustrator 21.0.0, SVG Export Plug-In . SVG Version: 6.00 Build 0)  -->
<svg version="1.1" id="图层_1" xmlns="http://www.w3.org/2000/svg" xmlns:xlink="http://www.w3.org/1999/xlink" x="0px" y="0px"
	 viewBox="0 0 48 48" style="enable-background:new 0 0 48 48;" xml:space="preserve">
<style type="text/css">
	.st0{fill:#040000;}
</style>
<path class="st0" d="M16,21c0.6,0,1-0.4,1-1s-0.4-1-1-1s-1,0.4-1,1S15.4,21,16,21z M16,16c0.6,0,1-0.4,1-1s-0.4-1-1-1s-1,0.4-1,1
	S15.4,16,16,16z M16,24c-0.6,0-1,0.4-1,1s0.4,1,1,1s1-0.4,1-1S16.6,24,16,24z M24,2C11.8,2,2,11.8,2,24s9.8,22,22,22s22-9.8,22-22
	S36.2,2,24,2z M24,44C13,44,4,35,4,24S13,4,24,4s20,9,20,20S35,44,24,44z M37,33H26.8c-0.3-0.8-1-1.5-1.8-1.8V28h8c1.7,0,3-1.3,3-3
	c0-1-0.5-2-1.3-2.5C35.5,22,36,21,36,20s-0.5-2-1.3-2.5C35.5,17,36,16,36,15c0-1.7-1.3-3-3-3H15c-1.7,0-3,1.3-3,3c0,1,0.5,2,1.3,2.5
	C12.5,18,12,19,12,20s0.5,2,1.3,2.5C12.5,23,12,24,12,25c0,1.7,1.3,3,3,3h8v3.2c-0.8,0.3-1.5,1-1.8,1.8H11c-0.6,0-1,0.4-1,1
	s0.4,1,1,1h10.2c0.4,1.2,1.5,2,2.8,2s2.4-0.8,2.8-2H37c0.6,0,1-0.4,1-1S37.6,33,37,33z M13,15c0-1.1,0.9-2,2-2h18c1.1,0,2,0.9,2,2
	s-0.9,2-2,2H15C13.9,17,13,16.1,13,15z M13,20c0-1.1,0.9-2,2-2h18c1.1,0,2,0.9,2,2s-0.9,2-2,2H15C13.9,22,13,21.1,13,20z M15,27
	c-1.1,0-2-0.9-2-2s0.9-2,2-2h18c1.1,0,2,0.9,2,2s-0.9,2-2,2H15z M24,36c-1.1,0-2-0.9-2-2s0.9-2,2-2s2,0.9,2,2S25.1,36,24,36z"/>
</svg>
