<?xml version="1.0" encoding="utf-8"?>
<!-- Generator: Adobe Illustrator 21.0.0, SVG Export Plug-In . SVG Version: 6.00 Build 0)  -->
<svg version="1.1" id="图层_1" xmlns="http://www.w3.org/2000/svg" xmlns:xlink="http://www.w3.org/1999/xlink" x="0px" y="0px"
	 viewBox="0 0 48 48" style="enable-background:new 0 0 48 48;" xml:space="preserve">
<path d="M24,1C11.9,1,2,11.3,2,24s9.9,23,22,23s22-10.3,22-23S36.1,1,24,1z M24,45C12.9,45,3.9,35.6,3.9,24S12.9,3,24,3
	s20.1,9.4,20.1,21S35.1,45,24,45z M32.2,24c0.3,0,0.5-0.2,0.5-0.5S32.5,23,32.2,23h-7.8l7.2-10.7c0.2-0.2,0.1-0.5-0.1-0.7
	s-0.5-0.1-0.7,0.1l-7.3,10.8l-7.3-10.8c-0.2-0.2-0.5-0.3-0.7-0.1s-0.3,0.5-0.1,0.7L22.7,23h-7.8c-0.3,0-0.5,0.2-0.5,0.5
	s0.2,0.5,0.5,0.5H23v4h-8.2c-0.3,0-0.5,0.2-0.5,0.5s0.2,0.5,0.5,0.5H23v8.5c0,0.3,0.2,0.5,0.5,0.5s0.5-0.2,0.5-0.5V29h8.2
	c0.3,0,0.5-0.2,0.5-0.5S32.5,28,32.2,28H24v-4H32.2z"/>
</svg>
