<?xml version="1.0" encoding="utf-8"?>
<!-- Generator: Adobe Illustrator 19.0.0, SVG Export Plug-In . SVG Version: 6.00 Build 0)  -->
<svg version="1.1" id="Layer_1" xmlns="http://www.w3.org/2000/svg" xmlns:xlink="http://www.w3.org/1999/xlink" x="0px" y="0px"
	 viewBox="0 0 48 48" style="enable-background:new 0 0 48 48;" xml:space="preserve">
<path id="XMLID_11_" d="M44,10c0-3.1-2.8-5.9-7.3-7.7c-0.1,0-0.1,0-0.2-0.1c-0.4-0.2-0.9-0.4-1.4-0.5c-0.1,0-0.2,0-0.2-0.1
	c-0.5-0.2-0.9-0.3-1.4-0.4c-0.1,0-0.2-0.1-0.3-0.1c-0.5-0.1-0.9-0.2-1.4-0.3c-0.2,0-0.4-0.1-0.6-0.1c-0.4-0.1-0.8-0.2-1.2-0.2
	c-0.4-0.1-0.8-0.1-1.2-0.2c-0.2,0-0.5-0.1-0.7-0.1c-0.5-0.1-1.1-0.1-1.6-0.1c-0.1,0-0.2,0-0.3,0C25.4,0,24.7,0,24,0C13,0,4,4.5,4,10
	c0,0,0,0,0,0V38c0,0,0,0,0,0c0,5.5,9,10,20,10s20-4.5,20-10L44,10L44,10z M6.1,9.6c0-0.1,0-0.2,0-0.3c0-0.1,0.1-0.3,0.1-0.4
	c0-0.1,0.1-0.2,0.1-0.3c0.1-0.1,0.2-0.3,0.2-0.4C6.7,8,6.7,7.9,6.8,7.8C6.9,7.7,7,7.6,7.1,7.4c0.1-0.1,0.2-0.2,0.2-0.3
	C7.5,7,7.6,6.9,7.8,6.7C7.9,6.6,8,6.5,8.1,6.4C8.2,6.3,8.4,6.2,8.6,6C8.7,6,8.8,5.9,8.9,5.8c0.2-0.1,0.4-0.3,0.6-0.4
	c0.1-0.1,0.3-0.2,0.4-0.2c0.2-0.1,0.5-0.2,0.7-0.4c0.1-0.1,0.3-0.2,0.4-0.2c0.3-0.1,0.5-0.2,0.8-0.3C12,4.2,12.1,4.1,12.3,4
	c0.3-0.1,0.6-0.2,0.9-0.3c0.2-0.1,0.3-0.1,0.5-0.2c0.3-0.1,0.7-0.2,1-0.3c0.2,0,0.3-0.1,0.5-0.1c0.4-0.1,0.7-0.2,1.1-0.3
	c0.2,0,0.3-0.1,0.5-0.1c0.4-0.1,0.8-0.2,1.3-0.2c0.1,0,0.3-0.1,0.4-0.1c0.5-0.1,1-0.1,1.5-0.2c0.1,0,0.2,0,0.3,0
	C21.4,2.1,22.7,2,24,2c2.7,0,5.1,0.3,7.3,0.7c0.1,0,0.2,0,0.2,0.1C32,2.9,32.4,3,32.9,3.1c1.9,0.5,3.6,1.2,4.9,1.9
	c0.1,0.1,0.2,0.1,0.3,0.2c0.2,0.1,0.3,0.2,0.5,0.3c0.2,0.1,0.4,0.2,0.5,0.3c0.1,0.1,0.1,0.1,0.2,0.2c0.2,0.2,0.5,0.3,0.7,0.5
	c0,0,0,0,0,0c1.3,1.1,2,2.3,2,3.5c0,3.8-7.4,8-18,8c-10.6,0-18-4.2-18-8v0l0,0C6,9.8,6,9.7,6.1,9.6z M42,38c0,3.8-7.4,8-18,8
	c-10.5,0-17.8-4.1-18-7.9l0,0v-5.4c2.9,3.6,9.9,6.2,18,6.2c8.1,0,15.1-2.6,18-6.2V38z M42,31c-1.9,4-9.3,6.9-18,6.9
	c-8.7,0-16-3-18-6.9L6,23c2.9,3.6,9.9,6.2,18,6.2c8.1,0,15.1-2.6,18-6.2V31z M42,21.3c-1.9,4-9.3,6.9-18,6.9c-8.7,0-16-3-18-6.9v-7
	C9.2,17.7,16.1,20,24,20c7.9,0,14.8-2.3,18-5.7V21.3z"/>
</svg>
