<?xml version="1.0" encoding="utf-8"?>
<!-- Generator: Adobe Illustrator 21.0.0, SVG Export Plug-In . SVG Version: 6.00 Build 0)  -->
<svg version="1.1" id="图层_1" xmlns="http://www.w3.org/2000/svg" xmlns:xlink="http://www.w3.org/1999/xlink" x="0px" y="0px"
	 viewBox="0 0 48 48" style="enable-background:new 0 0 48 48;" xml:space="preserve">
<style type="text/css">
	.st0{fill:#060001;}
</style>
<path class="st0" d="M41.4,5.8c0-0.6-0.5-1.1-1.1-1.1s-1.2,0.5-1.2,1.1s0.5,1.2,1.2,1.2S41.4,6.4,41.4,5.8z M10.3,10.6
	c-1,0-1.8,0.8-1.8,1.8c0,1,0.8,1.8,1.8,1.8c1,0,1.8-0.8,1.8-1.8C12.1,11.4,11.3,10.6,10.3,10.6z M28,10.6c-1,0-1.8,0.8-1.8,1.8
	c0,1,0.8,1.8,1.8,1.8c1,0,1.8-0.8,1.8-1.8C29.7,11.4,28.9,10.6,28,10.6z M29,5.2C29,5.2,29,5.2,29,5.2l-19.8,0
	c-3.2-0.1-5.9,2.5-6,5.7v30.4c0.1,3.2,2.8,5.8,6,5.7H29c3.2,0,5.8-2.5,5.9-5.7V10.9C34.9,7.7,32.2,5.1,29,5.2z M32.7,41.2
	c-0.1,1.9-1.7,3.4-3.7,3.3H9.2c-1.9,0.1-3.6-1.4-3.7-3.4V10.9C5.6,9,7.3,7.5,9.2,7.6H29c1.9-0.1,3.6,1.4,3.7,3.3V41.2z M39.9,1H21.4
	c-1.3-0.1-2.6,0.5-3.5,1.5c-0.1,0.3,0,0.6,0.2,0.8c0.3,0.1,0.6,0,0.8-0.2c0.7-0.6,1.5-0.9,2.4-0.8h18.3c2.7,0,4,1.4,4,4.2v31.4
	c0,2.7-1,3.8-4,3.8h-2.3c-0.3,0-0.7,0.2-0.7,0.5c0,0.3,0.2,0.7,0.5,0.7c0.1,0,0.1,0,0.2,0h2.3c3.7,0,5.1-1.5,5.1-4.9V6.6
	C45,2.9,43.2,1,39.9,1z"/>
</svg>
