<?xml version="1.0" encoding="utf-8"?>
<!-- Generator: Adobe Illustrator 21.0.0, SVG Export Plug-In . SVG Version: 6.00 Build 0)  -->
<svg version="1.1" id="图层_1" xmlns="http://www.w3.org/2000/svg" xmlns:xlink="http://www.w3.org/1999/xlink" x="0px" y="0px"
	 viewBox="0 0 48 48" style="enable-background:new 0 0 48 48;" xml:space="preserve">
<style type="text/css">
	.st0{fill:#040000;}
</style>
<g>
	<path class="st0" d="M34,11.6H21.6c-1.3,0-2.4,1.1-2.4,2.4v8.1h-5.3c-1.3,0-2.4,1.1-2.4,2.4V34c0,1.3,1.1,2.4,2.4,2.4h9.6
		c1.3,0,2.4-1.1,2.4-2.4v-5.3H34c1.3,0,2.4-1.1,2.4-2.4V14C36.4,12.6,35.4,11.6,34,11.6z M25,34c0,0.8-0.6,1.4-1.4,1.4h-9.6
		c-0.8,0-1.4-0.6-1.4-1.4v-9.6c0-0.8,0.6-1.4,1.4-1.4h5.3v3.3c0,1.3,1.1,2.4,2.4,2.4H25V34z M25,27.8h-3.4c-0.8,0-1.4-0.6-1.4-1.4
		V23h3.3c0.8,0,1.4,0.6,1.4,1.4V27.8z M35.5,26.4c0,0.8-0.6,1.4-1.4,1.4h-8.1v-3.3c0-1.3-1.1-2.4-2.4-2.4h-3.3V14
		c0-0.8,0.6-1.4,1.4-1.4H34c0.8,0,1.4,0.6,1.4,1.4V26.4z"/>
	<path class="st0" d="M24,2C11.9,2,2,11.9,2,24s9.9,22,22,22s22-9.9,22-22S36.1,2,24,2z M24,44.1c-11.1,0-20.1-9-20.1-20.1
		S12.9,3.9,24,3.9s20.1,9,20.1,20.1S35.1,44.1,24,44.1z"/>
</g>
</svg>
