<?xml version="1.0" encoding="utf-8"?>
<!-- Generator: Adobe Illustrator 21.0.0, SVG Export Plug-In . SVG Version: 6.00 Build 0)  -->
<svg version="1.1" id="图层_1" xmlns="http://www.w3.org/2000/svg" xmlns:xlink="http://www.w3.org/1999/xlink" x="0px" y="0px"
	 viewBox="0 0 48 48" style="enable-background:new 0 0 48 48;" xml:space="preserve">
<style type="text/css">
	.st0{fill:#040000;}
</style>
<path class="st0" d="M24,2C11.8,2,2,11.8,2,24s9.8,22,22,22s22-9.8,22-22S36.2,2,24,2z M18.2,4.9C20,4.3,22,4,24,4
	c8,0,15,4.8,18.1,11.6H18.2V4.9z M17.2,5.2v10.4H5.9C8.1,10.8,12.2,7,17.2,5.2z M4,24c0-2.6,0.5-5.1,1.4-7.4h29.1v14.7H5.4
	C4.5,29.1,4,26.6,4,24z M17.2,42.8c-5-1.8-9.1-5.6-11.4-10.4h11.4V42.8z M24,44c-2,0-4-0.3-5.8-0.9V32.4h23.9C39,39.2,32,44,24,44z
	 M35.5,31.4V16.6h7.1c0.9,2.3,1.4,4.8,1.4,7.4s-0.5,5.1-1.4,7.4H35.5z"/>
</svg>
