<?xml version="1.0" encoding="utf-8"?>
<!-- Generator: Adobe Illustrator 21.0.0, SVG Export Plug-In . SVG Version: 6.00 Build 0)  -->
<svg version="1.1" id="图层_1" xmlns="http://www.w3.org/2000/svg" xmlns:xlink="http://www.w3.org/1999/xlink" x="0px" y="0px"
	 viewBox="0 0 48 48" style="enable-background:new 0 0 48 48;" xml:space="preserve">
<style type="text/css">
	.st0{fill:#060001;}
	.st1{fill:#040000;}
	.st2{fill:#080102;}
	.st3{fill:#070102;}
	.st4{fill:#160F10;}
</style>
<path class="st0" d="M24,34c0.3-1,0.5-2,0.5-3c0-5.2-4.3-9.5-9.5-9.5c-0.3,0-0.5,0-0.8,0c-0.6-1.8-2.3-3-4.2-3c-2.5,0-4.5,2-4.5,4.5
	s2,4.5,4.5,4.5s4.5-2,4.5-4.5c0-0.2,0-0.3,0-0.5c0.2,0,0.4,0,0.5,0c4.7,0,8.5,3.8,8.5,8.5c0,0.9-0.1,1.8-0.4,2.6
	c-0.3-0.1-0.7-0.1-1.1-0.1c-2.5,0-4.5,2-4.5,4.5s2,4.5,4.5,4.5s4.5-2,4.5-4.5C26.5,36.2,25.5,34.7,24,34z M10,25.5
	c-1.4,0-2.5-1.1-2.5-2.5s1.1-2.5,2.5-2.5s2.5,1.1,2.5,2.5S11.4,25.5,10,25.5z M22,40.5c-1.4,0-2.5-1.1-2.5-2.5s1.1-2.5,2.5-2.5
	s2.5,1.1,2.5,2.5S23.4,40.5,22,40.5z M42.2,21.3c-0.8-0.8-2-1.3-3.2-1.3h0c-1.2,0-2.3,0.5-3.2,1.3c-0.8,0.9-1.3,2-1.3,3.2
	c0,0.2,0,0.3,0,0.5c-0.2,0-0.4,0-0.5,0h0c-2.3,0-4.4-0.9-6-2.5c-1.6-1.6-2.5-3.7-2.5-6c0-0.9,0.1-1.8,0.4-2.6C26.3,14,26.6,14,27,14
	h0c1.2,0,2.3-0.5,3.2-1.3c0.8-0.9,1.3-2,1.3-3.2S31,7.2,30.2,6.3C29.3,5.5,28.2,5,27,5h0c-1.2,0-2.3,0.5-3.2,1.3
	c-0.8,0.9-1.3,2-1.3,3.2c0,1.8,1,3.3,2.5,4c-0.3,1-0.5,2-0.5,3c0,2.5,1,4.9,2.8,6.7C29.1,25,31.5,26,34,26c0.3,0,0.5,0,0.8,0
	c0.2,0.6,0.6,1.2,1.1,1.7c0.8,0.8,2,1.3,3.2,1.3h0c1.2,0,2.3-0.5,3.2-1.3s1.3-2,1.3-3.2S43,22.1,42.2,21.3z M24.5,9.5
	c0-0.7,0.3-1.3,0.7-1.8C25.7,7.3,26.3,7,27,7h0c0.7,0,1.3,0.3,1.8,0.7c0.5,0.5,0.7,1.1,0.7,1.8c0,1.4-1.1,2.5-2.5,2.5h0
	C25.6,12,24.5,10.9,24.5,9.5z M40.8,26.3C40.3,26.7,39.7,27,39,27h0c-0.7,0-1.3-0.3-1.8-0.7c-0.5-0.5-0.7-1.1-0.7-1.8
	c0-1.4,1.1-2.5,2.5-2.5h0c0.7,0,1.3,0.3,1.8,0.7c0.5,0.5,0.7,1.1,0.7,1.8S41.3,25.8,40.8,26.3z"/>
</svg>
