<?xml version="1.0" encoding="utf-8"?>
<!-- Generator: Adobe Illustrator 21.0.0, SVG Export Plug-In . SVG Version: 6.00 Build 0)  -->
<svg version="1.1" id="图层_1" xmlns="http://www.w3.org/2000/svg" xmlns:xlink="http://www.w3.org/1999/xlink" x="0px" y="0px"
	 viewBox="0 0 48 48" style="enable-background:new 0 0 48 48;" xml:space="preserve">
<style type="text/css">
	.st0{fill:#040000;}
</style>
<path class="st0" d="M35.3,29.1l-2.8,2.8l-2.1-2.1l2.8-2.8l-0.7-0.7l-2.8,2.8l-5.3-5.3c2.9-2.9,2.9-7.7,0-10.6
	C22.9,11.8,21,11,19,11s-3.9,0.8-5.3,2.2s-2.2,3.3-2.2,5.3s0.8,3.9,2.2,5.3C15.1,25.2,17,26,19,26c1.7,0,3.2-0.5,4.5-1.5l5.4,5.4
	l0,0l0.7,0.7l0,0l5.7,5.7l0.7-0.7l-2.8-2.8L36,30L35.3,29.1z M19,25c-1.7,0-3.4-0.7-4.6-1.9c-1.2-1.2-1.9-2.9-1.9-4.6
	s0.7-3.4,1.9-4.6S17.3,12,19,12s3.4,0.7,4.6,1.9c2.5,2.5,2.5,6.7,0,9.2C22.4,24.3,20.7,25,19,25z M24,2C11.8,2,2,11.8,2,24
	s9.8,22,22,22s22-9.8,22-22S36.2,2,24,2z M24,44C13,44,4,35,4,24S13,4,24,4s20,9,20,20S35,44,24,44z"/>
</svg>
