<?xml version="1.0" encoding="utf-8"?>
<!-- Generator: Adobe Illustrator 21.0.0, SVG Export Plug-In . SVG Version: 6.00 Build 0)  -->
<svg version="1.1" id="VPC_peering36" xmlns="http://www.w3.org/2000/svg" xmlns:xlink="http://www.w3.org/1999/xlink" x="0px"
	 y="0px" viewBox="0 0 48 48" style="enable-background:new 0 0 48 48;" xml:space="preserve">
<style type="text/css">
	.st0{fill:#040000;}
</style>
<path class="st0" d="M24,2C11.9,2,2,11.9,2,24s9.9,22,22,22s22-9.8,22-22S36.2,2,24,2z M43.7,20.9c-1.2,0.2-3.5,0.6-6.5,0.8
	c-0.2-0.4-0.4-0.7-0.8-0.9c1-3.1,1.8-6.5,2.2-10.3C41.3,13.4,43.1,17,43.7,20.9z M24,4c5.4,0,10.2,2.1,13.8,5.6
	c-0.4,3.9-1.2,7.5-2.3,10.8c-0.2,0-0.4-0.1-0.6-0.1c-1,0-1.9,0.6-2.3,1.5c-3.8-0.1-8.2-0.6-12.7-1.9c0-0.2,0.1-0.3,0.1-0.5
	c0-1.4-1.1-2.5-2.5-2.5c-0.2,0-0.4,0-0.6,0.1c-1.2-3.1-2-6.7-2.1-10.8C17.6,4.8,20.7,4,24,4z M33.8,25c-1.3,2.9-2.7,5.5-4.3,7.7
	C25.9,30,22,26.4,19.1,21.4c0.2-0.2,0.4-0.3,0.5-0.5c4.5,1.3,9,1.8,12.9,1.9C32.5,23.7,33,24.5,33.8,25z M13.9,6.8
	c0.2,4,1,7.5,2.2,10.6c-0.3,0.2-0.5,0.5-0.7,0.8c-2.8-1.2-5.6-2.9-8.2-5C8.9,10.6,11.2,8.4,13.9,6.8z M4,24c0-3.6,1-7,2.7-9.9
	c2.7,2.2,5.5,3.9,8.4,5.1c0,0.1,0,0.1,0,0.2c0,1.4,1.1,2.5,2.5,2.5c0.2,0,0.4,0,0.6-0.1c3,5.1,7,8.9,10.8,11.6
	c-4,5.7-8.2,8.9-9.7,10C10.5,41.3,4,33.4,4,24z M24,44c-1.2,0-2.3-0.1-3.4-0.3c1.9-1.5,5.6-4.7,9.2-9.7c3.3,2.3,6.4,3.7,8.1,4.3
	C34.3,41.8,29.4,44,24,44z M38.7,37.6c-1.6-0.6-4.8-2-8.3-4.4c1.6-2.3,3.1-4.9,4.4-7.9c0.1,0,0.2,0,0.2,0c1.4,0,2.5-1.1,2.5-2.5
	c0,0,0-0.1,0-0.1c2.9-0.2,5.2-0.5,6.4-0.8C44,22.6,44,23.3,44,24C44,29.2,42,34,38.7,37.6z"/>
</svg>
