<?xml version="1.0" encoding="utf-8"?>
<!-- Generator: Adobe Illustrator 21.0.0, SVG Export Plug-In . SVG Version: 6.00 Build 0)  -->
<svg version="1.1" id="Layer_1" xmlns="http://www.w3.org/2000/svg" xmlns:xlink="http://www.w3.org/1999/xlink" x="0px" y="0px"
	 viewBox="0 0 48 48" style="enable-background:new 0 0 48 48;" xml:space="preserve">
<path id="XMLID_5_" d="M41,2H7C5.3,2,4,3.3,4,5v7c0,1.7,1.3,3,3,3h34c1.7,0,3-1.3,3-3V5C44,3.3,42.7,2,41,2z M42,12c0,0.6-0.4,1-1,1
	H7c-0.6,0-1-0.4-1-1V5c0-0.6,0.4-1,1-1h34c0.6,0,1,0.4,1,1V12z M32,8H13c-0.3,0-0.5,0.2-0.5,0.5S12.7,9,13,9h19
	c0.3,0,0.5-0.2,0.5-0.5S32.3,8,32,8z M35,8c-0.3,0-0.5,0.2-0.5,0.5S34.7,9,35,9s0.5-0.2,0.5-0.5S35.3,8,35,8z M41,17.5H7
	c-1.7,0-3,1.3-3,3v7c0,1.7,1.3,3,3,3h34c1.7,0,3-1.3,3-3v-7C44,18.8,42.7,17.5,41,17.5z M42,27.5c0,0.6-0.4,1-1,1H7
	c-0.6,0-1-0.4-1-1v-7c0-0.6,0.4-1,1-1h34c0.6,0,1,0.4,1,1V27.5z M32,23.5H13c-0.3,0-0.5,0.2-0.5,0.5s0.2,0.5,0.5,0.5h19
	c0.3,0,0.5-0.2,0.5-0.5S32.3,23.5,32,23.5z M35,23.5c-0.3,0-0.5,0.2-0.5,0.5s0.2,0.5,0.5,0.5s0.5-0.2,0.5-0.5S35.3,23.5,35,23.5z
	 M41,33H7c-1.7,0-3,1.3-3,3v7c0,1.7,1.3,3,3,3h34c1.7,0,3-1.3,3-3v-7C44,34.3,42.7,33,41,33z M42,43c0,0.6-0.4,1-1,1H7
	c-0.6,0-1-0.4-1-1v-7c0-0.6,0.4-1,1-1h34c0.6,0,1,0.4,1,1V43z M32,39H13c-0.3,0-0.5,0.2-0.5,0.5S12.7,40,13,40h19
	c0.3,0,0.5-0.2,0.5-0.5S32.3,39,32,39z M35,39c-0.3,0-0.5,0.2-0.5,0.5S34.7,40,35,40s0.5-0.2,0.5-0.5S35.3,39,35,39z"/>
</svg>
