<?xml version="1.0" encoding="utf-8"?>
<!-- Generator: Adobe Illustrator 21.0.0, SVG Export Plug-In . SVG Version: 6.00 Build 0)  -->
<svg version="1.1" id="图层_1" xmlns="http://www.w3.org/2000/svg" xmlns:xlink="http://www.w3.org/1999/xlink" x="0px" y="0px"
	 viewBox="0 0 48 48" style="enable-background:new 0 0 48 48;" xml:space="preserve">
<style type="text/css">
	.st0{fill:#060001;}
	.st1{fill:#040000;}
	.st2{fill:#080102;}
	.st3{fill:#070102;}
	.st4{fill:#160F10;}
</style>
<path d="M31.7,18c-2.9-0.6-5.6-2-6.9-3.2c-0.3-0.2-0.6-0.3-0.8-0.3c-0.2,0-0.5,0-0.8,0.3c-1.4,1.2-4,2.7-6.9,3.2
	c-0.5,0.1-0.9,1-0.9,1.4l0,0.3c0.1,1.8,0.3,5.6,2.5,8.7c1.4,1.9,3.7,3.9,5.5,5c0.1,0.1,0.3,0.1,0.5,0.1c0.3,0,0.4-0.1,0.5-0.1
	c1.9-1,4.2-3.1,5.5-5c1.7-2.3,2.6-5.4,2.6-9C32.6,19,32.2,18.1,31.7,18z M29.2,27.8c-1.3,1.8-3.4,3.7-5.1,4.6c0,0,0,0-0.1,0l0,0
	c-1.8-1-3.9-2.9-5.2-4.7c-2.1-2.9-2.3-6.4-2.4-8.2l0-0.3c0-0.1,0.1-0.3,0.2-0.4c3-0.6,5.8-2.2,7.3-3.4c0,0,0.1,0,0.1,0
	c0.1,0,0.1,0,0.1,0c1.4,1.2,4.1,2.8,7.3,3.5c0.1,0.1,0.2,0.3,0.2,0.4C31.6,22.8,30.8,25.7,29.2,27.8z M35.9,14.9
	c-4.5-0.9-8.7-3.2-10.9-5.1c-0.3-0.3-0.8-0.3-1-0.3c-0.4,0-0.8,0.1-1.1,0.3c-2.1,1.9-6.3,4.2-10.9,5.1c-0.6,0.1-1.2,1.4-1.1,2l0,0.5
	c0.1,2.8,0.4,8.6,3.9,13.4c2.1,2.9,5.6,6,8.5,7.6c0.1,0.1,0.3,0.1,0.6,0.1c0.3,0,0.5,0,0.6-0.1c2.9-1.6,6.4-4.7,8.5-7.6
	c2.6-3.5,3.9-8.3,3.9-13.9C37.1,16.3,36.5,15.1,35.9,14.9z M32.3,30.1c-2,2.8-5.4,5.8-8.1,7.3c0,0-0.1,0-0.1,0c-0.1,0-0.1,0-0.1,0
	c-2.8-1.5-6.1-4.5-8.2-7.3C12.5,25.6,12.2,20,12,17.3l0-0.5c0-0.2,0.2-0.7,0.4-0.9c4.7-0.9,9-3.3,11.3-5.3c0.1,0,0.6,0,0.7,0
	c2.1,1.8,6.3,4.3,11.3,5.3c0.1,0.2,0.4,0.7,0.4,0.9C36,22.2,34.7,26.8,32.3,30.1z M24,1C11.3,1,1,11.3,1,24c0,12.7,10.3,23,23,23
	c12.7,0,23-10.3,23-23S36.7,1,24,1z M24,45C12.4,45,3,35.6,3,24C3,12.4,12.4,3,24,3c11.6,0,21,9.4,21,21C45,35.6,35.6,45,24,45z"/>
</svg>
