<?xml version="1.0" encoding="utf-8"?>
<!-- Generator: Adobe Illustrator 21.0.0, SVG Export Plug-In . SVG Version: 6.00 Build 0)  -->
<svg version="1.1" id="图层_1" xmlns="http://www.w3.org/2000/svg" xmlns:xlink="http://www.w3.org/1999/xlink" x="0px" y="0px"
	 viewBox="0 0 48 48" style="enable-background:new 0 0 48 48;" xml:space="preserve">
<style type="text/css">
	.st0{fill:#060001;}
	.st1{fill:#040000;}
	.st2{fill:#080102;}
	.st3{fill:#070102;}
	.st4{fill:#160F10;}
	.st5{fill:none;stroke:#000000;stroke-miterlimit:10;}
</style>
<path d="M19,20.3l-3.4,8.6h1.1l0.9-2.4h3.9l0.9,2.4h1.1l-3.4-8.6H19z M17.9,25.6l1.6-4.3h0l1.6,4.3H17.9z M32.4,26.4h-7
	c-0.3,0-0.5,0.2-0.5,0.5s0.2,0.5,0.5,0.5h7c0.3,0,0.5-0.2,0.5-0.5S32.7,26.4,32.4,26.4z M33,15.5H15c-1.4,0-2.5,1.1-2.5,2.5v13
	c0,1.4,1.1,2.5,2.5,2.5h6.2l2.5,2.5c0.1,0.1,0.3,0.1,0.4,0.2c0.1,0,0.3-0.1,0.4-0.1l2.5-2.6H33c1.4,0,2.5-1.1,2.5-2.5V18
	C35.5,16.6,34.4,15.5,33,15.5z M34.5,31c0,0.8-0.7,1.5-1.5,1.5h-6.3c-0.1,0-0.3,0.1-0.4,0.1L24,35l-2.3-2.3
	c-0.1-0.1-0.2-0.2-0.4-0.2H15c-0.8,0-1.5-0.7-1.5-1.5V18c0-0.8,0.7-1.5,1.5-1.5h18c0.8,0,1.5,0.7,1.5,1.5V31z M24,2
	C11.8,2,2,11.8,2,24s9.8,22,22,22s22-9.8,22-22S36.2,2,24,2z M24,44C13,44,4,35,4,24S13,4,24,4s20,9,20,20S35,44,24,44z M32.4,21.5
	h-7c-0.3,0-0.5,0.2-0.5,0.5s0.2,0.5,0.5,0.5h7c0.3,0,0.5-0.2,0.5-0.5S32.7,21.5,32.4,21.5z"/>
</svg>
