<?xml version="1.0" encoding="utf-8"?>
<!-- Generator: Adobe Illustrator 21.0.0, SVG Export Plug-In . SVG Version: 6.00 Build 0)  -->
<svg version="1.1" id="图层_1" xmlns="http://www.w3.org/2000/svg" xmlns:xlink="http://www.w3.org/1999/xlink" x="0px" y="0px"
	 viewBox="0 0 48 48" style="enable-background:new 0 0 48 48;" xml:space="preserve">
<style type="text/css">
	.st0{fill:#040000;}
</style>
<path class="st0" d="M30,16H18c-0.3,0-0.5,0.2-0.5,0.5S17.7,17,18,17h12c0.3,0,0.5-0.2,0.5-0.5S30.3,16,30,16z M24,2
	C11.8,2,2,11.8,2,24s9.8,22,22,22s22-9.8,22-22S36.2,2,24,2z M24,44C13,44,4,35,4,24S13,4,24,4s20,9,20,20S35,44,24,44z M32.5,11
	h-17c-0.8,0-1.5,0.7-1.5,1.5v24c0,0.3,0.1,0.6,0.2,0.8c0.3,0.4,0.9,0.5,1.4,0.1l7.8-4.8c0.3-0.2,0.9-0.2,1.2,0l7.8,4.8
	c0.2,0.1,0.4,0.2,0.7,0.2c0.5,0,1-0.3,1-1.1v-24C34,11.7,33.3,11,32.5,11z M33,36.5C33,36.5,33,36.6,33,36.5
	C33,36.6,32.9,36.6,33,36.5l-7.9-4.8c-0.6-0.4-1.6-0.4-2.2,0l-7.8,4.8H15v-0.1v-24c0-0.3,0.2-0.5,0.5-0.5h17c0.3,0,0.5,0.2,0.5,0.5
	V36.5z"/>
</svg>
