<?xml version="1.0" encoding="utf-8"?>
<!-- Generator: Adobe Illustrator 21.0.0, SVG Export Plug-In . SVG Version: 6.00 Build 0)  -->
<svg version="1.1" id="图层_1" xmlns="http://www.w3.org/2000/svg" xmlns:xlink="http://www.w3.org/1999/xlink" x="0px" y="0px"
	 viewBox="0 0 48 48" style="enable-background:new 0 0 48 48;" xml:space="preserve">
<style type="text/css">
	.st0{fill:#040000;}
</style>
<path class="st0" d="M20,13h7c0.6,0,1-0.4,1-1s-0.4-1-1-1h-7c-0.6,0-1,0.4-1,1S19.4,13,20,13z M30,24H17c-0.3,0-0.5,0.2-0.5,0.5
	S16.7,25,17,25h13c0.3,0,0.5-0.2,0.5-0.5S30.3,24,30,24z M30,30H17c-0.3,0-0.5,0.2-0.5,0.5S16.7,31,17,31h13c0.3,0,0.5-0.2,0.5-0.5
	S30.3,30,30,30z M30,18H17c-0.3,0-0.5,0.2-0.5,0.5S16.7,19,17,19h13c0.3,0,0.5-0.2,0.5-0.5S30.3,18,30,18z M30.5,11H30
	c-0.3,0-0.5,0.2-0.5,0.5S29.7,12,30,12h0.5c1.9,0,3.5,1.6,3.5,3.5v17c0,1.9-1.6,3.5-3.5,3.5h-14c-1.9,0-3.5-1.6-3.5-3.5v-17
	c0-1.9,1.6-3.5,3.5-3.5H17c0.3,0,0.5-0.2,0.5-0.5S17.3,11,17,11h-0.5C14,11,12,13,12,15.5v17c0,2.5,2,4.5,4.5,4.5h14
	c2.5,0,4.5-2,4.5-4.5v-17C35,13,33,11,30.5,11z M24,2C11.8,2,2,11.8,2,24s9.8,22,22,22s22-9.8,22-22S36.2,2,24,2z M24,44
	C13,44,4,35,4,24S13,4,24,4s20,9,20,20S35,44,24,44z"/>
</svg>
