<?xml version="1.0" encoding="utf-8"?>
<!-- Generator: Adobe Illustrator 21.0.0, SVG Export Plug-In . SVG Version: 6.00 Build 0)  -->
<svg version="1.1" id="图层_1" xmlns="http://www.w3.org/2000/svg" xmlns:xlink="http://www.w3.org/1999/xlink" x="0px" y="0px"
	 viewBox="0 0 48 48" style="enable-background:new 0 0 48 48;" xml:space="preserve">
<title>画板 1</title>
<g>
	<path d="M18.4,24.3h11.2c3.7,0,6.7-2.9,6.7-6.6c-0.1-3.4-2.6-6.2-6-6.5c-1.2-3.5-5-5.3-8.4-4.1c-1.9,0.7-3.4,2.2-4.1,4.1
		c-3.4,0.3-6,3.1-6,6.5C11.8,21.3,14.8,24.3,18.4,24.3z M13,17.7c0-2.7,2.1-5,4.8-5.3c0.5-0.1,0.9-0.4,1.1-0.8
		c1.1-2.8,4.2-4.3,7-3.2c1.5,0.6,2.7,1.7,3.2,3.2c0.2,0.4,0.6,0.8,1.1,0.8c2.7,0.3,4.8,2.5,4.8,5.3c-0.1,3-2.5,5.3-5.4,5.3H18.4
		C15.5,23,13.1,20.7,13,17.7C13,17.8,13,17.8,13,17.7z"/>
	<path d="M44,30v-1c0.1-0.2,0.1-0.5-0.1-0.8l-4-7c-0.2-0.4-0.7-0.6-1.1-0.5h-1.7c-0.6,0-1,0.5-1,1c0,0.6,0.4,1,1,1h1.3l3.4,6H30.7
		h-2.2c-0.1,2.3-1.9,4.1-4.2,4.2c-2.5,0.2-4.6-1.7-4.7-4.2H6.3l3.5-6h1c0.6,0,1-0.4,1-1c0-0.6-0.4-1-1-1H9.1c-0.4,0-0.8,0.3-0.9,0.6
		c0,0-0.1,0-0.1,0.1l-4,6.9C4,28.4,4,28.6,4,28.7h0V30v0.9v8.4c0.1,1.9,1.6,3.3,3.4,3.3c0,0,0,0,0,0.1h33.3c1.9,0,3.4-1.5,3.4-3.4
		L44,30L44,30z M40.7,40.6H7.4C6.6,40.6,6,40,6,39.3v-8.4h11.7c0.7,1.9,2.2,3.4,4.1,4.1c3.5,1.2,7.2-0.7,8.4-4.1h11.9v8.3
		C42.1,40,41.5,40.6,40.7,40.6z"/>
</g>
</svg>
