<?xml version="1.0" encoding="utf-8"?>
<!-- Generator: Adobe Illustrator 21.0.0, SVG Export Plug-In . SVG Version: 6.00 Build 0)  -->
<svg version="1.1" id="图层_1" xmlns="http://www.w3.org/2000/svg" xmlns:xlink="http://www.w3.org/1999/xlink" x="0px" y="0px"
	 viewBox="0 0 48 48" style="enable-background:new 0 0 48 48;" xml:space="preserve">
<style type="text/css">
	.st0{fill:#040000;}
</style>
<path class="st0" d="M24,2C11.8,2,2,11.8,2,24s9.8,22,22,22s22-9.8,22-22S36.2,2,24,2z M44,24h-9.9c0-3-0.3-5.4-0.8-7.8
	c0.9-0.4,1.6-1.2,1.8-2.2H41C42.8,17,43.9,20,44,24z M40.3,13h-5.2c-0.1-1-0.4-1.5-0.8-1.9c-0.6-0.6-1.3-1-2.1-1c-0.2,0-0.5,0-0.7,0
	c-1.3-2.8-2.9-4.6-4.8-5.6C32.2,5.3,37.1,8,40.3,13z M17.3,24c-0.1-1-0.4-1.4-0.8-1.8s-0.9-0.5-1.5-0.6c0.2-2.8,0.7-5.5,1.4-7.5
	h12.9c0.1,0,0.4,0.9,0.8,1.3c0.6,0.6,1.3,0.7,2.1,0.7l0.1,0.2c0.5,2.3,0.8,4.8,0.8,7.8H17.3V24z M33.1,25c0,4-0.6,7-1.5,10H16.4
	c-0.7-2-1.2-4.8-1.4-7.7c1.2-0.2,2.1-1.3,2.3-2.3H33.1z M30.5,10.7c-0.7,0.4-1.2,1.3-1.3,2.3H16.7C18.3,8,21,5,24,5
	C26.6,5,28.9,7.1,30.5,10.7z M21.4,4.8C19,6.1,16.9,9,15.6,13H7.7C10.9,8,15.8,5.5,21.4,4.8z M7.1,14h8.2c-0.7,2-1.1,4.8-1.3,7.6
	c-1.3,0.2-2.3,1.4-2.5,2.4H4C4.1,20,5.2,17,7.1,14z M4,25h7.4c0.1,0,0.4,0.9,0.8,1.3c0.5,0.5,1.1,0.8,1.7,0.9
	c0.2,2.8,0.6,5.8,1.3,7.8H7.1C5.2,32,4.1,29,4,25z M7.7,36h7.9c1.3,4,3.4,6.9,5.8,8.2C15.8,43.5,10.9,40,7.7,36z M16.7,36h14.6
	c-1.7,5-4.3,7.9-7.3,7.9S18.3,41,16.7,36z M26.6,44.2C29,42.9,31,40,32.4,36h7.9C37.1,40,32.2,43.5,26.6,44.2z M40.9,35h-8.2
	c0.9-3,1.4-6,1.4-10H44C43.9,29,42.8,32,40.9,35z"/>
</svg>
