<?xml version="1.0" encoding="utf-8"?>
<!-- Generator: Adobe Illustrator 21.0.0, SVG Export Plug-In . SVG Version: 6.00 Build 0)  -->
<svg version="1.1" id="图层_1" xmlns="http://www.w3.org/2000/svg" xmlns:xlink="http://www.w3.org/1999/xlink" x="0px" y="0px"
	 viewBox="0 0 48 48" style="enable-background:new 0 0 48 48;" xml:space="preserve">
<style type="text/css">
	.st0{fill:#040000;}
</style>
<path class="st0" d="M36,23.5h-8l0,0c-0.3-2-2-3.5-4-3.5s-3.7,1.5-4,3.5l0,0h-7.5c0.3-6.1,5.3-11,11.5-11c4.7,0,9,3,10.7,7.4
	c0.1,0.3,0.4,0.4,0.6,0.3c0.3-0.1,0.4-0.4,0.3-0.6c-1.8-4.8-6.5-8-11.7-8c-6.9,0-12.5,5.6-12.5,12.5l0,0l0,0c0,0.3,0.2,0.5,0.5,0.5
	h8c0,0,0,0,0.1,0c0.2,2,1.9,3.5,3.9,3.5s3.7-1.5,4-3.5l0,0h7.5c-0.3,6.1-5.3,11-11.5,11c-4.8,0-9-2.9-10.7-7.3
	c-0.1-0.3-0.4-0.4-0.6-0.3c-0.3,0.1-0.4,0.4-0.3,0.6c1.9,4.8,6.5,7.9,11.6,7.9c6.9,0,12.5-5.6,12.5-12.5l0,0l0,0
	C36.5,23.7,36.3,23.5,36,23.5z M24,27c-1.7,0-3-1.3-3-3s1.3-3,3-3s3,1.3,3,3S25.7,27,24,27z M24,2C11.9,2,2,11.9,2,24s9.9,22,22,22
	s22-9.9,22-22S36.1,2,24,2z M24,44C13,44,4,35,4,24S13,4,24,4s20,9,20,20S35,44,24,44z"/>
</svg>
