<?xml version="1.0" encoding="utf-8"?>
<!-- Generator: Adobe Illustrator 21.0.0, SVG Export Plug-In . SVG Version: 6.00 Build 0)  -->
<svg version="1.1" id="图层_1" xmlns="http://www.w3.org/2000/svg" xmlns:xlink="http://www.w3.org/1999/xlink" x="0px" y="0px"
	 viewBox="0 0 48 48" style="enable-background:new 0 0 48 48;" xml:space="preserve">
<style type="text/css">
	.st0{fill:#040000;}
</style>
<g>
	<path class="st0" d="M36.4,15.5c-1.8-5.2-6.6-9-12.4-9s-10.6,3.7-12.4,9C5.1,16.2,0,21.6,0,28.4c0,7.3,5.9,13.1,13.1,13.1h21.8
		c7.2,0,13.1-5.7,13.1-13.1C48,21.6,42.9,16.2,36.4,15.5z M34.9,39.5H13.1c-6,0-10.9-4.8-10.9-10.9c0-5.7,4.2-10.3,9.7-10.9
		c0.8-0.1,1.5-0.6,1.8-1.4c1.5-4.5,5.7-7.4,10.3-7.4c4.6,0,8.8,3,10.3,7.5c0.3,0.8,1,1.4,1.8,1.5c5.5,0.6,9.7,5.2,9.7,10.9
		C45.8,34.6,40.9,39.5,34.9,39.5z"/>
	<path class="st0" d="M11.5,25.2c-0.3,0-0.5,0.2-0.5,0.5v3c0,0.3,0.2,0.5,0.5,0.5s0.5-0.2,0.5-0.5v-3C12,25.5,11.8,25.2,11.5,25.2z"
		/>
	<path class="st0" d="M16.5,22.2c-0.3,0-0.5,0.2-0.5,0.5v9.1c0,0.3,0.2,0.5,0.5,0.5s0.5-0.2,0.5-0.5v-9.1
		C17,22.4,16.8,22.2,16.5,22.2z"/>
	<path class="st0" d="M26.5,19.2c-0.3,0-0.5,0.2-0.5,0.5v15.2c0,0.3,0.2,0.5,0.5,0.5s0.5-0.2,0.5-0.5V19.7
		C27,19.4,26.8,19.2,26.5,19.2z"/>
	<path class="st0" d="M21.5,19.2c-0.3,0-0.5,0.2-0.5,0.5v15.2c0,0.3,0.2,0.5,0.5,0.5s0.5-0.2,0.5-0.5V19.7
		C22,19.4,21.8,19.2,21.5,19.2z"/>
	<path class="st0" d="M31.5,22.2c-0.3,0-0.5,0.2-0.5,0.5v9.1c0,0.3,0.2,0.5,0.5,0.5s0.5-0.2,0.5-0.5v-9.1
		C32,22.4,31.8,22.2,31.5,22.2z"/>
	<path class="st0" d="M36.5,25.2c-0.3,0-0.5,0.2-0.5,0.5v3c0,0.3,0.2,0.5,0.5,0.5s0.5-0.2,0.5-0.5v-3C37,25.5,36.8,25.2,36.5,25.2z"
		/>
</g>
</svg>
