<?xml version="1.0" encoding="utf-8"?>
<!-- Generator: Adobe Illustrator 21.0.0, SVG Export Plug-In . SVG Version: 6.00 Build 0)  -->
<svg version="1.1" id="Layer_1" xmlns="http://www.w3.org/2000/svg" xmlns:xlink="http://www.w3.org/1999/xlink" x="0px" y="0px"
	 viewBox="0 0 48 48" style="enable-background:new 0 0 48 48;" xml:space="preserve">
<path d="M13.5,18.8c0.1,0,0.3,0,0.4-0.1l5.4-5.4c0.2-0.2,0.5-0.2,0.7,0l4.3,4.3c0.3,0.3,0.7,0.4,1.1,0.4s0.8-0.2,1.1-0.4l8.3-8.4
	C35,9,35,8.7,34.8,8.5s-0.5-0.2-0.7,0l-8.3,8.3c-0.2,0.2-0.5,0.2-0.7,0l-4.3-4.3c-0.6-0.6-1.5-0.6-2.1,0l-5.4,5.4
	c-0.2,0.2-0.2,0.5,0,0.7C13.3,18.7,13.4,18.8,13.5,18.8z M24.5,35.6h-11c-0.3,0-0.5,0.2-0.5,0.5s0.2,0.5,0.5,0.5h11
	c0.3,0,0.5-0.2,0.5-0.5C25,35.9,24.8,35.6,24.5,35.6z M34.5,29.4h-21c-0.3,0-0.5,0.2-0.5,0.5s0.2,0.5,0.5,0.5h21
	c0.3,0,0.5-0.2,0.5-0.5S34.8,29.4,34.5,29.4z M40,1.5H8c-1.7,0-3,1.3-3,3v39c0,1.7,1.3,3,3,3h32c1.7,0,3-1.3,3-3v-39
	C43,2.8,41.7,1.5,40,1.5z M41,43.5c0,0.6-0.4,1-1,1H8c-0.6,0-1-0.4-1-1v-39c0-0.6,0.4-1,1-1h32c0.6,0,1,0.4,1,1V43.5z M34.5,23.1
	h-21c-0.3,0-0.5,0.2-0.5,0.5s0.2,0.5,0.5,0.5h21c0.3,0,0.5-0.2,0.5-0.5C35,23.4,34.8,23.1,34.5,23.1z"/>
</svg>
