<?xml version="1.0" encoding="utf-8"?>
<!-- Generator: Adobe Illustrator 21.0.0, SVG Export Plug-In . SVG Version: 6.00 Build 0)  -->
<svg version="1.1" id="图层_1" xmlns="http://www.w3.org/2000/svg" xmlns:xlink="http://www.w3.org/1999/xlink" x="0px" y="0px"
	 viewBox="0 0 48 48" style="enable-background:new 0 0 48 48;" xml:space="preserve">
<style type="text/css">
	.st0{fill:#040000;}
</style>
<path class="st0" d="M36,38H12c-0.3,0-0.5,0.2-0.5,0.5S11.7,39,12,39h24c0.3,0,0.5-0.2,0.5-0.5S36.3,38,36,38z M24,2
	C11.8,2,2,11.8,2,24s9.8,22,22,22s22-9.8,22-22S36.2,2,24,2z M24,44C13,44,4,35,4,24S13,4,24,4s20,9,20,20S35,44,24,44z M23.4,30
	c0.1,0,0.3,0,0.4-0.1l7.8-7.8c0.2-0.2,0.2-0.5,0-0.7s-0.5-0.2-0.7,0l-7.8,7.8c-0.2,0.2-0.2,0.5,0,0.7C23.2,30,23.3,30,23.4,30z
	 M21.8,33.4c0.6,0.6,1.4,0.9,2.2,0.9s1.6-0.3,2.2-0.9l8.9-8.9c1.2-1.2,1.2-3.2,0-4.4l-8.9-8.9c-0.6-0.6-1.4-0.9-2.2-0.9
	s-1.6,0.3-2.2,0.9l-8.9,8.9c-1.2,1.2-1.2,3.2,0,4.4L21.8,33.4z M13.6,20.8l8.9-8.9c0.4-0.4,0.9-0.6,1.5-0.6s1.1,0.2,1.5,0.6l8.9,8.9
	c0.8,0.8,0.8,2.2,0,3l-8.9,8.9c-0.4,0.4-0.9,0.6-1.5,0.6s-1.1-0.2-1.5-0.6l-8.9-8.9C12.8,23,12.8,21.6,13.6,20.8z"/>
</svg>
