<?xml version="1.0" encoding="utf-8"?>
<!-- Generator: Adobe Illustrator 21.0.0, SVG Export Plug-In . SVG Version: 6.00 Build 0)  -->
<svg version="1.1" id="图层_1" xmlns="http://www.w3.org/2000/svg" xmlns:xlink="http://www.w3.org/1999/xlink" x="0px" y="0px"
	 viewBox="0 0 48 48" style="enable-background:new 0 0 48 48;" xml:space="preserve">
<path d="M24,1C11.3,1,1,11.3,1,24s10.3,23,23,23s23-10.3,23-23S36.7,1,24,1z M24,44.9C12.5,44.9,3.1,35.5,3.1,24S12.5,3.1,24,3.1
	S44.9,12.5,44.9,24S35.5,44.9,24,44.9z M21.5,33.7c0,1.5,1.2,2.8,2.8,2.8c1.5,0,2.8-1.2,2.8-2.8c0-1.5-1.2-2.8-2.8-2.8
	S21.5,32.2,21.5,33.7z M26.3,33.7c0,1.1-0.9,2-2,2s-2-0.9-2-2s0.9-2,2-2S26.3,32.6,26.3,33.7z M33.7,36.7c0,1.7-1.4,3.2-3.2,3.2H18
	c-1.7,0-3.2-1.4-3.2-3.2v-23c0-1.7,1.4-3.2,3.2-3.2h8.6l0.9-1.6H18c-2.6,0-4.8,2.1-4.8,4.8v23c0,2.6,2.1,4.8,4.8,4.8h12.5
	c2.6,0,4.8-2.1,4.8-4.8V20.4h-1.6C33.7,20.4,33.7,36.7,33.7,36.7z M19.7,20.2h5.2c-0.5-0.2-0.9-0.4-1.2-0.8h-3.9
	c-0.9,0-1.6,0.7-1.6,1.6s0.7,1.6,1.6,1.6h9.2c0.9,0,1.6-0.7,1.6-1.6c0-0.2,0-0.4-0.1-0.6h-1c0.2,0.1,0.3,0.4,0.3,0.6
	c0,0.4-0.4,0.8-0.8,0.8h-9.2c-0.4,0-0.8-0.4-0.8-0.8S19.3,20.2,19.7,20.2z M19.7,14.7c-0.9,0-1.6,0.7-1.6,1.6s0.7,1.6,1.6,1.6H23
	c0-0.3,0-0.5,0.1-0.8h-3.4c-0.4,0-0.8-0.4-0.8-0.8c0-0.4,0.4-0.8,0.8-0.8h4.1l0.5-0.8C24.3,14.7,19.7,14.7,19.7,14.7z M32.9,7.7
	c-0.4-0.7-1-1.1-1.6-1.1s-1.2,0.4-1.6,1.1l-5.2,8.8c-0.9,1.5-0.2,2.7,1.6,2.7h10.3c1.8,0,2.5-1.2,1.6-2.7L32.9,7.7z M37.6,18
	c-0.2,0.3-0.5,0.4-1.1,0.4H26.1c-0.5,0-0.9-0.1-1.1-0.4c-0.2-0.3-0.1-0.7,0.2-1.1l5.2-8.8c0.3-0.5,0.6-0.7,0.9-0.7s0.6,0.3,0.9,0.7
	l5.2,8.8C37.7,17.4,37.7,17.8,37.6,18z M31.3,9.6c-0.3,0-0.5,0.2-0.5,0.5v4.2c0,0.3,0.2,0.5,0.5,0.5s0.5-0.2,0.5-0.5v-4.2
	C31.9,9.8,31.6,9.6,31.3,9.6z M31.3,15.9c-0.3,0-0.5,0.2-0.5,0.5v0.2c0,0.3,0.2,0.5,0.5,0.5s0.5-0.2,0.5-0.5v-0.2
	C31.9,16.2,31.6,15.9,31.3,15.9z"/>
</svg>
