<?xml version="1.0" encoding="utf-8"?>
<!-- Generator: Adobe Illustrator 21.0.0, SVG Export Plug-In . SVG Version: 6.00 Build 0)  -->
<svg version="1.1" id="图层_1" xmlns="http://www.w3.org/2000/svg" xmlns:xlink="http://www.w3.org/1999/xlink" x="0px" y="0px"
	 viewBox="0 0 48 48" style="enable-background:new 0 0 48 48;" xml:space="preserve">
<style type="text/css">
	.st0{fill:#040000;}
</style>
<path class="st0" d="M24,2C11.8,2,2,11.9,2,24s9.8,22,22,22s22-9.8,22-22S36.2,2,24,2z M24,44C13,44,4,35,4,24S13,4,24,4s20,9,20,20
	S35,44,24,44z M24.2,12.5c-0.2,0-0.5,0.1-0.7,0.3l-5.3,4.6c-0.3,0.3-1,0.6-1.4,0.6h-4.2c-0.8,0-1.5,0.5-1.5,1.3v7.3
	c0,0.8,0.7,1.3,1.5,1.3h4.2c0.4,0,1.1,0.3,1.4,0.6l5.3,4.6c0.2,0.2,0.5,0.3,0.7,0.3c0.3,0,0.5-0.1,0.7-0.4c0.1-0.2,0.2-0.4,0.2-0.7
	v-19C25,12.8,24.6,12.5,24.2,12.5z M24,32.4l-5.3-4.6c-0.5-0.4-1.4-0.9-2.1-0.9h-4.2c-0.3,0-0.5-0.1-0.5-0.3v-7.3
	c0-0.3,0.2-0.3,0.5-0.3h4.2c0.7,0,1.6-0.4,2.1-0.9l5.2-4.6L24,32.4L24,32.4z M28.3,17.9c-0.2,0.2-0.2,0.5,0,0.7
	c1.4,1.4,2.2,3.2,2.2,5.1s-0.8,3.7-2.2,5.1c-0.2,0.2-0.2,0.5,0,0.7c0.1,0.1,0.2,0.2,0.4,0.2c0.1,0,0.3,0,0.3-0.1
	c1.6-1.6,2.5-3.6,2.5-5.8S30.6,19.6,29,18C28.8,17.7,28.5,17.7,28.3,17.9z M32.5,14.5c-0.2,0.2-0.2,0.5,0,0.7
	c2.4,2.3,3.7,5.4,3.7,8.6s-1.3,6.3-3.7,8.6c-0.2,0.2-0.2,0.5,0,0.7c0.1,0.1,0.2,0.2,0.4,0.2c0.1,0,0.3,0,0.3-0.1
	c2.6-2.5,4-5.8,4-9.4s-1.4-6.9-4-9.4C33,14.3,32.7,14.3,32.5,14.5z"/>
</svg>
