<?xml version="1.0" encoding="utf-8"?>
<!-- Generator: Adobe Illustrator 21.0.0, SVG Export Plug-In . SVG Version: 6.00 Build 0)  -->
<svg version="1.1" id="图层_1" xmlns="http://www.w3.org/2000/svg" xmlns:xlink="http://www.w3.org/1999/xlink" x="0px" y="0px"
	 viewBox="0 0 48 48" style="enable-background:new 0 0 48 48;" xml:space="preserve">
<style type="text/css">
	.st0{fill:#060001;}
</style>
<g>
	<path class="st0" d="M40.6,42H7.4c-0.6,0-1.1-0.5-1.1-1.1s0.5-1.1,1.1-1.1h33.3c0.6,0,1.1,0.5,1.1,1.1S41.2,42,40.6,42z"/>
	<path class="st0" d="M41.7,36.4H6.3C4.5,36.4,3,34.9,3,33V9.3C3,7.5,4.5,6,6.3,6h35.5C43.5,6,45,7.5,45,9.3V33
		C45,34.9,43.5,36.4,41.7,36.4z M6.3,8.1c-0.6,0-1.2,0.5-1.2,1.2V33c0,0.7,0.5,1.2,1.2,1.2h35.5c0.6,0,1.2-0.5,1.2-1.2V9.3
		c0-0.7-0.5-1.2-1.2-1.2H6.3z"/>
</g>
</svg>
