<?xml version="1.0" encoding="utf-8"?>
<!-- Generator: Adobe Illustrator 21.0.0, SVG Export Plug-In . SVG Version: 6.00 Build 0)  -->
<svg version="1.1" id="图层_1" xmlns="http://www.w3.org/2000/svg" xmlns:xlink="http://www.w3.org/1999/xlink" x="0px" y="0px"
	 viewBox="0 0 48 48" style="enable-background:new 0 0 48 48;" xml:space="preserve">
<g>
	<path d="M24,2C11.9,2,2,11.9,2,24s9.9,22,22,22s22-9.9,22-22S36.1,2,24,2z M24,44.1c-11.1,0-20.1-9-20.1-20.1S12.9,3.9,24,3.9
		s20.1,9,20.1,20.1S35.1,44.1,24,44.1z"/>
	<path d="M13,25.6c-0.3,0-0.5,0.2-0.5,0.5v11.3c0,0.3,0.2,0.5,0.5,0.5s0.5-0.2,0.5-0.5V26.1C13.5,25.8,13.3,25.6,13,25.6z"/>
	<path d="M19.7,21.1c-0.3,0-0.5,0.2-0.5,0.5v15.8c0,0.3,0.2,0.5,0.5,0.5c0.3,0,0.5-0.2,0.5-0.5V21.6C20.2,21.3,20,21.1,19.7,21.1z"
		/>
	<path d="M26.4,16.6c-0.3,0-0.5,0.2-0.5,0.5v20.3c0,0.3,0.2,0.5,0.5,0.5c0.3,0,0.5-0.2,0.5-0.5V17C26.9,16.8,26.7,16.6,26.4,16.6z"
		/>
	<path d="M34,12c-0.3,0-0.5,0.2-0.5,0.5v24.9c0,0.3,0.2,0.5,0.5,0.5c0.3,0,0.5-0.2,0.5-0.5V12.5C34.5,12.3,34.3,12,34,12z"/>
</g>
</svg>
