<?xml version="1.0" encoding="utf-8"?>
<!-- Generator: Adobe Illustrator 21.0.0, SVG Export Plug-In . SVG Version: 6.00 Build 0)  -->
<svg version="1.1" id="图层_1" xmlns="http://www.w3.org/2000/svg" xmlns:xlink="http://www.w3.org/1999/xlink" x="0px" y="0px"
	 viewBox="0 0 48 48" style="enable-background:new 0 0 48 48;" xml:space="preserve">
<style type="text/css">
	.st0{fill:#040000;}
</style>
<path class="st0" d="M27.1,11.4c-0.3-0.1-0.5,0.1-0.6,0.4c-0.1,0.3,0.1,0.5,0.4,0.6C32.3,13.7,36,18.5,36,24c0,6.6-5.4,12-12,12
	s-12-5.4-12-12c0-5.6,3.9-10.5,9.3-11.7l-1.7,2.8c-0.1,0.2-0.1,0.5,0.2,0.7c0.2,0.1,0.5,0.1,0.7-0.2l2.3-3.7l0,0l0,0l0,0
	c0.1-0.2,0.1-0.5-0.2-0.7l0,0l-3.7-2.3c-0.2-0.1-0.5-0.1-0.7,0.2c-0.1,0.2-0.1,0.5,0.2,0.7l2.6,1.6C15.2,12.7,11,18,11,24
	c0,7.2,5.8,13,13,13s13-5.8,13-13C37,18,32.9,12.8,27.1,11.4z M17.5,24c0-0.3-0.2-0.5-0.5-0.5s-0.5,0.2-0.5,0.5
	c0,4.1,3.4,7.5,7.5,7.5c0.3,0,0.5-0.2,0.5-0.5s-0.2-0.5-0.5-0.5C20.4,30.5,17.5,27.6,17.5,24z M24,2C11.8,2,2,11.8,2,24
	s9.8,22,22,22s22-9.8,22-22S36.2,2,24,2z M24,44C13,44,4,35,4,24S13,4,24,4s20,9,20,20S35,44,24,44z"/>
</svg>
