<?xml version="1.0" encoding="utf-8"?>
<!-- Generator: Adobe Illustrator 21.0.0, SVG Export Plug-In . SVG Version: 6.00 Build 0)  -->
<svg version="1.1" id="图层_1" xmlns="http://www.w3.org/2000/svg" xmlns:xlink="http://www.w3.org/1999/xlink" x="0px" y="0px"
	 viewBox="0 0 48 48" style="enable-background:new 0 0 48 48;" xml:space="preserve">
<path d="M24,1C11.3,1,1,11.3,1,24s10.3,23,23,23s23-10.3,23-23S36.7,1,24,1z M24,44.9C12.5,44.9,3.1,35.5,3.1,24S12.5,3.1,24,3.1
	S44.9,12.5,44.9,24S35.5,44.9,24,44.9z M29.8,27.3L29.8,27.3c-1.9,0-3.5,0.9-4.5,2.3l-5.9-4.8c0.6-0.9,1-2,1-3.1
	c0-0.7-0.1-1.3-0.4-1.9l5.1-3.8c0.7,0.9,1.8,1.4,3,1.4c2.2,0,4-1.8,4-4c0-2.2-1.8-4-4-4h0c-2.2,0-4,1.8-4,4c0,0.7,0.2,1.3,0.5,1.8
	l-5,3.7c-1-1.7-2.8-2.8-4.9-2.8v0C11.5,16,9,18.5,9,21.6s2.5,5.7,5.7,5.7c1.7,0,3.2-0.7,4.2-1.9l6,4.9c-0.5,0.8-0.7,1.8-0.7,2.8
	c0,3.1,2.6,5.7,5.7,5.6c3.1,0,5.6-2.5,5.7-5.7C35.5,29.9,33,27.3,29.8,27.3z M28.2,10.2L28.2,10.2c1.8,0,3.2,1.4,3.2,3.2
	s-1.4,3.2-3.2,3.1c-1,0-1.9-0.5-2.4-1.2c0-0.1,0-0.2-0.1-0.3c0-0.1-0.1-0.1-0.2-0.1c-0.3-0.5-0.4-1-0.4-1.6
	C25,11.6,26.4,10.2,28.2,10.2z M14.7,26.5c-2.7,0-4.8-2.2-4.8-4.8s2.2-4.8,4.8-4.8s4.8,2.2,4.8,4.8S17.3,26.5,14.7,26.5z M29.8,37.8
	c-2.7,0-4.8-2.2-4.8-4.8c0-2.7,2.2-4.8,4.8-4.8l0,0c2.7,0,4.8,2.2,4.8,4.8S32.5,37.9,29.8,37.8z"/>
</svg>
