<?xml version="1.0" encoding="utf-8"?>
<!-- Generator: Adobe Illustrator 21.0.0, SVG Export Plug-In . SVG Version: 6.00 Build 0)  -->
<svg version="1.1" id="图层_1" xmlns="http://www.w3.org/2000/svg" xmlns:xlink="http://www.w3.org/1999/xlink" x="0px" y="0px"
	 viewBox="0 0 48 48" style="enable-background:new 0 0 48 48;" xml:space="preserve">
<style type="text/css">
	.st0{fill:#060001;}
	.st1{fill:#040000;}
	.st2{fill:#080102;}
	.st3{fill:#070102;}
	.st4{fill:#160F10;}
	.st5{fill:none;stroke:#000000;stroke-miterlimit:10;}
</style>
<path d="M35.9,13.1c-1.1-1.5-5.3-0.2-7.3,0.6c-0.1-0.4-0.4-0.7-0.7-0.8c-1.9-0.9-7.2,3.3-8.8,4.7c-0.2-0.1-0.5-0.1-0.7,0
	c-1.5,0.4-3,3.7-3.9,6.7c-0.5,1.8-1.4,6.1,0.6,8.1c0.1,0.1,0.3,0.2,0.4,0.1c0.1,0,0.3-0.1,0.4-0.2c0.1-0.1,9.5-14.1,14.7-14.8
	c0.3,0,0.5-0.3,0.4-0.6c0-0.3-0.3-0.5-0.6-0.4c-5,0.7-13.1,11.9-15,14.6c-0.7-1.3-0.7-3.8,0-6.6c0.9-3.3,2.4-5.8,3.2-6
	c0.1,0,0.1,0,0.2,0c0.2,0.2,0.5,0.2,0.7,0c3.1-2.7,7.1-5.3,8-4.8c0.1,0.1,0.2,0.2,0.2,0.5c0,0.2,0.1,0.3,0.2,0.4
	c0.1,0.1,0.3,0.1,0.5,0.1c2.8-1.1,6.2-1.8,6.7-1.1c0.1,0.1,0.3,0.7-1.5,2.9c-0.1,0.1-0.1,0.3-0.1,0.5c0.1,0.2,0.2,0.3,0.4,0.3
	c0,0,0.3,0.1,0.4,0.4c0.1,0.4,0,2.2-5.8,7.2c-0.2,0.1-0.2,0.4-0.1,0.6c0,0,0.4,0.8-0.2,1.9c-0.8,1.7-3.5,4-11.8,5.8
	c-0.1,0-0.3,0.1-0.3,0.2l-1.9,3.2c-0.1,0.2-0.1,0.3,0,0.5c0.1,0.2,0.3,0.3,0.4,0.3h16.8c0.3,0,0.5-0.2,0.5-0.5s-0.2-0.5-0.5-0.5h-16
	l1.4-2.3c6.9-1.5,11-3.6,12.3-6.3c0.5-1,0.4-1.9,0.3-2.4c4.4-3.8,6.3-6.4,5.9-8c-0.1-0.3-0.3-0.6-0.5-0.8
	C36.1,15.1,36.4,13.9,35.9,13.1z M24,2C11.8,2,2,11.8,2,24s9.8,22,22,22s22-9.8,22-22S36.2,2,24,2z M24,44C13,44,4,35,4,24
	S13,4,24,4s20,9,20,20S35,44,24,44z"/>
</svg>
