<?xml version="1.0" encoding="utf-8"?>
<!-- Generator: Adobe Illustrator 21.0.0, SVG Export Plug-In . SVG Version: 6.00 Build 0)  -->
<svg version="1.1" id="图层_1" xmlns="http://www.w3.org/2000/svg" xmlns:xlink="http://www.w3.org/1999/xlink" x="0px" y="0px"
	 viewBox="0 0 48 48" style="enable-background:new 0 0 48 48;" xml:space="preserve">
<style type="text/css">
	.st0{fill:#040000;}
</style>
<path class="st0" d="M24,2C11.8,2,2,11.8,2,24s9.8,22,22,22s22-9.8,22-22S36.2,2,24,2z M24,44C13,44,4,35,4,24S13,4,24,4s20,9,20,20
	S35,44,24,44z M24,15.5c-4.7,0-8.5,3.8-8.5,8.5s3.8,8.5,8.5,8.5s8.5-3.8,8.5-8.5S28.7,15.5,24,15.5z M24,31.5
	c-4.1,0-7.5-3.4-7.5-7.5s3.4-7.5,7.5-7.5s7.5,3.4,7.5,7.5S28.1,31.5,24,31.5z M13,12.5c-1.4,0-2.5,1.1-2.5,2.5s1.1,2.5,2.5,2.5
	s2.5-1.1,2.5-2.5S14.4,12.5,13,12.5z M13,16.5c-0.8,0-1.5-0.7-1.5-1.5s0.7-1.5,1.5-1.5s1.5,0.7,1.5,1.5S13.8,16.5,13,16.5z"/>
</svg>
