<?xml version="1.0" encoding="utf-8"?>
<!-- Generator: Adobe Illustrator 21.0.0, SVG Export Plug-In . SVG Version: 6.00 Build 0)  -->
<svg version="1.1" id="图层_1" xmlns="http://www.w3.org/2000/svg" xmlns:xlink="http://www.w3.org/1999/xlink" x="0px" y="0px"
	 viewBox="0 0 48 48" style="enable-background:new 0 0 48 48;" xml:space="preserve">
<g>
	<path d="M24,4c11,0,20,9,20,20s-9,20-20,20S4,35,4,24S13,4,24,4 M24,2C11.8,2,2,11.8,2,24s9.8,22,22,22s22-9.8,22-22S36.2,2,24,2
		L24,2z"/>
	<path d="M14.7,17.5c-0.7,0-1.4-0.3-1.9-0.8c-1-1-1-2.7,0-3.8c0.5-0.5,1.2-0.8,1.9-0.8c0.7,0,1.4,0.3,1.9,0.8c1,1,1,2.7,0,3.8
		C16.1,17.2,15.4,17.5,14.7,17.5z"/>
	<path d="M19.9,38.1c-0.7,0-1.4-0.3-1.9-0.8c-1-1-1-2.7,0-3.8c0.5-0.5,1.2-0.8,1.9-0.8c0.7,0,1.4,0.3,1.9,0.8c1,1,1,2.7,0,3.8
		C21.3,37.8,20.6,38.1,19.9,38.1z"/>
	<path d="M35.3,22.7c-0.7,0-1.4-0.3-1.9-0.8c-1-1-1-2.7,0-3.8c0.5-0.5,1.2-0.8,1.9-0.8c0.7,0,1.4,0.3,1.9,0.8
		c0.5,0.5,0.8,1.2,0.8,1.9s-0.3,1.4-0.8,1.9C36.7,22.4,36,22.7,35.3,22.7z"/>
	<g>
		<rect x="16.8" y="16.6" transform="matrix(0.9697 -0.2444 0.2444 0.9697 -5.6218 4.99)" width="0.9" height="17.1"/>
	</g>
	<g>
		<rect x="18.7" y="27.2" transform="matrix(0.7063 -0.7079 0.7079 0.7063 -11.5054 27.6588)" width="17.7" height="0.9"/>
	</g>
	<g>
		<rect x="24.5" y="9.2" transform="matrix(0.2445 -0.9697 0.9697 0.2445 2.0012 37.3765)" width="0.9" height="16.5"/>
	</g>
</g>
</svg>
