<?xml version="1.0" encoding="utf-8"?>
<!-- Generator: Adobe Illustrator 21.0.0, SVG Export Plug-In . SVG Version: 6.00 Build 0)  -->
<svg version="1.1" id="图层_1" xmlns="http://www.w3.org/2000/svg" xmlns:xlink="http://www.w3.org/1999/xlink" x="0px" y="0px"
	 viewBox="0 0 48 48" style="enable-background:new 0 0 48 48;" xml:space="preserve">
<style type="text/css">
	.st0{fill:#040000;}
</style>
<path class="st0" d="M34.9,14H13.1C12,14,11,14.9,11,16v16c0,1.1,0.9,2,2.1,2H35c1.1,0,2.1-0.9,2.1-2V16C37,14.9,36.1,14,34.9,14z
	 M19,33h-5.9c-0.6,0-1.1-0.4-1.1-1V21h7V33z M36,32c0,0.5-0.5,1-1.1,1H20V21h16V32z M36,20H12v-4c0-0.5,0.5-1,1.1-1H35
	c0.6,0,1.1,0.4,1.1,1L36,20L36,20z M24,2C11.8,2,2,11.8,2,24s9.8,22,22,22s22-9.8,22-22S36.2,2,24,2z M24,44C13,44,4,35,4,24
	S13,4,24,4s20,9,20,20S35,44,24,44z"/>
</svg>
