<?xml version="1.0" encoding="utf-8"?>
<!-- Generator: Adobe Illustrator 21.0.0, SVG Export Plug-In . SVG Version: 6.00 Build 0)  -->
<svg version="1.1" id="图层_1" xmlns="http://www.w3.org/2000/svg" xmlns:xlink="http://www.w3.org/1999/xlink" x="0px" y="0px"
	 viewBox="0 0 48 48" style="enable-background:new 0 0 48 48;" xml:space="preserve">
<style type="text/css">
	.st0{fill:#060001;}
	.st1{fill:#040000;}
	.st2{fill:#080102;}
	.st3{fill:#070102;}
	.st4{fill:#160F10;}
</style>
<path class="st4" d="M14.9,21.3l1,0.3c0.3-0.9,0.7-1.8,1.3-2.6l-0.8-0.6C15.7,19.3,15.2,20.3,14.9,21.3z M17.8,16.8l0.7,0.8
	c0.7-0.6,1.6-1.1,2.5-1.5l-0.4-0.9C19.5,15.6,18.6,16.1,17.8,16.8z M15.5,23.5l-1-0.1c0,0.2,0,0.3,0,0.5c0,0.9,0.1,1.8,0.4,2.7
	l1-0.3c-0.2-0.8-0.3-1.6-0.3-2.4C15.5,23.8,15.5,23.7,15.5,23.5z M33.2,21.8c-0.2-1.1-0.7-2.1-1.3-3l-0.8,0.5
	c0.5,0.8,0.9,1.7,1.1,2.7L33.2,21.8z M24,3C12.4,3,3,12.4,3,24s9.4,21,21,21s21-9.4,21-21S35.6,3,24,3z M27,42.7c-1,0.2-2,0.3-3,0.3
	s-2-0.1-3-0.3v-8.2h-5.6c-0.2,0-0.3-0.1-0.3-0.2c0-0.1-0.1-0.2,0.1-0.3l8.6-9c0.1-0.1,0.3-0.1,0.4,0l8.6,9c0.1,0.1,0.1,0.3,0.1,0.3
	c0,0.1-0.1,0.2-0.3,0.2H27V42.7z M28,42.6v-7.1h4.6c0.5,0,1-0.3,1.2-0.8c0.2-0.5,0.1-1-0.3-1.4l-2.7-2.8c0.4-0.4,0.8-0.9,1.1-1.4
	l-0.8-0.5c-0.3,0.4-0.6,0.8-1,1.2l-5.3-5.5c-0.5-0.5-1.4-0.5-1.9,0l-5.3,5.5c-0.5-0.5-0.9-1-1.2-1.6l-0.9,0.5
	c0.4,0.7,0.8,1.3,1.4,1.8l-2.7,2.8c-0.4,0.4-0.5,0.9-0.3,1.4c0.2,0.5,0.7,0.8,1.2,0.8H20v7.1C11.4,40.7,5,33.1,5,24
	C5,13.5,13.5,5,24,5s19,8.5,19,19C43,33.1,36.6,40.7,28,42.6z M32,26.9l0.9,0.3c0.4-1,0.5-2.1,0.5-3.2v0l-1,0
	C32.5,25,32.3,25.9,32,26.9z M22.6,14.6l0.1,1c0.9-0.1,1.9-0.1,2.9,0.1l0.2-1C24.8,14.5,23.7,14.4,22.6,14.6z M27.5,16.3
	c0.9,0.4,1.7,1,2.4,1.6l0.7-0.7c-0.8-0.8-1.7-1.4-2.7-1.8L27.5,16.3z"/>
</svg>
