<svg id="图层_1" data-name="图层 1" xmlns="http://www.w3.org/2000/svg" viewBox="0 0 44 44"><defs><style>.cls-1{fill:#333;}</style></defs><title>Vpc Endpoint Service</title><path class="cls-1" d="M23.86,4A20,20,0,0,1,43.64,21h2A22,22,0,0,0,3,17H5.12A20,20,0,0,1,23.86,4Zm0,40A20,20,0,0,1,5.53,32H3.36A22,22,0,0,0,45.5,28h-2A20,20,0,0,1,23.86,44ZM45.5,24H37A3.49,3.49,0,0,0,30,24H24.5l-.13,0-6.6-4h0a.5.5,0,0,0-.23-.07H2.5a.5.5,0,0,0,0,1H17.32l6,3.57L17.52,28h0l-15,0h0a.5.5,0,0,0,0,1l15,0h0a.5.5,0,0,0,.17,0,.5.5,0,0,0,.33-.06h0L24.56,25H30A3.49,3.49,0,0,0,37,25H45.5a.5.5,0,1,0,0-1Zm-12,2.24a1.75,1.75,0,1,1,1.75-1.75A1.76,1.76,0,0,1,33.5,26.25Z" transform="translate(-2 -2)"/></svg>