<?xml version="1.0" encoding="utf-8"?>
<!-- Generator: Adobe Illustrator 21.0.0, SVG Export Plug-In . SVG Version: 6.00 Build 0)  -->
<svg version="1.1" id="图层_1" xmlns="http://www.w3.org/2000/svg" xmlns:xlink="http://www.w3.org/1999/xlink" x="0px" y="0px"
	 viewBox="0 0 48 48" style="enable-background:new 0 0 48 48;" xml:space="preserve">
<g>
	<path d="M24,2C11.9,2,2,11.8,2,24s9.9,22,22,22s22-9.9,22-22S36.1,2,24,2z M24,44C13,44,4,35,4,24S13,4,24,4c11,0,20,9,20,20
		S35,44,24,44z"/>
	<path d="M19.7,13.3l3.8-3.8l0,8.3c0,0.4,0.3,0.7,0.7,0.7c0.2,0,0.4-0.1,0.5-0.2c0.1-0.1,0.2-0.3,0.2-0.5l0-8.3l3.8,3.8
		c0.3,0.3,0.7,0.3,1,0c0.3-0.3,0.3-0.7,0-1l-5-5c0,0,0,0,0,0l-0.5-0.5l-5.5,5.5c-0.3,0.3-0.3,0.7,0,1C19,13.6,19.4,13.6,19.7,13.3z"
		/>
	<path d="M28.7,34.4l-3.8,3.8l0-8.3c0-0.2-0.1-0.4-0.2-0.5c-0.1-0.1-0.3-0.2-0.5-0.2c-0.4,0-0.7,0.3-0.7,0.7l0,8.3l-3.8-3.8
		c-0.3-0.3-0.7-0.3-1,0c-0.3,0.3-0.3,0.7,0,1l5.5,5.5l0.5-0.5c0,0,0,0,0,0l5-5c0.3-0.3,0.3-0.7,0-1C29.4,34.1,29,34.1,28.7,34.4z"/>
	<path d="M19,23.3C19,23.3,19,23.3,19,23.3l-5-5c-0.3-0.3-0.7-0.3-1,0c-0.3,0.3-0.3,0.7,0,1l3.8,3.8l-8.3,0c-0.2,0-0.4,0.1-0.5,0.2
		c-0.1,0.1-0.2,0.3-0.2,0.5c0,0.4,0.3,0.7,0.7,0.7l8.3,0L13,28.3c-0.3,0.3-0.3,0.7,0,1c0.3,0.3,0.7,0.3,1,0l5.5-5.5L19,23.3z"/>
	<path d="M40,23.3c-0.1-0.1-0.3-0.2-0.5-0.2l-8.3,0l3.8-3.8c0.3-0.3,0.3-0.7,0-1c-0.3-0.3-0.7-0.3-1,0l-5,5c0,0,0,0,0,0l-0.5,0.5
		l5.5,5.5c0.3,0.3,0.7,0.3,1,0c0.3-0.3,0.3-0.7,0-1l-3.8-3.8l8.3,0c0.4,0,0.7-0.3,0.7-0.7C40.2,23.6,40.1,23.5,40,23.3z"/>
</g>
</svg>
