<?xml version="1.0" encoding="utf-8"?>
<!-- Generator: Adobe Illustrator 21.0.0, SVG Export Plug-In . SVG Version: 6.00 Build 0)  -->
<svg version="1.1" id="图层_1" xmlns="http://www.w3.org/2000/svg" xmlns:xlink="http://www.w3.org/1999/xlink" x="0px" y="0px"
	 viewBox="0 0 48 48" style="enable-background:new 0 0 48 48;" xml:space="preserve">
<g id="背景">
</g>
<g id="参考线">
</g>
<g id="图标">
</g>
<g id="图层_4">
</g>
<g id="图层_5">
	<g>
		<path d="M8.5,17.7L24,47l15.5-29.3C39.5,17.7,8.5,17.7,8.5,17.7z M10.2,18.8h27.5L24,44.8L10.2,18.8z"/>
		<path d="M26.9,46.7c2-0.2,3.8-0.8,5.6-1.5l1.2-3.2c-1.7,0.9-3.5,1.6-5.4,2L26.9,46.7z"/>
		<path d="M14.3,42.1l1.2,3.2c1.8,0.7,3.6,1.2,5.6,1.5L19.7,44C17.8,43.6,16,42.9,14.3,42.1z"/>
		<path d="M24,1C11.3,1,1,11.3,1,24c0,8.2,4.4,15.4,10.9,19.5l-1.2-3.9C6.2,35.8,3.4,30.2,3.4,24C3.4,12.6,12.7,3.4,24,3.4
			S44.6,12.6,44.6,24c0,6.3-2.8,11.9-7.3,15.6l-1.2,3.9C42.6,39.4,47,32.2,47,24C47,11.3,36.7,1,24,1z"/>
	</g>
</g>
</svg>
