<?xml version="1.0" encoding="utf-8"?>
<!-- Generator: Adobe Illustrator 21.0.0, SVG Export Plug-In . SVG Version: 6.00 Build 0)  -->
<svg version="1.1" id="图层_1" xmlns="http://www.w3.org/2000/svg" xmlns:xlink="http://www.w3.org/1999/xlink" x="0px" y="0px"
	 viewBox="0 0 48 48" style="enable-background:new 0 0 48 48;" xml:space="preserve">
<style type="text/css">
	.st0{fill:#060001;}
	.st1{fill:#040000;}
	.st2{fill:#080102;}
	.st3{fill:#070102;}
	.st4{fill:#160F10;}
</style>
<path class="st0" d="M8.7,9.3l-0.3-1C7.7,8.6,7.1,8.9,6.5,9.2L7,10.1C7.5,9.8,8.1,9.5,8.7,9.3z M6.2,10.6L5.6,9.8
	c-0.6,0.4-1.1,0.9-1.5,1.4l0.8,0.6C5.3,11.4,5.7,11,6.2,10.6z M4.3,12.6l-0.8-0.5c-0.4,0.6-0.7,1.2-0.9,1.9l0.9,0.3
	C3.7,13.7,4,13.1,4.3,12.6z M40.5,23.7c-0.6-0.3-1.3-0.5-2-0.6l-0.2,1c0.6,0.1,1.2,0.3,1.8,0.5L40.5,23.7z M44.1,28.4l0.9-0.5
	c-0.3-0.6-0.7-1.2-1.2-1.7l-0.8,0.6C43.5,27.3,43.9,27.8,44.1,28.4z M44.9,31l1-0.1c-0.1-0.7-0.2-1.4-0.5-2l-0.9,0.3
	C44.7,29.8,44.9,30.4,44.9,31z M43.1,25.4c-0.5-0.5-1.1-0.9-1.7-1.2L41,25.1c0.5,0.3,1,0.7,1.5,1.1L43.1,25.4z M39.3,39.7l0.3,1
	c0.7-0.2,1.3-0.5,1.9-0.8L41,38.9C40.5,39.2,39.9,39.5,39.3,39.7z M3.2,15.2l-1-0.2C2.1,15.6,2,16.3,2,17L2,17l1,0
	C3,16.4,3.1,15.8,3.2,15.2z M43.7,36.4l0.8,0.5c0.4-0.6,0.7-1.2,0.9-1.9l-0.9-0.3C44.3,35.3,44,35.9,43.7,36.4z M45,32
	c0,0.6-0.1,1.2-0.2,1.8l1,0.2c0.2-0.7,0.2-1.4,0.2-2l0-0.1L45,32z M41.8,38.4l0.6,0.8c0.6-0.4,1.1-0.9,1.5-1.4l-0.8-0.6
	C42.7,37.6,42.3,38,41.8,38.4z M3.1,18l-1,0.1c0.1,0.7,0.2,1.4,0.5,2l0.9-0.3C3.3,19.2,3.1,18.6,3.1,18z M38,39.9V36
	c0-1.7-1.3-3-3-3H24.5v-4H35c1.7,0,3-1.3,3-3v-4c0-1.7-1.3-3-3-3H24.5v-4H35c1.7,0,3-1.3,3-3V8c0-1.7-1.3-3-3-3H13c-1.7,0-3,1.3-3,3
	v0.1c-0.2,0-0.4,0-0.6,0.1l0.2,1c0.1,0,0.3,0,0.4-0.1V12c0,1.7,1.3,3,3,3h10.5v4H13c-1.7,0-3,1.3-3,3v4c0,1.7,1.3,3,3,3h10.5v4H13
	c-1.7,0-3,1.3-3,3v4c0,1.7,1.3,3,3,3h22c1.3,0,2.4-0.9,2.8-2c0.3,0,0.5-0.1,0.7-0.1l-0.2-1C38.3,39.9,38.1,39.9,38,39.9z M13,13
	c-0.6,0-1-0.4-1-1V8c0-0.6,0.4-1,1-1h22c0.6,0,1,0.4,1,1v4c0,0.6-0.4,1-1,1H13z M13,27c-0.6,0-1-0.4-1-1v-4c0-0.6,0.4-1,1-1h22
	c0.6,0,1,0.4,1,1v4c0,0.6-0.4,1-1,1H13z M36,40c0,0.6-0.4,1-1,1H13c-0.6,0-1-0.4-1-1v-4c0-0.6,0.4-1,1-1h22c0.6,0,1,0.4,1,1V40z
	 M7.4,25.3c0.6,0.3,1.3,0.5,2,0.6l0.2-1c-0.6-0.1-1.2-0.3-1.8-0.5L7.4,25.3z M3.9,20.6L3,21.1c0.3,0.6,0.7,1.2,1.2,1.7l0.8-0.6
	C4.5,21.7,4.1,21.2,3.9,20.6z M4.8,23.6c0.5,0.5,1.1,0.9,1.7,1.2L7,23.9c-0.5-0.3-1-0.7-1.5-1.1L4.8,23.6z"/>
</svg>
